<?xml version="1.0" encoding="utf-8" standalone="no"?>
<!DOCTYPE svg PUBLIC "-//W3C//DTD SVG 1.1//EN"
  "http://www.w3.org/Graphics/SVG/1.1/DTD/svg11.dtd">
<!-- Created with matplotlib (https://matplotlib.org/) -->
<svg height="465.12pt" version="1.1" viewBox="0 0 585.36 465.12" width="585.36pt" xmlns="http://www.w3.org/2000/svg" xmlns:xlink="http://www.w3.org/1999/xlink">
 <metadata>
  <rdf:RDF xmlns:cc="http://creativecommons.org/ns#" xmlns:dc="http://purl.org/dc/elements/1.1/" xmlns:rdf="http://www.w3.org/1999/02/22-rdf-syntax-ns#">
   <cc:Work>
    <dc:type rdf:resource="http://purl.org/dc/dcmitype/StillImage"/>
    <dc:date>2021-06-08T18:47:28.809932</dc:date>
    <dc:format>image/svg+xml</dc:format>
    <dc:creator>
     <cc:Agent>
      <dc:title>Matplotlib v3.3.2, https://matplotlib.org/</dc:title>
     </cc:Agent>
    </dc:creator>
   </cc:Work>
  </rdf:RDF>
 </metadata>
 <defs>
  <style type="text/css">*{stroke-linecap:butt;stroke-linejoin:round;}</style>
 </defs>
 <g id="figure_1">
  <g id="patch_1">
   <path d="M 0 465.12 
L 585.36 465.12 
L 585.36 0 
L 0 0 
z
" style="fill:#f0f0f0;"/>
  </g>
  <g id="axes_1">
   <g id="patch_2">
    <path d="M 66.198426 405.689286 
L 570.24 405.689286 
L 570.24 35.067696 
L 66.198426 35.067696 
z
" style="fill:#ffffff;"/>
   </g>
   <g id="matplotlib.axis_1">
    <g id="xtick_1">
     <g id="line2d_1">
      <path clip-path="url(#pd3671704a7)" d="M 191.095719 405.689286 
L 191.095719 35.067696 
" style="fill:none;stroke:#cccccc;stroke-linecap:round;"/>
     </g>
     <g id="line2d_2">
      <defs>
       <path d="M 0 0 
L 0 6 
" id="m7a26131055" style="stroke:#262626;stroke-width:0.8;"/>
      </defs>
      <g>
       <use style="fill:#262626;stroke:#262626;stroke-width:0.8;" x="191.095719" xlink:href="#m7a26131055" y="405.689286"/>
      </g>
     </g>
     <g id="text_1">
      <!-- $\mathdefault{10^{-6}}$ -->
      <g style="fill:#262626;" transform="translate(177.85632 424.875162)scale(0.14 -0.14)">
       <defs>
        <path d="M 26.59375 63.796875 
C 26.59375 65.890625 26.5 66 25.09375 66 
C 21.203125 61.359375 15.296875 59.890625 9.703125 59.6875 
C 9.40625 59.6875 8.90625 59.6875 8.796875 59.5 
C 8.703125 59.296875 8.703125 59.09375 8.703125 57 
C 11.796875 57 17 57.59375 21 59.984375 
L 21 7.296875 
C 21 3.796875 20.796875 2.59375 12.203125 2.59375 
L 9.203125 2.59375 
L 9.203125 0 
C 14 0.09375 19 0.1875 23.796875 0.1875 
C 28.59375 0.1875 33.59375 0.09375 38.40625 0 
L 38.40625 2.59375 
L 35.40625 2.59375 
C 26.796875 2.59375 26.59375 3.6875 26.59375 7.296875 
z
" id="CMR17-49"/>
        <path d="M 42 31.84375 
C 42 37.96875 41.90625 48.421875 37.703125 56.453125 
C 34 63.484375 28.09375 66 22.90625 66 
C 18.09375 66 12 63.78125 8.203125 56.5625 
C 4.203125 49.015625 3.796875 39.671875 3.796875 31.84375 
C 3.796875 26.109375 3.90625 17.375 7 9.734375 
C 11.296875 -0.609375 19 -2 22.90625 -2 
C 27.5 -2 34.5 -0.109375 38.59375 9.4375 
C 41.59375 16.375 42 24.5 42 31.84375 
z
M 22.90625 -0.40625 
C 16.5 -0.40625 12.703125 5.125 11.296875 12.75 
C 10.203125 18.6875 10.203125 27.328125 10.203125 32.953125 
C 10.203125 40.6875 10.203125 47.109375 11.5 53.234375 
C 13.40625 61.78125 19 64.390625 22.90625 64.390625 
C 27 64.390625 32.296875 61.671875 34.203125 53.4375 
C 35.5 47.71875 35.59375 40.984375 35.59375 32.953125 
C 35.59375 26.421875 35.59375 18.375 34.40625 12.453125 
C 32.296875 1.5 26.40625 -0.40625 22.90625 -0.40625 
z
" id="CMR17-48"/>
        <path d="M 65.90625 23 
C 67.59375 23 69.40625 23 69.40625 25 
C 69.40625 27 67.59375 27 65.90625 27 
L 11.796875 27 
C 10.09375 27 8.296875 27 8.296875 25 
C 8.296875 23 10.09375 23 11.796875 23 
z
" id="CMSY10-0"/>
        <path d="M 10.59375 34.34375 
C 10.59375 58 21.796875 63.6875 28.296875 63.6875 
C 30.40625 63.6875 35.5 63.265625 37.5 59.09375 
C 35.90625 59.09375 32.90625 59.09375 32.90625 55.59375 
C 32.90625 52.890625 35.09375 52 36.5 52 
C 37.40625 52 40.09375 52.390625 40.09375 55.796875 
C 40.09375 62.296875 35.09375 66 28.203125 66 
C 16.296875 66 3.796875 53.296875 3.796875 31.421875 
C 3.796875 4.015625 15.09375 -2 23.09375 -2 
C 32.796875 -2 42 6.734375 42 20.234375 
C 42 32.828125 33.90625 42 23.703125 42 
C 17.59375 42 13.09375 37.96875 10.59375 30.921875 
z
M 23.09375 0.390625 
C 10.796875 0.390625 10.796875 18.9375 10.796875 22.65625 
C 10.796875 29.90625 14.203125 40.390625 23.5 40.390625 
C 25.203125 40.390625 30.09375 40.390625 33.40625 33.4375 
C 35.203125 29.515625 35.203125 25.375 35.203125 20.34375 
C 35.203125 14.90625 35.203125 10.875 33.09375 6.84375 
C 30.90625 2.703125 27.703125 0.390625 23.09375 0.390625 
z
" id="CMR17-54"/>
       </defs>
       <use transform="scale(0.996264)" xlink:href="#CMR17-49"/>
       <use transform="translate(45.690477 0)scale(0.996264)" xlink:href="#CMR17-48"/>
       <use transform="translate(91.380954 36.153639)scale(0.697382)" xlink:href="#CMSY10-0"/>
       <use transform="translate(145.621947 36.153639)scale(0.697382)" xlink:href="#CMR17-54"/>
      </g>
     </g>
    </g>
    <g id="xtick_2">
     <g id="line2d_3">
      <path clip-path="url(#pd3671704a7)" d="M 338.758673 405.689286 
L 338.758673 35.067696 
" style="fill:none;stroke:#cccccc;stroke-linecap:round;"/>
     </g>
     <g id="line2d_4">
      <g>
       <use style="fill:#262626;stroke:#262626;stroke-width:0.8;" x="338.758673" xlink:href="#m7a26131055" y="405.689286"/>
      </g>
     </g>
     <g id="text_2">
      <!-- $\mathdefault{10^{-5}}$ -->
      <g style="fill:#262626;" transform="translate(325.519274 424.875162)scale(0.14 -0.14)">
       <defs>
        <path d="M 11.40625 58.59375 
C 12.40625 58.1875 16.5 56.890625 20.703125 56.890625 
C 30 56.890625 35.09375 61.890625 38 64.6875 
C 38 65.484375 38 66 37.40625 66 
C 37.296875 66 37.09375 66 36.296875 65.59375 
C 32.796875 64.09375 28.703125 63 23.703125 63 
C 20.703125 63 16.203125 63.359375 11.296875 65.484375 
C 10.203125 66 10 66 9.90625 66 
C 9.40625 66 9.296875 65.890625 9.296875 63.90625 
L 9.296875 34.859375 
C 9.296875 33.015625 9.296875 32.5 10.296875 32.5 
C 10.796875 32.5 11 32.703125 11.5 33.421875 
C 14.703125 38.046875 19.09375 40 24.09375 40 
C 27.59375 40 35.09375 37.734375 35.09375 20.203125 
C 35.09375 16.984375 35.09375 11.1875 32.09375 6.59375 
C 29.59375 2.484375 25.703125 0.390625 21.40625 0.390625 
C 14.796875 0.390625 8.09375 4.984375 6.296875 12.6875 
C 6.703125 12.59375 7.5 12.390625 7.90625 12.390625 
C 9.203125 12.390625 11.703125 13.09375 11.703125 16.1875 
C 11.703125 18.890625 9.796875 20 7.90625 20 
C 5.59375 20 4.09375 18.59375 4.09375 15.796875 
C 4.09375 7.09375 11 -2 21.59375 -2 
C 31.90625 -2 41.703125 6.890625 41.703125 19.796875 
C 41.703125 32.09375 33.90625 41.59375 24.203125 41.59375 
C 19.09375 41.59375 14.796875 39.6875 11.40625 36 
z
" id="CMR17-53"/>
       </defs>
       <use transform="scale(0.996264)" xlink:href="#CMR17-49"/>
       <use transform="translate(45.690477 0)scale(0.996264)" xlink:href="#CMR17-48"/>
       <use transform="translate(91.380954 36.153639)scale(0.697382)" xlink:href="#CMSY10-0"/>
       <use transform="translate(145.621947 36.153639)scale(0.697382)" xlink:href="#CMR17-53"/>
      </g>
     </g>
    </g>
    <g id="xtick_3">
     <g id="line2d_5">
      <path clip-path="url(#pd3671704a7)" d="M 486.421627 405.689286 
L 486.421627 35.067696 
" style="fill:none;stroke:#cccccc;stroke-linecap:round;"/>
     </g>
     <g id="line2d_6">
      <g>
       <use style="fill:#262626;stroke:#262626;stroke-width:0.8;" x="486.421627" xlink:href="#m7a26131055" y="405.689286"/>
      </g>
     </g>
     <g id="text_3">
      <!-- $\mathdefault{10^{-4}}$ -->
      <g style="fill:#262626;" transform="translate(473.182227 424.875162)scale(0.14 -0.14)">
       <defs>
        <path d="M 33.59375 64.796875 
C 33.59375 66.890625 33.5 67 31.703125 67 
L 2 19.59375 
L 2 17 
L 27.796875 17 
L 27.796875 7.1875 
C 27.796875 3.59375 27.59375 2.59375 20.59375 2.59375 
L 18.703125 2.59375 
L 18.703125 0 
C 21.90625 0.1875 27.296875 0.1875 30.703125 0.1875 
C 34.09375 0.1875 39.5 0.1875 42.703125 0 
L 42.703125 2.59375 
L 40.796875 2.59375 
C 33.796875 2.59375 33.59375 3.59375 33.59375 7.1875 
L 33.59375 17 
L 43.796875 17 
L 43.796875 19.59375 
L 33.59375 19.59375 
z
M 28.09375 58.171875 
L 28.09375 19.59375 
L 4 19.59375 
z
" id="CMR17-52"/>
       </defs>
       <use transform="scale(0.996264)" xlink:href="#CMR17-49"/>
       <use transform="translate(45.690477 0)scale(0.996264)" xlink:href="#CMR17-48"/>
       <use transform="translate(91.380954 36.153639)scale(0.697382)" xlink:href="#CMSY10-0"/>
       <use transform="translate(145.621947 36.153639)scale(0.697382)" xlink:href="#CMR17-52"/>
      </g>
     </g>
    </g>
    <g id="xtick_4">
     <g id="line2d_7">
      <defs>
       <path d="M 0 0 
L 0 3 
" id="m428ee66064" style="stroke:#262626;stroke-width:0.6;"/>
      </defs>
      <g>
       <use style="fill:#262626;stroke:#262626;stroke-width:0.6;" x="87.883744" xlink:href="#m428ee66064" y="405.689286"/>
      </g>
     </g>
    </g>
    <g id="xtick_5">
     <g id="line2d_8">
      <g>
       <use style="fill:#262626;stroke:#262626;stroke-width:0.6;" x="113.885899" xlink:href="#m428ee66064" y="405.689286"/>
      </g>
     </g>
    </g>
    <g id="xtick_6">
     <g id="line2d_9">
      <g>
       <use style="fill:#262626;stroke:#262626;stroke-width:0.6;" x="132.334722" xlink:href="#m428ee66064" y="405.689286"/>
      </g>
     </g>
    </g>
    <g id="xtick_7">
     <g id="line2d_10">
      <g>
       <use style="fill:#262626;stroke:#262626;stroke-width:0.6;" x="146.644741" xlink:href="#m428ee66064" y="405.689286"/>
      </g>
     </g>
    </g>
    <g id="xtick_8">
     <g id="line2d_11">
      <g>
       <use style="fill:#262626;stroke:#262626;stroke-width:0.6;" x="158.336878" xlink:href="#m428ee66064" y="405.689286"/>
      </g>
     </g>
    </g>
    <g id="xtick_9">
     <g id="line2d_12">
      <g>
       <use style="fill:#262626;stroke:#262626;stroke-width:0.6;" x="168.222438" xlink:href="#m428ee66064" y="405.689286"/>
      </g>
     </g>
    </g>
    <g id="xtick_10">
     <g id="line2d_13">
      <g>
       <use style="fill:#262626;stroke:#262626;stroke-width:0.6;" x="176.7857" xlink:href="#m428ee66064" y="405.689286"/>
      </g>
     </g>
    </g>
    <g id="xtick_11">
     <g id="line2d_14">
      <g>
       <use style="fill:#262626;stroke:#262626;stroke-width:0.6;" x="184.339033" xlink:href="#m428ee66064" y="405.689286"/>
      </g>
     </g>
    </g>
    <g id="xtick_12">
     <g id="line2d_15">
      <g>
       <use style="fill:#262626;stroke:#262626;stroke-width:0.6;" x="235.546698" xlink:href="#m428ee66064" y="405.689286"/>
      </g>
     </g>
    </g>
    <g id="xtick_13">
     <g id="line2d_16">
      <g>
       <use style="fill:#262626;stroke:#262626;stroke-width:0.6;" x="261.548853" xlink:href="#m428ee66064" y="405.689286"/>
      </g>
     </g>
    </g>
    <g id="xtick_14">
     <g id="line2d_17">
      <g>
       <use style="fill:#262626;stroke:#262626;stroke-width:0.6;" x="279.997676" xlink:href="#m428ee66064" y="405.689286"/>
      </g>
     </g>
    </g>
    <g id="xtick_15">
     <g id="line2d_18">
      <g>
       <use style="fill:#262626;stroke:#262626;stroke-width:0.6;" x="294.307695" xlink:href="#m428ee66064" y="405.689286"/>
      </g>
     </g>
    </g>
    <g id="xtick_16">
     <g id="line2d_19">
      <g>
       <use style="fill:#262626;stroke:#262626;stroke-width:0.6;" x="305.999831" xlink:href="#m428ee66064" y="405.689286"/>
      </g>
     </g>
    </g>
    <g id="xtick_17">
     <g id="line2d_20">
      <g>
       <use style="fill:#262626;stroke:#262626;stroke-width:0.6;" x="315.885392" xlink:href="#m428ee66064" y="405.689286"/>
      </g>
     </g>
    </g>
    <g id="xtick_18">
     <g id="line2d_21">
      <g>
       <use style="fill:#262626;stroke:#262626;stroke-width:0.6;" x="324.448654" xlink:href="#m428ee66064" y="405.689286"/>
      </g>
     </g>
    </g>
    <g id="xtick_19">
     <g id="line2d_22">
      <g>
       <use style="fill:#262626;stroke:#262626;stroke-width:0.6;" x="332.001987" xlink:href="#m428ee66064" y="405.689286"/>
      </g>
     </g>
    </g>
    <g id="xtick_20">
     <g id="line2d_23">
      <g>
       <use style="fill:#262626;stroke:#262626;stroke-width:0.6;" x="383.209651" xlink:href="#m428ee66064" y="405.689286"/>
      </g>
     </g>
    </g>
    <g id="xtick_21">
     <g id="line2d_24">
      <g>
       <use style="fill:#262626;stroke:#262626;stroke-width:0.6;" x="409.211807" xlink:href="#m428ee66064" y="405.689286"/>
      </g>
     </g>
    </g>
    <g id="xtick_22">
     <g id="line2d_25">
      <g>
       <use style="fill:#262626;stroke:#262626;stroke-width:0.6;" x="427.66063" xlink:href="#m428ee66064" y="405.689286"/>
      </g>
     </g>
    </g>
    <g id="xtick_23">
     <g id="line2d_26">
      <g>
       <use style="fill:#262626;stroke:#262626;stroke-width:0.6;" x="441.970649" xlink:href="#m428ee66064" y="405.689286"/>
      </g>
     </g>
    </g>
    <g id="xtick_24">
     <g id="line2d_27">
      <g>
       <use style="fill:#262626;stroke:#262626;stroke-width:0.6;" x="453.662785" xlink:href="#m428ee66064" y="405.689286"/>
      </g>
     </g>
    </g>
    <g id="xtick_25">
     <g id="line2d_28">
      <g>
       <use style="fill:#262626;stroke:#262626;stroke-width:0.6;" x="463.548346" xlink:href="#m428ee66064" y="405.689286"/>
      </g>
     </g>
    </g>
    <g id="xtick_26">
     <g id="line2d_29">
      <g>
       <use style="fill:#262626;stroke:#262626;stroke-width:0.6;" x="472.111608" xlink:href="#m428ee66064" y="405.689286"/>
      </g>
     </g>
    </g>
    <g id="xtick_27">
     <g id="line2d_30">
      <g>
       <use style="fill:#262626;stroke:#262626;stroke-width:0.6;" x="479.664941" xlink:href="#m428ee66064" y="405.689286"/>
      </g>
     </g>
    </g>
    <g id="xtick_28">
     <g id="line2d_31">
      <g>
       <use style="fill:#262626;stroke:#262626;stroke-width:0.6;" x="530.872605" xlink:href="#m428ee66064" y="405.689286"/>
      </g>
     </g>
    </g>
    <g id="xtick_29">
     <g id="line2d_32">
      <g>
       <use style="fill:#262626;stroke:#262626;stroke-width:0.6;" x="556.874761" xlink:href="#m428ee66064" y="405.689286"/>
      </g>
     </g>
    </g>
    <g id="text_4">
     <!-- Fluence, $\mathcal{F}_\gamma$ (erg/cm$^2$) -->
     <g style="fill:#262626;" transform="translate(240.649952 445.211317)scale(0.168 -0.168)">
      <defs>
       <path d="M 45.59375 31 
L 45.59375 37.09375 
L 17.203125 37.09375 
L 17.203125 62.390625 
L 29.40625 62.390625 
C 30.59375 62.390625 31.796875 62.296875 33 62.296875 
L 49.5 62.296875 
L 49.5 68.796875 
L 8.796875 68.796875 
L 8.796875 0 
L 17.203125 0 
L 17.203125 31 
z
" id="CMSS17-70"/>
       <path d="M 14.796875 69 
L 7.40625 69 
L 7.40625 0 
L 14.796875 0 
z
" id="CMSS17-108"/>
       <path d="M 40.90625 43 
L 33.296875 43 
L 33.296875 15.25 
C 33.296875 7.8125 27.90625 4.796875 22.203125 4.796875 
C 15.59375 4.796875 15 7 15 11.125 
L 15 43 
L 7.40625 43 
L 7.40625 10.625 
C 7.40625 2.796875 10.09375 -1 17 -1 
C 20.40625 -1 28.09375 -0.203125 33.5 4.796875 
L 33.5 -0.203125 
L 40.90625 -0.203125 
z
" id="CMSS17-117"/>
       <path d="M 39.09375 21.484375 
C 39.09375 24.796875 38.90625 31.265625 35.703125 36.671875 
C 32.203125 42.390625 26.5 44 22.203125 44 
C 11.796875 44 3 34.125 3 21.296875 
C 3 9.046875 12.09375 -1 23.59375 -1 
C 28.09375 -1 33.59375 0.296875 38.59375 3.890625 
C 38.59375 4.296875 38.40625 6.46875 38.296875 6.578125 
C 38.296875 6.765625 38 9.828125 38 10.234375 
C 33.203125 6.375 27.703125 5.09375 23.703125 5.09375 
C 17.296875 5.09375 10.40625 10.421875 10.09375 21.484375 
z
M 10.90625 27 
C 12.203125 32.59375 16.59375 37.890625 22.203125 37.890625 
C 23.703125 37.890625 30.703125 37.6875 32.5 27 
z
" id="CMSS17-101"/>
       <path d="M 40.90625 29.34375 
C 40.90625 35.671875 39.40625 44 28.09375 44 
C 21.703125 44 17.5 40.6875 14.703125 37.28125 
L 14.703125 43.484375 
L 7.40625 43.484375 
L 7.40625 0 
L 15 0 
L 15 24.3125 
C 15 30.65625 17.40625 37.890625 24.203125 37.890625 
C 33 37.890625 33.296875 31.953125 33.296875 28.53125 
L 33.296875 0 
L 40.90625 0 
z
" id="CMSS17-110"/>
       <path d="M 38.5 39.6875 
C 38.5 40.390625 33.90625 42.390625 32.703125 42.796875 
C 29.40625 44 25.203125 44 24.09375 44 
C 11.09375 44 3.296875 32.6875 3.296875 21.296875 
C 3.296875 9.296875 12 -1 23.703125 -1 
C 30.40625 -1 35.203125 1.1875 39.09375 3.796875 
L 38.5 10.390625 
C 34.203125 7.09375 29.203125 5.296875 23.796875 5.296875 
C 16 5.296875 10.90625 12.09375 10.90625 21.390625 
C 10.90625 28.59375 14.203125 37.6875 24.203125 37.6875 
C 29.703125 37.6875 32.796875 36.59375 37.40625 33.484375 
z
" id="CMSS17-99"/>
       <path d="M 17 0.09375 
L 17 8 
L 9 8 
L 9 0 
L 11.5 0 
L 8.90625 -12.109375 
L 12.90625 -12.109375 
z
" id="CMSS17-44"/>
       <path d="M 83 64.09375 
C 83 68.6875 75.296875 68 72.203125 68 
L 34.5 68 
C 29.5 68 20.59375 65.09375 19 59.6875 
C 19.203125 59.09375 19.40625 58.984375 20 58.984375 
C 22.203125 58.984375 25.203125 60.796875 26.59375 62.296875 
C 29.703125 62.296875 32.703125 62.484375 35.796875 62.484375 
L 42 62.484375 
C 42 62.484375 41.59375 60.6875 41.59375 60.59375 
C 37.703125 42.296875 31.796875 26.890625 27.40625 17.375 
C 26.796875 16.109375 21.40625 3.796875 20 2.59375 
C 15.59375 2.59375 12.296875 5 10.5 8.890625 
C 10.203125 9.5 10.203125 9.890625 9.5 9.890625 
C 7.203125 9.890625 1.703125 6.6875 1.703125 5 
C 1.703125 4.796875 1.796875 4.59375 1.90625 4.390625 
C 3.703125 -0.3125 8.203125 -3 13.09375 -3 
C 18.203125 -3 24.09375 0.6875 27.296875 4.390625 
C 30.59375 8.1875 37.203125 24.171875 39.796875 30 
L 59.09375 30 
C 59 29.890625 58.90625 29.796875 58.90625 29.6875 
C 58.90625 29.3125 59.5 29.015625 59.90625 29.015625 
C 62.09375 29.015625 67.796875 31.796875 67.796875 34.890625 
C 67.796875 35.59375 67.09375 35.5 65.90625 35.5 
L 41.90625 35.5 
C 44.5 44.484375 47.90625 53.296875 49.703125 62.484375 
L 62.90625 62.484375 
C 65.40625 62.484375 72.40625 62.984375 74.203125 60.796875 
C 74.40625 60.1875 74.09375 59.1875 74.40625 58.6875 
C 74.59375 58.484375 74.90625 58.390625 75.203125 58.390625 
C 77.59375 58.390625 83 61.390625 83 64.09375 
z
" id="CMSY10-70"/>
       <path d="M 37.796875 12.265625 
C 37.59375 17.140625 37.40625 24.78125 33.59375 33.71875 
C 31.59375 38.6875 28.203125 44 20.90625 44 
C 8.59375 44 1.90625 28.359375 1.90625 25.765625 
C 1.90625 24.875 2.59375 24.875 2.90625 24.875 
C 3.796875 24.875 3.796875 25.078125 4.296875 26.375 
C 6.40625 32.515625 12.796875 37.390625 19.703125 37.390625 
C 33.59375 37.390625 35.59375 22 35.59375 12.171875 
C 35.59375 5.90625 34.90625 3.828125 34.296875 1.84375 
C 32.40625 -4.3125 29.09375 -16.625 29.09375 -19.40625 
C 29.09375 -20.203125 29.40625 -21.109375 30.203125 -21.109375 
C 31.703125 -21.109375 32.59375 -17.8125 33.703125 -13.84375 
C 36.09375 -5.109375 36.703125 -0.734375 37.203125 3.234375 
C 37.5 5.625 43.203125 22.015625 51.09375 37.609375 
C 51.796875 39.203125 53.203125 41.890625 53.203125 42.1875 
C 53.203125 42.296875 53.09375 43 52.203125 43 
C 52 43 51.5 43 51.296875 42.59375 
C 51.09375 42.390625 47.59375 35.625 44.59375 28.875 
C 43.09375 25.46875 41.09375 21 37.796875 12.265625 
z
" id="CMMI12-13"/>
       <path d="M 25.203125 75 
C 19.796875 69.484375 7.40625 56.671875 7.40625 25.046875 
C 7.40625 -6.6875 19.796875 -19.40625 25.203125 -25 
L 31.296875 -25 
C 19 -12.203125 15 5.71875 15 24.9375 
C 15 44.0625 18.796875 62.078125 31.296875 75 
z
" id="CMSS17-40"/>
       <path d="M 14.90625 21.390625 
C 14.90625 30.84375 21.796875 37.171875 30.59375 37.375 
L 30.59375 44 
C 24.203125 43.890625 18.203125 40.6875 14.59375 35.46875 
L 14.59375 43.484375 
L 7.5 43.484375 
L 7.5 0 
L 14.90625 0 
z
" id="CMSS17-114"/>
       <path d="M 44.5 44 
C 38.796875 43.890625 33.90625 42.796875 29.90625 40.890625 
C 26.59375 43.484375 23.203125 44 20.90625 44 
C 12.203125 44 5.59375 36.8125 5.59375 28.5 
C 5.59375 23.140625 8.59375 19.09375 8.796875 18.890625 
C 7 16.390625 6 13.6875 6 10.6875 
C 6 7.1875 7.40625 4.6875 8.5 3.296875 
C 3.296875 0.09375 2.59375 -4.8125 2.59375 -6.703125 
C 2.59375 -14 11.703125 -20 23.40625 -20 
C 35.203125 -20 44.296875 -14 44.296875 -6.609375 
C 44.296875 7.1875 29 7.296875 24.796875 7.296875 
L 16.703125 7.296875 
C 15.203125 7.296875 11.203125 7.296875 11.203125 12.390625 
C 11.203125 14.390625 12.09375 15.6875 12.203125 15.796875 
C 13.703125 14.6875 16.796875 13 20.90625 13 
C 29.203125 13 36.09375 19.984375 36.09375 28.5 
C 36.09375 33.25 33.90625 36.703125 33 37.890625 
L 33.296875 37.890625 
C 33.59375 37.890625 37.796875 38.1875 39.296875 38.1875 
C 42.5 38.1875 42.796875 38.09375 45.59375 37.796875 
z
M 20.90625 18.5 
C 17.5 18.5 12.703125 20.578125 12.703125 28.5 
C 12.703125 37.109375 18.203125 38.484375 20.796875 38.484375 
C 24.203125 38.484375 29 36.40625 29 28.5 
C 29 19.875 23.5 18.5 20.90625 18.5 
z
M 24.703125 0 
C 27.09375 0 37.203125 0 37.203125 -6.8125 
C 37.203125 -11.109375 31 -14.5 23.5 -14.5 
C 15.90625 -14.5 9.703125 -11.203125 9.703125 -6.703125 
C 9.703125 -6.203125 9.703125 0 16.59375 0 
z
" id="CMSS17-103"/>
       <path d="M 41.203125 71.484375 
C 41.703125 72.78125 41.703125 72.984375 41.703125 73.1875 
C 41.703125 74.390625 40.796875 75 40 75 
C 38.796875 75 38.40625 74.1875 38 72.984375 
L 5.703125 -21.5 
C 5.203125 -22.8125 5.203125 -23 5.203125 -23.203125 
C 5.203125 -24.40625 6.09375 -25 6.90625 -25 
C 8.09375 -25 8.5 -24.203125 8.90625 -23 
z
" id="CMSS17-47"/>
       <path d="M 67 29.34375 
C 67 36.078125 65.296875 44 54.09375 44 
C 46.59375 44 42.09375 39.296875 40.09375 36.375 
C 38.296875 41.6875 34.09375 44 28.09375 44 
C 21.296875 44 17 40.09375 14.703125 37.28125 
L 14.703125 43.484375 
L 7.40625 43.484375 
L 7.40625 0 
L 15 0 
L 15 24.3125 
C 15 30.25 17.203125 37.890625 24.296875 37.890625 
C 33.40625 37.890625 33.40625 31.453125 33.40625 28.53125 
L 33.40625 0 
L 41 0 
L 41 24.3125 
C 41 30.25 43.203125 37.890625 50.296875 37.890625 
C 59.40625 37.890625 59.40625 31.453125 59.40625 28.53125 
L 59.40625 0 
L 67 0 
z
" id="CMSS17-109"/>
       <path d="M 41.703125 15.46875 
L 39.90625 15.46875 
C 38.90625 8.390625 38.09375 7.1875 37.703125 6.59375 
C 37.203125 5.796875 30 5.796875 28.59375 5.796875 
L 9.40625 5.796875 
C 13 9.6875 20 16.765625 28.5 24.9375 
C 34.59375 30.71875 41.703125 37.5 41.703125 47.390625 
C 41.703125 59.1875 32.296875 66 21.796875 66 
C 10.796875 66 4.09375 56.296875 4.09375 47.296875 
C 4.09375 43.390625 7 42.890625 8.203125 42.890625 
C 9.203125 42.890625 12.203125 43.484375 12.203125 46.984375 
C 12.203125 50.09375 9.59375 51 8.203125 51 
C 7.59375 51 7 50.890625 6.59375 50.6875 
C 8.5 59.1875 14.296875 63.390625 20.40625 63.390625 
C 29.09375 63.390625 34.796875 56.5 34.796875 47.390625 
C 34.796875 38.703125 29.703125 31.21875 24 24.734375 
L 4.09375 2.296875 
L 4.09375 0 
L 39.296875 0 
z
" id="CMR17-50"/>
       <path d="M 11.296875 -25 
C 16.703125 -19.5 29.09375 -6.6875 29.09375 24.9375 
C 29.09375 56.671875 16.703125 69.375 11.296875 75 
L 5.203125 75 
C 17.5 62.171875 21.5 44.265625 21.5 25.046875 
C 21.5 5.921875 17.703125 -12.09375 5.203125 -25 
z
" id="CMSS17-41"/>
      </defs>
      <use transform="scale(0.996264)" xlink:href="#CMSS17-70"/>
      <use transform="translate(53.289559 0)scale(0.996264)" xlink:href="#CMSS17-108"/>
      <use transform="translate(75.470282 0)scale(0.996264)" xlink:href="#CMSS17-117"/>
      <use transform="translate(123.675225 0)scale(0.996264)" xlink:href="#CMSS17-101"/>
      <use transform="translate(165.314048 0)scale(0.996264)" xlink:href="#CMSS17-110"/>
      <use transform="translate(213.518991 0)scale(0.996264)" xlink:href="#CMSS17-99"/>
      <use transform="translate(255.157813 0)scale(0.996264)" xlink:href="#CMSS17-101"/>
      <use transform="translate(296.796635 0)scale(0.996264)" xlink:href="#CMSS17-44"/>
      <use transform="translate(354.049952 0)scale(0.996264)" xlink:href="#CMSY10-70"/>
      <use transform="translate(425.656231 -14.943915)scale(0.697382)" xlink:href="#CMMI12-13"/>
      <use transform="translate(496.596275 0)scale(0.996264)" xlink:href="#CMSS17-40"/>
      <use transform="translate(533.03019 0)scale(0.996264)" xlink:href="#CMSS17-101"/>
      <use transform="translate(574.669012 0)scale(0.996264)" xlink:href="#CMSS17-114"/>
      <use transform="translate(606.578784 0)scale(0.996264)" xlink:href="#CMSS17-103"/>
      <use transform="translate(653.422408 0)scale(0.996264)" xlink:href="#CMSS17-47"/>
      <use transform="translate(700.266031 0)scale(0.996264)" xlink:href="#CMSS17-99"/>
      <use transform="translate(741.904853 0)scale(0.996264)" xlink:href="#CMSS17-109"/>
      <use transform="translate(816.134108 36.153639)scale(0.697382)" xlink:href="#CMR17-50"/>
      <use transform="translate(848.615422 0)scale(0.996264)" xlink:href="#CMSS17-41"/>
     </g>
    </g>
   </g>
   <g id="matplotlib.axis_2">
    <g id="ytick_1">
     <g id="line2d_33">
      <path clip-path="url(#pd3671704a7)" d="M 66.198426 390.114279 
L 570.24 390.114279 
" style="fill:none;stroke:#cccccc;stroke-linecap:round;"/>
     </g>
     <g id="line2d_34">
      <defs>
       <path d="M 0 0 
L -6 0 
" id="m45aa7d8893" style="stroke:#262626;stroke-width:0.8;"/>
      </defs>
      <g>
       <use style="fill:#262626;stroke:#262626;stroke-width:0.8;" x="66.198426" xlink:href="#m45aa7d8893" y="390.114279"/>
      </g>
     </g>
     <g id="text_5">
      <!-- $\mathdefault{0.0}$ -->
      <g style="fill:#262626;" transform="translate(39.247844 394.957217)scale(0.14 -0.14)">
       <defs>
        <path d="M 18.40625 4.796875 
C 18.40625 7.6875 16 9.6875 13.59375 9.6875 
C 10.703125 9.6875 8.703125 7.296875 8.703125 4.890625 
C 8.703125 2 11.09375 0 13.5 0 
C 16.40625 0 18.40625 2.390625 18.40625 4.796875 
z
" id="CMMI12-58"/>
       </defs>
       <use transform="scale(0.996264)" xlink:href="#CMR17-48"/>
       <use transform="translate(45.690477 0)scale(0.996264)" xlink:href="#CMMI12-58"/>
       <use transform="translate(72.787654 0)scale(0.996264)" xlink:href="#CMR17-48"/>
      </g>
     </g>
    </g>
    <g id="ytick_2">
     <g id="line2d_35">
      <path clip-path="url(#pd3671704a7)" d="M 66.198426 322.47425 
L 570.24 322.47425 
" style="fill:none;stroke:#cccccc;stroke-linecap:round;"/>
     </g>
     <g id="line2d_36">
      <g>
       <use style="fill:#262626;stroke:#262626;stroke-width:0.8;" x="66.198426" xlink:href="#m45aa7d8893" y="322.47425"/>
      </g>
     </g>
     <g id="text_6">
      <!-- $\mathdefault{0.2}$ -->
      <g style="fill:#262626;" transform="translate(39.247844 327.317188)scale(0.14 -0.14)">
       <use transform="scale(0.996264)" xlink:href="#CMR17-48"/>
       <use transform="translate(45.690477 0)scale(0.996264)" xlink:href="#CMMI12-58"/>
       <use transform="translate(72.787654 0)scale(0.996264)" xlink:href="#CMR17-50"/>
      </g>
     </g>
    </g>
    <g id="ytick_3">
     <g id="line2d_37">
      <path clip-path="url(#pd3671704a7)" d="M 66.198426 254.83422 
L 570.24 254.83422 
" style="fill:none;stroke:#cccccc;stroke-linecap:round;"/>
     </g>
     <g id="line2d_38">
      <g>
       <use style="fill:#262626;stroke:#262626;stroke-width:0.8;" x="66.198426" xlink:href="#m45aa7d8893" y="254.83422"/>
      </g>
     </g>
     <g id="text_7">
      <!-- $\mathdefault{0.4}$ -->
      <g style="fill:#262626;" transform="translate(39.247844 259.677159)scale(0.14 -0.14)">
       <use transform="scale(0.996264)" xlink:href="#CMR17-48"/>
       <use transform="translate(45.690477 0)scale(0.996264)" xlink:href="#CMMI12-58"/>
       <use transform="translate(72.787654 0)scale(0.996264)" xlink:href="#CMR17-52"/>
      </g>
     </g>
    </g>
    <g id="ytick_4">
     <g id="line2d_39">
      <path clip-path="url(#pd3671704a7)" d="M 66.198426 187.194191 
L 570.24 187.194191 
" style="fill:none;stroke:#cccccc;stroke-linecap:round;"/>
     </g>
     <g id="line2d_40">
      <g>
       <use style="fill:#262626;stroke:#262626;stroke-width:0.8;" x="66.198426" xlink:href="#m45aa7d8893" y="187.194191"/>
      </g>
     </g>
     <g id="text_8">
      <!-- $\mathdefault{0.6}$ -->
      <g style="fill:#262626;" transform="translate(39.247844 192.037129)scale(0.14 -0.14)">
       <use transform="scale(0.996264)" xlink:href="#CMR17-48"/>
       <use transform="translate(45.690477 0)scale(0.996264)" xlink:href="#CMMI12-58"/>
       <use transform="translate(72.787654 0)scale(0.996264)" xlink:href="#CMR17-54"/>
      </g>
     </g>
    </g>
    <g id="ytick_5">
     <g id="line2d_41">
      <path clip-path="url(#pd3671704a7)" d="M 66.198426 119.554161 
L 570.24 119.554161 
" style="fill:none;stroke:#cccccc;stroke-linecap:round;"/>
     </g>
     <g id="line2d_42">
      <g>
       <use style="fill:#262626;stroke:#262626;stroke-width:0.8;" x="66.198426" xlink:href="#m45aa7d8893" y="119.554161"/>
      </g>
     </g>
     <g id="text_9">
      <!-- $\mathdefault{0.8}$ -->
      <g style="fill:#262626;" transform="translate(39.247844 124.3971)scale(0.14 -0.14)">
       <defs>
        <path d="M 27.203125 35.765625 
C 33.5 38.96875 39.90625 43.796875 39.90625 51.53125 
C 39.90625 60.6875 31.09375 66 23 66 
C 13.90625 66 5.90625 59.375 5.90625 50.234375 
C 5.90625 47.71875 6.5 43.390625 10.40625 39.578125 
C 11.40625 38.578125 15.59375 35.5625 18.296875 33.65625 
C 13.796875 31.34375 3.296875 25.8125 3.296875 14.765625 
C 3.296875 4.40625 13.09375 -2 22.796875 -2 
C 33.5 -2 42.5 5.71875 42.5 15.96875 
C 42.5 25.109375 36.40625 29.328125 32.40625 32.046875 
z
M 14.09375 44.609375 
C 13.296875 45.109375 9.296875 48.21875 9.296875 52.9375 
C 9.296875 59.078125 15.59375 63.6875 22.796875 63.6875 
C 30.703125 63.6875 36.5 58.0625 36.5 51.53125 
C 36.5 42.1875 26.09375 36.859375 25.59375 36.859375 
C 25.5 36.859375 25.40625 36.859375 24.59375 37.46875 
z
M 32.5 24 
C 34 22.90625 38.796875 19.578125 38.796875 13.453125 
C 38.796875 6.015625 31.40625 0.390625 23 0.390625 
C 13.90625 0.390625 7 6.921875 7 14.859375 
C 7 22.796875 13.09375 29.4375 20 32.546875 
z
" id="CMR17-56"/>
       </defs>
       <use transform="scale(0.996264)" xlink:href="#CMR17-48"/>
       <use transform="translate(45.690477 0)scale(0.996264)" xlink:href="#CMMI12-58"/>
       <use transform="translate(72.787654 0)scale(0.996264)" xlink:href="#CMR17-56"/>
      </g>
     </g>
    </g>
    <g id="ytick_6">
     <g id="line2d_43">
      <path clip-path="url(#pd3671704a7)" d="M 66.198426 51.914132 
L 570.24 51.914132 
" style="fill:none;stroke:#cccccc;stroke-linecap:round;"/>
     </g>
     <g id="line2d_44">
      <g>
       <use style="fill:#262626;stroke:#262626;stroke-width:0.8;" x="66.198426" xlink:href="#m45aa7d8893" y="51.914132"/>
      </g>
     </g>
     <g id="text_10">
      <!-- $\mathdefault{1.0}$ -->
      <g style="fill:#262626;" transform="translate(39.247844 56.75707)scale(0.14 -0.14)">
       <use transform="scale(0.996264)" xlink:href="#CMR17-49"/>
       <use transform="translate(45.690477 0)scale(0.996264)" xlink:href="#CMMI12-58"/>
       <use transform="translate(72.787654 0)scale(0.996264)" xlink:href="#CMR17-48"/>
      </g>
     </g>
    </g>
    <g id="text_11">
     <!-- $\tilde{F}(\mathcal{F}_\gamma|\mathcal{F}_\gamma&gt;\mathcal{F}_{min.})$ -->
     <g style="fill:#262626;" transform="translate(30.459161 284.354957)rotate(-90)scale(0.168 -0.168)">
      <defs>
       <path d="M 37.5 65.59375 
C 34.09375 62.296875 32.203125 60.390625 29.09375 60.390625 
C 26.90625 60.390625 25.40625 61.5 23.296875 63 
C 21.296875 64.390625 19.703125 65.59375 17.5 65.59375 
C 13.90625 65.59375 11.40625 62.6875 7.203125 58.09375 
L 8.296875 57 
C 11.703125 60.296875 13.59375 62.1875 16.703125 62.1875 
C 18.90625 62.1875 20.40625 61.09375 22.5 59.59375 
C 24.5 58.1875 26.09375 57 28.296875 57 
C 31.90625 57 34.40625 59.890625 38.59375 64.5 
z
" id="CMR17-126"/>
       <path d="M 29.703125 32.09375 
L 39.296875 32.09375 
C 46.90625 32.09375 47.5 30.421875 47.5 27.5625 
C 47.5 26.296875 47.296875 24.921875 46.796875 22.75 
C 46.59375 22.359375 46.5 21.859375 46.5 21.671875 
C 46.5 20.984375 46.90625 20.59375 47.59375 20.59375 
C 48.40625 20.59375 48.5 20.984375 48.90625 22.5625 
L 54.703125 45.765625 
C 54.703125 46.171875 54.40625 46.765625 53.703125 46.765625 
C 52.796875 46.765625 52.703125 46.375 52.296875 44.65625 
C 50.203125 37.109375 48.203125 35 39.5 35 
L 30.40625 35 
L 36.90625 61.0625 
C 37.796875 64.59375 38 64.890625 42.09375 64.890625 
L 55.5 64.890625 
C 68 64.890625 69.796875 61.171875 69.796875 54.015625 
C 69.796875 53.421875 69.796875 51.203125 69.5 48.578125 
C 69.40625 48.1875 69.203125 46.875 69.203125 46.46875 
C 69.203125 45.65625 69.703125 45.359375 70.296875 45.359375 
C 71 45.359375 71.40625 45.765625 71.59375 47.578125 
L 73.703125 65.1875 
C 73.703125 65.484375 73.90625 66.484375 73.90625 66.6875 
C 73.90625 67.796875 73 67.796875 71.203125 67.796875 
L 23.796875 67.796875 
C 21.90625 67.796875 20.90625 67.796875 20.90625 65.984375 
C 20.90625 64.890625 21.59375 64.890625 23.296875 64.890625 
C 29.5 64.890625 29.5 64.1875 29.5 63.078125 
C 29.5 62.578125 29.40625 62.171875 29.09375 61.0625 
L 15.59375 7.3125 
C 14.703125 3.875 14.5 2.890625 7.5 2.890625 
C 5.59375 2.890625 4.59375 2.890625 4.59375 1.09375 
C 4.59375 0 5.5 0 6.09375 0 
C 8 0 10 0.1875 11.90625 0.1875 
L 24.90625 0.1875 
C 27.09375 0.1875 29.5 0 31.703125 0 
C 32.59375 0 33.796875 0 33.796875 1.796875 
C 33.796875 2.890625 33.203125 2.890625 31 2.890625 
C 23.09375 2.890625 22.90625 3.578125 22.90625 5.0625 
C 22.90625 5.546875 23.09375 6.328125 23.296875 7.015625 
z
" id="CMMI12-70"/>
       <path d="M 30.59375 -24.40625 
C 30.59375 -24.3125 30.59375 -24.109375 30.296875 -23.8125 
C 25.703125 -19.109375 13.40625 -6.296875 13.40625 24.9375 
C 13.40625 56.171875 25.5 68.875 30.40625 73.890625 
C 30.40625 73.984375 30.59375 74.1875 30.59375 74.484375 
C 30.59375 74.796875 30.296875 75 29.90625 75 
C 28.796875 75 20.296875 67.578125 15.40625 56.5625 
C 10.40625 45.453125 9 34.65625 9 25.046875 
C 9 17.828125 9.703125 5.625 15.703125 -7.296875 
C 20.5 -17.703125 28.703125 -25 29.90625 -25 
C 30.40625 -25 30.59375 -24.8125 30.59375 -24.40625 
z
" id="CMR17-40"/>
       <path d="M 15.90625 71.390625 
C 15.90625 73.1875 15.90625 75 13.90625 75 
C 11.90625 75 11.90625 73.1875 11.90625 71.390625 
L 11.90625 -21.40625 
C 11.90625 -23.203125 11.90625 -25 13.90625 -25 
C 15.90625 -25 15.90625 -23.203125 15.90625 -21.40625 
z
" id="CMSY10-106"/>
       <path d="M 65.90625 22.8125 
C 67.796875 23.734375 67.90625 24.328125 67.90625 25.046875 
C 67.90625 25.640625 67.703125 26.359375 65.90625 27.15625 
L 11.796875 52.296875 
C 10.5 52.890625 10.296875 53 10.09375 53 
C 8.90625 53 8.203125 51.984375 8.203125 51.1875 
C 8.203125 49.984375 9 49.578125 10.296875 48.96875 
L 61.703125 25.046875 
L 10.203125 1.015625 
C 8.203125 0.109375 8.203125 -0.609375 8.203125 -1.203125 
C 8.203125 -2 8.90625 -3 10.09375 -3 
C 10.296875 -3 10.40625 -2.90625 11.796875 -2.3125 
z
" id="CMMI12-62"/>
       <path d="M 20.59375 29.21875 
C 20.796875 29.828125 23.296875 34.8125 27 38 
C 29.59375 40.390625 33 41.984375 36.90625 41.984375 
C 40.90625 41.984375 42.296875 39 42.296875 35.015625 
C 42.296875 34.40625 42.296875 32.421875 41.09375 27.734375 
L 38.59375 17.453125 
C 37.796875 14.453125 35.90625 7.078125 35.703125 5.984375 
C 35.296875 4.484375 34.703125 1.890625 34.703125 1.484375 
C 34.703125 0.09375 35.796875 -1 37.296875 -1 
C 40.296875 -1 40.796875 1.296875 41.703125 4.890625 
L 47.703125 28.71875 
C 47.90625 29.53125 53.09375 41.984375 64.09375 41.984375 
C 68.09375 41.984375 69.5 39 69.5 35.015625 
C 69.5 29.421875 65.59375 18.546875 63.40625 12.5625 
C 62.5 10.171875 62 8.875 62 7.078125 
C 62 2.59375 65.09375 -1 69.90625 -1 
C 79.203125 -1 82.703125 13.65625 82.703125 14.265625 
C 82.703125 14.765625 82.296875 15.15625 81.703125 15.15625 
C 80.796875 15.15625 80.703125 14.859375 80.203125 13.15625 
C 77.90625 5.1875 74.203125 1 70.203125 1 
C 69.203125 1 67.59375 1.09375 67.59375 4.28125 
C 67.59375 6.875 68.796875 10.078125 69.203125 11.171875 
C 71 15.953125 75.5 27.734375 75.5 33.515625 
C 75.5 39.5 72 44 64.40625 44 
C 57.703125 44 52.296875 40.203125 48.296875 34.3125 
C 48 39.703125 44.703125 44 37.203125 44 
C 28.296875 44 23.59375 37.703125 21.796875 35.203125 
C 21.5 40.890625 17.40625 44 13 44 
C 10.09375 44 7.796875 42.59375 5.90625 38.796875 
C 4.09375 35.203125 2.703125 29.125 2.703125 28.71875 
C 2.703125 28.328125 3.09375 27.828125 3.796875 27.828125 
C 4.59375 27.828125 4.703125 27.921875 5.296875 30.21875 
C 6.796875 36.109375 8.703125 41.984375 12.703125 41.984375 
C 15 41.984375 15.796875 40.390625 15.796875 37.40625 
C 15.796875 35.203125 14.796875 31.3125 14.09375 28.234375 
L 11.296875 17.453125 
C 10.90625 15.5625 9.796875 11.0625 9.296875 9.265625 
C 8.59375 6.671875 7.5 1.984375 7.5 1.484375 
C 7.5 0.09375 8.59375 -1 10.09375 -1 
C 11.296875 -1 12.703125 -0.40625 13.5 1.09375 
C 13.703125 1.59375 14.59375 5.078125 15.09375 7.078125 
L 17.296875 16.0625 
z
" id="CMMI12-109"/>
       <path d="M 28.296875 14.265625 
C 28.296875 14.765625 27.90625 15.15625 27.296875 15.15625 
C 26.40625 15.15625 26.296875 14.859375 25.796875 13.15625 
C 23.203125 4.078125 19.09375 1 15.796875 1 
C 14.59375 1 13.203125 1.296875 13.203125 4.28125 
C 13.203125 6.984375 14.40625 9.96875 15.5 12.96875 
L 22.5 31.515625 
C 22.796875 32.3125 23.5 34.109375 23.5 36.015625 
C 23.5 40.203125 20.5 44 15.59375 44 
C 6.40625 44 2.703125 29.53125 2.703125 28.71875 
C 2.703125 28.328125 3.09375 27.828125 3.796875 27.828125 
C 4.703125 27.828125 4.796875 28.234375 5.203125 29.625 
C 7.59375 38 11.40625 41.984375 15.296875 41.984375 
C 16.203125 41.984375 17.90625 41.890625 17.90625 38.703125 
C 17.90625 36.109375 16.59375 32.8125 15.796875 30.625 
L 8.796875 12.0625 
C 8.203125 10.46875 7.59375 8.875 7.59375 7.078125 
C 7.59375 2.59375 10.703125 -1 15.5 -1 
C 24.703125 -1 28.296875 13.5625 28.296875 14.265625 
z
M 27.5 62.6875 
C 27.5 64.1875 26.296875 66 24.09375 66 
C 21.796875 66 19.203125 63.796875 19.203125 61.1875 
C 19.203125 58.6875 21.296875 57.890625 22.5 57.890625 
C 25.203125 57.890625 27.5 60.484375 27.5 62.6875 
z
" id="CMMI12-105"/>
       <path d="M 20.59375 29.21875 
C 20.796875 29.828125 23.296875 34.8125 27 38 
C 29.59375 40.390625 33 41.984375 36.90625 41.984375 
C 40.90625 41.984375 42.296875 39 42.296875 35.015625 
C 42.296875 29.328125 38.203125 17.953125 36.203125 12.5625 
C 35.296875 10.171875 34.796875 8.875 34.796875 7.078125 
C 34.796875 2.59375 37.90625 -1 42.703125 -1 
C 52 -1 55.5 13.65625 55.5 14.265625 
C 55.5 14.765625 55.09375 15.15625 54.5 15.15625 
C 53.59375 15.15625 53.5 14.859375 53 13.15625 
C 50.703125 4.984375 46.90625 1 43 1 
C 42 1 40.40625 1.09375 40.40625 4.28125 
C 40.40625 6.78125 41.5 9.765625 42.09375 11.171875 
C 44.09375 16.65625 48.296875 27.828125 48.296875 33.515625 
C 48.296875 39.5 44.796875 44 37.203125 44 
C 28.296875 44 23.59375 37.703125 21.796875 35.203125 
C 21.5 40.890625 17.40625 44 13 44 
C 9.796875 44 7.59375 42.09375 5.90625 38.703125 
C 4.09375 35.109375 2.703125 29.125 2.703125 28.71875 
C 2.703125 28.328125 3.09375 27.828125 3.796875 27.828125 
C 4.59375 27.828125 4.703125 27.921875 5.296875 30.21875 
C 6.90625 36.3125 8.703125 41.984375 12.703125 41.984375 
C 15 41.984375 15.796875 40.390625 15.796875 37.40625 
C 15.796875 35.203125 14.796875 31.3125 14.09375 28.234375 
L 11.296875 17.453125 
C 10.90625 15.5625 9.796875 11.0625 9.296875 9.265625 
C 8.59375 6.671875 7.5 1.984375 7.5 1.484375 
C 7.5 0.09375 8.59375 -1 10.09375 -1 
C 11.296875 -1 12.703125 -0.40625 13.5 1.09375 
C 13.703125 1.59375 14.59375 5.078125 15.09375 7.078125 
L 17.296875 16.0625 
z
" id="CMMI12-110"/>
       <path d="M 26.296875 24.9375 
C 26.296875 32.140625 25.59375 44.359375 19.59375 57.265625 
C 14.796875 67.6875 6.59375 75 5.40625 75 
C 5.09375 75 4.703125 74.890625 4.703125 74.390625 
C 4.703125 74.1875 4.796875 74.09375 4.90625 73.890625 
C 9.703125 68.875 21.90625 56.171875 21.90625 25.046875 
C 21.90625 -6.1875 9.796875 -18.90625 4.90625 -23.90625 
C 4.796875 -24.109375 4.703125 -24.203125 4.703125 -24.40625 
C 4.703125 -24.90625 5.09375 -25 5.40625 -25 
C 6.5 -25 15 -17.609375 19.90625 -6.59375 
C 24.90625 4.515625 26.296875 15.328125 26.296875 24.9375 
z
" id="CMR17-41"/>
      </defs>
      <use transform="translate(23.632311 25.189733)scale(0.996264)" xlink:href="#CMR17-126"/>
      <use transform="scale(0.996264)" xlink:href="#CMMI12-70"/>
      <use transform="translate(76.696793 0)scale(0.996264)" xlink:href="#CMR17-40"/>
      <use transform="translate(111.97756 0)scale(0.996264)" xlink:href="#CMSY10-70"/>
      <use transform="translate(183.583838 -14.943915)scale(0.697382)" xlink:href="#CMMI12-13"/>
      <use transform="translate(223.29477 0)scale(0.996264)" xlink:href="#CMSY10-106"/>
      <use transform="translate(250.968855 0)scale(0.996264)" xlink:href="#CMSY10-70"/>
      <use transform="translate(322.575133 -14.943915)scale(0.697382)" xlink:href="#CMMI12-13"/>
      <use transform="translate(389.960074 0)scale(0.996264)" xlink:href="#CMMI12-62"/>
      <use transform="translate(493.506179 0)scale(0.996264)" xlink:href="#CMSY10-70"/>
      <use transform="translate(565.112457 -14.943915)scale(0.697382)" xlink:href="#CMMI12-109"/>
      <use transform="translate(624.841248 -14.943915)scale(0.697382)" xlink:href="#CMMI12-105"/>
      <use transform="translate(648.136155 -14.943915)scale(0.697382)" xlink:href="#CMMI12-110"/>
      <use transform="translate(688.896998 -14.943915)scale(0.697382)" xlink:href="#CMMI12-58"/>
      <use transform="translate(708.363063 0)scale(0.996264)" xlink:href="#CMR17-41"/>
     </g>
    </g>
   </g>
   <g id="line2d_45">
    <path clip-path="url(#pd3671704a7)" d="M 89.109407 388.84285 
L 89.109407 387.571421 
L 89.881662 387.571421 
L 89.881662 386.299992 
L 92.951553 386.299992 
L 92.951553 385.028563 
L 94.766763 385.028563 
L 94.766763 383.757134 
L 97.940512 383.757134 
L 97.940512 382.485704 
L 99.733942 382.485704 
L 99.733942 381.214275 
L 100.706134 381.214275 
L 100.706134 379.942846 
L 101.259838 379.942846 
L 101.259838 378.671417 
L 102.244232 378.671417 
L 102.244232 377.399988 
L 105.578469 377.399988 
L 105.578469 376.128559 
L 106.576364 376.128559 
L 106.576364 374.85713 
L 109.082563 374.85713 
L 109.082563 373.585701 
L 109.747646 373.585701 
L 109.747646 372.314271 
L 110.626846 372.314271 
L 110.626846 371.042842 
L 110.930811 371.042842 
L 110.930811 369.771413 
L 112.795167 369.771413 
L 112.795167 368.499984 
L 113.316313 368.499984 
L 113.316313 367.228555 
L 116.018665 367.228555 
L 116.018665 365.957126 
L 116.45318 365.957126 
L 116.45318 364.685697 
L 118.782012 364.685697 
L 118.782012 363.414268 
L 119.199905 363.414268 
L 119.199905 362.142838 
L 119.737598 362.142838 
L 119.737598 360.871409 
L 120.146962 360.871409 
L 120.146962 359.59998 
L 120.965548 359.59998 
L 120.965548 358.328551 
L 121.701396 358.328551 
L 121.701396 357.057122 
L 125.385936 357.057122 
L 125.385936 355.785693 
L 125.587438 355.785693 
L 125.587438 354.514264 
L 125.834264 354.514264 
L 125.834264 353.242835 
L 127.241457 353.242835 
L 127.241457 351.971405 
L 127.622768 351.971405 
L 127.622768 350.699976 
L 128.635201 350.699976 
L 128.635201 349.428547 
L 130.688269 349.428547 
L 130.734236 346.885689 
L 131.707347 346.885689 
L 131.707347 345.61426 
L 132.428486 345.61426 
L 132.428486 344.342831 
L 133.113228 344.342831 
L 133.113228 343.071402 
L 133.98948 343.071402 
L 133.98948 341.799972 
L 134.655941 341.799972 
L 134.655941 340.528543 
L 134.914215 340.528543 
L 134.914215 339.257114 
L 135.965427 339.257114 
L 135.965427 337.985685 
L 136.53561 337.985685 
L 136.53561 336.714256 
L 136.956179 336.714256 
L 136.956179 335.442827 
L 139.049769 335.442827 
L 139.049769 334.171398 
L 139.427113 334.171398 
L 139.427113 332.899969 
L 139.886439 332.899969 
L 139.886439 331.628539 
L 140.870947 331.628539 
L 140.870947 330.35711 
L 143.377234 330.35711 
L 143.377234 329.085681 
L 147.509225 329.085681 
L 147.509225 327.814252 
L 148.086974 327.814252 
L 148.086974 326.542823 
L 149.768833 326.542823 
L 149.768833 325.271394 
L 151.466595 325.271394 
L 151.466595 323.999965 
L 153.592259 323.999965 
L 153.592259 322.728536 
L 153.784908 322.728536 
L 153.869876 320.185677 
L 156.104189 320.185677 
L 156.104189 318.914248 
L 156.995862 318.914248 
L 156.995862 317.642819 
L 157.330766 317.642819 
L 157.330766 316.37139 
L 157.597921 316.37139 
L 157.637621 313.828532 
L 159.310649 313.828532 
L 159.310649 312.557103 
L 160.858723 312.557103 
L 160.858723 311.285673 
L 161.029082 311.285673 
L 161.029082 310.014244 
L 161.814469 310.014244 
L 161.915086 307.471386 
L 162.707063 307.471386 
L 162.707063 306.199957 
L 164.456313 306.199957 
L 164.456313 304.928528 
L 164.783409 304.928528 
L 164.783409 303.657099 
L 169.07374 303.657099 
L 169.07374 302.38567 
L 171.202378 302.38567 
L 171.202378 301.11424 
L 173.380974 301.11424 
L 173.380974 299.842811 
L 174.362055 299.842811 
L 174.362055 298.571382 
L 177.228981 298.571382 
L 177.228981 297.299953 
L 177.342112 297.299953 
L 177.342112 296.028524 
L 179.128004 296.028524 
L 179.128004 294.757095 
L 179.261735 294.757095 
L 179.261735 293.485666 
L 179.946651 293.485666 
L 179.946651 292.214237 
L 181.283079 292.214237 
L 181.283079 290.942807 
L 181.535604 290.942807 
L 181.535604 289.671378 
L 183.500251 289.671378 
L 183.500251 288.399949 
L 184.172107 288.399949 
L 184.172107 287.12852 
L 184.356076 287.12852 
L 184.438692 284.585662 
L 186.714519 284.585662 
L 186.729249 282.042804 
L 187.915424 282.042804 
L 187.978314 279.499945 
L 190.094406 279.499945 
L 190.198062 276.957087 
L 190.463374 276.957087 
L 190.463374 275.685658 
L 193.00293 275.685658 
L 193.00293 274.414229 
L 193.627871 274.414229 
L 193.627871 273.1428 
L 194.016207 273.1428 
L 194.016207 271.871371 
L 196.873784 271.871371 
L 196.873784 270.599941 
L 198.024179 270.599941 
L 198.024179 269.328512 
L 198.258731 269.328512 
L 198.258731 268.057083 
L 199.258242 268.057083 
L 199.258242 266.785654 
L 199.805812 266.785654 
L 199.805812 265.514225 
L 200.276447 265.514225 
L 200.276447 264.242796 
L 200.403935 264.242796 
L 200.403935 262.971367 
L 201.461213 262.971367 
L 201.461213 261.699938 
L 202.020069 261.699938 
L 202.020069 260.428508 
L 202.589598 260.428508 
L 202.589598 259.157079 
L 204.223161 259.157079 
L 204.223161 257.88565 
L 204.962007 257.88565 
L 204.962007 256.614221 
L 206.039361 256.614221 
L 206.039361 255.342792 
L 206.38579 255.342792 
L 206.38579 254.071363 
L 208.984641 254.071363 
L 208.984641 252.799934 
L 209.888319 252.799934 
L 209.888319 251.528505 
L 211.517053 251.528505 
L 211.517053 250.257075 
L 212.037614 250.257075 
L 212.037614 248.985646 
L 213.796442 248.985646 
L 213.796442 247.714217 
L 219.413921 247.714217 
L 219.413921 246.442788 
L 220.15554 246.442788 
L 220.15554 245.171359 
L 223.295879 245.171359 
L 223.295879 243.89993 
L 225.596249 243.89993 
L 225.596249 242.628501 
L 225.89119 242.628501 
L 225.89119 241.357072 
L 227.662497 241.357072 
L 227.662497 240.085642 
L 229.497302 240.085642 
L 229.497302 238.814213 
L 229.701443 238.814213 
L 229.701443 237.542784 
L 231.970348 237.542784 
L 231.970348 236.271355 
L 232.842358 236.271355 
L 232.842358 234.999926 
L 234.642095 234.999926 
L 234.642095 233.728497 
L 235.237067 233.728497 
L 235.237067 232.457068 
L 236.881545 232.457068 
L 236.881545 231.185639 
L 237.289883 231.185639 
L 237.289883 229.914209 
L 239.740742 229.914209 
L 239.740742 228.64278 
L 239.931125 228.64278 
L 239.931125 227.371351 
L 240.389655 227.371351 
L 240.389655 226.099922 
L 240.523343 226.099922 
L 240.523343 224.828493 
L 241.494593 224.828493 
L 241.553185 222.285635 
L 242.060634 222.285635 
L 242.060634 221.014206 
L 242.930768 221.014206 
L 242.930768 219.742776 
L 243.08043 219.742776 
L 243.08043 218.471347 
L 248.380589 218.471347 
L 248.380589 217.199918 
L 249.067959 217.199918 
L 249.067959 215.928489 
L 254.155597 215.928489 
L 254.259951 213.385631 
L 255.303452 213.385631 
L 255.303452 212.114202 
L 256.610625 212.114202 
L 256.610625 210.842773 
L 257.114345 210.842773 
L 257.114345 209.571343 
L 258.287342 209.571343 
L 258.287342 208.299914 
L 258.476485 208.299914 
L 258.476485 207.028485 
L 259.372347 207.028485 
L 259.382369 204.485627 
L 259.74571 204.485627 
L 259.74571 203.214198 
L 259.862285 203.214198 
L 259.862285 201.942769 
L 261.49288 201.942769 
L 261.49288 200.67134 
L 262.781665 200.67134 
L 262.781665 199.39991 
L 263.755235 199.39991 
L 263.755235 198.128481 
L 264.601806 198.128481 
L 264.601806 196.857052 
L 264.885992 196.857052 
L 264.885992 195.585623 
L 265.441292 195.585623 
L 265.441292 194.314194 
L 266.912875 194.314194 
L 266.912875 193.042765 
L 268.220785 193.042765 
L 268.220785 191.771336 
L 270.399224 191.771336 
L 270.399224 190.499907 
L 270.913394 190.499907 
L 270.913394 189.228477 
L 271.149917 189.228477 
L 271.149917 187.957048 
L 272.259216 187.957048 
L 272.259216 186.685619 
L 273.693996 186.685619 
L 273.693996 185.41419 
L 275.100509 185.41419 
L 275.100509 184.142761 
L 276.066014 184.142761 
L 276.066014 182.871332 
L 276.277579 182.871332 
L 276.277579 181.599903 
L 277.989026 181.599903 
L 277.989026 180.328474 
L 278.261447 180.328474 
L 278.261447 179.057044 
L 279.602077 179.057044 
L 279.602077 177.785615 
L 281.695024 177.785615 
L 281.695024 176.514186 
L 282.854094 176.514186 
L 282.854094 175.242757 
L 284.436363 175.242757 
L 284.436363 173.971328 
L 285.492614 173.971328 
L 285.492614 172.699899 
L 288.130885 172.699899 
L 288.130885 171.42847 
L 288.773717 171.42847 
L 288.773717 170.157041 
L 288.991531 170.157041 
L 288.991531 168.885611 
L 290.561735 168.885611 
L 290.561735 167.614182 
L 292.768861 167.614182 
L 292.768861 166.342753 
L 293.594638 166.342753 
L 293.594638 165.071324 
L 294.509977 165.071324 
L 294.509977 163.799895 
L 294.627537 163.799895 
L 294.627537 162.528466 
L 295.116868 162.528466 
L 295.116868 161.257037 
L 296.273734 161.257037 
L 296.273734 159.985608 
L 299.333039 159.985608 
L 299.333039 158.714178 
L 304.178548 158.714178 
L 304.178548 157.442749 
L 305.315505 157.442749 
L 305.315505 156.17132 
L 310.572094 156.17132 
L 310.572094 154.899891 
L 312.084067 154.899891 
L 312.084067 153.628462 
L 313.61265 153.628462 
L 313.61265 152.357033 
L 314.763973 152.357033 
L 314.763973 151.085604 
L 318.424167 151.085604 
L 318.424167 149.814175 
L 318.677972 149.814175 
L 318.677972 148.542745 
L 325.153963 148.542745 
L 325.153963 147.271316 
L 326.940262 147.271316 
L 326.978143 144.728458 
L 329.229943 144.728458 
L 329.229943 143.457029 
L 330.671865 143.457029 
L 330.671865 142.1856 
L 332.226881 142.1856 
L 332.226881 140.914171 
L 332.943584 140.914171 
L 333.028466 138.371312 
L 336.431384 138.371312 
L 336.431384 137.099883 
L 336.631556 137.099883 
L 336.665566 134.557025 
L 336.90493 134.557025 
L 336.90493 133.285596 
L 338.178731 133.285596 
L 338.178731 132.014167 
L 339.224171 132.014167 
L 339.224171 130.742738 
L 339.82201 130.742738 
L 339.82201 129.471309 
L 341.940396 129.471309 
L 341.940396 128.19988 
L 342.39209 128.19988 
L 342.39209 126.92845 
L 343.901022 126.92845 
L 343.901022 125.657021 
L 346.690754 125.657021 
L 346.690754 124.385592 
L 349.726103 124.385592 
L 349.726103 123.114163 
L 351.161582 123.114163 
L 351.161582 121.842734 
L 358.8773 121.842734 
L 358.8773 120.571305 
L 360.307593 120.571305 
L 360.307593 119.299876 
L 360.912046 119.299876 
L 360.912046 118.028447 
L 363.560214 118.028447 
L 363.560214 116.757017 
L 364.982969 116.757017 
L 364.982969 115.485588 
L 366.993541 115.485588 
L 366.993541 114.214159 
L 369.51194 114.214159 
L 369.51194 112.94273 
L 372.065569 112.94273 
L 372.138334 110.399872 
L 373.780374 110.399872 
L 373.780374 109.128443 
L 374.056759 109.128443 
L 374.056759 107.857014 
L 376.627268 107.857014 
L 376.627268 106.585584 
L 378.070589 106.585584 
L 378.070589 105.314155 
L 378.368448 105.314155 
L 378.368448 104.042726 
L 380.032294 104.042726 
L 380.032294 102.771297 
L 382.275587 102.771297 
L 382.275587 101.499868 
L 384.208397 101.499868 
L 384.208397 100.228439 
L 384.952512 100.228439 
L 384.952512 98.95701 
L 386.782068 98.95701 
L 386.782068 97.685581 
L 387.490368 97.685581 
L 387.490368 96.414151 
L 390.979685 96.414151 
L 390.979685 95.142722 
L 391.326197 95.142722 
L 391.326197 93.871293 
L 392.503282 93.871293 
L 392.503282 92.599864 
L 393.154608 92.599864 
L 393.154608 91.328435 
L 393.313748 91.328435 
L 393.313748 90.057006 
L 396.324953 90.057006 
L 396.324953 88.785577 
L 397.525688 88.785577 
L 397.525688 87.514148 
L 397.883547 87.514148 
L 397.883547 86.242718 
L 400.095855 86.242718 
L 400.095855 84.971289 
L 406.365485 84.971289 
L 406.365485 83.69986 
L 408.092212 83.69986 
L 408.092212 82.428431 
L 408.834364 82.428431 
L 408.834364 81.157002 
L 410.234842 81.157002 
L 410.234842 79.885573 
L 415.604384 79.885573 
L 415.604384 78.614144 
L 419.468105 78.614144 
L 419.468105 77.342715 
L 421.694814 77.342715 
L 421.694814 76.071285 
L 423.531801 76.071285 
L 423.531801 74.799856 
L 427.59991 74.799856 
L 427.59991 73.528427 
L 429.083931 73.528427 
L 429.083931 72.256998 
L 430.902218 72.256998 
L 430.902218 70.985569 
L 441.395606 70.985569 
L 441.423702 68.442711 
L 441.954612 68.442711 
L 441.954612 67.171282 
L 446.419542 67.171282 
L 446.419542 65.899852 
L 450.71534 65.899852 
L 450.71534 64.628423 
L 455.09768 64.628423 
L 455.09768 63.356994 
L 458.832894 63.356994 
L 458.832894 62.085565 
L 482.044238 62.085565 
L 482.044238 60.814136 
L 485.675712 60.814136 
L 485.675712 59.542707 
L 487.340522 59.542707 
L 487.340522 58.271278 
L 501.445808 58.271278 
L 501.445808 56.999849 
L 501.805346 56.999849 
L 501.805346 55.728419 
L 523.350016 55.728419 
L 523.350016 54.45699 
L 530.454058 54.45699 
L 530.454058 53.185561 
L 531.250804 53.185561 
L 531.250804 51.914132 
L 547.329019 51.914132 
L 547.329019 51.914132 
" style="fill:none;stroke:#008fd5;stroke-linecap:round;stroke-width:4;"/>
   </g>
   <g id="line2d_46">
    <defs>
     <path d="M 0 3 
C 0.795609 3 1.55874 2.683901 2.12132 2.12132 
C 2.683901 1.55874 3 0.795609 3 0 
C 3 -0.795609 2.683901 -1.55874 2.12132 -2.12132 
C 1.55874 -2.683901 0.795609 -3 0 -3 
C -0.795609 -3 -1.55874 -2.683901 -2.12132 -2.12132 
C -2.683901 -1.55874 -3 -0.795609 -3 0 
C -3 0.795609 -2.683901 1.55874 -2.12132 2.12132 
C -1.55874 2.683901 -0.795609 3 0 3 
z
" id="m6b7056d782" style="stroke:#fc4f30;"/>
    </defs>
    <g clip-path="url(#pd3671704a7)">
     <use style="fill:#fc4f30;stroke:#fc4f30;" x="243.005643" xlink:href="#m6b7056d782" y="221.014206"/>
    </g>
   </g>
   <g id="patch_3">
    <path d="M 66.198426 405.689286 
L 66.198426 35.067696 
" style="fill:none;stroke:#262626;stroke-linecap:square;stroke-linejoin:miter;stroke-width:1.25;"/>
   </g>
   <g id="patch_4">
    <path d="M 570.24 405.689286 
L 570.24 35.067696 
" style="fill:none;stroke:#262626;stroke-linecap:square;stroke-linejoin:miter;stroke-width:1.25;"/>
   </g>
   <g id="patch_5">
    <path d="M 66.198426 405.689286 
L 570.24 405.689286 
" style="fill:none;stroke:#262626;stroke-linecap:square;stroke-linejoin:miter;stroke-width:1.25;"/>
   </g>
   <g id="patch_6">
    <path d="M 66.198426 35.067696 
L 570.24 35.067696 
" style="fill:none;stroke:#262626;stroke-linecap:square;stroke-linejoin:miter;stroke-width:1.25;"/>
   </g>
   <g id="patch_7">
    <path d="M 177.182011 191.13136 
Q 185.582117 220.488009 240.444759 220.999726 
" style="fill:none;stroke:#000000;stroke-linecap:round;stroke-width:0.5;"/>
    <path d="M 234.473001 217.943896 
L 240.444759 220.999726 
L 234.41704 223.943635 
" style="fill:none;stroke:#000000;stroke-linecap:round;stroke-width:0.5;"/>
   </g>
   <g id="text_12">
    <!-- (2.247E-06, 0.5) -->
    <g style="fill:#262626;" transform="translate(125.393074 183.458201)scale(0.15 -0.15)">
     <defs>
      <path d="M 25.796875 21.140625 
C 28.59375 24.03125 32.796875 27.515625 35.703125 31 
C 38.5 34.390625 42.203125 39.171875 42.203125 46.140625 
C 42.203125 57.109375 34.796875 67 22.203125 67 
C 12.296875 67 6.59375 60.796875 3.90625 51.125 
L 7.796875 45.75 
C 10 54.8125 13.09375 60.59375 20.90625 60.59375 
C 29.5 60.59375 34.296875 53.609375 34.296875 45.9375 
C 34.296875 36.78125 27.296875 29.703125 22 24.421875 
C 16.09375 18.546875 10.296875 12.578125 4.703125 6.390625 
L 4.703125 0 
L 42.203125 0 
L 42.203125 6.796875 
L 25.203125 6.796875 
C 24 6.796875 22.796875 6.6875 21.59375 6.6875 
L 11.59375 6.6875 
L 11.59375 6.796875 
z
" id="CMSS17-50"/>
      <path d="M 17 8 
L 9 8 
L 9 0 
L 17 0 
z
" id="CMSS17-46"/>
      <path d="M 35.203125 17 
L 44.296875 17 
L 44.296875 23.09375 
L 35.203125 23.09375 
L 35.203125 66 
L 26.40625 66 
L 2.59375 23.09375 
L 2.59375 17 
L 27.296875 17 
L 27.296875 0 
L 35.203125 0 
z
M 10.296875 23.09375 
C 16.09375 33.421875 27.59375 54.28125 27.59375 61.359375 
L 27.59375 23.09375 
z
" id="CMSS17-52"/>
      <path d="M 21.703125 59.1875 
C 22.90625 59.1875 24.09375 59.296875 25.296875 59.296875 
L 36.796875 59.296875 
C 22.5 42.421875 14.296875 21.09375 14.296875 -1 
L 22.296875 -1 
C 22.296875 20.390625 29.296875 42.109375 43 59.484375 
L 43 66 
L 3.90625 66 
L 3.90625 59.1875 
z
" id="CMSS17-55"/>
      <path d="M 30.59375 6.796875 
C 22.59375 6.796875 19 6.796875 17.203125 6.6875 
L 17.203125 32.890625 
L 48.203125 32.890625 
L 48.203125 39 
L 17.203125 39 
L 17.203125 62.390625 
L 30.09375 62.390625 
C 31.296875 62.390625 32.5 62.296875 33.703125 62.296875 
L 50.796875 62.296875 
L 50.796875 68.796875 
L 8.796875 68.796875 
L 8.796875 0 
L 52.09375 0 
L 52.09375 6.890625 
z
" id="CMSS17-69"/>
      <path d="M 26 19 
L 26 24.796875 
L 1 24.796875 
L 1 19 
z
" id="CMSS17-45"/>
      <path d="M 43.09375 32.390625 
C 43.09375 38.109375 43 48.75 38.90625 56.984375 
C 34.796875 64.890625 28.203125 67 23.5 67 
C 16.703125 67 10.90625 62.984375 7.90625 56.578125 
C 4.703125 49.859375 3.796875 42.9375 3.796875 32.390625 
C 3.796875 25.171875 4.09375 16.34375 7.703125 8.609375 
C 11.796875 0.09375 18.703125 -2 23.40625 -2 
C 29.59375 -2 35.59375 1.296875 39 8.203125 
C 42.5 15.4375 43.09375 23.359375 43.09375 32.390625 
z
M 23.40625 4.09375 
C 15.796875 4.09375 13.5 12.828125 12.796875 15.734375 
C 11.59375 20.75 11.40625 25.5625 11.40625 33.5 
C 11.40625 39.71875 11.40625 46.75 13.296875 52.265625 
C 15.59375 58.6875 19.59375 60.890625 23.40625 60.890625 
C 30.796875 60.890625 33.203125 53.46875 34 50.859375 
C 35.5 45.546875 35.5 39.3125 35.5 33.5 
C 35.5 24.15625 35.5 4.09375 23.40625 4.09375 
z
" id="CMSS17-48"/>
      <path d="M 39 64.984375 
C 34.796875 66.6875 31.796875 67 29 67 
C 16 67 3.90625 53.25 3.90625 31.609375 
C 3.90625 4.1875 15.40625 -2 23.59375 -2 
C 28.09375 -2 32.59375 -0.609375 36.90625 4.390625 
C 41.296875 9.671875 43 14.0625 43 21.75 
C 43 34.109375 36.90625 45.09375 27.796875 45.09375 
C 21.203125 45.09375 15.5 41.59375 12 37.203125 
C 13 51.40625 19.59375 60.890625 29.09375 60.890625 
C 31.703125 60.890625 35.09375 60.484375 39 58.75 
z
M 12.09375 21.4375 
C 12.09375 22.234375 12.09375 22.734375 12.203125 24.234375 
C 12.203125 32.015625 16.703125 39 24 39 
C 28.703125 39 31.09375 36.5 32.90625 33.40625 
C 35 29.515625 35.09375 25.828125 35.09375 21.75 
C 35.09375 17.859375 35.09375 13.96875 32.796875 9.96875 
C 30.90625 6.890625 28.40625 4.1875 23.59375 4.1875 
C 14.09375 4.1875 12.5 17.453125 12.09375 21.4375 
z
" id="CMSS17-54"/>
      <path d="M 14.59375 59.59375 
L 39.09375 59.59375 
L 39.09375 66 
L 7.296875 66 
L 7.296875 28.59375 
L 14 28.59375 
C 15.796875 32.859375 19.5 36 24.296875 36 
C 28.796875 36 33.796875 31.9375 33.796875 20.296875 
C 33.796875 7.84375 26.703125 4.1875 21.5 4.1875 
C 15.09375 4.1875 9.203125 8.140625 6.59375 13.609375 
L 3.40625 7.9375 
C 8 0.796875 15.5 -2 21.5 -2 
C 33.09375 -2 42.203125 7.9375 42.203125 20.09375 
C 42.203125 32.546875 34.09375 42.09375 24.40625 42.09375 
C 20.90625 42.09375 17.5 40.890625 14.59375 38.5 
z
" id="CMSS17-53"/>
     </defs>
     <use transform="scale(0.996264)" xlink:href="#CMSS17-40"/>
     <use transform="translate(36.433914 0)scale(0.996264)" xlink:href="#CMSS17-50"/>
     <use transform="translate(83.277538 0)scale(0.996264)" xlink:href="#CMSS17-46"/>
     <use transform="translate(109.301743 0)scale(0.996264)" xlink:href="#CMSS17-50"/>
     <use transform="translate(156.145366 0)scale(0.996264)" xlink:href="#CMSS17-52"/>
     <use transform="translate(202.98899 0)scale(0.996264)" xlink:href="#CMSS17-55"/>
     <use transform="translate(249.832613 0)scale(0.996264)" xlink:href="#CMSS17-69"/>
     <use transform="translate(305.724626 0)scale(0.996264)" xlink:href="#CMSS17-45"/>
     <use transform="translate(336.953739 0)scale(0.996264)" xlink:href="#CMSS17-48"/>
     <use transform="translate(383.797363 0)scale(0.996264)" xlink:href="#CMSS17-54"/>
     <use transform="translate(430.640986 0)scale(0.996264)" xlink:href="#CMSS17-44"/>
     <use transform="translate(487.894304 0)scale(0.996264)" xlink:href="#CMSS17-48"/>
     <use transform="translate(534.737927 0)scale(0.996264)" xlink:href="#CMSS17-46"/>
     <use transform="translate(560.762132 0)scale(0.996264)" xlink:href="#CMSS17-53"/>
     <use transform="translate(607.605756 0)scale(0.996264)" xlink:href="#CMSS17-41"/>
    </g>
   </g>
   <g id="text_13">
    <!-- ECDF of Fluence above INTEGRAL limit -->
    <g style="fill:#262626;" transform="translate(155.513616 29.067696)scale(0.2016 -0.2016)">
     <defs>
      <path d="M 54.703125 11.015625 
C 48 6.5 44.90625 5.1875 36.796875 5.1875 
C 22.796875 5.1875 14.59375 20.375 14.59375 34.234375 
C 14.59375 49.015625 23 63.59375 37.203125 63.59375 
C 43.59375 63.59375 47.796875 61.78125 52.90625 58.5625 
L 54.296875 66.484375 
C 49.5 68.890625 43.40625 70 37.296875 70 
C 18.09375 70 6.203125 52.234375 6.203125 34.234375 
C 6.203125 14.4375 20.296875 -1.203125 36.296875 -1.203125 
C 44.90625 -1.203125 47.90625 -0.5 55.296875 4.1875 
z
" id="CMSS17-67"/>
      <path d="M 8.90625 69 
L 8.90625 0 
L 33.5 0 
C 49.90625 0 62.5 15.328125 62.5 33.890625 
C 62.5 53.0625 49.90625 69 33.5 69 
z
M 17.09375 5.59375 
L 17.09375 63.390625 
L 31.296875 63.390625 
C 44.703125 63.390625 54.296875 51.171875 54.296875 33.890625 
C 54.296875 17.3125 44.796875 5.59375 31.296875 5.59375 
z
" id="CMSS17-68"/>
      <path d="M 44.203125 21.1875 
C 44.203125 33.984375 34.703125 44 23.5 44 
C 12 44 2.703125 33.6875 2.703125 21.1875 
C 2.703125 8.5 12.296875 -1 23.40625 -1 
C 34.796875 -1 44.203125 8.796875 44.203125 21.1875 
z
M 23.5 5.296875 
C 16.40625 5.296875 10.296875 11.09375 10.296875 21.984375 
C 10.296875 33.59375 17.40625 37.890625 23.40625 37.890625 
C 29.90625 37.890625 36.59375 33.1875 36.59375 21.984375 
C 36.59375 10.6875 30.09375 5.296875 23.5 5.296875 
z
" id="CMSS17-111"/>
      <path d="M 16.796875 37.1875 
L 26.90625 37.1875 
L 26.90625 43 
L 16.59375 43 
L 16.59375 55.671875 
C 16.59375 62.703125 22 63.890625 25.09375 63.890625 
C 26.09375 63.890625 28.90625 63.890625 32.5 62.609375 
L 32.5 69.1875 
C 30.203125 69.6875 27.40625 70 25.203125 70 
C 15.90625 70 9.40625 62.40625 9.40625 52.59375 
L 9.40625 43 
L 2.5 43 
L 2.5 37.1875 
L 9.40625 37.1875 
L 9.40625 0 
L 16.796875 0 
z
" id="CMSS17-102"/>
      <path d="M 37.59375 27.953125 
C 37.59375 37.484375 30.90625 44 21.90625 44 
C 17.5 44 12.703125 43.1875 7.203125 39.984375 
L 7.796875 33.328125 
C 10.296875 35.15625 14.59375 38.09375 21.796875 38.09375 
C 26.90625 38.09375 30 34.140625 30 27.84375 
L 30 24 
C 14 23.5 4 18.890625 4 11.109375 
C 4 7.0625 6.5 -1 14.796875 -1 
C 16.296875 -1 24.40625 -0.8125 30.203125 3.5 
L 30.203125 -0.203125 
L 37.59375 -0.203125 
z
M 30 12.875 
C 30 11.109375 30 8.734375 27 6.96875 
C 24.40625 5.296875 21.09375 5.09375 19.703125 5.09375 
C 14.703125 5.09375 11.296875 7.859375 11.296875 11.296875 
C 11.296875 18.203125 26.90625 18.890625 30 19 
z
" id="CMSS17-97"/>
      <path d="M 14.90625 69 
L 7.5 69 
L 7.5 -0.203125 
L 15.09375 -0.203125 
L 15.09375 4.296875 
C 18.90625 0.59375 23.5 -1 27.59375 -1 
C 37.203125 -1 45 8.734375 45 21.59375 
C 45 33.328125 39 44 30.09375 44 
C 23.796875 44 18.203125 41.390625 14.90625 38.6875 
z
M 15.09375 32.734375 
C 17.296875 35.5625 20.40625 37.890625 24.796875 37.890625 
C 30.703125 37.890625 37.40625 33.53125 37.40625 21.59375 
C 37.40625 8.84375 29.40625 5.09375 23.90625 5.09375 
C 21.90625 5.09375 19.796875 5.59375 17.796875 7.3125 
C 15.09375 9.75 15.09375 11.265625 15.09375 12.6875 
z
" id="CMSS17-98"/>
      <path d="M 41.796875 43 
L 34 43 
L 27.296875 24.296875 
C 25.203125 18.1875 22.203125 9.796875 21.703125 5.5 
L 21.59375 5.5 
C 21.40625 7.296875 20.59375 9.890625 20.09375 11.6875 
C 19.5 13.890625 18.703125 16.5 18.09375 18.296875 
L 9.296875 43 
L 1.296875 43 
L 17.09375 0 
L 26 0 
z
" id="CMSS17-118"/>
      <path d="M 17.09375 69 
L 8.703125 69 
L 8.703125 0 
L 17.09375 0 
z
" id="CMSS17-73"/>
      <path d="M 22.90625 65.296875 
L 21.09375 69 
L 8.796875 69 
L 8.796875 0 
L 16.59375 0 
L 16.59375 61.328125 
L 16.703125 61.421875 
C 17.40625 59.640625 17.796875 58.734375 21.90625 49.890625 
L 43.296875 3.6875 
L 45.09375 0 
L 57.40625 0 
L 57.40625 69 
L 49.59375 69 
L 49.59375 7.65625 
L 49.5 7.5625 
C 48.796875 9.34375 48.40625 10.234375 44.296875 19.09375 
z
" id="CMSS17-78"/>
      <path d="M 36.203125 62.296875 
L 44.5 62.296875 
C 45.703125 62.296875 46.90625 62.1875 48.09375 62.1875 
L 60.59375 62.1875 
L 60.59375 68.6875 
L 3.40625 68.6875 
L 3.40625 62.1875 
L 15.90625 62.1875 
C 17.09375 62.1875 18.296875 62.296875 19.5 62.296875 
L 27.796875 62.296875 
L 27.796875 0 
L 36.203125 0 
z
" id="CMSS17-84"/>
      <path d="M 56.40625 29.1875 
L 36.5 29.1875 
L 36.5 23 
L 48.796875 23 
L 48.796875 7.390625 
C 44.90625 6.296875 40.90625 5.5 36.90625 5.5 
C 22.90625 5.5 14.59375 20.484375 14.59375 34.6875 
C 14.59375 48.796875 23.296875 63.59375 36.90625 63.59375 
C 44.59375 63.59375 48.90625 61.1875 54.203125 57.1875 
L 55.5 65.1875 
C 48.90625 68.59375 44.796875 70 37.296875 70 
C 17.90625 70 6.203125 52.390625 6.203125 34.390625 
C 6.203125 17.1875 18 -1 36.703125 -1 
C 43.703125 -1 50.203125 0.796875 56.40625 3.890625 
z
" id="CMSS17-71"/>
      <path d="M 39.40625 32.796875 
L 39.59375 32.890625 
C 55.203125 38.28125 55.296875 48.828125 55.296875 50.6875 
C 55.296875 59.96875 45.703125 69 31.296875 69 
L 8.90625 69 
L 8.90625 0 
L 17.09375 0 
L 17.09375 31.890625 
L 31.796875 31.890625 
L 49.5 0 
L 57.90625 0 
z
M 17.09375 38 
L 17.09375 63.390625 
L 30.203125 63.390625 
C 42.90625 63.390625 47.40625 56.359375 47.40625 50.6875 
C 47.40625 45.421875 43.40625 38 30.203125 38 
z
" id="CMSS17-82"/>
      <path d="M 35.5 69 
L 26.90625 69 
L 2.59375 0 
L 10.203125 0 
L 17.203125 20 
L 44 20 
L 51.09375 0 
L 59.796875 0 
z
M 42.09375 25.59375 
L 19.09375 25.59375 
C 23.90625 39.53125 29.90625 56.84375 30.59375 61.3125 
L 30.703125 61.3125 
C 31.40625 57.234375 33.40625 51.265625 35.09375 46.1875 
z
" id="CMSS17-65"/>
      <path d="M 26.09375 6.5 
C 24.90625 6.5 23.703125 6.390625 22.5 6.390625 
L 17.203125 6.390625 
L 17.203125 69 
L 8.796875 69 
L 8.796875 0 
L 46.90625 0 
L 46.90625 6.5 
z
" id="CMSS17-76"/>
      <path d="M 15.296875 66 
L 6.90625 66 
L 6.90625 57.59375 
L 15.296875 57.59375 
z
M 14.796875 43 
L 7.40625 43 
L 7.40625 0 
L 14.796875 0 
z
" id="CMSS17-105"/>
      <path d="M 16.703125 37.1875 
L 29.703125 37.1875 
L 29.703125 43 
L 16.703125 43 
L 16.703125 55 
L 9.59375 55 
L 9.59375 43 
L 1.703125 43 
L 1.703125 37.1875 
L 9.40625 37.1875 
L 9.40625 11.734375 
C 9.40625 6 10.703125 -1 17.296875 -1 
C 22.296875 -1 26.90625 0.390625 31.296875 2.6875 
L 29.703125 8.609375 
C 27.296875 6.5 24.40625 5.296875 21.296875 5.296875 
C 16.90625 5.296875 16.703125 10.921875 16.703125 13.4375 
z
" id="CMSS17-116"/>
     </defs>
     <use transform="scale(0.996264)" xlink:href="#CMSS17-69"/>
     <use transform="translate(55.892013 0)scale(0.996264)" xlink:href="#CMSS17-67"/>
     <use transform="translate(115.747785 0)scale(0.996264)" xlink:href="#CMSS17-68"/>
     <use transform="translate(183.290626 0)scale(0.996264)" xlink:href="#CMSS17-70"/>
     <use transform="translate(267.809299 0)scale(0.996264)" xlink:href="#CMSS17-111"/>
     <use transform="translate(314.652922 0)scale(0.996264)" xlink:href="#CMSS17-102"/>
     <use transform="translate(374.508694 0)scale(0.996264)" xlink:href="#CMSS17-70"/>
     <use transform="translate(427.798253 0)scale(0.996264)" xlink:href="#CMSS17-108"/>
     <use transform="translate(449.978976 0)scale(0.996264)" xlink:href="#CMSS17-117"/>
     <use transform="translate(498.183919 0)scale(0.996264)" xlink:href="#CMSS17-101"/>
     <use transform="translate(539.822741 0)scale(0.996264)" xlink:href="#CMSS17-110"/>
     <use transform="translate(588.027684 0)scale(0.996264)" xlink:href="#CMSS17-99"/>
     <use transform="translate(629.666506 0)scale(0.996264)" xlink:href="#CMSS17-101"/>
     <use transform="translate(702.534441 0)scale(0.996264)" xlink:href="#CMSS17-97"/>
     <use transform="translate(747.456362 0)scale(0.996264)" xlink:href="#CMSS17-98"/>
     <use transform="translate(798.263744 0)scale(0.996264)" xlink:href="#CMSS17-111"/>
     <use transform="translate(845.107367 0)scale(0.996264)" xlink:href="#CMSS17-118"/>
     <use transform="translate(888.107509 0)scale(0.996264)" xlink:href="#CMSS17-101"/>
     <use transform="translate(960.975444 0)scale(0.996264)" xlink:href="#CMSS17-73"/>
     <use transform="translate(986.759369 0)scale(0.996264)" xlink:href="#CMSS17-78"/>
     <use transform="translate(1052.820888 0)scale(0.996264)" xlink:href="#CMSS17-84"/>
     <use transform="translate(1116.640342 0)scale(0.996264)" xlink:href="#CMSS17-69"/>
     <use transform="translate(1172.532355 0)scale(0.996264)" xlink:href="#CMSS17-71"/>
     <use transform="translate(1234.990581 0)scale(0.996264)" xlink:href="#CMSS17-82"/>
     <use transform="translate(1295.406736 0)scale(0.996264)" xlink:href="#CMSS17-65"/>
     <use transform="translate(1357.624591 0)scale(0.996264)" xlink:href="#CMSS17-76"/>
     <use transform="translate(1439.540809 0)scale(0.996264)" xlink:href="#CMSS17-108"/>
     <use transform="translate(1461.721532 0)scale(0.996264)" xlink:href="#CMSS17-105"/>
     <use transform="translate(1483.902255 0)scale(0.996264)" xlink:href="#CMSS17-109"/>
     <use transform="translate(1558.131509 0)scale(0.996264)" xlink:href="#CMSS17-105"/>
     <use transform="translate(1580.312232 0)scale(0.996264)" xlink:href="#CMSS17-116"/>
    </g>
   </g>
  </g>
 </g>
 <defs>
  <clipPath id="pd3671704a7">
   <rect height="370.62159" width="504.041574" x="66.198426" y="35.067696"/>
  </clipPath>
 </defs>
</svg>
