<?xml version="1.0" encoding="utf-8" standalone="no"?>
<!DOCTYPE svg PUBLIC "-//W3C//DTD SVG 1.1//EN"
  "http://www.w3.org/Graphics/SVG/1.1/DTD/svg11.dtd">
<!-- Created with matplotlib (https://matplotlib.org/) -->
<svg height="465.12pt" version="1.1" viewBox="0 0 684 465.12" width="684pt" xmlns="http://www.w3.org/2000/svg" xmlns:xlink="http://www.w3.org/1999/xlink">
 <metadata>
  <rdf:RDF xmlns:cc="http://creativecommons.org/ns#" xmlns:dc="http://purl.org/dc/elements/1.1/" xmlns:rdf="http://www.w3.org/1999/02/22-rdf-syntax-ns#">
   <cc:Work>
    <dc:type rdf:resource="http://purl.org/dc/dcmitype/StillImage"/>
    <dc:date>2021-06-06T00:41:16.004115</dc:date>
    <dc:format>image/svg+xml</dc:format>
    <dc:creator>
     <cc:Agent>
      <dc:title>Matplotlib v3.3.2, https://matplotlib.org/</dc:title>
     </cc:Agent>
    </dc:creator>
   </cc:Work>
  </rdf:RDF>
 </metadata>
 <defs>
  <style type="text/css">*{stroke-linecap:butt;stroke-linejoin:round;}</style>
 </defs>
 <g id="figure_1">
  <g id="patch_1">
   <path d="M 0 465.12 
L 684 465.12 
L 684 0 
L 0 0 
z
" style="fill:#f0f0f0;"/>
  </g>
  <g id="axes_1">
   <g id="patch_2">
    <path d="M 66.198426 405.689286 
L 668.88 405.689286 
L 668.88 35.067696 
L 66.198426 35.067696 
z
" style="fill:#ffffff;"/>
   </g>
   <g id="matplotlib.axis_1">
    <g id="xtick_1">
     <g id="line2d_1">
      <path clip-path="url(#pad847183f3)" d="M 183.578733 405.689286 
L 183.578733 35.067696 
" style="fill:none;stroke:#cccccc;stroke-linecap:round;"/>
     </g>
     <g id="line2d_2">
      <defs>
       <path d="M 0 0 
L 0 6 
" id="m2b018d25a4" style="stroke:#262626;stroke-width:0.8;"/>
      </defs>
      <g>
       <use style="fill:#262626;stroke:#262626;stroke-width:0.8;" x="183.578733" xlink:href="#m2b018d25a4" y="405.689286"/>
      </g>
     </g>
     <g id="text_1">
      <!-- $\mathdefault{10^{-6}}$ -->
      <g style="fill:#262626;" transform="translate(170.339334 424.875162)scale(0.14 -0.14)">
       <defs>
        <path d="M 26.59375 63.796875 
C 26.59375 65.890625 26.5 66 25.09375 66 
C 21.203125 61.359375 15.296875 59.890625 9.703125 59.6875 
C 9.40625 59.6875 8.90625 59.6875 8.796875 59.5 
C 8.703125 59.296875 8.703125 59.09375 8.703125 57 
C 11.796875 57 17 57.59375 21 59.984375 
L 21 7.296875 
C 21 3.796875 20.796875 2.59375 12.203125 2.59375 
L 9.203125 2.59375 
L 9.203125 0 
C 14 0.09375 19 0.1875 23.796875 0.1875 
C 28.59375 0.1875 33.59375 0.09375 38.40625 0 
L 38.40625 2.59375 
L 35.40625 2.59375 
C 26.796875 2.59375 26.59375 3.6875 26.59375 7.296875 
z
" id="CMR17-49"/>
        <path d="M 42 31.84375 
C 42 37.96875 41.90625 48.421875 37.703125 56.453125 
C 34 63.484375 28.09375 66 22.90625 66 
C 18.09375 66 12 63.78125 8.203125 56.5625 
C 4.203125 49.015625 3.796875 39.671875 3.796875 31.84375 
C 3.796875 26.109375 3.90625 17.375 7 9.734375 
C 11.296875 -0.609375 19 -2 22.90625 -2 
C 27.5 -2 34.5 -0.109375 38.59375 9.4375 
C 41.59375 16.375 42 24.5 42 31.84375 
z
M 22.90625 -0.40625 
C 16.5 -0.40625 12.703125 5.125 11.296875 12.75 
C 10.203125 18.6875 10.203125 27.328125 10.203125 32.953125 
C 10.203125 40.6875 10.203125 47.109375 11.5 53.234375 
C 13.40625 61.78125 19 64.390625 22.90625 64.390625 
C 27 64.390625 32.296875 61.671875 34.203125 53.4375 
C 35.5 47.71875 35.59375 40.984375 35.59375 32.953125 
C 35.59375 26.421875 35.59375 18.375 34.40625 12.453125 
C 32.296875 1.5 26.40625 -0.40625 22.90625 -0.40625 
z
" id="CMR17-48"/>
        <path d="M 65.90625 23 
C 67.59375 23 69.40625 23 69.40625 25 
C 69.40625 27 67.59375 27 65.90625 27 
L 11.796875 27 
C 10.09375 27 8.296875 27 8.296875 25 
C 8.296875 23 10.09375 23 11.796875 23 
z
" id="CMSY10-0"/>
        <path d="M 10.59375 34.34375 
C 10.59375 58 21.796875 63.6875 28.296875 63.6875 
C 30.40625 63.6875 35.5 63.265625 37.5 59.09375 
C 35.90625 59.09375 32.90625 59.09375 32.90625 55.59375 
C 32.90625 52.890625 35.09375 52 36.5 52 
C 37.40625 52 40.09375 52.390625 40.09375 55.796875 
C 40.09375 62.296875 35.09375 66 28.203125 66 
C 16.296875 66 3.796875 53.296875 3.796875 31.421875 
C 3.796875 4.015625 15.09375 -2 23.09375 -2 
C 32.796875 -2 42 6.734375 42 20.234375 
C 42 32.828125 33.90625 42 23.703125 42 
C 17.59375 42 13.09375 37.96875 10.59375 30.921875 
z
M 23.09375 0.390625 
C 10.796875 0.390625 10.796875 18.9375 10.796875 22.65625 
C 10.796875 29.90625 14.203125 40.390625 23.5 40.390625 
C 25.203125 40.390625 30.09375 40.390625 33.40625 33.4375 
C 35.203125 29.515625 35.203125 25.375 35.203125 20.34375 
C 35.203125 14.90625 35.203125 10.875 33.09375 6.84375 
C 30.90625 2.703125 27.703125 0.390625 23.09375 0.390625 
z
" id="CMR17-54"/>
       </defs>
       <use transform="scale(0.996264)" xlink:href="#CMR17-49"/>
       <use transform="translate(45.690477 0)scale(0.996264)" xlink:href="#CMR17-48"/>
       <use transform="translate(91.380954 36.153639)scale(0.697382)" xlink:href="#CMSY10-0"/>
       <use transform="translate(145.621947 36.153639)scale(0.697382)" xlink:href="#CMR17-54"/>
      </g>
     </g>
    </g>
    <g id="xtick_2">
     <g id="line2d_3">
      <path clip-path="url(#pad847183f3)" d="M 314.702229 405.689286 
L 314.702229 35.067696 
" style="fill:none;stroke:#cccccc;stroke-linecap:round;"/>
     </g>
     <g id="line2d_4">
      <g>
       <use style="fill:#262626;stroke:#262626;stroke-width:0.8;" x="314.702229" xlink:href="#m2b018d25a4" y="405.689286"/>
      </g>
     </g>
     <g id="text_2">
      <!-- $\mathdefault{10^{-5}}$ -->
      <g style="fill:#262626;" transform="translate(301.462829 424.875162)scale(0.14 -0.14)">
       <defs>
        <path d="M 11.40625 58.59375 
C 12.40625 58.1875 16.5 56.890625 20.703125 56.890625 
C 30 56.890625 35.09375 61.890625 38 64.6875 
C 38 65.484375 38 66 37.40625 66 
C 37.296875 66 37.09375 66 36.296875 65.59375 
C 32.796875 64.09375 28.703125 63 23.703125 63 
C 20.703125 63 16.203125 63.359375 11.296875 65.484375 
C 10.203125 66 10 66 9.90625 66 
C 9.40625 66 9.296875 65.890625 9.296875 63.90625 
L 9.296875 34.859375 
C 9.296875 33.015625 9.296875 32.5 10.296875 32.5 
C 10.796875 32.5 11 32.703125 11.5 33.421875 
C 14.703125 38.046875 19.09375 40 24.09375 40 
C 27.59375 40 35.09375 37.734375 35.09375 20.203125 
C 35.09375 16.984375 35.09375 11.1875 32.09375 6.59375 
C 29.59375 2.484375 25.703125 0.390625 21.40625 0.390625 
C 14.796875 0.390625 8.09375 4.984375 6.296875 12.6875 
C 6.703125 12.59375 7.5 12.390625 7.90625 12.390625 
C 9.203125 12.390625 11.703125 13.09375 11.703125 16.1875 
C 11.703125 18.890625 9.796875 20 7.90625 20 
C 5.59375 20 4.09375 18.59375 4.09375 15.796875 
C 4.09375 7.09375 11 -2 21.59375 -2 
C 31.90625 -2 41.703125 6.890625 41.703125 19.796875 
C 41.703125 32.09375 33.90625 41.59375 24.203125 41.59375 
C 19.09375 41.59375 14.796875 39.6875 11.40625 36 
z
" id="CMR17-53"/>
       </defs>
       <use transform="scale(0.996264)" xlink:href="#CMR17-49"/>
       <use transform="translate(45.690477 0)scale(0.996264)" xlink:href="#CMR17-48"/>
       <use transform="translate(91.380954 36.153639)scale(0.697382)" xlink:href="#CMSY10-0"/>
       <use transform="translate(145.621947 36.153639)scale(0.697382)" xlink:href="#CMR17-53"/>
      </g>
     </g>
    </g>
    <g id="xtick_3">
     <g id="line2d_5">
      <path clip-path="url(#pad847183f3)" d="M 445.825724 405.689286 
L 445.825724 35.067696 
" style="fill:none;stroke:#cccccc;stroke-linecap:round;"/>
     </g>
     <g id="line2d_6">
      <g>
       <use style="fill:#262626;stroke:#262626;stroke-width:0.8;" x="445.825724" xlink:href="#m2b018d25a4" y="405.689286"/>
      </g>
     </g>
     <g id="text_3">
      <!-- $\mathdefault{10^{-4}}$ -->
      <g style="fill:#262626;" transform="translate(432.586325 424.875162)scale(0.14 -0.14)">
       <defs>
        <path d="M 33.59375 64.796875 
C 33.59375 66.890625 33.5 67 31.703125 67 
L 2 19.59375 
L 2 17 
L 27.796875 17 
L 27.796875 7.1875 
C 27.796875 3.59375 27.59375 2.59375 20.59375 2.59375 
L 18.703125 2.59375 
L 18.703125 0 
C 21.90625 0.1875 27.296875 0.1875 30.703125 0.1875 
C 34.09375 0.1875 39.5 0.1875 42.703125 0 
L 42.703125 2.59375 
L 40.796875 2.59375 
C 33.796875 2.59375 33.59375 3.59375 33.59375 7.1875 
L 33.59375 17 
L 43.796875 17 
L 43.796875 19.59375 
L 33.59375 19.59375 
z
M 28.09375 58.171875 
L 28.09375 19.59375 
L 4 19.59375 
z
" id="CMR17-52"/>
       </defs>
       <use transform="scale(0.996264)" xlink:href="#CMR17-49"/>
       <use transform="translate(45.690477 0)scale(0.996264)" xlink:href="#CMR17-48"/>
       <use transform="translate(91.380954 36.153639)scale(0.697382)" xlink:href="#CMSY10-0"/>
       <use transform="translate(145.621947 36.153639)scale(0.697382)" xlink:href="#CMR17-52"/>
      </g>
     </g>
    </g>
    <g id="xtick_4">
     <g id="line2d_7">
      <path clip-path="url(#pad847183f3)" d="M 576.94922 405.689286 
L 576.94922 35.067696 
" style="fill:none;stroke:#cccccc;stroke-linecap:round;"/>
     </g>
     <g id="line2d_8">
      <g>
       <use style="fill:#262626;stroke:#262626;stroke-width:0.8;" x="576.94922" xlink:href="#m2b018d25a4" y="405.689286"/>
      </g>
     </g>
     <g id="text_4">
      <!-- $\mathdefault{10^{-3}}$ -->
      <g style="fill:#262626;" transform="translate(563.70982 424.875162)scale(0.14 -0.14)">
       <defs>
        <path d="M 22.09375 34 
C 31 34 34.90625 26.140625 34.90625 17.09375 
C 34.90625 5.03125 28.5 0.390625 22.703125 0.390625 
C 17.40625 0.390625 8.796875 3.015625 6.09375 10.796875 
C 6.59375 10.59375 7.09375 10.59375 7.59375 10.59375 
C 10 10.59375 11.796875 12.1875 11.796875 14.796875 
C 11.796875 17.6875 9.59375 19 7.59375 19 
C 5.90625 19 3.296875 18.1875 3.296875 14.484375 
C 3.296875 5.234375 12.296875 -2 22.90625 -2 
C 34 -2 42.5 6.75 42.5 16.984375 
C 42.5 26.84375 34.5 34 25 35.09375 
C 32.59375 36.671875 39.90625 43.375 39.90625 52.390625 
C 39.90625 60.25 32 66 23 66 
C 13.90625 66 5.90625 60.34375 5.90625 52.296875 
C 5.90625 48.796875 8.5 48.1875 9.796875 48.1875 
C 11.90625 48.1875 13.703125 49.484375 13.703125 52.09375 
C 13.703125 54.6875 11.90625 56 9.796875 56 
C 9.40625 56 8.90625 56 8.5 55.796875 
C 11.40625 62.484375 19.296875 63.6875 22.796875 63.6875 
C 26.296875 63.6875 32.90625 61.96875 32.90625 52.296875 
C 32.90625 49.484375 32.5 44.546875 29.09375 40.21875 
C 26.09375 36.390625 22.703125 36.1875 19.40625 35.890625 
C 18.90625 35.890625 16.59375 35.6875 16.203125 35.6875 
C 15.5 35.59375 15.09375 35.5 15.09375 34.796875 
C 15.09375 34.09375 15.203125 34 17.203125 34 
z
" id="CMR17-51"/>
       </defs>
       <use transform="scale(0.996264)" xlink:href="#CMR17-49"/>
       <use transform="translate(45.690477 0)scale(0.996264)" xlink:href="#CMR17-48"/>
       <use transform="translate(91.380954 36.153639)scale(0.697382)" xlink:href="#CMSY10-0"/>
       <use transform="translate(145.621947 36.153639)scale(0.697382)" xlink:href="#CMR17-51"/>
      </g>
     </g>
    </g>
    <g id="xtick_5">
     <g id="line2d_9">
      <defs>
       <path d="M 0 0 
L 0 3 
" id="m6e85b336a8" style="stroke:#262626;stroke-width:0.6;"/>
      </defs>
      <g>
       <use style="fill:#262626;stroke:#262626;stroke-width:0.6;" x="91.927343" xlink:href="#m6e85b336a8" y="405.689286"/>
      </g>
     </g>
    </g>
    <g id="xtick_6">
     <g id="line2d_10">
      <g>
       <use style="fill:#262626;stroke:#262626;stroke-width:0.6;" x="115.017044" xlink:href="#m6e85b336a8" y="405.689286"/>
      </g>
     </g>
    </g>
    <g id="xtick_7">
     <g id="line2d_11">
      <g>
       <use style="fill:#262626;stroke:#262626;stroke-width:0.6;" x="131.399448" xlink:href="#m6e85b336a8" y="405.689286"/>
      </g>
     </g>
    </g>
    <g id="xtick_8">
     <g id="line2d_12">
      <g>
       <use style="fill:#262626;stroke:#262626;stroke-width:0.6;" x="144.106628" xlink:href="#m6e85b336a8" y="405.689286"/>
      </g>
     </g>
    </g>
    <g id="xtick_9">
     <g id="line2d_13">
      <g>
       <use style="fill:#262626;stroke:#262626;stroke-width:0.6;" x="154.48915" xlink:href="#m6e85b336a8" y="405.689286"/>
      </g>
     </g>
    </g>
    <g id="xtick_10">
     <g id="line2d_14">
      <g>
       <use style="fill:#262626;stroke:#262626;stroke-width:0.6;" x="163.267447" xlink:href="#m6e85b336a8" y="405.689286"/>
      </g>
     </g>
    </g>
    <g id="xtick_11">
     <g id="line2d_15">
      <g>
       <use style="fill:#262626;stroke:#262626;stroke-width:0.6;" x="170.871553" xlink:href="#m6e85b336a8" y="405.689286"/>
      </g>
     </g>
    </g>
    <g id="xtick_12">
     <g id="line2d_16">
      <g>
       <use style="fill:#262626;stroke:#262626;stroke-width:0.6;" x="177.578851" xlink:href="#m6e85b336a8" y="405.689286"/>
      </g>
     </g>
    </g>
    <g id="xtick_13">
     <g id="line2d_17">
      <g>
       <use style="fill:#262626;stroke:#262626;stroke-width:0.6;" x="223.050838" xlink:href="#m6e85b336a8" y="405.689286"/>
      </g>
     </g>
    </g>
    <g id="xtick_14">
     <g id="line2d_18">
      <g>
       <use style="fill:#262626;stroke:#262626;stroke-width:0.6;" x="246.14054" xlink:href="#m6e85b336a8" y="405.689286"/>
      </g>
     </g>
    </g>
    <g id="xtick_15">
     <g id="line2d_19">
      <g>
       <use style="fill:#262626;stroke:#262626;stroke-width:0.6;" x="262.522944" xlink:href="#m6e85b336a8" y="405.689286"/>
      </g>
     </g>
    </g>
    <g id="xtick_16">
     <g id="line2d_20">
      <g>
       <use style="fill:#262626;stroke:#262626;stroke-width:0.6;" x="275.230123" xlink:href="#m6e85b336a8" y="405.689286"/>
      </g>
     </g>
    </g>
    <g id="xtick_17">
     <g id="line2d_21">
      <g>
       <use style="fill:#262626;stroke:#262626;stroke-width:0.6;" x="285.612645" xlink:href="#m6e85b336a8" y="405.689286"/>
      </g>
     </g>
    </g>
    <g id="xtick_18">
     <g id="line2d_22">
      <g>
       <use style="fill:#262626;stroke:#262626;stroke-width:0.6;" x="294.390942" xlink:href="#m6e85b336a8" y="405.689286"/>
      </g>
     </g>
    </g>
    <g id="xtick_19">
     <g id="line2d_23">
      <g>
       <use style="fill:#262626;stroke:#262626;stroke-width:0.6;" x="301.995049" xlink:href="#m6e85b336a8" y="405.689286"/>
      </g>
     </g>
    </g>
    <g id="xtick_20">
     <g id="line2d_24">
      <g>
       <use style="fill:#262626;stroke:#262626;stroke-width:0.6;" x="308.702347" xlink:href="#m6e85b336a8" y="405.689286"/>
      </g>
     </g>
    </g>
    <g id="xtick_21">
     <g id="line2d_25">
      <g>
       <use style="fill:#262626;stroke:#262626;stroke-width:0.6;" x="354.174334" xlink:href="#m6e85b336a8" y="405.689286"/>
      </g>
     </g>
    </g>
    <g id="xtick_22">
     <g id="line2d_26">
      <g>
       <use style="fill:#262626;stroke:#262626;stroke-width:0.6;" x="377.264035" xlink:href="#m6e85b336a8" y="405.689286"/>
      </g>
     </g>
    </g>
    <g id="xtick_23">
     <g id="line2d_27">
      <g>
       <use style="fill:#262626;stroke:#262626;stroke-width:0.6;" x="393.646439" xlink:href="#m6e85b336a8" y="405.689286"/>
      </g>
     </g>
    </g>
    <g id="xtick_24">
     <g id="line2d_28">
      <g>
       <use style="fill:#262626;stroke:#262626;stroke-width:0.6;" x="406.353619" xlink:href="#m6e85b336a8" y="405.689286"/>
      </g>
     </g>
    </g>
    <g id="xtick_25">
     <g id="line2d_29">
      <g>
       <use style="fill:#262626;stroke:#262626;stroke-width:0.6;" x="416.736141" xlink:href="#m6e85b336a8" y="405.689286"/>
      </g>
     </g>
    </g>
    <g id="xtick_26">
     <g id="line2d_30">
      <g>
       <use style="fill:#262626;stroke:#262626;stroke-width:0.6;" x="425.514438" xlink:href="#m6e85b336a8" y="405.689286"/>
      </g>
     </g>
    </g>
    <g id="xtick_27">
     <g id="line2d_31">
      <g>
       <use style="fill:#262626;stroke:#262626;stroke-width:0.6;" x="433.118545" xlink:href="#m6e85b336a8" y="405.689286"/>
      </g>
     </g>
    </g>
    <g id="xtick_28">
     <g id="line2d_32">
      <g>
       <use style="fill:#262626;stroke:#262626;stroke-width:0.6;" x="439.825842" xlink:href="#m6e85b336a8" y="405.689286"/>
      </g>
     </g>
    </g>
    <g id="xtick_29">
     <g id="line2d_33">
      <g>
       <use style="fill:#262626;stroke:#262626;stroke-width:0.6;" x="485.29783" xlink:href="#m6e85b336a8" y="405.689286"/>
      </g>
     </g>
    </g>
    <g id="xtick_30">
     <g id="line2d_34">
      <g>
       <use style="fill:#262626;stroke:#262626;stroke-width:0.6;" x="508.387531" xlink:href="#m6e85b336a8" y="405.689286"/>
      </g>
     </g>
    </g>
    <g id="xtick_31">
     <g id="line2d_35">
      <g>
       <use style="fill:#262626;stroke:#262626;stroke-width:0.6;" x="524.769935" xlink:href="#m6e85b336a8" y="405.689286"/>
      </g>
     </g>
    </g>
    <g id="xtick_32">
     <g id="line2d_36">
      <g>
       <use style="fill:#262626;stroke:#262626;stroke-width:0.6;" x="537.477115" xlink:href="#m6e85b336a8" y="405.689286"/>
      </g>
     </g>
    </g>
    <g id="xtick_33">
     <g id="line2d_37">
      <g>
       <use style="fill:#262626;stroke:#262626;stroke-width:0.6;" x="547.859636" xlink:href="#m6e85b336a8" y="405.689286"/>
      </g>
     </g>
    </g>
    <g id="xtick_34">
     <g id="line2d_38">
      <g>
       <use style="fill:#262626;stroke:#262626;stroke-width:0.6;" x="556.637933" xlink:href="#m6e85b336a8" y="405.689286"/>
      </g>
     </g>
    </g>
    <g id="xtick_35">
     <g id="line2d_39">
      <g>
       <use style="fill:#262626;stroke:#262626;stroke-width:0.6;" x="564.24204" xlink:href="#m6e85b336a8" y="405.689286"/>
      </g>
     </g>
    </g>
    <g id="xtick_36">
     <g id="line2d_40">
      <g>
       <use style="fill:#262626;stroke:#262626;stroke-width:0.6;" x="570.949338" xlink:href="#m6e85b336a8" y="405.689286"/>
      </g>
     </g>
    </g>
    <g id="xtick_37">
     <g id="line2d_41">
      <g>
       <use style="fill:#262626;stroke:#262626;stroke-width:0.6;" x="616.421325" xlink:href="#m6e85b336a8" y="405.689286"/>
      </g>
     </g>
    </g>
    <g id="xtick_38">
     <g id="line2d_42">
      <g>
       <use style="fill:#262626;stroke:#262626;stroke-width:0.6;" x="639.511027" xlink:href="#m6e85b336a8" y="405.689286"/>
      </g>
     </g>
    </g>
    <g id="xtick_39">
     <g id="line2d_43">
      <g>
       <use style="fill:#262626;stroke:#262626;stroke-width:0.6;" x="655.893431" xlink:href="#m6e85b336a8" y="405.689286"/>
      </g>
     </g>
    </g>
    <g id="xtick_40">
     <g id="line2d_44">
      <g>
       <use style="fill:#262626;stroke:#262626;stroke-width:0.6;" x="668.60061" xlink:href="#m6e85b336a8" y="405.689286"/>
      </g>
     </g>
    </g>
    <g id="text_5">
     <!-- Fluence, $\mathcal{F}_\gamma$ (erg/cm$^2$) -->
     <g style="fill:#262626;" transform="translate(289.969952 445.211317)scale(0.168 -0.168)">
      <defs>
       <path d="M 45.59375 31 
L 45.59375 37.09375 
L 17.203125 37.09375 
L 17.203125 62.390625 
L 29.40625 62.390625 
C 30.59375 62.390625 31.796875 62.296875 33 62.296875 
L 49.5 62.296875 
L 49.5 68.796875 
L 8.796875 68.796875 
L 8.796875 0 
L 17.203125 0 
L 17.203125 31 
z
" id="CMSS17-70"/>
       <path d="M 14.796875 69 
L 7.40625 69 
L 7.40625 0 
L 14.796875 0 
z
" id="CMSS17-108"/>
       <path d="M 40.90625 43 
L 33.296875 43 
L 33.296875 15.25 
C 33.296875 7.8125 27.90625 4.796875 22.203125 4.796875 
C 15.59375 4.796875 15 7 15 11.125 
L 15 43 
L 7.40625 43 
L 7.40625 10.625 
C 7.40625 2.796875 10.09375 -1 17 -1 
C 20.40625 -1 28.09375 -0.203125 33.5 4.796875 
L 33.5 -0.203125 
L 40.90625 -0.203125 
z
" id="CMSS17-117"/>
       <path d="M 39.09375 21.484375 
C 39.09375 24.796875 38.90625 31.265625 35.703125 36.671875 
C 32.203125 42.390625 26.5 44 22.203125 44 
C 11.796875 44 3 34.125 3 21.296875 
C 3 9.046875 12.09375 -1 23.59375 -1 
C 28.09375 -1 33.59375 0.296875 38.59375 3.890625 
C 38.59375 4.296875 38.40625 6.46875 38.296875 6.578125 
C 38.296875 6.765625 38 9.828125 38 10.234375 
C 33.203125 6.375 27.703125 5.09375 23.703125 5.09375 
C 17.296875 5.09375 10.40625 10.421875 10.09375 21.484375 
z
M 10.90625 27 
C 12.203125 32.59375 16.59375 37.890625 22.203125 37.890625 
C 23.703125 37.890625 30.703125 37.6875 32.5 27 
z
" id="CMSS17-101"/>
       <path d="M 40.90625 29.34375 
C 40.90625 35.671875 39.40625 44 28.09375 44 
C 21.703125 44 17.5 40.6875 14.703125 37.28125 
L 14.703125 43.484375 
L 7.40625 43.484375 
L 7.40625 0 
L 15 0 
L 15 24.3125 
C 15 30.65625 17.40625 37.890625 24.203125 37.890625 
C 33 37.890625 33.296875 31.953125 33.296875 28.53125 
L 33.296875 0 
L 40.90625 0 
z
" id="CMSS17-110"/>
       <path d="M 38.5 39.6875 
C 38.5 40.390625 33.90625 42.390625 32.703125 42.796875 
C 29.40625 44 25.203125 44 24.09375 44 
C 11.09375 44 3.296875 32.6875 3.296875 21.296875 
C 3.296875 9.296875 12 -1 23.703125 -1 
C 30.40625 -1 35.203125 1.1875 39.09375 3.796875 
L 38.5 10.390625 
C 34.203125 7.09375 29.203125 5.296875 23.796875 5.296875 
C 16 5.296875 10.90625 12.09375 10.90625 21.390625 
C 10.90625 28.59375 14.203125 37.6875 24.203125 37.6875 
C 29.703125 37.6875 32.796875 36.59375 37.40625 33.484375 
z
" id="CMSS17-99"/>
       <path d="M 17 0.09375 
L 17 8 
L 9 8 
L 9 0 
L 11.5 0 
L 8.90625 -12.109375 
L 12.90625 -12.109375 
z
" id="CMSS17-44"/>
       <path d="M 83 64.09375 
C 83 68.6875 75.296875 68 72.203125 68 
L 34.5 68 
C 29.5 68 20.59375 65.09375 19 59.6875 
C 19.203125 59.09375 19.40625 58.984375 20 58.984375 
C 22.203125 58.984375 25.203125 60.796875 26.59375 62.296875 
C 29.703125 62.296875 32.703125 62.484375 35.796875 62.484375 
L 42 62.484375 
C 42 62.484375 41.59375 60.6875 41.59375 60.59375 
C 37.703125 42.296875 31.796875 26.890625 27.40625 17.375 
C 26.796875 16.109375 21.40625 3.796875 20 2.59375 
C 15.59375 2.59375 12.296875 5 10.5 8.890625 
C 10.203125 9.5 10.203125 9.890625 9.5 9.890625 
C 7.203125 9.890625 1.703125 6.6875 1.703125 5 
C 1.703125 4.796875 1.796875 4.59375 1.90625 4.390625 
C 3.703125 -0.3125 8.203125 -3 13.09375 -3 
C 18.203125 -3 24.09375 0.6875 27.296875 4.390625 
C 30.59375 8.1875 37.203125 24.171875 39.796875 30 
L 59.09375 30 
C 59 29.890625 58.90625 29.796875 58.90625 29.6875 
C 58.90625 29.3125 59.5 29.015625 59.90625 29.015625 
C 62.09375 29.015625 67.796875 31.796875 67.796875 34.890625 
C 67.796875 35.59375 67.09375 35.5 65.90625 35.5 
L 41.90625 35.5 
C 44.5 44.484375 47.90625 53.296875 49.703125 62.484375 
L 62.90625 62.484375 
C 65.40625 62.484375 72.40625 62.984375 74.203125 60.796875 
C 74.40625 60.1875 74.09375 59.1875 74.40625 58.6875 
C 74.59375 58.484375 74.90625 58.390625 75.203125 58.390625 
C 77.59375 58.390625 83 61.390625 83 64.09375 
z
" id="CMSY10-70"/>
       <path d="M 37.796875 12.265625 
C 37.59375 17.140625 37.40625 24.78125 33.59375 33.71875 
C 31.59375 38.6875 28.203125 44 20.90625 44 
C 8.59375 44 1.90625 28.359375 1.90625 25.765625 
C 1.90625 24.875 2.59375 24.875 2.90625 24.875 
C 3.796875 24.875 3.796875 25.078125 4.296875 26.375 
C 6.40625 32.515625 12.796875 37.390625 19.703125 37.390625 
C 33.59375 37.390625 35.59375 22 35.59375 12.171875 
C 35.59375 5.90625 34.90625 3.828125 34.296875 1.84375 
C 32.40625 -4.3125 29.09375 -16.625 29.09375 -19.40625 
C 29.09375 -20.203125 29.40625 -21.109375 30.203125 -21.109375 
C 31.703125 -21.109375 32.59375 -17.8125 33.703125 -13.84375 
C 36.09375 -5.109375 36.703125 -0.734375 37.203125 3.234375 
C 37.5 5.625 43.203125 22.015625 51.09375 37.609375 
C 51.796875 39.203125 53.203125 41.890625 53.203125 42.1875 
C 53.203125 42.296875 53.09375 43 52.203125 43 
C 52 43 51.5 43 51.296875 42.59375 
C 51.09375 42.390625 47.59375 35.625 44.59375 28.875 
C 43.09375 25.46875 41.09375 21 37.796875 12.265625 
z
" id="CMMI12-13"/>
       <path d="M 25.203125 75 
C 19.796875 69.484375 7.40625 56.671875 7.40625 25.046875 
C 7.40625 -6.6875 19.796875 -19.40625 25.203125 -25 
L 31.296875 -25 
C 19 -12.203125 15 5.71875 15 24.9375 
C 15 44.0625 18.796875 62.078125 31.296875 75 
z
" id="CMSS17-40"/>
       <path d="M 14.90625 21.390625 
C 14.90625 30.84375 21.796875 37.171875 30.59375 37.375 
L 30.59375 44 
C 24.203125 43.890625 18.203125 40.6875 14.59375 35.46875 
L 14.59375 43.484375 
L 7.5 43.484375 
L 7.5 0 
L 14.90625 0 
z
" id="CMSS17-114"/>
       <path d="M 44.5 44 
C 38.796875 43.890625 33.90625 42.796875 29.90625 40.890625 
C 26.59375 43.484375 23.203125 44 20.90625 44 
C 12.203125 44 5.59375 36.8125 5.59375 28.5 
C 5.59375 23.140625 8.59375 19.09375 8.796875 18.890625 
C 7 16.390625 6 13.6875 6 10.6875 
C 6 7.1875 7.40625 4.6875 8.5 3.296875 
C 3.296875 0.09375 2.59375 -4.8125 2.59375 -6.703125 
C 2.59375 -14 11.703125 -20 23.40625 -20 
C 35.203125 -20 44.296875 -14 44.296875 -6.609375 
C 44.296875 7.1875 29 7.296875 24.796875 7.296875 
L 16.703125 7.296875 
C 15.203125 7.296875 11.203125 7.296875 11.203125 12.390625 
C 11.203125 14.390625 12.09375 15.6875 12.203125 15.796875 
C 13.703125 14.6875 16.796875 13 20.90625 13 
C 29.203125 13 36.09375 19.984375 36.09375 28.5 
C 36.09375 33.25 33.90625 36.703125 33 37.890625 
L 33.296875 37.890625 
C 33.59375 37.890625 37.796875 38.1875 39.296875 38.1875 
C 42.5 38.1875 42.796875 38.09375 45.59375 37.796875 
z
M 20.90625 18.5 
C 17.5 18.5 12.703125 20.578125 12.703125 28.5 
C 12.703125 37.109375 18.203125 38.484375 20.796875 38.484375 
C 24.203125 38.484375 29 36.40625 29 28.5 
C 29 19.875 23.5 18.5 20.90625 18.5 
z
M 24.703125 0 
C 27.09375 0 37.203125 0 37.203125 -6.8125 
C 37.203125 -11.109375 31 -14.5 23.5 -14.5 
C 15.90625 -14.5 9.703125 -11.203125 9.703125 -6.703125 
C 9.703125 -6.203125 9.703125 0 16.59375 0 
z
" id="CMSS17-103"/>
       <path d="M 41.203125 71.484375 
C 41.703125 72.78125 41.703125 72.984375 41.703125 73.1875 
C 41.703125 74.390625 40.796875 75 40 75 
C 38.796875 75 38.40625 74.1875 38 72.984375 
L 5.703125 -21.5 
C 5.203125 -22.8125 5.203125 -23 5.203125 -23.203125 
C 5.203125 -24.40625 6.09375 -25 6.90625 -25 
C 8.09375 -25 8.5 -24.203125 8.90625 -23 
z
" id="CMSS17-47"/>
       <path d="M 67 29.34375 
C 67 36.078125 65.296875 44 54.09375 44 
C 46.59375 44 42.09375 39.296875 40.09375 36.375 
C 38.296875 41.6875 34.09375 44 28.09375 44 
C 21.296875 44 17 40.09375 14.703125 37.28125 
L 14.703125 43.484375 
L 7.40625 43.484375 
L 7.40625 0 
L 15 0 
L 15 24.3125 
C 15 30.25 17.203125 37.890625 24.296875 37.890625 
C 33.40625 37.890625 33.40625 31.453125 33.40625 28.53125 
L 33.40625 0 
L 41 0 
L 41 24.3125 
C 41 30.25 43.203125 37.890625 50.296875 37.890625 
C 59.40625 37.890625 59.40625 31.453125 59.40625 28.53125 
L 59.40625 0 
L 67 0 
z
" id="CMSS17-109"/>
       <path d="M 41.703125 15.46875 
L 39.90625 15.46875 
C 38.90625 8.390625 38.09375 7.1875 37.703125 6.59375 
C 37.203125 5.796875 30 5.796875 28.59375 5.796875 
L 9.40625 5.796875 
C 13 9.6875 20 16.765625 28.5 24.9375 
C 34.59375 30.71875 41.703125 37.5 41.703125 47.390625 
C 41.703125 59.1875 32.296875 66 21.796875 66 
C 10.796875 66 4.09375 56.296875 4.09375 47.296875 
C 4.09375 43.390625 7 42.890625 8.203125 42.890625 
C 9.203125 42.890625 12.203125 43.484375 12.203125 46.984375 
C 12.203125 50.09375 9.59375 51 8.203125 51 
C 7.59375 51 7 50.890625 6.59375 50.6875 
C 8.5 59.1875 14.296875 63.390625 20.40625 63.390625 
C 29.09375 63.390625 34.796875 56.5 34.796875 47.390625 
C 34.796875 38.703125 29.703125 31.21875 24 24.734375 
L 4.09375 2.296875 
L 4.09375 0 
L 39.296875 0 
z
" id="CMR17-50"/>
       <path d="M 11.296875 -25 
C 16.703125 -19.5 29.09375 -6.6875 29.09375 24.9375 
C 29.09375 56.671875 16.703125 69.375 11.296875 75 
L 5.203125 75 
C 17.5 62.171875 21.5 44.265625 21.5 25.046875 
C 21.5 5.921875 17.703125 -12.09375 5.203125 -25 
z
" id="CMSS17-41"/>
      </defs>
      <use transform="scale(0.996264)" xlink:href="#CMSS17-70"/>
      <use transform="translate(53.289559 0)scale(0.996264)" xlink:href="#CMSS17-108"/>
      <use transform="translate(75.470282 0)scale(0.996264)" xlink:href="#CMSS17-117"/>
      <use transform="translate(123.675225 0)scale(0.996264)" xlink:href="#CMSS17-101"/>
      <use transform="translate(165.314048 0)scale(0.996264)" xlink:href="#CMSS17-110"/>
      <use transform="translate(213.518991 0)scale(0.996264)" xlink:href="#CMSS17-99"/>
      <use transform="translate(255.157813 0)scale(0.996264)" xlink:href="#CMSS17-101"/>
      <use transform="translate(296.796635 0)scale(0.996264)" xlink:href="#CMSS17-44"/>
      <use transform="translate(354.049952 0)scale(0.996264)" xlink:href="#CMSY10-70"/>
      <use transform="translate(425.656231 -14.943915)scale(0.697382)" xlink:href="#CMMI12-13"/>
      <use transform="translate(496.596275 0)scale(0.996264)" xlink:href="#CMSS17-40"/>
      <use transform="translate(533.03019 0)scale(0.996264)" xlink:href="#CMSS17-101"/>
      <use transform="translate(574.669012 0)scale(0.996264)" xlink:href="#CMSS17-114"/>
      <use transform="translate(606.578784 0)scale(0.996264)" xlink:href="#CMSS17-103"/>
      <use transform="translate(653.422408 0)scale(0.996264)" xlink:href="#CMSS17-47"/>
      <use transform="translate(700.266031 0)scale(0.996264)" xlink:href="#CMSS17-99"/>
      <use transform="translate(741.904853 0)scale(0.996264)" xlink:href="#CMSS17-109"/>
      <use transform="translate(816.134108 36.153639)scale(0.697382)" xlink:href="#CMR17-50"/>
      <use transform="translate(848.615422 0)scale(0.996264)" xlink:href="#CMSS17-41"/>
     </g>
    </g>
   </g>
   <g id="matplotlib.axis_2">
    <g id="ytick_1">
     <g id="line2d_45">
      <path clip-path="url(#pad847183f3)" d="M 66.198426 389.370125 
L 668.88 389.370125 
" style="fill:none;stroke:#cccccc;stroke-linecap:round;"/>
     </g>
     <g id="line2d_46">
      <defs>
       <path d="M 0 0 
L -6 0 
" id="m37695e3eda" style="stroke:#262626;stroke-width:0.8;"/>
      </defs>
      <g>
       <use style="fill:#262626;stroke:#262626;stroke-width:0.8;" x="66.198426" xlink:href="#m37695e3eda" y="389.370125"/>
      </g>
     </g>
     <g id="text_6">
      <!-- $\mathdefault{0.0}$ -->
      <g style="fill:#262626;" transform="translate(39.247844 394.213063)scale(0.14 -0.14)">
       <defs>
        <path d="M 18.40625 4.796875 
C 18.40625 7.6875 16 9.6875 13.59375 9.6875 
C 10.703125 9.6875 8.703125 7.296875 8.703125 4.890625 
C 8.703125 2 11.09375 0 13.5 0 
C 16.40625 0 18.40625 2.390625 18.40625 4.796875 
z
" id="CMMI12-58"/>
       </defs>
       <use transform="scale(0.996264)" xlink:href="#CMR17-48"/>
       <use transform="translate(45.690477 0)scale(0.996264)" xlink:href="#CMMI12-58"/>
       <use transform="translate(72.787654 0)scale(0.996264)" xlink:href="#CMR17-48"/>
      </g>
     </g>
    </g>
    <g id="ytick_2">
     <g id="line2d_47">
      <path clip-path="url(#pad847183f3)" d="M 66.198426 321.878926 
L 668.88 321.878926 
" style="fill:none;stroke:#cccccc;stroke-linecap:round;"/>
     </g>
     <g id="line2d_48">
      <g>
       <use style="fill:#262626;stroke:#262626;stroke-width:0.8;" x="66.198426" xlink:href="#m37695e3eda" y="321.878926"/>
      </g>
     </g>
     <g id="text_7">
      <!-- $\mathdefault{0.2}$ -->
      <g style="fill:#262626;" transform="translate(39.247844 326.721865)scale(0.14 -0.14)">
       <use transform="scale(0.996264)" xlink:href="#CMR17-48"/>
       <use transform="translate(45.690477 0)scale(0.996264)" xlink:href="#CMMI12-58"/>
       <use transform="translate(72.787654 0)scale(0.996264)" xlink:href="#CMR17-50"/>
      </g>
     </g>
    </g>
    <g id="ytick_3">
     <g id="line2d_49">
      <path clip-path="url(#pad847183f3)" d="M 66.198426 254.387728 
L 668.88 254.387728 
" style="fill:none;stroke:#cccccc;stroke-linecap:round;"/>
     </g>
     <g id="line2d_50">
      <g>
       <use style="fill:#262626;stroke:#262626;stroke-width:0.8;" x="66.198426" xlink:href="#m37695e3eda" y="254.387728"/>
      </g>
     </g>
     <g id="text_8">
      <!-- $\mathdefault{0.4}$ -->
      <g style="fill:#262626;" transform="translate(39.247844 259.230666)scale(0.14 -0.14)">
       <use transform="scale(0.996264)" xlink:href="#CMR17-48"/>
       <use transform="translate(45.690477 0)scale(0.996264)" xlink:href="#CMMI12-58"/>
       <use transform="translate(72.787654 0)scale(0.996264)" xlink:href="#CMR17-52"/>
      </g>
     </g>
    </g>
    <g id="ytick_4">
     <g id="line2d_51">
      <path clip-path="url(#pad847183f3)" d="M 66.198426 186.896529 
L 668.88 186.896529 
" style="fill:none;stroke:#cccccc;stroke-linecap:round;"/>
     </g>
     <g id="line2d_52">
      <g>
       <use style="fill:#262626;stroke:#262626;stroke-width:0.8;" x="66.198426" xlink:href="#m37695e3eda" y="186.896529"/>
      </g>
     </g>
     <g id="text_9">
      <!-- $\mathdefault{0.6}$ -->
      <g style="fill:#262626;" transform="translate(39.247844 191.739467)scale(0.14 -0.14)">
       <use transform="scale(0.996264)" xlink:href="#CMR17-48"/>
       <use transform="translate(45.690477 0)scale(0.996264)" xlink:href="#CMMI12-58"/>
       <use transform="translate(72.787654 0)scale(0.996264)" xlink:href="#CMR17-54"/>
      </g>
     </g>
    </g>
    <g id="ytick_5">
     <g id="line2d_53">
      <path clip-path="url(#pad847183f3)" d="M 66.198426 119.405331 
L 668.88 119.405331 
" style="fill:none;stroke:#cccccc;stroke-linecap:round;"/>
     </g>
     <g id="line2d_54">
      <g>
       <use style="fill:#262626;stroke:#262626;stroke-width:0.8;" x="66.198426" xlink:href="#m37695e3eda" y="119.405331"/>
      </g>
     </g>
     <g id="text_10">
      <!-- $\mathdefault{0.8}$ -->
      <g style="fill:#262626;" transform="translate(39.247844 124.248269)scale(0.14 -0.14)">
       <defs>
        <path d="M 27.203125 35.765625 
C 33.5 38.96875 39.90625 43.796875 39.90625 51.53125 
C 39.90625 60.6875 31.09375 66 23 66 
C 13.90625 66 5.90625 59.375 5.90625 50.234375 
C 5.90625 47.71875 6.5 43.390625 10.40625 39.578125 
C 11.40625 38.578125 15.59375 35.5625 18.296875 33.65625 
C 13.796875 31.34375 3.296875 25.8125 3.296875 14.765625 
C 3.296875 4.40625 13.09375 -2 22.796875 -2 
C 33.5 -2 42.5 5.71875 42.5 15.96875 
C 42.5 25.109375 36.40625 29.328125 32.40625 32.046875 
z
M 14.09375 44.609375 
C 13.296875 45.109375 9.296875 48.21875 9.296875 52.9375 
C 9.296875 59.078125 15.59375 63.6875 22.796875 63.6875 
C 30.703125 63.6875 36.5 58.0625 36.5 51.53125 
C 36.5 42.1875 26.09375 36.859375 25.59375 36.859375 
C 25.5 36.859375 25.40625 36.859375 24.59375 37.46875 
z
M 32.5 24 
C 34 22.90625 38.796875 19.578125 38.796875 13.453125 
C 38.796875 6.015625 31.40625 0.390625 23 0.390625 
C 13.90625 0.390625 7 6.921875 7 14.859375 
C 7 22.796875 13.09375 29.4375 20 32.546875 
z
" id="CMR17-56"/>
       </defs>
       <use transform="scale(0.996264)" xlink:href="#CMR17-48"/>
       <use transform="translate(45.690477 0)scale(0.996264)" xlink:href="#CMMI12-58"/>
       <use transform="translate(72.787654 0)scale(0.996264)" xlink:href="#CMR17-56"/>
      </g>
     </g>
    </g>
    <g id="ytick_6">
     <g id="line2d_55">
      <path clip-path="url(#pad847183f3)" d="M 66.198426 51.914132 
L 668.88 51.914132 
" style="fill:none;stroke:#cccccc;stroke-linecap:round;"/>
     </g>
     <g id="line2d_56">
      <g>
       <use style="fill:#262626;stroke:#262626;stroke-width:0.8;" x="66.198426" xlink:href="#m37695e3eda" y="51.914132"/>
      </g>
     </g>
     <g id="text_11">
      <!-- $\mathdefault{1.0}$ -->
      <g style="fill:#262626;" transform="translate(39.247844 56.75707)scale(0.14 -0.14)">
       <use transform="scale(0.996264)" xlink:href="#CMR17-49"/>
       <use transform="translate(45.690477 0)scale(0.996264)" xlink:href="#CMMI12-58"/>
       <use transform="translate(72.787654 0)scale(0.996264)" xlink:href="#CMR17-48"/>
      </g>
     </g>
    </g>
    <g id="text_12">
     <!-- $\tilde{F}(\mathcal{F}_\gamma|\mathcal{F}_\gamma&gt;\mathcal{F}_{min.})$ -->
     <g style="fill:#262626;" transform="translate(30.459161 284.354957)rotate(-90)scale(0.168 -0.168)">
      <defs>
       <path d="M 37.5 65.59375 
C 34.09375 62.296875 32.203125 60.390625 29.09375 60.390625 
C 26.90625 60.390625 25.40625 61.5 23.296875 63 
C 21.296875 64.390625 19.703125 65.59375 17.5 65.59375 
C 13.90625 65.59375 11.40625 62.6875 7.203125 58.09375 
L 8.296875 57 
C 11.703125 60.296875 13.59375 62.1875 16.703125 62.1875 
C 18.90625 62.1875 20.40625 61.09375 22.5 59.59375 
C 24.5 58.1875 26.09375 57 28.296875 57 
C 31.90625 57 34.40625 59.890625 38.59375 64.5 
z
" id="CMR17-126"/>
       <path d="M 29.703125 32.09375 
L 39.296875 32.09375 
C 46.90625 32.09375 47.5 30.421875 47.5 27.5625 
C 47.5 26.296875 47.296875 24.921875 46.796875 22.75 
C 46.59375 22.359375 46.5 21.859375 46.5 21.671875 
C 46.5 20.984375 46.90625 20.59375 47.59375 20.59375 
C 48.40625 20.59375 48.5 20.984375 48.90625 22.5625 
L 54.703125 45.765625 
C 54.703125 46.171875 54.40625 46.765625 53.703125 46.765625 
C 52.796875 46.765625 52.703125 46.375 52.296875 44.65625 
C 50.203125 37.109375 48.203125 35 39.5 35 
L 30.40625 35 
L 36.90625 61.0625 
C 37.796875 64.59375 38 64.890625 42.09375 64.890625 
L 55.5 64.890625 
C 68 64.890625 69.796875 61.171875 69.796875 54.015625 
C 69.796875 53.421875 69.796875 51.203125 69.5 48.578125 
C 69.40625 48.1875 69.203125 46.875 69.203125 46.46875 
C 69.203125 45.65625 69.703125 45.359375 70.296875 45.359375 
C 71 45.359375 71.40625 45.765625 71.59375 47.578125 
L 73.703125 65.1875 
C 73.703125 65.484375 73.90625 66.484375 73.90625 66.6875 
C 73.90625 67.796875 73 67.796875 71.203125 67.796875 
L 23.796875 67.796875 
C 21.90625 67.796875 20.90625 67.796875 20.90625 65.984375 
C 20.90625 64.890625 21.59375 64.890625 23.296875 64.890625 
C 29.5 64.890625 29.5 64.1875 29.5 63.078125 
C 29.5 62.578125 29.40625 62.171875 29.09375 61.0625 
L 15.59375 7.3125 
C 14.703125 3.875 14.5 2.890625 7.5 2.890625 
C 5.59375 2.890625 4.59375 2.890625 4.59375 1.09375 
C 4.59375 0 5.5 0 6.09375 0 
C 8 0 10 0.1875 11.90625 0.1875 
L 24.90625 0.1875 
C 27.09375 0.1875 29.5 0 31.703125 0 
C 32.59375 0 33.796875 0 33.796875 1.796875 
C 33.796875 2.890625 33.203125 2.890625 31 2.890625 
C 23.09375 2.890625 22.90625 3.578125 22.90625 5.0625 
C 22.90625 5.546875 23.09375 6.328125 23.296875 7.015625 
z
" id="CMMI12-70"/>
       <path d="M 30.59375 -24.40625 
C 30.59375 -24.3125 30.59375 -24.109375 30.296875 -23.8125 
C 25.703125 -19.109375 13.40625 -6.296875 13.40625 24.9375 
C 13.40625 56.171875 25.5 68.875 30.40625 73.890625 
C 30.40625 73.984375 30.59375 74.1875 30.59375 74.484375 
C 30.59375 74.796875 30.296875 75 29.90625 75 
C 28.796875 75 20.296875 67.578125 15.40625 56.5625 
C 10.40625 45.453125 9 34.65625 9 25.046875 
C 9 17.828125 9.703125 5.625 15.703125 -7.296875 
C 20.5 -17.703125 28.703125 -25 29.90625 -25 
C 30.40625 -25 30.59375 -24.8125 30.59375 -24.40625 
z
" id="CMR17-40"/>
       <path d="M 15.90625 71.390625 
C 15.90625 73.1875 15.90625 75 13.90625 75 
C 11.90625 75 11.90625 73.1875 11.90625 71.390625 
L 11.90625 -21.40625 
C 11.90625 -23.203125 11.90625 -25 13.90625 -25 
C 15.90625 -25 15.90625 -23.203125 15.90625 -21.40625 
z
" id="CMSY10-106"/>
       <path d="M 65.90625 22.8125 
C 67.796875 23.734375 67.90625 24.328125 67.90625 25.046875 
C 67.90625 25.640625 67.703125 26.359375 65.90625 27.15625 
L 11.796875 52.296875 
C 10.5 52.890625 10.296875 53 10.09375 53 
C 8.90625 53 8.203125 51.984375 8.203125 51.1875 
C 8.203125 49.984375 9 49.578125 10.296875 48.96875 
L 61.703125 25.046875 
L 10.203125 1.015625 
C 8.203125 0.109375 8.203125 -0.609375 8.203125 -1.203125 
C 8.203125 -2 8.90625 -3 10.09375 -3 
C 10.296875 -3 10.40625 -2.90625 11.796875 -2.3125 
z
" id="CMMI12-62"/>
       <path d="M 20.59375 29.21875 
C 20.796875 29.828125 23.296875 34.8125 27 38 
C 29.59375 40.390625 33 41.984375 36.90625 41.984375 
C 40.90625 41.984375 42.296875 39 42.296875 35.015625 
C 42.296875 34.40625 42.296875 32.421875 41.09375 27.734375 
L 38.59375 17.453125 
C 37.796875 14.453125 35.90625 7.078125 35.703125 5.984375 
C 35.296875 4.484375 34.703125 1.890625 34.703125 1.484375 
C 34.703125 0.09375 35.796875 -1 37.296875 -1 
C 40.296875 -1 40.796875 1.296875 41.703125 4.890625 
L 47.703125 28.71875 
C 47.90625 29.53125 53.09375 41.984375 64.09375 41.984375 
C 68.09375 41.984375 69.5 39 69.5 35.015625 
C 69.5 29.421875 65.59375 18.546875 63.40625 12.5625 
C 62.5 10.171875 62 8.875 62 7.078125 
C 62 2.59375 65.09375 -1 69.90625 -1 
C 79.203125 -1 82.703125 13.65625 82.703125 14.265625 
C 82.703125 14.765625 82.296875 15.15625 81.703125 15.15625 
C 80.796875 15.15625 80.703125 14.859375 80.203125 13.15625 
C 77.90625 5.1875 74.203125 1 70.203125 1 
C 69.203125 1 67.59375 1.09375 67.59375 4.28125 
C 67.59375 6.875 68.796875 10.078125 69.203125 11.171875 
C 71 15.953125 75.5 27.734375 75.5 33.515625 
C 75.5 39.5 72 44 64.40625 44 
C 57.703125 44 52.296875 40.203125 48.296875 34.3125 
C 48 39.703125 44.703125 44 37.203125 44 
C 28.296875 44 23.59375 37.703125 21.796875 35.203125 
C 21.5 40.890625 17.40625 44 13 44 
C 10.09375 44 7.796875 42.59375 5.90625 38.796875 
C 4.09375 35.203125 2.703125 29.125 2.703125 28.71875 
C 2.703125 28.328125 3.09375 27.828125 3.796875 27.828125 
C 4.59375 27.828125 4.703125 27.921875 5.296875 30.21875 
C 6.796875 36.109375 8.703125 41.984375 12.703125 41.984375 
C 15 41.984375 15.796875 40.390625 15.796875 37.40625 
C 15.796875 35.203125 14.796875 31.3125 14.09375 28.234375 
L 11.296875 17.453125 
C 10.90625 15.5625 9.796875 11.0625 9.296875 9.265625 
C 8.59375 6.671875 7.5 1.984375 7.5 1.484375 
C 7.5 0.09375 8.59375 -1 10.09375 -1 
C 11.296875 -1 12.703125 -0.40625 13.5 1.09375 
C 13.703125 1.59375 14.59375 5.078125 15.09375 7.078125 
L 17.296875 16.0625 
z
" id="CMMI12-109"/>
       <path d="M 28.296875 14.265625 
C 28.296875 14.765625 27.90625 15.15625 27.296875 15.15625 
C 26.40625 15.15625 26.296875 14.859375 25.796875 13.15625 
C 23.203125 4.078125 19.09375 1 15.796875 1 
C 14.59375 1 13.203125 1.296875 13.203125 4.28125 
C 13.203125 6.984375 14.40625 9.96875 15.5 12.96875 
L 22.5 31.515625 
C 22.796875 32.3125 23.5 34.109375 23.5 36.015625 
C 23.5 40.203125 20.5 44 15.59375 44 
C 6.40625 44 2.703125 29.53125 2.703125 28.71875 
C 2.703125 28.328125 3.09375 27.828125 3.796875 27.828125 
C 4.703125 27.828125 4.796875 28.234375 5.203125 29.625 
C 7.59375 38 11.40625 41.984375 15.296875 41.984375 
C 16.203125 41.984375 17.90625 41.890625 17.90625 38.703125 
C 17.90625 36.109375 16.59375 32.8125 15.796875 30.625 
L 8.796875 12.0625 
C 8.203125 10.46875 7.59375 8.875 7.59375 7.078125 
C 7.59375 2.59375 10.703125 -1 15.5 -1 
C 24.703125 -1 28.296875 13.5625 28.296875 14.265625 
z
M 27.5 62.6875 
C 27.5 64.1875 26.296875 66 24.09375 66 
C 21.796875 66 19.203125 63.796875 19.203125 61.1875 
C 19.203125 58.6875 21.296875 57.890625 22.5 57.890625 
C 25.203125 57.890625 27.5 60.484375 27.5 62.6875 
z
" id="CMMI12-105"/>
       <path d="M 20.59375 29.21875 
C 20.796875 29.828125 23.296875 34.8125 27 38 
C 29.59375 40.390625 33 41.984375 36.90625 41.984375 
C 40.90625 41.984375 42.296875 39 42.296875 35.015625 
C 42.296875 29.328125 38.203125 17.953125 36.203125 12.5625 
C 35.296875 10.171875 34.796875 8.875 34.796875 7.078125 
C 34.796875 2.59375 37.90625 -1 42.703125 -1 
C 52 -1 55.5 13.65625 55.5 14.265625 
C 55.5 14.765625 55.09375 15.15625 54.5 15.15625 
C 53.59375 15.15625 53.5 14.859375 53 13.15625 
C 50.703125 4.984375 46.90625 1 43 1 
C 42 1 40.40625 1.09375 40.40625 4.28125 
C 40.40625 6.78125 41.5 9.765625 42.09375 11.171875 
C 44.09375 16.65625 48.296875 27.828125 48.296875 33.515625 
C 48.296875 39.5 44.796875 44 37.203125 44 
C 28.296875 44 23.59375 37.703125 21.796875 35.203125 
C 21.5 40.890625 17.40625 44 13 44 
C 9.796875 44 7.59375 42.09375 5.90625 38.703125 
C 4.09375 35.109375 2.703125 29.125 2.703125 28.71875 
C 2.703125 28.328125 3.09375 27.828125 3.796875 27.828125 
C 4.59375 27.828125 4.703125 27.921875 5.296875 30.21875 
C 6.90625 36.3125 8.703125 41.984375 12.703125 41.984375 
C 15 41.984375 15.796875 40.390625 15.796875 37.40625 
C 15.796875 35.203125 14.796875 31.3125 14.09375 28.234375 
L 11.296875 17.453125 
C 10.90625 15.5625 9.796875 11.0625 9.296875 9.265625 
C 8.59375 6.671875 7.5 1.984375 7.5 1.484375 
C 7.5 0.09375 8.59375 -1 10.09375 -1 
C 11.296875 -1 12.703125 -0.40625 13.5 1.09375 
C 13.703125 1.59375 14.59375 5.078125 15.09375 7.078125 
L 17.296875 16.0625 
z
" id="CMMI12-110"/>
       <path d="M 26.296875 24.9375 
C 26.296875 32.140625 25.59375 44.359375 19.59375 57.265625 
C 14.796875 67.6875 6.59375 75 5.40625 75 
C 5.09375 75 4.703125 74.890625 4.703125 74.390625 
C 4.703125 74.1875 4.796875 74.09375 4.90625 73.890625 
C 9.703125 68.875 21.90625 56.171875 21.90625 25.046875 
C 21.90625 -6.1875 9.796875 -18.90625 4.90625 -23.90625 
C 4.796875 -24.109375 4.703125 -24.203125 4.703125 -24.40625 
C 4.703125 -24.90625 5.09375 -25 5.40625 -25 
C 6.5 -25 15 -17.609375 19.90625 -6.59375 
C 24.90625 4.515625 26.296875 15.328125 26.296875 24.9375 
z
" id="CMR17-41"/>
      </defs>
      <use transform="translate(23.632311 25.189733)scale(0.996264)" xlink:href="#CMR17-126"/>
      <use transform="scale(0.996264)" xlink:href="#CMMI12-70"/>
      <use transform="translate(76.696793 0)scale(0.996264)" xlink:href="#CMR17-40"/>
      <use transform="translate(111.97756 0)scale(0.996264)" xlink:href="#CMSY10-70"/>
      <use transform="translate(183.583838 -14.943915)scale(0.697382)" xlink:href="#CMMI12-13"/>
      <use transform="translate(223.29477 0)scale(0.996264)" xlink:href="#CMSY10-106"/>
      <use transform="translate(250.968855 0)scale(0.996264)" xlink:href="#CMSY10-70"/>
      <use transform="translate(322.575133 -14.943915)scale(0.697382)" xlink:href="#CMMI12-13"/>
      <use transform="translate(389.960074 0)scale(0.996264)" xlink:href="#CMMI12-62"/>
      <use transform="translate(493.506179 0)scale(0.996264)" xlink:href="#CMSY10-70"/>
      <use transform="translate(565.112457 -14.943915)scale(0.697382)" xlink:href="#CMMI12-109"/>
      <use transform="translate(624.841248 -14.943915)scale(0.697382)" xlink:href="#CMMI12-105"/>
      <use transform="translate(648.136155 -14.943915)scale(0.697382)" xlink:href="#CMMI12-110"/>
      <use transform="translate(688.896998 -14.943915)scale(0.697382)" xlink:href="#CMMI12-58"/>
      <use transform="translate(708.363063 0)scale(0.996264)" xlink:href="#CMR17-41"/>
     </g>
    </g>
   </g>
   <g id="line2d_57">
    <path clip-path="url(#pad847183f3)" d="M 93.593043 388.84285 
L 93.593043 388.315575 
L 93.740218 388.315575 
L 93.740218 387.7883 
L 94.402376 387.7883 
L 94.402376 387.261025 
L 94.771404 387.261025 
L 94.771404 386.73375 
L 95.853366 386.73375 
L 95.853366 386.206475 
L 96.167698 386.206475 
L 96.167698 385.6792 
L 96.326527 385.6792 
L 96.326527 385.151925 
L 96.627708 385.151925 
L 96.627708 384.62465 
L 96.77342 384.62465 
L 96.77342 384.097375 
L 98.411693 384.097375 
L 98.411693 383.5701 
L 98.653958 383.5701 
L 98.653958 383.042825 
L 99.181896 383.042825 
L 99.181896 382.51555 
L 99.311485 382.51555 
L 99.311485 381.988275 
L 99.428909 381.988275 
L 99.428909 381.461 
L 99.720657 381.461 
L 99.720657 380.933725 
L 100.94578 380.933725 
L 100.94578 380.40645 
L 101.447003 380.40645 
L 101.447003 379.879175 
L 102.566971 379.879175 
L 102.566971 379.3519 
L 103.059563 379.3519 
L 103.059563 378.824625 
L 103.496747 378.824625 
L 103.496747 378.29735 
L 104.052755 378.29735 
L 104.052755 377.770075 
L 104.642095 377.770075 
L 104.642095 377.2428 
L 105.354128 377.2428 
L 105.354128 376.715525 
L 106.054958 376.715525 
L 106.054958 376.18825 
L 106.422999 376.18825 
L 106.422999 375.660975 
L 106.556332 375.660975 
L 106.556332 375.1337 
L 106.796334 375.1337 
L 106.796334 374.606425 
L 107.471881 374.606425 
L 107.471881 374.07915 
L 107.635786 374.07915 
L 107.635786 373.551875 
L 108.366174 373.551875 
L 108.366174 373.0246 
L 108.80187 373.0246 
L 108.80187 372.497325 
L 109.294057 372.497325 
L 109.294057 371.97005 
L 109.951981 371.97005 
L 109.976415 370.9155 
L 110.966708 370.9155 
L 111.011223 369.86095 
L 111.861846 369.86095 
L 111.861846 369.333675 
L 112.047891 369.333675 
L 112.047891 368.8064 
L 112.560236 368.8064 
L 112.560236 368.279125 
L 112.997428 368.279125 
L 112.997428 367.75185 
L 113.139607 367.75185 
L 113.158818 366.6973 
L 113.848644 366.6973 
L 113.848644 366.170025 
L 114.142452 366.170025 
L 114.142452 365.64275 
L 114.843288 365.64275 
L 114.843288 365.115476 
L 117.148004 365.115476 
L 117.148004 364.588201 
L 118.004469 364.588201 
L 118.004469 364.060926 
L 118.134799 364.060926 
L 118.16746 363.006376 
L 118.271004 363.006376 
L 118.271004 362.479101 
L 119.190199 362.479101 
L 119.210844 361.424551 
L 119.305159 361.424551 
L 119.383291 360.370001 
L 119.923364 360.370001 
L 119.997853 359.315451 
L 120.910312 359.315451 
L 120.910312 358.788176 
L 121.304939 358.788176 
L 121.304939 358.260901 
L 121.714356 358.260901 
L 121.714356 357.733626 
L 121.997676 357.733626 
L 121.997676 357.206351 
L 122.587995 357.206351 
L 122.587995 356.679076 
L 122.741692 356.679076 
L 122.767431 355.624526 
L 122.922114 355.624526 
L 122.922114 355.097251 
L 123.487844 355.097251 
L 123.487844 354.569976 
L 124.030129 354.569976 
L 124.137155 353.515426 
L 124.144688 353.515426 
L 124.144688 352.988151 
L 125.268872 352.988151 
L 125.334497 351.406326 
L 125.840148 351.406326 
L 125.840148 350.879051 
L 126.912852 350.879051 
L 126.926336 349.824501 
L 127.291944 349.824501 
L 127.291944 349.297226 
L 127.670286 349.297226 
L 127.670286 348.769951 
L 127.861053 348.769951 
L 127.878278 347.715401 
L 128.631381 347.715401 
L 128.631381 347.188126 
L 129.221568 347.188126 
L 129.277938 346.133576 
L 129.535508 346.133576 
L 129.535508 345.606301 
L 129.810798 345.606301 
L 129.810798 345.079026 
L 130.39791 345.079026 
L 130.39791 344.551751 
L 131.877428 344.551751 
L 131.877428 344.024476 
L 132.214319 344.024476 
L 132.214319 343.497201 
L 132.614502 343.497201 
L 132.614502 342.969926 
L 132.929884 342.969926 
L 133.029373 341.915376 
L 133.665719 341.915376 
L 133.665719 341.388101 
L 134.129247 341.388101 
L 134.129247 340.860826 
L 135.037787 340.860826 
L 135.039016 339.806276 
L 135.430067 339.806276 
L 135.430067 339.279001 
L 136.114862 339.279001 
L 136.114862 338.751726 
L 136.361635 338.751726 
L 136.361635 338.224451 
L 136.697732 338.224451 
L 136.697732 337.697176 
L 136.948458 337.697176 
L 136.948458 337.169901 
L 137.16584 337.169901 
L 137.273148 335.588076 
L 137.723324 335.588076 
L 137.723324 335.060801 
L 137.867648 335.060801 
L 137.867648 334.533526 
L 138.102212 334.533526 
L 138.102212 334.006251 
L 138.927156 334.006251 
L 138.927156 333.478976 
L 139.467852 333.478976 
L 139.550308 331.897151 
L 140.699395 331.897151 
L 140.737801 330.842601 
L 141.079769 330.842601 
L 141.079769 330.315326 
L 141.601725 330.315326 
L 141.70957 329.260776 
L 143.008497 329.260776 
L 143.008497 328.733501 
L 144.380265 328.733501 
L 144.380265 328.206226 
L 144.952034 328.206226 
L 144.952034 327.678951 
L 145.846004 327.678951 
L 145.846004 327.151676 
L 146.618056 327.151676 
L 146.618056 326.624401 
L 146.873828 326.624401 
L 146.908756 325.569851 
L 147.102396 325.569851 
L 147.102396 325.042576 
L 147.508661 325.042576 
L 147.508661 324.515301 
L 149.988407 324.515301 
L 149.988407 323.988026 
L 150.347291 323.988026 
L 150.347291 323.460751 
L 150.521074 323.460751 
L 150.521074 322.933476 
L 150.704111 322.933476 
L 150.704111 322.406201 
L 151.385324 322.406201 
L 151.385324 321.878926 
L 151.74817 321.878926 
L 151.74817 321.351651 
L 151.878577 321.351651 
L 151.878577 320.824376 
L 152.467735 320.824376 
L 152.469336 319.769826 
L 153.319775 319.769826 
L 153.319775 319.242551 
L 153.564032 319.242551 
L 153.564032 318.715276 
L 154.435748 318.715276 
L 154.435748 318.188001 
L 155.334764 318.188001 
L 155.417287 316.606177 
L 155.991862 316.606177 
L 156.0951 315.551627 
L 156.576798 315.551627 
L 156.576798 315.024352 
L 156.850051 315.024352 
L 156.850051 314.497077 
L 157.274657 314.497077 
L 157.274657 313.969802 
L 159.401435 313.969802 
L 159.401435 313.442527 
L 160.470438 313.442527 
L 160.470438 312.915252 
L 160.583451 312.915252 
L 160.618772 311.860702 
L 161.212953 311.860702 
L 161.212953 311.333427 
L 161.862725 311.333427 
L 161.862725 310.806152 
L 162.244093 310.806152 
L 162.244093 310.278877 
L 163.124818 310.278877 
L 163.124818 309.751602 
L 163.396059 309.751602 
L 163.396059 309.224327 
L 163.55065 309.224327 
L 163.55065 308.697052 
L 164.379463 308.697052 
L 164.379463 308.169777 
L 165.260946 308.169777 
L 165.260946 307.642502 
L 165.54169 307.642502 
L 165.54169 307.115227 
L 165.922387 307.115227 
L 165.922387 306.587952 
L 167.034822 306.587952 
L 167.034822 306.060677 
L 167.390257 306.060677 
L 167.390257 305.533402 
L 168.594908 305.533402 
L 168.705553 304.478852 
L 169.619333 304.478852 
L 169.721964 303.424302 
L 170.241269 303.424302 
L 170.241269 302.897027 
L 170.415419 302.897027 
L 170.415419 302.369752 
L 170.69468 302.369752 
L 170.69468 301.842477 
L 171.379271 301.842477 
L 171.426179 300.260652 
L 171.697675 300.260652 
L 171.781673 299.206102 
L 171.92848 299.206102 
L 171.92848 298.678827 
L 172.385728 298.678827 
L 172.385728 298.151552 
L 173.111452 298.151552 
L 173.111452 297.624277 
L 173.401824 297.624277 
L 173.401824 297.097002 
L 174.002487 297.097002 
L 174.002487 296.569727 
L 174.527342 296.569727 
L 174.527342 296.042452 
L 175.489564 296.042452 
L 175.489564 295.515177 
L 175.822301 295.515177 
L 175.822301 294.987902 
L 176.836346 294.987902 
L 176.909235 293.933352 
L 177.562682 293.933352 
L 177.562682 293.406077 
L 177.883431 293.406077 
L 177.911983 291.824252 
L 178.712611 291.824252 
L 178.712611 291.296977 
L 179.012742 291.296977 
L 179.083303 289.187877 
L 179.490318 289.187877 
L 179.598451 288.133327 
L 180.884996 288.133327 
L 180.884996 287.606052 
L 181.079314 287.606052 
L 181.079314 287.078777 
L 181.251082 287.078777 
L 181.251082 286.551502 
L 182.529073 286.551502 
L 182.529073 286.024227 
L 183.097962 286.024227 
L 183.097962 285.496952 
L 183.288274 285.496952 
L 183.288274 284.969677 
L 184.013876 284.969677 
L 184.013876 284.442402 
L 184.753234 284.442402 
L 184.753234 283.915127 
L 185.276362 283.915127 
L 185.276362 283.387852 
L 186.669883 283.387852 
L 186.669883 282.860577 
L 187.239209 282.860577 
L 187.239209 282.333302 
L 187.876062 282.333302 
L 187.876062 281.806027 
L 188.092457 281.806027 
L 188.092457 281.278752 
L 188.343695 281.278752 
L 188.4072 280.224202 
L 188.532808 280.224202 
L 188.532808 279.696927 
L 188.691119 279.696927 
L 188.691119 279.169652 
L 188.929335 279.169652 
L 188.947678 278.115102 
L 189.1587 278.115102 
L 189.1587 277.587827 
L 190.476589 277.587827 
L 190.476589 277.060552 
L 190.905132 277.060552 
L 190.905132 276.533277 
L 191.084878 276.533277 
L 191.084878 276.006002 
L 191.588158 276.006002 
L 191.588158 275.478727 
L 192.174987 275.478727 
L 192.174987 274.951452 
L 192.286297 274.951452 
L 192.286297 274.424177 
L 192.725733 274.424177 
L 192.725733 273.896902 
L 195.37096 273.896902 
L 195.37096 273.369627 
L 195.763783 273.369627 
L 195.763783 272.842352 
L 196.270418 272.842352 
L 196.270418 272.315077 
L 196.832065 272.315077 
L 196.930105 270.733252 
L 196.965488 270.733252 
L 196.965488 270.205977 
L 197.142427 270.205977 
L 197.142427 269.678702 
L 197.594358 269.678702 
L 197.594358 269.151428 
L 198.187953 269.151428 
L 198.187953 268.624153 
L 198.308491 268.624153 
L 198.372636 267.569603 
L 200.342144 267.569603 
L 200.342144 267.042328 
L 200.492475 267.042328 
L 200.492475 266.515053 
L 201.178548 266.515053 
L 201.178548 265.987778 
L 201.70078 265.987778 
L 201.70078 265.460503 
L 202.297912 265.460503 
L 202.297912 264.933228 
L 203.307759 264.933228 
L 203.307759 264.405953 
L 204.634677 264.405953 
L 204.634677 263.878678 
L 205.182725 263.878678 
L 205.182725 263.351403 
L 205.59667 263.351403 
L 205.59667 262.824128 
L 206.172024 262.824128 
L 206.172024 262.296853 
L 207.239219 262.296853 
L 207.239219 261.769578 
L 207.388782 261.769578 
L 207.491237 260.715028 
L 207.601369 260.715028 
L 207.601369 260.187753 
L 207.834326 260.187753 
L 207.834326 259.660478 
L 208.383318 259.660478 
L 208.383318 259.133203 
L 210.901458 259.133203 
L 210.901458 258.605928 
L 211.441889 258.605928 
L 211.544434 257.551378 
L 211.809725 257.551378 
L 211.809725 257.024103 
L 213.166967 257.024103 
L 213.166967 256.496828 
L 213.411291 256.496828 
L 213.411291 255.969553 
L 213.541717 255.969553 
L 213.541717 255.442278 
L 213.678891 255.442278 
L 213.678891 254.915003 
L 214.054758 254.915003 
L 214.054758 254.387728 
L 214.583209 254.387728 
L 214.649418 253.333178 
L 215.294744 253.333178 
L 215.294744 252.805903 
L 215.742227 252.805903 
L 215.742227 252.278628 
L 216.663696 252.278628 
L 216.663696 251.751353 
L 217.225184 251.751353 
L 217.225184 251.224078 
L 218.284776 251.224078 
L 218.284776 250.696803 
L 218.69108 250.696803 
L 218.69108 250.169528 
L 218.812347 250.169528 
L 218.812347 249.642253 
L 218.944428 249.642253 
L 218.944428 249.114978 
L 220.999169 249.114978 
L 221.091931 248.060428 
L 221.405886 248.060428 
L 221.405886 247.533153 
L 223.683296 247.533153 
L 223.683296 247.005878 
L 224.814724 247.005878 
L 224.814724 246.478603 
L 225.544885 246.478603 
L 225.544885 245.951328 
L 225.815107 245.951328 
L 225.815107 245.424053 
L 226.052019 245.424053 
L 226.080646 244.369503 
L 226.168052 244.369503 
L 226.168052 243.842228 
L 227.028786 243.842228 
L 227.038555 242.787678 
L 227.348327 242.787678 
L 227.348327 242.260403 
L 227.669412 242.260403 
L 227.669412 241.733128 
L 228.139769 241.733128 
L 228.171416 240.678578 
L 228.596025 240.678578 
L 228.596025 240.151303 
L 229.324817 240.151303 
L 229.426537 239.096753 
L 231.071607 239.096753 
L 231.071607 238.569478 
L 231.220039 238.569478 
L 231.220039 238.042203 
L 232.803726 238.042203 
L 232.803726 237.514928 
L 233.025506 237.514928 
L 233.025506 236.987653 
L 233.756305 236.987653 
L 233.798836 235.933103 
L 234.03397 235.933103 
L 234.145051 234.878553 
L 234.316122 234.878553 
L 234.316122 234.351278 
L 234.757801 234.351278 
L 234.757801 233.824003 
L 235.306634 233.824003 
L 235.306634 233.296728 
L 235.906979 233.296728 
L 235.906979 232.769453 
L 236.256125 232.769453 
L 236.256125 232.242178 
L 236.822184 232.242178 
L 236.849177 231.187628 
L 237.007182 231.187628 
L 237.007182 230.660353 
L 237.954405 230.660353 
L 237.996839 229.605803 
L 238.513175 229.605803 
L 238.513175 229.078528 
L 238.812275 229.078528 
L 238.812275 228.551253 
L 239.271285 228.551253 
L 239.271285 228.023978 
L 241.358885 228.023978 
L 241.358885 227.496703 
L 242.598712 227.496703 
L 242.616862 226.442153 
L 242.82896 226.442153 
L 242.862691 225.387603 
L 244.476461 225.387603 
L 244.476461 224.860328 
L 244.780342 224.860328 
L 244.883186 223.805778 
L 245.999424 223.805778 
L 245.999424 223.278503 
L 246.800046 223.278503 
L 246.800046 222.751228 
L 247.388695 222.751228 
L 247.388695 222.223953 
L 247.917208 222.223953 
L 247.948156 221.169404 
L 248.084981 221.169404 
L 248.084981 220.642129 
L 248.231226 220.642129 
L 248.231226 220.114854 
L 248.894504 220.114854 
L 248.894504 219.587579 
L 249.841585 219.587579 
L 249.841585 219.060304 
L 250.225687 219.060304 
L 250.225687 218.533029 
L 252.485413 218.533029 
L 252.507041 217.478479 
L 252.901474 217.478479 
L 252.901474 216.951204 
L 253.135611 216.951204 
L 253.246449 215.896654 
L 253.742857 215.896654 
L 253.742857 215.369379 
L 254.399228 215.369379 
L 254.399228 214.842104 
L 255.380359 214.842104 
L 255.380359 214.314829 
L 256.445732 214.314829 
L 256.445732 213.787554 
L 256.678055 213.787554 
L 256.678055 213.260279 
L 256.904976 213.260279 
L 256.904976 212.733004 
L 257.325899 212.733004 
L 257.325899 212.205729 
L 258.668121 212.205729 
L 258.668121 211.678454 
L 259.01367 211.678454 
L 259.01367 211.151179 
L 259.371234 211.151179 
L 259.371234 210.623904 
L 261.300616 210.623904 
L 261.309753 209.569354 
L 261.627393 209.569354 
L 261.627393 209.042079 
L 262.85188 209.042079 
L 262.85188 208.514804 
L 264.553075 208.514804 
L 264.553075 207.987529 
L 265.849935 207.987529 
L 265.849935 207.460254 
L 267.279473 207.460254 
L 267.366694 206.405704 
L 267.656951 206.405704 
L 267.656951 205.878429 
L 267.823278 205.878429 
L 267.841872 204.823879 
L 267.9924 204.823879 
L 267.9924 204.296604 
L 268.363695 204.296604 
L 268.446322 203.242054 
L 268.968281 203.242054 
L 268.968281 202.714779 
L 269.863025 202.714779 
L 269.863025 202.187504 
L 271.861427 202.187504 
L 271.861427 201.660229 
L 273.28682 201.660229 
L 273.28682 201.132954 
L 273.405311 201.132954 
L 273.405311 200.605679 
L 274.042226 200.605679 
L 274.147124 199.023854 
L 274.155126 199.023854 
L 274.155126 198.496579 
L 274.428332 198.496579 
L 274.428332 197.969304 
L 275.83369 197.969304 
L 275.83369 197.442029 
L 276.783022 197.442029 
L 276.870948 196.387479 
L 276.931739 196.387479 
L 276.931739 195.860204 
L 277.295528 195.860204 
L 277.295528 195.332929 
L 278.035816 195.332929 
L 278.035816 194.805654 
L 278.219066 194.805654 
L 278.259542 193.751104 
L 278.938362 193.751104 
L 278.938362 193.223829 
L 279.059291 193.223829 
L 279.059291 192.696554 
L 279.275795 192.696554 
L 279.275795 192.169279 
L 279.657172 192.169279 
L 279.657172 191.642004 
L 280.050064 191.642004 
L 280.050064 191.114729 
L 280.22554 191.114729 
L 280.22554 190.587454 
L 280.370904 190.587454 
L 280.370904 190.060179 
L 281.174831 190.060179 
L 281.174831 189.532904 
L 282.187474 189.532904 
L 282.187474 189.005629 
L 285.284499 189.005629 
L 285.284499 188.478354 
L 285.461056 188.478354 
L 285.461056 187.951079 
L 285.717807 187.951079 
L 285.826797 186.896529 
L 285.855746 186.896529 
L 285.855746 186.369254 
L 286.326668 186.369254 
L 286.326668 185.841979 
L 287.177851 185.841979 
L 287.177851 185.314704 
L 289.741006 185.314704 
L 289.741006 184.787429 
L 290.011582 184.787429 
L 290.044508 183.732879 
L 291.412165 183.732879 
L 291.412165 183.205604 
L 291.52971 183.205604 
L 291.52971 182.678329 
L 292.445558 182.678329 
L 292.519942 181.623779 
L 293.977116 181.623779 
L 293.977116 181.096504 
L 294.458761 181.096504 
L 294.458761 180.569229 
L 296.309298 180.569229 
L 296.309298 180.041954 
L 297.52265 180.041954 
L 297.52265 179.514679 
L 297.775437 179.514679 
L 297.775437 178.987404 
L 297.919012 178.987404 
L 297.919012 178.460129 
L 298.46681 178.460129 
L 298.46681 177.932854 
L 299.554938 177.932854 
L 299.554938 177.405579 
L 299.806504 177.405579 
L 299.806504 176.878304 
L 300.277564 176.878304 
L 300.277564 176.351029 
L 300.925657 176.351029 
L 300.925657 175.823754 
L 301.13362 175.823754 
L 301.13362 175.296479 
L 301.344091 175.296479 
L 301.344091 174.769204 
L 301.591516 174.769204 
L 301.591516 174.241929 
L 302.820748 174.241929 
L 302.820748 173.714654 
L 302.9616 173.714654 
L 302.9616 173.18738 
L 303.154604 173.18738 
L 303.154604 172.660105 
L 303.427821 172.660105 
L 303.427821 172.13283 
L 304.396484 172.13283 
L 304.396484 171.605555 
L 304.656608 171.605555 
L 304.656608 171.07828 
L 305.143763 171.07828 
L 305.143763 170.551005 
L 305.750596 170.551005 
L 305.75158 169.496455 
L 306.016 169.496455 
L 306.016 168.96918 
L 306.672029 168.96918 
L 306.672029 168.441905 
L 307.466027 168.441905 
L 307.466027 167.91463 
L 308.175526 167.91463 
L 308.175526 167.387355 
L 308.571672 167.387355 
L 308.571672 166.86008 
L 311.101876 166.86008 
L 311.101876 166.332805 
L 311.589717 166.332805 
L 311.658235 165.278255 
L 312.151397 165.278255 
L 312.159689 164.223705 
L 312.429272 164.223705 
L 312.429272 163.69643 
L 313.827224 163.69643 
L 313.827224 163.169155 
L 314.497448 163.169155 
L 314.497448 162.64188 
L 314.961843 162.64188 
L 314.961843 162.114605 
L 315.525257 162.114605 
L 315.57241 161.060055 
L 316.187785 161.060055 
L 316.260353 160.005505 
L 316.350106 160.005505 
L 316.350106 159.47823 
L 316.696002 159.47823 
L 316.696002 158.950955 
L 317.435395 158.950955 
L 317.435395 158.42368 
L 318.15138 158.42368 
L 318.15138 157.896405 
L 318.340095 157.896405 
L 318.340095 157.36913 
L 318.454258 157.36913 
L 318.454258 156.841855 
L 319.526857 156.841855 
L 319.562319 155.787305 
L 320.204537 155.787305 
L 320.204537 155.26003 
L 320.921174 155.26003 
L 320.921174 154.732755 
L 322.061541 154.732755 
L 322.110808 153.678205 
L 322.383849 153.678205 
L 322.383849 153.15093 
L 323.251174 153.15093 
L 323.251174 152.623655 
L 323.624121 152.623655 
L 323.624121 152.09638 
L 323.860495 152.09638 
L 323.860495 151.569105 
L 324.018056 151.569105 
L 324.087153 149.98728 
L 326.770657 149.98728 
L 326.770657 149.460005 
L 327.042317 149.460005 
L 327.042317 148.93273 
L 327.329785 148.93273 
L 327.329785 148.405455 
L 328.590027 148.405455 
L 328.590027 147.87818 
L 330.382584 147.87818 
L 330.382584 147.350905 
L 332.078145 147.350905 
L 332.078145 146.82363 
L 332.517727 146.82363 
L 332.517727 146.296355 
L 334.447502 146.296355 
L 334.518198 145.241805 
L 334.836016 145.241805 
L 334.836016 144.71453 
L 337.195791 144.71453 
L 337.195791 144.187255 
L 337.9145 144.187255 
L 337.9145 143.65998 
L 338.188984 143.65998 
L 338.188984 143.132705 
L 338.316802 143.132705 
L 338.316802 142.60543 
L 338.881966 142.60543 
L 338.881966 142.078155 
L 339.763683 142.078155 
L 339.819595 141.023605 
L 341.476742 141.023605 
L 341.476742 140.49633 
L 342.060115 140.49633 
L 342.060115 139.969055 
L 343.23459 139.969055 
L 343.23459 139.44178 
L 343.569604 139.44178 
L 343.569604 138.914505 
L 344.218664 138.914505 
L 344.218664 138.38723 
L 344.67271 138.38723 
L 344.67271 137.859955 
L 345.2563 137.859955 
L 345.269315 136.805405 
L 345.798042 136.805405 
L 345.798042 136.27813 
L 346.008686 136.27813 
L 346.008686 135.750855 
L 346.311943 135.750855 
L 346.311943 135.22358 
L 347.610479 135.22358 
L 347.610479 134.696305 
L 348.243688 134.696305 
L 348.243688 134.16903 
L 348.536125 134.16903 
L 348.536125 133.641755 
L 348.706434 133.641755 
L 348.7255 132.587205 
L 350.040566 132.587205 
L 350.040566 132.05993 
L 352.515063 132.05993 
L 352.515063 131.532655 
L 352.66725 131.532655 
L 352.66725 131.00538 
L 353.67125 131.00538 
L 353.67125 130.478105 
L 354.604798 130.478105 
L 354.604798 129.95083 
L 355.017083 129.95083 
L 355.026211 128.89628 
L 355.179281 128.89628 
L 355.179281 128.369005 
L 355.417975 128.369005 
L 355.417975 127.84173 
L 356.412269 127.84173 
L 356.412269 127.314455 
L 357.180978 127.314455 
L 357.180978 126.78718 
L 358.335563 126.78718 
L 358.335563 126.259905 
L 358.546366 126.259905 
L 358.546366 125.73263 
L 358.711337 125.73263 
L 358.711337 125.205356 
L 360.367943 125.205356 
L 360.367943 124.678081 
L 361.711126 124.678081 
L 361.711126 124.150806 
L 362.369378 124.150806 
L 362.369378 123.623531 
L 362.846224 123.623531 
L 362.846224 123.096256 
L 362.976595 123.096256 
L 362.976595 122.568981 
L 363.247505 122.568981 
L 363.247505 122.041706 
L 363.858826 122.041706 
L 363.858826 121.514431 
L 365.119552 121.514431 
L 365.119552 120.987156 
L 365.541396 120.987156 
L 365.541396 120.459881 
L 366.051175 120.459881 
L 366.051175 119.932606 
L 366.752186 119.932606 
L 366.752186 119.405331 
L 367.271662 119.405331 
L 367.271662 118.878056 
L 367.430841 118.878056 
L 367.430841 118.350781 
L 367.979066 118.350781 
L 367.979066 117.823506 
L 368.571905 117.823506 
L 368.571905 117.296231 
L 369.498612 117.296231 
L 369.498612 116.768956 
L 370.481774 116.768956 
L 370.481774 116.241681 
L 371.54268 116.241681 
L 371.54268 115.714406 
L 372.271473 115.714406 
L 372.271473 115.187131 
L 373.738139 115.187131 
L 373.738139 114.659856 
L 374.939881 114.659856 
L 374.939881 114.132581 
L 375.057262 114.132581 
L 375.057262 113.605306 
L 375.644585 113.605306 
L 375.644585 113.078031 
L 375.836444 113.078031 
L 375.836444 112.550756 
L 376.274975 112.550756 
L 376.274975 112.023481 
L 376.435275 112.023481 
L 376.435275 111.496206 
L 377.452969 111.496206 
L 377.452969 110.968931 
L 378.303554 110.968931 
L 378.303554 110.441656 
L 379.570361 110.441656 
L 379.639532 109.387106 
L 379.805732 109.387106 
L 379.805732 108.859831 
L 380.958011 108.859831 
L 380.958011 108.332556 
L 381.187726 108.332556 
L 381.187726 107.805281 
L 382.194475 107.805281 
L 382.194475 107.278006 
L 382.836729 107.278006 
L 382.836729 106.750731 
L 384.72062 106.750731 
L 384.72062 106.223456 
L 384.935625 106.223456 
L 384.935625 105.696181 
L 386.48956 105.696181 
L 386.48956 105.168906 
L 388.049863 105.168906 
L 388.049863 104.641631 
L 388.415846 104.641631 
L 388.415846 104.114356 
L 389.203134 104.114356 
L 389.203134 103.587081 
L 389.590567 103.587081 
L 389.590567 103.059806 
L 393.94534 103.059806 
L 393.94534 102.532531 
L 394.464466 102.532531 
L 394.464466 102.005256 
L 395.245157 102.005256 
L 395.245157 101.477981 
L 395.61844 101.477981 
L 395.61844 100.950706 
L 396.616628 100.950706 
L 396.616628 100.423431 
L 397.774455 100.423431 
L 397.774455 99.896156 
L 398.006671 99.896156 
L 398.006671 99.368881 
L 398.49886 99.368881 
L 398.49886 98.841606 
L 400.275104 98.841606 
L 400.275104 98.314331 
L 403.108671 98.314331 
L 403.108671 97.787056 
L 403.230766 97.787056 
L 403.286525 96.732506 
L 404.056901 96.732506 
L 404.056901 96.205231 
L 404.764635 96.205231 
L 404.764635 95.677956 
L 406.557249 95.677956 
L 406.606119 94.096131 
L 407.419018 94.096131 
L 407.419018 93.568856 
L 407.589847 93.568856 
L 407.589847 93.041581 
L 409.086854 93.041581 
L 409.086854 92.514306 
L 409.74442 92.514306 
L 409.74442 91.987031 
L 410.595795 91.987031 
L 410.595795 91.459756 
L 410.841065 91.459756 
L 410.871316 90.405206 
L 411.201967 90.405206 
L 411.201967 89.877931 
L 411.404338 89.877931 
L 411.404338 89.350656 
L 411.963027 89.350656 
L 412.053332 88.296106 
L 413.816894 88.296106 
L 413.816894 87.768831 
L 414.427297 87.768831 
L 414.427297 87.241556 
L 414.889314 87.241556 
L 414.889314 86.714281 
L 416.803276 86.714281 
L 416.803276 86.187006 
L 417.103443 86.187006 
L 417.103443 85.659731 
L 417.568004 85.659731 
L 417.568004 85.132456 
L 419.866135 85.132456 
L 419.866135 84.605181 
L 420.061325 84.605181 
L 420.061325 84.077906 
L 420.55513 84.077906 
L 420.55513 83.550631 
L 420.81115 83.550631 
L 420.81115 83.023356 
L 421.913843 83.023356 
L 421.913843 82.496081 
L 422.154269 82.496081 
L 422.154269 81.968806 
L 422.569453 81.968806 
L 422.569453 81.441531 
L 423.429171 81.441531 
L 423.429171 80.914256 
L 424.962111 80.914256 
L 424.962111 80.386981 
L 426.068495 80.386981 
L 426.068495 79.859706 
L 426.475408 79.859706 
L 426.475408 79.332431 
L 426.825818 79.332431 
L 426.825818 78.805156 
L 430.431962 78.805156 
L 430.431962 78.277881 
L 430.967954 78.277881 
L 430.967954 77.750606 
L 432.063787 77.750606 
L 432.063787 77.223332 
L 433.235879 77.223332 
L 433.235879 76.696057 
L 433.502037 76.696057 
L 433.502037 76.168782 
L 433.79084 76.168782 
L 433.79084 75.641507 
L 434.474233 75.641507 
L 434.474233 75.114232 
L 437.880462 75.114232 
L 437.898331 74.059682 
L 438.318118 74.059682 
L 438.318118 73.532407 
L 438.462484 73.532407 
L 438.462484 73.005132 
L 438.664084 73.005132 
L 438.664084 72.477857 
L 440.079341 72.477857 
L 440.079341 71.950582 
L 443.359378 71.950582 
L 443.449911 70.896032 
L 443.631129 70.896032 
L 443.631129 70.368757 
L 444.402181 70.368757 
L 444.402181 69.841482 
L 445.426832 69.841482 
L 445.426832 69.314207 
L 449.086793 69.314207 
L 449.086793 68.786932 
L 451.10897 68.786932 
L 451.10897 68.259657 
L 452.839542 68.259657 
L 452.839542 67.732382 
L 453.335584 67.732382 
L 453.335584 67.205107 
L 454.46242 67.205107 
L 454.46242 66.677832 
L 457.172511 66.677832 
L 457.172511 66.150557 
L 459.063695 66.150557 
L 459.063695 65.623282 
L 461.250666 65.623282 
L 461.250666 65.096007 
L 461.696625 65.096007 
L 461.696625 64.568732 
L 464.186193 64.568732 
L 464.186193 64.041457 
L 465.589901 64.041457 
L 465.589901 63.514182 
L 478.172862 63.514182 
L 478.172862 62.986907 
L 479.072124 62.986907 
L 479.072124 62.459632 
L 485.727395 62.459632 
L 485.727395 61.932357 
L 488.430731 61.932357 
L 488.430731 61.405082 
L 488.720693 61.405082 
L 488.720693 60.877807 
L 489.337994 60.877807 
L 489.337994 60.350532 
L 491.110494 60.350532 
L 491.110494 59.823257 
L 491.408505 59.823257 
L 491.408505 59.295982 
L 500.912781 59.295982 
L 500.912781 58.768707 
L 501.25578 58.768707 
L 501.25578 58.241432 
L 502.775381 58.241432 
L 502.775381 57.714157 
L 506.250821 57.714157 
L 506.250821 57.186882 
L 509.104962 57.186882 
L 509.104962 56.659607 
L 509.361625 56.659607 
L 509.361625 56.132332 
L 514.751964 56.132332 
L 514.751964 55.605057 
L 515.455335 55.605057 
L 515.455335 55.077782 
L 516.718227 55.077782 
L 516.718227 54.550507 
L 538.252079 54.550507 
L 538.252079 54.023232 
L 541.83332 54.023232 
L 541.83332 53.495957 
L 544.641409 53.495957 
L 544.641409 52.968682 
L 551.195873 52.968682 
L 551.195873 52.441407 
L 565.172456 52.441407 
L 565.172456 51.914132 
L 641.485383 51.914132 
L 641.485383 51.914132 
" style="fill:none;stroke:#008fd5;stroke-linecap:round;stroke-width:4;"/>
   </g>
   <g id="line2d_58">
    <defs>
     <path d="M 0 3 
C 0.795609 3 1.55874 2.683901 2.12132 2.12132 
C 2.683901 1.55874 3 0.795609 3 0 
C 3 -0.795609 2.683901 -1.55874 2.12132 -2.12132 
C 1.55874 -2.683901 0.795609 -3 0 -3 
C -0.795609 -3 -1.55874 -2.683901 -2.12132 -2.12132 
C -2.683901 -1.55874 -3 -0.795609 -3 0 
C -3 0.795609 -2.683901 1.55874 -2.12132 2.12132 
C -1.55874 2.683901 -0.795609 3 0 3 
z
" id="m83c2995576" style="stroke:#fc4f30;"/>
    </defs>
    <g clip-path="url(#pad847183f3)">
     <use style="fill:#fc4f30;stroke:#fc4f30;" x="248.563831" xlink:href="#m83c2995576" y="220.642129"/>
    </g>
   </g>
   <g id="patch_3">
    <path d="M 66.198426 405.689286 
L 66.198426 35.067696 
" style="fill:none;stroke:#262626;stroke-linecap:square;stroke-linejoin:miter;stroke-width:1.25;"/>
   </g>
   <g id="patch_4">
    <path d="M 668.88 405.689286 
L 668.88 35.067696 
" style="fill:none;stroke:#262626;stroke-linecap:square;stroke-linejoin:miter;stroke-width:1.25;"/>
   </g>
   <g id="patch_5">
    <path d="M 66.198426 405.689286 
L 668.88 405.689286 
" style="fill:none;stroke:#262626;stroke-linecap:square;stroke-linejoin:miter;stroke-width:1.25;"/>
   </g>
   <g id="patch_6">
    <path d="M 66.198426 35.067696 
L 668.88 35.067696 
" style="fill:none;stroke:#262626;stroke-linecap:square;stroke-linejoin:miter;stroke-width:1.25;"/>
   </g>
   <g id="patch_7">
    <path d="M 190.121044 190.844745 
Q 197.58164 220.050146 246.0022 220.623746 
" style="fill:none;stroke:#000000;stroke-linecap:round;stroke-width:0.5;"/>
    <path d="M 240.038157 217.552884 
L 246.0022 220.623746 
L 239.967084 223.552463 
" style="fill:none;stroke:#000000;stroke-linecap:round;stroke-width:0.5;"/>
   </g>
   <g id="text_13">
    <!-- (3.130E-06, 0.5) -->
    <g style="fill:#262626;" transform="translate(138.49213 183.160539)scale(0.15 -0.15)">
     <defs>
      <path d="M 15.703125 32.1875 
L 22.5 32.1875 
C 31.90625 32.1875 34.59375 23.9375 34.59375 18.1875 
C 34.59375 10.34375 30.203125 4.1875 23 4.1875 
C 17.40625 4.1875 9.5 7.015625 5 14.46875 
C 4.296875 10.9375 4.296875 10.734375 3.90625 8.328125 
C 8.59375 1.390625 16.203125 -2 23.203125 -2 
C 34.59375 -2 43 7.515625 43 18.09375 
C 43 26.046875 37.5 32.6875 30 35.1875 
C 36 38.484375 40.40625 44.6875 40.40625 51.890625 
C 40.40625 60.296875 32.703125 67 23.296875 67 
C 14.703125 67 8 61.6875 5.203125 55.984375 
C 5.90625 54.984375 7.703125 52.09375 8.59375 50.59375 
C 10.796875 56.484375 16.5 60.890625 23.203125 60.890625 
C 28.796875 60.890625 32.5 57.1875 32.5 51.890625 
C 32.5 46.390625 29 40.390625 23.09375 39 
C 22.703125 39 16.5 38.390625 15.703125 38.296875 
z
" id="CMSS17-51"/>
      <path d="M 17 8 
L 9 8 
L 9 0 
L 17 0 
z
" id="CMSS17-46"/>
      <path d="M 28.40625 67 
L 26.5 67 
C 21.09375 61.703125 14.796875 60.96875 8.40625 60.796875 
L 8.40625 55 
C 11.296875 55.09375 16 55.296875 20.703125 57.390625 
L 20.703125 5.796875 
L 8.90625 5.796875 
L 8.90625 0 
L 40.203125 0 
L 40.203125 5.796875 
L 28.40625 5.796875 
z
" id="CMSS17-49"/>
      <path d="M 43.09375 32.390625 
C 43.09375 38.109375 43 48.75 38.90625 56.984375 
C 34.796875 64.890625 28.203125 67 23.5 67 
C 16.703125 67 10.90625 62.984375 7.90625 56.578125 
C 4.703125 49.859375 3.796875 42.9375 3.796875 32.390625 
C 3.796875 25.171875 4.09375 16.34375 7.703125 8.609375 
C 11.796875 0.09375 18.703125 -2 23.40625 -2 
C 29.59375 -2 35.59375 1.296875 39 8.203125 
C 42.5 15.4375 43.09375 23.359375 43.09375 32.390625 
z
M 23.40625 4.09375 
C 15.796875 4.09375 13.5 12.828125 12.796875 15.734375 
C 11.59375 20.75 11.40625 25.5625 11.40625 33.5 
C 11.40625 39.71875 11.40625 46.75 13.296875 52.265625 
C 15.59375 58.6875 19.59375 60.890625 23.40625 60.890625 
C 30.796875 60.890625 33.203125 53.46875 34 50.859375 
C 35.5 45.546875 35.5 39.3125 35.5 33.5 
C 35.5 24.15625 35.5 4.09375 23.40625 4.09375 
z
" id="CMSS17-48"/>
      <path d="M 30.59375 6.796875 
C 22.59375 6.796875 19 6.796875 17.203125 6.6875 
L 17.203125 32.890625 
L 48.203125 32.890625 
L 48.203125 39 
L 17.203125 39 
L 17.203125 62.390625 
L 30.09375 62.390625 
C 31.296875 62.390625 32.5 62.296875 33.703125 62.296875 
L 50.796875 62.296875 
L 50.796875 68.796875 
L 8.796875 68.796875 
L 8.796875 0 
L 52.09375 0 
L 52.09375 6.890625 
z
" id="CMSS17-69"/>
      <path d="M 26 19 
L 26 24.796875 
L 1 24.796875 
L 1 19 
z
" id="CMSS17-45"/>
      <path d="M 39 64.984375 
C 34.796875 66.6875 31.796875 67 29 67 
C 16 67 3.90625 53.25 3.90625 31.609375 
C 3.90625 4.1875 15.40625 -2 23.59375 -2 
C 28.09375 -2 32.59375 -0.609375 36.90625 4.390625 
C 41.296875 9.671875 43 14.0625 43 21.75 
C 43 34.109375 36.90625 45.09375 27.796875 45.09375 
C 21.203125 45.09375 15.5 41.59375 12 37.203125 
C 13 51.40625 19.59375 60.890625 29.09375 60.890625 
C 31.703125 60.890625 35.09375 60.484375 39 58.75 
z
M 12.09375 21.4375 
C 12.09375 22.234375 12.09375 22.734375 12.203125 24.234375 
C 12.203125 32.015625 16.703125 39 24 39 
C 28.703125 39 31.09375 36.5 32.90625 33.40625 
C 35 29.515625 35.09375 25.828125 35.09375 21.75 
C 35.09375 17.859375 35.09375 13.96875 32.796875 9.96875 
C 30.90625 6.890625 28.40625 4.1875 23.59375 4.1875 
C 14.09375 4.1875 12.5 17.453125 12.09375 21.4375 
z
" id="CMSS17-54"/>
      <path d="M 14.59375 59.59375 
L 39.09375 59.59375 
L 39.09375 66 
L 7.296875 66 
L 7.296875 28.59375 
L 14 28.59375 
C 15.796875 32.859375 19.5 36 24.296875 36 
C 28.796875 36 33.796875 31.9375 33.796875 20.296875 
C 33.796875 7.84375 26.703125 4.1875 21.5 4.1875 
C 15.09375 4.1875 9.203125 8.140625 6.59375 13.609375 
L 3.40625 7.9375 
C 8 0.796875 15.5 -2 21.5 -2 
C 33.09375 -2 42.203125 7.9375 42.203125 20.09375 
C 42.203125 32.546875 34.09375 42.09375 24.40625 42.09375 
C 20.90625 42.09375 17.5 40.890625 14.59375 38.5 
z
" id="CMSS17-53"/>
     </defs>
     <use transform="scale(0.996264)" xlink:href="#CMSS17-40"/>
     <use transform="translate(36.433914 0)scale(0.996264)" xlink:href="#CMSS17-51"/>
     <use transform="translate(83.277538 0)scale(0.996264)" xlink:href="#CMSS17-46"/>
     <use transform="translate(109.301743 0)scale(0.996264)" xlink:href="#CMSS17-49"/>
     <use transform="translate(156.145366 0)scale(0.996264)" xlink:href="#CMSS17-51"/>
     <use transform="translate(202.98899 0)scale(0.996264)" xlink:href="#CMSS17-48"/>
     <use transform="translate(249.832613 0)scale(0.996264)" xlink:href="#CMSS17-69"/>
     <use transform="translate(305.724626 0)scale(0.996264)" xlink:href="#CMSS17-45"/>
     <use transform="translate(336.953739 0)scale(0.996264)" xlink:href="#CMSS17-48"/>
     <use transform="translate(383.797363 0)scale(0.996264)" xlink:href="#CMSS17-54"/>
     <use transform="translate(430.640986 0)scale(0.996264)" xlink:href="#CMSS17-44"/>
     <use transform="translate(487.894304 0)scale(0.996264)" xlink:href="#CMSS17-48"/>
     <use transform="translate(534.737927 0)scale(0.996264)" xlink:href="#CMSS17-46"/>
     <use transform="translate(560.762132 0)scale(0.996264)" xlink:href="#CMSS17-53"/>
     <use transform="translate(607.605756 0)scale(0.996264)" xlink:href="#CMSS17-41"/>
    </g>
   </g>
   <g id="text_14">
    <!-- ECDF of Fluence above FERMI limit -->
    <g style="fill:#262626;" transform="translate(221.997683 29.067696)scale(0.2016 -0.2016)">
     <defs>
      <path d="M 54.703125 11.015625 
C 48 6.5 44.90625 5.1875 36.796875 5.1875 
C 22.796875 5.1875 14.59375 20.375 14.59375 34.234375 
C 14.59375 49.015625 23 63.59375 37.203125 63.59375 
C 43.59375 63.59375 47.796875 61.78125 52.90625 58.5625 
L 54.296875 66.484375 
C 49.5 68.890625 43.40625 70 37.296875 70 
C 18.09375 70 6.203125 52.234375 6.203125 34.234375 
C 6.203125 14.4375 20.296875 -1.203125 36.296875 -1.203125 
C 44.90625 -1.203125 47.90625 -0.5 55.296875 4.1875 
z
" id="CMSS17-67"/>
      <path d="M 8.90625 69 
L 8.90625 0 
L 33.5 0 
C 49.90625 0 62.5 15.328125 62.5 33.890625 
C 62.5 53.0625 49.90625 69 33.5 69 
z
M 17.09375 5.59375 
L 17.09375 63.390625 
L 31.296875 63.390625 
C 44.703125 63.390625 54.296875 51.171875 54.296875 33.890625 
C 54.296875 17.3125 44.796875 5.59375 31.296875 5.59375 
z
" id="CMSS17-68"/>
      <path d="M 44.203125 21.1875 
C 44.203125 33.984375 34.703125 44 23.5 44 
C 12 44 2.703125 33.6875 2.703125 21.1875 
C 2.703125 8.5 12.296875 -1 23.40625 -1 
C 34.796875 -1 44.203125 8.796875 44.203125 21.1875 
z
M 23.5 5.296875 
C 16.40625 5.296875 10.296875 11.09375 10.296875 21.984375 
C 10.296875 33.59375 17.40625 37.890625 23.40625 37.890625 
C 29.90625 37.890625 36.59375 33.1875 36.59375 21.984375 
C 36.59375 10.6875 30.09375 5.296875 23.5 5.296875 
z
" id="CMSS17-111"/>
      <path d="M 16.796875 37.1875 
L 26.90625 37.1875 
L 26.90625 43 
L 16.59375 43 
L 16.59375 55.671875 
C 16.59375 62.703125 22 63.890625 25.09375 63.890625 
C 26.09375 63.890625 28.90625 63.890625 32.5 62.609375 
L 32.5 69.1875 
C 30.203125 69.6875 27.40625 70 25.203125 70 
C 15.90625 70 9.40625 62.40625 9.40625 52.59375 
L 9.40625 43 
L 2.5 43 
L 2.5 37.1875 
L 9.40625 37.1875 
L 9.40625 0 
L 16.796875 0 
z
" id="CMSS17-102"/>
      <path d="M 37.59375 27.953125 
C 37.59375 37.484375 30.90625 44 21.90625 44 
C 17.5 44 12.703125 43.1875 7.203125 39.984375 
L 7.796875 33.328125 
C 10.296875 35.15625 14.59375 38.09375 21.796875 38.09375 
C 26.90625 38.09375 30 34.140625 30 27.84375 
L 30 24 
C 14 23.5 4 18.890625 4 11.109375 
C 4 7.0625 6.5 -1 14.796875 -1 
C 16.296875 -1 24.40625 -0.8125 30.203125 3.5 
L 30.203125 -0.203125 
L 37.59375 -0.203125 
z
M 30 12.875 
C 30 11.109375 30 8.734375 27 6.96875 
C 24.40625 5.296875 21.09375 5.09375 19.703125 5.09375 
C 14.703125 5.09375 11.296875 7.859375 11.296875 11.296875 
C 11.296875 18.203125 26.90625 18.890625 30 19 
z
" id="CMSS17-97"/>
      <path d="M 14.90625 69 
L 7.5 69 
L 7.5 -0.203125 
L 15.09375 -0.203125 
L 15.09375 4.296875 
C 18.90625 0.59375 23.5 -1 27.59375 -1 
C 37.203125 -1 45 8.734375 45 21.59375 
C 45 33.328125 39 44 30.09375 44 
C 23.796875 44 18.203125 41.390625 14.90625 38.6875 
z
M 15.09375 32.734375 
C 17.296875 35.5625 20.40625 37.890625 24.796875 37.890625 
C 30.703125 37.890625 37.40625 33.53125 37.40625 21.59375 
C 37.40625 8.84375 29.40625 5.09375 23.90625 5.09375 
C 21.90625 5.09375 19.796875 5.59375 17.796875 7.3125 
C 15.09375 9.75 15.09375 11.265625 15.09375 12.6875 
z
" id="CMSS17-98"/>
      <path d="M 41.796875 43 
L 34 43 
L 27.296875 24.296875 
C 25.203125 18.1875 22.203125 9.796875 21.703125 5.5 
L 21.59375 5.5 
C 21.40625 7.296875 20.59375 9.890625 20.09375 11.6875 
C 19.5 13.890625 18.703125 16.5 18.09375 18.296875 
L 9.296875 43 
L 1.296875 43 
L 17.09375 0 
L 26 0 
z
" id="CMSS17-118"/>
      <path d="M 39.40625 32.796875 
L 39.59375 32.890625 
C 55.203125 38.28125 55.296875 48.828125 55.296875 50.6875 
C 55.296875 59.96875 45.703125 69 31.296875 69 
L 8.90625 69 
L 8.90625 0 
L 17.09375 0 
L 17.09375 31.890625 
L 31.796875 31.890625 
L 49.5 0 
L 57.90625 0 
z
M 17.09375 38 
L 17.09375 63.390625 
L 30.203125 63.390625 
C 42.90625 63.390625 47.40625 56.359375 47.40625 50.6875 
C 47.40625 45.421875 43.40625 38 30.203125 38 
z
" id="CMSS17-82"/>
      <path d="M 49.90625 37.078125 
L 45.09375 23.0625 
C 44.296875 20.484375 41.59375 12.421875 41 9.25 
L 40.90625 9.25 
C 40.59375 11.234375 40 13.328125 38.40625 18.390625 
C 37.5 21.375 36.5 24.453125 35.5 27.234375 
L 20.703125 69 
L 9 69 
L 9 0 
L 16.796875 0 
L 16.796875 60.921875 
L 16.90625 60.921875 
C 16.90625 60.828125 17.796875 56.453125 23.90625 39.0625 
L 37.09375 1.59375 
L 44.5 1.59375 
L 56.40625 34.890625 
C 57.203125 37.171875 59.703125 44.421875 60.796875 47.90625 
C 61.796875 50.890625 64.296875 58.25 64.90625 61.125 
L 65 61.125 
L 65 0 
L 72.90625 0 
L 72.90625 69 
L 61.296875 69 
z
" id="CMSS17-77"/>
      <path d="M 17.09375 69 
L 8.703125 69 
L 8.703125 0 
L 17.09375 0 
z
" id="CMSS17-73"/>
      <path d="M 15.296875 66 
L 6.90625 66 
L 6.90625 57.59375 
L 15.296875 57.59375 
z
M 14.796875 43 
L 7.40625 43 
L 7.40625 0 
L 14.796875 0 
z
" id="CMSS17-105"/>
      <path d="M 16.703125 37.1875 
L 29.703125 37.1875 
L 29.703125 43 
L 16.703125 43 
L 16.703125 55 
L 9.59375 55 
L 9.59375 43 
L 1.703125 43 
L 1.703125 37.1875 
L 9.40625 37.1875 
L 9.40625 11.734375 
C 9.40625 6 10.703125 -1 17.296875 -1 
C 22.296875 -1 26.90625 0.390625 31.296875 2.6875 
L 29.703125 8.609375 
C 27.296875 6.5 24.40625 5.296875 21.296875 5.296875 
C 16.90625 5.296875 16.703125 10.921875 16.703125 13.4375 
z
" id="CMSS17-116"/>
     </defs>
     <use transform="scale(0.996264)" xlink:href="#CMSS17-69"/>
     <use transform="translate(55.892013 0)scale(0.996264)" xlink:href="#CMSS17-67"/>
     <use transform="translate(115.747785 0)scale(0.996264)" xlink:href="#CMSS17-68"/>
     <use transform="translate(183.290626 0)scale(0.996264)" xlink:href="#CMSS17-70"/>
     <use transform="translate(267.809299 0)scale(0.996264)" xlink:href="#CMSS17-111"/>
     <use transform="translate(314.652922 0)scale(0.996264)" xlink:href="#CMSS17-102"/>
     <use transform="translate(374.508694 0)scale(0.996264)" xlink:href="#CMSS17-70"/>
     <use transform="translate(427.798253 0)scale(0.996264)" xlink:href="#CMSS17-108"/>
     <use transform="translate(449.978976 0)scale(0.996264)" xlink:href="#CMSS17-117"/>
     <use transform="translate(498.183919 0)scale(0.996264)" xlink:href="#CMSS17-101"/>
     <use transform="translate(539.822741 0)scale(0.996264)" xlink:href="#CMSS17-110"/>
     <use transform="translate(588.027684 0)scale(0.996264)" xlink:href="#CMSS17-99"/>
     <use transform="translate(629.666506 0)scale(0.996264)" xlink:href="#CMSS17-101"/>
     <use transform="translate(702.534441 0)scale(0.996264)" xlink:href="#CMSS17-97"/>
     <use transform="translate(747.456362 0)scale(0.996264)" xlink:href="#CMSS17-98"/>
     <use transform="translate(798.263744 0)scale(0.996264)" xlink:href="#CMSS17-111"/>
     <use transform="translate(845.107367 0)scale(0.996264)" xlink:href="#CMSS17-118"/>
     <use transform="translate(888.107509 0)scale(0.996264)" xlink:href="#CMSS17-101"/>
     <use transform="translate(960.975444 0)scale(0.996264)" xlink:href="#CMSS17-70"/>
     <use transform="translate(1014.265003 0)scale(0.996264)" xlink:href="#CMSS17-69"/>
     <use transform="translate(1070.157016 0)scale(0.996264)" xlink:href="#CMSS17-82"/>
     <use transform="translate(1130.573171 0)scale(0.996264)" xlink:href="#CMSS17-77"/>
     <use transform="translate(1212.249201 0)scale(0.996264)" xlink:href="#CMSS17-73"/>
     <use transform="translate(1269.262239 0)scale(0.996264)" xlink:href="#CMSS17-108"/>
     <use transform="translate(1291.442962 0)scale(0.996264)" xlink:href="#CMSS17-105"/>
     <use transform="translate(1313.623685 0)scale(0.996264)" xlink:href="#CMSS17-109"/>
     <use transform="translate(1387.85294 0)scale(0.996264)" xlink:href="#CMSS17-105"/>
     <use transform="translate(1410.033663 0)scale(0.996264)" xlink:href="#CMSS17-116"/>
    </g>
   </g>
  </g>
 </g>
 <defs>
  <clipPath id="pad847183f3">
   <rect height="370.62159" width="602.681574" x="66.198426" y="35.067696"/>
  </clipPath>
 </defs>
</svg>
