<?xml version="1.0" encoding="utf-8" standalone="no"?>
<!DOCTYPE svg PUBLIC "-//W3C//DTD SVG 1.1//EN"
  "http://www.w3.org/Graphics/SVG/1.1/DTD/svg11.dtd">
<!-- Created with matplotlib (https://matplotlib.org/) -->
<svg height="465.12pt" version="1.1" viewBox="0 0 585.36 465.12" width="585.36pt" xmlns="http://www.w3.org/2000/svg" xmlns:xlink="http://www.w3.org/1999/xlink">
 <metadata>
  <rdf:RDF xmlns:cc="http://creativecommons.org/ns#" xmlns:dc="http://purl.org/dc/elements/1.1/" xmlns:rdf="http://www.w3.org/1999/02/22-rdf-syntax-ns#">
   <cc:Work>
    <dc:type rdf:resource="http://purl.org/dc/dcmitype/StillImage"/>
    <dc:date>2021-06-08T19:03:18.970175</dc:date>
    <dc:format>image/svg+xml</dc:format>
    <dc:creator>
     <cc:Agent>
      <dc:title>Matplotlib v3.3.2, https://matplotlib.org/</dc:title>
     </cc:Agent>
    </dc:creator>
   </cc:Work>
  </rdf:RDF>
 </metadata>
 <defs>
  <style type="text/css">*{stroke-linecap:butt;stroke-linejoin:round;}</style>
 </defs>
 <g id="figure_1">
  <g id="patch_1">
   <path d="M 0 465.12 
L 585.36 465.12 
L 585.36 0 
L 0 0 
z
" style="fill:#f0f0f0;"/>
  </g>
  <g id="axes_1">
   <g id="patch_2">
    <path d="M 66.198426 405.689286 
L 570.24 405.689286 
L 570.24 35.067696 
L 66.198426 35.067696 
z
" style="fill:#ffffff;"/>
   </g>
   <g id="matplotlib.axis_1">
    <g id="xtick_1">
     <g id="line2d_1">
      <path clip-path="url(#p639582bda5)" d="M 161.625378 405.689286 
L 161.625378 35.067696 
" style="fill:none;stroke:#cccccc;stroke-linecap:round;"/>
     </g>
     <g id="line2d_2">
      <defs>
       <path d="M 0 0 
L 0 6 
" id="me57358c11c" style="stroke:#262626;stroke-width:0.8;"/>
      </defs>
      <g>
       <use style="fill:#262626;stroke:#262626;stroke-width:0.8;" x="161.625378" xlink:href="#me57358c11c" y="405.689286"/>
      </g>
     </g>
     <g id="text_1">
      <!-- $\mathdefault{10^{-6}}$ -->
      <g style="fill:#262626;" transform="translate(148.385979 424.875162)scale(0.14 -0.14)">
       <defs>
        <path d="M 26.59375 63.796875 
C 26.59375 65.890625 26.5 66 25.09375 66 
C 21.203125 61.359375 15.296875 59.890625 9.703125 59.6875 
C 9.40625 59.6875 8.90625 59.6875 8.796875 59.5 
C 8.703125 59.296875 8.703125 59.09375 8.703125 57 
C 11.796875 57 17 57.59375 21 59.984375 
L 21 7.296875 
C 21 3.796875 20.796875 2.59375 12.203125 2.59375 
L 9.203125 2.59375 
L 9.203125 0 
C 14 0.09375 19 0.1875 23.796875 0.1875 
C 28.59375 0.1875 33.59375 0.09375 38.40625 0 
L 38.40625 2.59375 
L 35.40625 2.59375 
C 26.796875 2.59375 26.59375 3.6875 26.59375 7.296875 
z
" id="CMR17-49"/>
        <path d="M 42 31.84375 
C 42 37.96875 41.90625 48.421875 37.703125 56.453125 
C 34 63.484375 28.09375 66 22.90625 66 
C 18.09375 66 12 63.78125 8.203125 56.5625 
C 4.203125 49.015625 3.796875 39.671875 3.796875 31.84375 
C 3.796875 26.109375 3.90625 17.375 7 9.734375 
C 11.296875 -0.609375 19 -2 22.90625 -2 
C 27.5 -2 34.5 -0.109375 38.59375 9.4375 
C 41.59375 16.375 42 24.5 42 31.84375 
z
M 22.90625 -0.40625 
C 16.5 -0.40625 12.703125 5.125 11.296875 12.75 
C 10.203125 18.6875 10.203125 27.328125 10.203125 32.953125 
C 10.203125 40.6875 10.203125 47.109375 11.5 53.234375 
C 13.40625 61.78125 19 64.390625 22.90625 64.390625 
C 27 64.390625 32.296875 61.671875 34.203125 53.4375 
C 35.5 47.71875 35.59375 40.984375 35.59375 32.953125 
C 35.59375 26.421875 35.59375 18.375 34.40625 12.453125 
C 32.296875 1.5 26.40625 -0.40625 22.90625 -0.40625 
z
" id="CMR17-48"/>
        <path d="M 65.90625 23 
C 67.59375 23 69.40625 23 69.40625 25 
C 69.40625 27 67.59375 27 65.90625 27 
L 11.796875 27 
C 10.09375 27 8.296875 27 8.296875 25 
C 8.296875 23 10.09375 23 11.796875 23 
z
" id="CMSY10-0"/>
        <path d="M 10.59375 34.34375 
C 10.59375 58 21.796875 63.6875 28.296875 63.6875 
C 30.40625 63.6875 35.5 63.265625 37.5 59.09375 
C 35.90625 59.09375 32.90625 59.09375 32.90625 55.59375 
C 32.90625 52.890625 35.09375 52 36.5 52 
C 37.40625 52 40.09375 52.390625 40.09375 55.796875 
C 40.09375 62.296875 35.09375 66 28.203125 66 
C 16.296875 66 3.796875 53.296875 3.796875 31.421875 
C 3.796875 4.015625 15.09375 -2 23.09375 -2 
C 32.796875 -2 42 6.734375 42 20.234375 
C 42 32.828125 33.90625 42 23.703125 42 
C 17.59375 42 13.09375 37.96875 10.59375 30.921875 
z
M 23.09375 0.390625 
C 10.796875 0.390625 10.796875 18.9375 10.796875 22.65625 
C 10.796875 29.90625 14.203125 40.390625 23.5 40.390625 
C 25.203125 40.390625 30.09375 40.390625 33.40625 33.4375 
C 35.203125 29.515625 35.203125 25.375 35.203125 20.34375 
C 35.203125 14.90625 35.203125 10.875 33.09375 6.84375 
C 30.90625 2.703125 27.703125 0.390625 23.09375 0.390625 
z
" id="CMR17-54"/>
       </defs>
       <use transform="scale(0.996264)" xlink:href="#CMR17-49"/>
       <use transform="translate(45.690477 0)scale(0.996264)" xlink:href="#CMR17-48"/>
       <use transform="translate(91.380954 36.153639)scale(0.697382)" xlink:href="#CMSY10-0"/>
       <use transform="translate(145.621947 36.153639)scale(0.697382)" xlink:href="#CMR17-54"/>
      </g>
     </g>
    </g>
    <g id="xtick_2">
     <g id="line2d_3">
      <path clip-path="url(#p639582bda5)" d="M 265.573576 405.689286 
L 265.573576 35.067696 
" style="fill:none;stroke:#cccccc;stroke-linecap:round;"/>
     </g>
     <g id="line2d_4">
      <g>
       <use style="fill:#262626;stroke:#262626;stroke-width:0.8;" x="265.573576" xlink:href="#me57358c11c" y="405.689286"/>
      </g>
     </g>
     <g id="text_2">
      <!-- $\mathdefault{10^{-5}}$ -->
      <g style="fill:#262626;" transform="translate(252.334176 424.875162)scale(0.14 -0.14)">
       <defs>
        <path d="M 11.40625 58.59375 
C 12.40625 58.1875 16.5 56.890625 20.703125 56.890625 
C 30 56.890625 35.09375 61.890625 38 64.6875 
C 38 65.484375 38 66 37.40625 66 
C 37.296875 66 37.09375 66 36.296875 65.59375 
C 32.796875 64.09375 28.703125 63 23.703125 63 
C 20.703125 63 16.203125 63.359375 11.296875 65.484375 
C 10.203125 66 10 66 9.90625 66 
C 9.40625 66 9.296875 65.890625 9.296875 63.90625 
L 9.296875 34.859375 
C 9.296875 33.015625 9.296875 32.5 10.296875 32.5 
C 10.796875 32.5 11 32.703125 11.5 33.421875 
C 14.703125 38.046875 19.09375 40 24.09375 40 
C 27.59375 40 35.09375 37.734375 35.09375 20.203125 
C 35.09375 16.984375 35.09375 11.1875 32.09375 6.59375 
C 29.59375 2.484375 25.703125 0.390625 21.40625 0.390625 
C 14.796875 0.390625 8.09375 4.984375 6.296875 12.6875 
C 6.703125 12.59375 7.5 12.390625 7.90625 12.390625 
C 9.203125 12.390625 11.703125 13.09375 11.703125 16.1875 
C 11.703125 18.890625 9.796875 20 7.90625 20 
C 5.59375 20 4.09375 18.59375 4.09375 15.796875 
C 4.09375 7.09375 11 -2 21.59375 -2 
C 31.90625 -2 41.703125 6.890625 41.703125 19.796875 
C 41.703125 32.09375 33.90625 41.59375 24.203125 41.59375 
C 19.09375 41.59375 14.796875 39.6875 11.40625 36 
z
" id="CMR17-53"/>
       </defs>
       <use transform="scale(0.996264)" xlink:href="#CMR17-49"/>
       <use transform="translate(45.690477 0)scale(0.996264)" xlink:href="#CMR17-48"/>
       <use transform="translate(91.380954 36.153639)scale(0.697382)" xlink:href="#CMSY10-0"/>
       <use transform="translate(145.621947 36.153639)scale(0.697382)" xlink:href="#CMR17-53"/>
      </g>
     </g>
    </g>
    <g id="xtick_3">
     <g id="line2d_5">
      <path clip-path="url(#p639582bda5)" d="M 369.521773 405.689286 
L 369.521773 35.067696 
" style="fill:none;stroke:#cccccc;stroke-linecap:round;"/>
     </g>
     <g id="line2d_6">
      <g>
       <use style="fill:#262626;stroke:#262626;stroke-width:0.8;" x="369.521773" xlink:href="#me57358c11c" y="405.689286"/>
      </g>
     </g>
     <g id="text_3">
      <!-- $\mathdefault{10^{-4}}$ -->
      <g style="fill:#262626;" transform="translate(356.282374 424.875162)scale(0.14 -0.14)">
       <defs>
        <path d="M 33.59375 64.796875 
C 33.59375 66.890625 33.5 67 31.703125 67 
L 2 19.59375 
L 2 17 
L 27.796875 17 
L 27.796875 7.1875 
C 27.796875 3.59375 27.59375 2.59375 20.59375 2.59375 
L 18.703125 2.59375 
L 18.703125 0 
C 21.90625 0.1875 27.296875 0.1875 30.703125 0.1875 
C 34.09375 0.1875 39.5 0.1875 42.703125 0 
L 42.703125 2.59375 
L 40.796875 2.59375 
C 33.796875 2.59375 33.59375 3.59375 33.59375 7.1875 
L 33.59375 17 
L 43.796875 17 
L 43.796875 19.59375 
L 33.59375 19.59375 
z
M 28.09375 58.171875 
L 28.09375 19.59375 
L 4 19.59375 
z
" id="CMR17-52"/>
       </defs>
       <use transform="scale(0.996264)" xlink:href="#CMR17-49"/>
       <use transform="translate(45.690477 0)scale(0.996264)" xlink:href="#CMR17-48"/>
       <use transform="translate(91.380954 36.153639)scale(0.697382)" xlink:href="#CMSY10-0"/>
       <use transform="translate(145.621947 36.153639)scale(0.697382)" xlink:href="#CMR17-52"/>
      </g>
     </g>
    </g>
    <g id="xtick_4">
     <g id="line2d_7">
      <path clip-path="url(#p639582bda5)" d="M 473.469971 405.689286 
L 473.469971 35.067696 
" style="fill:none;stroke:#cccccc;stroke-linecap:round;"/>
     </g>
     <g id="line2d_8">
      <g>
       <use style="fill:#262626;stroke:#262626;stroke-width:0.8;" x="473.469971" xlink:href="#me57358c11c" y="405.689286"/>
      </g>
     </g>
     <g id="text_4">
      <!-- $\mathdefault{10^{-3}}$ -->
      <g style="fill:#262626;" transform="translate(460.230571 424.875162)scale(0.14 -0.14)">
       <defs>
        <path d="M 22.09375 34 
C 31 34 34.90625 26.140625 34.90625 17.09375 
C 34.90625 5.03125 28.5 0.390625 22.703125 0.390625 
C 17.40625 0.390625 8.796875 3.015625 6.09375 10.796875 
C 6.59375 10.59375 7.09375 10.59375 7.59375 10.59375 
C 10 10.59375 11.796875 12.1875 11.796875 14.796875 
C 11.796875 17.6875 9.59375 19 7.59375 19 
C 5.90625 19 3.296875 18.1875 3.296875 14.484375 
C 3.296875 5.234375 12.296875 -2 22.90625 -2 
C 34 -2 42.5 6.75 42.5 16.984375 
C 42.5 26.84375 34.5 34 25 35.09375 
C 32.59375 36.671875 39.90625 43.375 39.90625 52.390625 
C 39.90625 60.25 32 66 23 66 
C 13.90625 66 5.90625 60.34375 5.90625 52.296875 
C 5.90625 48.796875 8.5 48.1875 9.796875 48.1875 
C 11.90625 48.1875 13.703125 49.484375 13.703125 52.09375 
C 13.703125 54.6875 11.90625 56 9.796875 56 
C 9.40625 56 8.90625 56 8.5 55.796875 
C 11.40625 62.484375 19.296875 63.6875 22.796875 63.6875 
C 26.296875 63.6875 32.90625 61.96875 32.90625 52.296875 
C 32.90625 49.484375 32.5 44.546875 29.09375 40.21875 
C 26.09375 36.390625 22.703125 36.1875 19.40625 35.890625 
C 18.90625 35.890625 16.59375 35.6875 16.203125 35.6875 
C 15.5 35.59375 15.09375 35.5 15.09375 34.796875 
C 15.09375 34.09375 15.203125 34 17.203125 34 
z
" id="CMR17-51"/>
       </defs>
       <use transform="scale(0.996264)" xlink:href="#CMR17-49"/>
       <use transform="translate(45.690477 0)scale(0.996264)" xlink:href="#CMR17-48"/>
       <use transform="translate(91.380954 36.153639)scale(0.697382)" xlink:href="#CMSY10-0"/>
       <use transform="translate(145.621947 36.153639)scale(0.697382)" xlink:href="#CMR17-51"/>
      </g>
     </g>
    </g>
    <g id="xtick_5">
     <g id="line2d_9">
      <defs>
       <path d="M 0 0 
L 0 3 
" id="m85ab87dba1" style="stroke:#262626;stroke-width:0.6;"/>
      </defs>
      <g>
       <use style="fill:#262626;stroke:#262626;stroke-width:0.6;" x="88.968706" xlink:href="#m85ab87dba1" y="405.689286"/>
      </g>
     </g>
    </g>
    <g id="xtick_6">
     <g id="line2d_10">
      <g>
       <use style="fill:#262626;stroke:#262626;stroke-width:0.6;" x="107.273075" xlink:href="#m85ab87dba1" y="405.689286"/>
      </g>
     </g>
    </g>
    <g id="xtick_7">
     <g id="line2d_11">
      <g>
       <use style="fill:#262626;stroke:#262626;stroke-width:0.6;" x="120.260232" xlink:href="#m85ab87dba1" y="405.689286"/>
      </g>
     </g>
    </g>
    <g id="xtick_8">
     <g id="line2d_12">
      <g>
       <use style="fill:#262626;stroke:#262626;stroke-width:0.6;" x="130.333853" xlink:href="#m85ab87dba1" y="405.689286"/>
      </g>
     </g>
    </g>
    <g id="xtick_9">
     <g id="line2d_13">
      <g>
       <use style="fill:#262626;stroke:#262626;stroke-width:0.6;" x="138.564601" xlink:href="#m85ab87dba1" y="405.689286"/>
      </g>
     </g>
    </g>
    <g id="xtick_10">
     <g id="line2d_14">
      <g>
       <use style="fill:#262626;stroke:#262626;stroke-width:0.6;" x="145.523599" xlink:href="#m85ab87dba1" y="405.689286"/>
      </g>
     </g>
    </g>
    <g id="xtick_11">
     <g id="line2d_15">
      <g>
       <use style="fill:#262626;stroke:#262626;stroke-width:0.6;" x="151.551757" xlink:href="#m85ab87dba1" y="405.689286"/>
      </g>
     </g>
    </g>
    <g id="xtick_12">
     <g id="line2d_16">
      <g>
       <use style="fill:#262626;stroke:#262626;stroke-width:0.6;" x="156.86897" xlink:href="#m85ab87dba1" y="405.689286"/>
      </g>
     </g>
    </g>
    <g id="xtick_13">
     <g id="line2d_17">
      <g>
       <use style="fill:#262626;stroke:#262626;stroke-width:0.6;" x="192.916904" xlink:href="#m85ab87dba1" y="405.689286"/>
      </g>
     </g>
    </g>
    <g id="xtick_14">
     <g id="line2d_18">
      <g>
       <use style="fill:#262626;stroke:#262626;stroke-width:0.6;" x="211.221273" xlink:href="#m85ab87dba1" y="405.689286"/>
      </g>
     </g>
    </g>
    <g id="xtick_15">
     <g id="line2d_19">
      <g>
       <use style="fill:#262626;stroke:#262626;stroke-width:0.6;" x="224.208429" xlink:href="#m85ab87dba1" y="405.689286"/>
      </g>
     </g>
    </g>
    <g id="xtick_16">
     <g id="line2d_20">
      <g>
       <use style="fill:#262626;stroke:#262626;stroke-width:0.6;" x="234.28205" xlink:href="#m85ab87dba1" y="405.689286"/>
      </g>
     </g>
    </g>
    <g id="xtick_17">
     <g id="line2d_21">
      <g>
       <use style="fill:#262626;stroke:#262626;stroke-width:0.6;" x="242.512798" xlink:href="#m85ab87dba1" y="405.689286"/>
      </g>
     </g>
    </g>
    <g id="xtick_18">
     <g id="line2d_22">
      <g>
       <use style="fill:#262626;stroke:#262626;stroke-width:0.6;" x="249.471796" xlink:href="#m85ab87dba1" y="405.689286"/>
      </g>
     </g>
    </g>
    <g id="xtick_19">
     <g id="line2d_23">
      <g>
       <use style="fill:#262626;stroke:#262626;stroke-width:0.6;" x="255.499955" xlink:href="#m85ab87dba1" y="405.689286"/>
      </g>
     </g>
    </g>
    <g id="xtick_20">
     <g id="line2d_24">
      <g>
       <use style="fill:#262626;stroke:#262626;stroke-width:0.6;" x="260.817167" xlink:href="#m85ab87dba1" y="405.689286"/>
      </g>
     </g>
    </g>
    <g id="xtick_21">
     <g id="line2d_25">
      <g>
       <use style="fill:#262626;stroke:#262626;stroke-width:0.6;" x="296.865101" xlink:href="#m85ab87dba1" y="405.689286"/>
      </g>
     </g>
    </g>
    <g id="xtick_22">
     <g id="line2d_26">
      <g>
       <use style="fill:#262626;stroke:#262626;stroke-width:0.6;" x="315.16947" xlink:href="#m85ab87dba1" y="405.689286"/>
      </g>
     </g>
    </g>
    <g id="xtick_23">
     <g id="line2d_27">
      <g>
       <use style="fill:#262626;stroke:#262626;stroke-width:0.6;" x="328.156627" xlink:href="#m85ab87dba1" y="405.689286"/>
      </g>
     </g>
    </g>
    <g id="xtick_24">
     <g id="line2d_28">
      <g>
       <use style="fill:#262626;stroke:#262626;stroke-width:0.6;" x="338.230248" xlink:href="#m85ab87dba1" y="405.689286"/>
      </g>
     </g>
    </g>
    <g id="xtick_25">
     <g id="line2d_29">
      <g>
       <use style="fill:#262626;stroke:#262626;stroke-width:0.6;" x="346.460996" xlink:href="#m85ab87dba1" y="405.689286"/>
      </g>
     </g>
    </g>
    <g id="xtick_26">
     <g id="line2d_30">
      <g>
       <use style="fill:#262626;stroke:#262626;stroke-width:0.6;" x="353.419994" xlink:href="#m85ab87dba1" y="405.689286"/>
      </g>
     </g>
    </g>
    <g id="xtick_27">
     <g id="line2d_31">
      <g>
       <use style="fill:#262626;stroke:#262626;stroke-width:0.6;" x="359.448152" xlink:href="#m85ab87dba1" y="405.689286"/>
      </g>
     </g>
    </g>
    <g id="xtick_28">
     <g id="line2d_32">
      <g>
       <use style="fill:#262626;stroke:#262626;stroke-width:0.6;" x="364.765365" xlink:href="#m85ab87dba1" y="405.689286"/>
      </g>
     </g>
    </g>
    <g id="xtick_29">
     <g id="line2d_33">
      <g>
       <use style="fill:#262626;stroke:#262626;stroke-width:0.6;" x="400.813299" xlink:href="#m85ab87dba1" y="405.689286"/>
      </g>
     </g>
    </g>
    <g id="xtick_30">
     <g id="line2d_34">
      <g>
       <use style="fill:#262626;stroke:#262626;stroke-width:0.6;" x="419.117668" xlink:href="#m85ab87dba1" y="405.689286"/>
      </g>
     </g>
    </g>
    <g id="xtick_31">
     <g id="line2d_35">
      <g>
       <use style="fill:#262626;stroke:#262626;stroke-width:0.6;" x="432.104824" xlink:href="#m85ab87dba1" y="405.689286"/>
      </g>
     </g>
    </g>
    <g id="xtick_32">
     <g id="line2d_36">
      <g>
       <use style="fill:#262626;stroke:#262626;stroke-width:0.6;" x="442.178445" xlink:href="#m85ab87dba1" y="405.689286"/>
      </g>
     </g>
    </g>
    <g id="xtick_33">
     <g id="line2d_37">
      <g>
       <use style="fill:#262626;stroke:#262626;stroke-width:0.6;" x="450.409193" xlink:href="#m85ab87dba1" y="405.689286"/>
      </g>
     </g>
    </g>
    <g id="xtick_34">
     <g id="line2d_38">
      <g>
       <use style="fill:#262626;stroke:#262626;stroke-width:0.6;" x="457.368191" xlink:href="#m85ab87dba1" y="405.689286"/>
      </g>
     </g>
    </g>
    <g id="xtick_35">
     <g id="line2d_39">
      <g>
       <use style="fill:#262626;stroke:#262626;stroke-width:0.6;" x="463.39635" xlink:href="#m85ab87dba1" y="405.689286"/>
      </g>
     </g>
    </g>
    <g id="xtick_36">
     <g id="line2d_40">
      <g>
       <use style="fill:#262626;stroke:#262626;stroke-width:0.6;" x="468.713562" xlink:href="#m85ab87dba1" y="405.689286"/>
      </g>
     </g>
    </g>
    <g id="xtick_37">
     <g id="line2d_41">
      <g>
       <use style="fill:#262626;stroke:#262626;stroke-width:0.6;" x="504.761496" xlink:href="#m85ab87dba1" y="405.689286"/>
      </g>
     </g>
    </g>
    <g id="xtick_38">
     <g id="line2d_42">
      <g>
       <use style="fill:#262626;stroke:#262626;stroke-width:0.6;" x="523.065865" xlink:href="#m85ab87dba1" y="405.689286"/>
      </g>
     </g>
    </g>
    <g id="xtick_39">
     <g id="line2d_43">
      <g>
       <use style="fill:#262626;stroke:#262626;stroke-width:0.6;" x="536.053022" xlink:href="#m85ab87dba1" y="405.689286"/>
      </g>
     </g>
    </g>
    <g id="xtick_40">
     <g id="line2d_44">
      <g>
       <use style="fill:#262626;stroke:#262626;stroke-width:0.6;" x="546.126643" xlink:href="#m85ab87dba1" y="405.689286"/>
      </g>
     </g>
    </g>
    <g id="xtick_41">
     <g id="line2d_45">
      <g>
       <use style="fill:#262626;stroke:#262626;stroke-width:0.6;" x="554.357391" xlink:href="#m85ab87dba1" y="405.689286"/>
      </g>
     </g>
    </g>
    <g id="xtick_42">
     <g id="line2d_46">
      <g>
       <use style="fill:#262626;stroke:#262626;stroke-width:0.6;" x="561.316389" xlink:href="#m85ab87dba1" y="405.689286"/>
      </g>
     </g>
    </g>
    <g id="xtick_43">
     <g id="line2d_47">
      <g>
       <use style="fill:#262626;stroke:#262626;stroke-width:0.6;" x="567.344547" xlink:href="#m85ab87dba1" y="405.689286"/>
      </g>
     </g>
    </g>
    <g id="text_5">
     <!-- Fluence, $\mathcal{F}_\gamma$ (erg/cm$^2$) -->
     <g style="fill:#262626;" transform="translate(240.649952 445.211317)scale(0.168 -0.168)">
      <defs>
       <path d="M 45.59375 31 
L 45.59375 37.09375 
L 17.203125 37.09375 
L 17.203125 62.390625 
L 29.40625 62.390625 
C 30.59375 62.390625 31.796875 62.296875 33 62.296875 
L 49.5 62.296875 
L 49.5 68.796875 
L 8.796875 68.796875 
L 8.796875 0 
L 17.203125 0 
L 17.203125 31 
z
" id="CMSS17-70"/>
       <path d="M 14.796875 69 
L 7.40625 69 
L 7.40625 0 
L 14.796875 0 
z
" id="CMSS17-108"/>
       <path d="M 40.90625 43 
L 33.296875 43 
L 33.296875 15.25 
C 33.296875 7.8125 27.90625 4.796875 22.203125 4.796875 
C 15.59375 4.796875 15 7 15 11.125 
L 15 43 
L 7.40625 43 
L 7.40625 10.625 
C 7.40625 2.796875 10.09375 -1 17 -1 
C 20.40625 -1 28.09375 -0.203125 33.5 4.796875 
L 33.5 -0.203125 
L 40.90625 -0.203125 
z
" id="CMSS17-117"/>
       <path d="M 39.09375 21.484375 
C 39.09375 24.796875 38.90625 31.265625 35.703125 36.671875 
C 32.203125 42.390625 26.5 44 22.203125 44 
C 11.796875 44 3 34.125 3 21.296875 
C 3 9.046875 12.09375 -1 23.59375 -1 
C 28.09375 -1 33.59375 0.296875 38.59375 3.890625 
C 38.59375 4.296875 38.40625 6.46875 38.296875 6.578125 
C 38.296875 6.765625 38 9.828125 38 10.234375 
C 33.203125 6.375 27.703125 5.09375 23.703125 5.09375 
C 17.296875 5.09375 10.40625 10.421875 10.09375 21.484375 
z
M 10.90625 27 
C 12.203125 32.59375 16.59375 37.890625 22.203125 37.890625 
C 23.703125 37.890625 30.703125 37.6875 32.5 27 
z
" id="CMSS17-101"/>
       <path d="M 40.90625 29.34375 
C 40.90625 35.671875 39.40625 44 28.09375 44 
C 21.703125 44 17.5 40.6875 14.703125 37.28125 
L 14.703125 43.484375 
L 7.40625 43.484375 
L 7.40625 0 
L 15 0 
L 15 24.3125 
C 15 30.65625 17.40625 37.890625 24.203125 37.890625 
C 33 37.890625 33.296875 31.953125 33.296875 28.53125 
L 33.296875 0 
L 40.90625 0 
z
" id="CMSS17-110"/>
       <path d="M 38.5 39.6875 
C 38.5 40.390625 33.90625 42.390625 32.703125 42.796875 
C 29.40625 44 25.203125 44 24.09375 44 
C 11.09375 44 3.296875 32.6875 3.296875 21.296875 
C 3.296875 9.296875 12 -1 23.703125 -1 
C 30.40625 -1 35.203125 1.1875 39.09375 3.796875 
L 38.5 10.390625 
C 34.203125 7.09375 29.203125 5.296875 23.796875 5.296875 
C 16 5.296875 10.90625 12.09375 10.90625 21.390625 
C 10.90625 28.59375 14.203125 37.6875 24.203125 37.6875 
C 29.703125 37.6875 32.796875 36.59375 37.40625 33.484375 
z
" id="CMSS17-99"/>
       <path d="M 17 0.09375 
L 17 8 
L 9 8 
L 9 0 
L 11.5 0 
L 8.90625 -12.109375 
L 12.90625 -12.109375 
z
" id="CMSS17-44"/>
       <path d="M 83 64.09375 
C 83 68.6875 75.296875 68 72.203125 68 
L 34.5 68 
C 29.5 68 20.59375 65.09375 19 59.6875 
C 19.203125 59.09375 19.40625 58.984375 20 58.984375 
C 22.203125 58.984375 25.203125 60.796875 26.59375 62.296875 
C 29.703125 62.296875 32.703125 62.484375 35.796875 62.484375 
L 42 62.484375 
C 42 62.484375 41.59375 60.6875 41.59375 60.59375 
C 37.703125 42.296875 31.796875 26.890625 27.40625 17.375 
C 26.796875 16.109375 21.40625 3.796875 20 2.59375 
C 15.59375 2.59375 12.296875 5 10.5 8.890625 
C 10.203125 9.5 10.203125 9.890625 9.5 9.890625 
C 7.203125 9.890625 1.703125 6.6875 1.703125 5 
C 1.703125 4.796875 1.796875 4.59375 1.90625 4.390625 
C 3.703125 -0.3125 8.203125 -3 13.09375 -3 
C 18.203125 -3 24.09375 0.6875 27.296875 4.390625 
C 30.59375 8.1875 37.203125 24.171875 39.796875 30 
L 59.09375 30 
C 59 29.890625 58.90625 29.796875 58.90625 29.6875 
C 58.90625 29.3125 59.5 29.015625 59.90625 29.015625 
C 62.09375 29.015625 67.796875 31.796875 67.796875 34.890625 
C 67.796875 35.59375 67.09375 35.5 65.90625 35.5 
L 41.90625 35.5 
C 44.5 44.484375 47.90625 53.296875 49.703125 62.484375 
L 62.90625 62.484375 
C 65.40625 62.484375 72.40625 62.984375 74.203125 60.796875 
C 74.40625 60.1875 74.09375 59.1875 74.40625 58.6875 
C 74.59375 58.484375 74.90625 58.390625 75.203125 58.390625 
C 77.59375 58.390625 83 61.390625 83 64.09375 
z
" id="CMSY10-70"/>
       <path d="M 37.796875 12.265625 
C 37.59375 17.140625 37.40625 24.78125 33.59375 33.71875 
C 31.59375 38.6875 28.203125 44 20.90625 44 
C 8.59375 44 1.90625 28.359375 1.90625 25.765625 
C 1.90625 24.875 2.59375 24.875 2.90625 24.875 
C 3.796875 24.875 3.796875 25.078125 4.296875 26.375 
C 6.40625 32.515625 12.796875 37.390625 19.703125 37.390625 
C 33.59375 37.390625 35.59375 22 35.59375 12.171875 
C 35.59375 5.90625 34.90625 3.828125 34.296875 1.84375 
C 32.40625 -4.3125 29.09375 -16.625 29.09375 -19.40625 
C 29.09375 -20.203125 29.40625 -21.109375 30.203125 -21.109375 
C 31.703125 -21.109375 32.59375 -17.8125 33.703125 -13.84375 
C 36.09375 -5.109375 36.703125 -0.734375 37.203125 3.234375 
C 37.5 5.625 43.203125 22.015625 51.09375 37.609375 
C 51.796875 39.203125 53.203125 41.890625 53.203125 42.1875 
C 53.203125 42.296875 53.09375 43 52.203125 43 
C 52 43 51.5 43 51.296875 42.59375 
C 51.09375 42.390625 47.59375 35.625 44.59375 28.875 
C 43.09375 25.46875 41.09375 21 37.796875 12.265625 
z
" id="CMMI12-13"/>
       <path d="M 25.203125 75 
C 19.796875 69.484375 7.40625 56.671875 7.40625 25.046875 
C 7.40625 -6.6875 19.796875 -19.40625 25.203125 -25 
L 31.296875 -25 
C 19 -12.203125 15 5.71875 15 24.9375 
C 15 44.0625 18.796875 62.078125 31.296875 75 
z
" id="CMSS17-40"/>
       <path d="M 14.90625 21.390625 
C 14.90625 30.84375 21.796875 37.171875 30.59375 37.375 
L 30.59375 44 
C 24.203125 43.890625 18.203125 40.6875 14.59375 35.46875 
L 14.59375 43.484375 
L 7.5 43.484375 
L 7.5 0 
L 14.90625 0 
z
" id="CMSS17-114"/>
       <path d="M 44.5 44 
C 38.796875 43.890625 33.90625 42.796875 29.90625 40.890625 
C 26.59375 43.484375 23.203125 44 20.90625 44 
C 12.203125 44 5.59375 36.8125 5.59375 28.5 
C 5.59375 23.140625 8.59375 19.09375 8.796875 18.890625 
C 7 16.390625 6 13.6875 6 10.6875 
C 6 7.1875 7.40625 4.6875 8.5 3.296875 
C 3.296875 0.09375 2.59375 -4.8125 2.59375 -6.703125 
C 2.59375 -14 11.703125 -20 23.40625 -20 
C 35.203125 -20 44.296875 -14 44.296875 -6.609375 
C 44.296875 7.1875 29 7.296875 24.796875 7.296875 
L 16.703125 7.296875 
C 15.203125 7.296875 11.203125 7.296875 11.203125 12.390625 
C 11.203125 14.390625 12.09375 15.6875 12.203125 15.796875 
C 13.703125 14.6875 16.796875 13 20.90625 13 
C 29.203125 13 36.09375 19.984375 36.09375 28.5 
C 36.09375 33.25 33.90625 36.703125 33 37.890625 
L 33.296875 37.890625 
C 33.59375 37.890625 37.796875 38.1875 39.296875 38.1875 
C 42.5 38.1875 42.796875 38.09375 45.59375 37.796875 
z
M 20.90625 18.5 
C 17.5 18.5 12.703125 20.578125 12.703125 28.5 
C 12.703125 37.109375 18.203125 38.484375 20.796875 38.484375 
C 24.203125 38.484375 29 36.40625 29 28.5 
C 29 19.875 23.5 18.5 20.90625 18.5 
z
M 24.703125 0 
C 27.09375 0 37.203125 0 37.203125 -6.8125 
C 37.203125 -11.109375 31 -14.5 23.5 -14.5 
C 15.90625 -14.5 9.703125 -11.203125 9.703125 -6.703125 
C 9.703125 -6.203125 9.703125 0 16.59375 0 
z
" id="CMSS17-103"/>
       <path d="M 41.203125 71.484375 
C 41.703125 72.78125 41.703125 72.984375 41.703125 73.1875 
C 41.703125 74.390625 40.796875 75 40 75 
C 38.796875 75 38.40625 74.1875 38 72.984375 
L 5.703125 -21.5 
C 5.203125 -22.8125 5.203125 -23 5.203125 -23.203125 
C 5.203125 -24.40625 6.09375 -25 6.90625 -25 
C 8.09375 -25 8.5 -24.203125 8.90625 -23 
z
" id="CMSS17-47"/>
       <path d="M 67 29.34375 
C 67 36.078125 65.296875 44 54.09375 44 
C 46.59375 44 42.09375 39.296875 40.09375 36.375 
C 38.296875 41.6875 34.09375 44 28.09375 44 
C 21.296875 44 17 40.09375 14.703125 37.28125 
L 14.703125 43.484375 
L 7.40625 43.484375 
L 7.40625 0 
L 15 0 
L 15 24.3125 
C 15 30.25 17.203125 37.890625 24.296875 37.890625 
C 33.40625 37.890625 33.40625 31.453125 33.40625 28.53125 
L 33.40625 0 
L 41 0 
L 41 24.3125 
C 41 30.25 43.203125 37.890625 50.296875 37.890625 
C 59.40625 37.890625 59.40625 31.453125 59.40625 28.53125 
L 59.40625 0 
L 67 0 
z
" id="CMSS17-109"/>
       <path d="M 41.703125 15.46875 
L 39.90625 15.46875 
C 38.90625 8.390625 38.09375 7.1875 37.703125 6.59375 
C 37.203125 5.796875 30 5.796875 28.59375 5.796875 
L 9.40625 5.796875 
C 13 9.6875 20 16.765625 28.5 24.9375 
C 34.59375 30.71875 41.703125 37.5 41.703125 47.390625 
C 41.703125 59.1875 32.296875 66 21.796875 66 
C 10.796875 66 4.09375 56.296875 4.09375 47.296875 
C 4.09375 43.390625 7 42.890625 8.203125 42.890625 
C 9.203125 42.890625 12.203125 43.484375 12.203125 46.984375 
C 12.203125 50.09375 9.59375 51 8.203125 51 
C 7.59375 51 7 50.890625 6.59375 50.6875 
C 8.5 59.1875 14.296875 63.390625 20.40625 63.390625 
C 29.09375 63.390625 34.796875 56.5 34.796875 47.390625 
C 34.796875 38.703125 29.703125 31.21875 24 24.734375 
L 4.09375 2.296875 
L 4.09375 0 
L 39.296875 0 
z
" id="CMR17-50"/>
       <path d="M 11.296875 -25 
C 16.703125 -19.5 29.09375 -6.6875 29.09375 24.9375 
C 29.09375 56.671875 16.703125 69.375 11.296875 75 
L 5.203125 75 
C 17.5 62.171875 21.5 44.265625 21.5 25.046875 
C 21.5 5.921875 17.703125 -12.09375 5.203125 -25 
z
" id="CMSS17-41"/>
      </defs>
      <use transform="scale(0.996264)" xlink:href="#CMSS17-70"/>
      <use transform="translate(53.289559 0)scale(0.996264)" xlink:href="#CMSS17-108"/>
      <use transform="translate(75.470282 0)scale(0.996264)" xlink:href="#CMSS17-117"/>
      <use transform="translate(123.675225 0)scale(0.996264)" xlink:href="#CMSS17-101"/>
      <use transform="translate(165.314048 0)scale(0.996264)" xlink:href="#CMSS17-110"/>
      <use transform="translate(213.518991 0)scale(0.996264)" xlink:href="#CMSS17-99"/>
      <use transform="translate(255.157813 0)scale(0.996264)" xlink:href="#CMSS17-101"/>
      <use transform="translate(296.796635 0)scale(0.996264)" xlink:href="#CMSS17-44"/>
      <use transform="translate(354.049952 0)scale(0.996264)" xlink:href="#CMSY10-70"/>
      <use transform="translate(425.656231 -14.943915)scale(0.697382)" xlink:href="#CMMI12-13"/>
      <use transform="translate(496.596275 0)scale(0.996264)" xlink:href="#CMSS17-40"/>
      <use transform="translate(533.03019 0)scale(0.996264)" xlink:href="#CMSS17-101"/>
      <use transform="translate(574.669012 0)scale(0.996264)" xlink:href="#CMSS17-114"/>
      <use transform="translate(606.578784 0)scale(0.996264)" xlink:href="#CMSS17-103"/>
      <use transform="translate(653.422408 0)scale(0.996264)" xlink:href="#CMSS17-47"/>
      <use transform="translate(700.266031 0)scale(0.996264)" xlink:href="#CMSS17-99"/>
      <use transform="translate(741.904853 0)scale(0.996264)" xlink:href="#CMSS17-109"/>
      <use transform="translate(816.134108 36.153639)scale(0.697382)" xlink:href="#CMR17-50"/>
      <use transform="translate(848.615422 0)scale(0.996264)" xlink:href="#CMSS17-41"/>
     </g>
    </g>
   </g>
   <g id="matplotlib.axis_2">
    <g id="ytick_1">
     <g id="line2d_48">
      <path clip-path="url(#p639582bda5)" d="M 66.198426 389.225289 
L 570.24 389.225289 
" style="fill:none;stroke:#cccccc;stroke-linecap:round;"/>
     </g>
     <g id="line2d_49">
      <defs>
       <path d="M 0 0 
L -6 0 
" id="mb5c58ee103" style="stroke:#262626;stroke-width:0.8;"/>
      </defs>
      <g>
       <use style="fill:#262626;stroke:#262626;stroke-width:0.8;" x="66.198426" xlink:href="#mb5c58ee103" y="389.225289"/>
      </g>
     </g>
     <g id="text_6">
      <!-- $\mathdefault{0.0}$ -->
      <g style="fill:#262626;" transform="translate(39.247844 394.068227)scale(0.14 -0.14)">
       <defs>
        <path d="M 18.40625 4.796875 
C 18.40625 7.6875 16 9.6875 13.59375 9.6875 
C 10.703125 9.6875 8.703125 7.296875 8.703125 4.890625 
C 8.703125 2 11.09375 0 13.5 0 
C 16.40625 0 18.40625 2.390625 18.40625 4.796875 
z
" id="CMMI12-58"/>
       </defs>
       <use transform="scale(0.996264)" xlink:href="#CMR17-48"/>
       <use transform="translate(45.690477 0)scale(0.996264)" xlink:href="#CMMI12-58"/>
       <use transform="translate(72.787654 0)scale(0.996264)" xlink:href="#CMR17-48"/>
      </g>
     </g>
    </g>
    <g id="ytick_2">
     <g id="line2d_50">
      <path clip-path="url(#p639582bda5)" d="M 66.198426 321.763058 
L 570.24 321.763058 
" style="fill:none;stroke:#cccccc;stroke-linecap:round;"/>
     </g>
     <g id="line2d_51">
      <g>
       <use style="fill:#262626;stroke:#262626;stroke-width:0.8;" x="66.198426" xlink:href="#mb5c58ee103" y="321.763058"/>
      </g>
     </g>
     <g id="text_7">
      <!-- $\mathdefault{0.2}$ -->
      <g style="fill:#262626;" transform="translate(39.247844 326.605996)scale(0.14 -0.14)">
       <use transform="scale(0.996264)" xlink:href="#CMR17-48"/>
       <use transform="translate(45.690477 0)scale(0.996264)" xlink:href="#CMMI12-58"/>
       <use transform="translate(72.787654 0)scale(0.996264)" xlink:href="#CMR17-50"/>
      </g>
     </g>
    </g>
    <g id="ytick_3">
     <g id="line2d_52">
      <path clip-path="url(#p639582bda5)" d="M 66.198426 254.300826 
L 570.24 254.300826 
" style="fill:none;stroke:#cccccc;stroke-linecap:round;"/>
     </g>
     <g id="line2d_53">
      <g>
       <use style="fill:#262626;stroke:#262626;stroke-width:0.8;" x="66.198426" xlink:href="#mb5c58ee103" y="254.300826"/>
      </g>
     </g>
     <g id="text_8">
      <!-- $\mathdefault{0.4}$ -->
      <g style="fill:#262626;" transform="translate(39.247844 259.143764)scale(0.14 -0.14)">
       <use transform="scale(0.996264)" xlink:href="#CMR17-48"/>
       <use transform="translate(45.690477 0)scale(0.996264)" xlink:href="#CMMI12-58"/>
       <use transform="translate(72.787654 0)scale(0.996264)" xlink:href="#CMR17-52"/>
      </g>
     </g>
    </g>
    <g id="ytick_4">
     <g id="line2d_54">
      <path clip-path="url(#p639582bda5)" d="M 66.198426 186.838595 
L 570.24 186.838595 
" style="fill:none;stroke:#cccccc;stroke-linecap:round;"/>
     </g>
     <g id="line2d_55">
      <g>
       <use style="fill:#262626;stroke:#262626;stroke-width:0.8;" x="66.198426" xlink:href="#mb5c58ee103" y="186.838595"/>
      </g>
     </g>
     <g id="text_9">
      <!-- $\mathdefault{0.6}$ -->
      <g style="fill:#262626;" transform="translate(39.247844 191.681533)scale(0.14 -0.14)">
       <use transform="scale(0.996264)" xlink:href="#CMR17-48"/>
       <use transform="translate(45.690477 0)scale(0.996264)" xlink:href="#CMMI12-58"/>
       <use transform="translate(72.787654 0)scale(0.996264)" xlink:href="#CMR17-54"/>
      </g>
     </g>
    </g>
    <g id="ytick_5">
     <g id="line2d_56">
      <path clip-path="url(#p639582bda5)" d="M 66.198426 119.376363 
L 570.24 119.376363 
" style="fill:none;stroke:#cccccc;stroke-linecap:round;"/>
     </g>
     <g id="line2d_57">
      <g>
       <use style="fill:#262626;stroke:#262626;stroke-width:0.8;" x="66.198426" xlink:href="#mb5c58ee103" y="119.376363"/>
      </g>
     </g>
     <g id="text_10">
      <!-- $\mathdefault{0.8}$ -->
      <g style="fill:#262626;" transform="translate(39.247844 124.219302)scale(0.14 -0.14)">
       <defs>
        <path d="M 27.203125 35.765625 
C 33.5 38.96875 39.90625 43.796875 39.90625 51.53125 
C 39.90625 60.6875 31.09375 66 23 66 
C 13.90625 66 5.90625 59.375 5.90625 50.234375 
C 5.90625 47.71875 6.5 43.390625 10.40625 39.578125 
C 11.40625 38.578125 15.59375 35.5625 18.296875 33.65625 
C 13.796875 31.34375 3.296875 25.8125 3.296875 14.765625 
C 3.296875 4.40625 13.09375 -2 22.796875 -2 
C 33.5 -2 42.5 5.71875 42.5 15.96875 
C 42.5 25.109375 36.40625 29.328125 32.40625 32.046875 
z
M 14.09375 44.609375 
C 13.296875 45.109375 9.296875 48.21875 9.296875 52.9375 
C 9.296875 59.078125 15.59375 63.6875 22.796875 63.6875 
C 30.703125 63.6875 36.5 58.0625 36.5 51.53125 
C 36.5 42.1875 26.09375 36.859375 25.59375 36.859375 
C 25.5 36.859375 25.40625 36.859375 24.59375 37.46875 
z
M 32.5 24 
C 34 22.90625 38.796875 19.578125 38.796875 13.453125 
C 38.796875 6.015625 31.40625 0.390625 23 0.390625 
C 13.90625 0.390625 7 6.921875 7 14.859375 
C 7 22.796875 13.09375 29.4375 20 32.546875 
z
" id="CMR17-56"/>
       </defs>
       <use transform="scale(0.996264)" xlink:href="#CMR17-48"/>
       <use transform="translate(45.690477 0)scale(0.996264)" xlink:href="#CMMI12-58"/>
       <use transform="translate(72.787654 0)scale(0.996264)" xlink:href="#CMR17-56"/>
      </g>
     </g>
    </g>
    <g id="ytick_6">
     <g id="line2d_58">
      <path clip-path="url(#p639582bda5)" d="M 66.198426 51.914132 
L 570.24 51.914132 
" style="fill:none;stroke:#cccccc;stroke-linecap:round;"/>
     </g>
     <g id="line2d_59">
      <g>
       <use style="fill:#262626;stroke:#262626;stroke-width:0.8;" x="66.198426" xlink:href="#mb5c58ee103" y="51.914132"/>
      </g>
     </g>
     <g id="text_11">
      <!-- $\mathdefault{1.0}$ -->
      <g style="fill:#262626;" transform="translate(39.247844 56.75707)scale(0.14 -0.14)">
       <use transform="scale(0.996264)" xlink:href="#CMR17-49"/>
       <use transform="translate(45.690477 0)scale(0.996264)" xlink:href="#CMMI12-58"/>
       <use transform="translate(72.787654 0)scale(0.996264)" xlink:href="#CMR17-48"/>
      </g>
     </g>
    </g>
    <g id="text_12">
     <!-- $\tilde{F}(\mathcal{F}_\gamma|\mathcal{F}_\gamma&gt;\mathcal{F}_{min.})$ -->
     <g style="fill:#262626;" transform="translate(30.459161 284.354957)rotate(-90)scale(0.168 -0.168)">
      <defs>
       <path d="M 37.5 65.59375 
C 34.09375 62.296875 32.203125 60.390625 29.09375 60.390625 
C 26.90625 60.390625 25.40625 61.5 23.296875 63 
C 21.296875 64.390625 19.703125 65.59375 17.5 65.59375 
C 13.90625 65.59375 11.40625 62.6875 7.203125 58.09375 
L 8.296875 57 
C 11.703125 60.296875 13.59375 62.1875 16.703125 62.1875 
C 18.90625 62.1875 20.40625 61.09375 22.5 59.59375 
C 24.5 58.1875 26.09375 57 28.296875 57 
C 31.90625 57 34.40625 59.890625 38.59375 64.5 
z
" id="CMR17-126"/>
       <path d="M 29.703125 32.09375 
L 39.296875 32.09375 
C 46.90625 32.09375 47.5 30.421875 47.5 27.5625 
C 47.5 26.296875 47.296875 24.921875 46.796875 22.75 
C 46.59375 22.359375 46.5 21.859375 46.5 21.671875 
C 46.5 20.984375 46.90625 20.59375 47.59375 20.59375 
C 48.40625 20.59375 48.5 20.984375 48.90625 22.5625 
L 54.703125 45.765625 
C 54.703125 46.171875 54.40625 46.765625 53.703125 46.765625 
C 52.796875 46.765625 52.703125 46.375 52.296875 44.65625 
C 50.203125 37.109375 48.203125 35 39.5 35 
L 30.40625 35 
L 36.90625 61.0625 
C 37.796875 64.59375 38 64.890625 42.09375 64.890625 
L 55.5 64.890625 
C 68 64.890625 69.796875 61.171875 69.796875 54.015625 
C 69.796875 53.421875 69.796875 51.203125 69.5 48.578125 
C 69.40625 48.1875 69.203125 46.875 69.203125 46.46875 
C 69.203125 45.65625 69.703125 45.359375 70.296875 45.359375 
C 71 45.359375 71.40625 45.765625 71.59375 47.578125 
L 73.703125 65.1875 
C 73.703125 65.484375 73.90625 66.484375 73.90625 66.6875 
C 73.90625 67.796875 73 67.796875 71.203125 67.796875 
L 23.796875 67.796875 
C 21.90625 67.796875 20.90625 67.796875 20.90625 65.984375 
C 20.90625 64.890625 21.59375 64.890625 23.296875 64.890625 
C 29.5 64.890625 29.5 64.1875 29.5 63.078125 
C 29.5 62.578125 29.40625 62.171875 29.09375 61.0625 
L 15.59375 7.3125 
C 14.703125 3.875 14.5 2.890625 7.5 2.890625 
C 5.59375 2.890625 4.59375 2.890625 4.59375 1.09375 
C 4.59375 0 5.5 0 6.09375 0 
C 8 0 10 0.1875 11.90625 0.1875 
L 24.90625 0.1875 
C 27.09375 0.1875 29.5 0 31.703125 0 
C 32.59375 0 33.796875 0 33.796875 1.796875 
C 33.796875 2.890625 33.203125 2.890625 31 2.890625 
C 23.09375 2.890625 22.90625 3.578125 22.90625 5.0625 
C 22.90625 5.546875 23.09375 6.328125 23.296875 7.015625 
z
" id="CMMI12-70"/>
       <path d="M 30.59375 -24.40625 
C 30.59375 -24.3125 30.59375 -24.109375 30.296875 -23.8125 
C 25.703125 -19.109375 13.40625 -6.296875 13.40625 24.9375 
C 13.40625 56.171875 25.5 68.875 30.40625 73.890625 
C 30.40625 73.984375 30.59375 74.1875 30.59375 74.484375 
C 30.59375 74.796875 30.296875 75 29.90625 75 
C 28.796875 75 20.296875 67.578125 15.40625 56.5625 
C 10.40625 45.453125 9 34.65625 9 25.046875 
C 9 17.828125 9.703125 5.625 15.703125 -7.296875 
C 20.5 -17.703125 28.703125 -25 29.90625 -25 
C 30.40625 -25 30.59375 -24.8125 30.59375 -24.40625 
z
" id="CMR17-40"/>
       <path d="M 15.90625 71.390625 
C 15.90625 73.1875 15.90625 75 13.90625 75 
C 11.90625 75 11.90625 73.1875 11.90625 71.390625 
L 11.90625 -21.40625 
C 11.90625 -23.203125 11.90625 -25 13.90625 -25 
C 15.90625 -25 15.90625 -23.203125 15.90625 -21.40625 
z
" id="CMSY10-106"/>
       <path d="M 65.90625 22.8125 
C 67.796875 23.734375 67.90625 24.328125 67.90625 25.046875 
C 67.90625 25.640625 67.703125 26.359375 65.90625 27.15625 
L 11.796875 52.296875 
C 10.5 52.890625 10.296875 53 10.09375 53 
C 8.90625 53 8.203125 51.984375 8.203125 51.1875 
C 8.203125 49.984375 9 49.578125 10.296875 48.96875 
L 61.703125 25.046875 
L 10.203125 1.015625 
C 8.203125 0.109375 8.203125 -0.609375 8.203125 -1.203125 
C 8.203125 -2 8.90625 -3 10.09375 -3 
C 10.296875 -3 10.40625 -2.90625 11.796875 -2.3125 
z
" id="CMMI12-62"/>
       <path d="M 20.59375 29.21875 
C 20.796875 29.828125 23.296875 34.8125 27 38 
C 29.59375 40.390625 33 41.984375 36.90625 41.984375 
C 40.90625 41.984375 42.296875 39 42.296875 35.015625 
C 42.296875 34.40625 42.296875 32.421875 41.09375 27.734375 
L 38.59375 17.453125 
C 37.796875 14.453125 35.90625 7.078125 35.703125 5.984375 
C 35.296875 4.484375 34.703125 1.890625 34.703125 1.484375 
C 34.703125 0.09375 35.796875 -1 37.296875 -1 
C 40.296875 -1 40.796875 1.296875 41.703125 4.890625 
L 47.703125 28.71875 
C 47.90625 29.53125 53.09375 41.984375 64.09375 41.984375 
C 68.09375 41.984375 69.5 39 69.5 35.015625 
C 69.5 29.421875 65.59375 18.546875 63.40625 12.5625 
C 62.5 10.171875 62 8.875 62 7.078125 
C 62 2.59375 65.09375 -1 69.90625 -1 
C 79.203125 -1 82.703125 13.65625 82.703125 14.265625 
C 82.703125 14.765625 82.296875 15.15625 81.703125 15.15625 
C 80.796875 15.15625 80.703125 14.859375 80.203125 13.15625 
C 77.90625 5.1875 74.203125 1 70.203125 1 
C 69.203125 1 67.59375 1.09375 67.59375 4.28125 
C 67.59375 6.875 68.796875 10.078125 69.203125 11.171875 
C 71 15.953125 75.5 27.734375 75.5 33.515625 
C 75.5 39.5 72 44 64.40625 44 
C 57.703125 44 52.296875 40.203125 48.296875 34.3125 
C 48 39.703125 44.703125 44 37.203125 44 
C 28.296875 44 23.59375 37.703125 21.796875 35.203125 
C 21.5 40.890625 17.40625 44 13 44 
C 10.09375 44 7.796875 42.59375 5.90625 38.796875 
C 4.09375 35.203125 2.703125 29.125 2.703125 28.71875 
C 2.703125 28.328125 3.09375 27.828125 3.796875 27.828125 
C 4.59375 27.828125 4.703125 27.921875 5.296875 30.21875 
C 6.796875 36.109375 8.703125 41.984375 12.703125 41.984375 
C 15 41.984375 15.796875 40.390625 15.796875 37.40625 
C 15.796875 35.203125 14.796875 31.3125 14.09375 28.234375 
L 11.296875 17.453125 
C 10.90625 15.5625 9.796875 11.0625 9.296875 9.265625 
C 8.59375 6.671875 7.5 1.984375 7.5 1.484375 
C 7.5 0.09375 8.59375 -1 10.09375 -1 
C 11.296875 -1 12.703125 -0.40625 13.5 1.09375 
C 13.703125 1.59375 14.59375 5.078125 15.09375 7.078125 
L 17.296875 16.0625 
z
" id="CMMI12-109"/>
       <path d="M 28.296875 14.265625 
C 28.296875 14.765625 27.90625 15.15625 27.296875 15.15625 
C 26.40625 15.15625 26.296875 14.859375 25.796875 13.15625 
C 23.203125 4.078125 19.09375 1 15.796875 1 
C 14.59375 1 13.203125 1.296875 13.203125 4.28125 
C 13.203125 6.984375 14.40625 9.96875 15.5 12.96875 
L 22.5 31.515625 
C 22.796875 32.3125 23.5 34.109375 23.5 36.015625 
C 23.5 40.203125 20.5 44 15.59375 44 
C 6.40625 44 2.703125 29.53125 2.703125 28.71875 
C 2.703125 28.328125 3.09375 27.828125 3.796875 27.828125 
C 4.703125 27.828125 4.796875 28.234375 5.203125 29.625 
C 7.59375 38 11.40625 41.984375 15.296875 41.984375 
C 16.203125 41.984375 17.90625 41.890625 17.90625 38.703125 
C 17.90625 36.109375 16.59375 32.8125 15.796875 30.625 
L 8.796875 12.0625 
C 8.203125 10.46875 7.59375 8.875 7.59375 7.078125 
C 7.59375 2.59375 10.703125 -1 15.5 -1 
C 24.703125 -1 28.296875 13.5625 28.296875 14.265625 
z
M 27.5 62.6875 
C 27.5 64.1875 26.296875 66 24.09375 66 
C 21.796875 66 19.203125 63.796875 19.203125 61.1875 
C 19.203125 58.6875 21.296875 57.890625 22.5 57.890625 
C 25.203125 57.890625 27.5 60.484375 27.5 62.6875 
z
" id="CMMI12-105"/>
       <path d="M 20.59375 29.21875 
C 20.796875 29.828125 23.296875 34.8125 27 38 
C 29.59375 40.390625 33 41.984375 36.90625 41.984375 
C 40.90625 41.984375 42.296875 39 42.296875 35.015625 
C 42.296875 29.328125 38.203125 17.953125 36.203125 12.5625 
C 35.296875 10.171875 34.796875 8.875 34.796875 7.078125 
C 34.796875 2.59375 37.90625 -1 42.703125 -1 
C 52 -1 55.5 13.65625 55.5 14.265625 
C 55.5 14.765625 55.09375 15.15625 54.5 15.15625 
C 53.59375 15.15625 53.5 14.859375 53 13.15625 
C 50.703125 4.984375 46.90625 1 43 1 
C 42 1 40.40625 1.09375 40.40625 4.28125 
C 40.40625 6.78125 41.5 9.765625 42.09375 11.171875 
C 44.09375 16.65625 48.296875 27.828125 48.296875 33.515625 
C 48.296875 39.5 44.796875 44 37.203125 44 
C 28.296875 44 23.59375 37.703125 21.796875 35.203125 
C 21.5 40.890625 17.40625 44 13 44 
C 9.796875 44 7.59375 42.09375 5.90625 38.703125 
C 4.09375 35.109375 2.703125 29.125 2.703125 28.71875 
C 2.703125 28.328125 3.09375 27.828125 3.796875 27.828125 
C 4.59375 27.828125 4.703125 27.921875 5.296875 30.21875 
C 6.90625 36.3125 8.703125 41.984375 12.703125 41.984375 
C 15 41.984375 15.796875 40.390625 15.796875 37.40625 
C 15.796875 35.203125 14.796875 31.3125 14.09375 28.234375 
L 11.296875 17.453125 
C 10.90625 15.5625 9.796875 11.0625 9.296875 9.265625 
C 8.59375 6.671875 7.5 1.984375 7.5 1.484375 
C 7.5 0.09375 8.59375 -1 10.09375 -1 
C 11.296875 -1 12.703125 -0.40625 13.5 1.09375 
C 13.703125 1.59375 14.59375 5.078125 15.09375 7.078125 
L 17.296875 16.0625 
z
" id="CMMI12-110"/>
       <path d="M 26.296875 24.9375 
C 26.296875 32.140625 25.59375 44.359375 19.59375 57.265625 
C 14.796875 67.6875 6.59375 75 5.40625 75 
C 5.09375 75 4.703125 74.890625 4.703125 74.390625 
C 4.703125 74.1875 4.796875 74.09375 4.90625 73.890625 
C 9.703125 68.875 21.90625 56.171875 21.90625 25.046875 
C 21.90625 -6.1875 9.796875 -18.90625 4.90625 -23.90625 
C 4.796875 -24.109375 4.703125 -24.203125 4.703125 -24.40625 
C 4.703125 -24.90625 5.09375 -25 5.40625 -25 
C 6.5 -25 15 -17.609375 19.90625 -6.59375 
C 24.90625 4.515625 26.296875 15.328125 26.296875 24.9375 
z
" id="CMR17-41"/>
      </defs>
      <use transform="translate(23.632311 25.189733)scale(0.996264)" xlink:href="#CMR17-126"/>
      <use transform="scale(0.996264)" xlink:href="#CMMI12-70"/>
      <use transform="translate(76.696793 0)scale(0.996264)" xlink:href="#CMR17-40"/>
      <use transform="translate(111.97756 0)scale(0.996264)" xlink:href="#CMSY10-70"/>
      <use transform="translate(183.583838 -14.943915)scale(0.697382)" xlink:href="#CMMI12-13"/>
      <use transform="translate(223.29477 0)scale(0.996264)" xlink:href="#CMSY10-106"/>
      <use transform="translate(250.968855 0)scale(0.996264)" xlink:href="#CMSY10-70"/>
      <use transform="translate(322.575133 -14.943915)scale(0.697382)" xlink:href="#CMMI12-13"/>
      <use transform="translate(389.960074 0)scale(0.996264)" xlink:href="#CMMI12-62"/>
      <use transform="translate(493.506179 0)scale(0.996264)" xlink:href="#CMSY10-70"/>
      <use transform="translate(565.112457 -14.943915)scale(0.697382)" xlink:href="#CMMI12-109"/>
      <use transform="translate(624.841248 -14.943915)scale(0.697382)" xlink:href="#CMMI12-105"/>
      <use transform="translate(648.136155 -14.943915)scale(0.697382)" xlink:href="#CMMI12-110"/>
      <use transform="translate(688.896998 -14.943915)scale(0.697382)" xlink:href="#CMMI12-58"/>
      <use transform="translate(708.363063 0)scale(0.996264)" xlink:href="#CMR17-41"/>
     </g>
    </g>
   </g>
   <g id="line2d_60">
    <path clip-path="url(#p639582bda5)" d="M 89.109407 388.84285 
L 89.109407 388.460411 
L 89.269135 388.460411 
L 89.330306 387.695533 
L 89.711526 387.695533 
L 89.711526 387.313094 
L 89.884472 387.313094 
L 89.961754 386.548216 
L 90.02018 386.548216 
L 90.02018 386.165777 
L 90.689985 386.165777 
L 90.733357 385.400899 
L 90.817954 385.400899 
L 90.92869 384.253583 
L 91.016115 384.253583 
L 91.069243 383.488705 
L 91.411218 383.488705 
L 91.411218 383.106266 
L 91.613257 383.106266 
L 91.613257 382.723827 
L 92.336374 382.723827 
L 92.409792 380.811632 
L 92.699624 380.811632 
L 92.777386 380.046754 
L 92.989826 380.046754 
L 92.989826 379.664315 
L 93.111182 379.664315 
L 93.159063 378.899437 
L 93.344111 378.899437 
L 93.344111 378.516998 
L 93.495147 378.516998 
L 93.495147 378.134559 
L 93.610303 378.134559 
L 93.610303 377.75212 
L 94.054791 377.75212 
L 94.054791 377.369681 
L 94.498544 377.369681 
L 94.498544 376.987242 
L 94.705636 376.987242 
L 94.705636 376.604803 
L 95.021516 376.604803 
L 95.09857 375.839926 
L 95.163234 375.839926 
L 95.163234 375.457487 
L 95.329478 375.457487 
L 95.399485 374.31017 
L 95.55811 374.31017 
L 95.602881 373.545292 
L 95.822864 373.545292 
L 95.822864 373.162853 
L 97.030102 373.162853 
L 97.030102 372.780414 
L 97.336376 372.780414 
L 97.336376 372.397975 
L 97.578369 372.397975 
L 97.578369 372.015536 
L 97.91138 372.015536 
L 97.91138 371.633097 
L 98.375497 371.633097 
L 98.375497 371.250658 
L 99.436757 371.250658 
L 99.436757 370.868219 
L 100.111064 370.868219 
L 100.123338 370.103341 
L 100.42362 370.103341 
L 100.42362 369.720902 
L 100.761794 369.720902 
L 100.761794 369.338463 
L 101.09444 369.338463 
L 101.156814 368.573585 
L 101.329093 368.573585 
L 101.329093 368.191147 
L 101.845589 368.191147 
L 101.845589 367.808708 
L 102.11266 367.808708 
L 102.11266 367.426269 
L 102.375149 367.426269 
L 102.375149 367.04383 
L 103.060536 367.04383 
L 103.104279 365.896513 
L 103.215459 365.896513 
L 103.215459 365.514074 
L 103.361411 365.514074 
L 103.361411 365.131635 
L 103.508461 365.131635 
L 103.52898 364.366757 
L 103.664127 364.366757 
L 103.664127 363.984318 
L 103.921901 363.984318 
L 104.030986 362.454562 
L 104.107385 362.454562 
L 104.107385 362.072123 
L 104.801283 362.072123 
L 104.801283 361.689684 
L 104.958431 361.689684 
L 104.958431 361.307245 
L 105.222885 361.307245 
L 105.240691 360.542367 
L 105.638777 360.542367 
L 105.638777 360.159928 
L 105.766106 360.159928 
L 105.766106 359.77749 
L 106.170265 359.77749 
L 106.224174 359.012612 
L 106.288453 359.012612 
L 106.288453 358.630173 
L 106.690025 358.630173 
L 106.780319 357.100417 
L 106.961577 357.100417 
L 106.961577 356.717978 
L 107.450393 356.717978 
L 107.54009 355.9531 
L 107.817285 355.9531 
L 107.901892 354.423344 
L 107.963561 354.423344 
L 107.963561 354.040905 
L 108.113769 354.040905 
L 108.113769 353.658466 
L 108.284973 353.658466 
L 108.284973 353.276027 
L 108.420522 353.276027 
L 108.420522 352.893588 
L 108.545665 352.893588 
L 108.585892 352.12871 
L 109.159185 352.12871 
L 109.159185 351.746272 
L 109.75144 351.746272 
L 109.75144 351.363833 
L 110.014213 351.363833 
L 110.014213 350.981394 
L 110.249085 350.981394 
L 110.249085 350.598955 
L 110.451425 350.598955 
L 110.451425 350.216516 
L 110.655477 350.216516 
L 110.765735 348.68676 
L 111.017313 348.68676 
L 111.017313 348.304321 
L 111.463532 348.304321 
L 111.463532 347.921882 
L 111.679237 347.921882 
L 111.679237 347.539443 
L 111.847266 347.539443 
L 111.887696 346.774565 
L 112.112401 346.774565 
L 112.125148 346.009687 
L 112.302377 346.009687 
L 112.302377 345.627248 
L 112.464852 345.627248 
L 112.464852 345.244809 
L 112.600263 345.244809 
L 112.600263 344.86237 
L 113.051427 344.86237 
L 113.051427 344.479931 
L 113.201277 344.479931 
L 113.201277 344.097492 
L 113.606227 344.097492 
L 113.606227 343.715054 
L 113.739975 343.715054 
L 113.739975 343.332615 
L 113.971668 343.332615 
L 114.007184 342.567737 
L 114.158461 342.567737 
L 114.158461 342.185298 
L 114.809033 342.185298 
L 114.809033 341.802859 
L 114.951591 341.802859 
L 114.951591 341.42042 
L 115.25928 341.42042 
L 115.264106 340.655542 
L 115.588117 340.655542 
L 115.660195 339.890664 
L 115.768515 339.890664 
L 115.821646 339.125786 
L 117.076948 339.125786 
L 117.186936 337.978469 
L 117.286701 337.978469 
L 117.358927 337.213591 
L 117.522339 337.213591 
L 117.522339 336.831152 
L 117.774004 336.831152 
L 117.859555 336.066274 
L 118.056807 336.066274 
L 118.056807 335.683835 
L 118.179396 335.683835 
L 118.245385 334.918958 
L 118.344173 334.918958 
L 118.344173 334.536519 
L 118.516241 334.536519 
L 118.53066 333.771641 
L 118.862792 333.771641 
L 118.862792 333.389202 
L 119.392899 333.389202 
L 119.479531 332.241885 
L 119.62936 332.241885 
L 119.68441 331.477007 
L 119.895684 331.477007 
L 119.895684 331.094568 
L 120.013574 331.094568 
L 120.028346 330.32969 
L 120.496098 330.32969 
L 120.496098 329.947251 
L 120.808676 329.947251 
L 120.808676 329.564812 
L 121.593264 329.564812 
L 121.593264 329.182373 
L 121.743556 329.182373 
L 121.811132 328.417495 
L 121.998446 328.417495 
L 122.061622 327.652617 
L 122.677622 327.652617 
L 122.677622 327.270179 
L 122.935723 327.270179 
L 123.011362 326.505301 
L 123.623352 326.505301 
L 123.668081 325.740423 
L 123.797091 325.740423 
L 123.797091 325.357984 
L 124.373504 325.357984 
L 124.446067 324.593106 
L 124.529447 324.593106 
L 124.529447 324.210667 
L 124.67241 324.210667 
L 124.67241 323.828228 
L 124.807163 323.828228 
L 124.807163 323.445789 
L 125.45787 323.445789 
L 125.45787 323.06335 
L 125.710922 323.06335 
L 125.814891 322.298472 
L 125.877698 322.298472 
L 125.877698 321.916033 
L 126.033727 321.916033 
L 126.033727 321.533594 
L 126.48479 321.533594 
L 126.48479 321.151155 
L 127.2904 321.151155 
L 127.2904 320.768716 
L 127.673116 320.768716 
L 127.770881 320.003838 
L 128.080009 320.003838 
L 128.178688 319.23896 
L 128.412158 319.23896 
L 128.412158 318.856522 
L 129.335093 318.856522 
L 129.335093 318.474083 
L 129.506375 318.474083 
L 129.506375 318.091644 
L 129.791662 318.091644 
L 129.791662 317.709205 
L 129.940971 317.709205 
L 129.940971 317.326766 
L 130.724495 317.326766 
L 130.800276 316.179449 
L 130.838022 316.179449 
L 130.838022 315.79701 
L 131.012288 315.79701 
L 131.012288 315.414571 
L 131.146497 315.414571 
L 131.146497 315.032132 
L 131.863529 315.032132 
L 131.863529 314.649693 
L 132.926109 314.649693 
L 132.96922 313.884815 
L 133.453523 313.884815 
L 133.484923 313.119937 
L 133.623316 313.119937 
L 133.700959 312.355059 
L 134.2525 312.355059 
L 134.2525 311.97262 
L 134.815985 311.97262 
L 134.815985 311.590181 
L 134.929176 311.590181 
L 134.929176 311.207742 
L 135.086378 311.207742 
L 135.086378 310.825304 
L 135.466193 310.825304 
L 135.466193 310.442865 
L 136.109676 310.442865 
L 136.175033 309.677987 
L 136.356336 309.677987 
L 136.356336 309.295548 
L 136.499647 309.295548 
L 136.554231 308.53067 
L 137.236441 308.53067 
L 137.236441 308.148231 
L 137.660526 308.148231 
L 137.74745 307.383353 
L 138.266403 307.383353 
L 138.266403 307.000914 
L 139.207626 307.000914 
L 139.260741 306.236036 
L 139.384572 306.236036 
L 139.384572 305.853597 
L 139.576281 305.853597 
L 139.671774 305.088719 
L 139.718282 305.088719 
L 139.718282 304.70628 
L 139.8822 304.70628 
L 139.920378 303.941402 
L 140.431575 303.941402 
L 140.431575 303.558963 
L 140.655389 303.558963 
L 140.655389 303.176524 
L 141.431207 303.176524 
L 141.431207 302.794085 
L 141.560149 302.794085 
L 141.560149 302.411647 
L 142.015001 302.411647 
L 142.071613 301.646769 
L 142.357322 301.646769 
L 142.441865 300.881891 
L 142.612718 300.881891 
L 142.702491 300.117013 
L 142.733551 300.117013 
L 142.733551 299.734574 
L 142.992126 299.734574 
L 143.020145 298.969696 
L 143.597023 298.969696 
L 143.682838 298.204818 
L 143.893671 298.204818 
L 143.893671 297.822379 
L 144.168908 297.822379 
L 144.277399 297.057501 
L 144.314029 297.057501 
L 144.314029 296.675062 
L 144.630607 296.675062 
L 144.630607 296.292623 
L 145.02637 296.292623 
L 145.02637 295.910184 
L 145.714384 295.910184 
L 145.714384 295.527745 
L 146.053822 295.527745 
L 146.095121 294.762867 
L 146.547411 294.762867 
L 146.547411 294.380429 
L 147.137291 294.380429 
L 147.196658 293.615551 
L 147.787027 293.615551 
L 147.787027 293.233112 
L 147.909267 293.233112 
L 147.909267 292.850673 
L 148.135499 292.850673 
L 148.168705 291.703356 
L 148.735965 291.703356 
L 148.735965 291.320917 
L 149.138394 291.320917 
L 149.175636 290.556039 
L 150.632082 290.556039 
L 150.632082 290.1736 
L 150.87233 290.1736 
L 150.87233 289.791161 
L 151.192205 289.791161 
L 151.192205 289.408722 
L 151.328789 289.408722 
L 151.328789 289.026283 
L 151.815617 289.026283 
L 151.815617 288.643844 
L 152.042806 288.643844 
L 152.042806 288.261405 
L 152.196242 288.261405 
L 152.196242 287.878966 
L 152.962395 287.878966 
L 152.962395 287.496527 
L 153.433975 287.496527 
L 153.433975 287.114088 
L 153.717443 287.114088 
L 153.725944 286.34921 
L 153.829552 286.34921 
L 153.829552 285.966772 
L 154.635812 285.966772 
L 154.635812 285.584333 
L 155.505767 285.584333 
L 155.505767 285.201894 
L 156.371261 285.201894 
L 156.371261 284.819455 
L 156.488075 284.819455 
L 156.488075 284.437016 
L 156.694225 284.437016 
L 156.694225 284.054577 
L 157.426505 284.054577 
L 157.522234 282.90726 
L 158.008817 282.90726 
L 158.008817 282.524821 
L 158.173281 282.524821 
L 158.199707 281.759943 
L 158.516951 281.759943 
L 158.516951 281.377504 
L 158.721407 281.377504 
L 158.721407 280.995065 
L 159.134932 280.995065 
L 159.134932 280.612626 
L 159.424317 280.612626 
L 159.424317 280.230187 
L 159.692071 280.230187 
L 159.692071 279.847748 
L 160.012343 279.847748 
L 160.084273 279.08287 
L 160.335056 279.08287 
L 160.335056 278.700431 
L 160.898683 278.700431 
L 160.898683 278.317992 
L 161.035625 278.317992 
L 161.035625 277.935554 
L 161.175691 277.935554 
L 161.175691 277.553115 
L 161.384098 277.553115 
L 161.384098 277.170676 
L 162.361398 277.170676 
L 162.469042 275.64092 
L 163.343683 275.64092 
L 163.343683 275.258481 
L 163.982368 275.258481 
L 163.982368 274.876042 
L 164.387727 274.876042 
L 164.387727 274.493603 
L 164.879913 274.493603 
L 164.879913 274.111164 
L 165.179787 274.111164 
L 165.277427 273.346286 
L 165.41989 273.346286 
L 165.508612 272.581408 
L 165.729629 272.581408 
L 165.798601 271.81653 
L 165.99743 271.81653 
L 165.99743 271.434091 
L 166.455554 271.434091 
L 166.551203 270.669213 
L 166.991758 270.669213 
L 167.081581 269.139458 
L 167.120008 269.139458 
L 167.120008 268.757019 
L 168.350303 268.757019 
L 168.426943 267.992141 
L 168.900873 267.992141 
L 168.99224 267.227263 
L 169.08719 267.227263 
L 169.18989 266.462385 
L 169.566084 266.462385 
L 169.566084 266.079946 
L 169.934133 266.079946 
L 169.934133 265.697507 
L 170.160264 265.697507 
L 170.202229 264.932629 
L 170.53958 264.932629 
L 170.53958 264.55019 
L 171.08841 264.55019 
L 171.08841 264.167751 
L 171.343291 264.167751 
L 171.343291 263.785312 
L 171.973756 263.785312 
L 171.973756 263.402873 
L 172.115286 263.402873 
L 172.115286 263.020434 
L 172.23154 263.020434 
L 172.332748 262.255556 
L 172.385656 262.255556 
L 172.385656 261.873117 
L 172.813304 261.873117 
L 172.813304 261.490679 
L 173.098177 261.490679 
L 173.161643 260.725801 
L 173.647217 260.725801 
L 173.647217 260.343362 
L 173.822504 260.343362 
L 173.822504 259.960923 
L 174.044218 259.960923 
L 174.044218 259.578484 
L 174.331057 259.578484 
L 174.377298 258.813606 
L 174.483516 258.813606 
L 174.483516 258.431167 
L 174.890363 258.431167 
L 174.982734 256.901411 
L 175.292848 256.901411 
L 175.292848 256.518972 
L 175.409817 256.518972 
L 175.409817 256.136533 
L 175.521321 256.136533 
L 175.521321 255.754094 
L 175.690993 255.754094 
L 175.690993 255.371655 
L 176.022169 255.371655 
L 176.103574 254.606777 
L 176.320992 254.606777 
L 176.345498 253.841899 
L 176.989172 253.841899 
L 176.989172 253.45946 
L 177.272413 253.45946 
L 177.285838 252.694583 
L 177.415614 252.694583 
L 177.415614 252.312144 
L 177.573535 252.312144 
L 177.573535 251.929705 
L 177.914472 251.929705 
L 177.914472 251.547266 
L 178.090943 251.547266 
L 178.090943 251.164827 
L 178.695086 251.164827 
L 178.720816 250.399949 
L 179.306158 250.399949 
L 179.306158 250.01751 
L 179.981841 250.01751 
L 179.981841 249.635071 
L 180.120103 249.635071 
L 180.120103 249.252632 
L 180.404081 249.252632 
L 180.404081 248.870193 
L 180.542895 248.870193 
L 180.575484 248.105315 
L 180.836414 248.105315 
L 180.836414 247.722876 
L 181.142147 247.722876 
L 181.233239 246.957998 
L 181.811791 246.957998 
L 181.817445 246.19312 
L 182.231214 246.19312 
L 182.30149 245.428242 
L 182.940762 245.428242 
L 182.984642 244.663365 
L 183.442531 244.663365 
L 183.490554 243.898487 
L 183.641125 243.898487 
L 183.641125 243.516048 
L 183.774267 243.516048 
L 183.774267 243.133609 
L 184.178333 243.133609 
L 184.227362 242.368731 
L 184.658295 242.368731 
L 184.658295 241.986292 
L 184.880885 241.986292 
L 184.880885 241.603853 
L 185.082299 241.603853 
L 185.082299 241.221414 
L 185.261031 241.221414 
L 185.261031 240.838975 
L 185.419006 240.838975 
L 185.419006 240.456536 
L 185.978913 240.456536 
L 186.02776 239.691658 
L 186.437292 239.691658 
L 186.437292 239.309219 
L 186.573195 239.309219 
L 186.573195 238.92678 
L 186.902846 238.92678 
L 186.976294 238.161902 
L 187.116836 238.161902 
L 187.116836 237.779463 
L 187.461047 237.779463 
L 187.461047 237.397024 
L 187.803942 237.397024 
L 187.87102 236.632147 
L 188.403011 236.632147 
L 188.403011 236.249708 
L 188.899838 236.249708 
L 188.968752 235.48483 
L 189.226661 235.48483 
L 189.226661 235.102391 
L 189.373442 235.102391 
L 189.373442 234.719952 
L 189.895643 234.719952 
L 189.895643 234.337513 
L 190.279923 234.337513 
L 190.279923 233.955074 
L 190.817028 233.955074 
L 190.817028 233.572635 
L 191.052017 233.572635 
L 191.085524 232.807757 
L 191.525004 232.807757 
L 191.525004 232.425318 
L 192.031582 232.425318 
L 192.031582 232.042879 
L 192.282857 232.042879 
L 192.282857 231.66044 
L 192.858351 231.66044 
L 192.929591 230.895562 
L 193.071725 230.895562 
L 193.144297 230.130684 
L 193.351952 230.130684 
L 193.351952 229.748245 
L 193.472804 229.748245 
L 193.551481 228.983367 
L 193.640222 228.983367 
L 193.72749 228.21849 
L 194.113673 228.21849 
L 194.113673 227.836051 
L 194.778959 227.836051 
L 194.845308 226.688734 
L 195.19235 226.688734 
L 195.199114 225.923856 
L 195.499058 225.923856 
L 195.499058 225.541417 
L 195.893649 225.541417 
L 195.893649 225.158978 
L 196.225946 225.158978 
L 196.225946 224.776539 
L 196.541697 224.776539 
L 196.541697 224.3941 
L 196.74624 224.3941 
L 196.851475 223.629222 
L 197.031291 223.629222 
L 197.031291 223.246783 
L 197.23072 223.246783 
L 197.23072 222.864344 
L 198.323902 222.864344 
L 198.323902 222.481905 
L 198.700255 222.481905 
L 198.700255 222.099466 
L 200.28759 222.099466 
L 200.28759 221.717027 
L 200.466798 221.717027 
L 200.466798 221.334588 
L 200.651476 221.334588 
L 200.690311 220.56971 
L 201.325665 220.56971 
L 201.417394 219.422394 
L 201.438257 219.422394 
L 201.518082 218.657516 
L 201.659128 218.657516 
L 201.659128 218.275077 
L 202.048125 218.275077 
L 202.048125 217.892638 
L 202.265551 217.892638 
L 202.353074 217.12776 
L 203.25132 217.12776 
L 203.25132 216.745321 
L 203.633337 216.745321 
L 203.633337 216.362882 
L 204.508947 216.362882 
L 204.617312 215.598004 
L 205.023713 215.598004 
L 205.053353 214.833126 
L 205.262451 214.833126 
L 205.286303 214.068248 
L 205.962878 214.068248 
L 205.962878 213.685809 
L 206.668907 213.685809 
L 206.668907 213.30337 
L 206.995977 213.30337 
L 206.995977 212.920931 
L 207.408577 212.920931 
L 207.416077 212.156054 
L 207.591921 212.156054 
L 207.591921 211.773615 
L 208.231111 211.773615 
L 208.231111 211.391176 
L 208.451343 211.391176 
L 208.451343 211.008737 
L 209.376003 211.008737 
L 209.376003 210.626298 
L 209.535815 210.626298 
L 209.535815 210.243859 
L 209.740307 210.243859 
L 209.740307 209.86142 
L 210.008453 209.86142 
L 210.008453 209.478981 
L 210.189969 209.478981 
L 210.272424 208.331664 
L 210.397821 208.331664 
L 210.397821 207.949225 
L 210.790496 207.949225 
L 210.790496 207.566786 
L 211.725427 207.566786 
L 211.725427 207.184347 
L 212.009633 207.184347 
L 212.009633 206.801908 
L 212.592009 206.801908 
L 212.683232 206.03703 
L 213.176456 206.03703 
L 213.176456 205.654591 
L 213.355773 205.654591 
L 213.355773 205.272152 
L 213.5061 205.272152 
L 213.5061 204.889713 
L 213.82595 204.889713 
L 213.82595 204.507274 
L 215.267698 204.507274 
L 215.267698 204.124836 
L 215.511507 204.124836 
L 215.511507 203.742397 
L 215.632746 203.742397 
L 215.640735 202.977519 
L 216.062874 202.977519 
L 216.104465 202.212641 
L 216.22186 202.212641 
L 216.22186 201.830202 
L 216.805416 201.830202 
L 216.805416 201.447763 
L 217.569901 201.447763 
L 217.664992 200.682885 
L 217.903439 200.682885 
L 217.995042 199.535568 
L 218.272784 199.535568 
L 218.272784 199.153129 
L 218.48789 199.153129 
L 218.48789 198.77069 
L 218.635943 198.77069 
L 218.635943 198.388251 
L 218.824325 198.388251 
L 218.824325 198.005812 
L 219.160622 198.005812 
L 219.22284 197.240934 
L 219.280913 197.240934 
L 219.311763 196.476056 
L 220.684546 196.476056 
L 220.684546 196.093617 
L 220.88863 196.093617 
L 220.88863 195.711179 
L 221.060146 195.711179 
L 221.060146 195.32874 
L 221.576863 195.32874 
L 221.638982 194.563862 
L 221.804143 194.563862 
L 221.804493 193.798984 
L 222.785991 193.798984 
L 222.787593 193.034106 
L 222.942501 193.034106 
L 223.030962 192.269228 
L 223.149719 192.269228 
L 223.149719 191.886789 
L 223.373498 191.886789 
L 223.469056 191.121911 
L 223.658122 191.121911 
L 223.658122 190.739472 
L 224.185756 190.739472 
L 224.188673 189.974594 
L 224.573529 189.974594 
L 224.573529 189.592155 
L 224.784182 189.592155 
L 224.784182 189.209716 
L 225.306848 189.209716 
L 225.366938 188.444838 
L 225.734187 188.444838 
L 225.734187 188.062399 
L 227.318855 188.062399 
L 227.318855 187.679961 
L 227.66667 187.679961 
L 227.66667 187.297522 
L 227.875463 187.297522 
L 227.875463 186.915083 
L 228.22516 186.915083 
L 228.22516 186.532644 
L 228.339074 186.532644 
L 228.339074 186.150205 
L 228.549785 186.150205 
L 228.549785 185.767766 
L 229.095127 185.767766 
L 229.095127 185.385327 
L 229.500156 185.385327 
L 229.500156 185.002888 
L 229.96238 185.002888 
L 229.995015 184.23801 
L 230.623992 184.23801 
L 230.623992 183.855571 
L 230.759063 183.855571 
L 230.759063 183.473132 
L 231.117238 183.473132 
L 231.178229 182.708254 
L 231.522684 182.708254 
L 231.522684 182.325815 
L 231.645824 182.325815 
L 231.645824 181.943376 
L 231.787136 181.943376 
L 231.85654 181.178498 
L 232.936124 181.178498 
L 232.936124 180.796059 
L 233.262128 180.796059 
L 233.262128 180.41362 
L 233.384206 180.41362 
L 233.384206 180.031181 
L 234.484546 180.031181 
L 234.484546 179.648742 
L 234.940484 179.648742 
L 234.99327 178.883865 
L 236.03542 178.883865 
L 236.142163 177.736548 
L 236.549812 177.736548 
L 236.549812 177.354109 
L 237.113578 177.354109 
L 237.218814 176.589231 
L 237.286981 176.589231 
L 237.311035 175.824353 
L 237.634079 175.824353 
L 237.739507 175.059475 
L 238.367805 175.059475 
L 238.425334 174.294597 
L 238.656253 174.294597 
L 238.700125 173.529719 
L 239.095684 173.529719 
L 239.095684 173.14728 
L 239.249759 173.14728 
L 239.249759 172.764841 
L 239.641041 172.764841 
L 239.641041 172.382402 
L 239.850379 172.382402 
L 239.946232 171.617524 
L 240.001551 171.617524 
L 240.001551 171.235086 
L 240.144727 171.235086 
L 240.187165 170.470208 
L 240.338153 170.470208 
L 240.338153 170.087769 
L 241.176471 170.087769 
L 241.234718 169.322891 
L 241.53689 169.322891 
L 241.53697 168.558013 
L 241.905785 168.558013 
L 241.96235 167.793135 
L 242.561169 167.793135 
L 242.561169 167.410696 
L 242.710712 167.410696 
L 242.710712 167.028257 
L 242.960173 167.028257 
L 242.960173 166.645818 
L 243.399237 166.645818 
L 243.399237 166.263379 
L 243.825656 166.263379 
L 243.825656 165.88094 
L 244.239932 165.88094 
L 244.240337 165.116062 
L 244.519034 165.116062 
L 244.519034 164.733623 
L 244.68001 164.733623 
L 244.68001 164.351184 
L 244.936154 164.351184 
L 244.936154 163.968745 
L 245.81708 163.968745 
L 245.81708 163.586306 
L 245.946972 163.586306 
L 245.946972 163.203867 
L 246.742891 163.203867 
L 246.742891 162.821429 
L 246.865594 162.821429 
L 246.865594 162.43899 
L 247.066576 162.43899 
L 247.066576 162.056551 
L 247.470451 162.056551 
L 247.470451 161.674112 
L 248.388115 161.674112 
L 248.388115 161.291673 
L 248.502905 161.291673 
L 248.502905 160.909234 
L 248.667705 160.909234 
L 248.685054 160.144356 
L 248.921292 160.144356 
L 248.955349 159.379478 
L 249.149977 159.379478 
L 249.149977 158.997039 
L 249.363382 158.997039 
L 249.373417 158.232161 
L 249.566128 158.232161 
L 249.566128 157.849722 
L 250.222126 157.849722 
L 250.222126 157.467283 
L 250.357639 157.467283 
L 250.357639 157.084844 
L 250.520753 157.084844 
L 250.520753 156.702405 
L 250.961931 156.702405 
L 250.961931 156.319966 
L 251.607913 156.319966 
L 251.607913 155.937527 
L 251.933207 155.937527 
L 252.034899 155.172649 
L 252.288597 155.172649 
L 252.288597 154.790211 
L 252.507301 154.790211 
L 252.507301 154.407772 
L 253.05881 154.407772 
L 253.134625 153.642894 
L 253.179311 153.642894 
L 253.179311 153.260455 
L 254.005517 153.260455 
L 254.005517 152.878016 
L 254.513632 152.878016 
L 254.513632 152.495577 
L 254.697032 152.495577 
L 254.697032 152.113138 
L 255.065072 152.113138 
L 255.065072 151.730699 
L 255.758837 151.730699 
L 255.758837 151.34826 
L 256.302902 151.34826 
L 256.302902 150.965821 
L 256.476691 150.965821 
L 256.476691 150.583382 
L 256.751563 150.583382 
L 256.751563 150.200943 
L 257.068939 150.200943 
L 257.068939 149.818504 
L 257.796603 149.818504 
L 257.796603 149.436065 
L 257.958961 149.436065 
L 257.958961 149.053626 
L 258.579261 149.053626 
L 258.579261 148.671187 
L 259.467485 148.671187 
L 259.494304 147.906309 
L 260.612251 147.906309 
L 260.612251 147.52387 
L 261.286514 147.52387 
L 261.286514 147.141431 
L 261.666319 147.141431 
L 261.666319 146.758992 
L 262.069983 146.758992 
L 262.069983 146.376554 
L 262.190085 146.376554 
L 262.266492 145.611676 
L 262.376294 145.611676 
L 262.376294 145.229237 
L 262.718444 145.229237 
L 262.761367 144.08192 
L 263.396697 144.08192 
L 263.48492 143.317042 
L 263.572145 143.317042 
L 263.62622 142.552164 
L 263.846764 142.552164 
L 263.846764 142.169725 
L 264.03811 142.169725 
L 264.03811 141.787286 
L 264.302274 141.787286 
L 264.302274 141.404847 
L 265.181577 141.404847 
L 265.181577 141.022408 
L 265.470315 141.022408 
L 265.470315 140.639969 
L 265.859362 140.639969 
L 265.859362 140.25753 
L 266.521331 140.25753 
L 266.521331 139.875091 
L 268.222215 139.875091 
L 268.222215 139.492652 
L 268.396044 139.492652 
L 268.396044 139.110213 
L 268.601114 139.110213 
L 268.678865 138.345336 
L 269.509374 138.345336 
L 269.598895 137.580458 
L 270.359654 137.580458 
L 270.359654 137.198019 
L 271.260085 137.198019 
L 271.260085 136.81558 
L 271.440656 136.81558 
L 271.440656 136.433141 
L 271.588478 136.433141 
L 271.605085 135.668263 
L 272.233896 135.668263 
L 272.233896 135.285824 
L 272.585526 135.285824 
L 272.596307 134.520946 
L 272.781212 134.520946 
L 272.781212 134.138507 
L 273.135636 134.138507 
L 273.135636 133.756068 
L 274.174837 133.756068 
L 274.24556 132.99119 
L 274.307165 132.99119 
L 274.361441 132.226312 
L 274.46146 132.226312 
L 274.46146 131.843873 
L 274.673784 131.843873 
L 274.673784 131.461434 
L 275.376269 131.461434 
L 275.376269 131.078995 
L 275.711538 131.078995 
L 275.711538 130.696556 
L 276.004991 130.696556 
L 276.004991 130.314117 
L 278.07635 130.314117 
L 278.07635 129.931679 
L 278.90638 129.931679 
L 278.90638 129.54924 
L 279.517676 129.54924 
L 279.517676 129.166801 
L 279.984494 129.166801 
L 279.984494 128.784362 
L 280.189286 128.784362 
L 280.189286 128.401923 
L 280.61943 128.401923 
L 280.685696 127.637045 
L 280.833093 127.637045 
L 280.940165 126.872167 
L 281.807477 126.872167 
L 281.848289 125.72485 
L 282.177038 125.72485 
L 282.177038 125.342411 
L 282.402868 125.342411 
L 282.402868 124.959972 
L 282.96698 124.959972 
L 282.96698 124.577533 
L 283.328062 124.577533 
L 283.328062 124.195094 
L 283.473597 124.195094 
L 283.473597 123.812655 
L 284.209064 123.812655 
L 284.209064 123.430216 
L 284.773092 123.430216 
L 284.773092 123.047777 
L 285.37221 123.047777 
L 285.460883 122.282899 
L 285.644003 122.282899 
L 285.644003 121.900461 
L 286.321378 121.900461 
L 286.321378 121.518022 
L 286.630545 121.518022 
L 286.630545 121.135583 
L 286.806233 121.135583 
L 286.806233 120.753144 
L 287.277566 120.753144 
L 287.327969 119.988266 
L 288.083408 119.988266 
L 288.083408 119.605827 
L 288.519187 119.605827 
L 288.519187 119.223388 
L 288.995508 119.223388 
L 288.995508 118.840949 
L 289.44442 118.840949 
L 289.513596 118.076071 
L 290.818648 118.076071 
L 290.818648 117.693632 
L 293.333028 117.693632 
L 293.333028 117.311193 
L 293.604589 117.311193 
L 293.604589 116.928754 
L 293.845506 116.928754 
L 293.845506 116.546315 
L 293.996865 116.546315 
L 294.079595 115.781437 
L 295.233874 115.781437 
L 295.233874 115.398998 
L 295.631618 115.398998 
L 295.631618 115.016559 
L 296.72862 115.016559 
L 296.72862 114.63412 
L 297.03448 114.63412 
L 297.091718 113.869242 
L 297.311306 113.869242 
L 297.311306 113.486804 
L 297.460276 113.486804 
L 297.460276 113.104365 
L 297.615071 113.104365 
L 297.615071 112.721926 
L 297.796718 112.721926 
L 297.858981 111.957048 
L 298.045139 111.957048 
L 298.045139 111.574609 
L 298.278377 111.574609 
L 298.278377 111.19217 
L 298.399767 111.19217 
L 298.399767 110.809731 
L 299.180209 110.809731 
L 299.255423 110.044853 
L 299.432944 110.044853 
L 299.445854 109.279975 
L 300.278934 109.279975 
L 300.278934 108.897536 
L 300.529565 108.897536 
L 300.529565 108.515097 
L 301.975618 108.515097 
L 301.975618 108.132658 
L 302.747131 108.132658 
L 302.787314 107.36778 
L 303.369798 107.36778 
L 303.369798 106.985341 
L 303.641005 106.985341 
L 303.641005 106.602902 
L 303.865346 106.602902 
L 303.865346 106.220463 
L 304.100584 106.220463 
L 304.100584 105.838024 
L 304.406858 105.838024 
L 304.406858 105.455586 
L 304.521802 105.455586 
L 304.521802 105.073147 
L 305.142619 105.073147 
L 305.142619 104.690708 
L 305.920457 104.690708 
L 305.920457 104.308269 
L 306.087514 104.308269 
L 306.118068 103.160952 
L 306.979133 103.160952 
L 306.979133 102.778513 
L 307.131774 102.778513 
L 307.183608 102.013635 
L 309.20831 102.013635 
L 309.20831 101.631196 
L 310.809178 101.631196 
L 310.809178 101.248757 
L 310.965513 101.248757 
L 310.965513 100.866318 
L 311.282062 100.866318 
L 311.282062 100.483879 
L 312.429495 100.483879 
L 312.429495 100.10144 
L 312.822288 100.10144 
L 312.822288 99.719001 
L 313.012071 99.719001 
L 313.012071 99.336562 
L 313.705908 99.336562 
L 313.705908 98.954123 
L 314.410751 98.954123 
L 314.413126 98.189245 
L 315.853517 98.189245 
L 315.853517 97.806806 
L 315.998856 97.806806 
L 315.998856 97.424367 
L 316.488085 97.424367 
L 316.488085 97.041929 
L 317.1002 97.041929 
L 317.1002 96.65949 
L 317.650054 96.65949 
L 317.650054 96.277051 
L 318.007203 96.277051 
L 318.007203 95.894612 
L 318.392886 95.894612 
L 318.392886 95.512173 
L 318.58345 95.512173 
L 318.58345 95.129734 
L 319.115307 95.129734 
L 319.202029 93.982417 
L 319.343884 93.982417 
L 319.343884 93.599978 
L 319.460855 93.599978 
L 319.460855 93.217539 
L 319.671567 93.217539 
L 319.671567 92.8351 
L 320.389969 92.8351 
L 320.389969 92.452661 
L 320.625648 92.452661 
L 320.625648 92.070222 
L 321.800662 92.070222 
L 321.800662 91.687783 
L 322.114199 91.687783 
L 322.114199 91.305344 
L 322.488886 91.305344 
L 322.488886 90.922905 
L 324.968362 90.922905 
L 324.968362 90.540466 
L 325.206225 90.540466 
L 325.296346 89.775588 
L 326.625945 89.775588 
L 326.625945 89.393149 
L 326.783702 89.393149 
L 326.783702 89.010711 
L 327.538715 89.010711 
L 327.538715 88.628272 
L 327.712639 88.628272 
L 327.758697 87.863394 
L 328.169859 87.863394 
L 328.169859 87.480955 
L 328.450569 87.480955 
L 328.450569 87.098516 
L 328.615555 87.098516 
L 328.615555 86.716077 
L 330.004698 86.716077 
L 330.004698 86.333638 
L 330.646118 86.333638 
L 330.646118 85.951199 
L 331.636259 85.951199 
L 331.636259 85.56876 
L 332.64273 85.56876 
L 332.64273 85.186321 
L 332.927004 85.186321 
L 332.927004 84.803882 
L 333.606759 84.803882 
L 333.606759 84.421443 
L 333.91911 84.421443 
L 333.91911 84.039004 
L 334.812177 84.039004 
L 334.812177 83.656565 
L 335.547371 83.656565 
L 335.547371 83.274126 
L 336.183856 83.274126 
L 336.195166 82.509248 
L 336.496499 82.509248 
L 336.496499 82.126809 
L 337.27734 82.126809 
L 337.27734 81.74437 
L 337.702416 81.74437 
L 337.702416 81.361931 
L 338.250198 81.361931 
L 338.250198 80.979492 
L 338.901164 80.979492 
L 338.919526 80.214615 
L 339.101645 80.214615 
L 339.101645 79.832176 
L 339.22103 79.832176 
L 339.286634 78.684859 
L 339.763244 78.684859 
L 339.763244 78.30242 
L 340.809358 78.30242 
L 340.827951 77.537542 
L 341.016367 77.537542 
L 341.016367 77.155103 
L 341.88225 77.155103 
L 341.88225 76.772664 
L 342.364883 76.772664 
L 342.396853 76.007786 
L 343.865412 76.007786 
L 343.865412 75.625347 
L 344.786888 75.625347 
L 344.786888 75.242908 
L 346.377077 75.242908 
L 346.40437 74.47803 
L 347.422523 74.47803 
L 347.422523 74.095591 
L 348.822723 74.095591 
L 348.822723 73.713152 
L 349.421069 73.713152 
L 349.504475 72.948274 
L 350.022959 72.948274 
L 350.08175 72.183397 
L 350.472547 72.183397 
L 350.472547 71.800958 
L 351.612745 71.800958 
L 351.612745 71.418519 
L 352.618829 71.418519 
L 352.618829 71.03608 
L 353.655291 71.03608 
L 353.655291 70.653641 
L 355.36746 70.653641 
L 355.445511 69.888763 
L 356.032859 69.888763 
L 356.032859 69.506324 
L 356.39035 69.506324 
L 356.39035 69.123885 
L 359.013337 69.123885 
L 359.013337 68.741446 
L 360.142242 68.741446 
L 360.210039 67.976568 
L 362.724116 67.976568 
L 362.724116 67.594129 
L 366.007076 67.594129 
L 366.007076 67.21169 
L 366.835529 67.21169 
L 366.835529 66.829251 
L 368.139622 66.829251 
L 368.139622 66.446812 
L 368.8125 66.446812 
L 368.8125 66.064373 
L 371.494643 66.064373 
L 371.494643 65.681934 
L 372.144791 65.681934 
L 372.144791 65.299495 
L 372.373641 65.299495 
L 372.373641 64.917056 
L 373.05256 64.917056 
L 373.068547 64.152179 
L 373.363691 64.152179 
L 373.464613 63.387301 
L 375.007081 63.387301 
L 375.007081 63.004862 
L 376.186853 63.004862 
L 376.186853 62.622423 
L 376.780077 62.622423 
L 376.780077 62.239984 
L 381.811591 62.239984 
L 381.811591 61.857545 
L 385.685272 61.857545 
L 385.685272 61.475106 
L 386.408932 61.475106 
L 386.408932 61.092667 
L 387.209925 61.092667 
L 387.209925 60.710228 
L 389.549305 60.710228 
L 389.549305 60.327789 
L 390.054135 60.327789 
L 390.054135 59.94535 
L 398.031623 59.94535 
L 398.133808 58.798033 
L 399.405785 58.798033 
L 399.405785 58.415594 
L 400.730056 58.415594 
L 400.730056 58.033155 
L 402.708286 58.033155 
L 402.708286 57.650716 
L 405.18089 57.650716 
L 405.18089 57.268277 
L 409.586492 57.268277 
L 409.586492 56.885838 
L 412.71863 56.885838 
L 412.71863 56.503399 
L 415.529084 56.503399 
L 415.529084 56.120961 
L 416.919851 56.120961 
L 416.919851 55.738522 
L 417.243873 55.738522 
L 417.243873 55.356083 
L 418.900493 55.356083 
L 418.900493 54.973644 
L 425.765311 54.973644 
L 425.765311 54.591205 
L 437.161372 54.591205 
L 437.161372 54.208766 
L 449.09999 54.208766 
L 449.09999 53.826327 
L 449.512187 53.826327 
L 449.512187 53.443888 
L 450.304538 53.443888 
L 450.304538 53.061449 
L 468.630486 53.061449 
L 468.630486 52.67901 
L 470.989468 52.67901 
L 470.989468 52.296571 
L 471.279807 52.296571 
L 471.279807 51.914132 
L 547.329019 51.914132 
L 547.329019 51.914132 
" style="fill:none;stroke:#008fd5;stroke-linecap:round;stroke-width:4;"/>
   </g>
   <g id="line2d_61">
    <defs>
     <path d="M 0 3 
C 0.795609 3 1.55874 2.683901 2.12132 2.12132 
C 2.683901 1.55874 3 0.795609 3 0 
C 3 -0.795609 2.683901 -1.55874 2.12132 -2.12132 
C 1.55874 -2.683901 0.795609 -3 0 -3 
C -0.795609 -3 -1.55874 -2.683901 -2.12132 -2.12132 
C -2.683901 -1.55874 -3 -0.795609 -3 0 
C -3 0.795609 -2.683901 1.55874 -2.12132 2.12132 
C -1.55874 2.683901 -0.795609 3 0 3 
z
" id="m9d3e5c976d" style="stroke:#fc4f30;"/>
    </defs>
    <g clip-path="url(#p639582bda5)">
     <use style="fill:#fc4f30;stroke:#fc4f30;" x="201.354153" xlink:href="#m9d3e5c976d" y="220.56971"/>
    </g>
   </g>
   <g id="patch_3">
    <path d="M 66.198426 405.689286 
L 66.198426 35.067696 
" style="fill:none;stroke:#262626;stroke-linecap:square;stroke-linejoin:miter;stroke-width:1.25;"/>
   </g>
   <g id="patch_4">
    <path d="M 570.24 405.689286 
L 570.24 35.067696 
" style="fill:none;stroke:#262626;stroke-linecap:square;stroke-linejoin:miter;stroke-width:1.25;"/>
   </g>
   <g id="patch_5">
    <path d="M 66.198426 405.689286 
L 570.24 405.689286 
" style="fill:none;stroke:#262626;stroke-linecap:square;stroke-linejoin:miter;stroke-width:1.25;"/>
   </g>
   <g id="patch_6">
    <path d="M 66.198426 35.067696 
L 570.24 35.067696 
" style="fill:none;stroke:#262626;stroke-linecap:square;stroke-linejoin:miter;stroke-width:1.25;"/>
   </g>
   <g id="patch_7">
    <path d="M 155.029862 190.813592 
Q 160.926983 219.823265 198.79612 220.540401 
" style="fill:none;stroke:#000000;stroke-linecap:round;stroke-width:0.5;"/>
    <path d="M 192.853997 217.427336 
L 198.79612 220.540401 
L 192.740394 223.42626 
" style="fill:none;stroke:#000000;stroke-linecap:round;stroke-width:0.5;"/>
   </g>
   <g id="text_13">
    <!-- (2.411E-06, 0.5) -->
    <g style="fill:#262626;" transform="translate(103.672539 183.102605)scale(0.15 -0.15)">
     <defs>
      <path d="M 25.796875 21.140625 
C 28.59375 24.03125 32.796875 27.515625 35.703125 31 
C 38.5 34.390625 42.203125 39.171875 42.203125 46.140625 
C 42.203125 57.109375 34.796875 67 22.203125 67 
C 12.296875 67 6.59375 60.796875 3.90625 51.125 
L 7.796875 45.75 
C 10 54.8125 13.09375 60.59375 20.90625 60.59375 
C 29.5 60.59375 34.296875 53.609375 34.296875 45.9375 
C 34.296875 36.78125 27.296875 29.703125 22 24.421875 
C 16.09375 18.546875 10.296875 12.578125 4.703125 6.390625 
L 4.703125 0 
L 42.203125 0 
L 42.203125 6.796875 
L 25.203125 6.796875 
C 24 6.796875 22.796875 6.6875 21.59375 6.6875 
L 11.59375 6.6875 
L 11.59375 6.796875 
z
" id="CMSS17-50"/>
      <path d="M 17 8 
L 9 8 
L 9 0 
L 17 0 
z
" id="CMSS17-46"/>
      <path d="M 35.203125 17 
L 44.296875 17 
L 44.296875 23.09375 
L 35.203125 23.09375 
L 35.203125 66 
L 26.40625 66 
L 2.59375 23.09375 
L 2.59375 17 
L 27.296875 17 
L 27.296875 0 
L 35.203125 0 
z
M 10.296875 23.09375 
C 16.09375 33.421875 27.59375 54.28125 27.59375 61.359375 
L 27.59375 23.09375 
z
" id="CMSS17-52"/>
      <path d="M 28.40625 67 
L 26.5 67 
C 21.09375 61.703125 14.796875 60.96875 8.40625 60.796875 
L 8.40625 55 
C 11.296875 55.09375 16 55.296875 20.703125 57.390625 
L 20.703125 5.796875 
L 8.90625 5.796875 
L 8.90625 0 
L 40.203125 0 
L 40.203125 5.796875 
L 28.40625 5.796875 
z
" id="CMSS17-49"/>
      <path d="M 30.59375 6.796875 
C 22.59375 6.796875 19 6.796875 17.203125 6.6875 
L 17.203125 32.890625 
L 48.203125 32.890625 
L 48.203125 39 
L 17.203125 39 
L 17.203125 62.390625 
L 30.09375 62.390625 
C 31.296875 62.390625 32.5 62.296875 33.703125 62.296875 
L 50.796875 62.296875 
L 50.796875 68.796875 
L 8.796875 68.796875 
L 8.796875 0 
L 52.09375 0 
L 52.09375 6.890625 
z
" id="CMSS17-69"/>
      <path d="M 26 19 
L 26 24.796875 
L 1 24.796875 
L 1 19 
z
" id="CMSS17-45"/>
      <path d="M 43.09375 32.390625 
C 43.09375 38.109375 43 48.75 38.90625 56.984375 
C 34.796875 64.890625 28.203125 67 23.5 67 
C 16.703125 67 10.90625 62.984375 7.90625 56.578125 
C 4.703125 49.859375 3.796875 42.9375 3.796875 32.390625 
C 3.796875 25.171875 4.09375 16.34375 7.703125 8.609375 
C 11.796875 0.09375 18.703125 -2 23.40625 -2 
C 29.59375 -2 35.59375 1.296875 39 8.203125 
C 42.5 15.4375 43.09375 23.359375 43.09375 32.390625 
z
M 23.40625 4.09375 
C 15.796875 4.09375 13.5 12.828125 12.796875 15.734375 
C 11.59375 20.75 11.40625 25.5625 11.40625 33.5 
C 11.40625 39.71875 11.40625 46.75 13.296875 52.265625 
C 15.59375 58.6875 19.59375 60.890625 23.40625 60.890625 
C 30.796875 60.890625 33.203125 53.46875 34 50.859375 
C 35.5 45.546875 35.5 39.3125 35.5 33.5 
C 35.5 24.15625 35.5 4.09375 23.40625 4.09375 
z
" id="CMSS17-48"/>
      <path d="M 39 64.984375 
C 34.796875 66.6875 31.796875 67 29 67 
C 16 67 3.90625 53.25 3.90625 31.609375 
C 3.90625 4.1875 15.40625 -2 23.59375 -2 
C 28.09375 -2 32.59375 -0.609375 36.90625 4.390625 
C 41.296875 9.671875 43 14.0625 43 21.75 
C 43 34.109375 36.90625 45.09375 27.796875 45.09375 
C 21.203125 45.09375 15.5 41.59375 12 37.203125 
C 13 51.40625 19.59375 60.890625 29.09375 60.890625 
C 31.703125 60.890625 35.09375 60.484375 39 58.75 
z
M 12.09375 21.4375 
C 12.09375 22.234375 12.09375 22.734375 12.203125 24.234375 
C 12.203125 32.015625 16.703125 39 24 39 
C 28.703125 39 31.09375 36.5 32.90625 33.40625 
C 35 29.515625 35.09375 25.828125 35.09375 21.75 
C 35.09375 17.859375 35.09375 13.96875 32.796875 9.96875 
C 30.90625 6.890625 28.40625 4.1875 23.59375 4.1875 
C 14.09375 4.1875 12.5 17.453125 12.09375 21.4375 
z
" id="CMSS17-54"/>
      <path d="M 14.59375 59.59375 
L 39.09375 59.59375 
L 39.09375 66 
L 7.296875 66 
L 7.296875 28.59375 
L 14 28.59375 
C 15.796875 32.859375 19.5 36 24.296875 36 
C 28.796875 36 33.796875 31.9375 33.796875 20.296875 
C 33.796875 7.84375 26.703125 4.1875 21.5 4.1875 
C 15.09375 4.1875 9.203125 8.140625 6.59375 13.609375 
L 3.40625 7.9375 
C 8 0.796875 15.5 -2 21.5 -2 
C 33.09375 -2 42.203125 7.9375 42.203125 20.09375 
C 42.203125 32.546875 34.09375 42.09375 24.40625 42.09375 
C 20.90625 42.09375 17.5 40.890625 14.59375 38.5 
z
" id="CMSS17-53"/>
     </defs>
     <use transform="scale(0.996264)" xlink:href="#CMSS17-40"/>
     <use transform="translate(36.433914 0)scale(0.996264)" xlink:href="#CMSS17-50"/>
     <use transform="translate(83.277538 0)scale(0.996264)" xlink:href="#CMSS17-46"/>
     <use transform="translate(109.301743 0)scale(0.996264)" xlink:href="#CMSS17-52"/>
     <use transform="translate(156.145366 0)scale(0.996264)" xlink:href="#CMSS17-49"/>
     <use transform="translate(202.98899 0)scale(0.996264)" xlink:href="#CMSS17-49"/>
     <use transform="translate(249.832613 0)scale(0.996264)" xlink:href="#CMSS17-69"/>
     <use transform="translate(305.724626 0)scale(0.996264)" xlink:href="#CMSS17-45"/>
     <use transform="translate(336.953739 0)scale(0.996264)" xlink:href="#CMSS17-48"/>
     <use transform="translate(383.797363 0)scale(0.996264)" xlink:href="#CMSS17-54"/>
     <use transform="translate(430.640986 0)scale(0.996264)" xlink:href="#CMSS17-44"/>
     <use transform="translate(487.894304 0)scale(0.996264)" xlink:href="#CMSS17-48"/>
     <use transform="translate(534.737927 0)scale(0.996264)" xlink:href="#CMSS17-46"/>
     <use transform="translate(560.762132 0)scale(0.996264)" xlink:href="#CMSS17-53"/>
     <use transform="translate(607.605756 0)scale(0.996264)" xlink:href="#CMSS17-41"/>
    </g>
   </g>
   <g id="text_14">
    <!-- ECDF of Fluence above INTEGRAL limit -->
    <g style="fill:#262626;" transform="translate(155.513616 29.067696)scale(0.2016 -0.2016)">
     <defs>
      <path d="M 54.703125 11.015625 
C 48 6.5 44.90625 5.1875 36.796875 5.1875 
C 22.796875 5.1875 14.59375 20.375 14.59375 34.234375 
C 14.59375 49.015625 23 63.59375 37.203125 63.59375 
C 43.59375 63.59375 47.796875 61.78125 52.90625 58.5625 
L 54.296875 66.484375 
C 49.5 68.890625 43.40625 70 37.296875 70 
C 18.09375 70 6.203125 52.234375 6.203125 34.234375 
C 6.203125 14.4375 20.296875 -1.203125 36.296875 -1.203125 
C 44.90625 -1.203125 47.90625 -0.5 55.296875 4.1875 
z
" id="CMSS17-67"/>
      <path d="M 8.90625 69 
L 8.90625 0 
L 33.5 0 
C 49.90625 0 62.5 15.328125 62.5 33.890625 
C 62.5 53.0625 49.90625 69 33.5 69 
z
M 17.09375 5.59375 
L 17.09375 63.390625 
L 31.296875 63.390625 
C 44.703125 63.390625 54.296875 51.171875 54.296875 33.890625 
C 54.296875 17.3125 44.796875 5.59375 31.296875 5.59375 
z
" id="CMSS17-68"/>
      <path d="M 44.203125 21.1875 
C 44.203125 33.984375 34.703125 44 23.5 44 
C 12 44 2.703125 33.6875 2.703125 21.1875 
C 2.703125 8.5 12.296875 -1 23.40625 -1 
C 34.796875 -1 44.203125 8.796875 44.203125 21.1875 
z
M 23.5 5.296875 
C 16.40625 5.296875 10.296875 11.09375 10.296875 21.984375 
C 10.296875 33.59375 17.40625 37.890625 23.40625 37.890625 
C 29.90625 37.890625 36.59375 33.1875 36.59375 21.984375 
C 36.59375 10.6875 30.09375 5.296875 23.5 5.296875 
z
" id="CMSS17-111"/>
      <path d="M 16.796875 37.1875 
L 26.90625 37.1875 
L 26.90625 43 
L 16.59375 43 
L 16.59375 55.671875 
C 16.59375 62.703125 22 63.890625 25.09375 63.890625 
C 26.09375 63.890625 28.90625 63.890625 32.5 62.609375 
L 32.5 69.1875 
C 30.203125 69.6875 27.40625 70 25.203125 70 
C 15.90625 70 9.40625 62.40625 9.40625 52.59375 
L 9.40625 43 
L 2.5 43 
L 2.5 37.1875 
L 9.40625 37.1875 
L 9.40625 0 
L 16.796875 0 
z
" id="CMSS17-102"/>
      <path d="M 37.59375 27.953125 
C 37.59375 37.484375 30.90625 44 21.90625 44 
C 17.5 44 12.703125 43.1875 7.203125 39.984375 
L 7.796875 33.328125 
C 10.296875 35.15625 14.59375 38.09375 21.796875 38.09375 
C 26.90625 38.09375 30 34.140625 30 27.84375 
L 30 24 
C 14 23.5 4 18.890625 4 11.109375 
C 4 7.0625 6.5 -1 14.796875 -1 
C 16.296875 -1 24.40625 -0.8125 30.203125 3.5 
L 30.203125 -0.203125 
L 37.59375 -0.203125 
z
M 30 12.875 
C 30 11.109375 30 8.734375 27 6.96875 
C 24.40625 5.296875 21.09375 5.09375 19.703125 5.09375 
C 14.703125 5.09375 11.296875 7.859375 11.296875 11.296875 
C 11.296875 18.203125 26.90625 18.890625 30 19 
z
" id="CMSS17-97"/>
      <path d="M 14.90625 69 
L 7.5 69 
L 7.5 -0.203125 
L 15.09375 -0.203125 
L 15.09375 4.296875 
C 18.90625 0.59375 23.5 -1 27.59375 -1 
C 37.203125 -1 45 8.734375 45 21.59375 
C 45 33.328125 39 44 30.09375 44 
C 23.796875 44 18.203125 41.390625 14.90625 38.6875 
z
M 15.09375 32.734375 
C 17.296875 35.5625 20.40625 37.890625 24.796875 37.890625 
C 30.703125 37.890625 37.40625 33.53125 37.40625 21.59375 
C 37.40625 8.84375 29.40625 5.09375 23.90625 5.09375 
C 21.90625 5.09375 19.796875 5.59375 17.796875 7.3125 
C 15.09375 9.75 15.09375 11.265625 15.09375 12.6875 
z
" id="CMSS17-98"/>
      <path d="M 41.796875 43 
L 34 43 
L 27.296875 24.296875 
C 25.203125 18.1875 22.203125 9.796875 21.703125 5.5 
L 21.59375 5.5 
C 21.40625 7.296875 20.59375 9.890625 20.09375 11.6875 
C 19.5 13.890625 18.703125 16.5 18.09375 18.296875 
L 9.296875 43 
L 1.296875 43 
L 17.09375 0 
L 26 0 
z
" id="CMSS17-118"/>
      <path d="M 17.09375 69 
L 8.703125 69 
L 8.703125 0 
L 17.09375 0 
z
" id="CMSS17-73"/>
      <path d="M 22.90625 65.296875 
L 21.09375 69 
L 8.796875 69 
L 8.796875 0 
L 16.59375 0 
L 16.59375 61.328125 
L 16.703125 61.421875 
C 17.40625 59.640625 17.796875 58.734375 21.90625 49.890625 
L 43.296875 3.6875 
L 45.09375 0 
L 57.40625 0 
L 57.40625 69 
L 49.59375 69 
L 49.59375 7.65625 
L 49.5 7.5625 
C 48.796875 9.34375 48.40625 10.234375 44.296875 19.09375 
z
" id="CMSS17-78"/>
      <path d="M 36.203125 62.296875 
L 44.5 62.296875 
C 45.703125 62.296875 46.90625 62.1875 48.09375 62.1875 
L 60.59375 62.1875 
L 60.59375 68.6875 
L 3.40625 68.6875 
L 3.40625 62.1875 
L 15.90625 62.1875 
C 17.09375 62.1875 18.296875 62.296875 19.5 62.296875 
L 27.796875 62.296875 
L 27.796875 0 
L 36.203125 0 
z
" id="CMSS17-84"/>
      <path d="M 56.40625 29.1875 
L 36.5 29.1875 
L 36.5 23 
L 48.796875 23 
L 48.796875 7.390625 
C 44.90625 6.296875 40.90625 5.5 36.90625 5.5 
C 22.90625 5.5 14.59375 20.484375 14.59375 34.6875 
C 14.59375 48.796875 23.296875 63.59375 36.90625 63.59375 
C 44.59375 63.59375 48.90625 61.1875 54.203125 57.1875 
L 55.5 65.1875 
C 48.90625 68.59375 44.796875 70 37.296875 70 
C 17.90625 70 6.203125 52.390625 6.203125 34.390625 
C 6.203125 17.1875 18 -1 36.703125 -1 
C 43.703125 -1 50.203125 0.796875 56.40625 3.890625 
z
" id="CMSS17-71"/>
      <path d="M 39.40625 32.796875 
L 39.59375 32.890625 
C 55.203125 38.28125 55.296875 48.828125 55.296875 50.6875 
C 55.296875 59.96875 45.703125 69 31.296875 69 
L 8.90625 69 
L 8.90625 0 
L 17.09375 0 
L 17.09375 31.890625 
L 31.796875 31.890625 
L 49.5 0 
L 57.90625 0 
z
M 17.09375 38 
L 17.09375 63.390625 
L 30.203125 63.390625 
C 42.90625 63.390625 47.40625 56.359375 47.40625 50.6875 
C 47.40625 45.421875 43.40625 38 30.203125 38 
z
" id="CMSS17-82"/>
      <path d="M 35.5 69 
L 26.90625 69 
L 2.59375 0 
L 10.203125 0 
L 17.203125 20 
L 44 20 
L 51.09375 0 
L 59.796875 0 
z
M 42.09375 25.59375 
L 19.09375 25.59375 
C 23.90625 39.53125 29.90625 56.84375 30.59375 61.3125 
L 30.703125 61.3125 
C 31.40625 57.234375 33.40625 51.265625 35.09375 46.1875 
z
" id="CMSS17-65"/>
      <path d="M 26.09375 6.5 
C 24.90625 6.5 23.703125 6.390625 22.5 6.390625 
L 17.203125 6.390625 
L 17.203125 69 
L 8.796875 69 
L 8.796875 0 
L 46.90625 0 
L 46.90625 6.5 
z
" id="CMSS17-76"/>
      <path d="M 15.296875 66 
L 6.90625 66 
L 6.90625 57.59375 
L 15.296875 57.59375 
z
M 14.796875 43 
L 7.40625 43 
L 7.40625 0 
L 14.796875 0 
z
" id="CMSS17-105"/>
      <path d="M 16.703125 37.1875 
L 29.703125 37.1875 
L 29.703125 43 
L 16.703125 43 
L 16.703125 55 
L 9.59375 55 
L 9.59375 43 
L 1.703125 43 
L 1.703125 37.1875 
L 9.40625 37.1875 
L 9.40625 11.734375 
C 9.40625 6 10.703125 -1 17.296875 -1 
C 22.296875 -1 26.90625 0.390625 31.296875 2.6875 
L 29.703125 8.609375 
C 27.296875 6.5 24.40625 5.296875 21.296875 5.296875 
C 16.90625 5.296875 16.703125 10.921875 16.703125 13.4375 
z
" id="CMSS17-116"/>
     </defs>
     <use transform="scale(0.996264)" xlink:href="#CMSS17-69"/>
     <use transform="translate(55.892013 0)scale(0.996264)" xlink:href="#CMSS17-67"/>
     <use transform="translate(115.747785 0)scale(0.996264)" xlink:href="#CMSS17-68"/>
     <use transform="translate(183.290626 0)scale(0.996264)" xlink:href="#CMSS17-70"/>
     <use transform="translate(267.809299 0)scale(0.996264)" xlink:href="#CMSS17-111"/>
     <use transform="translate(314.652922 0)scale(0.996264)" xlink:href="#CMSS17-102"/>
     <use transform="translate(374.508694 0)scale(0.996264)" xlink:href="#CMSS17-70"/>
     <use transform="translate(427.798253 0)scale(0.996264)" xlink:href="#CMSS17-108"/>
     <use transform="translate(449.978976 0)scale(0.996264)" xlink:href="#CMSS17-117"/>
     <use transform="translate(498.183919 0)scale(0.996264)" xlink:href="#CMSS17-101"/>
     <use transform="translate(539.822741 0)scale(0.996264)" xlink:href="#CMSS17-110"/>
     <use transform="translate(588.027684 0)scale(0.996264)" xlink:href="#CMSS17-99"/>
     <use transform="translate(629.666506 0)scale(0.996264)" xlink:href="#CMSS17-101"/>
     <use transform="translate(702.534441 0)scale(0.996264)" xlink:href="#CMSS17-97"/>
     <use transform="translate(747.456362 0)scale(0.996264)" xlink:href="#CMSS17-98"/>
     <use transform="translate(798.263744 0)scale(0.996264)" xlink:href="#CMSS17-111"/>
     <use transform="translate(845.107367 0)scale(0.996264)" xlink:href="#CMSS17-118"/>
     <use transform="translate(888.107509 0)scale(0.996264)" xlink:href="#CMSS17-101"/>
     <use transform="translate(960.975444 0)scale(0.996264)" xlink:href="#CMSS17-73"/>
     <use transform="translate(986.759369 0)scale(0.996264)" xlink:href="#CMSS17-78"/>
     <use transform="translate(1052.820888 0)scale(0.996264)" xlink:href="#CMSS17-84"/>
     <use transform="translate(1116.640342 0)scale(0.996264)" xlink:href="#CMSS17-69"/>
     <use transform="translate(1172.532355 0)scale(0.996264)" xlink:href="#CMSS17-71"/>
     <use transform="translate(1234.990581 0)scale(0.996264)" xlink:href="#CMSS17-82"/>
     <use transform="translate(1295.406736 0)scale(0.996264)" xlink:href="#CMSS17-65"/>
     <use transform="translate(1357.624591 0)scale(0.996264)" xlink:href="#CMSS17-76"/>
     <use transform="translate(1439.540809 0)scale(0.996264)" xlink:href="#CMSS17-108"/>
     <use transform="translate(1461.721532 0)scale(0.996264)" xlink:href="#CMSS17-105"/>
     <use transform="translate(1483.902255 0)scale(0.996264)" xlink:href="#CMSS17-109"/>
     <use transform="translate(1558.131509 0)scale(0.996264)" xlink:href="#CMSS17-105"/>
     <use transform="translate(1580.312232 0)scale(0.996264)" xlink:href="#CMSS17-116"/>
    </g>
   </g>
  </g>
 </g>
 <defs>
  <clipPath id="p639582bda5">
   <rect height="370.62159" width="504.041574" x="66.198426" y="35.067696"/>
  </clipPath>
 </defs>
</svg>
