<?xml version="1.0" encoding="utf-8" standalone="no"?>
<!DOCTYPE svg PUBLIC "-//W3C//DTD SVG 1.1//EN"
  "http://www.w3.org/Graphics/SVG/1.1/DTD/svg11.dtd">
<!-- Created with matplotlib (https://matplotlib.org/) -->
<svg height="451.44pt" version="1.1" viewBox="0 0 634.32 451.44" width="634.32pt" xmlns="http://www.w3.org/2000/svg" xmlns:xlink="http://www.w3.org/1999/xlink">
 <metadata>
  <rdf:RDF xmlns:cc="http://creativecommons.org/ns#" xmlns:dc="http://purl.org/dc/elements/1.1/" xmlns:rdf="http://www.w3.org/1999/02/22-rdf-syntax-ns#">
   <cc:Work>
    <dc:type rdf:resource="http://purl.org/dc/dcmitype/StillImage"/>
    <dc:date>2021-06-04T12:58:03.179498</dc:date>
    <dc:format>image/svg+xml</dc:format>
    <dc:creator>
     <cc:Agent>
      <dc:title>Matplotlib v3.3.2, https://matplotlib.org/</dc:title>
     </cc:Agent>
    </dc:creator>
   </cc:Work>
  </rdf:RDF>
 </metadata>
 <defs>
  <style type="text/css">*{stroke-linecap:butt;stroke-linejoin:round;}</style>
 </defs>
 <g id="figure_1">
  <g id="patch_1">
   <path d="M 0 451.44 
L 634.32 451.44 
L 634.32 0 
L 0 0 
z
" style="fill:#f0f0f0;"/>
  </g>
  <g id="axes_1">
   <g id="patch_2">
    <path d="M 52.185712 146.809887 
L 619.2 146.809887 
L 619.2 45.117498 
L 52.185712 45.117498 
z
" style="fill:#ffffff;"/>
   </g>
   <g id="matplotlib.axis_1">
    <g id="xtick_1">
     <g id="line2d_1">
      <defs>
       <path d="M 0 0 
L 0 6 
" id="mc43d77939f" style="stroke:#262626;stroke-width:0.8;"/>
      </defs>
      <g>
       <use style="fill:#262626;stroke:#262626;stroke-width:0.8;" x="77.957733" xlink:href="#mc43d77939f" y="146.809887"/>
      </g>
     </g>
    </g>
    <g id="xtick_2">
     <g id="line2d_2">
      <g>
       <use style="fill:#262626;stroke:#262626;stroke-width:0.8;" x="181.051741" xlink:href="#mc43d77939f" y="146.809887"/>
      </g>
     </g>
    </g>
    <g id="xtick_3">
     <g id="line2d_3">
      <g>
       <use style="fill:#262626;stroke:#262626;stroke-width:0.8;" x="284.145749" xlink:href="#mc43d77939f" y="146.809887"/>
      </g>
     </g>
    </g>
    <g id="xtick_4">
     <g id="line2d_4">
      <g>
       <use style="fill:#262626;stroke:#262626;stroke-width:0.8;" x="387.239756" xlink:href="#mc43d77939f" y="146.809887"/>
      </g>
     </g>
    </g>
    <g id="xtick_5">
     <g id="line2d_5">
      <g>
       <use style="fill:#262626;stroke:#262626;stroke-width:0.8;" x="490.333764" xlink:href="#mc43d77939f" y="146.809887"/>
      </g>
     </g>
    </g>
    <g id="xtick_6">
     <g id="line2d_6">
      <g>
       <use style="fill:#262626;stroke:#262626;stroke-width:0.8;" x="593.427772" xlink:href="#mc43d77939f" y="146.809887"/>
      </g>
     </g>
    </g>
   </g>
   <g id="matplotlib.axis_2">
    <g id="ytick_1">
     <g id="line2d_7">
      <defs>
       <path d="M 0 0 
L -6 0 
" id="m1fffb08c8d" style="stroke:#262626;stroke-width:0.8;"/>
      </defs>
      <g>
       <use style="fill:#262626;stroke:#262626;stroke-width:0.8;" x="52.185712" xlink:href="#m1fffb08c8d" y="146.809887"/>
      </g>
     </g>
     <g id="text_1">
      <!-- $\mathdefault{0}$ -->
      <g style="fill:#262626;" transform="translate(35.857223 151.652825)scale(0.14 -0.14)">
       <defs>
        <path d="M 42 31.84375 
C 42 37.96875 41.90625 48.421875 37.703125 56.453125 
C 34 63.484375 28.09375 66 22.90625 66 
C 18.09375 66 12 63.78125 8.203125 56.5625 
C 4.203125 49.015625 3.796875 39.671875 3.796875 31.84375 
C 3.796875 26.109375 3.90625 17.375 7 9.734375 
C 11.296875 -0.609375 19 -2 22.90625 -2 
C 27.5 -2 34.5 -0.109375 38.59375 9.4375 
C 41.59375 16.375 42 24.5 42 31.84375 
z
M 22.90625 -0.40625 
C 16.5 -0.40625 12.703125 5.125 11.296875 12.75 
C 10.203125 18.6875 10.203125 27.328125 10.203125 32.953125 
C 10.203125 40.6875 10.203125 47.109375 11.5 53.234375 
C 13.40625 61.78125 19 64.390625 22.90625 64.390625 
C 27 64.390625 32.296875 61.671875 34.203125 53.4375 
C 35.5 47.71875 35.59375 40.984375 35.59375 32.953125 
C 35.59375 26.421875 35.59375 18.375 34.40625 12.453125 
C 32.296875 1.5 26.40625 -0.40625 22.90625 -0.40625 
z
" id="CMR17-48"/>
       </defs>
       <use transform="scale(0.996264)" xlink:href="#CMR17-48"/>
      </g>
     </g>
    </g>
    <g id="ytick_2">
     <g id="line2d_8">
      <g>
       <use style="fill:#262626;stroke:#262626;stroke-width:0.8;" x="52.185712" xlink:href="#m1fffb08c8d" y="106.941417"/>
      </g>
     </g>
     <g id="text_2">
      <!-- $\mathdefault{1}$ -->
      <g style="fill:#262626;" transform="translate(35.857223 111.784355)scale(0.14 -0.14)">
       <defs>
        <path d="M 26.59375 63.796875 
C 26.59375 65.890625 26.5 66 25.09375 66 
C 21.203125 61.359375 15.296875 59.890625 9.703125 59.6875 
C 9.40625 59.6875 8.90625 59.6875 8.796875 59.5 
C 8.703125 59.296875 8.703125 59.09375 8.703125 57 
C 11.796875 57 17 57.59375 21 59.984375 
L 21 7.296875 
C 21 3.796875 20.796875 2.59375 12.203125 2.59375 
L 9.203125 2.59375 
L 9.203125 0 
C 14 0.09375 19 0.1875 23.796875 0.1875 
C 28.59375 0.1875 33.59375 0.09375 38.40625 0 
L 38.40625 2.59375 
L 35.40625 2.59375 
C 26.796875 2.59375 26.59375 3.6875 26.59375 7.296875 
z
" id="CMR17-49"/>
       </defs>
       <use transform="scale(0.996264)" xlink:href="#CMR17-49"/>
      </g>
     </g>
    </g>
    <g id="ytick_3">
     <g id="line2d_9">
      <g>
       <use style="fill:#262626;stroke:#262626;stroke-width:0.8;" x="52.185712" xlink:href="#m1fffb08c8d" y="67.072947"/>
      </g>
     </g>
     <g id="text_3">
      <!-- $\mathdefault{2}$ -->
      <g style="fill:#262626;" transform="translate(35.857223 71.915886)scale(0.14 -0.14)">
       <defs>
        <path d="M 41.703125 15.46875 
L 39.90625 15.46875 
C 38.90625 8.390625 38.09375 7.1875 37.703125 6.59375 
C 37.203125 5.796875 30 5.796875 28.59375 5.796875 
L 9.40625 5.796875 
C 13 9.6875 20 16.765625 28.5 24.9375 
C 34.59375 30.71875 41.703125 37.5 41.703125 47.390625 
C 41.703125 59.1875 32.296875 66 21.796875 66 
C 10.796875 66 4.09375 56.296875 4.09375 47.296875 
C 4.09375 43.390625 7 42.890625 8.203125 42.890625 
C 9.203125 42.890625 12.203125 43.484375 12.203125 46.984375 
C 12.203125 50.09375 9.59375 51 8.203125 51 
C 7.59375 51 7 50.890625 6.59375 50.6875 
C 8.5 59.1875 14.296875 63.390625 20.40625 63.390625 
C 29.09375 63.390625 34.796875 56.5 34.796875 47.390625 
C 34.796875 38.703125 29.703125 31.21875 24 24.734375 
L 4.09375 2.296875 
L 4.09375 0 
L 39.296875 0 
z
" id="CMR17-50"/>
       </defs>
       <use transform="scale(0.996264)" xlink:href="#CMR17-50"/>
      </g>
     </g>
    </g>
    <g id="text_4">
     <!-- $\mathcal{P}(\chi_{BH})$ -->
     <g style="fill:#262626;" transform="translate(27.672917 124.31114)rotate(-90)scale(0.168 -0.168)">
      <defs>
       <path d="M 34.796875 68 
C 20.703125 68 10 61.203125 5.90625 56.546875 
C 2.40625 52.59375 2.09375 49.734375 2.09375 49.53125 
C 2.09375 48.9375 2.5 48.734375 3.09375 48.734375 
C 4.703125 48.734375 7 50.125 7.796875 50.625 
C 9.90625 52 10.203125 52.59375 10.796875 54.484375 
C 12.203125 58.4375 15 61.890625 27.59375 62.484375 
C 25.796875 40.234375 19.796875 18.484375 11.40625 -2.5 
C 10.796875 -4 10.796875 -4.203125 10.796875 -4.3125 
C 10.796875 -4.609375 11.09375 -5 11.796875 -5 
C 13.40625 -5 18.203125 -2.8125 19.296875 -0.203125 
C 24.5 12.046875 32.703125 35 35.703125 62.484375 
L 40.90625 62.484375 
C 53.09375 62.484375 64.796875 57.84375 64.796875 47.953125 
C 64.796875 40.53125 57.59375 26.6875 38.203125 26.09375 
C 36.09375 26 35 26 32.203125 24.1875 
C 30.40625 22.984375 29.59375 21.890625 29.59375 21.296875 
C 29.59375 20.59375 30.203125 20.59375 31.5 20.59375 
C 49.703125 20.59375 73.296875 35.890625 73.296875 52.203125 
C 73.296875 63.484375 59.796875 68 48.203125 68 
z
" id="CMSY10-80"/>
       <path d="M 30.59375 -24.40625 
C 30.59375 -24.3125 30.59375 -24.109375 30.296875 -23.8125 
C 25.703125 -19.109375 13.40625 -6.296875 13.40625 24.9375 
C 13.40625 56.171875 25.5 68.875 30.40625 73.890625 
C 30.40625 73.984375 30.59375 74.1875 30.59375 74.484375 
C 30.59375 74.796875 30.296875 75 29.90625 75 
C 28.796875 75 20.296875 67.578125 15.40625 56.5625 
C 10.40625 45.453125 9 34.65625 9 25.046875 
C 9 17.828125 9.703125 5.625 15.703125 -7.296875 
C 20.5 -17.703125 28.703125 -25 29.90625 -25 
C 30.40625 -25 30.59375 -24.8125 30.59375 -24.40625 
z
" id="CMR17-40"/>
       <path d="M 33 16.171875 
C 30.296875 24.40625 30.90625 23.609375 28.40625 30.5625 
C 25.296875 39.109375 24.5 39.796875 23.09375 41.1875 
C 21.296875 42.796875 17.90625 44 14.40625 44 
C 8.796875 44 6.09375 38.8125 6.09375 37.515625 
C 6.09375 36.921875 6.59375 36.625 7.203125 36.625 
C 8 36.625 8.203125 37.125 8.296875 37.515625 
C 9.796875 41.390625 12.90625 41.984375 13.796875 41.984375 
C 16.703125 41.984375 19.5 34.84375 21.296875 30.078125 
C 23.703125 24.015625 24.90625 19.84375 27.59375 10.203125 
L 4 -16.40625 
C 3.09375 -17.5 3.09375 -17.90625 3.09375 -18 
C 3.09375 -18.8125 3.59375 -19 4 -19 
C 4.40625 -19 4.703125 -18.8125 5 -18.5 
C 7.796875 -15.71875 14 -8.359375 16.59375 -5.390625 
L 28.203125 7.71875 
C 33.09375 -7.484375 33.09375 -7.671875 34.59375 -11.359375 
C 36.203125 -15.125 38.296875 -20 46.796875 -20 
C 52.5 -20 55.09375 -14.921875 55.09375 -13.53125 
C 55.09375 -12.84375 54.5 -12.640625 54 -12.640625 
C 53.203125 -12.640625 53.09375 -13.046875 52.796875 -13.84375 
C 51.703125 -16.625 49.09375 -18 47.5 -18 
C 46.203125 -18 44.59375 -18 40.203125 -6.984375 
C 37.59375 -0.328125 35.296875 7.609375 33.59375 13.78125 
L 57.296875 40.59375 
C 58.09375 41.484375 58.203125 41.59375 58.203125 41.984375 
C 58.203125 42.6875 57.703125 43 57.203125 43 
C 56.90625 43 56.59375 43 55.59375 41.890625 
z
" id="CMMI12-31"/>
       <path d="M 36.59375 61.171875 
C 37.5 64.890625 37.90625 65.09375 41.796875 65.09375 
L 54.796875 65.09375 
C 66.09375 65.09375 66.09375 55.421875 66.09375 54.515625 
C 66.09375 46.359375 58 36 44.796875 36 
L 30.40625 36 
z
M 53.5 35.1875 
C 64.40625 37.203125 74.296875 44.859375 74.296875 54.109375 
C 74.296875 61.96875 67.40625 68 56.09375 68 
L 24 68 
C 22.09375 68 21.203125 68 21.203125 66.09375 
C 21.203125 65.09375 22.09375 65.09375 23.59375 65.09375 
C 29.703125 65.09375 29.703125 64.28125 29.703125 63.171875 
C 29.703125 62.984375 29.703125 62.375 29.296875 60.859375 
L 15.796875 7.328125 
C 14.90625 3.875 14.703125 2.890625 7.703125 2.890625 
C 5.796875 2.890625 4.796875 2.890625 4.796875 1.09375 
C 4.796875 0 5.40625 0 7.40625 0 
L 41.703125 0 
C 57 0 68.796875 11.453125 68.796875 21.390625 
C 68.796875 29.46875 61.59375 34.390625 53.5 35.1875 
z
M 39.296875 2.890625 
L 25.796875 2.890625 
C 24.40625 2.890625 24.203125 2.890625 23.59375 2.984375 
C 22.5 3.09375 22.40625 3.28125 22.40625 4.078125 
C 22.40625 4.765625 22.59375 5.359375 22.796875 6.234375 
L 29.796875 34 
L 48.59375 34 
C 60.40625 34 60.40625 23.171875 60.40625 22.375 
C 60.40625 12.9375 51.703125 2.890625 39.296875 2.890625 
z
" id="CMMI12-66"/>
       <path d="M 74.796875 60.71875 
C 75.703125 64.09375 75.90625 65.09375 83 65.09375 
C 84.796875 65.09375 85.796875 65.09375 85.796875 66.890625 
C 85.796875 68 84.90625 68 84.296875 68 
C 82.5 68 80.40625 67.796875 78.5 67.796875 
L 66.703125 67.796875 
C 64.796875 67.796875 62.703125 68 60.796875 68 
C 60.09375 68 58.90625 68 58.90625 66.09375 
C 58.90625 65.09375 59.59375 65.09375 61.5 65.09375 
C 67.5 65.09375 67.5 64.296875 67.5 63.203125 
C 67.5 63 67.5 62.40625 67.09375 60.921875 
L 61 36.890625 
L 30.796875 36.890625 
L 36.796875 60.71875 
C 37.703125 64.09375 37.90625 65.09375 45 65.09375 
C 46.796875 65.09375 47.796875 65.09375 47.796875 66.890625 
C 47.796875 68 46.90625 68 46.296875 68 
C 44.5 68 42.40625 67.796875 40.5 67.796875 
L 28.703125 67.796875 
C 26.796875 67.796875 24.703125 68 22.796875 68 
C 22.09375 68 20.90625 68 20.90625 66.09375 
C 20.90625 65.09375 21.59375 65.09375 23.5 65.09375 
C 29.5 65.09375 29.5 64.296875 29.5 63.203125 
C 29.5 63 29.5 62.40625 29.09375 60.921875 
L 15.59375 7.375 
C 14.703125 3.890625 14.5 2.890625 7.59375 2.890625 
C 5.296875 2.890625 4.59375 2.890625 4.59375 1 
C 4.59375 0 5.703125 0 6 0 
C 7.796875 0 9.90625 0.1875 11.796875 0.1875 
L 23.59375 0.1875 
C 25.5 0.1875 27.59375 0 29.5 0 
C 30.296875 0 31.40625 0 31.40625 1.890625 
C 31.40625 2.890625 30.5 2.890625 29 2.890625 
C 22.90625 2.890625 22.90625 3.6875 22.90625 4.6875 
C 22.90625 4.78125 22.90625 5.484375 23.09375 6.28125 
L 30 34 
L 60.296875 34 
C 58.59375 27.421875 53.5 6.578125 53.296875 5.984375 
C 52.203125 2.984375 50.59375 2.984375 44.703125 2.890625 
C 43.5 2.890625 42.59375 2.890625 42.59375 1 
C 42.59375 0 43.703125 0 44 0 
C 45.796875 0 47.90625 0.1875 49.796875 0.1875 
L 61.59375 0.1875 
C 63.5 0.1875 65.59375 0 67.5 0 
C 68.296875 0 69.40625 0 69.40625 1.890625 
C 69.40625 2.890625 68.5 2.890625 67 2.890625 
C 60.90625 2.890625 60.90625 3.6875 60.90625 4.6875 
C 60.90625 4.78125 60.90625 5.484375 61.09375 6.28125 
z
" id="CMMI12-72"/>
       <path d="M 26.296875 24.9375 
C 26.296875 32.140625 25.59375 44.359375 19.59375 57.265625 
C 14.796875 67.6875 6.59375 75 5.40625 75 
C 5.09375 75 4.703125 74.890625 4.703125 74.390625 
C 4.703125 74.1875 4.796875 74.09375 4.90625 73.890625 
C 9.703125 68.875 21.90625 56.171875 21.90625 25.046875 
C 21.90625 -6.1875 9.796875 -18.90625 4.90625 -23.90625 
C 4.796875 -24.109375 4.703125 -24.203125 4.703125 -24.40625 
C 4.703125 -24.90625 5.09375 -25 5.40625 -25 
C 6.5 -25 15 -17.609375 19.90625 -6.59375 
C 24.90625 4.515625 26.296875 15.328125 26.296875 24.9375 
z
" id="CMR17-41"/>
      </defs>
      <use transform="scale(0.996264)" xlink:href="#CMSY10-80"/>
      <use transform="translate(77.487559 0)scale(0.996264)" xlink:href="#CMR17-40"/>
      <use transform="translate(112.768327 0)scale(0.996264)" xlink:href="#CMMI12-31"/>
      <use transform="translate(173.881286 -14.943915)scale(0.697382)" xlink:href="#CMMI12-66"/>
      <use transform="translate(229.275912 -14.943915)scale(0.697382)" xlink:href="#CMMI12-72"/>
      <use transform="translate(291.739002 0)scale(0.996264)" xlink:href="#CMR17-41"/>
     </g>
    </g>
   </g>
   <g id="patch_3">
    <path clip-path="url(#pfca689deac)" d="M 77.959089 146.809887 
L 88.082882 146.809887 
L 88.082882 89.118124 
L 77.959089 89.118124 
z
" style="fill:#008fd5;"/>
   </g>
   <g id="patch_4">
    <path clip-path="url(#pfca689deac)" d="M 88.082882 146.809887 
L 98.206675 146.809887 
L 98.206675 83.535705 
L 88.082882 83.535705 
z
" style="fill:#008fd5;"/>
   </g>
   <g id="patch_5">
    <path clip-path="url(#pfca689deac)" d="M 98.206675 146.809887 
L 108.330468 146.809887 
L 108.330468 74.989529 
L 98.206675 74.989529 
z
" style="fill:#008fd5;"/>
   </g>
   <g id="patch_6">
    <path clip-path="url(#pfca689deac)" d="M 108.330468 146.809887 
L 118.454261 146.809887 
L 118.454261 70.036401 
L 108.330468 70.036401 
z
" style="fill:#008fd5;"/>
   </g>
   <g id="patch_7">
    <path clip-path="url(#pfca689deac)" d="M 118.454261 146.809887 
L 128.578054 146.809887 
L 128.578054 65.874962 
L 118.454261 65.874962 
z
" style="fill:#008fd5;"/>
   </g>
   <g id="patch_8">
    <path clip-path="url(#pfca689deac)" d="M 128.578054 146.809887 
L 138.701847 146.809887 
L 138.701847 60.901534 
L 128.578054 60.901534 
z
" style="fill:#008fd5;"/>
   </g>
   <g id="patch_9">
    <path clip-path="url(#pfca689deac)" d="M 138.701847 146.809887 
L 148.82564 146.809887 
L 148.82564 59.703851 
L 138.701847 59.703851 
z
" style="fill:#008fd5;"/>
   </g>
   <g id="patch_10">
    <path clip-path="url(#pfca689deac)" d="M 148.82564 146.809887 
L 158.949433 146.809887 
L 158.949433 55.725109 
L 148.82564 55.725109 
z
" style="fill:#008fd5;"/>
   </g>
   <g id="patch_11">
    <path clip-path="url(#pfca689deac)" d="M 158.949433 146.809887 
L 169.073226 146.809887 
L 169.073226 53.025248 
L 158.949433 53.025248 
z
" style="fill:#008fd5;"/>
   </g>
   <g id="patch_12">
    <path clip-path="url(#pfca689deac)" d="M 169.073226 146.809887 
L 179.197019 146.809887 
L 179.197019 52.416257 
L 169.073226 52.416257 
z
" style="fill:#008fd5;"/>
   </g>
   <g id="patch_13">
    <path clip-path="url(#pfca689deac)" d="M 179.197019 146.809887 
L 189.320812 146.809887 
L 189.320812 49.959993 
L 179.197019 49.959993 
z
" style="fill:#008fd5;"/>
   </g>
   <g id="patch_14">
    <path clip-path="url(#pfca689deac)" d="M 189.320812 146.809887 
L 199.444605 146.809887 
L 199.444605 50.751681 
L 189.320812 50.751681 
z
" style="fill:#008fd5;"/>
   </g>
   <g id="patch_15">
    <path clip-path="url(#pfca689deac)" d="M 199.444605 146.809887 
L 209.568398 146.809887 
L 209.568398 55.359714 
L 199.444605 55.359714 
z
" style="fill:#008fd5;"/>
   </g>
   <g id="patch_16">
    <path clip-path="url(#pfca689deac)" d="M 209.568398 146.809887 
L 219.692192 146.809887 
L 219.692192 57.105489 
L 209.568398 57.105489 
z
" style="fill:#008fd5;"/>
   </g>
   <g id="patch_17">
    <path clip-path="url(#pfca689deac)" d="M 219.692192 146.809887 
L 229.815985 146.809887 
L 229.815985 60.312842 
L 219.692192 60.312842 
z
" style="fill:#008fd5;"/>
   </g>
   <g id="patch_18">
    <path clip-path="url(#pfca689deac)" d="M 229.815985 146.809887 
L 239.939778 146.809887 
L 239.939778 64.717878 
L 229.815985 64.717878 
z
" style="fill:#008fd5;"/>
   </g>
   <g id="patch_19">
    <path clip-path="url(#pfca689deac)" d="M 239.939778 146.809887 
L 250.063571 146.809887 
L 250.063571 69.508609 
L 239.939778 69.508609 
z
" style="fill:#008fd5;"/>
   </g>
   <g id="patch_20">
    <path clip-path="url(#pfca689deac)" d="M 250.063571 146.809887 
L 260.187364 146.809887 
L 260.187364 74.847431 
L 250.063571 74.847431 
z
" style="fill:#008fd5;"/>
   </g>
   <g id="patch_21">
    <path clip-path="url(#pfca689deac)" d="M 260.187364 146.809887 
L 270.311157 146.809887 
L 270.311157 78.35928 
L 260.187364 78.35928 
z
" style="fill:#008fd5;"/>
   </g>
   <g id="patch_22">
    <path clip-path="url(#pfca689deac)" d="M 270.311157 146.809887 
L 280.43495 146.809887 
L 280.43495 86.844557 
L 270.311157 86.844557 
z
" style="fill:#008fd5;"/>
   </g>
   <g id="patch_23">
    <path clip-path="url(#pfca689deac)" d="M 280.43495 146.809887 
L 290.558743 146.809887 
L 290.558743 90.336106 
L 280.43495 90.336106 
z
" style="fill:#008fd5;"/>
   </g>
   <g id="patch_24">
    <path clip-path="url(#pfca689deac)" d="M 290.558743 146.809887 
L 300.682536 146.809887 
L 300.682536 96.202721 
L 290.558743 96.202721 
z
" style="fill:#008fd5;"/>
   </g>
   <g id="patch_25">
    <path clip-path="url(#pfca689deac)" d="M 300.682536 146.809887 
L 310.806329 146.809887 
L 310.806329 101.11525 
L 300.682536 101.11525 
z
" style="fill:#008fd5;"/>
   </g>
   <g id="patch_26">
    <path clip-path="url(#pfca689deac)" d="M 310.806329 146.809887 
L 320.930122 146.809887 
L 320.930122 106.068378 
L 310.806329 106.068378 
z
" style="fill:#008fd5;"/>
   </g>
   <g id="patch_27">
    <path clip-path="url(#pfca689deac)" d="M 320.930122 146.809887 
L 331.053915 146.809887 
L 331.053915 111.265103 
L 320.930122 111.265103 
z
" style="fill:#008fd5;"/>
   </g>
   <g id="patch_28">
    <path clip-path="url(#pfca689deac)" d="M 331.053915 146.809887 
L 341.177708 146.809887 
L 341.177708 116.096433 
L 331.053915 116.096433 
z
" style="fill:#008fd5;"/>
   </g>
   <g id="patch_29">
    <path clip-path="url(#pfca689deac)" d="M 341.177708 146.809887 
L 351.301501 146.809887 
L 351.301501 120.846564 
L 341.177708 120.846564 
z
" style="fill:#008fd5;"/>
   </g>
   <g id="patch_30">
    <path clip-path="url(#pfca689deac)" d="M 351.301501 146.809887 
L 361.425295 146.809887 
L 361.425295 124.256914 
L 351.301501 124.256914 
z
" style="fill:#008fd5;"/>
   </g>
   <g id="patch_31">
    <path clip-path="url(#pfca689deac)" d="M 361.425295 146.809887 
L 371.549088 146.809887 
L 371.549088 127.849962 
L 361.425295 127.849962 
z
" style="fill:#008fd5;"/>
   </g>
   <g id="patch_32">
    <path clip-path="url(#pfca689deac)" d="M 371.549088 146.809887 
L 381.672881 146.809887 
L 381.672881 131.138514 
L 371.549088 131.138514 
z
" style="fill:#008fd5;"/>
   </g>
   <g id="patch_33">
    <path clip-path="url(#pfca689deac)" d="M 381.672881 146.809887 
L 391.796674 146.809887 
L 391.796674 133.655678 
L 381.672881 133.655678 
z
" style="fill:#008fd5;"/>
   </g>
   <g id="patch_34">
    <path clip-path="url(#pfca689deac)" d="M 391.796674 146.809887 
L 401.920467 146.809887 
L 401.920467 136.172841 
L 391.796674 136.172841 
z
" style="fill:#008fd5;"/>
   </g>
   <g id="patch_35">
    <path clip-path="url(#pfca689deac)" d="M 401.920467 146.809887 
L 412.04426 146.809887 
L 412.04426 137.898316 
L 401.920467 137.898316 
z
" style="fill:#008fd5;"/>
   </g>
   <g id="patch_36">
    <path clip-path="url(#pfca689deac)" d="M 412.04426 146.809887 
L 422.168053 146.809887 
L 422.168053 139.70499 
L 412.04426 139.70499 
z
" style="fill:#008fd5;"/>
   </g>
   <g id="patch_37">
    <path clip-path="url(#pfca689deac)" d="M 422.168053 146.809887 
L 432.291846 146.809887 
L 432.291846 141.04477 
L 422.168053 141.04477 
z
" style="fill:#008fd5;"/>
   </g>
   <g id="patch_38">
    <path clip-path="url(#pfca689deac)" d="M 432.291846 146.809887 
L 442.415639 146.809887 
L 442.415639 142.303352 
L 432.291846 142.303352 
z
" style="fill:#008fd5;"/>
   </g>
   <g id="patch_39">
    <path clip-path="url(#pfca689deac)" d="M 442.415639 146.809887 
L 452.539432 146.809887 
L 452.539432 143.501035 
L 442.415639 143.501035 
z
" style="fill:#008fd5;"/>
   </g>
   <g id="patch_40">
    <path clip-path="url(#pfca689deac)" d="M 452.539432 146.809887 
L 462.663225 146.809887 
L 462.663225 144.272423 
L 452.539432 144.272423 
z
" style="fill:#008fd5;"/>
   </g>
   <g id="patch_41">
    <path clip-path="url(#pfca689deac)" d="M 462.663225 146.809887 
L 472.787018 146.809887 
L 472.787018 144.739317 
L 462.663225 144.739317 
z
" style="fill:#008fd5;"/>
   </g>
   <g id="patch_42">
    <path clip-path="url(#pfca689deac)" d="M 472.787018 146.809887 
L 482.910811 146.809887 
L 482.910811 144.982913 
L 472.787018 144.982913 
z
" style="fill:#008fd5;"/>
   </g>
   <g id="patch_43">
    <path clip-path="url(#pfca689deac)" d="M 482.910811 146.809887 
L 493.034604 146.809887 
L 493.034604 145.591904 
L 482.910811 145.591904 
z
" style="fill:#008fd5;"/>
   </g>
   <g id="patch_44">
    <path clip-path="url(#pfca689deac)" d="M 493.034604 146.809887 
L 503.158398 146.809887 
L 503.158398 146.058798 
L 493.034604 146.058798 
z
" style="fill:#008fd5;"/>
   </g>
   <g id="patch_45">
    <path clip-path="url(#pfca689deac)" d="M 503.158398 146.809887 
L 513.282191 146.809887 
L 513.282191 146.180596 
L 503.158398 146.180596 
z
" style="fill:#008fd5;"/>
   </g>
   <g id="patch_46">
    <path clip-path="url(#pfca689deac)" d="M 513.282191 146.809887 
L 523.405984 146.809887 
L 523.405984 146.383593 
L 513.282191 146.383593 
z
" style="fill:#008fd5;"/>
   </g>
   <g id="patch_47">
    <path clip-path="url(#pfca689deac)" d="M 523.405984 146.809887 
L 533.529777 146.809887 
L 533.529777 146.60689 
L 523.405984 146.60689 
z
" style="fill:#008fd5;"/>
   </g>
   <g id="patch_48">
    <path clip-path="url(#pfca689deac)" d="M 533.529777 146.809887 
L 543.65357 146.809887 
L 543.65357 146.54599 
L 533.529777 146.54599 
z
" style="fill:#008fd5;"/>
   </g>
   <g id="patch_49">
    <path clip-path="url(#pfca689deac)" d="M 543.65357 146.809887 
L 553.777363 146.809887 
L 553.777363 146.56629 
L 543.65357 146.56629 
z
" style="fill:#008fd5;"/>
   </g>
   <g id="patch_50">
    <path clip-path="url(#pfca689deac)" d="M 553.777363 146.809887 
L 563.901156 146.809887 
L 563.901156 146.58659 
L 553.777363 146.58659 
z
" style="fill:#008fd5;"/>
   </g>
   <g id="patch_51">
    <path clip-path="url(#pfca689deac)" d="M 563.901156 146.809887 
L 574.024949 146.809887 
L 574.024949 146.708388 
L 563.901156 146.708388 
z
" style="fill:#008fd5;"/>
   </g>
   <g id="patch_52">
    <path clip-path="url(#pfca689deac)" d="M 574.024949 146.809887 
L 584.148742 146.809887 
L 584.148742 146.748988 
L 574.024949 146.748988 
z
" style="fill:#008fd5;"/>
   </g>
   <g id="patch_53">
    <path d="M 52.185712 146.809887 
L 52.185712 45.117498 
" style="fill:none;stroke:#262626;stroke-linecap:square;stroke-linejoin:miter;stroke-width:1.25;"/>
   </g>
   <g id="patch_54">
    <path d="M 619.2 146.809887 
L 619.2 45.117498 
" style="fill:none;stroke:#262626;stroke-linecap:square;stroke-linejoin:miter;stroke-width:1.25;"/>
   </g>
   <g id="patch_55">
    <path d="M 52.185712 146.809887 
L 619.2 146.809887 
" style="fill:none;stroke:#262626;stroke-linecap:square;stroke-linejoin:miter;stroke-width:1.25;"/>
   </g>
   <g id="patch_56">
    <path d="M 52.185712 45.117498 
L 619.2 45.117498 
" style="fill:none;stroke:#262626;stroke-linecap:square;stroke-linejoin:miter;stroke-width:1.25;"/>
   </g>
   <g id="text_5">
    <!-- $\mu=0.2$ -->
    <g style="fill:#262626;" transform="translate(562.498571 70.540595)scale(0.15 -0.15)">
     <defs>
      <path d="M 14.40625 2.1875 
C 16.90625 -0.109375 20.59375 -1 24 -1 
C 30.40625 -1 34.796875 3.28125 37.09375 6.375 
C 38.09375 1.09375 42.296875 -1 45.796875 -1 
C 48.796875 -1 51.203125 0.796875 53 4.390625 
C 54.59375 7.78125 56 13.859375 56 14.265625 
C 56 14.75 55.59375 15.15625 55 15.15625 
C 54.09375 15.15625 54 14.65625 53.59375 13.15625 
C 52.09375 7.28125 50.203125 1 46.09375 1 
C 43.203125 1 43 3.578125 43 5.578125 
C 43 7.875 43.90625 11.46875 44.59375 14.453125 
L 47.40625 25.234375 
C 47.796875 27.125 48.90625 31.609375 49.40625 33.40625 
C 50 35.796875 51.09375 40.09375 51.09375 40.484375 
C 51.09375 41.984375 49.90625 43 48.40625 43 
C 47.5 43 45.40625 42.59375 44.59375 39.59375 
L 37.59375 11.859375 
C 37.09375 9.875 37.09375 9.671875 35.796875 8.078125 
C 34.59375 6.375 30.703125 1 24.40625 1 
C 18.796875 1 17 5.078125 17 9.765625 
C 17 12.671875 17.90625 16.15625 18.296875 17.859375 
L 22.796875 35.8125 
C 23.296875 37.703125 24.09375 40.890625 24.09375 41.5 
C 24.09375 43.09375 22.796875 44 21.5 44 
C 20.59375 44 18.40625 43.6875 17.59375 40.5 
L 3.09375 -16.953125 
C 3 -17.4375 2.796875 -18.03125 2.796875 -18.609375 
C 2.796875 -20.109375 4 -21.109375 5.5 -21.109375 
C 8.40625 -21.109375 9 -18.8125 9.703125 -16.078125 
z
" id="CMMI12-22"/>
      <path d="M 64.296875 32 
C 65.796875 32 67.296875 32 67.296875 33.6875 
C 67.296875 35.5 65.59375 35.5 63.90625 35.5 
L 8 35.5 
C 6.296875 35.5 4.59375 35.5 4.59375 33.6875 
C 4.59375 32 6.09375 32 7.59375 32 
z
M 63.90625 14.484375 
C 65.59375 14.484375 67.296875 14.484375 67.296875 16.296875 
C 67.296875 18 65.796875 18 64.296875 18 
L 7.59375 18 
C 6.09375 18 4.59375 18 4.59375 16.296875 
C 4.59375 14.484375 6.296875 14.484375 8 14.484375 
z
" id="CMR17-61"/>
      <path d="M 18.40625 4.796875 
C 18.40625 7.6875 16 9.6875 13.59375 9.6875 
C 10.703125 9.6875 8.703125 7.296875 8.703125 4.890625 
C 8.703125 2 11.09375 0 13.5 0 
C 16.40625 0 18.40625 2.390625 18.40625 4.796875 
z
" id="CMMI12-58"/>
     </defs>
     <use transform="scale(0.996264)" xlink:href="#CMMI12-22"/>
     <use transform="translate(86.36543 0)scale(0.996264)" xlink:href="#CMR17-61"/>
     <use transform="translate(185.754227 0)scale(0.996264)" xlink:href="#CMR17-48"/>
     <use transform="translate(231.444704 0)scale(0.996264)" xlink:href="#CMMI12-58"/>
     <use transform="translate(258.541882 0)scale(0.996264)" xlink:href="#CMR17-50"/>
    </g>
   </g>
  </g>
  <g id="axes_2">
   <g id="patch_57">
    <path d="M 52.185712 271.177242 
L 619.2 271.177242 
L 619.2 169.484853 
L 52.185712 169.484853 
z
" style="fill:#ffffff;"/>
   </g>
   <g id="matplotlib.axis_3">
    <g id="xtick_7">
     <g id="line2d_10">
      <g>
       <use style="fill:#262626;stroke:#262626;stroke-width:0.8;" x="77.957733" xlink:href="#mc43d77939f" y="271.177242"/>
      </g>
     </g>
    </g>
    <g id="xtick_8">
     <g id="line2d_11">
      <g>
       <use style="fill:#262626;stroke:#262626;stroke-width:0.8;" x="181.051741" xlink:href="#mc43d77939f" y="271.177242"/>
      </g>
     </g>
    </g>
    <g id="xtick_9">
     <g id="line2d_12">
      <g>
       <use style="fill:#262626;stroke:#262626;stroke-width:0.8;" x="284.145749" xlink:href="#mc43d77939f" y="271.177242"/>
      </g>
     </g>
    </g>
    <g id="xtick_10">
     <g id="line2d_13">
      <g>
       <use style="fill:#262626;stroke:#262626;stroke-width:0.8;" x="387.239756" xlink:href="#mc43d77939f" y="271.177242"/>
      </g>
     </g>
    </g>
    <g id="xtick_11">
     <g id="line2d_14">
      <g>
       <use style="fill:#262626;stroke:#262626;stroke-width:0.8;" x="490.333764" xlink:href="#mc43d77939f" y="271.177242"/>
      </g>
     </g>
    </g>
    <g id="xtick_12">
     <g id="line2d_15">
      <g>
       <use style="fill:#262626;stroke:#262626;stroke-width:0.8;" x="593.427772" xlink:href="#mc43d77939f" y="271.177242"/>
      </g>
     </g>
    </g>
   </g>
   <g id="matplotlib.axis_4">
    <g id="ytick_4">
     <g id="line2d_16">
      <g>
       <use style="fill:#262626;stroke:#262626;stroke-width:0.8;" x="52.185712" xlink:href="#m1fffb08c8d" y="271.177242"/>
      </g>
     </g>
     <g id="text_6">
      <!-- $\mathdefault{0}$ -->
      <g style="fill:#262626;" transform="translate(35.857223 276.02018)scale(0.14 -0.14)">
       <use transform="scale(0.996264)" xlink:href="#CMR17-48"/>
      </g>
     </g>
    </g>
    <g id="ytick_5">
     <g id="line2d_17">
      <g>
       <use style="fill:#262626;stroke:#262626;stroke-width:0.8;" x="52.185712" xlink:href="#m1fffb08c8d" y="224.883474"/>
      </g>
     </g>
     <g id="text_7">
      <!-- $\mathdefault{1}$ -->
      <g style="fill:#262626;" transform="translate(35.857223 229.726412)scale(0.14 -0.14)">
       <use transform="scale(0.996264)" xlink:href="#CMR17-49"/>
      </g>
     </g>
    </g>
    <g id="ytick_6">
     <g id="line2d_18">
      <g>
       <use style="fill:#262626;stroke:#262626;stroke-width:0.8;" x="52.185712" xlink:href="#m1fffb08c8d" y="178.589706"/>
      </g>
     </g>
     <g id="text_8">
      <!-- $\mathdefault{2}$ -->
      <g style="fill:#262626;" transform="translate(35.857223 183.432644)scale(0.14 -0.14)">
       <use transform="scale(0.996264)" xlink:href="#CMR17-50"/>
      </g>
     </g>
    </g>
    <g id="text_9">
     <!-- $\mathcal{P}(\chi_{BH})$ -->
     <g style="fill:#262626;" transform="translate(27.672917 248.678495)rotate(-90)scale(0.168 -0.168)">
      <use transform="scale(0.996264)" xlink:href="#CMSY10-80"/>
      <use transform="translate(77.487559 0)scale(0.996264)" xlink:href="#CMR17-40"/>
      <use transform="translate(112.768327 0)scale(0.996264)" xlink:href="#CMMI12-31"/>
      <use transform="translate(173.881286 -14.943915)scale(0.697382)" xlink:href="#CMMI12-66"/>
      <use transform="translate(229.275912 -14.943915)scale(0.697382)" xlink:href="#CMMI12-72"/>
      <use transform="translate(291.739002 0)scale(0.996264)" xlink:href="#CMR17-41"/>
     </g>
    </g>
   </g>
   <g id="patch_58">
    <path clip-path="url(#p1dcdf7e516)" d="M 77.960028 271.177242 
L 88.269074 271.177242 
L 88.269074 266.594001 
L 77.960028 266.594001 
z
" style="fill:#6d904f;"/>
   </g>
   <g id="patch_59">
    <path clip-path="url(#p1dcdf7e516)" d="M 88.269074 271.177242 
L 98.57812 271.177242 
L 98.57812 265.320879 
L 88.269074 265.320879 
z
" style="fill:#6d904f;"/>
   </g>
   <g id="patch_60">
    <path clip-path="url(#p1dcdf7e516)" d="M 98.57812 271.177242 
L 108.887166 271.177242 
L 108.887166 264.533858 
L 98.57812 264.533858 
z
" style="fill:#6d904f;"/>
   </g>
   <g id="patch_61">
    <path clip-path="url(#p1dcdf7e516)" d="M 108.887166 271.177242 
L 119.196213 271.177242 
L 119.196213 261.200592 
L 108.887166 261.200592 
z
" style="fill:#6d904f;"/>
   </g>
   <g id="patch_62">
    <path clip-path="url(#p1dcdf7e516)" d="M 119.196213 271.177242 
L 129.505259 271.177242 
L 129.505259 260.182094 
L 119.196213 260.182094 
z
" style="fill:#6d904f;"/>
   </g>
   <g id="patch_63">
    <path clip-path="url(#p1dcdf7e516)" d="M 129.505259 271.177242 
L 139.814305 271.177242 
L 139.814305 257.473815 
L 129.505259 257.473815 
z
" style="fill:#6d904f;"/>
   </g>
   <g id="patch_64">
    <path clip-path="url(#p1dcdf7e516)" d="M 139.814305 271.177242 
L 150.123351 271.177242 
L 150.123351 255.483115 
L 139.814305 255.483115 
z
" style="fill:#6d904f;"/>
   </g>
   <g id="patch_65">
    <path clip-path="url(#p1dcdf7e516)" d="M 150.123351 271.177242 
L 160.432397 271.177242 
L 160.432397 250.73784 
L 150.123351 250.73784 
z
" style="fill:#6d904f;"/>
   </g>
   <g id="patch_66">
    <path clip-path="url(#p1dcdf7e516)" d="M 160.432397 271.177242 
L 170.741443 271.177242 
L 170.741443 247.011064 
L 160.432397 247.011064 
z
" style="fill:#6d904f;"/>
   </g>
   <g id="patch_67">
    <path clip-path="url(#p1dcdf7e516)" d="M 170.741443 271.177242 
L 181.05049 271.177242 
L 181.05049 244.233342 
L 170.741443 244.233342 
z
" style="fill:#6d904f;"/>
   </g>
   <g id="patch_68">
    <path clip-path="url(#p1dcdf7e516)" d="M 181.05049 271.177242 
L 191.359536 271.177242 
L 191.359536 237.427924 
L 181.05049 237.427924 
z
" style="fill:#6d904f;"/>
   </g>
   <g id="patch_69">
    <path clip-path="url(#p1dcdf7e516)" d="M 191.359536 271.177242 
L 201.668582 271.177242 
L 201.668582 232.011367 
L 191.359536 232.011367 
z
" style="fill:#6d904f;"/>
   </g>
   <g id="patch_70">
    <path clip-path="url(#p1dcdf7e516)" d="M 201.668582 271.177242 
L 211.977628 271.177242 
L 211.977628 227.543865 
L 201.668582 227.543865 
z
" style="fill:#6d904f;"/>
   </g>
   <g id="patch_71">
    <path clip-path="url(#p1dcdf7e516)" d="M 211.977628 271.177242 
L 222.286674 271.177242 
L 222.286674 221.733797 
L 211.977628 221.733797 
z
" style="fill:#6d904f;"/>
   </g>
   <g id="patch_72">
    <path clip-path="url(#p1dcdf7e516)" d="M 222.286674 271.177242 
L 232.595721 271.177242 
L 232.595721 216.71075 
L 222.286674 216.71075 
z
" style="fill:#6d904f;"/>
   </g>
   <g id="patch_73">
    <path clip-path="url(#p1dcdf7e516)" d="M 232.595721 271.177242 
L 242.904767 271.177242 
L 242.904767 212.312691 
L 232.595721 212.312691 
z
" style="fill:#6d904f;"/>
   </g>
   <g id="patch_74">
    <path clip-path="url(#p1dcdf7e516)" d="M 242.904767 271.177242 
L 253.213813 271.177242 
L 253.213813 206.456328 
L 242.904767 206.456328 
z
" style="fill:#6d904f;"/>
   </g>
   <g id="patch_75">
    <path clip-path="url(#p1dcdf7e516)" d="M 253.213813 271.177242 
L 263.522859 271.177242 
L 263.522859 200.113864 
L 253.213813 200.113864 
z
" style="fill:#6d904f;"/>
   </g>
   <g id="patch_76">
    <path clip-path="url(#p1dcdf7e516)" d="M 263.522859 271.177242 
L 273.831905 271.177242 
L 273.831905 193.887138 
L 263.522859 193.887138 
z
" style="fill:#6d904f;"/>
   </g>
   <g id="patch_77">
    <path clip-path="url(#p1dcdf7e516)" d="M 273.831905 271.177242 
L 284.140952 271.177242 
L 284.140952 190.206657 
L 273.831905 190.206657 
z
" style="fill:#6d904f;"/>
   </g>
   <g id="patch_78">
    <path clip-path="url(#p1dcdf7e516)" d="M 284.140952 271.177242 
L 294.449998 271.177242 
L 294.449998 186.989129 
L 284.140952 186.989129 
z
" style="fill:#6d904f;"/>
   </g>
   <g id="patch_79">
    <path clip-path="url(#p1dcdf7e516)" d="M 294.449998 271.177242 
L 304.759044 271.177242 
L 304.759044 183.470682 
L 294.449998 183.470682 
z
" style="fill:#6d904f;"/>
   </g>
   <g id="patch_80">
    <path clip-path="url(#p1dcdf7e516)" d="M 304.759044 271.177242 
L 315.06809 271.177242 
L 315.06809 182.98458 
L 304.759044 182.98458 
z
" style="fill:#6d904f;"/>
   </g>
   <g id="patch_81">
    <path clip-path="url(#p1dcdf7e516)" d="M 315.06809 271.177242 
L 325.377136 271.177242 
L 325.377136 174.327348 
L 315.06809 174.327348 
z
" style="fill:#6d904f;"/>
   </g>
   <g id="patch_82">
    <path clip-path="url(#p1dcdf7e516)" d="M 325.377136 271.177242 
L 335.686182 271.177242 
L 335.686182 180.878141 
L 325.377136 180.878141 
z
" style="fill:#6d904f;"/>
   </g>
   <g id="patch_83">
    <path clip-path="url(#p1dcdf7e516)" d="M 335.686182 271.177242 
L 345.995229 271.177242 
L 345.995229 178.632816 
L 335.686182 178.632816 
z
" style="fill:#6d904f;"/>
   </g>
   <g id="patch_84">
    <path clip-path="url(#p1dcdf7e516)" d="M 345.995229 271.177242 
L 356.304275 271.177242 
L 356.304275 177.892091 
L 345.995229 177.892091 
z
" style="fill:#6d904f;"/>
   </g>
   <g id="patch_85">
    <path clip-path="url(#p1dcdf7e516)" d="M 356.304275 271.177242 
L 366.613321 271.177242 
L 366.613321 182.498479 
L 356.304275 182.498479 
z
" style="fill:#6d904f;"/>
   </g>
   <g id="patch_86">
    <path clip-path="url(#p1dcdf7e516)" d="M 366.613321 271.177242 
L 376.922367 271.177242 
L 376.922367 181.248504 
L 366.613321 181.248504 
z
" style="fill:#6d904f;"/>
   </g>
   <g id="patch_87">
    <path clip-path="url(#p1dcdf7e516)" d="M 376.922367 271.177242 
L 387.231413 271.177242 
L 387.231413 184.535475 
L 376.922367 184.535475 
z
" style="fill:#6d904f;"/>
   </g>
   <g id="patch_88">
    <path clip-path="url(#p1dcdf7e516)" d="M 387.231413 271.177242 
L 397.54046 271.177242 
L 397.54046 192.428834 
L 387.231413 192.428834 
z
" style="fill:#6d904f;"/>
   </g>
   <g id="patch_89">
    <path clip-path="url(#p1dcdf7e516)" d="M 397.54046 271.177242 
L 407.849506 271.177242 
L 407.849506 194.55842 
L 397.54046 194.55842 
z
" style="fill:#6d904f;"/>
   </g>
   <g id="patch_90">
    <path clip-path="url(#p1dcdf7e516)" d="M 407.849506 271.177242 
L 418.158552 271.177242 
L 418.158552 200.576817 
L 407.849506 200.576817 
z
" style="fill:#6d904f;"/>
   </g>
   <g id="patch_91">
    <path clip-path="url(#p1dcdf7e516)" d="M 418.158552 271.177242 
L 428.467598 271.177242 
L 428.467598 205.553569 
L 418.158552 205.553569 
z
" style="fill:#6d904f;"/>
   </g>
   <g id="patch_92">
    <path clip-path="url(#p1dcdf7e516)" d="M 428.467598 271.177242 
L 438.776644 271.177242 
L 438.776644 213.146008 
L 428.467598 213.146008 
z
" style="fill:#6d904f;"/>
   </g>
   <g id="patch_93">
    <path clip-path="url(#p1dcdf7e516)" d="M 438.776644 271.177242 
L 449.085691 271.177242 
L 449.085691 217.497772 
L 438.776644 217.497772 
z
" style="fill:#6d904f;"/>
   </g>
   <g id="patch_94">
    <path clip-path="url(#p1dcdf7e516)" d="M 449.085691 271.177242 
L 459.394737 271.177242 
L 459.394737 223.261544 
L 449.085691 223.261544 
z
" style="fill:#6d904f;"/>
   </g>
   <g id="patch_95">
    <path clip-path="url(#p1dcdf7e516)" d="M 459.394737 271.177242 
L 469.703783 271.177242 
L 469.703783 227.636455 
L 459.394737 227.636455 
z
" style="fill:#6d904f;"/>
   </g>
   <g id="patch_96">
    <path clip-path="url(#p1dcdf7e516)" d="M 469.703783 271.177242 
L 480.012829 271.177242 
L 480.012829 232.543764 
L 469.703783 232.543764 
z
" style="fill:#6d904f;"/>
   </g>
   <g id="patch_97">
    <path clip-path="url(#p1dcdf7e516)" d="M 480.012829 271.177242 
L 490.321875 271.177242 
L 490.321875 238.932523 
L 480.012829 238.932523 
z
" style="fill:#6d904f;"/>
   </g>
   <g id="patch_98">
    <path clip-path="url(#p1dcdf7e516)" d="M 490.321875 271.177242 
L 500.630922 271.177242 
L 500.630922 243.469469 
L 490.321875 243.469469 
z
" style="fill:#6d904f;"/>
   </g>
   <g id="patch_99">
    <path clip-path="url(#p1dcdf7e516)" d="M 500.630922 271.177242 
L 510.939968 271.177242 
L 510.939968 248.353629 
L 500.630922 248.353629 
z
" style="fill:#6d904f;"/>
   </g>
   <g id="patch_100">
    <path clip-path="url(#p1dcdf7e516)" d="M 510.939968 271.177242 
L 521.249014 271.177242 
L 521.249014 250.784136 
L 510.939968 250.784136 
z
" style="fill:#6d904f;"/>
   </g>
   <g id="patch_101">
    <path clip-path="url(#p1dcdf7e516)" d="M 521.249014 271.177242 
L 531.55806 271.177242 
L 531.55806 254.001663 
L 521.249014 254.001663 
z
" style="fill:#6d904f;"/>
   </g>
   <g id="patch_102">
    <path clip-path="url(#p1dcdf7e516)" d="M 531.55806 271.177242 
L 541.867106 271.177242 
L 541.867106 257.844178 
L 531.55806 257.844178 
z
" style="fill:#6d904f;"/>
   </g>
   <g id="patch_103">
    <path clip-path="url(#p1dcdf7e516)" d="M 541.867106 271.177242 
L 552.176152 271.177242 
L 552.176152 260.390423 
L 541.867106 260.390423 
z
" style="fill:#6d904f;"/>
   </g>
   <g id="patch_104">
    <path clip-path="url(#p1dcdf7e516)" d="M 552.176152 271.177242 
L 562.485199 271.177242 
L 562.485199 262.6126 
L 552.176152 262.6126 
z
" style="fill:#6d904f;"/>
   </g>
   <g id="patch_105">
    <path clip-path="url(#p1dcdf7e516)" d="M 562.485199 271.177242 
L 572.794245 271.177242 
L 572.794245 263.90887 
L 562.485199 263.90887 
z
" style="fill:#6d904f;"/>
   </g>
   <g id="patch_106">
    <path clip-path="url(#p1dcdf7e516)" d="M 572.794245 271.177242 
L 583.103291 271.177242 
L 583.103291 265.089402 
L 572.794245 265.089402 
z
" style="fill:#6d904f;"/>
   </g>
   <g id="patch_107">
    <path clip-path="url(#p1dcdf7e516)" d="M 583.103291 271.177242 
L 593.412337 271.177242 
L 593.412337 266.871773 
L 583.103291 266.871773 
z
" style="fill:#6d904f;"/>
   </g>
   <g id="patch_108">
    <path d="M 52.185712 271.177242 
L 52.185712 169.484853 
" style="fill:none;stroke:#262626;stroke-linecap:square;stroke-linejoin:miter;stroke-width:1.25;"/>
   </g>
   <g id="patch_109">
    <path d="M 619.2 271.177242 
L 619.2 169.484853 
" style="fill:none;stroke:#262626;stroke-linecap:square;stroke-linejoin:miter;stroke-width:1.25;"/>
   </g>
   <g id="patch_110">
    <path d="M 52.185712 271.177242 
L 619.2 271.177242 
" style="fill:none;stroke:#262626;stroke-linecap:square;stroke-linejoin:miter;stroke-width:1.25;"/>
   </g>
   <g id="patch_111">
    <path d="M 52.185712 169.484853 
L 619.2 169.484853 
" style="fill:none;stroke:#262626;stroke-linecap:square;stroke-linejoin:miter;stroke-width:1.25;"/>
   </g>
   <g id="text_10">
    <!-- $\mu=0.5$ -->
    <g style="fill:#262626;" transform="translate(562.498571 194.90795)scale(0.15 -0.15)">
     <defs>
      <path d="M 11.40625 58.59375 
C 12.40625 58.1875 16.5 56.890625 20.703125 56.890625 
C 30 56.890625 35.09375 61.890625 38 64.6875 
C 38 65.484375 38 66 37.40625 66 
C 37.296875 66 37.09375 66 36.296875 65.59375 
C 32.796875 64.09375 28.703125 63 23.703125 63 
C 20.703125 63 16.203125 63.359375 11.296875 65.484375 
C 10.203125 66 10 66 9.90625 66 
C 9.40625 66 9.296875 65.890625 9.296875 63.90625 
L 9.296875 34.859375 
C 9.296875 33.015625 9.296875 32.5 10.296875 32.5 
C 10.796875 32.5 11 32.703125 11.5 33.421875 
C 14.703125 38.046875 19.09375 40 24.09375 40 
C 27.59375 40 35.09375 37.734375 35.09375 20.203125 
C 35.09375 16.984375 35.09375 11.1875 32.09375 6.59375 
C 29.59375 2.484375 25.703125 0.390625 21.40625 0.390625 
C 14.796875 0.390625 8.09375 4.984375 6.296875 12.6875 
C 6.703125 12.59375 7.5 12.390625 7.90625 12.390625 
C 9.203125 12.390625 11.703125 13.09375 11.703125 16.1875 
C 11.703125 18.890625 9.796875 20 7.90625 20 
C 5.59375 20 4.09375 18.59375 4.09375 15.796875 
C 4.09375 7.09375 11 -2 21.59375 -2 
C 31.90625 -2 41.703125 6.890625 41.703125 19.796875 
C 41.703125 32.09375 33.90625 41.59375 24.203125 41.59375 
C 19.09375 41.59375 14.796875 39.6875 11.40625 36 
z
" id="CMR17-53"/>
     </defs>
     <use transform="scale(0.996264)" xlink:href="#CMMI12-22"/>
     <use transform="translate(86.36543 0)scale(0.996264)" xlink:href="#CMR17-61"/>
     <use transform="translate(185.754227 0)scale(0.996264)" xlink:href="#CMR17-48"/>
     <use transform="translate(231.444704 0)scale(0.996264)" xlink:href="#CMMI12-58"/>
     <use transform="translate(258.541882 0)scale(0.996264)" xlink:href="#CMR17-53"/>
    </g>
   </g>
  </g>
  <g id="axes_3">
   <g id="patch_112">
    <path d="M 52.185712 395.544597 
L 619.2 395.544597 
L 619.2 293.852209 
L 52.185712 293.852209 
z
" style="fill:#ffffff;"/>
   </g>
   <g id="matplotlib.axis_5">
    <g id="xtick_13">
     <g id="line2d_19">
      <g>
       <use style="fill:#262626;stroke:#262626;stroke-width:0.8;" x="77.957733" xlink:href="#mc43d77939f" y="395.544597"/>
      </g>
     </g>
     <g id="text_11">
      <!-- $\mathdefault{0.0}$ -->
      <g style="fill:#262626;" transform="translate(69.232442 414.730474)scale(0.14 -0.14)">
       <use transform="scale(0.996264)" xlink:href="#CMR17-48"/>
       <use transform="translate(45.690477 0)scale(0.996264)" xlink:href="#CMMI12-58"/>
       <use transform="translate(72.787654 0)scale(0.996264)" xlink:href="#CMR17-48"/>
      </g>
     </g>
    </g>
    <g id="xtick_14">
     <g id="line2d_20">
      <g>
       <use style="fill:#262626;stroke:#262626;stroke-width:0.8;" x="181.051741" xlink:href="#mc43d77939f" y="395.544597"/>
      </g>
     </g>
     <g id="text_12">
      <!-- $\mathdefault{0.2}$ -->
      <g style="fill:#262626;" transform="translate(172.32645 414.730474)scale(0.14 -0.14)">
       <use transform="scale(0.996264)" xlink:href="#CMR17-48"/>
       <use transform="translate(45.690477 0)scale(0.996264)" xlink:href="#CMMI12-58"/>
       <use transform="translate(72.787654 0)scale(0.996264)" xlink:href="#CMR17-50"/>
      </g>
     </g>
    </g>
    <g id="xtick_15">
     <g id="line2d_21">
      <g>
       <use style="fill:#262626;stroke:#262626;stroke-width:0.8;" x="284.145749" xlink:href="#mc43d77939f" y="395.544597"/>
      </g>
     </g>
     <g id="text_13">
      <!-- $\mathdefault{0.4}$ -->
      <g style="fill:#262626;" transform="translate(275.420458 414.730474)scale(0.14 -0.14)">
       <defs>
        <path d="M 33.59375 64.796875 
C 33.59375 66.890625 33.5 67 31.703125 67 
L 2 19.59375 
L 2 17 
L 27.796875 17 
L 27.796875 7.1875 
C 27.796875 3.59375 27.59375 2.59375 20.59375 2.59375 
L 18.703125 2.59375 
L 18.703125 0 
C 21.90625 0.1875 27.296875 0.1875 30.703125 0.1875 
C 34.09375 0.1875 39.5 0.1875 42.703125 0 
L 42.703125 2.59375 
L 40.796875 2.59375 
C 33.796875 2.59375 33.59375 3.59375 33.59375 7.1875 
L 33.59375 17 
L 43.796875 17 
L 43.796875 19.59375 
L 33.59375 19.59375 
z
M 28.09375 58.171875 
L 28.09375 19.59375 
L 4 19.59375 
z
" id="CMR17-52"/>
       </defs>
       <use transform="scale(0.996264)" xlink:href="#CMR17-48"/>
       <use transform="translate(45.690477 0)scale(0.996264)" xlink:href="#CMMI12-58"/>
       <use transform="translate(72.787654 0)scale(0.996264)" xlink:href="#CMR17-52"/>
      </g>
     </g>
    </g>
    <g id="xtick_16">
     <g id="line2d_22">
      <g>
       <use style="fill:#262626;stroke:#262626;stroke-width:0.8;" x="387.239756" xlink:href="#mc43d77939f" y="395.544597"/>
      </g>
     </g>
     <g id="text_14">
      <!-- $\mathdefault{0.6}$ -->
      <g style="fill:#262626;" transform="translate(378.514465 414.730474)scale(0.14 -0.14)">
       <defs>
        <path d="M 10.59375 34.34375 
C 10.59375 58 21.796875 63.6875 28.296875 63.6875 
C 30.40625 63.6875 35.5 63.265625 37.5 59.09375 
C 35.90625 59.09375 32.90625 59.09375 32.90625 55.59375 
C 32.90625 52.890625 35.09375 52 36.5 52 
C 37.40625 52 40.09375 52.390625 40.09375 55.796875 
C 40.09375 62.296875 35.09375 66 28.203125 66 
C 16.296875 66 3.796875 53.296875 3.796875 31.421875 
C 3.796875 4.015625 15.09375 -2 23.09375 -2 
C 32.796875 -2 42 6.734375 42 20.234375 
C 42 32.828125 33.90625 42 23.703125 42 
C 17.59375 42 13.09375 37.96875 10.59375 30.921875 
z
M 23.09375 0.390625 
C 10.796875 0.390625 10.796875 18.9375 10.796875 22.65625 
C 10.796875 29.90625 14.203125 40.390625 23.5 40.390625 
C 25.203125 40.390625 30.09375 40.390625 33.40625 33.4375 
C 35.203125 29.515625 35.203125 25.375 35.203125 20.34375 
C 35.203125 14.90625 35.203125 10.875 33.09375 6.84375 
C 30.90625 2.703125 27.703125 0.390625 23.09375 0.390625 
z
" id="CMR17-54"/>
       </defs>
       <use transform="scale(0.996264)" xlink:href="#CMR17-48"/>
       <use transform="translate(45.690477 0)scale(0.996264)" xlink:href="#CMMI12-58"/>
       <use transform="translate(72.787654 0)scale(0.996264)" xlink:href="#CMR17-54"/>
      </g>
     </g>
    </g>
    <g id="xtick_17">
     <g id="line2d_23">
      <g>
       <use style="fill:#262626;stroke:#262626;stroke-width:0.8;" x="490.333764" xlink:href="#mc43d77939f" y="395.544597"/>
      </g>
     </g>
     <g id="text_15">
      <!-- $\mathdefault{0.8}$ -->
      <g style="fill:#262626;" transform="translate(481.608473 414.730474)scale(0.14 -0.14)">
       <defs>
        <path d="M 27.203125 35.765625 
C 33.5 38.96875 39.90625 43.796875 39.90625 51.53125 
C 39.90625 60.6875 31.09375 66 23 66 
C 13.90625 66 5.90625 59.375 5.90625 50.234375 
C 5.90625 47.71875 6.5 43.390625 10.40625 39.578125 
C 11.40625 38.578125 15.59375 35.5625 18.296875 33.65625 
C 13.796875 31.34375 3.296875 25.8125 3.296875 14.765625 
C 3.296875 4.40625 13.09375 -2 22.796875 -2 
C 33.5 -2 42.5 5.71875 42.5 15.96875 
C 42.5 25.109375 36.40625 29.328125 32.40625 32.046875 
z
M 14.09375 44.609375 
C 13.296875 45.109375 9.296875 48.21875 9.296875 52.9375 
C 9.296875 59.078125 15.59375 63.6875 22.796875 63.6875 
C 30.703125 63.6875 36.5 58.0625 36.5 51.53125 
C 36.5 42.1875 26.09375 36.859375 25.59375 36.859375 
C 25.5 36.859375 25.40625 36.859375 24.59375 37.46875 
z
M 32.5 24 
C 34 22.90625 38.796875 19.578125 38.796875 13.453125 
C 38.796875 6.015625 31.40625 0.390625 23 0.390625 
C 13.90625 0.390625 7 6.921875 7 14.859375 
C 7 22.796875 13.09375 29.4375 20 32.546875 
z
" id="CMR17-56"/>
       </defs>
       <use transform="scale(0.996264)" xlink:href="#CMR17-48"/>
       <use transform="translate(45.690477 0)scale(0.996264)" xlink:href="#CMMI12-58"/>
       <use transform="translate(72.787654 0)scale(0.996264)" xlink:href="#CMR17-56"/>
      </g>
     </g>
    </g>
    <g id="xtick_18">
     <g id="line2d_24">
      <g>
       <use style="fill:#262626;stroke:#262626;stroke-width:0.8;" x="593.427772" xlink:href="#mc43d77939f" y="395.544597"/>
      </g>
     </g>
     <g id="text_16">
      <!-- $\mathdefault{1.0}$ -->
      <g style="fill:#262626;" transform="translate(584.702481 414.730474)scale(0.14 -0.14)">
       <use transform="scale(0.996264)" xlink:href="#CMR17-49"/>
       <use transform="translate(45.690477 0)scale(0.996264)" xlink:href="#CMMI12-58"/>
       <use transform="translate(72.787654 0)scale(0.996264)" xlink:href="#CMR17-48"/>
      </g>
     </g>
    </g>
    <g id="text_17">
     <!-- $\chi_{BH}$ -->
     <g style="fill:#262626;" transform="translate(320.95263 433.065557)scale(0.168 -0.168)">
      <use transform="scale(0.996264)" xlink:href="#CMMI12-31"/>
      <use transform="translate(61.112959 -14.943915)scale(0.697382)" xlink:href="#CMMI12-66"/>
      <use transform="translate(116.507585 -14.943915)scale(0.697382)" xlink:href="#CMMI12-72"/>
     </g>
    </g>
   </g>
   <g id="matplotlib.axis_6">
    <g id="ytick_7">
     <g id="line2d_25">
      <g>
       <use style="fill:#262626;stroke:#262626;stroke-width:0.8;" x="52.185712" xlink:href="#m1fffb08c8d" y="395.544597"/>
      </g>
     </g>
     <g id="text_18">
      <!-- $\mathdefault{0}$ -->
      <g style="fill:#262626;" transform="translate(35.857223 400.387535)scale(0.14 -0.14)">
       <use transform="scale(0.996264)" xlink:href="#CMR17-48"/>
      </g>
     </g>
    </g>
    <g id="ytick_8">
     <g id="line2d_26">
      <g>
       <use style="fill:#262626;stroke:#262626;stroke-width:0.8;" x="52.185712" xlink:href="#m1fffb08c8d" y="350.380073"/>
      </g>
     </g>
     <g id="text_19">
      <!-- $\mathdefault{1}$ -->
      <g style="fill:#262626;" transform="translate(35.857223 355.223011)scale(0.14 -0.14)">
       <use transform="scale(0.996264)" xlink:href="#CMR17-49"/>
      </g>
     </g>
    </g>
    <g id="ytick_9">
     <g id="line2d_27">
      <g>
       <use style="fill:#262626;stroke:#262626;stroke-width:0.8;" x="52.185712" xlink:href="#m1fffb08c8d" y="305.215549"/>
      </g>
     </g>
     <g id="text_20">
      <!-- $\mathdefault{2}$ -->
      <g style="fill:#262626;" transform="translate(35.857223 310.058487)scale(0.14 -0.14)">
       <use transform="scale(0.996264)" xlink:href="#CMR17-50"/>
      </g>
     </g>
    </g>
    <g id="text_21">
     <!-- $\mathcal{P}(\chi_{BH})$ -->
     <g style="fill:#262626;" transform="translate(27.672917 373.045851)rotate(-90)scale(0.168 -0.168)">
      <use transform="scale(0.996264)" xlink:href="#CMSY10-80"/>
      <use transform="translate(77.487559 0)scale(0.996264)" xlink:href="#CMR17-40"/>
      <use transform="translate(112.768327 0)scale(0.996264)" xlink:href="#CMMI12-31"/>
      <use transform="translate(173.881286 -14.943915)scale(0.697382)" xlink:href="#CMMI12-66"/>
      <use transform="translate(229.275912 -14.943915)scale(0.697382)" xlink:href="#CMMI12-72"/>
      <use transform="translate(291.739002 0)scale(0.996264)" xlink:href="#CMR17-41"/>
     </g>
    </g>
   </g>
   <g id="patch_113">
    <path clip-path="url(#p37e5fb7901)" d="M 79.249796 395.544597 
L 89.533332 395.544597 
L 89.533332 395.137094 
L 79.249796 395.137094 
z
" style="fill:#fc4f30;"/>
   </g>
   <g id="patch_114">
    <path clip-path="url(#p37e5fb7901)" d="M 89.533332 395.544597 
L 99.816869 395.544597 
L 99.816869 395.069177 
L 89.533332 395.069177 
z
" style="fill:#fc4f30;"/>
   </g>
   <g id="patch_115">
    <path clip-path="url(#p37e5fb7901)" d="M 99.816869 395.544597 
L 110.100406 395.544597 
L 110.100406 394.888065 
L 99.816869 394.888065 
z
" style="fill:#fc4f30;"/>
   </g>
   <g id="patch_116">
    <path clip-path="url(#p37e5fb7901)" d="M 110.100406 395.544597 
L 120.383942 395.544597 
L 120.383942 395.091816 
L 110.100406 395.091816 
z
" style="fill:#fc4f30;"/>
   </g>
   <g id="patch_117">
    <path clip-path="url(#p37e5fb7901)" d="M 120.383942 395.544597 
L 130.667479 395.544597 
L 130.667479 394.480561 
L 120.383942 394.480561 
z
" style="fill:#fc4f30;"/>
   </g>
   <g id="patch_118">
    <path clip-path="url(#p37e5fb7901)" d="M 130.667479 395.544597 
L 140.951015 395.544597 
L 140.951015 394.322088 
L 130.667479 394.322088 
z
" style="fill:#fc4f30;"/>
   </g>
   <g id="patch_119">
    <path clip-path="url(#p37e5fb7901)" d="M 140.951015 395.544597 
L 151.234552 395.544597 
L 151.234552 393.846668 
L 140.951015 393.846668 
z
" style="fill:#fc4f30;"/>
   </g>
   <g id="patch_120">
    <path clip-path="url(#p37e5fb7901)" d="M 151.234552 395.544597 
L 161.518088 395.544597 
L 161.518088 393.439165 
L 151.234552 393.439165 
z
" style="fill:#fc4f30;"/>
   </g>
   <g id="patch_121">
    <path clip-path="url(#p37e5fb7901)" d="M 161.518088 395.544597 
L 171.801625 395.544597 
L 171.801625 392.012904 
L 161.518088 392.012904 
z
" style="fill:#fc4f30;"/>
   </g>
   <g id="patch_122">
    <path clip-path="url(#p37e5fb7901)" d="M 171.801625 395.544597 
L 182.085161 395.544597 
L 182.085161 391.650679 
L 171.801625 391.650679 
z
" style="fill:#fc4f30;"/>
   </g>
   <g id="patch_123">
    <path clip-path="url(#p37e5fb7901)" d="M 182.085161 395.544597 
L 192.368698 395.544597 
L 192.368698 390.586643 
L 182.085161 390.586643 
z
" style="fill:#fc4f30;"/>
   </g>
   <g id="patch_124">
    <path clip-path="url(#p37e5fb7901)" d="M 192.368698 395.544597 
L 202.652234 395.544597 
L 202.652234 389.250939 
L 192.368698 389.250939 
z
" style="fill:#fc4f30;"/>
   </g>
   <g id="patch_125">
    <path clip-path="url(#p37e5fb7901)" d="M 202.652234 395.544597 
L 212.935771 395.544597 
L 212.935771 387.417175 
L 202.652234 387.417175 
z
" style="fill:#fc4f30;"/>
   </g>
   <g id="patch_126">
    <path clip-path="url(#p37e5fb7901)" d="M 212.935771 395.544597 
L 223.219308 395.544597 
L 223.219308 386.307861 
L 212.935771 386.307861 
z
" style="fill:#fc4f30;"/>
   </g>
   <g id="patch_127">
    <path clip-path="url(#p37e5fb7901)" d="M 223.219308 395.544597 
L 233.502844 395.544597 
L 233.502844 383.183671 
L 223.219308 383.183671 
z
" style="fill:#fc4f30;"/>
   </g>
   <g id="patch_128">
    <path clip-path="url(#p37e5fb7901)" d="M 233.502844 395.544597 
L 243.786381 395.544597 
L 243.786381 380.693375 
L 233.502844 380.693375 
z
" style="fill:#fc4f30;"/>
   </g>
   <g id="patch_129">
    <path clip-path="url(#p37e5fb7901)" d="M 243.786381 395.544597 
L 254.069917 395.544597 
L 254.069917 377.410711 
L 243.786381 377.410711 
z
" style="fill:#fc4f30;"/>
   </g>
   <g id="patch_130">
    <path clip-path="url(#p37e5fb7901)" d="M 254.069917 395.544597 
L 264.353454 395.544597 
L 264.353454 373.629988 
L 254.069917 373.629988 
z
" style="fill:#fc4f30;"/>
   </g>
   <g id="patch_131">
    <path clip-path="url(#p37e5fb7901)" d="M 264.353454 395.544597 
L 274.63699 395.544597 
L 274.63699 370.188851 
L 264.353454 370.188851 
z
" style="fill:#fc4f30;"/>
   </g>
   <g id="patch_132">
    <path clip-path="url(#p37e5fb7901)" d="M 274.63699 395.544597 
L 284.920527 395.544597 
L 284.920527 367.517442 
L 274.63699 367.517442 
z
" style="fill:#fc4f30;"/>
   </g>
   <g id="patch_133">
    <path clip-path="url(#p37e5fb7901)" d="M 284.920527 395.544597 
L 295.204063 395.544597 
L 295.204063 361.902956 
L 284.920527 361.902956 
z
" style="fill:#fc4f30;"/>
   </g>
   <g id="patch_134">
    <path clip-path="url(#p37e5fb7901)" d="M 295.204063 395.544597 
L 305.4876 395.544597 
L 305.4876 357.375144 
L 295.204063 357.375144 
z
" style="fill:#fc4f30;"/>
   </g>
   <g id="patch_135">
    <path clip-path="url(#p37e5fb7901)" d="M 305.4876 395.544597 
L 315.771136 395.544597 
L 315.771136 351.488989 
L 305.4876 351.488989 
z
" style="fill:#fc4f30;"/>
   </g>
   <g id="patch_136">
    <path clip-path="url(#p37e5fb7901)" d="M 315.771136 395.544597 
L 326.054673 395.544597 
L 326.054673 344.991579 
L 315.771136 344.991579 
z
" style="fill:#fc4f30;"/>
   </g>
   <g id="patch_137">
    <path clip-path="url(#p37e5fb7901)" d="M 326.054673 395.544597 
L 336.33821 395.544597 
L 336.33821 338.720559 
L 326.054673 338.720559 
z
" style="fill:#fc4f30;"/>
   </g>
   <g id="patch_138">
    <path clip-path="url(#p37e5fb7901)" d="M 336.33821 395.544597 
L 346.621746 395.544597 
L 346.621746 333.626771 
L 336.33821 333.626771 
z
" style="fill:#fc4f30;"/>
   </g>
   <g id="patch_139">
    <path clip-path="url(#p37e5fb7901)" d="M 346.621746 395.544597 
L 356.905283 395.544597 
L 356.905283 330.457303 
L 346.621746 330.457303 
z
" style="fill:#fc4f30;"/>
   </g>
   <g id="patch_140">
    <path clip-path="url(#p37e5fb7901)" d="M 356.905283 395.544597 
L 367.188819 395.544597 
L 367.188819 323.959893 
L 356.905283 323.959893 
z
" style="fill:#fc4f30;"/>
   </g>
   <g id="patch_141">
    <path clip-path="url(#p37e5fb7901)" d="M 367.188819 395.544597 
L 377.472356 395.544597 
L 377.472356 316.443725 
L 367.188819 316.443725 
z
" style="fill:#fc4f30;"/>
   </g>
   <g id="patch_142">
    <path clip-path="url(#p37e5fb7901)" d="M 377.472356 395.544597 
L 387.755892 395.544597 
L 387.755892 311.961192 
L 377.472356 311.961192 
z
" style="fill:#fc4f30;"/>
   </g>
   <g id="patch_143">
    <path clip-path="url(#p37e5fb7901)" d="M 387.755892 395.544597 
L 398.039429 395.544597 
L 398.039429 311.214103 
L 387.755892 311.214103 
z
" style="fill:#fc4f30;"/>
   </g>
   <g id="patch_144">
    <path clip-path="url(#p37e5fb7901)" d="M 398.039429 395.544597 
L 408.322965 395.544597 
L 408.322965 303.131959 
L 398.039429 303.131959 
z
" style="fill:#fc4f30;"/>
   </g>
   <g id="patch_145">
    <path clip-path="url(#p37e5fb7901)" d="M 408.322965 395.544597 
L 418.606502 395.544597 
L 418.606502 301.388751 
L 408.322965 301.388751 
z
" style="fill:#fc4f30;"/>
   </g>
   <g id="patch_146">
    <path clip-path="url(#p37e5fb7901)" d="M 418.606502 395.544597 
L 428.890039 395.544597 
L 428.890039 299.464431 
L 418.606502 299.464431 
z
" style="fill:#fc4f30;"/>
   </g>
   <g id="patch_147">
    <path clip-path="url(#p37e5fb7901)" d="M 428.890039 395.544597 
L 439.173575 395.544597 
L 439.173575 300.890692 
L 428.890039 300.890692 
z
" style="fill:#fc4f30;"/>
   </g>
   <g id="patch_148">
    <path clip-path="url(#p37e5fb7901)" d="M 439.173575 395.544597 
L 449.457112 395.544597 
L 449.457112 299.758739 
L 439.173575 299.758739 
z
" style="fill:#fc4f30;"/>
   </g>
   <g id="patch_149">
    <path clip-path="url(#p37e5fb7901)" d="M 449.457112 395.544597 
L 459.740648 395.544597 
L 459.740648 301.637781 
L 449.457112 301.637781 
z
" style="fill:#fc4f30;"/>
   </g>
   <g id="patch_150">
    <path clip-path="url(#p37e5fb7901)" d="M 459.740648 395.544597 
L 470.024185 395.544597 
L 470.024185 298.694703 
L 459.740648 298.694703 
z
" style="fill:#fc4f30;"/>
   </g>
   <g id="patch_151">
    <path clip-path="url(#p37e5fb7901)" d="M 470.024185 395.544597 
L 480.307721 395.544597 
L 480.307721 304.648776 
L 470.024185 304.648776 
z
" style="fill:#fc4f30;"/>
   </g>
   <g id="patch_152">
    <path clip-path="url(#p37e5fb7901)" d="M 480.307721 395.544597 
L 490.591258 395.544597 
L 490.591258 307.365463 
L 480.307721 307.365463 
z
" style="fill:#fc4f30;"/>
   </g>
   <g id="patch_153">
    <path clip-path="url(#p37e5fb7901)" d="M 490.591258 395.544597 
L 500.874794 395.544597 
L 500.874794 312.889393 
L 490.591258 312.889393 
z
" style="fill:#fc4f30;"/>
   </g>
   <g id="patch_154">
    <path clip-path="url(#p37e5fb7901)" d="M 500.874794 395.544597 
L 511.158331 395.544597 
L 511.158331 316.692755 
L 500.874794 316.692755 
z
" style="fill:#fc4f30;"/>
   </g>
   <g id="patch_155">
    <path clip-path="url(#p37e5fb7901)" d="M 511.158331 395.544597 
L 521.441867 395.544597 
L 521.441867 324.865455 
L 511.158331 324.865455 
z
" style="fill:#fc4f30;"/>
   </g>
   <g id="patch_156">
    <path clip-path="url(#p37e5fb7901)" d="M 521.441867 395.544597 
L 531.725404 395.544597 
L 531.725404 326.67658 
L 521.441867 326.67658 
z
" style="fill:#fc4f30;"/>
   </g>
   <g id="patch_157">
    <path clip-path="url(#p37e5fb7901)" d="M 531.725404 395.544597 
L 542.008941 395.544597 
L 542.008941 333.264546 
L 531.725404 333.264546 
z
" style="fill:#fc4f30;"/>
   </g>
   <g id="patch_158">
    <path clip-path="url(#p37e5fb7901)" d="M 542.008941 395.544597 
L 552.292477 395.544597 
L 552.292477 340.39585 
L 542.008941 340.39585 
z
" style="fill:#fc4f30;"/>
   </g>
   <g id="patch_159">
    <path clip-path="url(#p37e5fb7901)" d="M 552.292477 395.544597 
L 562.576014 395.544597 
L 562.576014 344.040738 
L 552.292477 344.040738 
z
" style="fill:#fc4f30;"/>
   </g>
   <g id="patch_160">
    <path clip-path="url(#p37e5fb7901)" d="M 562.576014 395.544597 
L 572.85955 395.544597 
L 572.85955 351.285237 
L 562.576014 351.285237 
z
" style="fill:#fc4f30;"/>
   </g>
   <g id="patch_161">
    <path clip-path="url(#p37e5fb7901)" d="M 572.85955 395.544597 
L 583.143087 395.544597 
L 583.143087 357.103475 
L 572.85955 357.103475 
z
" style="fill:#fc4f30;"/>
   </g>
   <g id="patch_162">
    <path clip-path="url(#p37e5fb7901)" d="M 583.143087 395.544597 
L 593.426623 395.544597 
L 593.426623 360.861559 
L 583.143087 360.861559 
z
" style="fill:#fc4f30;"/>
   </g>
   <g id="patch_163">
    <path d="M 52.185712 395.544597 
L 52.185712 293.852209 
" style="fill:none;stroke:#262626;stroke-linecap:square;stroke-linejoin:miter;stroke-width:1.25;"/>
   </g>
   <g id="patch_164">
    <path d="M 619.2 395.544597 
L 619.2 293.852209 
" style="fill:none;stroke:#262626;stroke-linecap:square;stroke-linejoin:miter;stroke-width:1.25;"/>
   </g>
   <g id="patch_165">
    <path d="M 52.185712 395.544597 
L 619.2 395.544597 
" style="fill:none;stroke:#262626;stroke-linecap:square;stroke-linejoin:miter;stroke-width:1.25;"/>
   </g>
   <g id="patch_166">
    <path d="M 52.185712 293.852209 
L 619.2 293.852209 
" style="fill:none;stroke:#262626;stroke-linecap:square;stroke-linejoin:miter;stroke-width:1.25;"/>
   </g>
   <g id="text_22">
    <!-- $\mu=0.7$ -->
    <g style="fill:#262626;" transform="translate(562.498571 319.275306)scale(0.15 -0.15)">
     <defs>
      <path d="M 45.09375 61.796875 
L 45.09375 64 
L 21.59375 64 
C 9.90625 64 9.703125 65.09375 9.296875 67 
L 7.5 67 
L 4.59375 48.5 
L 6.40625 48.5 
C 6.703125 50.40625 7.40625 55.5 8.59375 57.390625 
C 9.203125 58.1875 16.59375 58.1875 18.296875 58.1875 
L 40.296875 58.1875 
L 29.203125 41.71875 
C 21.796875 30.640625 16.703125 15.671875 16.703125 2.59375 
C 16.703125 1.390625 16.703125 -2 20.296875 -2 
C 23.90625 -2 23.90625 1.390625 23.90625 2.6875 
L 23.90625 7.28125 
C 23.90625 23.65625 26.703125 34.4375 31.296875 41.3125 
z
" id="CMR17-55"/>
     </defs>
     <use transform="scale(0.996264)" xlink:href="#CMMI12-22"/>
     <use transform="translate(86.36543 0)scale(0.996264)" xlink:href="#CMR17-61"/>
     <use transform="translate(185.754227 0)scale(0.996264)" xlink:href="#CMR17-48"/>
     <use transform="translate(231.444704 0)scale(0.996264)" xlink:href="#CMMI12-58"/>
     <use transform="translate(258.541882 0)scale(0.996264)" xlink:href="#CMR17-55"/>
    </g>
   </g>
  </g>
  <g id="text_23">
   <!-- 'Gaussian' $\chi_{BH}$ Distributions Considered, with $\sigma=0.2$ -->
   <g style="fill:#262626;" transform="translate(129.724995 20.651855)scale(0.168 -0.168)">
    <defs>
     <path d="M 17 61.09375 
L 17 69 
L 9 69 
L 9 60.984375 
L 11.5 60.984375 
L 8.90625 48.890625 
L 12.90625 48.890625 
z
" id="CMSS17-39"/>
     <path d="M 56.40625 29.1875 
L 36.5 29.1875 
L 36.5 23 
L 48.796875 23 
L 48.796875 7.390625 
C 44.90625 6.296875 40.90625 5.5 36.90625 5.5 
C 22.90625 5.5 14.59375 20.484375 14.59375 34.6875 
C 14.59375 48.796875 23.296875 63.59375 36.90625 63.59375 
C 44.59375 63.59375 48.90625 61.1875 54.203125 57.1875 
L 55.5 65.1875 
C 48.90625 68.59375 44.796875 70 37.296875 70 
C 17.90625 70 6.203125 52.390625 6.203125 34.390625 
C 6.203125 17.1875 18 -1 36.703125 -1 
C 43.703125 -1 50.203125 0.796875 56.40625 3.890625 
z
" id="CMSS17-71"/>
     <path d="M 37.59375 27.953125 
C 37.59375 37.484375 30.90625 44 21.90625 44 
C 17.5 44 12.703125 43.1875 7.203125 39.984375 
L 7.796875 33.328125 
C 10.296875 35.15625 14.59375 38.09375 21.796875 38.09375 
C 26.90625 38.09375 30 34.140625 30 27.84375 
L 30 24 
C 14 23.5 4 18.890625 4 11.109375 
C 4 7.0625 6.5 -1 14.796875 -1 
C 16.296875 -1 24.40625 -0.8125 30.203125 3.5 
L 30.203125 -0.203125 
L 37.59375 -0.203125 
z
M 30 12.875 
C 30 11.109375 30 8.734375 27 6.96875 
C 24.40625 5.296875 21.09375 5.09375 19.703125 5.09375 
C 14.703125 5.09375 11.296875 7.859375 11.296875 11.296875 
C 11.296875 18.203125 26.90625 18.890625 30 19 
z
" id="CMSS17-97"/>
     <path d="M 40.90625 43 
L 33.296875 43 
L 33.296875 15.25 
C 33.296875 7.8125 27.90625 4.796875 22.203125 4.796875 
C 15.59375 4.796875 15 7 15 11.125 
L 15 43 
L 7.40625 43 
L 7.40625 10.625 
C 7.40625 2.796875 10.09375 -1 17 -1 
C 20.40625 -1 28.09375 -0.203125 33.5 4.796875 
L 33.5 -0.203125 
L 40.90625 -0.203125 
z
" id="CMSS17-117"/>
     <path d="M 32.203125 40.984375 
C 26.296875 43.796875 21.703125 44 18.703125 44 
C 11.59375 44 3.09375 41.484375 3.09375 31.390625 
C 3.09375 21.296875 14.09375 19.09375 17.09375 18.484375 
C 21.703125 17.59375 26.796875 16.59375 26.796875 11.59375 
C 26.796875 5.296875 19.59375 5.296875 18.296875 5.296875 
C 14.296875 5.296875 8.796875 6.390625 3.796875 9.984375 
L 2.59375 3.296875 
C 8.296875 0 13.796875 -1 18.40625 -1 
C 30.703125 -1 33.796875 6.5 33.796875 12.1875 
C 33.796875 17.09375 31 20.390625 29.09375 21.890625 
C 25.796875 24.484375 24.59375 24.796875 16.40625 26.484375 
C 15 26.6875 10.09375 27.796875 10.09375 32.296875 
C 10.09375 37.984375 16.40625 37.984375 17.796875 37.984375 
C 24.296875 37.984375 28.296875 35.984375 31 34.484375 
z
" id="CMSS17-115"/>
     <path d="M 15.296875 66 
L 6.90625 66 
L 6.90625 57.59375 
L 15.296875 57.59375 
z
M 14.796875 43 
L 7.40625 43 
L 7.40625 0 
L 14.796875 0 
z
" id="CMSS17-105"/>
     <path d="M 40.90625 29.34375 
C 40.90625 35.671875 39.40625 44 28.09375 44 
C 21.703125 44 17.5 40.6875 14.703125 37.28125 
L 14.703125 43.484375 
L 7.40625 43.484375 
L 7.40625 0 
L 15 0 
L 15 24.3125 
C 15 30.65625 17.40625 37.890625 24.203125 37.890625 
C 33 37.890625 33.296875 31.953125 33.296875 28.53125 
L 33.296875 0 
L 40.90625 0 
z
" id="CMSS17-110"/>
     <path d="M 8.90625 69 
L 8.90625 0 
L 33.5 0 
C 49.90625 0 62.5 15.328125 62.5 33.890625 
C 62.5 53.0625 49.90625 69 33.5 69 
z
M 17.09375 5.59375 
L 17.09375 63.390625 
L 31.296875 63.390625 
C 44.703125 63.390625 54.296875 51.171875 54.296875 33.890625 
C 54.296875 17.3125 44.796875 5.59375 31.296875 5.59375 
z
" id="CMSS17-68"/>
     <path d="M 16.703125 37.1875 
L 29.703125 37.1875 
L 29.703125 43 
L 16.703125 43 
L 16.703125 55 
L 9.59375 55 
L 9.59375 43 
L 1.703125 43 
L 1.703125 37.1875 
L 9.40625 37.1875 
L 9.40625 11.734375 
C 9.40625 6 10.703125 -1 17.296875 -1 
C 22.296875 -1 26.90625 0.390625 31.296875 2.6875 
L 29.703125 8.609375 
C 27.296875 6.5 24.40625 5.296875 21.296875 5.296875 
C 16.90625 5.296875 16.703125 10.921875 16.703125 13.4375 
z
" id="CMSS17-116"/>
     <path d="M 14.90625 21.390625 
C 14.90625 30.84375 21.796875 37.171875 30.59375 37.375 
L 30.59375 44 
C 24.203125 43.890625 18.203125 40.6875 14.59375 35.46875 
L 14.59375 43.484375 
L 7.5 43.484375 
L 7.5 0 
L 14.90625 0 
z
" id="CMSS17-114"/>
     <path d="M 14.90625 69 
L 7.5 69 
L 7.5 -0.203125 
L 15.09375 -0.203125 
L 15.09375 4.296875 
C 18.90625 0.59375 23.5 -1 27.59375 -1 
C 37.203125 -1 45 8.734375 45 21.59375 
C 45 33.328125 39 44 30.09375 44 
C 23.796875 44 18.203125 41.390625 14.90625 38.6875 
z
M 15.09375 32.734375 
C 17.296875 35.5625 20.40625 37.890625 24.796875 37.890625 
C 30.703125 37.890625 37.40625 33.53125 37.40625 21.59375 
C 37.40625 8.84375 29.40625 5.09375 23.90625 5.09375 
C 21.90625 5.09375 19.796875 5.59375 17.796875 7.3125 
C 15.09375 9.75 15.09375 11.265625 15.09375 12.6875 
z
" id="CMSS17-98"/>
     <path d="M 44.203125 21.1875 
C 44.203125 33.984375 34.703125 44 23.5 44 
C 12 44 2.703125 33.6875 2.703125 21.1875 
C 2.703125 8.5 12.296875 -1 23.40625 -1 
C 34.796875 -1 44.203125 8.796875 44.203125 21.1875 
z
M 23.5 5.296875 
C 16.40625 5.296875 10.296875 11.09375 10.296875 21.984375 
C 10.296875 33.59375 17.40625 37.890625 23.40625 37.890625 
C 29.90625 37.890625 36.59375 33.1875 36.59375 21.984375 
C 36.59375 10.6875 30.09375 5.296875 23.5 5.296875 
z
" id="CMSS17-111"/>
     <path d="M 54.703125 11.015625 
C 48 6.5 44.90625 5.1875 36.796875 5.1875 
C 22.796875 5.1875 14.59375 20.375 14.59375 34.234375 
C 14.59375 49.015625 23 63.59375 37.203125 63.59375 
C 43.59375 63.59375 47.796875 61.78125 52.90625 58.5625 
L 54.296875 66.484375 
C 49.5 68.890625 43.40625 70 37.296875 70 
C 18.09375 70 6.203125 52.234375 6.203125 34.234375 
C 6.203125 14.4375 20.296875 -1.203125 36.296875 -1.203125 
C 44.90625 -1.203125 47.90625 -0.5 55.296875 4.1875 
z
" id="CMSS17-67"/>
     <path d="M 40.796875 69 
L 33.40625 69 
L 33.40625 38.984375 
C 30.296875 41.59375 25.203125 44 19.59375 44 
C 10.5 44 3.296875 34.046875 3.296875 21.484375 
C 3.296875 8.9375 10.40625 -1 19.296875 -1 
C 26.203125 -1 30.796875 2.6875 33.203125 4.796875 
L 33.203125 -0.203125 
L 40.796875 -0.203125 
z
M 33.203125 13.296875 
C 33.203125 11.875 33.203125 10.359375 30.09375 7.625 
C 28.09375 5.90625 25.703125 5.09375 23.40625 5.09375 
C 18 5.09375 10.90625 9.140625 10.90625 21.390625 
C 10.90625 34.140625 18.90625 37.890625 24.40625 37.890625 
C 28.09375 37.890625 31.09375 36.0625 33.203125 33.03125 
z
" id="CMSS17-100"/>
     <path d="M 39.09375 21.484375 
C 39.09375 24.796875 38.90625 31.265625 35.703125 36.671875 
C 32.203125 42.390625 26.5 44 22.203125 44 
C 11.796875 44 3 34.125 3 21.296875 
C 3 9.046875 12.09375 -1 23.59375 -1 
C 28.09375 -1 33.59375 0.296875 38.59375 3.890625 
C 38.59375 4.296875 38.40625 6.46875 38.296875 6.578125 
C 38.296875 6.765625 38 9.828125 38 10.234375 
C 33.203125 6.375 27.703125 5.09375 23.703125 5.09375 
C 17.296875 5.09375 10.40625 10.421875 10.09375 21.484375 
z
M 10.90625 27 
C 12.203125 32.59375 16.59375 37.890625 22.203125 37.890625 
C 23.703125 37.890625 30.703125 37.6875 32.5 27 
z
" id="CMSS17-101"/>
     <path d="M 17 0.09375 
L 17 8 
L 9 8 
L 9 0 
L 11.5 0 
L 8.90625 -12.109375 
L 12.90625 -12.109375 
z
" id="CMSS17-44"/>
     <path d="M 62.703125 43 
L 55.09375 43 
L 49.796875 25 
C 48.703125 21.1875 45.59375 10.6875 45.203125 5.796875 
L 45.09375 5.796875 
C 44.90625 8.796875 43.203125 16 40.40625 25.5 
L 35.296875 43 
L 28.40625 43 
L 23.40625 25.890625 
C 20.90625 17.1875 19 9.796875 18.796875 5.796875 
L 18.703125 5.796875 
C 18.296875 11.6875 14.203125 25.5 13.59375 27.6875 
L 9.09375 43 
L 1.296875 43 
L 14.296875 0 
L 21.90625 0 
C 27.09375 17.1875 31.09375 30.5 31.40625 37.1875 
C 31.59375 33.890625 33.296875 26.796875 34.296875 23.296875 
L 40.90625 0 
L 49.703125 0 
z
" id="CMSS17-119"/>
     <path d="M 40.90625 29.34375 
C 40.90625 35.671875 39.40625 44 28.09375 44 
C 21.796875 44 17.703125 40.890625 14.796875 37.484375 
L 14.796875 69 
L 7.40625 69 
L 7.40625 0 
L 15 0 
L 15 24.3125 
C 15 30.65625 17.40625 37.890625 24.203125 37.890625 
C 33 37.890625 33.296875 31.953125 33.296875 28.53125 
L 33.296875 0 
L 40.90625 0 
z
" id="CMSS17-104"/>
     <path d="M 50.796875 37.59375 
C 52.09375 37.59375 55.40625 37.59375 55.40625 40.796875 
C 55.40625 43 53.5 43 51.703125 43 
L 29.59375 43 
C 14.59375 43 3.796875 26.328125 3.796875 14.5625 
C 3.796875 6.078125 9.296875 -1 18.296875 -1 
C 30.09375 -1 43 11.65625 43 26.625 
C 43 30.515625 42.09375 34.296875 39.703125 37.59375 
z
M 18.40625 1 
C 13.296875 1 9.59375 4.875 9.59375 11.765625 
C 9.59375 17.75 13.203125 37.59375 27.90625 37.59375 
C 32.203125 37.59375 37 35.5 37 27.8125 
C 37 24.328125 35.40625 15.953125 31.90625 10.171875 
C 28.296875 4.28125 22.90625 1 18.40625 1 
z
" id="CMMI12-27"/>
    </defs>
    <use transform="scale(0.996264)" xlink:href="#CMSS17-39"/>
    <use transform="translate(26.024205 0)scale(0.996264)" xlink:href="#CMSS17-71"/>
    <use transform="translate(88.48243 0)scale(0.996264)" xlink:href="#CMSS17-97"/>
    <use transform="translate(133.404351 0)scale(0.996264)" xlink:href="#CMSS17-117"/>
    <use transform="translate(181.609294 0)scale(0.996264)" xlink:href="#CMSS17-115"/>
    <use transform="translate(217.522836 0)scale(0.996264)" xlink:href="#CMSS17-115"/>
    <use transform="translate(253.436378 0)scale(0.996264)" xlink:href="#CMSS17-105"/>
    <use transform="translate(275.617101 0)scale(0.996264)" xlink:href="#CMSS17-97"/>
    <use transform="translate(320.539022 0)scale(0.996264)" xlink:href="#CMSS17-110"/>
    <use transform="translate(368.743965 0)scale(0.996264)" xlink:href="#CMSS17-39"/>
    <use transform="translate(425.997283 0)scale(0.996264)" xlink:href="#CMMI12-31"/>
    <use transform="translate(487.110242 -14.943915)scale(0.697382)" xlink:href="#CMMI12-66"/>
    <use transform="translate(542.504868 -14.943915)scale(0.697382)" xlink:href="#CMMI12-72"/>
    <use transform="translate(636.19707 0)scale(0.996264)" xlink:href="#CMSS17-68"/>
    <use transform="translate(703.739912 0)scale(0.996264)" xlink:href="#CMSS17-105"/>
    <use transform="translate(725.920635 0)scale(0.996264)" xlink:href="#CMSS17-115"/>
    <use transform="translate(761.834177 0)scale(0.996264)" xlink:href="#CMSS17-116"/>
    <use transform="translate(795.665744 0)scale(0.996264)" xlink:href="#CMSS17-114"/>
    <use transform="translate(827.575516 0)scale(0.996264)" xlink:href="#CMSS17-105"/>
    <use transform="translate(849.756239 0)scale(0.996264)" xlink:href="#CMSS17-98"/>
    <use transform="translate(897.961183 0)scale(0.996264)" xlink:href="#CMSS17-117"/>
    <use transform="translate(946.166126 0)scale(0.996264)" xlink:href="#CMSS17-116"/>
    <use transform="translate(979.997692 0)scale(0.996264)" xlink:href="#CMSS17-105"/>
    <use transform="translate(1002.178415 0)scale(0.996264)" xlink:href="#CMSS17-111"/>
    <use transform="translate(1049.022039 0)scale(0.996264)" xlink:href="#CMSS17-110"/>
    <use transform="translate(1097.226982 0)scale(0.996264)" xlink:href="#CMSS17-115"/>
    <use transform="translate(1164.369637 0)scale(0.996264)" xlink:href="#CMSS17-67"/>
    <use transform="translate(1224.225408 0)scale(0.996264)" xlink:href="#CMSS17-111"/>
    <use transform="translate(1271.069032 0)scale(0.996264)" xlink:href="#CMSS17-110"/>
    <use transform="translate(1319.273975 0)scale(0.996264)" xlink:href="#CMSS17-115"/>
    <use transform="translate(1355.187517 0)scale(0.996264)" xlink:href="#CMSS17-105"/>
    <use transform="translate(1377.36824 0)scale(0.996264)" xlink:href="#CMSS17-100"/>
    <use transform="translate(1425.573183 0)scale(0.996264)" xlink:href="#CMSS17-101"/>
    <use transform="translate(1467.212005 0)scale(0.996264)" xlink:href="#CMSS17-114"/>
    <use transform="translate(1499.121778 0)scale(0.996264)" xlink:href="#CMSS17-101"/>
    <use transform="translate(1540.7606 0)scale(0.996264)" xlink:href="#CMSS17-100"/>
    <use transform="translate(1588.965543 0)scale(0.996264)" xlink:href="#CMSS17-44"/>
    <use transform="translate(1646.218861 0)scale(0.996264)" xlink:href="#CMSS17-119"/>
    <use transform="translate(1710.038406 0)scale(0.996264)" xlink:href="#CMSS17-105"/>
    <use transform="translate(1732.219129 0)scale(0.996264)" xlink:href="#CMSS17-116"/>
    <use transform="translate(1766.050696 0)scale(0.996264)" xlink:href="#CMSS17-104"/>
    <use transform="translate(1845.484751 0)scale(0.996264)" xlink:href="#CMMI12-27"/>
    <use transform="translate(1932.178814 0)scale(0.996264)" xlink:href="#CMR17-61"/>
    <use transform="translate(2031.567611 0)scale(0.996264)" xlink:href="#CMR17-48"/>
    <use transform="translate(2077.258088 0)scale(0.996264)" xlink:href="#CMMI12-58"/>
    <use transform="translate(2104.355265 0)scale(0.996264)" xlink:href="#CMR17-50"/>
   </g>
  </g>
 </g>
 <defs>
  <clipPath id="pfca689deac">
   <rect height="101.692389" width="567.014288" x="52.185712" y="45.117498"/>
  </clipPath>
  <clipPath id="p1dcdf7e516">
   <rect height="101.692389" width="567.014288" x="52.185712" y="169.484853"/>
  </clipPath>
  <clipPath id="p37e5fb7901">
   <rect height="101.692389" width="567.014288" x="52.185712" y="293.852209"/>
  </clipPath>
 </defs>
</svg>
