<?xml version="1.0" encoding="UTF-8" standalone="no"?>
<svg
   xmlns:dc="http://purl.org/dc/elements/1.1/"
   xmlns:cc="http://creativecommons.org/ns#"
   xmlns:rdf="http://www.w3.org/1999/02/22-rdf-syntax-ns#"
   xmlns:svg="http://www.w3.org/2000/svg"
   xmlns="http://www.w3.org/2000/svg"
   xmlns:xlink="http://www.w3.org/1999/xlink"
   xmlns:sodipodi="http://sodipodi.sourceforge.net/DTD/sodipodi-0.dtd"
   xmlns:inkscape="http://www.inkscape.org/namespaces/inkscape"
   height="451.44pt"
   version="1.1"
   viewBox="0 0 585.36 451.44"
   width="585.36pt"
   id="svg1596"
   sodipodi:docname="number_fluence.svg"
   inkscape:version="1.0.2 (e86c870879, 2021-01-15, custom)"
   inkscape:export-filename="/home/bharath/Desktop/a-tale-of-two-dead-stars/reports/thesis-final/figures/number_fluence.png"
   inkscape:export-xdpi="300"
   inkscape:export-ydpi="300">
  <sodipodi:namedview
     pagecolor="#ffffff"
     bordercolor="#666666"
     borderopacity="1"
     objecttolerance="10"
     gridtolerance="10"
     guidetolerance="10"
     inkscape:pageopacity="0"
     inkscape:pageshadow="2"
     inkscape:window-width="1360"
     inkscape:window-height="741"
     id="namedview1598"
     showgrid="false"
     inkscape:zoom="0.93700159"
     inkscape:cx="477.76161"
     inkscape:cy="313.46191"
     inkscape:window-x="1920"
     inkscape:window-y="489"
     inkscape:window-maximized="0"
     inkscape:current-layer="svg1596" />
  <metadata
     id="metadata842">
    <rdf:RDF>
      <cc:Work>
        <dc:type
           rdf:resource="http://purl.org/dc/dcmitype/StillImage" />
        <dc:date>2021-06-11T18:52:49.613250</dc:date>
        <dc:format>image/svg+xml</dc:format>
        <dc:creator>
          <cc:Agent>
            <dc:title>Matplotlib v3.3.2, https://matplotlib.org/</dc:title>
          </cc:Agent>
        </dc:creator>
      </cc:Work>
    </rdf:RDF>
  </metadata>
  <defs
     id="defs846">
    <style
       type="text/css"
       id="style844">*{stroke-linecap:butt;stroke-linejoin:round;}</style>
    <defs
       id="defs858">
      <path
         d="M 0,0 V 6"
         id="m341b2c7222"
         style="stroke:#262626;stroke-width:0.8" />
    </defs>
    <defs
       id="defs953">
      <path
         d="M 0,0 V 3"
         id="m2c2e2d3e30"
         style="stroke:#262626;stroke-width:0.6" />
    </defs>
    <defs
       id="defs1197">
      <path
         d="m 45.59375,31 v 6.09375 H 17.203125 V 62.390625 H 29.40625 c 1.1875,0 2.390625,-0.09375 3.59375,-0.09375 h 16.5 v 6.5 H 8.796875 V 0 h 8.40625 v 31 z"
         id="CMSS17-70" />
      <path
         d="M 14.796875,69 H 7.40625 V 0 h 7.390625 z"
         id="CMSS17-108" />
      <path
         d="M 40.90625,43 H 33.296875 V 15.25 C 33.296875,7.8125 27.90625,4.796875 22.203125,4.796875 15.59375,4.796875 15,7 15,11.125 V 43 H 7.40625 V 10.625 C 7.40625,2.796875 10.09375,-1 17,-1 c 3.40625,0 11.09375,0.796875 16.5,5.796875 v -5 h 7.40625 z"
         id="CMSS17-117" />
      <path
         d="m 39.09375,21.484375 c 0,3.3125 -0.1875,9.78125 -3.390625,15.1875 C 32.203125,42.390625 26.5,44 22.203125,44 11.796875,44 3,34.125 3,21.296875 3,9.046875 12.09375,-1 23.59375,-1 c 4.5,0 10,1.296875 15,4.890625 0,0.40625 -0.1875,2.578125 -0.296875,2.6875 0,0.1875 -0.296875,3.25 -0.296875,3.65625 C 33.203125,6.375 27.703125,5.09375 23.703125,5.09375 c -6.40625,0 -13.296875,5.328125 -13.609375,16.390625 z M 10.90625,27 c 1.296875,5.59375 5.6875,10.890625 11.296875,10.890625 1.5,0 8.5,-0.203125 10.296875,-10.890625 z"
         id="CMSS17-101" />
      <path
         d="M 40.90625,29.34375 C 40.90625,35.671875 39.40625,44 28.09375,44 21.703125,44 17.5,40.6875 14.703125,37.28125 v 6.203125 H 7.40625 V 0 H 15 v 24.3125 c 0,6.34375 2.40625,13.578125 9.203125,13.578125 8.796875,0 9.09375,-5.9375 9.09375,-9.359375 V 0 h 7.609375 z"
         id="CMSS17-110" />
      <path
         d="m 38.5,39.6875 c 0,0.703125 -4.59375,2.703125 -5.796875,3.109375 C 29.40625,44 25.203125,44 24.09375,44 11.09375,44 3.296875,32.6875 3.296875,21.296875 3.296875,9.296875 12,-1 23.703125,-1 c 6.703125,0 11.5,2.1875 15.390625,4.796875 L 38.5,10.390625 C 34.203125,7.09375 29.203125,5.296875 23.796875,5.296875 16,5.296875 10.90625,12.09375 10.90625,21.390625 c 0,7.203125 3.296875,16.296875 13.296875,16.296875 5.5,0 8.59375,-1.09375 13.203125,-4.203125 z"
         id="CMSS17-99" />
      <path
         d="M 17,0.09375 V 8 H 9 V 0 h 2.5 L 8.90625,-12.109375 h 4 z"
         id="CMSS17-44" />
      <path
         d="M 83,64.09375 C 83,68.6875 75.296875,68 72.203125,68 H 34.5 c -5,0 -13.90625,-2.90625 -15.5,-8.3125 0.203125,-0.59375 0.40625,-0.703125 1,-0.703125 2.203125,0 5.203125,1.8125 6.59375,3.3125 3.109375,0 6.109375,0.1875 9.203125,0.1875 H 42 c 0,0 -0.40625,-1.796875 -0.40625,-1.890625 C 37.703125,42.296875 31.796875,26.890625 27.40625,17.375 26.796875,16.109375 21.40625,3.796875 20,2.59375 c -4.40625,0 -7.703125,2.40625 -9.5,6.296875 -0.296875,0.609375 -0.296875,1 -1,1 C 7.203125,9.890625 1.703125,6.6875 1.703125,5 1.703125,4.796875 1.796875,4.59375 1.90625,4.390625 3.703125,-0.3125 8.203125,-3 13.09375,-3 c 5.109375,0 11,3.6875 14.203125,7.390625 3.296875,3.796875 9.90625,19.78125 12.5,25.609375 H 59.09375 C 59,29.890625 58.90625,29.796875 58.90625,29.6875 c 0,-0.375 0.59375,-0.671875 1,-0.671875 2.1875,0 7.890625,2.78125 7.890625,5.875 0,0.703125 -0.703125,0.609375 -1.890625,0.609375 h -24 c 2.59375,8.984375 6,17.796875 7.796875,26.984375 H 62.90625 c 2.5,0 9.5,0.5 11.296875,-1.6875 C 74.40625,60.1875 74.09375,59.1875 74.40625,58.6875 c 0.1875,-0.203125 0.5,-0.296875 0.796875,-0.296875 2.390625,0 7.796875,3 7.796875,5.703125 z"
         id="CMSY10-70" />
    </defs>
    <defs
       id="defs1225">
      <path
         d="M 0,0 H -6"
         id="mdfd6975eb6"
         style="stroke:#262626;stroke-width:0.8" />
    </defs>
    <defs
       id="defs1306">
      <path
         d="M 0,0 H -3"
         id="ma22c21b079"
         style="stroke:#262626;stroke-width:0.6" />
    </defs>
    <defs
       id="defs1479">
      <path
         d="m 14.90625,21.390625 c 0,9.453125 6.890625,15.78125 15.6875,15.984375 V 44 c -6.390625,-0.109375 -12.390625,-3.3125 -16,-8.53125 v 8.015625 H 7.5 V 0 h 7.40625 z"
         id="CMSS17-114" />
      <path
         d="M 37.59375,27.953125 C 37.59375,37.484375 30.90625,44 21.90625,44 17.5,44 12.703125,43.1875 7.203125,39.984375 l 0.59375,-6.65625 c 2.5,1.828125 6.796875,4.765625 14,4.765625 C 26.90625,38.09375 30,34.140625 30,27.84375 V 24 C 14,23.5 4,18.890625 4,11.109375 4,7.0625 6.5,-1 14.796875,-1 c 1.5,0 9.609375,0.1875 15.40625,4.5 V -0.203125 H 37.59375 Z M 30,12.875 c 0,-1.765625 0,-4.140625 -3,-5.90625 -2.59375,-1.671875 -5.90625,-1.875 -7.296875,-1.875 -5,0 -8.40625,2.765625 -8.40625,6.203125 0,6.90625 15.609375,7.59375 18.703125,7.703125 z"
         id="CMSS17-97" />
      <path
         d="m 16.703125,37.1875 h 13 V 43 h -13 V 55 H 9.59375 V 43 H 1.703125 V 37.1875 H 9.40625 V 11.734375 C 9.40625,6 10.703125,-1 17.296875,-1 c 5,0 9.609375,1.390625 14,3.6875 l -1.59375,5.921875 C 27.296875,6.5 24.40625,5.296875 21.296875,5.296875 c -4.390625,0 -4.59375,5.625 -4.59375,8.140625 z"
         id="CMSS17-116" />
      <path
         d="M 15.296875,66 H 6.90625 v -8.40625 h 8.390625 z m -0.5,-23 H 7.40625 V 0 h 7.390625 z"
         id="CMSS17-105" />
      <path
         d="M 44.203125,21.1875 C 44.203125,33.984375 34.703125,44 23.5,44 12,44 2.703125,33.6875 2.703125,21.1875 2.703125,8.5 12.296875,-1 23.40625,-1 34.796875,-1 44.203125,8.796875 44.203125,21.1875 Z M 23.5,5.296875 c -7.09375,0 -13.203125,5.796875 -13.203125,16.6875 0,11.609375 7.109375,15.90625 13.109375,15.90625 6.5,0 13.1875,-4.703125 13.1875,-15.90625 0,-11.296875 -6.5,-16.6875 -13.09375,-16.6875 z"
         id="CMSS17-111" />
      <path
         d="M 16.796875,37.1875 H 26.90625 V 43 h -10.3125 v 12.671875 c 0,7.03125 5.40625,8.21875 8.5,8.21875 1,0 3.8125,0 7.40625,-1.28125 V 69.1875 C 30.203125,69.6875 27.40625,70 25.203125,70 15.90625,70 9.40625,62.40625 9.40625,52.59375 V 43 H 2.5 V 37.1875 H 9.40625 V 0 h 7.390625 z"
         id="CMSS17-102" />
      <path
         d="m 30.59375,6.796875 c -8,0 -11.59375,0 -13.390625,-0.109375 v 26.203125 h 31 V 39 h -31 V 62.390625 H 30.09375 c 1.203125,0 2.40625,-0.09375 3.609375,-0.09375 h 17.09375 v 6.5 h -42 V 0 H 52.09375 v 6.890625 z"
         id="CMSS17-69" />
      <path
         d="M 41.796875,43 H 34 L 27.296875,24.296875 C 25.203125,18.1875 22.203125,9.796875 21.703125,5.5 H 21.59375 c -0.1875,1.796875 -1,4.390625 -1.5,6.1875 -0.59375,2.203125 -1.390625,4.8125 -2,6.609375 L 9.296875,43 h -8 L 17.09375,0 H 26 Z"
         id="CMSS17-118" />
      <path
         d="M 32.203125,40.984375 C 26.296875,43.796875 21.703125,44 18.703125,44 11.59375,44 3.09375,41.484375 3.09375,31.390625 c 0,-10.09375 11,-12.296875 14,-12.90625 4.609375,-0.890625 9.703125,-1.890625 9.703125,-6.890625 0,-6.296875 -7.203125,-6.296875 -8.5,-6.296875 -4,0 -9.5,1.09375 -14.5,4.6875 L 2.59375,3.296875 C 8.296875,0 13.796875,-1 18.40625,-1 c 12.296875,0 15.390625,7.5 15.390625,13.1875 0,4.90625 -2.796875,8.203125 -4.703125,9.703125 -3.296875,2.59375 -4.5,2.90625 -12.6875,4.59375 -1.40625,0.203125 -6.3125,1.3125 -6.3125,5.8125 0,5.6875 6.3125,5.6875 7.703125,5.6875 6.5,0 10.5,-2 13.203125,-3.5 z"
         id="CMSS17-115" />
      <path
         d="M 62.703125,43 H 55.09375 L 49.796875,25 C 48.703125,21.1875 45.59375,10.6875 45.203125,5.796875 H 45.09375 C 44.90625,8.796875 43.203125,16 40.40625,25.5 L 35.296875,43 H 28.40625 l -5,-17.109375 C 20.90625,17.1875 19,9.796875 18.796875,5.796875 h -0.09375 C 18.296875,11.6875 14.203125,25.5 13.59375,27.6875 L 9.09375,43 H 1.296875 l 13,-43 h 7.609375 c 5.1875,17.1875 9.1875,30.5 9.5,37.1875 0.1875,-3.296875 1.890625,-10.390625 2.890625,-13.890625 L 40.90625,0 h 8.796875 z"
         id="CMSS17-119" />
      <path
         d="M 40.90625,29.34375 C 40.90625,35.671875 39.40625,44 28.09375,44 21.796875,44 17.703125,40.890625 14.796875,37.484375 V 69 H 7.40625 V 0 H 15 v 24.3125 c 0,6.34375 2.40625,13.578125 9.203125,13.578125 8.796875,0 9.09375,-5.9375 9.09375,-9.359375 V 0 h 7.609375 z"
         id="CMSS17-104" />
      <path
         d="m 65.90625,22.8125 c 1.890625,0.921875 2,1.515625 2,2.234375 0,0.59375 -0.203125,1.3125 -2,2.109375 L 11.796875,52.296875 C 10.5,52.890625 10.296875,53 10.09375,53 8.90625,53 8.203125,51.984375 8.203125,51.1875 c 0,-1.203125 0.796875,-1.609375 2.09375,-2.21875 l 51.40625,-23.921875 -51.5,-24.03125 c -2,-0.90625 -2,-1.625 -2,-2.21875 C 8.203125,-2 8.90625,-3 10.09375,-3 c 0.203125,0 0.3125,0.09375 1.703125,0.6875 z"
         id="CMMI12-62" />
      <path
         d="m 30.59375,57.140625 c 1.8125,-5.171875 4,-12.640625 8.5,-24.875 6.3125,-16.921875 9.109375,-23.09375 15.203125,-32.578125 1.40625,-2.09375 1.5,-2.1875 2.40625,-2.1875 1.390625,0 3.5,1.1875 4.59375,2 1.40625,1.296875 1.5,1.390625 2.609375,6.28125 6,26.1875 13.59375,53.453125 15.59375,58.03125 0.09375,0.203125 2.09375,3.984375 14.40625,4.1875 2,0.09375 3.890625,5.390625 3.890625,7.59375 0,1.59375 -0.59375,1.59375 -2,1.59375 -10,0 -14.5,-4.1875 -15.703125,-5.5 C 77.296875,68.09375 74.90625,60.828125 70.296875,44.203125 66.796875,31.46875 63.59375,18.53125 60.5,5.6875 55,13.953125 51.90625,21.8125 47.09375,34.65625 c -5.296875,14.125 -8.5,24.484375 -11.1875,33.4375 -0.609375,2 -0.703125,2.09375 -1.609375,2.09375 -0.203125,0 -2.203125,0 -5.09375,-2.390625 C 28.203125,66.90625 28.09375,66 28,64.90625 25.203125,38.4375 15.796875,12.25 13.09375,7.484375 c -0.796875,-1.5 -2,-3.296875 -4,-3.296875 -1,0 -4.890625,0.5 -7.5,2.890625 -0.5,0.40625 -0.6875,0.40625 -0.796875,0.40625 C -0.796875,7.484375 -2.90625,2.5 -2.90625,0.09375 -2.90625,-3 3.203125,-5 6,-5 c 6.40625,0 11.5,14.0625 13.09375,18.640625 6.5,18.015625 9.609375,32.859375 11.5,43.5 z"
         id="CMSY10-78" />
      <path
         d="m 30.59375,-24.40625 c 0,0.09375 0,0.296875 -0.296875,0.59375 -4.59375,4.703125 -16.890625,17.515625 -16.890625,48.75 0,31.234375 12.09375,43.9375 17,48.953125 0,0.09375 0.1875,0.296875 0.1875,0.59375 0,0.3125 -0.296875,0.515625 -0.6875,0.515625 -1.109375,0 -9.609375,-7.421875 -14.5,-18.4375 C 10.40625,45.453125 9,34.65625 9,25.046875 9,17.828125 9.703125,5.625 15.703125,-7.296875 20.5,-17.703125 28.703125,-25 29.90625,-25 c 0.5,0 0.6875,0.1875 0.6875,0.59375 z"
         id="CMR17-40" />
      <path
         d="m 26.296875,24.9375 c 0,7.203125 -0.703125,19.421875 -6.703125,32.328125 C 14.796875,67.6875 6.59375,75 5.40625,75 5.09375,75 4.703125,74.890625 4.703125,74.390625 c 0,-0.203125 0.09375,-0.296875 0.203125,-0.5 4.796875,-5.015625 17,-17.71875 17,-48.84375 0,-31.234375 -12.109375,-43.953125 -17,-48.953125 -0.109375,-0.203125 -0.203125,-0.296875 -0.203125,-0.5 0,-0.5 0.390625,-0.59375 0.703125,-0.59375 1.09375,0 9.59375,7.390625 14.5,18.40625 5,11.109375 6.390625,21.921875 6.390625,31.53125 z"
         id="CMR17-41" />
    </defs>
    <defs
       id="defs869">
      <path
         d="M 26.59375,63.796875 C 26.59375,65.890625 26.5,66 25.09375,66 21.203125,61.359375 15.296875,59.890625 9.703125,59.6875 c -0.296875,0 -0.796875,0 -0.90625,-0.1875 C 8.703125,59.296875 8.703125,59.09375 8.703125,57 11.796875,57 17,57.59375 21,59.984375 v -52.6875 c 0,-3.5 -0.203125,-4.703125 -8.796875,-4.703125 h -3 V 0 C 14,0.09375 19,0.1875 23.796875,0.1875 28.59375,0.1875 33.59375,0.09375 38.40625,0 v 2.59375 h -3 c -8.609375,0 -8.8125,1.09375 -8.8125,4.703125 z"
         id="CMR17-49" />
      <path
         d="m 42,31.84375 c 0,6.125 -0.09375,16.578125 -4.296875,24.609375 C 34,63.484375 28.09375,66 22.90625,66 18.09375,66 12,63.78125 8.203125,56.5625 4.203125,49.015625 3.796875,39.671875 3.796875,31.84375 3.796875,26.109375 3.90625,17.375 7,9.734375 11.296875,-0.609375 19,-2 22.90625,-2 27.5,-2 34.5,-0.109375 38.59375,9.4375 41.59375,16.375 42,24.5 42,31.84375 Z m -19.09375,-32.25 C 16.5,-0.40625 12.703125,5.125 11.296875,12.75 c -1.09375,5.9375 -1.09375,14.578125 -1.09375,20.203125 0,7.734375 0,14.15625 1.296875,20.28125 1.90625,8.546875 7.5,11.15625 11.40625,11.15625 4.09375,0 9.390625,-2.71875 11.296875,-10.953125 C 35.5,47.71875 35.59375,40.984375 35.59375,32.953125 c 0,-6.53125 0,-14.578125 -1.1875,-20.5 -2.109375,-10.953125 -8,-12.859375 -11.5,-12.859375 z"
         id="CMR17-48" />
      <path
         d="m 65.90625,23 c 1.6875,0 3.5,0 3.5,2 0,2 -1.8125,2 -3.5,2 H 11.796875 c -1.703125,0 -3.5,0 -3.5,-2 0,-2 1.796875,-2 3.5,-2 z"
         id="CMSY10-0" />
      <path
         d="M 10.59375,34.34375 C 10.59375,58 21.796875,63.6875 28.296875,63.6875 30.40625,63.6875 35.5,63.265625 37.5,59.09375 c -1.59375,0 -4.59375,0 -4.59375,-3.5 C 32.90625,52.890625 35.09375,52 36.5,52 c 0.90625,0 3.59375,0.390625 3.59375,3.796875 0,6.5 -5,10.203125 -11.890625,10.203125 C 16.296875,66 3.796875,53.296875 3.796875,31.421875 3.796875,4.015625 15.09375,-2 23.09375,-2 32.796875,-2 42,6.734375 42,20.234375 42,32.828125 33.90625,42 23.703125,42 17.59375,42 13.09375,37.96875 10.59375,30.921875 Z m 12.5,-33.953125 c -12.296875,0 -12.296875,18.546875 -12.296875,22.265625 0,7.25 3.40625,17.734375 12.703125,17.734375 1.703125,0 6.59375,0 9.90625,-6.953125 1.796875,-3.921875 1.796875,-8.0625 1.796875,-13.09375 0,-5.4375 0,-9.46875 -2.109375,-13.5 -2.1875,-4.140625 -5.390625,-6.453125 -10,-6.453125 z"
         id="CMR17-54" />
    </defs>
    <defs
       id="defs892">
      <path
         d="m 11.40625,58.59375 c 1,-0.40625 5.09375,-1.703125 9.296875,-1.703125 9.296875,0 14.390625,5 17.296875,7.796875 C 38,65.484375 38,66 37.40625,66 c -0.109375,0 -0.3125,0 -1.109375,-0.40625 -3.5,-1.5 -7.59375,-2.59375 -12.59375,-2.59375 -3,0 -7.5,0.359375 -12.40625,2.484375 C 10.203125,66 10,66 9.90625,66 9.40625,66 9.296875,65.890625 9.296875,63.90625 V 34.859375 c 0,-1.84375 0,-2.359375 1,-2.359375 0.5,0 0.703125,0.203125 1.203125,0.921875 C 14.703125,38.046875 19.09375,40 24.09375,40 c 3.5,0 11,-2.265625 11,-19.796875 0,-3.21875 0,-9.015625 -3,-13.609375 -2.5,-4.109375 -6.390625,-6.203125 -10.6875,-6.203125 -6.609375,0 -13.3125,4.59375 -15.109375,12.296875 C 6.703125,12.59375 7.5,12.390625 7.90625,12.390625 c 1.296875,0 3.796875,0.703125 3.796875,3.796875 C 11.703125,18.890625 9.796875,20 7.90625,20 5.59375,20 4.09375,18.59375 4.09375,15.796875 4.09375,7.09375 11,-2 21.59375,-2 c 10.3125,0 20.109375,8.890625 20.109375,21.796875 0,12.296875 -7.796875,21.796875 -17.5,21.796875 -5.109375,0 -9.40625,-1.90625 -12.796875,-5.59375 z"
         id="CMR17-53" />
    </defs>
    <defs
       id="defs915">
      <path
         d="M 33.59375,64.796875 C 33.59375,66.890625 33.5,67 31.703125,67 L 2,19.59375 V 17 H 27.796875 V 7.1875 c 0,-3.59375 -0.203125,-4.59375 -7.203125,-4.59375 H 18.703125 V 0 c 3.203125,0.1875 8.59375,0.1875 12,0.1875 3.390625,0 8.796875,0 12,-0.1875 v 2.59375 h -1.90625 c -7,0 -7.203125,1 -7.203125,4.59375 V 17 h 10.203125 v 2.59375 H 33.59375 Z m -5.5,-6.625 V 19.59375 H 4 Z"
         id="CMR17-52" />
    </defs>
    <defs
       id="defs938">
      <path
         d="M 22.09375,34 C 31,34 34.90625,26.140625 34.90625,17.09375 34.90625,5.03125 28.5,0.390625 22.703125,0.390625 c -5.296875,0 -13.90625,2.625 -16.609375,10.40625 0.5,-0.203125 1,-0.203125 1.5,-0.203125 2.40625,0 4.203125,1.59375 4.203125,4.203125 C 11.796875,17.6875 9.59375,19 7.59375,19 5.90625,19 3.296875,18.1875 3.296875,14.484375 3.296875,5.234375 12.296875,-2 22.90625,-2 34,-2 42.5,6.75 42.5,16.984375 42.5,26.84375 34.5,34 25,35.09375 32.59375,36.671875 39.90625,43.375 39.90625,52.390625 39.90625,60.25 32,66 23,66 13.90625,66 5.90625,60.34375 5.90625,52.296875 c 0,-3.5 2.59375,-4.109375 3.890625,-4.109375 2.109375,0 3.90625,1.296875 3.90625,3.90625 C 13.703125,54.6875 11.90625,56 9.796875,56 9.40625,56 8.90625,56 8.5,55.796875 c 2.90625,6.6875 10.796875,7.890625 14.296875,7.890625 3.5,0 10.109375,-1.71875 10.109375,-11.390625 0,-2.8125 -0.40625,-7.75 -3.8125,-12.078125 -3,-3.828125 -6.390625,-4.03125 -9.6875,-4.328125 -0.5,0 -2.8125,-0.203125 -3.203125,-0.203125 C 15.5,35.59375 15.09375,35.5 15.09375,34.796875 15.09375,34.09375 15.203125,34 17.203125,34 Z"
         id="CMR17-51" />
    </defs>
    <defs
       id="defs1253">
      <path
         d="M 41.703125,15.46875 H 39.90625 c -1,-7.078125 -1.8125,-8.28125 -2.203125,-8.875 C 37.203125,5.796875 30,5.796875 28.59375,5.796875 H 9.40625 C 13,9.6875 20,16.765625 28.5,24.9375 34.59375,30.71875 41.703125,37.5 41.703125,47.390625 41.703125,59.1875 32.296875,66 21.796875,66 c -11,0 -17.703125,-9.703125 -17.703125,-18.703125 0,-3.90625 2.90625,-4.40625 4.109375,-4.40625 1,0 4,0.59375 4,4.09375 C 12.203125,50.09375 9.59375,51 8.203125,51 7.59375,51 7,50.890625 6.59375,50.6875 c 1.90625,8.5 7.703125,12.703125 13.8125,12.703125 8.6875,0 14.390625,-6.890625 14.390625,-16 0,-8.6875 -5.09375,-16.171875 -10.796875,-22.65625 L 4.09375,2.296875 V 0 h 35.203125 z"
         id="CMR17-50" />
    </defs>
  </defs>
  <path
     d="M 0,451.44 H 585.36 V 0 H 0 Z"
     style="fill:#f0f0f0"
     id="path848" />
  <path
     d="M 71.836022,395.5446 H 570.24 V 36.165432 H 71.836022 Z"
     style="fill:#ffffff"
     id="path851" />
  <path
     clip-path="url(#pa04fa66cce)"
     d="M 166.36341,395.5446 V 36.165432"
     style="fill:none;stroke:#cccccc;stroke-linecap:round"
     id="path854" />
  <use
     style="fill:#262626;stroke:#262626;stroke-width:0.8"
     x="166.3634"
     xlink:href="#m341b2c7222"
     y="395.54459"
     id="use860"
     width="100%"
     height="100%" />
  <use
     transform="matrix(0.13947696,0,0,-0.13947696,153.12401,414.73047)"
     xlink:href="#CMR17-49"
     id="use871"
     x="0"
     y="0"
     width="100%"
     height="100%"
     style="fill:#262626" />
  <use
     transform="matrix(0.13947696,0,0,-0.13947696,159.52068,414.73047)"
     xlink:href="#CMR17-48"
     id="use873"
     x="0"
     y="0"
     width="100%"
     height="100%"
     style="fill:#262626" />
  <use
     transform="matrix(0.09763348,0,0,-0.09763348,165.91734,409.66896)"
     xlink:href="#CMSY10-0"
     id="use875"
     x="0"
     y="0"
     width="100%"
     height="100%"
     style="fill:#262626" />
  <use
     transform="matrix(0.09763348,0,0,-0.09763348,173.51108,409.66896)"
     xlink:href="#CMR17-54"
     id="use877"
     x="0"
     y="0"
     width="100%"
     height="100%"
     style="fill:#262626" />
  <path
     clip-path="url(#pa04fa66cce)"
     d="M 269.39961,395.5446 V 36.165432"
     style="fill:none;stroke:#cccccc;stroke-linecap:round"
     id="path883" />
  <use
     style="fill:#262626;stroke:#262626;stroke-width:0.8"
     x="269.3996"
     xlink:href="#m341b2c7222"
     y="395.54459"
     id="use886"
     width="100%"
     height="100%" />
  <use
     transform="matrix(0.13947696,0,0,-0.13947696,256.16021,414.73047)"
     xlink:href="#CMR17-49"
     id="use894"
     x="0"
     y="0"
     width="100%"
     height="100%"
     style="fill:#262626" />
  <use
     transform="matrix(0.13947696,0,0,-0.13947696,262.55688,414.73047)"
     xlink:href="#CMR17-48"
     id="use896"
     x="0"
     y="0"
     width="100%"
     height="100%"
     style="fill:#262626" />
  <use
     transform="matrix(0.09763348,0,0,-0.09763348,268.95354,409.66896)"
     xlink:href="#CMSY10-0"
     id="use898"
     x="0"
     y="0"
     width="100%"
     height="100%"
     style="fill:#262626" />
  <use
     transform="matrix(0.09763348,0,0,-0.09763348,276.54728,409.66896)"
     xlink:href="#CMR17-53"
     id="use900"
     x="0"
     y="0"
     width="100%"
     height="100%"
     style="fill:#262626" />
  <path
     clip-path="url(#pa04fa66cce)"
     d="M 372.43581,395.5446 V 36.165432"
     style="fill:none;stroke:#cccccc;stroke-linecap:round"
     id="path906" />
  <use
     style="fill:#262626;stroke:#262626;stroke-width:0.8"
     x="372.43582"
     xlink:href="#m341b2c7222"
     y="395.54459"
     id="use909"
     width="100%"
     height="100%" />
  <use
     transform="matrix(0.13947696,0,0,-0.13947696,359.19641,414.73047)"
     xlink:href="#CMR17-49"
     id="use917"
     x="0"
     y="0"
     width="100%"
     height="100%"
     style="fill:#262626" />
  <use
     transform="matrix(0.13947696,0,0,-0.13947696,365.59308,414.73047)"
     xlink:href="#CMR17-48"
     id="use919"
     x="0"
     y="0"
     width="100%"
     height="100%"
     style="fill:#262626" />
  <use
     transform="matrix(0.09763348,0,0,-0.09763348,371.98974,409.66896)"
     xlink:href="#CMSY10-0"
     id="use921"
     x="0"
     y="0"
     width="100%"
     height="100%"
     style="fill:#262626" />
  <use
     transform="matrix(0.09763348,0,0,-0.09763348,379.58348,409.66896)"
     xlink:href="#CMR17-52"
     id="use923"
     x="0"
     y="0"
     width="100%"
     height="100%"
     style="fill:#262626" />
  <path
     clip-path="url(#pa04fa66cce)"
     d="M 475.47201,395.5446 V 36.165432"
     style="fill:none;stroke:#cccccc;stroke-linecap:round"
     id="path929" />
  <use
     style="fill:#262626;stroke:#262626;stroke-width:0.8"
     x="475.47202"
     xlink:href="#m341b2c7222"
     y="395.54459"
     id="use932"
     width="100%"
     height="100%" />
  <use
     transform="matrix(0.13947696,0,0,-0.13947696,462.23261,414.73047)"
     xlink:href="#CMR17-49"
     id="use940"
     x="0"
     y="0"
     width="100%"
     height="100%"
     style="fill:#262626" />
  <use
     transform="matrix(0.13947696,0,0,-0.13947696,468.62928,414.73047)"
     xlink:href="#CMR17-48"
     id="use942"
     x="0"
     y="0"
     width="100%"
     height="100%"
     style="fill:#262626" />
  <use
     transform="matrix(0.09763348,0,0,-0.09763348,475.02594,409.66896)"
     xlink:href="#CMSY10-0"
     id="use944"
     x="0"
     y="0"
     width="100%"
     height="100%"
     style="fill:#262626" />
  <use
     transform="matrix(0.09763348,0,0,-0.09763348,482.61968,409.66896)"
     xlink:href="#CMR17-51"
     id="use946"
     x="0"
     y="0"
     width="100%"
     height="100%"
     style="fill:#262626" />
  <use
     style="fill:#262626;stroke:#262626;stroke-width:0.6"
     x="94.344193"
     xlink:href="#m2c2e2d3e30"
     y="395.54459"
     id="use955"
     width="100%"
     height="100%" />
  <use
     style="fill:#262626;stroke:#262626;stroke-width:0.6"
     x="112.48797"
     xlink:href="#m2c2e2d3e30"
     y="395.54459"
     id="use961"
     width="100%"
     height="100%" />
  <use
     style="fill:#262626;stroke:#262626;stroke-width:0.6"
     x="125.36118"
     xlink:href="#m2c2e2d3e30"
     y="395.54459"
     id="use967"
     width="100%"
     height="100%" />
  <use
     style="fill:#262626;stroke:#262626;stroke-width:0.6"
     x="135.34642"
     xlink:href="#m2c2e2d3e30"
     y="395.54459"
     id="use973"
     width="100%"
     height="100%" />
  <use
     style="fill:#262626;stroke:#262626;stroke-width:0.6"
     x="143.50496"
     xlink:href="#m2c2e2d3e30"
     y="395.54459"
     id="use979"
     width="100%"
     height="100%" />
  <use
     style="fill:#262626;stroke:#262626;stroke-width:0.6"
     x="150.40291"
     xlink:href="#m2c2e2d3e30"
     y="395.54459"
     id="use985"
     width="100%"
     height="100%" />
  <use
     style="fill:#262626;stroke:#262626;stroke-width:0.6"
     x="156.37817"
     xlink:href="#m2c2e2d3e30"
     y="395.54459"
     id="use991"
     width="100%"
     height="100%" />
  <use
     style="fill:#262626;stroke:#262626;stroke-width:0.6"
     x="161.64873"
     xlink:href="#m2c2e2d3e30"
     y="395.54459"
     id="use997"
     width="100%"
     height="100%" />
  <use
     style="fill:#262626;stroke:#262626;stroke-width:0.6"
     x="197.3804"
     xlink:href="#m2c2e2d3e30"
     y="395.54459"
     id="use1003"
     width="100%"
     height="100%" />
  <use
     style="fill:#262626;stroke:#262626;stroke-width:0.6"
     x="215.52417"
     xlink:href="#m2c2e2d3e30"
     y="395.54459"
     id="use1009"
     width="100%"
     height="100%" />
  <use
     style="fill:#262626;stroke:#262626;stroke-width:0.6"
     x="228.39738"
     xlink:href="#m2c2e2d3e30"
     y="395.54459"
     id="use1015"
     width="100%"
     height="100%" />
  <use
     style="fill:#262626;stroke:#262626;stroke-width:0.6"
     x="238.38263"
     xlink:href="#m2c2e2d3e30"
     y="395.54459"
     id="use1021"
     width="100%"
     height="100%" />
  <use
     style="fill:#262626;stroke:#262626;stroke-width:0.6"
     x="246.54115"
     xlink:href="#m2c2e2d3e30"
     y="395.54459"
     id="use1027"
     width="100%"
     height="100%" />
  <use
     style="fill:#262626;stroke:#262626;stroke-width:0.6"
     x="253.4391"
     xlink:href="#m2c2e2d3e30"
     y="395.54459"
     id="use1033"
     width="100%"
     height="100%" />
  <use
     style="fill:#262626;stroke:#262626;stroke-width:0.6"
     x="259.41437"
     xlink:href="#m2c2e2d3e30"
     y="395.54459"
     id="use1039"
     width="100%"
     height="100%" />
  <use
     style="fill:#262626;stroke:#262626;stroke-width:0.6"
     x="264.68494"
     xlink:href="#m2c2e2d3e30"
     y="395.54459"
     id="use1045"
     width="100%"
     height="100%" />
  <use
     style="fill:#262626;stroke:#262626;stroke-width:0.6"
     x="300.4166"
     xlink:href="#m2c2e2d3e30"
     y="395.54459"
     id="use1051"
     width="100%"
     height="100%" />
  <use
     style="fill:#262626;stroke:#262626;stroke-width:0.6"
     x="318.56036"
     xlink:href="#m2c2e2d3e30"
     y="395.54459"
     id="use1057"
     width="100%"
     height="100%" />
  <use
     style="fill:#262626;stroke:#262626;stroke-width:0.6"
     x="331.43359"
     xlink:href="#m2c2e2d3e30"
     y="395.54459"
     id="use1063"
     width="100%"
     height="100%" />
  <use
     style="fill:#262626;stroke:#262626;stroke-width:0.6"
     x="341.41882"
     xlink:href="#m2c2e2d3e30"
     y="395.54459"
     id="use1069"
     width="100%"
     height="100%" />
  <use
     style="fill:#262626;stroke:#262626;stroke-width:0.6"
     x="349.57736"
     xlink:href="#m2c2e2d3e30"
     y="395.54459"
     id="use1075"
     width="100%"
     height="100%" />
  <use
     style="fill:#262626;stroke:#262626;stroke-width:0.6"
     x="356.47531"
     xlink:href="#m2c2e2d3e30"
     y="395.54459"
     id="use1081"
     width="100%"
     height="100%" />
  <use
     style="fill:#262626;stroke:#262626;stroke-width:0.6"
     x="362.45056"
     xlink:href="#m2c2e2d3e30"
     y="395.54459"
     id="use1087"
     width="100%"
     height="100%" />
  <use
     style="fill:#262626;stroke:#262626;stroke-width:0.6"
     x="367.72113"
     xlink:href="#m2c2e2d3e30"
     y="395.54459"
     id="use1093"
     width="100%"
     height="100%" />
  <use
     style="fill:#262626;stroke:#262626;stroke-width:0.6"
     x="403.45279"
     xlink:href="#m2c2e2d3e30"
     y="395.54459"
     id="use1099"
     width="100%"
     height="100%" />
  <use
     style="fill:#262626;stroke:#262626;stroke-width:0.6"
     x="421.59659"
     xlink:href="#m2c2e2d3e30"
     y="395.54459"
     id="use1105"
     width="100%"
     height="100%" />
  <use
     style="fill:#262626;stroke:#262626;stroke-width:0.6"
     x="434.46979"
     xlink:href="#m2c2e2d3e30"
     y="395.54459"
     id="use1111"
     width="100%"
     height="100%" />
  <use
     style="fill:#262626;stroke:#262626;stroke-width:0.6"
     x="444.45502"
     xlink:href="#m2c2e2d3e30"
     y="395.54459"
     id="use1117"
     width="100%"
     height="100%" />
  <use
     style="fill:#262626;stroke:#262626;stroke-width:0.6"
     x="452.61356"
     xlink:href="#m2c2e2d3e30"
     y="395.54459"
     id="use1123"
     width="100%"
     height="100%" />
  <use
     style="fill:#262626;stroke:#262626;stroke-width:0.6"
     x="459.51151"
     xlink:href="#m2c2e2d3e30"
     y="395.54459"
     id="use1129"
     width="100%"
     height="100%" />
  <use
     style="fill:#262626;stroke:#262626;stroke-width:0.6"
     x="465.48679"
     xlink:href="#m2c2e2d3e30"
     y="395.54459"
     id="use1135"
     width="100%"
     height="100%" />
  <use
     style="fill:#262626;stroke:#262626;stroke-width:0.6"
     x="470.75732"
     xlink:href="#m2c2e2d3e30"
     y="395.54459"
     id="use1141"
     width="100%"
     height="100%" />
  <use
     style="fill:#262626;stroke:#262626;stroke-width:0.6"
     x="506.48901"
     xlink:href="#m2c2e2d3e30"
     y="395.54459"
     id="use1147"
     width="100%"
     height="100%" />
  <use
     style="fill:#262626;stroke:#262626;stroke-width:0.6"
     x="524.63275"
     xlink:href="#m2c2e2d3e30"
     y="395.54459"
     id="use1153"
     width="100%"
     height="100%" />
  <use
     style="fill:#262626;stroke:#262626;stroke-width:0.6"
     x="537.50598"
     xlink:href="#m2c2e2d3e30"
     y="395.54459"
     id="use1159"
     width="100%"
     height="100%" />
  <use
     style="fill:#262626;stroke:#262626;stroke-width:0.6"
     x="547.49121"
     xlink:href="#m2c2e2d3e30"
     y="395.54459"
     id="use1165"
     width="100%"
     height="100%" />
  <use
     style="fill:#262626;stroke:#262626;stroke-width:0.6"
     x="555.64978"
     xlink:href="#m2c2e2d3e30"
     y="395.54459"
     id="use1171"
     width="100%"
     height="100%" />
  <use
     style="fill:#262626;stroke:#262626;stroke-width:0.6"
     x="562.54773"
     xlink:href="#m2c2e2d3e30"
     y="395.54459"
     id="use1177"
     width="100%"
     height="100%" />
  <use
     style="fill:#262626;stroke:#262626;stroke-width:0.6"
     x="568.52295"
     xlink:href="#m2c2e2d3e30"
     y="395.54459"
     id="use1183"
     width="100%"
     height="100%" />
  <use
     transform="matrix(0.16737235,0,0,-0.16737235,284.10121,433.06556)"
     xlink:href="#CMSS17-70"
     id="use1199"
     x="0"
     y="0"
     width="100%"
     height="100%"
     style="fill:#262626" />
  <use
     transform="matrix(0.16737235,0,0,-0.16737235,293.05386,433.06556)"
     xlink:href="#CMSS17-108"
     id="use1201"
     x="0"
     y="0"
     width="100%"
     height="100%"
     style="fill:#262626" />
  <use
     transform="matrix(0.16737235,0,0,-0.16737235,296.78022,433.06556)"
     xlink:href="#CMSS17-117"
     id="use1203"
     x="0"
     y="0"
     width="100%"
     height="100%"
     style="fill:#262626" />
  <use
     transform="matrix(0.16737235,0,0,-0.16737235,304.87865,433.06556)"
     xlink:href="#CMSS17-101"
     id="use1205"
     x="0"
     y="0"
     width="100%"
     height="100%"
     style="fill:#262626" />
  <use
     transform="matrix(0.16737235,0,0,-0.16737235,311.87397,433.06556)"
     xlink:href="#CMSS17-110"
     id="use1207"
     x="0"
     y="0"
     width="100%"
     height="100%"
     style="fill:#262626" />
  <use
     transform="matrix(0.16737235,0,0,-0.16737235,319.9724,433.06556)"
     xlink:href="#CMSS17-99"
     id="use1209"
     x="0"
     y="0"
     width="100%"
     height="100%"
     style="fill:#262626" />
  <use
     transform="matrix(0.16737235,0,0,-0.16737235,326.96772,433.06556)"
     xlink:href="#CMSS17-101"
     id="use1211"
     x="0"
     y="0"
     width="100%"
     height="100%"
     style="fill:#262626" />
  <use
     transform="matrix(0.16737235,0,0,-0.16737235,333.96304,433.06556)"
     xlink:href="#CMSS17-44"
     id="use1213"
     x="0"
     y="0"
     width="100%"
     height="100%"
     style="fill:#262626" />
  <use
     transform="matrix(0.16737235,0,0,-0.16737235,343.5816,433.06556)"
     xlink:href="#CMSY10-70"
     id="use1215"
     x="0"
     y="0"
     width="100%"
     height="100%"
     style="fill:#262626" />
  <path
     clip-path="url(#pa04fa66cce)"
     d="M 71.836022,382.47124 H 570.24"
     style="fill:none;stroke:#cccccc;stroke-linecap:round"
     id="path1221" />
  <use
     style="fill:#262626;stroke:#262626;stroke-width:0.8"
     x="71.836021"
     xlink:href="#mdfd6975eb6"
     y="382.47122"
     id="use1227"
     width="100%"
     height="100%" />
  <use
     transform="matrix(0.13947696,0,0,-0.13947696,35.857223,387.31418)"
     xlink:href="#CMR17-49"
     id="use1232"
     x="0"
     y="0"
     width="100%"
     height="100%"
     style="fill:#262626" />
  <use
     transform="matrix(0.13947696,0,0,-0.13947696,42.25389,387.31418)"
     xlink:href="#CMR17-48"
     id="use1234"
     x="0"
     y="0"
     width="100%"
     height="100%"
     style="fill:#262626" />
  <use
     transform="matrix(0.09763348,0,0,-0.09763348,48.650557,382.25267)"
     xlink:href="#CMSY10-0"
     id="use1236"
     x="0"
     y="0"
     width="100%"
     height="100%"
     style="fill:#262626" />
  <use
     transform="matrix(0.09763348,0,0,-0.09763348,56.244296,382.25267)"
     xlink:href="#CMR17-51"
     id="use1238"
     x="0"
     y="0"
     width="100%"
     height="100%"
     style="fill:#262626" />
  <path
     clip-path="url(#pa04fa66cce)"
     d="M 71.836022,272.46405 H 570.24"
     style="fill:none;stroke:#cccccc;stroke-linecap:round"
     id="path1244" />
  <use
     style="fill:#262626;stroke:#262626;stroke-width:0.8"
     x="71.836021"
     xlink:href="#mdfd6975eb6"
     y="272.46405"
     id="use1247"
     width="100%"
     height="100%" />
  <use
     transform="matrix(0.13947696,0,0,-0.13947696,35.857223,277.30699)"
     xlink:href="#CMR17-49"
     id="use1255"
     x="0"
     y="0"
     width="100%"
     height="100%"
     style="fill:#262626" />
  <use
     transform="matrix(0.13947696,0,0,-0.13947696,42.25389,277.30699)"
     xlink:href="#CMR17-48"
     id="use1257"
     x="0"
     y="0"
     width="100%"
     height="100%"
     style="fill:#262626" />
  <use
     transform="matrix(0.09763348,0,0,-0.09763348,48.650557,272.24548)"
     xlink:href="#CMSY10-0"
     id="use1259"
     x="0"
     y="0"
     width="100%"
     height="100%"
     style="fill:#262626" />
  <use
     transform="matrix(0.09763348,0,0,-0.09763348,56.244296,272.24548)"
     xlink:href="#CMR17-50"
     id="use1261"
     x="0"
     y="0"
     width="100%"
     height="100%"
     style="fill:#262626" />
  <path
     clip-path="url(#pa04fa66cce)"
     d="M 71.836022,162.45686 H 570.24"
     style="fill:none;stroke:#cccccc;stroke-linecap:round"
     id="path1267" />
  <use
     style="fill:#262626;stroke:#262626;stroke-width:0.8"
     x="71.836021"
     xlink:href="#mdfd6975eb6"
     y="162.45686"
     id="use1270"
     width="100%"
     height="100%" />
  <use
     transform="matrix(0.13947696,0,0,-0.13947696,35.857223,167.2998)"
     xlink:href="#CMR17-49"
     id="use1275"
     x="0"
     y="0"
     width="100%"
     height="100%"
     style="fill:#262626" />
  <use
     transform="matrix(0.13947696,0,0,-0.13947696,42.25389,167.2998)"
     xlink:href="#CMR17-48"
     id="use1277"
     x="0"
     y="0"
     width="100%"
     height="100%"
     style="fill:#262626" />
  <use
     transform="matrix(0.09763348,0,0,-0.09763348,48.650557,162.23829)"
     xlink:href="#CMSY10-0"
     id="use1279"
     x="0"
     y="0"
     width="100%"
     height="100%"
     style="fill:#262626" />
  <use
     transform="matrix(0.09763348,0,0,-0.09763348,56.244296,162.23829)"
     xlink:href="#CMR17-49"
     id="use1281"
     x="0"
     y="0"
     width="100%"
     height="100%"
     style="fill:#262626" />
  <path
     clip-path="url(#pa04fa66cce)"
     d="M 71.836022,52.44967 H 570.24"
     style="fill:none;stroke:#cccccc;stroke-linecap:round"
     id="path1287" />
  <use
     style="fill:#262626;stroke:#262626;stroke-width:0.8"
     x="71.836021"
     xlink:href="#mdfd6975eb6"
     y="52.449669"
     id="use1290"
     width="100%"
     height="100%" />
  <use
     transform="matrix(0.13947696,0,0,-0.13947696,43.661818,57.292608)"
     xlink:href="#CMR17-49"
     id="use1295"
     x="0"
     y="0"
     width="100%"
     height="100%"
     style="fill:#262626" />
  <use
     transform="matrix(0.13947696,0,0,-0.13947696,50.058485,57.292608)"
     xlink:href="#CMR17-48"
     id="use1297"
     x="0"
     y="0"
     width="100%"
     height="100%"
     style="fill:#262626" />
  <use
     transform="matrix(0.09763348,0,0,-0.09763348,56.455152,52.231099)"
     xlink:href="#CMR17-48"
     id="use1299"
     x="0"
     y="0"
     width="100%"
     height="100%"
     style="fill:#262626" />
  <use
     style="fill:#262626;stroke:#262626;stroke-width:0.6"
     x="71.836021"
     xlink:href="#ma22c21b079"
     y="393.13205"
     id="use1308"
     width="100%"
     height="100%" />
  <use
     style="fill:#262626;stroke:#262626;stroke-width:0.6"
     x="71.836021"
     xlink:href="#ma22c21b079"
     y="387.50488"
     id="use1314"
     width="100%"
     height="100%" />
  <use
     style="fill:#262626;stroke:#262626;stroke-width:0.6"
     x="71.836021"
     xlink:href="#ma22c21b079"
     y="349.35577"
     id="use1320"
     width="100%"
     height="100%" />
  <use
     style="fill:#262626;stroke:#262626;stroke-width:0.6"
     x="71.836021"
     xlink:href="#ma22c21b079"
     y="329.98447"
     id="use1326"
     width="100%"
     height="100%" />
  <use
     style="fill:#262626;stroke:#262626;stroke-width:0.6"
     x="71.836021"
     xlink:href="#ma22c21b079"
     y="316.2403"
     id="use1332"
     width="100%"
     height="100%" />
  <use
     style="fill:#262626;stroke:#262626;stroke-width:0.6"
     x="71.836021"
     xlink:href="#ma22c21b079"
     y="305.5795"
     id="use1338"
     width="100%"
     height="100%" />
  <use
     style="fill:#262626;stroke:#262626;stroke-width:0.6"
     x="71.836021"
     xlink:href="#ma22c21b079"
     y="296.86902"
     id="use1344"
     width="100%"
     height="100%" />
  <use
     style="fill:#262626;stroke:#262626;stroke-width:0.6"
     x="71.836021"
     xlink:href="#ma22c21b079"
     y="289.50436"
     id="use1350"
     width="100%"
     height="100%" />
  <use
     style="fill:#262626;stroke:#262626;stroke-width:0.6"
     x="71.836021"
     xlink:href="#ma22c21b079"
     y="283.12485"
     id="use1356"
     width="100%"
     height="100%" />
  <use
     style="fill:#262626;stroke:#262626;stroke-width:0.6"
     x="71.836021"
     xlink:href="#ma22c21b079"
     y="277.49771"
     id="use1362"
     width="100%"
     height="100%" />
  <use
     style="fill:#262626;stroke:#262626;stroke-width:0.6"
     x="71.836021"
     xlink:href="#ma22c21b079"
     y="239.34859"
     id="use1368"
     width="100%"
     height="100%" />
  <use
     style="fill:#262626;stroke:#262626;stroke-width:0.6"
     x="71.836021"
     xlink:href="#ma22c21b079"
     y="219.97728"
     id="use1374"
     width="100%"
     height="100%" />
  <use
     style="fill:#262626;stroke:#262626;stroke-width:0.6"
     x="71.836021"
     xlink:href="#ma22c21b079"
     y="206.23312"
     id="use1380"
     width="100%"
     height="100%" />
  <use
     style="fill:#262626;stroke:#262626;stroke-width:0.6"
     x="71.836021"
     xlink:href="#ma22c21b079"
     y="195.57233"
     id="use1386"
     width="100%"
     height="100%" />
  <use
     style="fill:#262626;stroke:#262626;stroke-width:0.6"
     x="71.836021"
     xlink:href="#ma22c21b079"
     y="186.86182"
     id="use1392"
     width="100%"
     height="100%" />
  <use
     style="fill:#262626;stroke:#262626;stroke-width:0.6"
     x="71.836021"
     xlink:href="#ma22c21b079"
     y="179.49719"
     id="use1398"
     width="100%"
     height="100%" />
  <use
     style="fill:#262626;stroke:#262626;stroke-width:0.6"
     x="71.836021"
     xlink:href="#ma22c21b079"
     y="173.11766"
     id="use1404"
     width="100%"
     height="100%" />
  <use
     style="fill:#262626;stroke:#262626;stroke-width:0.6"
     x="71.836021"
     xlink:href="#ma22c21b079"
     y="167.49051"
     id="use1410"
     width="100%"
     height="100%" />
  <use
     style="fill:#262626;stroke:#262626;stroke-width:0.6"
     x="71.836021"
     xlink:href="#ma22c21b079"
     y="129.3414"
     id="use1416"
     width="100%"
     height="100%" />
  <use
     style="fill:#262626;stroke:#262626;stroke-width:0.6"
     x="71.836021"
     xlink:href="#ma22c21b079"
     y="109.97009"
     id="use1422"
     width="100%"
     height="100%" />
  <use
     style="fill:#262626;stroke:#262626;stroke-width:0.6"
     x="71.836021"
     xlink:href="#ma22c21b079"
     y="96.225929"
     id="use1428"
     width="100%"
     height="100%" />
  <use
     style="fill:#262626;stroke:#262626;stroke-width:0.6"
     x="71.836021"
     xlink:href="#ma22c21b079"
     y="85.565132"
     id="use1434"
     width="100%"
     height="100%" />
  <use
     style="fill:#262626;stroke:#262626;stroke-width:0.6"
     x="71.836021"
     xlink:href="#ma22c21b079"
     y="76.85463"
     id="use1440"
     width="100%"
     height="100%" />
  <use
     style="fill:#262626;stroke:#262626;stroke-width:0.6"
     x="71.836021"
     xlink:href="#ma22c21b079"
     y="69.489998"
     id="use1446"
     width="100%"
     height="100%" />
  <use
     style="fill:#262626;stroke:#262626;stroke-width:0.6"
     x="71.836021"
     xlink:href="#ma22c21b079"
     y="63.11047"
     id="use1452"
     width="100%"
     height="100%" />
  <use
     style="fill:#262626;stroke:#262626;stroke-width:0.6"
     x="71.836021"
     xlink:href="#ma22c21b079"
     y="57.483322"
     id="use1458"
     width="100%"
     height="100%" />
  <use
     transform="matrix(0,-0.16737235,-0.16737235,0,27.672917,377.79316)"
     xlink:href="#CMSS17-70"
     id="use1481"
     x="0"
     y="0"
     width="100%"
     height="100%"
     style="fill:#262626" />
  <use
     transform="matrix(0,-0.16737235,-0.16737235,0,27.672917,369.27773)"
     xlink:href="#CMSS17-114"
     id="use1483"
     x="0"
     y="0"
     width="100%"
     height="100%"
     style="fill:#262626" />
  <use
     transform="matrix(0,-0.16737235,-0.16737235,0,27.672917,363.91688)"
     xlink:href="#CMSS17-97"
     id="use1485"
     x="0"
     y="0"
     width="100%"
     height="100%"
     style="fill:#262626" />
  <use
     transform="matrix(0,-0.16737235,-0.16737235,0,27.672917,356.37)"
     xlink:href="#CMSS17-99"
     id="use1487"
     x="0"
     y="0"
     width="100%"
     height="100%"
     style="fill:#262626" />
  <use
     transform="matrix(0,-0.16737235,-0.16737235,0,27.672917,349.37468)"
     xlink:href="#CMSS17-116"
     id="use1489"
     x="0"
     y="0"
     width="100%"
     height="100%"
     style="fill:#262626" />
  <use
     transform="matrix(0,-0.16737235,-0.16737235,0,27.672917,343.69098)"
     xlink:href="#CMSS17-105"
     id="use1491"
     x="0"
     y="0"
     width="100%"
     height="100%"
     style="fill:#262626" />
  <use
     transform="matrix(0,-0.16737235,-0.16737235,0,27.672917,339.96462)"
     xlink:href="#CMSS17-111"
     id="use1493"
     x="0"
     y="0"
     width="100%"
     height="100%"
     style="fill:#262626" />
  <use
     transform="matrix(0,-0.16737235,-0.16737235,0,27.672917,332.09489)"
     xlink:href="#CMSS17-110"
     id="use1495"
     x="0"
     y="0"
     width="100%"
     height="100%"
     style="fill:#262626" />
  <use
     transform="matrix(0,-0.16737235,-0.16737235,0,27.672917,318.74996)"
     xlink:href="#CMSS17-111"
     id="use1497"
     x="0"
     y="0"
     width="100%"
     height="100%"
     style="fill:#262626" />
  <use
     transform="matrix(0,-0.16737235,-0.16737235,0,27.672917,310.88024)"
     xlink:href="#CMSS17-102"
     id="use1499"
     x="0"
     y="0"
     width="100%"
     height="100%"
     style="fill:#262626" />
  <use
     transform="matrix(0,-0.16737235,-0.16737235,0,27.672917,300.82447)"
     xlink:href="#CMSS17-69"
     id="use1501"
     x="0"
     y="0"
     width="100%"
     height="100%"
     style="fill:#262626" />
  <use
     transform="matrix(0,-0.16737235,-0.16737235,0,27.672917,291.43461)"
     xlink:href="#CMSS17-118"
     id="use1503"
     x="0"
     y="0"
     width="100%"
     height="100%"
     style="fill:#262626" />
  <use
     transform="matrix(0,-0.16737235,-0.16737235,0,27.672917,284.21058)"
     xlink:href="#CMSS17-101"
     id="use1505"
     x="0"
     y="0"
     width="100%"
     height="100%"
     style="fill:#262626" />
  <use
     transform="matrix(0,-0.16737235,-0.16737235,0,27.672917,277.21526)"
     xlink:href="#CMSS17-110"
     id="use1507"
     x="0"
     y="0"
     width="100%"
     height="100%"
     style="fill:#262626" />
  <use
     transform="matrix(0,-0.16737235,-0.16737235,0,27.672917,269.11683)"
     xlink:href="#CMSS17-116"
     id="use1509"
     x="0"
     y="0"
     width="100%"
     height="100%"
     style="fill:#262626" />
  <use
     transform="matrix(0,-0.16737235,-0.16737235,0,27.672917,263.43313)"
     xlink:href="#CMSS17-115"
     id="use1511"
     x="0"
     y="0"
     width="100%"
     height="100%"
     style="fill:#262626" />
  <use
     transform="matrix(0,-0.16737235,-0.16737235,0,27.672917,252.15316)"
     xlink:href="#CMSS17-119"
     id="use1513"
     x="0"
     y="0"
     width="100%"
     height="100%"
     style="fill:#262626" />
  <use
     transform="matrix(0,-0.16737235,-0.16737235,0,27.672917,241.43148)"
     xlink:href="#CMSS17-105"
     id="use1515"
     x="0"
     y="0"
     width="100%"
     height="100%"
     style="fill:#262626" />
  <use
     transform="matrix(0,-0.16737235,-0.16737235,0,27.672917,237.70512)"
     xlink:href="#CMSS17-116"
     id="use1517"
     x="0"
     y="0"
     width="100%"
     height="100%"
     style="fill:#262626" />
  <use
     transform="matrix(0,-0.16737235,-0.16737235,0,27.672917,232.02141)"
     xlink:href="#CMSS17-104"
     id="use1519"
     x="0"
     y="0"
     width="100%"
     height="100%"
     style="fill:#262626" />
  <use
     transform="matrix(0,-0.16737235,-0.16737235,0,27.672917,218.67649)"
     xlink:href="#CMSS17-70"
     id="use1521"
     x="0"
     y="0"
     width="100%"
     height="100%"
     style="fill:#262626" />
  <use
     transform="matrix(0,-0.16737235,-0.16737235,0,27.672917,209.72384)"
     xlink:href="#CMSS17-108"
     id="use1523"
     x="0"
     y="0"
     width="100%"
     height="100%"
     style="fill:#262626" />
  <use
     transform="matrix(0,-0.16737235,-0.16737235,0,27.672917,205.99749)"
     xlink:href="#CMSS17-117"
     id="use1525"
     x="0"
     y="0"
     width="100%"
     height="100%"
     style="fill:#262626" />
  <use
     transform="matrix(0,-0.16737235,-0.16737235,0,27.672917,197.89906)"
     xlink:href="#CMSS17-101"
     id="use1527"
     x="0"
     y="0"
     width="100%"
     height="100%"
     style="fill:#262626" />
  <use
     transform="matrix(0,-0.16737235,-0.16737235,0,27.672917,190.90373)"
     xlink:href="#CMSS17-110"
     id="use1529"
     x="0"
     y="0"
     width="100%"
     height="100%"
     style="fill:#262626" />
  <use
     transform="matrix(0,-0.16737235,-0.16737235,0,27.672917,182.8053)"
     xlink:href="#CMSS17-99"
     id="use1531"
     x="0"
     y="0"
     width="100%"
     height="100%"
     style="fill:#262626" />
  <use
     transform="matrix(0,-0.16737235,-0.16737235,0,27.672917,175.80999)"
     xlink:href="#CMSS17-101"
     id="use1533"
     x="0"
     y="0"
     width="100%"
     height="100%"
     style="fill:#262626" />
  <use
     transform="matrix(0,-0.16737235,-0.16737235,0,27.672917,163.56816)"
     xlink:href="#CMMI12-62"
     id="use1535"
     x="0"
     y="0"
     width="100%"
     height="100%"
     style="fill:#262626" />
  <use
     transform="matrix(0,-0.16737235,-0.16737235,0,27.672917,146.17242)"
     xlink:href="#CMSY10-70"
     id="use1537"
     x="0"
     y="0"
     width="100%"
     height="100%"
     style="fill:#262626" />
  <use
     transform="matrix(0,-0.16737235,-0.16737235,0,27.672917,132.48045)"
     xlink:href="#CMSS17-44"
     id="use1539"
     x="0"
     y="0"
     width="100%"
     height="100%"
     style="fill:#262626" />
  <use
     transform="matrix(0,-0.16737235,-0.16737235,0,27.672917,122.8619)"
     xlink:href="#CMSY10-78"
     id="use1541"
     x="0"
     y="0"
     width="100%"
     height="100%"
     style="fill:#262626" />
  <use
     transform="matrix(0,-0.16737235,-0.16737235,0,27.672917,106.66276)"
     xlink:href="#CMR17-40"
     id="use1543"
     x="0"
     y="0"
     width="100%"
     height="100%"
     style="fill:#262626" />
  <use
     transform="matrix(0,-0.16737235,-0.16737235,0,27.672917,100.73559)"
     xlink:href="#CMMI12-62"
     id="use1545"
     x="0"
     y="0"
     width="100%"
     height="100%"
     style="fill:#262626" />
  <use
     transform="matrix(0,-0.16737235,-0.16737235,0,27.672917,83.339846)"
     xlink:href="#CMSY10-70"
     id="use1547"
     x="0"
     y="0"
     width="100%"
     height="100%"
     style="fill:#262626" />
  <use
     transform="matrix(0,-0.16737235,-0.16737235,0,27.672917,69.647879)"
     xlink:href="#CMR17-41"
     id="use1549"
     x="0"
     y="0"
     width="100%"
     height="100%"
     style="fill:#262626" />
  <path
     d="M 71.836022,395.5446 V 36.165432"
     style="fill:none;stroke:#262626;stroke-width:1.25;stroke-linecap:square;stroke-linejoin:miter"
     id="path1558" />
  <path
     d="M 570.24,395.5446 V 36.165432"
     style="fill:none;stroke:#262626;stroke-width:1.25;stroke-linecap:square;stroke-linejoin:miter"
     id="path1561" />
  <path
     d="M 71.836022,395.5446 H 570.24"
     style="fill:none;stroke:#262626;stroke-width:1.25;stroke-linecap:square;stroke-linejoin:miter"
     id="path1564" />
  <path
     d="M 71.836022,36.165432 H 570.24"
     style="fill:none;stroke:#262626;stroke-width:1.25;stroke-linecap:square;stroke-linejoin:miter"
     id="path1567" />
  <use
     transform="matrix(0.20084682,0,0,-0.20084682,264.08514,30.165432)"
     xlink:href="#CMSY10-78"
     id="use1570"
     x="0"
     y="0"
     width="100%"
     height="100%"
     style="fill:#262626" />
  <use
     transform="matrix(0.20084682,0,0,-0.20084682,283.52411,30.165432)"
     xlink:href="#CMR17-40"
     id="use1572"
     x="0"
     y="0"
     width="100%"
     height="100%"
     style="fill:#262626" />
  <use
     transform="matrix(0.20084682,0,0,-0.20084682,290.63671,30.165432)"
     xlink:href="#CMMI12-62"
     id="use1574"
     x="0"
     y="0"
     width="100%"
     height="100%"
     style="fill:#262626" />
  <use
     transform="matrix(0.20084682,0,0,-0.20084682,311.51161,30.165432)"
     xlink:href="#CMSY10-70"
     id="use1576"
     x="0"
     y="0"
     width="100%"
     height="100%"
     style="fill:#262626" />
  <use
     transform="matrix(0.20084682,0,0,-0.20084682,327.94196,30.165432)"
     xlink:href="#CMR17-41"
     id="use1578"
     x="0"
     y="0"
     width="100%"
     height="100%"
     style="fill:#262626" />
  <use
     transform="matrix(0.20084682,0,0,-0.20084682,341.35035,30.165432)"
     xlink:href="#CMSS17-118"
     id="use1580"
     x="0"
     y="0"
     width="100%"
     height="100%"
     style="fill:#262626" />
  <use
     transform="matrix(0.20084682,0,0,-0.20084682,350.01918,30.165432)"
     xlink:href="#CMSS17-115"
     id="use1582"
     x="0"
     y="0"
     width="100%"
     height="100%"
     style="fill:#262626" />
  <use
     transform="matrix(0.20084682,0,0,-0.20084682,363.55514,30.165432)"
     xlink:href="#CMSY10-70"
     id="use1584"
     x="0"
     y="0"
     width="100%"
     height="100%"
     style="fill:#262626" />
  <defs
     id="defs1594">
    <clipPath
       id="pa04fa66cce">
      <rect
         height="359.379165"
         width="498.403978"
         x="71.836022"
         y="36.165432"
         id="rect1591" />
    </clipPath>
  </defs>
  <path
     style="fill:none;stroke:#000000;stroke-width:0.75;stroke-linecap:butt;stroke-linejoin:miter;stroke-miterlimit:4;stroke-dasharray:4.5, 4.5;stroke-dashoffset:0;stroke-opacity:1"
     d="M 494.55117,390.12928 289.64046,63.613291"
     id="path3796" />
  <path
     clip-path="url(#pa04fa66cce)"
     d="m 94.490748,52.500849 0.765452,0.153866 1.120899,0.154364 1.728433,0.414091 1.736495,0.733411 3.252503,0.584255 0.0453,0.107 1.12962,0.214722 1.29157,0.215691 0.31101,0.16241 0.57118,0.326485 1.35873,0.218903 0.88738,0.385511 0.003,0.05533 0.61339,0.166369 0.19475,0.111235 2.36702,0.16734 0.0478,0.05591 2.31083,0.67608 1.05255,0.170525 0.25728,0.114023 0.53605,0.171546 0.1602,0.172164 1.21237,0.230522 0.17596,0.115679 2.3058,0.758821 0.0278,0.05887 2.11213,0.295459 0.70158,0.416736 0.79971,0.17972 0.0375,0.06006 1.1086,0.301424 3.43171,0.854246 0.0713,0.06161 1.50027,0.309228 0.0214,0.06209 0.58111,0.124415 0.22415,0.12474 0.28117,0.125067 1.38639,0.188217 0.0703,0.12589 1.84398,0.826477 0.99404,0.257204 0.26159,0.129123 4.0403,0.847915 0.0603,0.06585 2.08027,0.330628 0.039,0.0664 0.35491,0.13308 0.0771,0.133451 0.1289,0.06687 0.60905,0.134013 0.026,0.06715 0.77687,0.134579 0.47194,0.2703 1.14408,0.340041 1.74855,0.41127 0.11553,0.06889 2.37934,0.415442 0.94382,0.278982 1.16503,0.210311 0.0427,0.07031 1.33721,0.495088 1.16385,0.213761 0.15397,0.07147 0.81568,0.143255 0.0161,0.07179 0.86283,0.360571 2.63541,0.582636 1.41648,0.367789 0.1371,0.147911 0.2092,0.07413 1.41177,0.223077 0.72666,0.224123 2.05827,0.375892 0.59031,0.226962 1.10148,0.15191 0.21341,0.07614 0.74339,0.152637 0.0658,0.0765 1.05463,0.307239 0.14586,0.07712 4.72617,0.621479 0.0464,0.156641 1.01631,0.157157 0.42501,0.157675 1.26869,0.31692 1.40623,0.479357 0.10922,0.16086 1.81823,0.485857 0.14254,0.244794 0.42547,0.163896 0.15658,0.164459 0.10073,0.165028 0.14484,0.08273 1.31154,0.249048 0.45658,0.250353 0.78649,0.167633 0.0542,0.08404 0.9934,0.253004 0.73007,0.254351 0.43133,0.170323 0.0639,0.08539 1.09163,0.257089 1.44829,0.258479 0.011,0.08647 1.58229,0.434721 0.22857,0.262744 1.1212,0.264197 1.25143,0.443601 1.91219,0.537817 0.36118,0.271195 1.01246,0.272744 0.0819,0.09126 1.47501,0.183048 0.56669,0.368214 0.027,0.0925 0.51622,0.278575 0.98692,0.373978 0.77734,0.188093 0.6376,0.188836 0.85686,0.379927 0.0648,0.09546 0.63185,0.191485 0.56619,0.385288 0.24793,0.29102 0.32691,0.195002 0.75492,0.294004 1.06738,0.197013 0.14841,0.09881 2.04234,0.497148 0.0434,0.100053 0.39931,0.200738 0.96371,0.607324 0.0499,0.101976 1.19488,0.410093 0.096,0.103075 0.83368,0.310568 0.89727,0.208172 0.21546,0.31397 1.38664,0.421862 2.31978,0.318858 0.26348,0.106761 0.98607,0.214241 0.21391,0.323172 0.49709,0.21667 0.43957,0.436309 0.53661,0.329867 0.10634,0.110463 2.63426,0.6682 0.95425,0.677679 0.75208,0.228045 0.0698,0.114433 1.5611,0.22969 0.025,0.115261 1.35317,0.231359 0.65907,0.232484 1.66646,0.704321 0.16724,0.118402 1.68084,0.596457 0.43233,0.361481 0.83643,0.121104 0.0102,0.121411 0.58219,0.121722 0.15799,0.367035 1.12421,0.246266 0.5532,0.371796 0.15058,0.249481 0.86243,0.502904 0.3744,0.126558 1.31665,0.254126 0.0597,0.127571 0.46768,0.127914 0.0238,0.128256 2.97798,1.170071 1.23697,0.263954 0.41472,0.398685 0.88899,0.133638 0.005,0.134013 0.48149,0.269158 0.3293,0.406603 0.29326,0.273004 1.91494,0.412453 0.10061,0.138269 0.29862,0.13869 0.71016,0.13908 0.0939,0.27939 0.4427,0.28103 0.23075,0.42468 0.59592,0.28522 0.0325,0.14326 0.61919,0.14369 0.059,0.14412 1.24996,0.28955 0.43927,0.43764 0.25793,0.14677 0.5068,0.14723 0.0367,0.14768 1.01075,0.29675 0.0707,0.29859 0.31866,0.45143 0.27584,0.45573 0.48253,0.46012 0.14194,0.30923 2.43823,0.15537 0.16347,0.15587 0.59506,0.15639 0.0161,0.1569 0.36944,0.15741 0.0487,0.15794 0.35085,0.15846 0.0576,0.3185 0.12676,0.16005 2.0306,0.80841 0.20736,0.16333 0.8382,0.1639 0.0341,0.16446 0.79694,0.4968 0.48316,0.16676 0.20943,0.33527 0.0969,0.16852 1.19853,0.33883 2.05087,0.34126 0.6835,0.51649 0.17007,0.17342 1.68924,0.70002 0.84094,0.17662 0.48205,0.35521 0.0188,0.1786 0.33456,0.17927 1.58275,0.54188 0.067,0.182 0.35092,0.3661 0.1951,0.36892 0.30297,0.3718 2.10441,0.56318 0.77263,0.95363 0.32665,0.38685 0.14433,0.19461 1.34831,0.3916 0.22094,0.59349 0.38044,0.3998 0.62631,0.20116 0.1296,0.40488 0.51517,0.20373 0.14179,0.20461 0.53295,0.41186 0.17486,0.20727 1.8899,0.41726 0.22737,0.42093 1.78171,0.42467 0.10575,0.21376 0.56948,0.43042 0.004,0.21667 0.99579,0.4363 0.29447,0.44034 0.4037,0.66819 0.48825,0.22483 0.10275,0.22589 0.55787,0.45501 1.59778,0.45938 0.60319,0.46385 0.3155,0.70432 0.41315,0.2371 0.023,0.23828 0.41762,0.23948 1.61211,0.24068 1.14488,0.48503 0.0216,0.24438 0.15884,0.24563 1.68531,0.74457 0.16853,0.25079 0.56635,0.25212 0.45969,0.76442 2.15925,0.25755 0.75648,0.5193 0.18839,0.52502 0.13087,0.26468 1.32107,0.80297 1.8335,0.27068 2.10067,0.54601 0.0491,0.27537 0.26115,0.27696 2.12567,0.27857 8.6e-4,0.28021 0.27476,0.28187 0.54324,0.28353 0.86417,0.86084 1.68148,0.29043 0.1329,0.29221 0.48152,0.294 0.19769,0.5935 0.56831,0.60095 0.0793,0.30334 0.63317,0.61252 0.38355,0.30922 0.0997,0.31125 0.43744,0.31328 0.17222,0.31535 0.42743,0.31745 0.20961,0.31957 0.42712,0.32172 0.0215,0.3239 0.47575,0.32612 2.34097,0.65898 0.93373,0.6682 0.002,0.33764 0.60579,0.34004 0.11088,0.34248 0.68612,0.34495 1.04936,0.34746 0.25791,0.35 1.79041,1.42624 0.82865,1.84485 0.40174,0.37767 0.13312,1.15127 0.61895,0.78324 0.0236,0.39647 0.87116,0.80297 0.70339,0.40661 0.12447,0.82373 0.35429,0.83819 0.50987,0.42468 1.80304,0.42848 0.65086,0.43236 1.0843,0.43631 0.18368,0.44032 0.0108,0.44443 0.27939,0.4486 0.13983,0.45285 0.42437,0.45718 0.0642,0.92771 0.28366,0.4707 1.13024,0.47538 3.55468,0.48016 0.67345,0.48504 0.45407,0.49001 0.0654,0.49508 0.24159,0.50028 0.11845,0.50556 0.77049,0.51097 0.47629,0.5165 0.27318,1.05005 0.0413,0.53382 0.2379,0.53984 0.0682,0.54601 2.60498,0.55232 0.55509,0.55879 0.76982,1.13756 1.10921,0.57911 0.0556,0.58621 0.45165,0.59349 0.90631,0.60096 0.21995,0.60861 0.86534,0.61647 0.1806,1.25732 1.6775,0.64129 1.12452,0.65002 0.31077,0.65898 0.84943,0.6682 0.0262,0.67769 0.2923,0.68743 0.0783,0.69747 0.92297,0.70779 0.73884,0.71845 0.35457,0.72941 0.12202,0.74072 0.43407,0.75238 0.10043,0.76443 0.77,1.56655 1.3647,0.80297 0.44872,0.81668 0.0851,0.83091 1.1293,0.84561 1.3683,0.86083 0.64966,0.87665 0.88009,0.89303 1.80736,0.91004 2.93292,0.9277 0.35785,1.91128 0.59924,1.99093 2.42951,1.02747 1.33309,1.05006 0.0259,1.07364 0.97334,1.09835 0.0715,1.12417 0.89611,1.15128 2.48563,1.1797 1.09131,1.20957 0.46388,2.51509 0.004,1.309 1.72889,1.34586 0.21122,1.3849 2.04681,2.89637 0.662,1.51681 3.1214,1.56655 1.16242,1.61967 0.11376,1.6765 2.24892,1.73749 2.58326,1.80306 0.65789,1.87379 8.07497,1.95029 1.81385,2.03331 0.45191,2.12371 0.25841,2.22252 0.89702,4.78154 0.92378,2.58309 0.26146,2.73077 1.02234,2.89638 5.23311,3.08336 6.13973,3.29617 1.03738,3.54054 2.16818,3.82408 3.63715,4.15701 1.35747,4.5535 8.29774,5.03365 2.12194,5.62715 15.01569,6.37953 0.46912,7.36463 0.67238,8.7105 0.0825,10.6608 18.35674,13.74416 1.61422,19.37131 2.49512,33.11546 0.0489,73.23082 v 0"
     style="fill:none;stroke:#008fd5;stroke-width:4;stroke-linecap:round"
     id="path1555" />
</svg>
