<?xml version="1.0" encoding="utf-8" standalone="no"?>
<!DOCTYPE svg PUBLIC "-//W3C//DTD SVG 1.1//EN"
  "http://www.w3.org/Graphics/SVG/1.1/DTD/svg11.dtd">
<!-- Created with matplotlib (https://matplotlib.org/) -->
<svg height="451.44pt" version="1.1" viewBox="0 0 634.32 451.44" width="634.32pt" xmlns="http://www.w3.org/2000/svg" xmlns:xlink="http://www.w3.org/1999/xlink">
 <metadata>
  <rdf:RDF xmlns:cc="http://creativecommons.org/ns#" xmlns:dc="http://purl.org/dc/elements/1.1/" xmlns:rdf="http://www.w3.org/1999/02/22-rdf-syntax-ns#">
   <cc:Work>
    <dc:type rdf:resource="http://purl.org/dc/dcmitype/StillImage"/>
    <dc:date>2021-06-04T16:25:18.251054</dc:date>
    <dc:format>image/svg+xml</dc:format>
    <dc:creator>
     <cc:Agent>
      <dc:title>Matplotlib v3.3.2, https://matplotlib.org/</dc:title>
     </cc:Agent>
    </dc:creator>
   </cc:Work>
  </rdf:RDF>
 </metadata>
 <defs>
  <style type="text/css">*{stroke-linecap:butt;stroke-linejoin:round;}</style>
 </defs>
 <g id="figure_1">
  <g id="patch_1">
   <path d="M 0 451.44 
L 634.32 451.44 
L 634.32 0 
L 0 0 
z
" style="fill:#f0f0f0;"/>
  </g>
  <g id="axes_1">
   <g id="patch_2">
    <path d="M 66.618458 395.544597 
L 620.298189 395.544597 
L 620.298189 35.067696 
L 66.618458 35.067696 
z
" style="fill:#ffffff;"/>
   </g>
   <g id="matplotlib.axis_1">
    <g id="xtick_1">
     <g id="line2d_1">
      <defs>
       <path d="M 0 0 
L 0 6 
" id="m869bd2f8bb" style="stroke:#262626;stroke-width:0.8;"/>
      </defs>
      <g>
       <use style="fill:#262626;stroke:#262626;stroke-width:0.8;" x="91.774653" xlink:href="#m869bd2f8bb" y="395.544597"/>
      </g>
     </g>
     <g id="text_1">
      <!-- $\mathdefault{10^{1}}$ -->
      <g style="fill:#262626;" transform="translate(82.437551 414.730474)scale(0.14 -0.14)">
       <defs>
        <path d="M 26.59375 63.796875 
C 26.59375 65.890625 26.5 66 25.09375 66 
C 21.203125 61.359375 15.296875 59.890625 9.703125 59.6875 
C 9.40625 59.6875 8.90625 59.6875 8.796875 59.5 
C 8.703125 59.296875 8.703125 59.09375 8.703125 57 
C 11.796875 57 17 57.59375 21 59.984375 
L 21 7.296875 
C 21 3.796875 20.796875 2.59375 12.203125 2.59375 
L 9.203125 2.59375 
L 9.203125 0 
C 14 0.09375 19 0.1875 23.796875 0.1875 
C 28.59375 0.1875 33.59375 0.09375 38.40625 0 
L 38.40625 2.59375 
L 35.40625 2.59375 
C 26.796875 2.59375 26.59375 3.6875 26.59375 7.296875 
z
" id="CMR17-49"/>
        <path d="M 42 31.84375 
C 42 37.96875 41.90625 48.421875 37.703125 56.453125 
C 34 63.484375 28.09375 66 22.90625 66 
C 18.09375 66 12 63.78125 8.203125 56.5625 
C 4.203125 49.015625 3.796875 39.671875 3.796875 31.84375 
C 3.796875 26.109375 3.90625 17.375 7 9.734375 
C 11.296875 -0.609375 19 -2 22.90625 -2 
C 27.5 -2 34.5 -0.109375 38.59375 9.4375 
C 41.59375 16.375 42 24.5 42 31.84375 
z
M 22.90625 -0.40625 
C 16.5 -0.40625 12.703125 5.125 11.296875 12.75 
C 10.203125 18.6875 10.203125 27.328125 10.203125 32.953125 
C 10.203125 40.6875 10.203125 47.109375 11.5 53.234375 
C 13.40625 61.78125 19 64.390625 22.90625 64.390625 
C 27 64.390625 32.296875 61.671875 34.203125 53.4375 
C 35.5 47.71875 35.59375 40.984375 35.59375 32.953125 
C 35.59375 26.421875 35.59375 18.375 34.40625 12.453125 
C 32.296875 1.5 26.40625 -0.40625 22.90625 -0.40625 
z
" id="CMR17-48"/>
       </defs>
       <use transform="scale(0.996264)" xlink:href="#CMR17-49"/>
       <use transform="translate(45.690477 0)scale(0.996264)" xlink:href="#CMR17-48"/>
       <use transform="translate(91.380954 36.153639)scale(0.697382)" xlink:href="#CMR17-49"/>
      </g>
     </g>
    </g>
    <g id="xtick_2">
     <g id="line2d_2">
      <g>
       <use style="fill:#262626;stroke:#262626;stroke-width:0.8;" x="512.020411" xlink:href="#m869bd2f8bb" y="395.544597"/>
      </g>
     </g>
     <g id="text_2">
      <!-- $\mathdefault{10^{2}}$ -->
      <g style="fill:#262626;" transform="translate(502.683309 414.730474)scale(0.14 -0.14)">
       <defs>
        <path d="M 41.703125 15.46875 
L 39.90625 15.46875 
C 38.90625 8.390625 38.09375 7.1875 37.703125 6.59375 
C 37.203125 5.796875 30 5.796875 28.59375 5.796875 
L 9.40625 5.796875 
C 13 9.6875 20 16.765625 28.5 24.9375 
C 34.59375 30.71875 41.703125 37.5 41.703125 47.390625 
C 41.703125 59.1875 32.296875 66 21.796875 66 
C 10.796875 66 4.09375 56.296875 4.09375 47.296875 
C 4.09375 43.390625 7 42.890625 8.203125 42.890625 
C 9.203125 42.890625 12.203125 43.484375 12.203125 46.984375 
C 12.203125 50.09375 9.59375 51 8.203125 51 
C 7.59375 51 7 50.890625 6.59375 50.6875 
C 8.5 59.1875 14.296875 63.390625 20.40625 63.390625 
C 29.09375 63.390625 34.796875 56.5 34.796875 47.390625 
C 34.796875 38.703125 29.703125 31.21875 24 24.734375 
L 4.09375 2.296875 
L 4.09375 0 
L 39.296875 0 
z
" id="CMR17-50"/>
       </defs>
       <use transform="scale(0.996264)" xlink:href="#CMR17-49"/>
       <use transform="translate(45.690477 0)scale(0.996264)" xlink:href="#CMR17-48"/>
       <use transform="translate(91.380954 36.153639)scale(0.697382)" xlink:href="#CMR17-50"/>
      </g>
     </g>
    </g>
    <g id="xtick_3">
     <g id="line2d_3">
      <defs>
       <path d="M 0 0 
L 0 3 
" id="m4fc101b98d" style="stroke:#262626;stroke-width:0.6;"/>
      </defs>
      <g>
       <use style="fill:#262626;stroke:#262626;stroke-width:0.6;" x="72.545261" xlink:href="#m4fc101b98d" y="395.544597"/>
      </g>
     </g>
    </g>
    <g id="xtick_4">
     <g id="line2d_4">
      <g>
       <use style="fill:#262626;stroke:#262626;stroke-width:0.6;" x="218.281231" xlink:href="#m4fc101b98d" y="395.544597"/>
      </g>
     </g>
    </g>
    <g id="xtick_5">
     <g id="line2d_5">
      <g>
       <use style="fill:#262626;stroke:#262626;stroke-width:0.6;" x="292.282836" xlink:href="#m4fc101b98d" y="395.544597"/>
      </g>
     </g>
    </g>
    <g id="xtick_6">
     <g id="line2d_6">
      <g>
       <use style="fill:#262626;stroke:#262626;stroke-width:0.6;" x="344.78781" xlink:href="#m4fc101b98d" y="395.544597"/>
      </g>
     </g>
    </g>
    <g id="xtick_7">
     <g id="line2d_7">
      <g>
       <use style="fill:#262626;stroke:#262626;stroke-width:0.6;" x="385.513832" xlink:href="#m4fc101b98d" y="395.544597"/>
      </g>
     </g>
    </g>
    <g id="xtick_8">
     <g id="line2d_8">
      <g>
       <use style="fill:#262626;stroke:#262626;stroke-width:0.6;" x="418.789415" xlink:href="#m4fc101b98d" y="395.544597"/>
      </g>
     </g>
    </g>
    <g id="xtick_9">
     <g id="line2d_9">
      <g>
       <use style="fill:#262626;stroke:#262626;stroke-width:0.6;" x="446.923519" xlink:href="#m4fc101b98d" y="395.544597"/>
      </g>
     </g>
    </g>
    <g id="xtick_10">
     <g id="line2d_10">
      <g>
       <use style="fill:#262626;stroke:#262626;stroke-width:0.6;" x="471.294389" xlink:href="#m4fc101b98d" y="395.544597"/>
      </g>
     </g>
    </g>
    <g id="xtick_11">
     <g id="line2d_11">
      <g>
       <use style="fill:#262626;stroke:#262626;stroke-width:0.6;" x="492.791019" xlink:href="#m4fc101b98d" y="395.544597"/>
      </g>
     </g>
    </g>
    <g id="text_3">
     <!-- Network SNR, $\rho$ -->
     <g style="fill:#262626;" transform="translate(287.834295 433.065557)scale(0.168 -0.168)">
      <defs>
       <path d="M 22.90625 65.296875 
L 21.09375 69 
L 8.796875 69 
L 8.796875 0 
L 16.59375 0 
L 16.59375 61.328125 
L 16.703125 61.421875 
C 17.40625 59.640625 17.796875 58.734375 21.90625 49.890625 
L 43.296875 3.6875 
L 45.09375 0 
L 57.40625 0 
L 57.40625 69 
L 49.59375 69 
L 49.59375 7.65625 
L 49.5 7.5625 
C 48.796875 9.34375 48.40625 10.234375 44.296875 19.09375 
z
" id="CMSS17-78"/>
       <path d="M 39.09375 21.484375 
C 39.09375 24.796875 38.90625 31.265625 35.703125 36.671875 
C 32.203125 42.390625 26.5 44 22.203125 44 
C 11.796875 44 3 34.125 3 21.296875 
C 3 9.046875 12.09375 -1 23.59375 -1 
C 28.09375 -1 33.59375 0.296875 38.59375 3.890625 
C 38.59375 4.296875 38.40625 6.46875 38.296875 6.578125 
C 38.296875 6.765625 38 9.828125 38 10.234375 
C 33.203125 6.375 27.703125 5.09375 23.703125 5.09375 
C 17.296875 5.09375 10.40625 10.421875 10.09375 21.484375 
z
M 10.90625 27 
C 12.203125 32.59375 16.59375 37.890625 22.203125 37.890625 
C 23.703125 37.890625 30.703125 37.6875 32.5 27 
z
" id="CMSS17-101"/>
       <path d="M 16.703125 37.1875 
L 29.703125 37.1875 
L 29.703125 43 
L 16.703125 43 
L 16.703125 55 
L 9.59375 55 
L 9.59375 43 
L 1.703125 43 
L 1.703125 37.1875 
L 9.40625 37.1875 
L 9.40625 11.734375 
C 9.40625 6 10.703125 -1 17.296875 -1 
C 22.296875 -1 26.90625 0.390625 31.296875 2.6875 
L 29.703125 8.609375 
C 27.296875 6.5 24.40625 5.296875 21.296875 5.296875 
C 16.90625 5.296875 16.703125 10.921875 16.703125 13.4375 
z
" id="CMSS17-116"/>
       <path d="M 62.703125 43 
L 55.09375 43 
L 49.796875 25 
C 48.703125 21.1875 45.59375 10.6875 45.203125 5.796875 
L 45.09375 5.796875 
C 44.90625 8.796875 43.203125 16 40.40625 25.5 
L 35.296875 43 
L 28.40625 43 
L 23.40625 25.890625 
C 20.90625 17.1875 19 9.796875 18.796875 5.796875 
L 18.703125 5.796875 
C 18.296875 11.6875 14.203125 25.5 13.59375 27.6875 
L 9.09375 43 
L 1.296875 43 
L 14.296875 0 
L 21.90625 0 
C 27.09375 17.1875 31.09375 30.5 31.40625 37.1875 
C 31.59375 33.890625 33.296875 26.796875 34.296875 23.296875 
L 40.90625 0 
L 49.703125 0 
z
" id="CMSS17-119"/>
       <path d="M 44.203125 21.1875 
C 44.203125 33.984375 34.703125 44 23.5 44 
C 12 44 2.703125 33.6875 2.703125 21.1875 
C 2.703125 8.5 12.296875 -1 23.40625 -1 
C 34.796875 -1 44.203125 8.796875 44.203125 21.1875 
z
M 23.5 5.296875 
C 16.40625 5.296875 10.296875 11.09375 10.296875 21.984375 
C 10.296875 33.59375 17.40625 37.890625 23.40625 37.890625 
C 29.90625 37.890625 36.59375 33.1875 36.59375 21.984375 
C 36.59375 10.6875 30.09375 5.296875 23.5 5.296875 
z
" id="CMSS17-111"/>
       <path d="M 14.90625 21.390625 
C 14.90625 30.84375 21.796875 37.171875 30.59375 37.375 
L 30.59375 44 
C 24.203125 43.890625 18.203125 40.6875 14.59375 35.46875 
L 14.59375 43.484375 
L 7.5 43.484375 
L 7.5 0 
L 14.90625 0 
z
" id="CMSS17-114"/>
       <path d="M 26.5 26.34375 
L 42 42.734375 
L 32.40625 42.734375 
L 14.90625 24.25 
L 14.90625 69 
L 7.5 69 
L 7.5 0 
L 14.796875 0 
L 14.796875 13.921875 
L 21.5 20.96875 
L 35.59375 0 
L 44.09375 0 
z
" id="CMSS17-107"/>
       <path d="M 43.703125 66.09375 
C 39.296875 68.6875 34.5 71 26.40625 71 
C 13.5 71 5.203125 61.46875 5.203125 51.703125 
C 5.203125 47.875 6.296875 43.546875 10.203125 39.125 
C 14.09375 34.6875 18.5 33.484375 24.09375 32.078125 
C 26.40625 31.46875 30.296875 30.359375 31 30.0625 
C 36.59375 27.84375 39.296875 22.71875 39.296875 17.875 
C 39.296875 11.53125 34.40625 4.796875 25.703125 4.796875 
C 22.703125 4.796875 13.90625 5.296875 5.59375 12.953125 
L 4.203125 5 
C 12.40625 -1 21.296875 -2 25.796875 -2 
C 38.09375 -2 46.90625 7.71875 46.90625 18.78125 
C 46.90625 22.8125 45.703125 27.953125 41.5 32.6875 
C 37.40625 37.203125 33.796875 38.21875 25.59375 40.4375 
C 20.90625 41.640625 17.90625 42.453125 15.40625 45.5625 
C 13.703125 47.78125 12.796875 49.890625 12.796875 52.609375 
C 12.796875 58.25 17.59375 64.390625 26.40625 64.390625 
C 30.796875 64.390625 36.5 63.484375 42.296875 58.046875 
z
" id="CMSS17-83"/>
       <path d="M 39.40625 32.796875 
L 39.59375 32.890625 
C 55.203125 38.28125 55.296875 48.828125 55.296875 50.6875 
C 55.296875 59.96875 45.703125 69 31.296875 69 
L 8.90625 69 
L 8.90625 0 
L 17.09375 0 
L 17.09375 31.890625 
L 31.796875 31.890625 
L 49.5 0 
L 57.90625 0 
z
M 17.09375 38 
L 17.09375 63.390625 
L 30.203125 63.390625 
C 42.90625 63.390625 47.40625 56.359375 47.40625 50.6875 
C 47.40625 45.421875 43.40625 38 30.203125 38 
z
" id="CMSS17-82"/>
       <path d="M 17 0.09375 
L 17 8 
L 9 8 
L 9 0 
L 11.5 0 
L 8.90625 -12.109375 
L 12.90625 -12.109375 
z
" id="CMSS17-44"/>
       <path d="M 3.09375 -16.953125 
C 3 -17.4375 2.796875 -18.03125 2.796875 -18.609375 
C 2.796875 -20.109375 4 -21.109375 5.5 -21.109375 
C 7 -21.109375 8.40625 -20.109375 9 -18.71875 
C 9.40625 -17.828125 12.203125 -6.09375 15.40625 6.078125 
C 17.40625 1.09375 21.09375 -1 25 -1 
C 36.296875 -1 49.09375 12.96875 49.09375 28.03125 
C 49.09375 38.703125 42.59375 44 35.703125 44 
C 26.90625 44 16.203125 34.90625 12.90625 21.640625 
z
M 24.90625 1 
C 18.09375 1 16.40625 8.875 16.40625 10.078125 
C 16.40625 10.671875 18.90625 20.140625 19.203125 21.640625 
C 24.296875 41.5 34.09375 41.984375 35.59375 41.984375 
C 40.09375 41.984375 42.59375 37.90625 42.59375 32.015625 
C 42.59375 26.9375 39.90625 17.046875 38.203125 12.859375 
C 35.203125 5.984375 30 1 24.90625 1 
z
" id="CMMI12-26"/>
      </defs>
      <use transform="scale(0.996264)" xlink:href="#CMSS17-78"/>
      <use transform="translate(66.061519 0)scale(0.996264)" xlink:href="#CMSS17-101"/>
      <use transform="translate(107.700341 0)scale(0.996264)" xlink:href="#CMSS17-116"/>
      <use transform="translate(138.929454 0)scale(0.996264)" xlink:href="#CMSS17-119"/>
      <use transform="translate(200.146545 0)scale(0.996264)" xlink:href="#CMSS17-111"/>
      <use transform="translate(244.387715 0)scale(0.996264)" xlink:href="#CMSS17-114"/>
      <use transform="translate(276.297487 0)scale(0.996264)" xlink:href="#CMSS17-107"/>
      <use transform="translate(353.129089 0)scale(0.996264)" xlink:href="#CMSS17-83"/>
      <use transform="translate(405.177605 0)scale(0.996264)" xlink:href="#CMSS17-78"/>
      <use transform="translate(471.239125 0)scale(0.996264)" xlink:href="#CMSS17-82"/>
      <use transform="translate(531.65528 0)scale(0.996264)" xlink:href="#CMSS17-44"/>
      <use transform="translate(588.908597 0)scale(0.996264)" xlink:href="#CMMI12-26"/>
     </g>
    </g>
   </g>
   <g id="matplotlib.axis_2">
    <g id="ytick_1">
     <g id="line2d_12">
      <defs>
       <path d="M 0 0 
L -6 0 
" id="mcb5a90f493" style="stroke:#262626;stroke-width:0.8;"/>
      </defs>
      <g>
       <use style="fill:#262626;stroke:#262626;stroke-width:0.8;" x="66.618458" xlink:href="#mcb5a90f493" y="357.685173"/>
      </g>
     </g>
     <g id="text_4">
      <!-- $\mathdefault{10^{-5}}$ -->
      <g style="fill:#262626;" transform="translate(30.639659 362.528111)scale(0.14 -0.14)">
       <defs>
        <path d="M 65.90625 23 
C 67.59375 23 69.40625 23 69.40625 25 
C 69.40625 27 67.59375 27 65.90625 27 
L 11.796875 27 
C 10.09375 27 8.296875 27 8.296875 25 
C 8.296875 23 10.09375 23 11.796875 23 
z
" id="CMSY10-0"/>
        <path d="M 11.40625 58.59375 
C 12.40625 58.1875 16.5 56.890625 20.703125 56.890625 
C 30 56.890625 35.09375 61.890625 38 64.6875 
C 38 65.484375 38 66 37.40625 66 
C 37.296875 66 37.09375 66 36.296875 65.59375 
C 32.796875 64.09375 28.703125 63 23.703125 63 
C 20.703125 63 16.203125 63.359375 11.296875 65.484375 
C 10.203125 66 10 66 9.90625 66 
C 9.40625 66 9.296875 65.890625 9.296875 63.90625 
L 9.296875 34.859375 
C 9.296875 33.015625 9.296875 32.5 10.296875 32.5 
C 10.796875 32.5 11 32.703125 11.5 33.421875 
C 14.703125 38.046875 19.09375 40 24.09375 40 
C 27.59375 40 35.09375 37.734375 35.09375 20.203125 
C 35.09375 16.984375 35.09375 11.1875 32.09375 6.59375 
C 29.59375 2.484375 25.703125 0.390625 21.40625 0.390625 
C 14.796875 0.390625 8.09375 4.984375 6.296875 12.6875 
C 6.703125 12.59375 7.5 12.390625 7.90625 12.390625 
C 9.203125 12.390625 11.703125 13.09375 11.703125 16.1875 
C 11.703125 18.890625 9.796875 20 7.90625 20 
C 5.59375 20 4.09375 18.59375 4.09375 15.796875 
C 4.09375 7.09375 11 -2 21.59375 -2 
C 31.90625 -2 41.703125 6.890625 41.703125 19.796875 
C 41.703125 32.09375 33.90625 41.59375 24.203125 41.59375 
C 19.09375 41.59375 14.796875 39.6875 11.40625 36 
z
" id="CMR17-53"/>
       </defs>
       <use transform="scale(0.996264)" xlink:href="#CMR17-49"/>
       <use transform="translate(45.690477 0)scale(0.996264)" xlink:href="#CMR17-48"/>
       <use transform="translate(91.380954 36.153639)scale(0.697382)" xlink:href="#CMSY10-0"/>
       <use transform="translate(145.621947 36.153639)scale(0.697382)" xlink:href="#CMR17-53"/>
      </g>
     </g>
    </g>
    <g id="ytick_2">
     <g id="line2d_13">
      <g>
       <use style="fill:#262626;stroke:#262626;stroke-width:0.8;" x="66.618458" xlink:href="#mcb5a90f493" y="289.284218"/>
      </g>
     </g>
     <g id="text_5">
      <!-- $\mathdefault{10^{-4}}$ -->
      <g style="fill:#262626;" transform="translate(30.639659 294.127156)scale(0.14 -0.14)">
       <defs>
        <path d="M 33.59375 64.796875 
C 33.59375 66.890625 33.5 67 31.703125 67 
L 2 19.59375 
L 2 17 
L 27.796875 17 
L 27.796875 7.1875 
C 27.796875 3.59375 27.59375 2.59375 20.59375 2.59375 
L 18.703125 2.59375 
L 18.703125 0 
C 21.90625 0.1875 27.296875 0.1875 30.703125 0.1875 
C 34.09375 0.1875 39.5 0.1875 42.703125 0 
L 42.703125 2.59375 
L 40.796875 2.59375 
C 33.796875 2.59375 33.59375 3.59375 33.59375 7.1875 
L 33.59375 17 
L 43.796875 17 
L 43.796875 19.59375 
L 33.59375 19.59375 
z
M 28.09375 58.171875 
L 28.09375 19.59375 
L 4 19.59375 
z
" id="CMR17-52"/>
       </defs>
       <use transform="scale(0.996264)" xlink:href="#CMR17-49"/>
       <use transform="translate(45.690477 0)scale(0.996264)" xlink:href="#CMR17-48"/>
       <use transform="translate(91.380954 36.153639)scale(0.697382)" xlink:href="#CMSY10-0"/>
       <use transform="translate(145.621947 36.153639)scale(0.697382)" xlink:href="#CMR17-52"/>
      </g>
     </g>
    </g>
    <g id="ytick_3">
     <g id="line2d_14">
      <g>
       <use style="fill:#262626;stroke:#262626;stroke-width:0.8;" x="66.618458" xlink:href="#mcb5a90f493" y="220.883264"/>
      </g>
     </g>
     <g id="text_6">
      <!-- $\mathdefault{10^{-3}}$ -->
      <g style="fill:#262626;" transform="translate(30.639659 225.726202)scale(0.14 -0.14)">
       <defs>
        <path d="M 22.09375 34 
C 31 34 34.90625 26.140625 34.90625 17.09375 
C 34.90625 5.03125 28.5 0.390625 22.703125 0.390625 
C 17.40625 0.390625 8.796875 3.015625 6.09375 10.796875 
C 6.59375 10.59375 7.09375 10.59375 7.59375 10.59375 
C 10 10.59375 11.796875 12.1875 11.796875 14.796875 
C 11.796875 17.6875 9.59375 19 7.59375 19 
C 5.90625 19 3.296875 18.1875 3.296875 14.484375 
C 3.296875 5.234375 12.296875 -2 22.90625 -2 
C 34 -2 42.5 6.75 42.5 16.984375 
C 42.5 26.84375 34.5 34 25 35.09375 
C 32.59375 36.671875 39.90625 43.375 39.90625 52.390625 
C 39.90625 60.25 32 66 23 66 
C 13.90625 66 5.90625 60.34375 5.90625 52.296875 
C 5.90625 48.796875 8.5 48.1875 9.796875 48.1875 
C 11.90625 48.1875 13.703125 49.484375 13.703125 52.09375 
C 13.703125 54.6875 11.90625 56 9.796875 56 
C 9.40625 56 8.90625 56 8.5 55.796875 
C 11.40625 62.484375 19.296875 63.6875 22.796875 63.6875 
C 26.296875 63.6875 32.90625 61.96875 32.90625 52.296875 
C 32.90625 49.484375 32.5 44.546875 29.09375 40.21875 
C 26.09375 36.390625 22.703125 36.1875 19.40625 35.890625 
C 18.90625 35.890625 16.59375 35.6875 16.203125 35.6875 
C 15.5 35.59375 15.09375 35.5 15.09375 34.796875 
C 15.09375 34.09375 15.203125 34 17.203125 34 
z
" id="CMR17-51"/>
       </defs>
       <use transform="scale(0.996264)" xlink:href="#CMR17-49"/>
       <use transform="translate(45.690477 0)scale(0.996264)" xlink:href="#CMR17-48"/>
       <use transform="translate(91.380954 36.153639)scale(0.697382)" xlink:href="#CMSY10-0"/>
       <use transform="translate(145.621947 36.153639)scale(0.697382)" xlink:href="#CMR17-51"/>
      </g>
     </g>
    </g>
    <g id="ytick_4">
     <g id="line2d_15">
      <g>
       <use style="fill:#262626;stroke:#262626;stroke-width:0.8;" x="66.618458" xlink:href="#mcb5a90f493" y="152.482309"/>
      </g>
     </g>
     <g id="text_7">
      <!-- $\mathdefault{10^{-2}}$ -->
      <g style="fill:#262626;" transform="translate(30.639659 157.325247)scale(0.14 -0.14)">
       <use transform="scale(0.996264)" xlink:href="#CMR17-49"/>
       <use transform="translate(45.690477 0)scale(0.996264)" xlink:href="#CMR17-48"/>
       <use transform="translate(91.380954 36.153639)scale(0.697382)" xlink:href="#CMSY10-0"/>
       <use transform="translate(145.621947 36.153639)scale(0.697382)" xlink:href="#CMR17-50"/>
      </g>
     </g>
    </g>
    <g id="ytick_5">
     <g id="line2d_16">
      <g>
       <use style="fill:#262626;stroke:#262626;stroke-width:0.8;" x="66.618458" xlink:href="#mcb5a90f493" y="84.081354"/>
      </g>
     </g>
     <g id="text_8">
      <!-- $\mathdefault{10^{-1}}$ -->
      <g style="fill:#262626;" transform="translate(30.639659 88.924293)scale(0.14 -0.14)">
       <use transform="scale(0.996264)" xlink:href="#CMR17-49"/>
       <use transform="translate(45.690477 0)scale(0.996264)" xlink:href="#CMR17-48"/>
       <use transform="translate(91.380954 36.153639)scale(0.697382)" xlink:href="#CMSY10-0"/>
       <use transform="translate(145.621947 36.153639)scale(0.697382)" xlink:href="#CMR17-49"/>
      </g>
     </g>
    </g>
    <g id="ytick_6">
     <g id="line2d_17">
      <defs>
       <path d="M 0 0 
L -3 0 
" id="mc64f425115" style="stroke:#262626;stroke-width:0.6;"/>
      </defs>
      <g>
       <use style="fill:#262626;stroke:#262626;stroke-width:0.6;" x="66.618458" xlink:href="#mc64f425115" y="393.450578"/>
      </g>
     </g>
    </g>
    <g id="ytick_7">
     <g id="line2d_18">
      <g>
       <use style="fill:#262626;stroke:#262626;stroke-width:0.6;" x="66.618458" xlink:href="#mc64f425115" y="384.904649"/>
      </g>
     </g>
    </g>
    <g id="ytick_8">
     <g id="line2d_19">
      <g>
       <use style="fill:#262626;stroke:#262626;stroke-width:0.6;" x="66.618458" xlink:href="#mc64f425115" y="378.275912"/>
      </g>
     </g>
    </g>
    <g id="ytick_9">
     <g id="line2d_20">
      <g>
       <use style="fill:#262626;stroke:#262626;stroke-width:0.6;" x="66.618458" xlink:href="#mc64f425115" y="372.859839"/>
      </g>
     </g>
    </g>
    <g id="ytick_10">
     <g id="line2d_21">
      <g>
       <use style="fill:#262626;stroke:#262626;stroke-width:0.6;" x="66.618458" xlink:href="#mc64f425115" y="368.280615"/>
      </g>
     </g>
    </g>
    <g id="ytick_11">
     <g id="line2d_22">
      <g>
       <use style="fill:#262626;stroke:#262626;stroke-width:0.6;" x="66.618458" xlink:href="#mc64f425115" y="364.31391"/>
      </g>
     </g>
    </g>
    <g id="ytick_12">
     <g id="line2d_23">
      <g>
       <use style="fill:#262626;stroke:#262626;stroke-width:0.6;" x="66.618458" xlink:href="#mc64f425115" y="360.815029"/>
      </g>
     </g>
    </g>
    <g id="ytick_13">
     <g id="line2d_24">
      <g>
       <use style="fill:#262626;stroke:#262626;stroke-width:0.6;" x="66.618458" xlink:href="#mc64f425115" y="337.094434"/>
      </g>
     </g>
    </g>
    <g id="ytick_14">
     <g id="line2d_25">
      <g>
       <use style="fill:#262626;stroke:#262626;stroke-width:0.6;" x="66.618458" xlink:href="#mc64f425115" y="325.049623"/>
      </g>
     </g>
    </g>
    <g id="ytick_15">
     <g id="line2d_26">
      <g>
       <use style="fill:#262626;stroke:#262626;stroke-width:0.6;" x="66.618458" xlink:href="#mc64f425115" y="316.503695"/>
      </g>
     </g>
    </g>
    <g id="ytick_16">
     <g id="line2d_27">
      <g>
       <use style="fill:#262626;stroke:#262626;stroke-width:0.6;" x="66.618458" xlink:href="#mc64f425115" y="309.874957"/>
      </g>
     </g>
    </g>
    <g id="ytick_17">
     <g id="line2d_28">
      <g>
       <use style="fill:#262626;stroke:#262626;stroke-width:0.6;" x="66.618458" xlink:href="#mc64f425115" y="304.458884"/>
      </g>
     </g>
    </g>
    <g id="ytick_18">
     <g id="line2d_29">
      <g>
       <use style="fill:#262626;stroke:#262626;stroke-width:0.6;" x="66.618458" xlink:href="#mc64f425115" y="299.87966"/>
      </g>
     </g>
    </g>
    <g id="ytick_19">
     <g id="line2d_30">
      <g>
       <use style="fill:#262626;stroke:#262626;stroke-width:0.6;" x="66.618458" xlink:href="#mc64f425115" y="295.912956"/>
      </g>
     </g>
    </g>
    <g id="ytick_20">
     <g id="line2d_31">
      <g>
       <use style="fill:#262626;stroke:#262626;stroke-width:0.6;" x="66.618458" xlink:href="#mc64f425115" y="292.414074"/>
      </g>
     </g>
    </g>
    <g id="ytick_21">
     <g id="line2d_32">
      <g>
       <use style="fill:#262626;stroke:#262626;stroke-width:0.6;" x="66.618458" xlink:href="#mc64f425115" y="268.693479"/>
      </g>
     </g>
    </g>
    <g id="ytick_22">
     <g id="line2d_33">
      <g>
       <use style="fill:#262626;stroke:#262626;stroke-width:0.6;" x="66.618458" xlink:href="#mc64f425115" y="256.648669"/>
      </g>
     </g>
    </g>
    <g id="ytick_23">
     <g id="line2d_34">
      <g>
       <use style="fill:#262626;stroke:#262626;stroke-width:0.6;" x="66.618458" xlink:href="#mc64f425115" y="248.10274"/>
      </g>
     </g>
    </g>
    <g id="ytick_24">
     <g id="line2d_35">
      <g>
       <use style="fill:#262626;stroke:#262626;stroke-width:0.6;" x="66.618458" xlink:href="#mc64f425115" y="241.474003"/>
      </g>
     </g>
    </g>
    <g id="ytick_25">
     <g id="line2d_36">
      <g>
       <use style="fill:#262626;stroke:#262626;stroke-width:0.6;" x="66.618458" xlink:href="#mc64f425115" y="236.05793"/>
      </g>
     </g>
    </g>
    <g id="ytick_26">
     <g id="line2d_37">
      <g>
       <use style="fill:#262626;stroke:#262626;stroke-width:0.6;" x="66.618458" xlink:href="#mc64f425115" y="231.478705"/>
      </g>
     </g>
    </g>
    <g id="ytick_27">
     <g id="line2d_38">
      <g>
       <use style="fill:#262626;stroke:#262626;stroke-width:0.6;" x="66.618458" xlink:href="#mc64f425115" y="227.512001"/>
      </g>
     </g>
    </g>
    <g id="ytick_28">
     <g id="line2d_39">
      <g>
       <use style="fill:#262626;stroke:#262626;stroke-width:0.6;" x="66.618458" xlink:href="#mc64f425115" y="224.01312"/>
      </g>
     </g>
    </g>
    <g id="ytick_29">
     <g id="line2d_40">
      <g>
       <use style="fill:#262626;stroke:#262626;stroke-width:0.6;" x="66.618458" xlink:href="#mc64f425115" y="200.292524"/>
      </g>
     </g>
    </g>
    <g id="ytick_30">
     <g id="line2d_41">
      <g>
       <use style="fill:#262626;stroke:#262626;stroke-width:0.6;" x="66.618458" xlink:href="#mc64f425115" y="188.247714"/>
      </g>
     </g>
    </g>
    <g id="ytick_31">
     <g id="line2d_42">
      <g>
       <use style="fill:#262626;stroke:#262626;stroke-width:0.6;" x="66.618458" xlink:href="#mc64f425115" y="179.701785"/>
      </g>
     </g>
    </g>
    <g id="ytick_32">
     <g id="line2d_43">
      <g>
       <use style="fill:#262626;stroke:#262626;stroke-width:0.6;" x="66.618458" xlink:href="#mc64f425115" y="173.073048"/>
      </g>
     </g>
    </g>
    <g id="ytick_33">
     <g id="line2d_44">
      <g>
       <use style="fill:#262626;stroke:#262626;stroke-width:0.6;" x="66.618458" xlink:href="#mc64f425115" y="167.656975"/>
      </g>
     </g>
    </g>
    <g id="ytick_34">
     <g id="line2d_45">
      <g>
       <use style="fill:#262626;stroke:#262626;stroke-width:0.6;" x="66.618458" xlink:href="#mc64f425115" y="163.077751"/>
      </g>
     </g>
    </g>
    <g id="ytick_35">
     <g id="line2d_46">
      <g>
       <use style="fill:#262626;stroke:#262626;stroke-width:0.6;" x="66.618458" xlink:href="#mc64f425115" y="159.111046"/>
      </g>
     </g>
    </g>
    <g id="ytick_36">
     <g id="line2d_47">
      <g>
       <use style="fill:#262626;stroke:#262626;stroke-width:0.6;" x="66.618458" xlink:href="#mc64f425115" y="155.612165"/>
      </g>
     </g>
    </g>
    <g id="ytick_37">
     <g id="line2d_48">
      <g>
       <use style="fill:#262626;stroke:#262626;stroke-width:0.6;" x="66.618458" xlink:href="#mc64f425115" y="131.89157"/>
      </g>
     </g>
    </g>
    <g id="ytick_38">
     <g id="line2d_49">
      <g>
       <use style="fill:#262626;stroke:#262626;stroke-width:0.6;" x="66.618458" xlink:href="#mc64f425115" y="119.84676"/>
      </g>
     </g>
    </g>
    <g id="ytick_39">
     <g id="line2d_50">
      <g>
       <use style="fill:#262626;stroke:#262626;stroke-width:0.6;" x="66.618458" xlink:href="#mc64f425115" y="111.300831"/>
      </g>
     </g>
    </g>
    <g id="ytick_40">
     <g id="line2d_51">
      <g>
       <use style="fill:#262626;stroke:#262626;stroke-width:0.6;" x="66.618458" xlink:href="#mc64f425115" y="104.672093"/>
      </g>
     </g>
    </g>
    <g id="ytick_41">
     <g id="line2d_52">
      <g>
       <use style="fill:#262626;stroke:#262626;stroke-width:0.6;" x="66.618458" xlink:href="#mc64f425115" y="99.256021"/>
      </g>
     </g>
    </g>
    <g id="ytick_42">
     <g id="line2d_53">
      <g>
       <use style="fill:#262626;stroke:#262626;stroke-width:0.6;" x="66.618458" xlink:href="#mc64f425115" y="94.676796"/>
      </g>
     </g>
    </g>
    <g id="ytick_43">
     <g id="line2d_54">
      <g>
       <use style="fill:#262626;stroke:#262626;stroke-width:0.6;" x="66.618458" xlink:href="#mc64f425115" y="90.710092"/>
      </g>
     </g>
    </g>
    <g id="ytick_44">
     <g id="line2d_55">
      <g>
       <use style="fill:#262626;stroke:#262626;stroke-width:0.6;" x="66.618458" xlink:href="#mc64f425115" y="87.21121"/>
      </g>
     </g>
    </g>
    <g id="ytick_45">
     <g id="line2d_56">
      <g>
       <use style="fill:#262626;stroke:#262626;stroke-width:0.6;" x="66.618458" xlink:href="#mc64f425115" y="63.490615"/>
      </g>
     </g>
    </g>
    <g id="ytick_46">
     <g id="line2d_57">
      <g>
       <use style="fill:#262626;stroke:#262626;stroke-width:0.6;" x="66.618458" xlink:href="#mc64f425115" y="51.445805"/>
      </g>
     </g>
    </g>
    <g id="ytick_47">
     <g id="line2d_58">
      <g>
       <use style="fill:#262626;stroke:#262626;stroke-width:0.6;" x="66.618458" xlink:href="#mc64f425115" y="42.899876"/>
      </g>
     </g>
    </g>
    <g id="ytick_48">
     <g id="line2d_59">
      <g>
       <use style="fill:#262626;stroke:#262626;stroke-width:0.6;" x="66.618458" xlink:href="#mc64f425115" y="36.271139"/>
      </g>
     </g>
    </g>
    <g id="text_9">
     <!-- $\mathcal{P}(\rho)$ -->
     <g style="fill:#262626;" transform="translate(22.455354 232.414757)rotate(-90)scale(0.168 -0.168)">
      <defs>
       <path d="M 34.796875 68 
C 20.703125 68 10 61.203125 5.90625 56.546875 
C 2.40625 52.59375 2.09375 49.734375 2.09375 49.53125 
C 2.09375 48.9375 2.5 48.734375 3.09375 48.734375 
C 4.703125 48.734375 7 50.125 7.796875 50.625 
C 9.90625 52 10.203125 52.59375 10.796875 54.484375 
C 12.203125 58.4375 15 61.890625 27.59375 62.484375 
C 25.796875 40.234375 19.796875 18.484375 11.40625 -2.5 
C 10.796875 -4 10.796875 -4.203125 10.796875 -4.3125 
C 10.796875 -4.609375 11.09375 -5 11.796875 -5 
C 13.40625 -5 18.203125 -2.8125 19.296875 -0.203125 
C 24.5 12.046875 32.703125 35 35.703125 62.484375 
L 40.90625 62.484375 
C 53.09375 62.484375 64.796875 57.84375 64.796875 47.953125 
C 64.796875 40.53125 57.59375 26.6875 38.203125 26.09375 
C 36.09375 26 35 26 32.203125 24.1875 
C 30.40625 22.984375 29.59375 21.890625 29.59375 21.296875 
C 29.59375 20.59375 30.203125 20.59375 31.5 20.59375 
C 49.703125 20.59375 73.296875 35.890625 73.296875 52.203125 
C 73.296875 63.484375 59.796875 68 48.203125 68 
z
" id="CMSY10-80"/>
       <path d="M 30.59375 -24.40625 
C 30.59375 -24.3125 30.59375 -24.109375 30.296875 -23.8125 
C 25.703125 -19.109375 13.40625 -6.296875 13.40625 24.9375 
C 13.40625 56.171875 25.5 68.875 30.40625 73.890625 
C 30.40625 73.984375 30.59375 74.1875 30.59375 74.484375 
C 30.59375 74.796875 30.296875 75 29.90625 75 
C 28.796875 75 20.296875 67.578125 15.40625 56.5625 
C 10.40625 45.453125 9 34.65625 9 25.046875 
C 9 17.828125 9.703125 5.625 15.703125 -7.296875 
C 20.5 -17.703125 28.703125 -25 29.90625 -25 
C 30.40625 -25 30.59375 -24.8125 30.59375 -24.40625 
z
" id="CMR17-40"/>
       <path d="M 26.296875 24.9375 
C 26.296875 32.140625 25.59375 44.359375 19.59375 57.265625 
C 14.796875 67.6875 6.59375 75 5.40625 75 
C 5.09375 75 4.703125 74.890625 4.703125 74.390625 
C 4.703125 74.1875 4.796875 74.09375 4.90625 73.890625 
C 9.703125 68.875 21.90625 56.171875 21.90625 25.046875 
C 21.90625 -6.1875 9.796875 -18.90625 4.90625 -23.90625 
C 4.796875 -24.109375 4.703125 -24.203125 4.703125 -24.40625 
C 4.703125 -24.90625 5.09375 -25 5.40625 -25 
C 6.5 -25 15 -17.609375 19.90625 -6.59375 
C 24.90625 4.515625 26.296875 15.328125 26.296875 24.9375 
z
" id="CMR17-41"/>
      </defs>
      <use transform="scale(0.996264)" xlink:href="#CMSY10-80"/>
      <use transform="translate(77.487559 0)scale(0.996264)" xlink:href="#CMR17-40"/>
      <use transform="translate(112.768327 0)scale(0.996264)" xlink:href="#CMMI12-26"/>
      <use transform="translate(163.0827 0)scale(0.996264)" xlink:href="#CMR17-41"/>
     </g>
    </g>
   </g>
   <g id="patch_3">
    <path clip-path="url(#p8389d1c5df)" d="M 91.785719 68416.635008 
L 102.05807 68416.635008 
L 102.05807 55.100494 
L 91.785719 55.100494 
z
" style="fill:#008fd5;"/>
   </g>
   <g id="patch_4">
    <path clip-path="url(#p8389d1c5df)" d="M 102.05807 68416.635008 
L 112.330421 68416.635008 
L 112.330421 61.866225 
L 102.05807 61.866225 
z
" style="fill:#008fd5;"/>
   </g>
   <g id="patch_5">
    <path clip-path="url(#p8389d1c5df)" d="M 112.330421 68416.635008 
L 122.602773 68416.635008 
L 122.602773 66.045357 
L 112.330421 66.045357 
z
" style="fill:#008fd5;"/>
   </g>
   <g id="patch_6">
    <path clip-path="url(#p8389d1c5df)" d="M 122.602773 68416.635008 
L 132.875124 68416.635008 
L 132.875124 74.258993 
L 122.602773 74.258993 
z
" style="fill:#008fd5;"/>
   </g>
   <g id="patch_7">
    <path clip-path="url(#p8389d1c5df)" d="M 132.875124 68416.635008 
L 143.147475 68416.635008 
L 143.147475 81.492299 
L 132.875124 81.492299 
z
" style="fill:#008fd5;"/>
   </g>
   <g id="patch_8">
    <path clip-path="url(#p8389d1c5df)" d="M 143.147475 68416.635008 
L 153.419826 68416.635008 
L 153.419826 88.720466 
L 143.147475 88.720466 
z
" style="fill:#008fd5;"/>
   </g>
   <g id="patch_9">
    <path clip-path="url(#p8389d1c5df)" d="M 153.419826 68416.635008 
L 163.692178 68416.635008 
L 163.692178 95.059576 
L 153.419826 95.059576 
z
" style="fill:#008fd5;"/>
   </g>
   <g id="patch_10">
    <path clip-path="url(#p8389d1c5df)" d="M 163.692178 68416.635008 
L 173.964529 68416.635008 
L 173.964529 102.420041 
L 163.692178 102.420041 
z
" style="fill:#008fd5;"/>
   </g>
   <g id="patch_11">
    <path clip-path="url(#p8389d1c5df)" d="M 173.964529 68416.635008 
L 184.23688 68416.635008 
L 184.23688 110.571846 
L 173.964529 110.571846 
z
" style="fill:#008fd5;"/>
   </g>
   <g id="patch_12">
    <path clip-path="url(#p8389d1c5df)" d="M 184.23688 68416.635008 
L 194.509231 68416.635008 
L 194.509231 115.580685 
L 184.23688 115.580685 
z
" style="fill:#008fd5;"/>
   </g>
   <g id="patch_13">
    <path clip-path="url(#p8389d1c5df)" d="M 194.509231 68416.635008 
L 204.781582 68416.635008 
L 204.781582 120.544525 
L 194.509231 120.544525 
z
" style="fill:#008fd5;"/>
   </g>
   <g id="patch_14">
    <path clip-path="url(#p8389d1c5df)" d="M 204.781582 68416.635008 
L 215.053934 68416.635008 
L 215.053934 125.140772 
L 204.781582 125.140772 
z
" style="fill:#008fd5;"/>
   </g>
   <g id="patch_15">
    <path clip-path="url(#p8389d1c5df)" d="M 215.053934 68416.635008 
L 225.326285 68416.635008 
L 225.326285 136.049544 
L 215.053934 136.049544 
z
" style="fill:#008fd5;"/>
   </g>
   <g id="patch_16">
    <path clip-path="url(#p8389d1c5df)" d="M 225.326285 68416.635008 
L 235.598636 68416.635008 
L 235.598636 146.618999 
L 225.326285 146.618999 
z
" style="fill:#008fd5;"/>
   </g>
   <g id="patch_17">
    <path clip-path="url(#p8389d1c5df)" d="M 235.598636 68416.635008 
L 245.870987 68416.635008 
L 245.870987 148.766279 
L 235.598636 148.766279 
z
" style="fill:#008fd5;"/>
   </g>
   <g id="patch_18">
    <path clip-path="url(#p8389d1c5df)" d="M 245.870987 68416.635008 
L 256.143339 68416.635008 
L 256.143339 150.43825 
L 245.870987 150.43825 
z
" style="fill:#008fd5;"/>
   </g>
   <g id="patch_19">
    <path clip-path="url(#p8389d1c5df)" d="M 256.143339 68416.635008 
L 266.41569 68416.635008 
L 266.41569 160.9773 
L 256.143339 160.9773 
z
" style="fill:#008fd5;"/>
   </g>
   <g id="patch_20">
    <path clip-path="url(#p8389d1c5df)" d="M 266.41569 68416.635008 
L 276.688041 68416.635008 
L 276.688041 170.767766 
L 266.41569 170.767766 
z
" style="fill:#008fd5;"/>
   </g>
   <g id="patch_21">
    <path clip-path="url(#p8389d1c5df)" d="M 276.688041 68416.635008 
L 286.960392 68416.635008 
L 286.960392 183.647698 
L 276.688041 183.647698 
z
" style="fill:#008fd5;"/>
   </g>
   <g id="patch_22">
    <path clip-path="url(#p8389d1c5df)" d="M 286.960392 68416.635008 
L 297.232743 68416.635008 
L 297.232743 175.859632 
L 286.960392 175.859632 
z
" style="fill:#008fd5;"/>
   </g>
   <g id="patch_23">
    <path clip-path="url(#p8389d1c5df)" d="M 297.232743 68416.635008 
L 307.505095 68416.635008 
L 307.505095 189.576413 
L 297.232743 189.576413 
z
" style="fill:#008fd5;"/>
   </g>
   <g id="patch_24">
    <path clip-path="url(#p8389d1c5df)" d="M 307.505095 68416.635008 
L 317.777446 68416.635008 
L 317.777446 194.079683 
L 307.505095 194.079683 
z
" style="fill:#008fd5;"/>
   </g>
   <g id="patch_25">
    <path clip-path="url(#p8389d1c5df)" d="M 317.777446 68416.635008 
L 328.049797 68416.635008 
L 328.049797 204.297583 
L 317.777446 204.297583 
z
" style="fill:#008fd5;"/>
   </g>
   <g id="patch_26">
    <path clip-path="url(#p8389d1c5df)" d="M 328.049797 68416.635008 
L 338.322148 68416.635008 
L 338.322148 200.553481 
L 328.049797 200.553481 
z
" style="fill:#008fd5;"/>
   </g>
   <g id="patch_27">
    <path clip-path="url(#p8389d1c5df)" d="M 338.322148 68416.635008 
L 348.5945 68416.635008 
L 348.5945 219.686335 
L 338.322148 219.686335 
z
" style="fill:#008fd5;"/>
   </g>
   <g id="patch_28">
    <path clip-path="url(#p8389d1c5df)" d="M 348.5945 68416.635008 
L 358.866851 68416.635008 
L 358.866851 224.488162 
L 348.5945 224.488162 
z
" style="fill:#008fd5;"/>
   </g>
   <g id="patch_29">
    <path clip-path="url(#p8389d1c5df)" d="M 358.866851 68416.635008 
L 369.139202 68416.635008 
L 369.139202 229.659014 
L 358.866851 229.659014 
z
" style="fill:#008fd5;"/>
   </g>
   <g id="patch_30">
    <path clip-path="url(#p8389d1c5df)" d="M 369.139202 68416.635008 
L 379.411553 68416.635008 
L 379.411553 235.297689 
L 369.139202 235.297689 
z
" style="fill:#008fd5;"/>
   </g>
   <g id="patch_31">
    <path clip-path="url(#p8389d1c5df)" d="M 379.411553 68416.635008 
L 389.683904 68416.635008 
L 389.683904 246.964957 
L 379.411553 246.964957 
z
" style="fill:#008fd5;"/>
   </g>
   <g id="patch_32">
    <path clip-path="url(#p8389d1c5df)" d="M 389.683904 68416.635008 
L 399.956256 68416.635008 
L 399.956256 234.674926 
L 389.683904 234.674926 
z
" style="fill:#008fd5;"/>
   </g>
   <g id="patch_33">
    <path clip-path="url(#p8389d1c5df)" d="M 399.956256 68416.635008 
L 410.228607 68416.635008 
L 410.228607 68416.635008 
L 399.956256 68416.635008 
z
" style="fill:#008fd5;"/>
   </g>
   <g id="patch_34">
    <path clip-path="url(#p8389d1c5df)" d="M 410.228607 68416.635008 
L 420.500958 68416.635008 
L 420.500958 279.200346 
L 410.228607 279.200346 
z
" style="fill:#008fd5;"/>
   </g>
   <g id="patch_35">
    <path clip-path="url(#p8389d1c5df)" d="M 420.500958 68416.635008 
L 430.773309 68416.635008 
L 430.773309 260.281577 
L 420.500958 260.281577 
z
" style="fill:#008fd5;"/>
   </g>
   <g id="patch_36">
    <path clip-path="url(#p8389d1c5df)" d="M 430.773309 68416.635008 
L 441.045661 68416.635008 
L 441.045661 261.953548 
L 430.773309 261.953548 
z
" style="fill:#008fd5;"/>
   </g>
   <g id="patch_37">
    <path clip-path="url(#p8389d1c5df)" d="M 441.045661 68416.635008 
L 451.318012 68416.635008 
L 451.318012 68416.635008 
L 441.045661 68416.635008 
z
" style="fill:#008fd5;"/>
   </g>
   <g id="patch_38">
    <path clip-path="url(#p8389d1c5df)" d="M 451.318012 68416.635008 
L 461.590363 68416.635008 
L 461.590363 273.843419 
L 451.318012 273.843419 
z
" style="fill:#008fd5;"/>
   </g>
   <g id="patch_39">
    <path clip-path="url(#p8389d1c5df)" d="M 461.590363 68416.635008 
L 471.862714 68416.635008 
L 471.862714 68416.635008 
L 461.590363 68416.635008 
z
" style="fill:#008fd5;"/>
   </g>
   <g id="patch_40">
    <path clip-path="url(#p8389d1c5df)" d="M 471.862714 68416.635008 
L 482.135066 68416.635008 
L 482.135066 309.82291 
L 471.862714 309.82291 
z
" style="fill:#008fd5;"/>
   </g>
   <g id="patch_41">
    <path clip-path="url(#p8389d1c5df)" d="M 482.135066 68416.635008 
L 492.407417 68416.635008 
L 492.407417 68416.635008 
L 482.135066 68416.635008 
z
" style="fill:#008fd5;"/>
   </g>
   <g id="patch_42">
    <path clip-path="url(#p8389d1c5df)" d="M 492.407417 68416.635008 
L 502.679768 68416.635008 
L 502.679768 313.166851 
L 492.407417 313.166851 
z
" style="fill:#008fd5;"/>
   </g>
   <g id="patch_43">
    <path clip-path="url(#p8389d1c5df)" d="M 502.679768 68416.635008 
L 512.952119 68416.635008 
L 512.952119 314.838822 
L 502.679768 314.838822 
z
" style="fill:#008fd5;"/>
   </g>
   <g id="patch_44">
    <path clip-path="url(#p8389d1c5df)" d="M 512.952119 68416.635008 
L 523.22447 68416.635008 
L 523.22447 316.510793 
L 512.952119 316.510793 
z
" style="fill:#008fd5;"/>
   </g>
   <g id="patch_45">
    <path clip-path="url(#p8389d1c5df)" d="M 523.22447 68416.635008 
L 533.496822 68416.635008 
L 533.496822 318.182763 
L 523.22447 318.182763 
z
" style="fill:#008fd5;"/>
   </g>
   <g id="patch_46">
    <path clip-path="url(#p8389d1c5df)" d="M 533.496822 68416.635008 
L 543.769173 68416.635008 
L 543.769173 68416.635008 
L 533.496822 68416.635008 
z
" style="fill:#008fd5;"/>
   </g>
   <g id="patch_47">
    <path clip-path="url(#p8389d1c5df)" d="M 543.769173 68416.635008 
L 554.041524 68416.635008 
L 554.041524 68416.635008 
L 543.769173 68416.635008 
z
" style="fill:#008fd5;"/>
   </g>
   <g id="patch_48">
    <path clip-path="url(#p8389d1c5df)" d="M 554.041524 68416.635008 
L 564.313875 68416.635008 
L 564.313875 68416.635008 
L 554.041524 68416.635008 
z
" style="fill:#008fd5;"/>
   </g>
   <g id="patch_49">
    <path clip-path="url(#p8389d1c5df)" d="M 564.313875 68416.635008 
L 574.586227 68416.635008 
L 574.586227 68416.635008 
L 564.313875 68416.635008 
z
" style="fill:#008fd5;"/>
   </g>
   <g id="patch_50">
    <path clip-path="url(#p8389d1c5df)" d="M 574.586227 68416.635008 
L 584.858578 68416.635008 
L 584.858578 68416.635008 
L 574.586227 68416.635008 
z
" style="fill:#008fd5;"/>
   </g>
   <g id="patch_51">
    <path clip-path="url(#p8389d1c5df)" d="M 584.858578 68416.635008 
L 595.130929 68416.635008 
L 595.130929 328.214588 
L 584.858578 328.214588 
z
" style="fill:#008fd5;"/>
   </g>
   <g id="line2d_60">
    <path clip-path="url(#p8389d1c5df)" d="M 177.059429 106.97103 
L 91.785719 51.45301 
L 595.130929 379.159284 
L 131.793955 77.50064 
" style="fill:none;stroke:#ff0000;stroke-linecap:round;stroke-width:4;"/>
   </g>
   <g id="patch_52">
    <path d="M 66.618458 395.544597 
L 66.618458 35.067696 
" style="fill:none;stroke:#262626;stroke-linecap:square;stroke-linejoin:miter;stroke-width:1.25;"/>
   </g>
   <g id="patch_53">
    <path d="M 620.298189 395.544597 
L 620.298189 35.067696 
" style="fill:none;stroke:#262626;stroke-linecap:square;stroke-linejoin:miter;stroke-width:1.25;"/>
   </g>
   <g id="patch_54">
    <path d="M 66.618458 395.544597 
L 620.298189 395.544597 
" style="fill:none;stroke:#262626;stroke-linecap:square;stroke-linejoin:miter;stroke-width:1.25;"/>
   </g>
   <g id="patch_55">
    <path d="M 66.618458 35.067696 
L 620.298189 35.067696 
" style="fill:none;stroke:#262626;stroke-linecap:square;stroke-linejoin:miter;stroke-width:1.25;"/>
   </g>
   <g id="text_10">
    <!-- Distribution of GW Network SNR in a Realized Population -->
    <g style="fill:#262626;" transform="translate(112.306223 29.067696)scale(0.2016 -0.2016)">
     <defs>
      <path d="M 8.90625 69 
L 8.90625 0 
L 33.5 0 
C 49.90625 0 62.5 15.328125 62.5 33.890625 
C 62.5 53.0625 49.90625 69 33.5 69 
z
M 17.09375 5.59375 
L 17.09375 63.390625 
L 31.296875 63.390625 
C 44.703125 63.390625 54.296875 51.171875 54.296875 33.890625 
C 54.296875 17.3125 44.796875 5.59375 31.296875 5.59375 
z
" id="CMSS17-68"/>
      <path d="M 15.296875 66 
L 6.90625 66 
L 6.90625 57.59375 
L 15.296875 57.59375 
z
M 14.796875 43 
L 7.40625 43 
L 7.40625 0 
L 14.796875 0 
z
" id="CMSS17-105"/>
      <path d="M 32.203125 40.984375 
C 26.296875 43.796875 21.703125 44 18.703125 44 
C 11.59375 44 3.09375 41.484375 3.09375 31.390625 
C 3.09375 21.296875 14.09375 19.09375 17.09375 18.484375 
C 21.703125 17.59375 26.796875 16.59375 26.796875 11.59375 
C 26.796875 5.296875 19.59375 5.296875 18.296875 5.296875 
C 14.296875 5.296875 8.796875 6.390625 3.796875 9.984375 
L 2.59375 3.296875 
C 8.296875 0 13.796875 -1 18.40625 -1 
C 30.703125 -1 33.796875 6.5 33.796875 12.1875 
C 33.796875 17.09375 31 20.390625 29.09375 21.890625 
C 25.796875 24.484375 24.59375 24.796875 16.40625 26.484375 
C 15 26.6875 10.09375 27.796875 10.09375 32.296875 
C 10.09375 37.984375 16.40625 37.984375 17.796875 37.984375 
C 24.296875 37.984375 28.296875 35.984375 31 34.484375 
z
" id="CMSS17-115"/>
      <path d="M 14.90625 69 
L 7.5 69 
L 7.5 -0.203125 
L 15.09375 -0.203125 
L 15.09375 4.296875 
C 18.90625 0.59375 23.5 -1 27.59375 -1 
C 37.203125 -1 45 8.734375 45 21.59375 
C 45 33.328125 39 44 30.09375 44 
C 23.796875 44 18.203125 41.390625 14.90625 38.6875 
z
M 15.09375 32.734375 
C 17.296875 35.5625 20.40625 37.890625 24.796875 37.890625 
C 30.703125 37.890625 37.40625 33.53125 37.40625 21.59375 
C 37.40625 8.84375 29.40625 5.09375 23.90625 5.09375 
C 21.90625 5.09375 19.796875 5.59375 17.796875 7.3125 
C 15.09375 9.75 15.09375 11.265625 15.09375 12.6875 
z
" id="CMSS17-98"/>
      <path d="M 40.90625 43 
L 33.296875 43 
L 33.296875 15.25 
C 33.296875 7.8125 27.90625 4.796875 22.203125 4.796875 
C 15.59375 4.796875 15 7 15 11.125 
L 15 43 
L 7.40625 43 
L 7.40625 10.625 
C 7.40625 2.796875 10.09375 -1 17 -1 
C 20.40625 -1 28.09375 -0.203125 33.5 4.796875 
L 33.5 -0.203125 
L 40.90625 -0.203125 
z
" id="CMSS17-117"/>
      <path d="M 40.90625 29.34375 
C 40.90625 35.671875 39.40625 44 28.09375 44 
C 21.703125 44 17.5 40.6875 14.703125 37.28125 
L 14.703125 43.484375 
L 7.40625 43.484375 
L 7.40625 0 
L 15 0 
L 15 24.3125 
C 15 30.65625 17.40625 37.890625 24.203125 37.890625 
C 33 37.890625 33.296875 31.953125 33.296875 28.53125 
L 33.296875 0 
L 40.90625 0 
z
" id="CMSS17-110"/>
      <path d="M 16.796875 37.1875 
L 26.90625 37.1875 
L 26.90625 43 
L 16.59375 43 
L 16.59375 55.671875 
C 16.59375 62.703125 22 63.890625 25.09375 63.890625 
C 26.09375 63.890625 28.90625 63.890625 32.5 62.609375 
L 32.5 69.1875 
C 30.203125 69.6875 27.40625 70 25.203125 70 
C 15.90625 70 9.40625 62.40625 9.40625 52.59375 
L 9.40625 43 
L 2.5 43 
L 2.5 37.1875 
L 9.40625 37.1875 
L 9.40625 0 
L 16.796875 0 
z
" id="CMSS17-102"/>
      <path d="M 56.40625 29.1875 
L 36.5 29.1875 
L 36.5 23 
L 48.796875 23 
L 48.796875 7.390625 
C 44.90625 6.296875 40.90625 5.5 36.90625 5.5 
C 22.90625 5.5 14.59375 20.484375 14.59375 34.6875 
C 14.59375 48.796875 23.296875 63.59375 36.90625 63.59375 
C 44.59375 63.59375 48.90625 61.1875 54.203125 57.1875 
L 55.5 65.1875 
C 48.90625 68.59375 44.796875 70 37.296875 70 
C 17.90625 70 6.203125 52.390625 6.203125 34.390625 
C 6.203125 17.1875 18 -1 36.703125 -1 
C 43.703125 -1 50.203125 0.796875 56.40625 3.890625 
z
" id="CMSS17-71"/>
      <path d="M 87.203125 69 
L 79.59375 69 
L 71.203125 38.0625 
C 69.90625 33.09375 68.703125 28.125 67.5 23.15625 
C 65.703125 15.8125 64.40625 10.640625 64.203125 8.0625 
L 64.09375 8.0625 
C 63.90625 10.734375 62.59375 16.40625 61 22.765625 
C 59.796875 28.03125 58.5 33.296875 57.09375 38.46875 
L 48.796875 69 
L 40.40625 69 
L 32.5 40.0625 
L 28.5 24.25 
C 25.5 11.734375 25.40625 9.9375 25.203125 7.953125 
L 25.09375 7.953125 
C 25.09375 8.546875 24.703125 11.828125 21.90625 23.453125 
C 20.5 29.21875 19.09375 35.09375 17.59375 40.65625 
L 9.90625 69 
L 1.296875 69 
L 20.296875 0 
L 28.59375 0 
L 36.5 28.71875 
L 40.5 44.53125 
C 43.203125 55.65625 43.796875 58.4375 44 60.921875 
L 44.09375 60.921875 
C 44.09375 60.53125 45 54.265625 48.90625 39.75 
L 59.5 0 
L 68.203125 0 
z
" id="CMSS17-87"/>
      <path d="M 37.59375 27.953125 
C 37.59375 37.484375 30.90625 44 21.90625 44 
C 17.5 44 12.703125 43.1875 7.203125 39.984375 
L 7.796875 33.328125 
C 10.296875 35.15625 14.59375 38.09375 21.796875 38.09375 
C 26.90625 38.09375 30 34.140625 30 27.84375 
L 30 24 
C 14 23.5 4 18.890625 4 11.109375 
C 4 7.0625 6.5 -1 14.796875 -1 
C 16.296875 -1 24.40625 -0.8125 30.203125 3.5 
L 30.203125 -0.203125 
L 37.59375 -0.203125 
z
M 30 12.875 
C 30 11.109375 30 8.734375 27 6.96875 
C 24.40625 5.296875 21.09375 5.09375 19.703125 5.09375 
C 14.703125 5.09375 11.296875 7.859375 11.296875 11.296875 
C 11.296875 18.203125 26.90625 18.890625 30 19 
z
" id="CMSS17-97"/>
      <path d="M 14.796875 69 
L 7.40625 69 
L 7.40625 0 
L 14.796875 0 
z
" id="CMSS17-108"/>
      <path d="M 37.5 39.09375 
L 37.5 43 
L 3.90625 43 
L 3.90625 36.984375 
L 16.703125 36.984375 
C 17.90625 36.984375 19.09375 37.09375 20.296875 37.09375 
L 27.296875 37.09375 
L 2.59375 4.09375 
L 2.59375 0 
L 37.796875 0 
L 37.796875 6.1875 
L 24.203125 6.1875 
C 23 6.1875 21.796875 6.09375 20.59375 6.09375 
L 12.90625 6.09375 
z
" id="CMSS17-122"/>
      <path d="M 40.796875 69 
L 33.40625 69 
L 33.40625 38.984375 
C 30.296875 41.59375 25.203125 44 19.59375 44 
C 10.5 44 3.296875 34.046875 3.296875 21.484375 
C 3.296875 8.9375 10.40625 -1 19.296875 -1 
C 26.203125 -1 30.796875 2.6875 33.203125 4.796875 
L 33.203125 -0.203125 
L 40.796875 -0.203125 
z
M 33.203125 13.296875 
C 33.203125 11.875 33.203125 10.359375 30.09375 7.625 
C 28.09375 5.90625 25.703125 5.09375 23.40625 5.09375 
C 18 5.09375 10.90625 9.140625 10.90625 21.390625 
C 10.90625 34.140625 18.90625 37.890625 24.40625 37.890625 
C 28.09375 37.890625 31.09375 36.0625 33.203125 33.03125 
z
" id="CMSS17-100"/>
      <path d="M 32.90625 29 
C 44.90625 29 54.703125 38.234375 54.703125 49.046875 
C 54.703125 59.65625 45.296875 69 32.296875 69 
L 8.90625 69 
L 8.90625 0 
L 17.296875 0 
L 17.296875 29 
z
M 30.09375 63.390625 
C 41.703125 63.390625 46.796875 56.21875 46.796875 49.046875 
C 46.796875 42.359375 42.09375 34.796875 30.09375 34.796875 
L 17.09375 34.796875 
L 17.09375 63.390625 
z
" id="CMSS17-80"/>
      <path d="M 15.09375 4.296875 
C 18.40625 1.09375 22.90625 -1 27.703125 -1 
C 37 -1 45 8.640625 45 21.59375 
C 45 33.546875 39 44 30.40625 44 
C 25.40625 44 19.40625 42.1875 14.90625 38.59375 
L 14.90625 43.1875 
L 7.5 43.1875 
L 7.5 -20 
L 15.09375 -20 
z
M 15.09375 32.625 
C 15.90625 33.84375 19.296875 37.6875 24.796875 37.6875 
C 31.796875 37.6875 37.40625 30.40625 37.40625 21.59375 
C 37.40625 11.578125 30.59375 5.09375 23.90625 5.09375 
C 21.90625 5.09375 19.796875 5.59375 17.796875 7.3125 
C 15.09375 9.75 15.09375 11.265625 15.09375 12.6875 
z
" id="CMSS17-112"/>
     </defs>
     <use transform="scale(0.996264)" xlink:href="#CMSS17-68"/>
     <use transform="translate(67.542842 0)scale(0.996264)" xlink:href="#CMSS17-105"/>
     <use transform="translate(89.723565 0)scale(0.996264)" xlink:href="#CMSS17-115"/>
     <use transform="translate(125.637107 0)scale(0.996264)" xlink:href="#CMSS17-116"/>
     <use transform="translate(159.468673 0)scale(0.996264)" xlink:href="#CMSS17-114"/>
     <use transform="translate(191.378446 0)scale(0.996264)" xlink:href="#CMSS17-105"/>
     <use transform="translate(213.559169 0)scale(0.996264)" xlink:href="#CMSS17-98"/>
     <use transform="translate(261.764112 0)scale(0.996264)" xlink:href="#CMSS17-117"/>
     <use transform="translate(309.969055 0)scale(0.996264)" xlink:href="#CMSS17-116"/>
     <use transform="translate(343.800622 0)scale(0.996264)" xlink:href="#CMSS17-105"/>
     <use transform="translate(365.981345 0)scale(0.996264)" xlink:href="#CMSS17-111"/>
     <use transform="translate(412.824969 0)scale(0.996264)" xlink:href="#CMSS17-110"/>
     <use transform="translate(492.259024 0)scale(0.996264)" xlink:href="#CMSS17-111"/>
     <use transform="translate(539.102648 0)scale(0.996264)" xlink:href="#CMSS17-102"/>
     <use transform="translate(598.958419 0)scale(0.996264)" xlink:href="#CMSS17-71"/>
     <use transform="translate(661.416645 0)scale(0.996264)" xlink:href="#CMSS17-87"/>
     <use transform="translate(780.887924 0)scale(0.996264)" xlink:href="#CMSS17-78"/>
     <use transform="translate(846.949443 0)scale(0.996264)" xlink:href="#CMSS17-101"/>
     <use transform="translate(888.588265 0)scale(0.996264)" xlink:href="#CMSS17-116"/>
     <use transform="translate(919.817378 0)scale(0.996264)" xlink:href="#CMSS17-119"/>
     <use transform="translate(981.034469 0)scale(0.996264)" xlink:href="#CMSS17-111"/>
     <use transform="translate(1025.275639 0)scale(0.996264)" xlink:href="#CMSS17-114"/>
     <use transform="translate(1057.185411 0)scale(0.996264)" xlink:href="#CMSS17-107"/>
     <use transform="translate(1134.017013 0)scale(0.996264)" xlink:href="#CMSS17-83"/>
     <use transform="translate(1186.065529 0)scale(0.996264)" xlink:href="#CMSS17-78"/>
     <use transform="translate(1252.127049 0)scale(0.996264)" xlink:href="#CMSS17-82"/>
     <use transform="translate(1343.772316 0)scale(0.996264)" xlink:href="#CMSS17-105"/>
     <use transform="translate(1365.953039 0)scale(0.996264)" xlink:href="#CMSS17-110"/>
     <use transform="translate(1445.387095 0)scale(0.996264)" xlink:href="#CMSS17-97"/>
     <use transform="translate(1521.538129 0)scale(0.996264)" xlink:href="#CMSS17-82"/>
     <use transform="translate(1581.954283 0)scale(0.996264)" xlink:href="#CMSS17-101"/>
     <use transform="translate(1623.593105 0)scale(0.996264)" xlink:href="#CMSS17-97"/>
     <use transform="translate(1668.515026 0)scale(0.996264)" xlink:href="#CMSS17-108"/>
     <use transform="translate(1690.695749 0)scale(0.996264)" xlink:href="#CMSS17-105"/>
     <use transform="translate(1712.876472 0)scale(0.996264)" xlink:href="#CMSS17-122"/>
     <use transform="translate(1753.554344 0)scale(0.996264)" xlink:href="#CMSS17-101"/>
     <use transform="translate(1795.193166 0)scale(0.996264)" xlink:href="#CMSS17-100"/>
     <use transform="translate(1874.627222 0)scale(0.996264)" xlink:href="#CMSS17-80"/>
     <use transform="translate(1931.760354 0)scale(0.996264)" xlink:href="#CMSS17-111"/>
     <use transform="translate(1978.603978 0)scale(0.996264)" xlink:href="#CMSS17-112"/>
     <use transform="translate(2026.808921 0)scale(0.996264)" xlink:href="#CMSS17-117"/>
     <use transform="translate(2075.013864 0)scale(0.996264)" xlink:href="#CMSS17-108"/>
     <use transform="translate(2097.194587 0)scale(0.996264)" xlink:href="#CMSS17-97"/>
     <use transform="translate(2142.116508 0)scale(0.996264)" xlink:href="#CMSS17-116"/>
     <use transform="translate(2175.948074 0)scale(0.996264)" xlink:href="#CMSS17-105"/>
     <use transform="translate(2198.128797 0)scale(0.996264)" xlink:href="#CMSS17-111"/>
     <use transform="translate(2244.972421 0)scale(0.996264)" xlink:href="#CMSS17-110"/>
    </g>
   </g>
  </g>
 </g>
 <defs>
  <clipPath id="p8389d1c5df">
   <rect height="360.476901" width="553.679731" x="66.618458" y="35.067696"/>
  </clipPath>
 </defs>
</svg>
