<?xml version="1.0" encoding="utf-8" standalone="no"?>
<!DOCTYPE svg PUBLIC "-//W3C//DTD SVG 1.1//EN"
  "http://www.w3.org/Graphics/SVG/1.1/DTD/svg11.dtd">
<!-- Created with matplotlib (https://matplotlib.org/) -->
<svg height="465.12pt" version="1.1" viewBox="0 0 732.96 465.12" width="732.96pt" xmlns="http://www.w3.org/2000/svg" xmlns:xlink="http://www.w3.org/1999/xlink">
 <metadata>
  <rdf:RDF xmlns:cc="http://creativecommons.org/ns#" xmlns:dc="http://purl.org/dc/elements/1.1/" xmlns:rdf="http://www.w3.org/1999/02/22-rdf-syntax-ns#">
   <cc:Work>
    <dc:type rdf:resource="http://purl.org/dc/dcmitype/StillImage"/>
    <dc:date>2021-06-06T00:39:48.049437</dc:date>
    <dc:format>image/svg+xml</dc:format>
    <dc:creator>
     <cc:Agent>
      <dc:title>Matplotlib v3.3.2, https://matplotlib.org/</dc:title>
     </cc:Agent>
    </dc:creator>
   </cc:Work>
  </rdf:RDF>
 </metadata>
 <defs>
  <style type="text/css">*{stroke-linecap:butt;stroke-linejoin:round;}</style>
 </defs>
 <g id="figure_1">
  <g id="patch_1">
   <path d="M 0 465.12 
L 732.96 465.12 
L 732.96 0 
L 0 0 
z
" style="fill:#f0f0f0;"/>
  </g>
  <g id="axes_1">
   <g id="patch_2">
    <path d="M 65.594034 407.364872 
L 710.940241 407.364872 
L 710.940241 35.067696 
L 65.594034 35.067696 
z
" style="fill:#ffffff;"/>
   </g>
   <g id="matplotlib.axis_1">
    <g id="xtick_1">
     <g id="line2d_1">
      <path clip-path="url(#pc2d5a1b21e)" d="M 80.726782 407.364872 
L 80.726782 35.067696 
" style="fill:none;stroke:#cccccc;stroke-linecap:round;"/>
     </g>
     <g id="line2d_2">
      <defs>
       <path d="M 0 0 
L 0 6 
" id="m4d1481ee38" style="stroke:#262626;stroke-width:0.8;"/>
      </defs>
      <g>
       <use style="fill:#262626;stroke:#262626;stroke-width:0.8;" x="80.726782" xlink:href="#m4d1481ee38" y="407.364872"/>
      </g>
     </g>
     <g id="text_1">
      <!-- $\mathdefault{0.0}$ -->
      <g style="fill:#262626;" transform="translate(72.001491 426.550748)scale(0.14 -0.14)">
       <defs>
        <path d="M 42 31.84375 
C 42 37.96875 41.90625 48.421875 37.703125 56.453125 
C 34 63.484375 28.09375 66 22.90625 66 
C 18.09375 66 12 63.78125 8.203125 56.5625 
C 4.203125 49.015625 3.796875 39.671875 3.796875 31.84375 
C 3.796875 26.109375 3.90625 17.375 7 9.734375 
C 11.296875 -0.609375 19 -2 22.90625 -2 
C 27.5 -2 34.5 -0.109375 38.59375 9.4375 
C 41.59375 16.375 42 24.5 42 31.84375 
z
M 22.90625 -0.40625 
C 16.5 -0.40625 12.703125 5.125 11.296875 12.75 
C 10.203125 18.6875 10.203125 27.328125 10.203125 32.953125 
C 10.203125 40.6875 10.203125 47.109375 11.5 53.234375 
C 13.40625 61.78125 19 64.390625 22.90625 64.390625 
C 27 64.390625 32.296875 61.671875 34.203125 53.4375 
C 35.5 47.71875 35.59375 40.984375 35.59375 32.953125 
C 35.59375 26.421875 35.59375 18.375 34.40625 12.453125 
C 32.296875 1.5 26.40625 -0.40625 22.90625 -0.40625 
z
" id="CMR17-48"/>
        <path d="M 18.40625 4.796875 
C 18.40625 7.6875 16 9.6875 13.59375 9.6875 
C 10.703125 9.6875 8.703125 7.296875 8.703125 4.890625 
C 8.703125 2 11.09375 0 13.5 0 
C 16.40625 0 18.40625 2.390625 18.40625 4.796875 
z
" id="CMMI12-58"/>
       </defs>
       <use transform="scale(0.996264)" xlink:href="#CMR17-48"/>
       <use transform="translate(45.690477 0)scale(0.996264)" xlink:href="#CMMI12-58"/>
       <use transform="translate(72.787654 0)scale(0.996264)" xlink:href="#CMR17-48"/>
      </g>
     </g>
    </g>
    <g id="xtick_2">
     <g id="line2d_3">
      <path clip-path="url(#pc2d5a1b21e)" d="M 158.848043 407.364872 
L 158.848043 35.067696 
" style="fill:none;stroke:#cccccc;stroke-linecap:round;"/>
     </g>
     <g id="line2d_4">
      <g>
       <use style="fill:#262626;stroke:#262626;stroke-width:0.8;" x="158.848043" xlink:href="#m4d1481ee38" y="407.364872"/>
      </g>
     </g>
     <g id="text_2">
      <!-- $\mathdefault{2.5}$ -->
      <g style="fill:#262626;" transform="translate(150.122752 426.550748)scale(0.14 -0.14)">
       <defs>
        <path d="M 41.703125 15.46875 
L 39.90625 15.46875 
C 38.90625 8.390625 38.09375 7.1875 37.703125 6.59375 
C 37.203125 5.796875 30 5.796875 28.59375 5.796875 
L 9.40625 5.796875 
C 13 9.6875 20 16.765625 28.5 24.9375 
C 34.59375 30.71875 41.703125 37.5 41.703125 47.390625 
C 41.703125 59.1875 32.296875 66 21.796875 66 
C 10.796875 66 4.09375 56.296875 4.09375 47.296875 
C 4.09375 43.390625 7 42.890625 8.203125 42.890625 
C 9.203125 42.890625 12.203125 43.484375 12.203125 46.984375 
C 12.203125 50.09375 9.59375 51 8.203125 51 
C 7.59375 51 7 50.890625 6.59375 50.6875 
C 8.5 59.1875 14.296875 63.390625 20.40625 63.390625 
C 29.09375 63.390625 34.796875 56.5 34.796875 47.390625 
C 34.796875 38.703125 29.703125 31.21875 24 24.734375 
L 4.09375 2.296875 
L 4.09375 0 
L 39.296875 0 
z
" id="CMR17-50"/>
        <path d="M 11.40625 58.59375 
C 12.40625 58.1875 16.5 56.890625 20.703125 56.890625 
C 30 56.890625 35.09375 61.890625 38 64.6875 
C 38 65.484375 38 66 37.40625 66 
C 37.296875 66 37.09375 66 36.296875 65.59375 
C 32.796875 64.09375 28.703125 63 23.703125 63 
C 20.703125 63 16.203125 63.359375 11.296875 65.484375 
C 10.203125 66 10 66 9.90625 66 
C 9.40625 66 9.296875 65.890625 9.296875 63.90625 
L 9.296875 34.859375 
C 9.296875 33.015625 9.296875 32.5 10.296875 32.5 
C 10.796875 32.5 11 32.703125 11.5 33.421875 
C 14.703125 38.046875 19.09375 40 24.09375 40 
C 27.59375 40 35.09375 37.734375 35.09375 20.203125 
C 35.09375 16.984375 35.09375 11.1875 32.09375 6.59375 
C 29.59375 2.484375 25.703125 0.390625 21.40625 0.390625 
C 14.796875 0.390625 8.09375 4.984375 6.296875 12.6875 
C 6.703125 12.59375 7.5 12.390625 7.90625 12.390625 
C 9.203125 12.390625 11.703125 13.09375 11.703125 16.1875 
C 11.703125 18.890625 9.796875 20 7.90625 20 
C 5.59375 20 4.09375 18.59375 4.09375 15.796875 
C 4.09375 7.09375 11 -2 21.59375 -2 
C 31.90625 -2 41.703125 6.890625 41.703125 19.796875 
C 41.703125 32.09375 33.90625 41.59375 24.203125 41.59375 
C 19.09375 41.59375 14.796875 39.6875 11.40625 36 
z
" id="CMR17-53"/>
       </defs>
       <use transform="scale(0.996264)" xlink:href="#CMR17-50"/>
       <use transform="translate(45.690477 0)scale(0.996264)" xlink:href="#CMMI12-58"/>
       <use transform="translate(72.787654 0)scale(0.996264)" xlink:href="#CMR17-53"/>
      </g>
     </g>
    </g>
    <g id="xtick_3">
     <g id="line2d_5">
      <path clip-path="url(#pc2d5a1b21e)" d="M 236.969304 407.364872 
L 236.969304 35.067696 
" style="fill:none;stroke:#cccccc;stroke-linecap:round;"/>
     </g>
     <g id="line2d_6">
      <g>
       <use style="fill:#262626;stroke:#262626;stroke-width:0.8;" x="236.969304" xlink:href="#m4d1481ee38" y="407.364872"/>
      </g>
     </g>
     <g id="text_3">
      <!-- $\mathdefault{5.0}$ -->
      <g style="fill:#262626;" transform="translate(228.244013 426.550748)scale(0.14 -0.14)">
       <use transform="scale(0.996264)" xlink:href="#CMR17-53"/>
       <use transform="translate(45.690477 0)scale(0.996264)" xlink:href="#CMMI12-58"/>
       <use transform="translate(72.787654 0)scale(0.996264)" xlink:href="#CMR17-48"/>
      </g>
     </g>
    </g>
    <g id="xtick_4">
     <g id="line2d_7">
      <path clip-path="url(#pc2d5a1b21e)" d="M 315.090565 407.364872 
L 315.090565 35.067696 
" style="fill:none;stroke:#cccccc;stroke-linecap:round;"/>
     </g>
     <g id="line2d_8">
      <g>
       <use style="fill:#262626;stroke:#262626;stroke-width:0.8;" x="315.090565" xlink:href="#m4d1481ee38" y="407.364872"/>
      </g>
     </g>
     <g id="text_4">
      <!-- $\mathdefault{7.5}$ -->
      <g style="fill:#262626;" transform="translate(306.365274 426.550748)scale(0.14 -0.14)">
       <defs>
        <path d="M 45.09375 61.796875 
L 45.09375 64 
L 21.59375 64 
C 9.90625 64 9.703125 65.09375 9.296875 67 
L 7.5 67 
L 4.59375 48.5 
L 6.40625 48.5 
C 6.703125 50.40625 7.40625 55.5 8.59375 57.390625 
C 9.203125 58.1875 16.59375 58.1875 18.296875 58.1875 
L 40.296875 58.1875 
L 29.203125 41.71875 
C 21.796875 30.640625 16.703125 15.671875 16.703125 2.59375 
C 16.703125 1.390625 16.703125 -2 20.296875 -2 
C 23.90625 -2 23.90625 1.390625 23.90625 2.6875 
L 23.90625 7.28125 
C 23.90625 23.65625 26.703125 34.4375 31.296875 41.3125 
z
" id="CMR17-55"/>
       </defs>
       <use transform="scale(0.996264)" xlink:href="#CMR17-55"/>
       <use transform="translate(45.690477 0)scale(0.996264)" xlink:href="#CMMI12-58"/>
       <use transform="translate(72.787654 0)scale(0.996264)" xlink:href="#CMR17-53"/>
      </g>
     </g>
    </g>
    <g id="xtick_5">
     <g id="line2d_9">
      <path clip-path="url(#pc2d5a1b21e)" d="M 393.211826 407.364872 
L 393.211826 35.067696 
" style="fill:none;stroke:#cccccc;stroke-linecap:round;"/>
     </g>
     <g id="line2d_10">
      <g>
       <use style="fill:#262626;stroke:#262626;stroke-width:0.8;" x="393.211826" xlink:href="#m4d1481ee38" y="407.364872"/>
      </g>
     </g>
     <g id="text_5">
      <!-- $\mathdefault{10.0}$ -->
      <g style="fill:#262626;" transform="translate(381.07229 426.550748)scale(0.14 -0.14)">
       <defs>
        <path d="M 26.59375 63.796875 
C 26.59375 65.890625 26.5 66 25.09375 66 
C 21.203125 61.359375 15.296875 59.890625 9.703125 59.6875 
C 9.40625 59.6875 8.90625 59.6875 8.796875 59.5 
C 8.703125 59.296875 8.703125 59.09375 8.703125 57 
C 11.796875 57 17 57.59375 21 59.984375 
L 21 7.296875 
C 21 3.796875 20.796875 2.59375 12.203125 2.59375 
L 9.203125 2.59375 
L 9.203125 0 
C 14 0.09375 19 0.1875 23.796875 0.1875 
C 28.59375 0.1875 33.59375 0.09375 38.40625 0 
L 38.40625 2.59375 
L 35.40625 2.59375 
C 26.796875 2.59375 26.59375 3.6875 26.59375 7.296875 
z
" id="CMR17-49"/>
       </defs>
       <use transform="scale(0.996264)" xlink:href="#CMR17-49"/>
       <use transform="translate(45.690477 0)scale(0.996264)" xlink:href="#CMR17-48"/>
       <use transform="translate(91.380954 0)scale(0.996264)" xlink:href="#CMMI12-58"/>
       <use transform="translate(118.478131 0)scale(0.996264)" xlink:href="#CMR17-48"/>
      </g>
     </g>
    </g>
    <g id="xtick_6">
     <g id="line2d_11">
      <path clip-path="url(#pc2d5a1b21e)" d="M 471.333087 407.364872 
L 471.333087 35.067696 
" style="fill:none;stroke:#cccccc;stroke-linecap:round;"/>
     </g>
     <g id="line2d_12">
      <g>
       <use style="fill:#262626;stroke:#262626;stroke-width:0.8;" x="471.333087" xlink:href="#m4d1481ee38" y="407.364872"/>
      </g>
     </g>
     <g id="text_6">
      <!-- $\mathdefault{12.5}$ -->
      <g style="fill:#262626;" transform="translate(459.193551 426.550748)scale(0.14 -0.14)">
       <use transform="scale(0.996264)" xlink:href="#CMR17-49"/>
       <use transform="translate(45.690477 0)scale(0.996264)" xlink:href="#CMR17-50"/>
       <use transform="translate(91.380954 0)scale(0.996264)" xlink:href="#CMMI12-58"/>
       <use transform="translate(118.478131 0)scale(0.996264)" xlink:href="#CMR17-53"/>
      </g>
     </g>
    </g>
    <g id="xtick_7">
     <g id="line2d_13">
      <path clip-path="url(#pc2d5a1b21e)" d="M 549.454348 407.364872 
L 549.454348 35.067696 
" style="fill:none;stroke:#cccccc;stroke-linecap:round;"/>
     </g>
     <g id="line2d_14">
      <g>
       <use style="fill:#262626;stroke:#262626;stroke-width:0.8;" x="549.454348" xlink:href="#m4d1481ee38" y="407.364872"/>
      </g>
     </g>
     <g id="text_7">
      <!-- $\mathdefault{15.0}$ -->
      <g style="fill:#262626;" transform="translate(537.314812 426.550748)scale(0.14 -0.14)">
       <use transform="scale(0.996264)" xlink:href="#CMR17-49"/>
       <use transform="translate(45.690477 0)scale(0.996264)" xlink:href="#CMR17-53"/>
       <use transform="translate(91.380954 0)scale(0.996264)" xlink:href="#CMMI12-58"/>
       <use transform="translate(118.478131 0)scale(0.996264)" xlink:href="#CMR17-48"/>
      </g>
     </g>
    </g>
    <g id="xtick_8">
     <g id="line2d_15">
      <path clip-path="url(#pc2d5a1b21e)" d="M 627.575609 407.364872 
L 627.575609 35.067696 
" style="fill:none;stroke:#cccccc;stroke-linecap:round;"/>
     </g>
     <g id="line2d_16">
      <g>
       <use style="fill:#262626;stroke:#262626;stroke-width:0.8;" x="627.575609" xlink:href="#m4d1481ee38" y="407.364872"/>
      </g>
     </g>
     <g id="text_8">
      <!-- $\mathdefault{17.5}$ -->
      <g style="fill:#262626;" transform="translate(615.436073 426.550748)scale(0.14 -0.14)">
       <use transform="scale(0.996264)" xlink:href="#CMR17-49"/>
       <use transform="translate(45.690477 0)scale(0.996264)" xlink:href="#CMR17-55"/>
       <use transform="translate(91.380954 0)scale(0.996264)" xlink:href="#CMMI12-58"/>
       <use transform="translate(118.478131 0)scale(0.996264)" xlink:href="#CMR17-53"/>
      </g>
     </g>
    </g>
    <g id="xtick_9">
     <g id="line2d_17">
      <path clip-path="url(#pc2d5a1b21e)" d="M 705.69687 407.364872 
L 705.69687 35.067696 
" style="fill:none;stroke:#cccccc;stroke-linecap:round;"/>
     </g>
     <g id="line2d_18">
      <g>
       <use style="fill:#262626;stroke:#262626;stroke-width:0.8;" x="705.69687" xlink:href="#m4d1481ee38" y="407.364872"/>
      </g>
     </g>
     <g id="text_9">
      <!-- $\mathdefault{20.0}$ -->
      <g style="fill:#262626;" transform="translate(693.557334 426.550748)scale(0.14 -0.14)">
       <use transform="scale(0.996264)" xlink:href="#CMR17-50"/>
       <use transform="translate(45.690477 0)scale(0.996264)" xlink:href="#CMR17-48"/>
       <use transform="translate(91.380954 0)scale(0.996264)" xlink:href="#CMMI12-58"/>
       <use transform="translate(118.478131 0)scale(0.996264)" xlink:href="#CMR17-48"/>
      </g>
     </g>
    </g>
    <g id="text_10">
     <!-- Viewing Angle, $\theta_v$ (deg.) -->
     <g style="fill:#262626;" transform="translate(304.021831 445.815694)scale(0.168 -0.168)">
      <defs>
       <path d="M 61.09375 69 
L 53.296875 69 
L 36 21.265625 
C 35.5 19.875 32.40625 10.734375 31.796875 7.5625 
L 31.703125 7.5625 
C 30.90625 11.328125 27.703125 20.171875 26 25.046875 
L 14.40625 57.34375 
L 10.09375 69 
L 1.296875 69 
L 26.796875 0 
L 35.59375 0 
z
" id="CMSS17-86"/>
       <path d="M 15.296875 66 
L 6.90625 66 
L 6.90625 57.59375 
L 15.296875 57.59375 
z
M 14.796875 43 
L 7.40625 43 
L 7.40625 0 
L 14.796875 0 
z
" id="CMSS17-105"/>
       <path d="M 39.09375 21.484375 
C 39.09375 24.796875 38.90625 31.265625 35.703125 36.671875 
C 32.203125 42.390625 26.5 44 22.203125 44 
C 11.796875 44 3 34.125 3 21.296875 
C 3 9.046875 12.09375 -1 23.59375 -1 
C 28.09375 -1 33.59375 0.296875 38.59375 3.890625 
C 38.59375 4.296875 38.40625 6.46875 38.296875 6.578125 
C 38.296875 6.765625 38 9.828125 38 10.234375 
C 33.203125 6.375 27.703125 5.09375 23.703125 5.09375 
C 17.296875 5.09375 10.40625 10.421875 10.09375 21.484375 
z
M 10.90625 27 
C 12.203125 32.59375 16.59375 37.890625 22.203125 37.890625 
C 23.703125 37.890625 30.703125 37.6875 32.5 27 
z
" id="CMSS17-101"/>
       <path d="M 62.703125 43 
L 55.09375 43 
L 49.796875 25 
C 48.703125 21.1875 45.59375 10.6875 45.203125 5.796875 
L 45.09375 5.796875 
C 44.90625 8.796875 43.203125 16 40.40625 25.5 
L 35.296875 43 
L 28.40625 43 
L 23.40625 25.890625 
C 20.90625 17.1875 19 9.796875 18.796875 5.796875 
L 18.703125 5.796875 
C 18.296875 11.6875 14.203125 25.5 13.59375 27.6875 
L 9.09375 43 
L 1.296875 43 
L 14.296875 0 
L 21.90625 0 
C 27.09375 17.1875 31.09375 30.5 31.40625 37.1875 
C 31.59375 33.890625 33.296875 26.796875 34.296875 23.296875 
L 40.90625 0 
L 49.703125 0 
z
" id="CMSS17-119"/>
       <path d="M 40.90625 29.34375 
C 40.90625 35.671875 39.40625 44 28.09375 44 
C 21.703125 44 17.5 40.6875 14.703125 37.28125 
L 14.703125 43.484375 
L 7.40625 43.484375 
L 7.40625 0 
L 15 0 
L 15 24.3125 
C 15 30.65625 17.40625 37.890625 24.203125 37.890625 
C 33 37.890625 33.296875 31.953125 33.296875 28.53125 
L 33.296875 0 
L 40.90625 0 
z
" id="CMSS17-110"/>
       <path d="M 44.5 44 
C 38.796875 43.890625 33.90625 42.796875 29.90625 40.890625 
C 26.59375 43.484375 23.203125 44 20.90625 44 
C 12.203125 44 5.59375 36.8125 5.59375 28.5 
C 5.59375 23.140625 8.59375 19.09375 8.796875 18.890625 
C 7 16.390625 6 13.6875 6 10.6875 
C 6 7.1875 7.40625 4.6875 8.5 3.296875 
C 3.296875 0.09375 2.59375 -4.8125 2.59375 -6.703125 
C 2.59375 -14 11.703125 -20 23.40625 -20 
C 35.203125 -20 44.296875 -14 44.296875 -6.609375 
C 44.296875 7.1875 29 7.296875 24.796875 7.296875 
L 16.703125 7.296875 
C 15.203125 7.296875 11.203125 7.296875 11.203125 12.390625 
C 11.203125 14.390625 12.09375 15.6875 12.203125 15.796875 
C 13.703125 14.6875 16.796875 13 20.90625 13 
C 29.203125 13 36.09375 19.984375 36.09375 28.5 
C 36.09375 33.25 33.90625 36.703125 33 37.890625 
L 33.296875 37.890625 
C 33.59375 37.890625 37.796875 38.1875 39.296875 38.1875 
C 42.5 38.1875 42.796875 38.09375 45.59375 37.796875 
z
M 20.90625 18.5 
C 17.5 18.5 12.703125 20.578125 12.703125 28.5 
C 12.703125 37.109375 18.203125 38.484375 20.796875 38.484375 
C 24.203125 38.484375 29 36.40625 29 28.5 
C 29 19.875 23.5 18.5 20.90625 18.5 
z
M 24.703125 0 
C 27.09375 0 37.203125 0 37.203125 -6.8125 
C 37.203125 -11.109375 31 -14.5 23.5 -14.5 
C 15.90625 -14.5 9.703125 -11.203125 9.703125 -6.703125 
C 9.703125 -6.203125 9.703125 0 16.59375 0 
z
" id="CMSS17-103"/>
       <path d="M 35.5 69 
L 26.90625 69 
L 2.59375 0 
L 10.203125 0 
L 17.203125 20 
L 44 20 
L 51.09375 0 
L 59.796875 0 
z
M 42.09375 25.59375 
L 19.09375 25.59375 
C 23.90625 39.53125 29.90625 56.84375 30.59375 61.3125 
L 30.703125 61.3125 
C 31.40625 57.234375 33.40625 51.265625 35.09375 46.1875 
z
" id="CMSS17-65"/>
       <path d="M 14.796875 69 
L 7.40625 69 
L 7.40625 0 
L 14.796875 0 
z
" id="CMSS17-108"/>
       <path d="M 17 0.09375 
L 17 8 
L 9 8 
L 9 0 
L 11.5 0 
L 8.90625 -12.109375 
L 12.90625 -12.109375 
z
" id="CMSS17-44"/>
       <path d="M 44.296875 50 
C 44.296875 60.140625 41.09375 70 32.90625 70 
C 18.90625 70 4 40.859375 4 18.984375 
C 4 14.40625 5 -1 15.5 -1 
C 29.09375 -1 44.296875 27.421875 44.296875 50 
z
M 14 36 
C 15.5 41.859375 17.59375 50.203125 21.59375 57.265625 
C 24.90625 63.21875 28.40625 67.984375 32.796875 67.984375 
C 36.09375 67.984375 38.296875 65.203125 38.296875 55.671875 
C 38.296875 52.09375 38 47.125 35.09375 36 
z
M 34.40625 33 
C 31.90625 23.25 29.796875 17 26.203125 10.734375 
C 23.296875 5.65625 19.796875 1 15.59375 1 
C 12.5 1 10 3.375 10 13.21875 
C 10 19.671875 11.59375 26.4375 13.203125 33 
z
" id="CMMI12-18"/>
       <path d="M 45.703125 37.3125 
C 45.703125 43.59375 42.5 44 41.703125 44 
C 39.296875 44 37.09375 41.59375 37.09375 39.59375 
C 37.09375 38.40625 37.796875 37.703125 38.203125 37.3125 
C 39.203125 36.40625 41.796875 33.71875 41.796875 28.53125 
C 41.796875 24.34375 35.796875 1 23.796875 1 
C 17.703125 1 16.5 6.078125 16.5 9.765625 
C 16.5 14.765625 18.796875 21.75 21.5 28.921875 
C 23.09375 33.015625 23.5 34.015625 23.5 36.015625 
C 23.5 40.203125 20.5 44 15.59375 44 
C 6.40625 44 2.703125 29.53125 2.703125 28.71875 
C 2.703125 28.328125 3.09375 27.828125 3.796875 27.828125 
C 4.703125 27.828125 4.796875 28.234375 5.203125 29.625 
C 7.59375 38.203125 11.5 41.984375 15.296875 41.984375 
C 16.203125 41.984375 17.90625 41.984375 17.90625 38.703125 
C 17.90625 36.109375 16.796875 33.21875 15.296875 29.421875 
C 10.5 16.65625 10.5 13.5625 10.5 11.171875 
C 10.5 8.96875 10.796875 4.890625 13.90625 2.09375 
C 17.5 -1 22.5 -1 23.40625 -1 
C 40 -1 45.703125 31.625 45.703125 37.3125 
z
" id="CMMI12-118"/>
       <path d="M 25.203125 75 
C 19.796875 69.484375 7.40625 56.671875 7.40625 25.046875 
C 7.40625 -6.6875 19.796875 -19.40625 25.203125 -25 
L 31.296875 -25 
C 19 -12.203125 15 5.71875 15 24.9375 
C 15 44.0625 18.796875 62.078125 31.296875 75 
z
" id="CMSS17-40"/>
       <path d="M 40.796875 69 
L 33.40625 69 
L 33.40625 38.984375 
C 30.296875 41.59375 25.203125 44 19.59375 44 
C 10.5 44 3.296875 34.046875 3.296875 21.484375 
C 3.296875 8.9375 10.40625 -1 19.296875 -1 
C 26.203125 -1 30.796875 2.6875 33.203125 4.796875 
L 33.203125 -0.203125 
L 40.796875 -0.203125 
z
M 33.203125 13.296875 
C 33.203125 11.875 33.203125 10.359375 30.09375 7.625 
C 28.09375 5.90625 25.703125 5.09375 23.40625 5.09375 
C 18 5.09375 10.90625 9.140625 10.90625 21.390625 
C 10.90625 34.140625 18.90625 37.890625 24.40625 37.890625 
C 28.09375 37.890625 31.09375 36.0625 33.203125 33.03125 
z
" id="CMSS17-100"/>
       <path d="M 17 8 
L 9 8 
L 9 0 
L 17 0 
z
" id="CMSS17-46"/>
       <path d="M 11.296875 -25 
C 16.703125 -19.5 29.09375 -6.6875 29.09375 24.9375 
C 29.09375 56.671875 16.703125 69.375 11.296875 75 
L 5.203125 75 
C 17.5 62.171875 21.5 44.265625 21.5 25.046875 
C 21.5 5.921875 17.703125 -12.09375 5.203125 -25 
z
" id="CMSS17-41"/>
      </defs>
      <use transform="scale(0.996264)" xlink:href="#CMSS17-86"/>
      <use transform="translate(62.217855 0)scale(0.996264)" xlink:href="#CMSS17-105"/>
      <use transform="translate(84.398578 0)scale(0.996264)" xlink:href="#CMSS17-101"/>
      <use transform="translate(126.0374 0)scale(0.996264)" xlink:href="#CMSS17-119"/>
      <use transform="translate(189.856945 0)scale(0.996264)" xlink:href="#CMSS17-105"/>
      <use transform="translate(212.037668 0)scale(0.996264)" xlink:href="#CMSS17-110"/>
      <use transform="translate(260.242611 0)scale(0.996264)" xlink:href="#CMSS17-103"/>
      <use transform="translate(338.315348 0)scale(0.996264)" xlink:href="#CMSS17-65"/>
      <use transform="translate(400.533203 0)scale(0.996264)" xlink:href="#CMSS17-110"/>
      <use transform="translate(448.738146 0)scale(0.996264)" xlink:href="#CMSS17-103"/>
      <use transform="translate(495.581769 0)scale(0.996264)" xlink:href="#CMSS17-108"/>
      <use transform="translate(517.762492 0)scale(0.996264)" xlink:href="#CMSS17-101"/>
      <use transform="translate(559.401314 0)scale(0.996264)" xlink:href="#CMSS17-44"/>
      <use transform="translate(616.654632 0)scale(0.996264)" xlink:href="#CMMI12-18"/>
      <use transform="translate(662.114422 -14.943915)scale(0.697382)" xlink:href="#CMMI12-118"/>
      <use transform="translate(729.356116 0)scale(0.996264)" xlink:href="#CMSS17-40"/>
      <use transform="translate(765.790031 0)scale(0.996264)" xlink:href="#CMSS17-100"/>
      <use transform="translate(813.994974 0)scale(0.996264)" xlink:href="#CMSS17-101"/>
      <use transform="translate(855.633796 0)scale(0.996264)" xlink:href="#CMSS17-103"/>
      <use transform="translate(902.477419 0)scale(0.996264)" xlink:href="#CMSS17-46"/>
      <use transform="translate(928.501624 0)scale(0.996264)" xlink:href="#CMSS17-41"/>
     </g>
    </g>
   </g>
   <g id="matplotlib.axis_2">
    <g id="ytick_1">
     <g id="line2d_19">
      <path clip-path="url(#pc2d5a1b21e)" d="M 65.594034 390.971932 
L 710.940241 390.971932 
" style="fill:none;stroke:#cccccc;stroke-linecap:round;"/>
     </g>
     <g id="line2d_20">
      <defs>
       <path d="M 0 0 
L -6 0 
" id="m12ff3e79eb" style="stroke:#262626;stroke-width:0.8;"/>
      </defs>
      <g>
       <use style="fill:#262626;stroke:#262626;stroke-width:0.8;" x="65.594034" xlink:href="#m12ff3e79eb" y="390.971932"/>
      </g>
     </g>
     <g id="text_11">
      <!-- $\mathdefault{0.0}$ -->
      <g style="fill:#262626;" transform="translate(38.643451 395.81487)scale(0.14 -0.14)">
       <use transform="scale(0.996264)" xlink:href="#CMR17-48"/>
       <use transform="translate(45.690477 0)scale(0.996264)" xlink:href="#CMMI12-58"/>
       <use transform="translate(72.787654 0)scale(0.996264)" xlink:href="#CMR17-48"/>
      </g>
     </g>
    </g>
    <g id="ytick_2">
     <g id="line2d_21">
      <path clip-path="url(#pc2d5a1b21e)" d="M 65.594034 323.175605 
L 710.940241 323.175605 
" style="fill:none;stroke:#cccccc;stroke-linecap:round;"/>
     </g>
     <g id="line2d_22">
      <g>
       <use style="fill:#262626;stroke:#262626;stroke-width:0.8;" x="65.594034" xlink:href="#m12ff3e79eb" y="323.175605"/>
      </g>
     </g>
     <g id="text_12">
      <!-- $\mathdefault{0.2}$ -->
      <g style="fill:#262626;" transform="translate(38.643451 328.018543)scale(0.14 -0.14)">
       <use transform="scale(0.996264)" xlink:href="#CMR17-48"/>
       <use transform="translate(45.690477 0)scale(0.996264)" xlink:href="#CMMI12-58"/>
       <use transform="translate(72.787654 0)scale(0.996264)" xlink:href="#CMR17-50"/>
      </g>
     </g>
    </g>
    <g id="ytick_3">
     <g id="line2d_23">
      <path clip-path="url(#pc2d5a1b21e)" d="M 65.594034 255.379277 
L 710.940241 255.379277 
" style="fill:none;stroke:#cccccc;stroke-linecap:round;"/>
     </g>
     <g id="line2d_24">
      <g>
       <use style="fill:#262626;stroke:#262626;stroke-width:0.8;" x="65.594034" xlink:href="#m12ff3e79eb" y="255.379277"/>
      </g>
     </g>
     <g id="text_13">
      <!-- $\mathdefault{0.4}$ -->
      <g style="fill:#262626;" transform="translate(38.643451 260.222215)scale(0.14 -0.14)">
       <defs>
        <path d="M 33.59375 64.796875 
C 33.59375 66.890625 33.5 67 31.703125 67 
L 2 19.59375 
L 2 17 
L 27.796875 17 
L 27.796875 7.1875 
C 27.796875 3.59375 27.59375 2.59375 20.59375 2.59375 
L 18.703125 2.59375 
L 18.703125 0 
C 21.90625 0.1875 27.296875 0.1875 30.703125 0.1875 
C 34.09375 0.1875 39.5 0.1875 42.703125 0 
L 42.703125 2.59375 
L 40.796875 2.59375 
C 33.796875 2.59375 33.59375 3.59375 33.59375 7.1875 
L 33.59375 17 
L 43.796875 17 
L 43.796875 19.59375 
L 33.59375 19.59375 
z
M 28.09375 58.171875 
L 28.09375 19.59375 
L 4 19.59375 
z
" id="CMR17-52"/>
       </defs>
       <use transform="scale(0.996264)" xlink:href="#CMR17-48"/>
       <use transform="translate(45.690477 0)scale(0.996264)" xlink:href="#CMMI12-58"/>
       <use transform="translate(72.787654 0)scale(0.996264)" xlink:href="#CMR17-52"/>
      </g>
     </g>
    </g>
    <g id="ytick_4">
     <g id="line2d_25">
      <path clip-path="url(#pc2d5a1b21e)" d="M 65.594034 187.58295 
L 710.940241 187.58295 
" style="fill:none;stroke:#cccccc;stroke-linecap:round;"/>
     </g>
     <g id="line2d_26">
      <g>
       <use style="fill:#262626;stroke:#262626;stroke-width:0.8;" x="65.594034" xlink:href="#m12ff3e79eb" y="187.58295"/>
      </g>
     </g>
     <g id="text_14">
      <!-- $\mathdefault{0.6}$ -->
      <g style="fill:#262626;" transform="translate(38.643451 192.425888)scale(0.14 -0.14)">
       <defs>
        <path d="M 10.59375 34.34375 
C 10.59375 58 21.796875 63.6875 28.296875 63.6875 
C 30.40625 63.6875 35.5 63.265625 37.5 59.09375 
C 35.90625 59.09375 32.90625 59.09375 32.90625 55.59375 
C 32.90625 52.890625 35.09375 52 36.5 52 
C 37.40625 52 40.09375 52.390625 40.09375 55.796875 
C 40.09375 62.296875 35.09375 66 28.203125 66 
C 16.296875 66 3.796875 53.296875 3.796875 31.421875 
C 3.796875 4.015625 15.09375 -2 23.09375 -2 
C 32.796875 -2 42 6.734375 42 20.234375 
C 42 32.828125 33.90625 42 23.703125 42 
C 17.59375 42 13.09375 37.96875 10.59375 30.921875 
z
M 23.09375 0.390625 
C 10.796875 0.390625 10.796875 18.9375 10.796875 22.65625 
C 10.796875 29.90625 14.203125 40.390625 23.5 40.390625 
C 25.203125 40.390625 30.09375 40.390625 33.40625 33.4375 
C 35.203125 29.515625 35.203125 25.375 35.203125 20.34375 
C 35.203125 14.90625 35.203125 10.875 33.09375 6.84375 
C 30.90625 2.703125 27.703125 0.390625 23.09375 0.390625 
z
" id="CMR17-54"/>
       </defs>
       <use transform="scale(0.996264)" xlink:href="#CMR17-48"/>
       <use transform="translate(45.690477 0)scale(0.996264)" xlink:href="#CMMI12-58"/>
       <use transform="translate(72.787654 0)scale(0.996264)" xlink:href="#CMR17-54"/>
      </g>
     </g>
    </g>
    <g id="ytick_5">
     <g id="line2d_27">
      <path clip-path="url(#pc2d5a1b21e)" d="M 65.594034 119.786622 
L 710.940241 119.786622 
" style="fill:none;stroke:#cccccc;stroke-linecap:round;"/>
     </g>
     <g id="line2d_28">
      <g>
       <use style="fill:#262626;stroke:#262626;stroke-width:0.8;" x="65.594034" xlink:href="#m12ff3e79eb" y="119.786622"/>
      </g>
     </g>
     <g id="text_15">
      <!-- $\mathdefault{0.8}$ -->
      <g style="fill:#262626;" transform="translate(38.643451 124.629561)scale(0.14 -0.14)">
       <defs>
        <path d="M 27.203125 35.765625 
C 33.5 38.96875 39.90625 43.796875 39.90625 51.53125 
C 39.90625 60.6875 31.09375 66 23 66 
C 13.90625 66 5.90625 59.375 5.90625 50.234375 
C 5.90625 47.71875 6.5 43.390625 10.40625 39.578125 
C 11.40625 38.578125 15.59375 35.5625 18.296875 33.65625 
C 13.796875 31.34375 3.296875 25.8125 3.296875 14.765625 
C 3.296875 4.40625 13.09375 -2 22.796875 -2 
C 33.5 -2 42.5 5.71875 42.5 15.96875 
C 42.5 25.109375 36.40625 29.328125 32.40625 32.046875 
z
M 14.09375 44.609375 
C 13.296875 45.109375 9.296875 48.21875 9.296875 52.9375 
C 9.296875 59.078125 15.59375 63.6875 22.796875 63.6875 
C 30.703125 63.6875 36.5 58.0625 36.5 51.53125 
C 36.5 42.1875 26.09375 36.859375 25.59375 36.859375 
C 25.5 36.859375 25.40625 36.859375 24.59375 37.46875 
z
M 32.5 24 
C 34 22.90625 38.796875 19.578125 38.796875 13.453125 
C 38.796875 6.015625 31.40625 0.390625 23 0.390625 
C 13.90625 0.390625 7 6.921875 7 14.859375 
C 7 22.796875 13.09375 29.4375 20 32.546875 
z
" id="CMR17-56"/>
       </defs>
       <use transform="scale(0.996264)" xlink:href="#CMR17-48"/>
       <use transform="translate(45.690477 0)scale(0.996264)" xlink:href="#CMMI12-58"/>
       <use transform="translate(72.787654 0)scale(0.996264)" xlink:href="#CMR17-56"/>
      </g>
     </g>
    </g>
    <g id="ytick_6">
     <g id="line2d_29">
      <path clip-path="url(#pc2d5a1b21e)" d="M 65.594034 51.990295 
L 710.940241 51.990295 
" style="fill:none;stroke:#cccccc;stroke-linecap:round;"/>
     </g>
     <g id="line2d_30">
      <g>
       <use style="fill:#262626;stroke:#262626;stroke-width:0.8;" x="65.594034" xlink:href="#m12ff3e79eb" y="51.990295"/>
      </g>
     </g>
     <g id="text_16">
      <!-- $\mathdefault{1.0}$ -->
      <g style="fill:#262626;" transform="translate(38.643451 56.833233)scale(0.14 -0.14)">
       <use transform="scale(0.996264)" xlink:href="#CMR17-49"/>
       <use transform="translate(45.690477 0)scale(0.996264)" xlink:href="#CMMI12-58"/>
       <use transform="translate(72.787654 0)scale(0.996264)" xlink:href="#CMR17-48"/>
      </g>
     </g>
    </g>
    <g id="text_17">
     <!-- $\tilde{\mathcal{F}}(\theta_v)$ -->
     <g style="fill:#262626;" transform="translate(30.459146 241.552894)rotate(-90)scale(0.168 -0.168)">
      <defs>
       <path d="M 37.5 65.59375 
C 34.09375 62.296875 32.203125 60.390625 29.09375 60.390625 
C 26.90625 60.390625 25.40625 61.5 23.296875 63 
C 21.296875 64.390625 19.703125 65.59375 17.5 65.59375 
C 13.90625 65.59375 11.40625 62.6875 7.203125 58.09375 
L 8.296875 57 
C 11.703125 60.296875 13.59375 62.1875 16.703125 62.1875 
C 18.90625 62.1875 20.40625 61.09375 22.5 59.59375 
C 24.5 58.1875 26.09375 57 28.296875 57 
C 31.90625 57 34.40625 59.890625 38.59375 64.5 
z
" id="CMR17-126"/>
       <path d="M 83 64.09375 
C 83 68.6875 75.296875 68 72.203125 68 
L 34.5 68 
C 29.5 68 20.59375 65.09375 19 59.6875 
C 19.203125 59.09375 19.40625 58.984375 20 58.984375 
C 22.203125 58.984375 25.203125 60.796875 26.59375 62.296875 
C 29.703125 62.296875 32.703125 62.484375 35.796875 62.484375 
L 42 62.484375 
C 42 62.484375 41.59375 60.6875 41.59375 60.59375 
C 37.703125 42.296875 31.796875 26.890625 27.40625 17.375 
C 26.796875 16.109375 21.40625 3.796875 20 2.59375 
C 15.59375 2.59375 12.296875 5 10.5 8.890625 
C 10.203125 9.5 10.203125 9.890625 9.5 9.890625 
C 7.203125 9.890625 1.703125 6.6875 1.703125 5 
C 1.703125 4.796875 1.796875 4.59375 1.90625 4.390625 
C 3.703125 -0.3125 8.203125 -3 13.09375 -3 
C 18.203125 -3 24.09375 0.6875 27.296875 4.390625 
C 30.59375 8.1875 37.203125 24.171875 39.796875 30 
L 59.09375 30 
C 59 29.890625 58.90625 29.796875 58.90625 29.6875 
C 58.90625 29.3125 59.5 29.015625 59.90625 29.015625 
C 62.09375 29.015625 67.796875 31.796875 67.796875 34.890625 
C 67.796875 35.59375 67.09375 35.5 65.90625 35.5 
L 41.90625 35.5 
C 44.5 44.484375 47.90625 53.296875 49.703125 62.484375 
L 62.90625 62.484375 
C 65.40625 62.484375 72.40625 62.984375 74.203125 60.796875 
C 74.40625 60.1875 74.09375 59.1875 74.40625 58.6875 
C 74.59375 58.484375 74.90625 58.390625 75.203125 58.390625 
C 77.59375 58.390625 83 61.390625 83 64.09375 
z
" id="CMSY10-70"/>
       <path d="M 30.59375 -24.40625 
C 30.59375 -24.3125 30.59375 -24.109375 30.296875 -23.8125 
C 25.703125 -19.109375 13.40625 -6.296875 13.40625 24.9375 
C 13.40625 56.171875 25.5 68.875 30.40625 73.890625 
C 30.40625 73.984375 30.59375 74.1875 30.59375 74.484375 
C 30.59375 74.796875 30.296875 75 29.90625 75 
C 28.796875 75 20.296875 67.578125 15.40625 56.5625 
C 10.40625 45.453125 9 34.65625 9 25.046875 
C 9 17.828125 9.703125 5.625 15.703125 -7.296875 
C 20.5 -17.703125 28.703125 -25 29.90625 -25 
C 30.40625 -25 30.59375 -24.8125 30.59375 -24.40625 
z
" id="CMR17-40"/>
       <path d="M 26.296875 24.9375 
C 26.296875 32.140625 25.59375 44.359375 19.59375 57.265625 
C 14.796875 67.6875 6.59375 75 5.40625 75 
C 5.09375 75 4.703125 74.890625 4.703125 74.390625 
C 4.703125 74.1875 4.796875 74.09375 4.90625 73.890625 
C 9.703125 68.875 21.90625 56.171875 21.90625 25.046875 
C 21.90625 -6.1875 9.796875 -18.90625 4.90625 -23.90625 
C 4.796875 -24.109375 4.703125 -24.203125 4.703125 -24.40625 
C 4.703125 -24.90625 5.09375 -25 5.40625 -25 
C 6.5 -25 15 -17.609375 19.90625 -6.59375 
C 24.90625 4.515625 26.296875 15.328125 26.296875 24.9375 
z
" id="CMR17-41"/>
      </defs>
      <use transform="translate(28.974597 25.189642)scale(0.996264)" xlink:href="#CMR17-126"/>
      <use transform="scale(0.996264)" xlink:href="#CMSY10-70"/>
      <use transform="translate(81.49978 0)scale(0.996264)" xlink:href="#CMR17-40"/>
      <use transform="translate(116.780548 0)scale(0.996264)" xlink:href="#CMMI12-18"/>
      <use transform="translate(162.240338 -14.943915)scale(0.697382)" xlink:href="#CMMI12-118"/>
      <use transform="translate(198.25292 0)scale(0.996264)" xlink:href="#CMR17-41"/>
     </g>
    </g>
   </g>
   <g id="line2d_31">
    <path clip-path="url(#pc2d5a1b21e)" d="M 94.927952 390.442273 
L 94.927952 389.912614 
L 104.930997 389.912614 
L 104.930997 389.382955 
L 106.757352 389.382955 
L 106.757352 388.853297 
L 114.228001 388.853297 
L 114.228001 388.323638 
L 116.227069 388.323638 
L 116.227069 387.793979 
L 119.886833 387.793979 
L 119.886833 387.26432 
L 120.174631 387.26432 
L 120.174631 386.734661 
L 121.204965 386.734661 
L 121.204965 386.205003 
L 121.745092 386.205003 
L 121.745092 385.675344 
L 123.008222 385.675344 
L 123.008222 385.145685 
L 125.07133 385.145685 
L 125.07133 384.616026 
L 129.841065 384.616026 
L 129.841065 384.086367 
L 139.076448 384.086367 
L 139.076448 383.556709 
L 142.439663 383.556709 
L 142.439663 383.02705 
L 144.234509 383.02705 
L 144.234509 382.497391 
L 150.549481 382.497391 
L 150.549481 381.967732 
L 155.347435 381.967732 
L 155.347435 381.438073 
L 157.94304 381.438073 
L 157.94304 380.908415 
L 159.275889 380.908415 
L 159.275889 380.378756 
L 162.065362 380.378756 
L 162.065362 379.849097 
L 163.025352 379.849097 
L 163.025352 379.319438 
L 165.222453 379.319438 
L 165.222453 378.789779 
L 166.250331 378.789779 
L 166.250331 378.26012 
L 166.446743 378.26012 
L 166.446743 377.730462 
L 166.771199 377.730462 
L 166.771199 377.200803 
L 167.343759 377.200803 
L 167.343759 376.671144 
L 169.785841 376.671144 
L 169.785841 376.141485 
L 172.929491 376.141485 
L 172.929491 375.611826 
L 174.515448 375.611826 
L 174.515448 375.082168 
L 177.524166 375.082168 
L 177.569471 374.02285 
L 179.840025 374.02285 
L 179.840025 373.493191 
L 180.657263 373.493191 
L 180.657263 372.963532 
L 182.250087 372.963532 
L 182.250087 372.433874 
L 182.452029 372.433874 
L 182.452029 371.904215 
L 184.424081 371.904215 
L 184.479705 370.844897 
L 185.193377 370.844897 
L 185.193377 370.315238 
L 187.045106 370.315238 
L 187.045106 369.78558 
L 188.743228 369.78558 
L 188.743228 369.255921 
L 189.335894 369.255921 
L 189.335894 368.726262 
L 190.56001 368.726262 
L 190.56001 368.196603 
L 190.763857 368.196603 
L 190.763857 367.666944 
L 192.410595 367.666944 
L 192.422432 366.607627 
L 195.739103 366.607627 
L 195.739103 366.077968 
L 196.128619 366.077968 
L 196.128619 365.548309 
L 197.419411 365.548309 
L 197.419411 365.01865 
L 197.800243 365.01865 
L 197.800243 364.488991 
L 199.132838 364.488991 
L 199.132838 363.959333 
L 199.662034 363.959333 
L 199.662034 363.429674 
L 200.024783 363.429674 
L 200.024783 362.900015 
L 200.781718 362.900015 
L 200.781718 362.370356 
L 201.57395 362.370356 
L 201.57395 361.840697 
L 203.343338 361.840697 
L 203.343338 361.311039 
L 204.83556 361.311039 
L 204.83556 360.78138 
L 206.011541 360.78138 
L 206.011541 360.251721 
L 207.124515 360.251721 
L 207.124515 359.722062 
L 208.312054 359.722062 
L 208.312054 359.192403 
L 208.949934 359.192403 
L 208.949934 358.662745 
L 212.994926 358.662745 
L 212.994926 358.133086 
L 214.793296 358.133086 
L 214.793296 357.603427 
L 215.649734 357.603427 
L 215.649734 357.073768 
L 216.430309 357.073768 
L 216.430309 356.544109 
L 216.596072 356.544109 
L 216.596072 356.014451 
L 217.764451 356.014451 
L 217.764451 355.484792 
L 218.469596 355.484792 
L 218.469596 354.955133 
L 223.097081 354.955133 
L 223.136839 353.895815 
L 223.249083 353.895815 
L 223.249083 353.366157 
L 223.671834 353.366157 
L 223.671834 352.836498 
L 225.273102 352.836498 
L 225.273102 352.306839 
L 225.672667 352.306839 
L 225.672667 351.77718 
L 225.975256 351.77718 
L 225.975256 351.247521 
L 228.06277 351.247521 
L 228.06277 350.717862 
L 228.414292 350.717862 
L 228.414292 350.188204 
L 229.016522 350.188204 
L 229.016522 349.658545 
L 230.30383 349.658545 
L 230.30383 349.128886 
L 232.584801 349.128886 
L 232.624213 348.069568 
L 233.338002 348.069568 
L 233.338002 347.53991 
L 233.607158 347.53991 
L 233.607158 347.010251 
L 234.36388 347.010251 
L 234.36388 346.480592 
L 234.924534 346.480592 
L 234.924534 345.950933 
L 235.081213 345.950933 
L 235.081213 345.421274 
L 236.351651 345.421274 
L 236.351651 344.891616 
L 236.922903 344.891616 
L 236.922903 344.361957 
L 238.299678 344.361957 
L 238.32652 343.302639 
L 238.802556 343.302639 
L 238.802556 342.77298 
L 239.007766 342.77298 
L 239.007766 342.243322 
L 239.344931 342.243322 
L 239.344931 341.713663 
L 240.857821 341.713663 
L 240.857821 341.184004 
L 242.371596 341.184004 
L 242.371596 340.654345 
L 244.971367 340.654345 
L 244.971367 340.124686 
L 245.625762 340.124686 
L 245.625762 339.595028 
L 246.678798 339.595028 
L 246.678798 339.065369 
L 247.972574 339.065369 
L 247.972574 338.53571 
L 249.615801 338.53571 
L 249.615801 338.006051 
L 249.963745 338.006051 
L 249.963745 337.476392 
L 251.33958 337.476392 
L 251.33958 336.946734 
L 251.553961 336.946734 
L 251.553961 336.417075 
L 252.030396 336.417075 
L 252.030396 335.887416 
L 253.914461 335.887416 
L 253.914461 335.357757 
L 254.923598 335.357757 
L 254.990584 334.298439 
L 256.353971 334.298439 
L 256.353971 333.768781 
L 257.667487 333.768781 
L 257.667487 333.239122 
L 257.871194 333.239122 
L 257.871194 332.709463 
L 258.038777 332.709463 
L 258.038777 332.179804 
L 259.359863 332.179804 
L 259.359863 331.650145 
L 260.480134 331.650145 
L 260.480134 331.120487 
L 261.217271 331.120487 
L 261.217271 330.590828 
L 261.74354 330.590828 
L 261.74354 330.061169 
L 262.559761 330.061169 
L 262.559761 329.53151 
L 263.967655 329.53151 
L 263.967655 329.001851 
L 264.587105 329.001851 
L 264.587105 328.472193 
L 266.018981 328.472193 
L 266.059405 327.412875 
L 268.189966 327.412875 
L 268.189966 326.883216 
L 268.495668 326.883216 
L 268.495668 326.353557 
L 269.060859 326.353557 
L 269.060859 325.823899 
L 272.015152 325.823899 
L 272.015152 325.29424 
L 272.147439 325.29424 
L 272.20737 324.234922 
L 273.180536 324.234922 
L 273.180536 323.705263 
L 273.753557 323.705263 
L 273.802742 322.645946 
L 274.130507 322.645946 
L 274.130507 322.116287 
L 275.975737 322.116287 
L 275.975737 321.586628 
L 277.887548 321.586628 
L 277.887548 321.056969 
L 278.281575 321.056969 
L 278.281575 320.52731 
L 278.616836 320.52731 
L 278.685364 319.467993 
L 278.783972 319.467993 
L 278.783972 318.938334 
L 279.359226 318.938334 
L 279.359226 318.408675 
L 280.6753 318.408675 
L 280.6753 317.879016 
L 281.339475 317.879016 
L 281.339475 317.349358 
L 281.866287 317.349358 
L 281.866287 316.819699 
L 283.963506 316.819699 
L 283.963506 316.29004 
L 284.190458 316.29004 
L 284.190458 315.760381 
L 284.848465 315.760381 
L 284.848465 315.230722 
L 287.330925 315.230722 
L 287.330925 314.701064 
L 287.528431 314.701064 
L 287.595045 313.641746 
L 288.013781 313.641746 
L 288.115673 312.582428 
L 289.683241 312.582428 
L 289.683241 312.05277 
L 290.895544 312.05277 
L 290.95778 310.993452 
L 291.262104 310.993452 
L 291.262104 310.463793 
L 291.491514 310.463793 
L 291.491514 309.934134 
L 291.989442 309.934134 
L 291.989442 309.404476 
L 292.612255 309.404476 
L 292.612255 308.874817 
L 293.215181 308.874817 
L 293.215181 308.345158 
L 293.572391 308.345158 
L 293.572391 307.815499 
L 293.961114 307.815499 
L 293.961114 307.28584 
L 294.245097 307.28584 
L 294.245097 306.756181 
L 294.9751 306.756181 
L 294.9751 306.226523 
L 295.279357 306.226523 
L 295.279357 305.696864 
L 295.775893 305.696864 
L 295.775893 305.167205 
L 296.874628 305.167205 
L 296.874628 304.637546 
L 297.031432 304.637546 
L 297.031432 304.107887 
L 297.326854 304.107887 
L 297.326854 303.578229 
L 297.960225 303.578229 
L 297.960225 303.04857 
L 298.698762 303.04857 
L 298.698762 302.518911 
L 299.750439 302.518911 
L 299.750439 301.989252 
L 301.481748 301.989252 
L 301.481748 301.459593 
L 301.744574 301.459593 
L 301.744574 300.929935 
L 301.882666 300.929935 
L 301.882666 300.400276 
L 302.332471 300.400276 
L 302.362807 299.340958 
L 303.050537 299.340958 
L 303.050537 298.811299 
L 303.979114 298.811299 
L 303.979114 298.281641 
L 304.229575 298.281641 
L 304.29075 297.222323 
L 304.423245 297.222323 
L 304.423245 296.692664 
L 304.733128 296.692664 
L 304.733128 296.163005 
L 304.945272 296.163005 
L 304.945272 295.633347 
L 305.286427 295.633347 
L 305.286427 295.103688 
L 306.006801 295.103688 
L 306.006801 294.574029 
L 306.157856 294.574029 
L 306.157856 294.04437 
L 306.356547 294.04437 
L 306.356547 293.514711 
L 306.871934 293.514711 
L 306.917125 292.455394 
L 307.679345 292.455394 
L 307.679345 291.925735 
L 307.841045 291.925735 
L 307.841045 291.396076 
L 308.321834 291.396076 
L 308.359211 290.336758 
L 309.117314 290.336758 
L 309.117314 289.8071 
L 309.351096 289.8071 
L 309.351096 289.277441 
L 309.800207 289.277441 
L 309.800207 288.747782 
L 310.723435 288.747782 
L 310.815745 287.688464 
L 310.969082 287.688464 
L 310.969082 287.158806 
L 312.128788 287.158806 
L 312.128788 286.629147 
L 312.756383 286.629147 
L 312.756383 286.099488 
L 312.958874 286.099488 
L 312.958874 285.569829 
L 313.891613 285.569829 
L 313.891613 285.04017 
L 315.041025 285.04017 
L 315.041025 284.510512 
L 315.178521 284.510512 
L 315.178521 283.980853 
L 316.805297 283.980853 
L 316.805297 283.451194 
L 317.119601 283.451194 
L 317.119601 282.921535 
L 319.170631 282.921535 
L 319.241117 281.862218 
L 319.748796 281.862218 
L 319.748796 281.332559 
L 320.198936 281.332559 
L 320.198936 280.8029 
L 321.198233 280.8029 
L 321.198233 280.273241 
L 321.967689 280.273241 
L 321.967689 279.743582 
L 322.742018 279.743582 
L 322.742018 279.213923 
L 323.761849 279.213923 
L 323.761849 278.684265 
L 324.314936 278.684265 
L 324.377889 277.624947 
L 325.315656 277.624947 
L 325.315656 277.095288 
L 325.649998 277.095288 
L 325.649998 276.565629 
L 325.939645 276.565629 
L 325.939645 276.035971 
L 326.916271 276.035971 
L 326.916271 275.506312 
L 328.784288 275.506312 
L 328.875816 274.446994 
L 330.40104 274.446994 
L 330.407902 273.387677 
L 330.655489 273.387677 
L 330.655489 272.858018 
L 331.591127 272.858018 
L 331.591127 272.328359 
L 333.649401 272.328359 
L 333.649401 271.7987 
L 334.658767 271.7987 
L 334.756031 270.739383 
L 335.652895 270.739383 
L 335.652895 270.209724 
L 336.681411 270.209724 
L 336.681411 269.680065 
L 337.597325 269.680065 
L 337.597325 269.150406 
L 337.773111 269.150406 
L 337.773111 268.620747 
L 338.670754 268.620747 
L 338.670754 268.091089 
L 338.800398 268.091089 
L 338.808386 267.031771 
L 339.338209 267.031771 
L 339.338209 266.502112 
L 339.565141 266.502112 
L 339.565141 265.972453 
L 339.688922 265.972453 
L 339.783812 264.913136 
L 340.11661 264.913136 
L 340.11661 264.383477 
L 340.677052 264.383477 
L 340.762255 263.324159 
L 340.85256 263.324159 
L 340.85256 262.7945 
L 341.907973 262.7945 
L 341.907973 262.264842 
L 342.293316 262.264842 
L 342.293316 261.735183 
L 343.043972 261.735183 
L 343.043972 261.205524 
L 343.211024 261.205524 
L 343.211024 260.675865 
L 343.683713 260.675865 
L 343.683713 260.146206 
L 343.91423 260.146206 
L 343.91423 259.616548 
L 345.151718 259.616548 
L 345.184634 258.55723 
L 345.439257 258.55723 
L 345.439257 258.027571 
L 346.265839 258.027571 
L 346.265839 257.497912 
L 346.909541 257.497912 
L 346.909541 256.968254 
L 347.492148 256.968254 
L 347.492148 256.438595 
L 348.001115 256.438595 
L 348.001115 255.908936 
L 348.512019 255.908936 
L 348.512019 255.379277 
L 348.887194 255.379277 
L 348.887194 254.849618 
L 350.194586 254.849618 
L 350.194586 254.31996 
L 350.907139 254.31996 
L 350.907139 253.790301 
L 351.067601 253.790301 
L 351.067601 253.260642 
L 351.402922 253.260642 
L 351.402922 252.730983 
L 351.604752 252.730983 
L 351.604752 252.201324 
L 351.798537 252.201324 
L 351.894176 251.142007 
L 352.377678 251.142007 
L 352.377678 250.612348 
L 352.569376 250.612348 
L 352.569376 250.082689 
L 352.801963 250.082689 
L 352.808869 249.023371 
L 352.959418 249.023371 
L 352.959418 248.493713 
L 353.265828 248.493713 
L 353.265828 247.964054 
L 353.584779 247.964054 
L 353.584779 247.434395 
L 354.259678 247.434395 
L 354.259678 246.904736 
L 354.420828 246.904736 
L 354.420828 246.375077 
L 355.245271 246.375077 
L 355.245271 245.845419 
L 355.94599 245.845419 
L 355.94599 245.31576 
L 356.831644 245.31576 
L 356.831644 244.786101 
L 357.421371 244.786101 
L 357.431593 243.726783 
L 357.696243 243.726783 
L 357.696243 243.197125 
L 358.031614 243.197125 
L 358.031614 242.667466 
L 358.690498 242.667466 
L 358.690498 242.137807 
L 358.995284 242.137807 
L 359.053017 240.548831 
L 360.382525 240.548831 
L 360.382525 240.019172 
L 361.225879 240.019172 
L 361.299507 238.959854 
L 361.351281 238.959854 
L 361.351281 238.430195 
L 361.622491 238.430195 
L 361.622491 237.900536 
L 362.673164 237.900536 
L 362.673164 237.370878 
L 365.049955 237.370878 
L 365.118491 236.31156 
L 365.73055 236.31156 
L 365.73055 235.781901 
L 366.008655 235.781901 
L 366.037891 234.722584 
L 366.408039 234.722584 
L 366.408039 234.192925 
L 366.880763 234.192925 
L 366.880763 233.663266 
L 367.188786 233.663266 
L 367.188786 233.133607 
L 367.357734 233.133607 
L 367.357734 232.603948 
L 368.795153 232.603948 
L 368.795153 232.07429 
L 369.167951 232.07429 
L 369.167951 231.544631 
L 369.722075 231.544631 
L 369.722075 231.014972 
L 370.230258 231.014972 
L 370.230258 230.485313 
L 370.428034 230.485313 
L 370.428034 229.955654 
L 370.668004 229.955654 
L 370.668004 229.425996 
L 370.907006 229.425996 
L 370.95889 228.366678 
L 371.049151 228.366678 
L 371.049151 227.837019 
L 372.089647 227.837019 
L 372.089647 227.30736 
L 373.558476 227.30736 
L 373.558476 226.777702 
L 373.863002 226.777702 
L 373.960011 225.718384 
L 374.125286 225.718384 
L 374.125286 225.188725 
L 374.301816 225.188725 
L 374.301816 224.659066 
L 374.655997 224.659066 
L 374.655997 224.129407 
L 375.426535 224.129407 
L 375.426535 223.599749 
L 376.298188 223.599749 
L 376.298188 223.07009 
L 377.030009 223.07009 
L 377.030009 222.540431 
L 377.18715 222.540431 
L 377.18715 222.010772 
L 377.983593 222.010772 
L 377.983593 221.481113 
L 378.124448 221.481113 
L 378.124448 220.951455 
L 378.375037 220.951455 
L 378.453534 219.892137 
L 378.559058 219.892137 
L 378.559058 219.362478 
L 379.229018 219.362478 
L 379.229018 218.832819 
L 379.626757 218.832819 
L 379.626757 218.303161 
L 380.340101 218.303161 
L 380.397504 217.243843 
L 381.456968 217.243843 
L 381.456968 216.714184 
L 383.063158 216.714184 
L 383.063158 216.184525 
L 383.688556 216.184525 
L 383.688556 215.654867 
L 384.049576 215.654867 
L 384.049576 215.125208 
L 385.307656 215.125208 
L 385.307656 214.595549 
L 385.906728 214.595549 
L 385.906728 214.06589 
L 386.32885 214.06589 
L 386.407876 213.006573 
L 386.935303 213.006573 
L 386.935303 212.476914 
L 387.058765 212.476914 
L 387.058765 211.947255 
L 387.712231 211.947255 
L 387.712231 211.417596 
L 388.602694 211.417596 
L 388.602694 210.887937 
L 388.752873 210.887937 
L 388.755758 209.82862 
L 389.29205 209.82862 
L 389.29205 209.298961 
L 389.56803 209.298961 
L 389.56803 208.769302 
L 389.759478 208.769302 
L 389.759478 208.239643 
L 390.606291 208.239643 
L 390.606291 207.709984 
L 391.167906 207.709984 
L 391.167906 207.180326 
L 391.320187 207.180326 
L 391.320187 206.650667 
L 391.957474 206.650667 
L 391.957474 206.121008 
L 392.556571 206.121008 
L 392.556571 205.591349 
L 393.499211 205.591349 
L 393.499211 205.06169 
L 394.908283 205.06169 
L 394.908283 204.532032 
L 395.437766 204.532032 
L 395.437766 204.002373 
L 395.609397 204.002373 
L 395.609397 203.472714 
L 395.911325 203.472714 
L 395.911325 202.943055 
L 396.068823 202.943055 
L 396.068823 202.413396 
L 396.53222 202.413396 
L 396.53222 201.883738 
L 396.752505 201.883738 
L 396.752505 201.354079 
L 397.575797 201.354079 
L 397.575797 200.82442 
L 397.719581 200.82442 
L 397.77372 199.765102 
L 397.878361 199.765102 
L 397.878361 199.235444 
L 398.9888 199.235444 
L 398.9888 198.705785 
L 400.602057 198.705785 
L 400.602057 198.176126 
L 400.975745 198.176126 
L 400.975745 197.646467 
L 401.619495 197.646467 
L 401.619495 197.116808 
L 402.245692 197.116808 
L 402.252444 196.057491 
L 402.450128 196.057491 
L 402.450128 195.527832 
L 403.192379 195.527832 
L 403.192379 194.998173 
L 403.546707 194.998173 
L 403.546707 194.468514 
L 406.224261 194.468514 
L 406.224261 193.938855 
L 407.532221 193.938855 
L 407.532221 193.409197 
L 408.775493 193.409197 
L 408.775493 192.879538 
L 409.136262 192.879538 
L 409.136262 192.349879 
L 409.921598 192.349879 
L 409.921598 191.82022 
L 410.686072 191.82022 
L 410.686072 191.290561 
L 412.014396 191.290561 
L 412.014396 190.760903 
L 412.332529 190.760903 
L 412.332529 190.231244 
L 413.863273 190.231244 
L 413.866967 189.171926 
L 414.123099 189.171926 
L 414.123099 188.642267 
L 414.686092 188.642267 
L 414.686092 188.112609 
L 414.805809 188.112609 
L 414.805809 187.58295 
L 415.436728 187.58295 
L 415.462747 186.523632 
L 415.697722 186.523632 
L 415.697722 185.993973 
L 416.567855 185.993973 
L 416.567855 185.464315 
L 417.255155 185.464315 
L 417.255155 184.934656 
L 417.851835 184.934656 
L 417.851835 184.404997 
L 418.227578 184.404997 
L 418.227578 183.875338 
L 418.4861 183.875338 
L 418.591075 182.816021 
L 418.788332 182.816021 
L 418.894531 181.756703 
L 418.922643 181.756703 
L 418.922643 181.227044 
L 419.286003 181.227044 
L 419.286003 180.697385 
L 419.459656 180.697385 
L 419.476166 179.638068 
L 419.593758 179.638068 
L 419.637776 178.57875 
L 420.074778 178.57875 
L 420.074778 178.049091 
L 421.183454 178.049091 
L 421.237221 176.989774 
L 421.327737 176.989774 
L 421.327737 176.460115 
L 422.12477 176.460115 
L 422.12477 175.930456 
L 422.75511 175.930456 
L 422.75511 175.400797 
L 423.254345 175.400797 
L 423.349268 173.811821 
L 423.850107 173.811821 
L 423.850107 173.282162 
L 424.443029 173.282162 
L 424.443029 172.752503 
L 425.260895 172.752503 
L 425.260895 172.222844 
L 426.157548 172.222844 
L 426.167854 171.163527 
L 426.366277 171.163527 
L 426.366277 170.633868 
L 427.180266 170.633868 
L 427.180266 170.104209 
L 427.741911 170.104209 
L 427.741911 169.57455 
L 428.068011 169.57455 
L 428.068011 169.044892 
L 428.325591 169.044892 
L 428.325591 168.515233 
L 429.096711 168.515233 
L 429.122769 167.455915 
L 429.411421 167.455915 
L 429.411421 166.926256 
L 429.84553 166.926256 
L 429.84553 166.396597 
L 430.34744 166.396597 
L 430.34744 165.866939 
L 430.54956 165.866939 
L 430.54956 165.33728 
L 430.732421 165.33728 
L 430.732421 164.807621 
L 431.850039 164.807621 
L 431.948612 163.748303 
L 432.378412 163.748303 
L 432.378412 163.218645 
L 432.944098 163.218645 
L 432.989365 162.159327 
L 433.112735 162.159327 
L 433.219156 161.100009 
L 435.348009 161.100009 
L 435.348009 160.570351 
L 436.041098 160.570351 
L 436.041098 160.040692 
L 436.461411 160.040692 
L 436.461411 159.511033 
L 436.621703 159.511033 
L 436.717881 158.451715 
L 436.793041 158.451715 
L 436.793041 157.922057 
L 437.266932 157.922057 
L 437.266932 157.392398 
L 437.663659 157.392398 
L 437.685515 156.33308 
L 437.844615 156.33308 
L 437.844615 155.803421 
L 437.970409 155.803421 
L 437.970409 155.273763 
L 438.151061 155.273763 
L 438.151061 154.744104 
L 438.864678 154.744104 
L 438.864678 154.214445 
L 442.213419 154.214445 
L 442.213419 153.684786 
L 442.728345 153.684786 
L 442.728345 153.155127 
L 443.03877 153.155127 
L 443.03877 152.625468 
L 444.273323 152.625468 
L 444.273323 152.09581 
L 444.529207 152.09581 
L 444.529207 151.566151 
L 444.779859 151.566151 
L 444.779859 151.036492 
L 446.756655 151.036492 
L 446.784963 149.977174 
L 447.332635 149.977174 
L 447.393263 148.388198 
L 448.058292 148.388198 
L 448.145925 147.32888 
L 448.877409 147.32888 
L 448.877409 146.799222 
L 449.046135 146.799222 
L 449.065291 145.739904 
L 449.300105 145.739904 
L 449.300105 145.210245 
L 449.56385 145.210245 
L 449.65396 144.150928 
L 449.89229 144.150928 
L 449.944806 143.09161 
L 450.230421 143.09161 
L 450.324594 142.032292 
L 450.697632 142.032292 
L 450.734102 140.443316 
L 451.421304 140.443316 
L 451.457618 139.383998 
L 451.580766 139.383998 
L 451.580766 138.854339 
L 451.758296 138.854339 
L 451.843747 137.795022 
L 451.97169 137.795022 
L 451.97169 137.265363 
L 453.865661 137.265363 
L 453.865661 136.735704 
L 454.172861 136.735704 
L 454.172861 136.206045 
L 454.889704 136.206045 
L 454.896695 135.146728 
L 456.148208 135.146728 
L 456.148208 134.617069 
L 456.278516 134.617069 
L 456.278516 134.08741 
L 456.650026 134.08741 
L 456.707077 133.028093 
L 457.595013 133.028093 
L 457.595013 132.498434 
L 458.117793 132.498434 
L 458.117793 131.968775 
L 458.577595 131.968775 
L 458.577595 131.439116 
L 458.874348 131.439116 
L 458.874348 130.909457 
L 459.521539 130.909457 
L 459.521539 130.379799 
L 459.697181 130.379799 
L 459.697181 129.85014 
L 460.830385 129.85014 
L 460.830385 129.320481 
L 462.125296 129.320481 
L 462.125296 128.790822 
L 462.305681 128.790822 
L 462.305681 128.261163 
L 462.500928 128.261163 
L 462.500928 127.731505 
L 463.272998 127.731505 
L 463.272998 127.201846 
L 463.934293 127.201846 
L 463.934293 126.672187 
L 465.296967 126.672187 
L 465.406086 125.612869 
L 465.477687 125.612869 
L 465.477687 125.08321 
L 466.14042 125.08321 
L 466.14042 124.553552 
L 466.315743 124.553552 
L 466.315743 124.023893 
L 466.6918 124.023893 
L 466.693231 122.964575 
L 466.912715 122.964575 
L 466.912715 122.434916 
L 467.322974 122.434916 
L 467.322974 121.905258 
L 467.468186 121.905258 
L 467.480602 120.84594 
L 468.0006 120.84594 
L 468.0006 120.316281 
L 469.004898 120.316281 
L 469.004898 119.786622 
L 469.158638 119.786622 
L 469.158638 119.256964 
L 469.603186 119.256964 
L 469.603186 118.727305 
L 470.445968 118.727305 
L 470.445968 118.197646 
L 470.693917 118.197646 
L 470.693917 117.667987 
L 471.380133 117.667987 
L 471.380133 117.138328 
L 471.564527 117.138328 
L 471.564527 116.60867 
L 472.303587 116.60867 
L 472.303587 116.079011 
L 473.170955 116.079011 
L 473.170955 115.549352 
L 473.350997 115.549352 
L 473.350997 115.019693 
L 473.630252 115.019693 
L 473.630252 114.490034 
L 474.443587 114.490034 
L 474.493387 113.430717 
L 476.128129 113.430717 
L 476.128129 112.901058 
L 476.812786 112.901058 
L 476.812786 112.371399 
L 477.322543 112.371399 
L 477.322543 111.84174 
L 478.49405 111.84174 
L 478.504405 110.782423 
L 478.734177 110.782423 
L 478.746402 109.723105 
L 480.389938 109.723105 
L 480.389938 109.193446 
L 481.055328 109.193446 
L 481.055328 108.663787 
L 483.374082 108.663787 
L 483.386571 107.60447 
L 484.236324 107.60447 
L 484.236324 107.074811 
L 484.627764 107.074811 
L 484.627764 106.545152 
L 485.658005 106.545152 
L 485.723629 105.485835 
L 485.840692 105.485835 
L 485.840692 104.956176 
L 485.971138 104.956176 
L 486.00186 103.896858 
L 486.282866 103.896858 
L 486.282866 103.367199 
L 486.516329 103.367199 
L 486.517304 102.307882 
L 487.270944 102.307882 
L 487.270944 101.778223 
L 489.290295 101.778223 
L 489.290295 101.248564 
L 490.771659 101.248564 
L 490.771659 100.718905 
L 493.508534 100.718905 
L 493.508534 100.189247 
L 495.519272 100.189247 
L 495.519272 99.659588 
L 495.802871 99.659588 
L 495.802871 99.129929 
L 496.815084 99.129929 
L 496.815084 98.60027 
L 497.086524 98.60027 
L 497.086524 98.070611 
L 497.411998 98.070611 
L 497.411998 97.540952 
L 499.119171 97.540952 
L 499.119171 97.011294 
L 500.396215 97.011294 
L 500.396215 96.481635 
L 500.985046 96.481635 
L 500.985046 95.951976 
L 501.555947 95.951976 
L 501.555947 95.422317 
L 501.813279 95.422317 
L 501.813279 94.892658 
L 503.295579 94.892658 
L 503.295579 94.363 
L 504.347898 94.363 
L 504.347898 93.833341 
L 505.244776 93.833341 
L 505.244776 93.303682 
L 506.758628 93.303682 
L 506.758628 92.774023 
L 507.800261 92.774023 
L 507.800261 92.244364 
L 508.680783 92.244364 
L 508.680783 91.714706 
L 509.559781 91.714706 
L 509.559781 91.185047 
L 510.153655 91.185047 
L 510.153655 90.655388 
L 510.575097 90.655388 
L 510.6053 89.59607 
L 510.920118 89.59607 
L 510.920118 89.066412 
L 512.019273 89.066412 
L 512.019273 88.536753 
L 512.604855 88.536753 
L 512.604855 88.007094 
L 513.547029 88.007094 
L 513.547029 87.477435 
L 513.877237 87.477435 
L 513.877237 86.947776 
L 514.356664 86.947776 
L 514.356664 86.418118 
L 514.807271 86.418118 
L 514.807271 85.888459 
L 516.579577 85.888459 
L 516.579577 85.3588 
L 517.212783 85.3588 
L 517.212783 84.829141 
L 517.875157 84.829141 
L 517.919402 83.769823 
L 518.070449 83.769823 
L 518.070449 83.240165 
L 520.711336 83.240165 
L 520.711336 82.710506 
L 523.677715 82.710506 
L 523.677715 82.180847 
L 524.39708 82.180847 
L 524.39708 81.651188 
L 525.224708 81.651188 
L 525.224708 81.121529 
L 525.592299 81.121529 
L 525.592299 80.591871 
L 526.260137 80.591871 
L 526.260137 80.062212 
L 527.061069 80.062212 
L 527.061069 79.532553 
L 527.4254 79.532553 
L 527.4254 79.002894 
L 528.155667 79.002894 
L 528.232187 77.943577 
L 528.347438 77.943577 
L 528.347438 77.413918 
L 528.836233 77.413918 
L 528.836233 76.884259 
L 529.928986 76.884259 
L 529.928986 76.3546 
L 530.392395 76.3546 
L 530.392395 75.824941 
L 532.137215 75.824941 
L 532.137215 75.295283 
L 533.70407 75.295283 
L 533.70407 74.765624 
L 534.249981 74.765624 
L 534.249981 74.235965 
L 535.2446 74.235965 
L 535.2446 73.706306 
L 535.930235 73.706306 
L 535.930235 73.176647 
L 536.356643 73.176647 
L 536.356643 72.646989 
L 539.378108 72.646989 
L 539.378108 72.11733 
L 539.722397 72.11733 
L 539.722397 71.587671 
L 540.104231 71.587671 
L 540.104231 71.058012 
L 542.594138 71.058012 
L 542.594138 70.528353 
L 543.864875 70.528353 
L 543.864875 69.998694 
L 544.31489 69.998694 
L 544.31489 69.469036 
L 545.108622 69.469036 
L 545.108622 68.939377 
L 545.27888 68.939377 
L 545.27888 68.409718 
L 548.286662 68.409718 
L 548.286662 67.880059 
L 552.431237 67.880059 
L 552.431237 67.3504 
L 554.521821 67.3504 
L 554.521821 66.820742 
L 556.234382 66.820742 
L 556.281185 65.761424 
L 556.713042 65.761424 
L 556.713042 65.231765 
L 557.76417 65.231765 
L 557.76417 64.702106 
L 558.729587 64.702106 
L 558.729587 64.172448 
L 559.521292 64.172448 
L 559.521292 63.642789 
L 560.935423 63.642789 
L 560.935423 63.11313 
L 561.35459 63.11313 
L 561.35459 62.583471 
L 562.673569 62.583471 
L 562.673569 62.053812 
L 568.778836 62.053812 
L 568.778836 61.524154 
L 573.871238 61.524154 
L 573.871238 60.994495 
L 579.41349 60.994495 
L 579.41349 60.464836 
L 581.629855 60.464836 
L 581.629855 59.935177 
L 585.845 59.935177 
L 585.845 59.405518 
L 587.700021 59.405518 
L 587.700021 58.87586 
L 587.981933 58.87586 
L 587.981933 58.346201 
L 589.997363 58.346201 
L 589.997363 57.816542 
L 591.518112 57.816542 
L 591.518112 57.286883 
L 592.685214 57.286883 
L 592.685214 56.757224 
L 592.882451 56.757224 
L 592.882451 56.227566 
L 593.931992 56.227566 
L 593.931992 55.697907 
L 598.649079 55.697907 
L 598.649079 55.168248 
L 603.641007 55.168248 
L 603.641007 54.638589 
L 605.34356 54.638589 
L 605.34356 54.10893 
L 619.461183 54.10893 
L 619.461183 53.579271 
L 629.767145 53.579271 
L 629.767145 53.049613 
L 633.695308 53.049613 
L 633.695308 52.519954 
L 666.613205 52.519954 
L 666.613205 51.990295 
L 681.606322 51.990295 
L 681.606322 51.990295 
" style="fill:none;stroke:#008fd5;stroke-linecap:round;stroke-width:4;"/>
   </g>
   <g id="line2d_32">
    <defs>
     <path d="M 0 3 
C 0.795609 3 1.55874 2.683901 2.12132 2.12132 
C 2.683901 1.55874 3 0.795609 3 0 
C 3 -0.795609 2.683901 -1.55874 2.12132 -2.12132 
C 1.55874 -2.683901 0.795609 -3 0 -3 
C -0.795609 -3 -1.55874 -2.683901 -2.12132 -2.12132 
C -2.683901 -1.55874 -3 -0.795609 -3 0 
C -3 0.795609 -2.683901 1.55874 -2.12132 2.12132 
C -1.55874 2.683901 -0.795609 3 0 3 
z
" id="mb08dd94b24" style="stroke:#fc4f30;"/>
    </defs>
    <g clip-path="url(#pc2d5a1b21e)">
     <use style="fill:#fc4f30;stroke:#fc4f30;" x="378.249742" xlink:href="#mb08dd94b24" y="221.481113"/>
    </g>
   </g>
   <g id="patch_3">
    <path d="M 65.594034 407.364872 
L 65.594034 35.067696 
" style="fill:none;stroke:#262626;stroke-linecap:square;stroke-linejoin:miter;stroke-width:1.25;"/>
   </g>
   <g id="patch_4">
    <path d="M 710.940241 407.364872 
L 710.940241 35.067696 
" style="fill:none;stroke:#262626;stroke-linecap:square;stroke-linejoin:miter;stroke-width:1.25;"/>
   </g>
   <g id="patch_5">
    <path d="M 65.594034 407.364872 
L 710.940241 407.364872 
" style="fill:none;stroke:#262626;stroke-linecap:square;stroke-linejoin:miter;stroke-width:1.25;"/>
   </g>
   <g id="patch_6">
    <path d="M 65.594034 35.067696 
L 710.940241 35.067696 
" style="fill:none;stroke:#262626;stroke-linecap:square;stroke-linejoin:miter;stroke-width:1.25;"/>
   </g>
   <g id="patch_7">
    <path d="M 188.902764 191.209347 
Q 212.676592 221.297504 375.689167 221.479376 
" style="fill:none;stroke:#000000;stroke-linecap:round;stroke-width:0.5;"/>
    <path d="M 369.692518 218.472684 
L 375.689167 221.479376 
L 369.685824 224.47268 
" style="fill:none;stroke:#000000;stroke-linecap:round;stroke-width:0.5;"/>
   </g>
   <g id="text_18">
    <!-- (9.52, 0.5) -->
    <g style="fill:#262626;" transform="translate(152.343205 183.84696)scale(0.15 -0.15)">
     <defs>
      <path d="M 6.796875 2.6875 
C 9.59375 0.296875 13.203125 -2 19.296875 -2 
C 31.40625 -2 43 11.53125 43 33.375 
C 43 62.296875 30.5 67 23.796875 67 
C 17.09375 67 12.796875 63.984375 9.09375 59.203125 
C 4.703125 53.71875 3.90625 48.828125 3.90625 43.140625 
C 3.90625 36.359375 5.09375 32.171875 7.90625 27.390625 
C 11.703125 21.1875 15.203125 19.890625 19.09375 19.890625 
C 25 19.890625 30.90625 22.796875 34.90625 27.78125 
C 34.203125 14.1875 28.09375 4.1875 19.296875 4.1875 
C 15.703125 4.1875 12.796875 5.3125 9.90625 8.0625 
z
M 34.59375 43.34375 
C 34.703125 42.640625 34.703125 41.34375 34.703125 40.953125 
C 34.703125 32.578125 29.90625 26 22.90625 26 
C 18.296875 26 15.90625 28.390625 14.09375 31.484375 
C 11.90625 35.359375 11.796875 39.15625 11.796875 43.140625 
C 11.796875 47.03125 11.796875 51.3125 14.59375 55.609375 
C 16.703125 58.703125 19.296875 60.890625 23.796875 60.890625 
C 33 60.890625 34.5 47.4375 34.59375 43.34375 
z
" id="CMSS17-57"/>
      <path d="M 14.59375 59.59375 
L 39.09375 59.59375 
L 39.09375 66 
L 7.296875 66 
L 7.296875 28.59375 
L 14 28.59375 
C 15.796875 32.859375 19.5 36 24.296875 36 
C 28.796875 36 33.796875 31.9375 33.796875 20.296875 
C 33.796875 7.84375 26.703125 4.1875 21.5 4.1875 
C 15.09375 4.1875 9.203125 8.140625 6.59375 13.609375 
L 3.40625 7.9375 
C 8 0.796875 15.5 -2 21.5 -2 
C 33.09375 -2 42.203125 7.9375 42.203125 20.09375 
C 42.203125 32.546875 34.09375 42.09375 24.40625 42.09375 
C 20.90625 42.09375 17.5 40.890625 14.59375 38.5 
z
" id="CMSS17-53"/>
      <path d="M 25.796875 21.140625 
C 28.59375 24.03125 32.796875 27.515625 35.703125 31 
C 38.5 34.390625 42.203125 39.171875 42.203125 46.140625 
C 42.203125 57.109375 34.796875 67 22.203125 67 
C 12.296875 67 6.59375 60.796875 3.90625 51.125 
L 7.796875 45.75 
C 10 54.8125 13.09375 60.59375 20.90625 60.59375 
C 29.5 60.59375 34.296875 53.609375 34.296875 45.9375 
C 34.296875 36.78125 27.296875 29.703125 22 24.421875 
C 16.09375 18.546875 10.296875 12.578125 4.703125 6.390625 
L 4.703125 0 
L 42.203125 0 
L 42.203125 6.796875 
L 25.203125 6.796875 
C 24 6.796875 22.796875 6.6875 21.59375 6.6875 
L 11.59375 6.6875 
L 11.59375 6.796875 
z
" id="CMSS17-50"/>
      <path d="M 43.09375 32.390625 
C 43.09375 38.109375 43 48.75 38.90625 56.984375 
C 34.796875 64.890625 28.203125 67 23.5 67 
C 16.703125 67 10.90625 62.984375 7.90625 56.578125 
C 4.703125 49.859375 3.796875 42.9375 3.796875 32.390625 
C 3.796875 25.171875 4.09375 16.34375 7.703125 8.609375 
C 11.796875 0.09375 18.703125 -2 23.40625 -2 
C 29.59375 -2 35.59375 1.296875 39 8.203125 
C 42.5 15.4375 43.09375 23.359375 43.09375 32.390625 
z
M 23.40625 4.09375 
C 15.796875 4.09375 13.5 12.828125 12.796875 15.734375 
C 11.59375 20.75 11.40625 25.5625 11.40625 33.5 
C 11.40625 39.71875 11.40625 46.75 13.296875 52.265625 
C 15.59375 58.6875 19.59375 60.890625 23.40625 60.890625 
C 30.796875 60.890625 33.203125 53.46875 34 50.859375 
C 35.5 45.546875 35.5 39.3125 35.5 33.5 
C 35.5 24.15625 35.5 4.09375 23.40625 4.09375 
z
" id="CMSS17-48"/>
     </defs>
     <use transform="scale(0.996264)" xlink:href="#CMSS17-40"/>
     <use transform="translate(36.433914 0)scale(0.996264)" xlink:href="#CMSS17-57"/>
     <use transform="translate(83.277538 0)scale(0.996264)" xlink:href="#CMSS17-46"/>
     <use transform="translate(109.301743 0)scale(0.996264)" xlink:href="#CMSS17-53"/>
     <use transform="translate(156.145366 0)scale(0.996264)" xlink:href="#CMSS17-50"/>
     <use transform="translate(202.98899 0)scale(0.996264)" xlink:href="#CMSS17-44"/>
     <use transform="translate(260.242307 0)scale(0.996264)" xlink:href="#CMSS17-48"/>
     <use transform="translate(307.085931 0)scale(0.996264)" xlink:href="#CMSS17-46"/>
     <use transform="translate(333.110136 0)scale(0.996264)" xlink:href="#CMSS17-53"/>
     <use transform="translate(379.953759 0)scale(0.996264)" xlink:href="#CMSS17-41"/>
    </g>
   </g>
   <g id="text_19">
    <!-- ECDF of the viewing angle of 'visible' NSBH Mergers -->
    <g style="fill:#262626;" transform="translate(176.781271 29.067696)scale(0.2016 -0.2016)">
     <defs>
      <path d="M 30.59375 6.796875 
C 22.59375 6.796875 19 6.796875 17.203125 6.6875 
L 17.203125 32.890625 
L 48.203125 32.890625 
L 48.203125 39 
L 17.203125 39 
L 17.203125 62.390625 
L 30.09375 62.390625 
C 31.296875 62.390625 32.5 62.296875 33.703125 62.296875 
L 50.796875 62.296875 
L 50.796875 68.796875 
L 8.796875 68.796875 
L 8.796875 0 
L 52.09375 0 
L 52.09375 6.890625 
z
" id="CMSS17-69"/>
      <path d="M 54.703125 11.015625 
C 48 6.5 44.90625 5.1875 36.796875 5.1875 
C 22.796875 5.1875 14.59375 20.375 14.59375 34.234375 
C 14.59375 49.015625 23 63.59375 37.203125 63.59375 
C 43.59375 63.59375 47.796875 61.78125 52.90625 58.5625 
L 54.296875 66.484375 
C 49.5 68.890625 43.40625 70 37.296875 70 
C 18.09375 70 6.203125 52.234375 6.203125 34.234375 
C 6.203125 14.4375 20.296875 -1.203125 36.296875 -1.203125 
C 44.90625 -1.203125 47.90625 -0.5 55.296875 4.1875 
z
" id="CMSS17-67"/>
      <path d="M 8.90625 69 
L 8.90625 0 
L 33.5 0 
C 49.90625 0 62.5 15.328125 62.5 33.890625 
C 62.5 53.0625 49.90625 69 33.5 69 
z
M 17.09375 5.59375 
L 17.09375 63.390625 
L 31.296875 63.390625 
C 44.703125 63.390625 54.296875 51.171875 54.296875 33.890625 
C 54.296875 17.3125 44.796875 5.59375 31.296875 5.59375 
z
" id="CMSS17-68"/>
      <path d="M 45.59375 31 
L 45.59375 37.09375 
L 17.203125 37.09375 
L 17.203125 62.390625 
L 29.40625 62.390625 
C 30.59375 62.390625 31.796875 62.296875 33 62.296875 
L 49.5 62.296875 
L 49.5 68.796875 
L 8.796875 68.796875 
L 8.796875 0 
L 17.203125 0 
L 17.203125 31 
z
" id="CMSS17-70"/>
      <path d="M 44.203125 21.1875 
C 44.203125 33.984375 34.703125 44 23.5 44 
C 12 44 2.703125 33.6875 2.703125 21.1875 
C 2.703125 8.5 12.296875 -1 23.40625 -1 
C 34.796875 -1 44.203125 8.796875 44.203125 21.1875 
z
M 23.5 5.296875 
C 16.40625 5.296875 10.296875 11.09375 10.296875 21.984375 
C 10.296875 33.59375 17.40625 37.890625 23.40625 37.890625 
C 29.90625 37.890625 36.59375 33.1875 36.59375 21.984375 
C 36.59375 10.6875 30.09375 5.296875 23.5 5.296875 
z
" id="CMSS17-111"/>
      <path d="M 16.796875 37.1875 
L 26.90625 37.1875 
L 26.90625 43 
L 16.59375 43 
L 16.59375 55.671875 
C 16.59375 62.703125 22 63.890625 25.09375 63.890625 
C 26.09375 63.890625 28.90625 63.890625 32.5 62.609375 
L 32.5 69.1875 
C 30.203125 69.6875 27.40625 70 25.203125 70 
C 15.90625 70 9.40625 62.40625 9.40625 52.59375 
L 9.40625 43 
L 2.5 43 
L 2.5 37.1875 
L 9.40625 37.1875 
L 9.40625 0 
L 16.796875 0 
z
" id="CMSS17-102"/>
      <path d="M 16.703125 37.1875 
L 29.703125 37.1875 
L 29.703125 43 
L 16.703125 43 
L 16.703125 55 
L 9.59375 55 
L 9.59375 43 
L 1.703125 43 
L 1.703125 37.1875 
L 9.40625 37.1875 
L 9.40625 11.734375 
C 9.40625 6 10.703125 -1 17.296875 -1 
C 22.296875 -1 26.90625 0.390625 31.296875 2.6875 
L 29.703125 8.609375 
C 27.296875 6.5 24.40625 5.296875 21.296875 5.296875 
C 16.90625 5.296875 16.703125 10.921875 16.703125 13.4375 
z
" id="CMSS17-116"/>
      <path d="M 40.90625 29.34375 
C 40.90625 35.671875 39.40625 44 28.09375 44 
C 21.796875 44 17.703125 40.890625 14.796875 37.484375 
L 14.796875 69 
L 7.40625 69 
L 7.40625 0 
L 15 0 
L 15 24.3125 
C 15 30.65625 17.40625 37.890625 24.203125 37.890625 
C 33 37.890625 33.296875 31.953125 33.296875 28.53125 
L 33.296875 0 
L 40.90625 0 
z
" id="CMSS17-104"/>
      <path d="M 41.796875 43 
L 34 43 
L 27.296875 24.296875 
C 25.203125 18.1875 22.203125 9.796875 21.703125 5.5 
L 21.59375 5.5 
C 21.40625 7.296875 20.59375 9.890625 20.09375 11.6875 
C 19.5 13.890625 18.703125 16.5 18.09375 18.296875 
L 9.296875 43 
L 1.296875 43 
L 17.09375 0 
L 26 0 
z
" id="CMSS17-118"/>
      <path d="M 37.59375 27.953125 
C 37.59375 37.484375 30.90625 44 21.90625 44 
C 17.5 44 12.703125 43.1875 7.203125 39.984375 
L 7.796875 33.328125 
C 10.296875 35.15625 14.59375 38.09375 21.796875 38.09375 
C 26.90625 38.09375 30 34.140625 30 27.84375 
L 30 24 
C 14 23.5 4 18.890625 4 11.109375 
C 4 7.0625 6.5 -1 14.796875 -1 
C 16.296875 -1 24.40625 -0.8125 30.203125 3.5 
L 30.203125 -0.203125 
L 37.59375 -0.203125 
z
M 30 12.875 
C 30 11.109375 30 8.734375 27 6.96875 
C 24.40625 5.296875 21.09375 5.09375 19.703125 5.09375 
C 14.703125 5.09375 11.296875 7.859375 11.296875 11.296875 
C 11.296875 18.203125 26.90625 18.890625 30 19 
z
" id="CMSS17-97"/>
      <path d="M 17 61.09375 
L 17 69 
L 9 69 
L 9 60.984375 
L 11.5 60.984375 
L 8.90625 48.890625 
L 12.90625 48.890625 
z
" id="CMSS17-39"/>
      <path d="M 32.203125 40.984375 
C 26.296875 43.796875 21.703125 44 18.703125 44 
C 11.59375 44 3.09375 41.484375 3.09375 31.390625 
C 3.09375 21.296875 14.09375 19.09375 17.09375 18.484375 
C 21.703125 17.59375 26.796875 16.59375 26.796875 11.59375 
C 26.796875 5.296875 19.59375 5.296875 18.296875 5.296875 
C 14.296875 5.296875 8.796875 6.390625 3.796875 9.984375 
L 2.59375 3.296875 
C 8.296875 0 13.796875 -1 18.40625 -1 
C 30.703125 -1 33.796875 6.5 33.796875 12.1875 
C 33.796875 17.09375 31 20.390625 29.09375 21.890625 
C 25.796875 24.484375 24.59375 24.796875 16.40625 26.484375 
C 15 26.6875 10.09375 27.796875 10.09375 32.296875 
C 10.09375 37.984375 16.40625 37.984375 17.796875 37.984375 
C 24.296875 37.984375 28.296875 35.984375 31 34.484375 
z
" id="CMSS17-115"/>
      <path d="M 14.90625 69 
L 7.5 69 
L 7.5 -0.203125 
L 15.09375 -0.203125 
L 15.09375 4.296875 
C 18.90625 0.59375 23.5 -1 27.59375 -1 
C 37.203125 -1 45 8.734375 45 21.59375 
C 45 33.328125 39 44 30.09375 44 
C 23.796875 44 18.203125 41.390625 14.90625 38.6875 
z
M 15.09375 32.734375 
C 17.296875 35.5625 20.40625 37.890625 24.796875 37.890625 
C 30.703125 37.890625 37.40625 33.53125 37.40625 21.59375 
C 37.40625 8.84375 29.40625 5.09375 23.90625 5.09375 
C 21.90625 5.09375 19.796875 5.59375 17.796875 7.3125 
C 15.09375 9.75 15.09375 11.265625 15.09375 12.6875 
z
" id="CMSS17-98"/>
      <path d="M 22.90625 65.296875 
L 21.09375 69 
L 8.796875 69 
L 8.796875 0 
L 16.59375 0 
L 16.59375 61.328125 
L 16.703125 61.421875 
C 17.40625 59.640625 17.796875 58.734375 21.90625 49.890625 
L 43.296875 3.6875 
L 45.09375 0 
L 57.40625 0 
L 57.40625 69 
L 49.59375 69 
L 49.59375 7.65625 
L 49.5 7.5625 
C 48.796875 9.34375 48.40625 10.234375 44.296875 19.09375 
z
" id="CMSS17-78"/>
      <path d="M 43.703125 66.09375 
C 39.296875 68.6875 34.5 71 26.40625 71 
C 13.5 71 5.203125 61.46875 5.203125 51.703125 
C 5.203125 47.875 6.296875 43.546875 10.203125 39.125 
C 14.09375 34.6875 18.5 33.484375 24.09375 32.078125 
C 26.40625 31.46875 30.296875 30.359375 31 30.0625 
C 36.59375 27.84375 39.296875 22.71875 39.296875 17.875 
C 39.296875 11.53125 34.40625 4.796875 25.703125 4.796875 
C 22.703125 4.796875 13.90625 5.296875 5.59375 12.953125 
L 4.203125 5 
C 12.40625 -1 21.296875 -2 25.796875 -2 
C 38.09375 -2 46.90625 7.71875 46.90625 18.78125 
C 46.90625 22.8125 45.703125 27.953125 41.5 32.6875 
C 37.40625 37.203125 33.796875 38.21875 25.59375 40.4375 
C 20.90625 41.640625 17.90625 42.453125 15.40625 45.5625 
C 13.703125 47.78125 12.796875 49.890625 12.796875 52.609375 
C 12.796875 58.25 17.59375 64.390625 26.40625 64.390625 
C 30.796875 64.390625 36.5 63.484375 42.296875 58.046875 
z
" id="CMSS17-83"/>
      <path d="M 8.90625 69 
L 8.90625 0 
L 33.796875 0 
C 47.40625 0 57.296875 8.984375 57.296875 18.75 
C 57.296875 26.3125 50.796875 33.984375 39.09375 36.1875 
C 52.09375 39.984375 54.703125 47.484375 54.703125 51.734375 
C 54.703125 60.625 44.90625 69 31.203125 69 
z
M 17 39 
L 17 63.390625 
L 28.5 63.390625 
C 38.796875 63.390625 46.90625 58.15625 46.90625 51.640625 
C 46.90625 45.703125 40.5 39 27.59375 39 
z
M 17 5.59375 
L 17 32.890625 
L 30.296875 32.890625 
C 41.09375 32.890625 49.40625 26.21875 49.40625 18.84375 
C 49.40625 12.0625 42.09375 5.59375 31 5.59375 
z
" id="CMSS17-66"/>
      <path d="M 57.40625 69 
L 49 69 
L 49 39 
L 17.203125 39 
L 17.203125 69 
L 8.796875 69 
L 8.796875 0 
L 17.203125 0 
L 17.203125 32.890625 
L 49 32.890625 
L 49 0 
L 57.40625 0 
z
" id="CMSS17-72"/>
      <path d="M 49.90625 37.078125 
L 45.09375 23.0625 
C 44.296875 20.484375 41.59375 12.421875 41 9.25 
L 40.90625 9.25 
C 40.59375 11.234375 40 13.328125 38.40625 18.390625 
C 37.5 21.375 36.5 24.453125 35.5 27.234375 
L 20.703125 69 
L 9 69 
L 9 0 
L 16.796875 0 
L 16.796875 60.921875 
L 16.90625 60.921875 
C 16.90625 60.828125 17.796875 56.453125 23.90625 39.0625 
L 37.09375 1.59375 
L 44.5 1.59375 
L 56.40625 34.890625 
C 57.203125 37.171875 59.703125 44.421875 60.796875 47.90625 
C 61.796875 50.890625 64.296875 58.25 64.90625 61.125 
L 65 61.125 
L 65 0 
L 72.90625 0 
L 72.90625 69 
L 61.296875 69 
z
" id="CMSS17-77"/>
      <path d="M 14.90625 21.390625 
C 14.90625 30.84375 21.796875 37.171875 30.59375 37.375 
L 30.59375 44 
C 24.203125 43.890625 18.203125 40.6875 14.59375 35.46875 
L 14.59375 43.484375 
L 7.5 43.484375 
L 7.5 0 
L 14.90625 0 
z
" id="CMSS17-114"/>
     </defs>
     <use transform="scale(0.996264)" xlink:href="#CMSS17-69"/>
     <use transform="translate(55.892013 0)scale(0.996264)" xlink:href="#CMSS17-67"/>
     <use transform="translate(115.747785 0)scale(0.996264)" xlink:href="#CMSS17-68"/>
     <use transform="translate(183.290626 0)scale(0.996264)" xlink:href="#CMSS17-70"/>
     <use transform="translate(267.809299 0)scale(0.996264)" xlink:href="#CMSS17-111"/>
     <use transform="translate(314.652922 0)scale(0.996264)" xlink:href="#CMSS17-102"/>
     <use transform="translate(374.508694 0)scale(0.996264)" xlink:href="#CMSS17-116"/>
     <use transform="translate(408.34026 0)scale(0.996264)" xlink:href="#CMSS17-104"/>
     <use transform="translate(456.545203 0)scale(0.996264)" xlink:href="#CMSS17-101"/>
     <use transform="translate(529.413138 0)scale(0.996264)" xlink:href="#CMSS17-118"/>
     <use transform="translate(572.41328 0)scale(0.996264)" xlink:href="#CMSS17-105"/>
     <use transform="translate(594.594003 0)scale(0.996264)" xlink:href="#CMSS17-101"/>
     <use transform="translate(636.232825 0)scale(0.996264)" xlink:href="#CMSS17-119"/>
     <use transform="translate(700.05237 0)scale(0.996264)" xlink:href="#CMSS17-105"/>
     <use transform="translate(722.233093 0)scale(0.996264)" xlink:href="#CMSS17-110"/>
     <use transform="translate(770.438036 0)scale(0.996264)" xlink:href="#CMSS17-103"/>
     <use transform="translate(848.510773 0)scale(0.996264)" xlink:href="#CMSS17-97"/>
     <use transform="translate(893.432693 0)scale(0.996264)" xlink:href="#CMSS17-110"/>
     <use transform="translate(941.637636 0)scale(0.996264)" xlink:href="#CMSS17-103"/>
     <use transform="translate(988.48126 0)scale(0.996264)" xlink:href="#CMSS17-108"/>
     <use transform="translate(1010.661983 0)scale(0.996264)" xlink:href="#CMSS17-101"/>
     <use transform="translate(1083.529918 0)scale(0.996264)" xlink:href="#CMSS17-111"/>
     <use transform="translate(1130.373541 0)scale(0.996264)" xlink:href="#CMSS17-102"/>
     <use transform="translate(1190.229313 0)scale(0.996264)" xlink:href="#CMSS17-39"/>
     <use transform="translate(1216.253518 0)scale(0.996264)" xlink:href="#CMSS17-118"/>
     <use transform="translate(1259.253659 0)scale(0.996264)" xlink:href="#CMSS17-105"/>
     <use transform="translate(1281.434382 0)scale(0.996264)" xlink:href="#CMSS17-115"/>
     <use transform="translate(1317.347924 0)scale(0.996264)" xlink:href="#CMSS17-105"/>
     <use transform="translate(1339.528647 0)scale(0.996264)" xlink:href="#CMSS17-98"/>
     <use transform="translate(1387.733591 0)scale(0.996264)" xlink:href="#CMSS17-108"/>
     <use transform="translate(1409.914314 0)scale(0.996264)" xlink:href="#CMSS17-101"/>
     <use transform="translate(1451.553136 0)scale(0.996264)" xlink:href="#CMSS17-39"/>
     <use transform="translate(1508.806453 0)scale(0.996264)" xlink:href="#CMSS17-78"/>
     <use transform="translate(1574.867973 0)scale(0.996264)" xlink:href="#CMSS17-83"/>
     <use transform="translate(1626.916489 0)scale(0.996264)" xlink:href="#CMSS17-66"/>
     <use transform="translate(1689.254529 0)scale(0.996264)" xlink:href="#CMSS17-72"/>
     <use transform="translate(1786.545161 0)scale(0.996264)" xlink:href="#CMSS17-77"/>
     <use transform="translate(1868.221191 0)scale(0.996264)" xlink:href="#CMSS17-101"/>
     <use transform="translate(1909.860013 0)scale(0.996264)" xlink:href="#CMSS17-114"/>
     <use transform="translate(1941.769785 0)scale(0.996264)" xlink:href="#CMSS17-103"/>
     <use transform="translate(1988.613409 0)scale(0.996264)" xlink:href="#CMSS17-101"/>
     <use transform="translate(2030.252231 0)scale(0.996264)" xlink:href="#CMSS17-114"/>
     <use transform="translate(2062.162004 0)scale(0.996264)" xlink:href="#CMSS17-115"/>
    </g>
   </g>
  </g>
 </g>
 <defs>
  <clipPath id="pc2d5a1b21e">
   <rect height="372.297176" width="645.346207" x="65.594034" y="35.067696"/>
  </clipPath>
 </defs>
</svg>
