<?xml version="1.0" encoding="utf-8" standalone="no"?>
<!DOCTYPE svg PUBLIC "-//W3C//DTD SVG 1.1//EN"
  "http://www.w3.org/Graphics/SVG/1.1/DTD/svg11.dtd">
<!-- Created with matplotlib (https://matplotlib.org/) -->
<svg height="465.12pt" version="1.1" viewBox="0 0 585.36 465.12" width="585.36pt" xmlns="http://www.w3.org/2000/svg" xmlns:xlink="http://www.w3.org/1999/xlink">
 <metadata>
  <rdf:RDF xmlns:cc="http://creativecommons.org/ns#" xmlns:dc="http://purl.org/dc/elements/1.1/" xmlns:rdf="http://www.w3.org/1999/02/22-rdf-syntax-ns#">
   <cc:Work>
    <dc:type rdf:resource="http://purl.org/dc/dcmitype/StillImage"/>
    <dc:date>2021-06-08T19:02:18.497767</dc:date>
    <dc:format>image/svg+xml</dc:format>
    <dc:creator>
     <cc:Agent>
      <dc:title>Matplotlib v3.3.2, https://matplotlib.org/</dc:title>
     </cc:Agent>
    </dc:creator>
   </cc:Work>
  </rdf:RDF>
 </metadata>
 <defs>
  <style type="text/css">*{stroke-linecap:butt;stroke-linejoin:round;}</style>
 </defs>
 <g id="figure_1">
  <g id="patch_1">
   <path d="M 0 465.12 
L 585.36 465.12 
L 585.36 0 
L 0 0 
z
" style="fill:#f0f0f0;"/>
  </g>
  <g id="axes_1">
   <g id="patch_2">
    <path d="M 65.594034 407.364872 
L 570.24 407.364872 
L 570.24 35.067696 
L 65.594034 35.067696 
z
" style="fill:#ffffff;"/>
   </g>
   <g id="matplotlib.axis_1">
    <g id="xtick_1">
     <g id="line2d_1">
      <path clip-path="url(#pe09344a3de)" d="M 70.354574 407.364872 
L 70.354574 35.067696 
" style="fill:none;stroke:#cccccc;stroke-linecap:round;"/>
     </g>
     <g id="line2d_2">
      <defs>
       <path d="M 0 0 
L 0 6 
" id="m6f06f49d0b" style="stroke:#262626;stroke-width:0.8;"/>
      </defs>
      <g>
       <use style="fill:#262626;stroke:#262626;stroke-width:0.8;" x="70.354574" xlink:href="#m6f06f49d0b" y="407.364872"/>
      </g>
     </g>
     <g id="text_1">
      <!-- $\mathdefault{0.0}$ -->
      <g style="fill:#262626;" transform="translate(61.629283 426.550748)scale(0.14 -0.14)">
       <defs>
        <path d="M 42 31.84375 
C 42 37.96875 41.90625 48.421875 37.703125 56.453125 
C 34 63.484375 28.09375 66 22.90625 66 
C 18.09375 66 12 63.78125 8.203125 56.5625 
C 4.203125 49.015625 3.796875 39.671875 3.796875 31.84375 
C 3.796875 26.109375 3.90625 17.375 7 9.734375 
C 11.296875 -0.609375 19 -2 22.90625 -2 
C 27.5 -2 34.5 -0.109375 38.59375 9.4375 
C 41.59375 16.375 42 24.5 42 31.84375 
z
M 22.90625 -0.40625 
C 16.5 -0.40625 12.703125 5.125 11.296875 12.75 
C 10.203125 18.6875 10.203125 27.328125 10.203125 32.953125 
C 10.203125 40.6875 10.203125 47.109375 11.5 53.234375 
C 13.40625 61.78125 19 64.390625 22.90625 64.390625 
C 27 64.390625 32.296875 61.671875 34.203125 53.4375 
C 35.5 47.71875 35.59375 40.984375 35.59375 32.953125 
C 35.59375 26.421875 35.59375 18.375 34.40625 12.453125 
C 32.296875 1.5 26.40625 -0.40625 22.90625 -0.40625 
z
" id="CMR17-48"/>
        <path d="M 18.40625 4.796875 
C 18.40625 7.6875 16 9.6875 13.59375 9.6875 
C 10.703125 9.6875 8.703125 7.296875 8.703125 4.890625 
C 8.703125 2 11.09375 0 13.5 0 
C 16.40625 0 18.40625 2.390625 18.40625 4.796875 
z
" id="CMMI12-58"/>
       </defs>
       <use transform="scale(0.996264)" xlink:href="#CMR17-48"/>
       <use transform="translate(45.690477 0)scale(0.996264)" xlink:href="#CMMI12-58"/>
       <use transform="translate(72.787654 0)scale(0.996264)" xlink:href="#CMR17-48"/>
      </g>
     </g>
    </g>
    <g id="xtick_2">
     <g id="line2d_3">
      <path clip-path="url(#pe09344a3de)" d="M 130.041447 407.364872 
L 130.041447 35.067696 
" style="fill:none;stroke:#cccccc;stroke-linecap:round;"/>
     </g>
     <g id="line2d_4">
      <g>
       <use style="fill:#262626;stroke:#262626;stroke-width:0.8;" x="130.041447" xlink:href="#m6f06f49d0b" y="407.364872"/>
      </g>
     </g>
     <g id="text_2">
      <!-- $\mathdefault{2.5}$ -->
      <g style="fill:#262626;" transform="translate(121.316156 426.550748)scale(0.14 -0.14)">
       <defs>
        <path d="M 41.703125 15.46875 
L 39.90625 15.46875 
C 38.90625 8.390625 38.09375 7.1875 37.703125 6.59375 
C 37.203125 5.796875 30 5.796875 28.59375 5.796875 
L 9.40625 5.796875 
C 13 9.6875 20 16.765625 28.5 24.9375 
C 34.59375 30.71875 41.703125 37.5 41.703125 47.390625 
C 41.703125 59.1875 32.296875 66 21.796875 66 
C 10.796875 66 4.09375 56.296875 4.09375 47.296875 
C 4.09375 43.390625 7 42.890625 8.203125 42.890625 
C 9.203125 42.890625 12.203125 43.484375 12.203125 46.984375 
C 12.203125 50.09375 9.59375 51 8.203125 51 
C 7.59375 51 7 50.890625 6.59375 50.6875 
C 8.5 59.1875 14.296875 63.390625 20.40625 63.390625 
C 29.09375 63.390625 34.796875 56.5 34.796875 47.390625 
C 34.796875 38.703125 29.703125 31.21875 24 24.734375 
L 4.09375 2.296875 
L 4.09375 0 
L 39.296875 0 
z
" id="CMR17-50"/>
        <path d="M 11.40625 58.59375 
C 12.40625 58.1875 16.5 56.890625 20.703125 56.890625 
C 30 56.890625 35.09375 61.890625 38 64.6875 
C 38 65.484375 38 66 37.40625 66 
C 37.296875 66 37.09375 66 36.296875 65.59375 
C 32.796875 64.09375 28.703125 63 23.703125 63 
C 20.703125 63 16.203125 63.359375 11.296875 65.484375 
C 10.203125 66 10 66 9.90625 66 
C 9.40625 66 9.296875 65.890625 9.296875 63.90625 
L 9.296875 34.859375 
C 9.296875 33.015625 9.296875 32.5 10.296875 32.5 
C 10.796875 32.5 11 32.703125 11.5 33.421875 
C 14.703125 38.046875 19.09375 40 24.09375 40 
C 27.59375 40 35.09375 37.734375 35.09375 20.203125 
C 35.09375 16.984375 35.09375 11.1875 32.09375 6.59375 
C 29.59375 2.484375 25.703125 0.390625 21.40625 0.390625 
C 14.796875 0.390625 8.09375 4.984375 6.296875 12.6875 
C 6.703125 12.59375 7.5 12.390625 7.90625 12.390625 
C 9.203125 12.390625 11.703125 13.09375 11.703125 16.1875 
C 11.703125 18.890625 9.796875 20 7.90625 20 
C 5.59375 20 4.09375 18.59375 4.09375 15.796875 
C 4.09375 7.09375 11 -2 21.59375 -2 
C 31.90625 -2 41.703125 6.890625 41.703125 19.796875 
C 41.703125 32.09375 33.90625 41.59375 24.203125 41.59375 
C 19.09375 41.59375 14.796875 39.6875 11.40625 36 
z
" id="CMR17-53"/>
       </defs>
       <use transform="scale(0.996264)" xlink:href="#CMR17-50"/>
       <use transform="translate(45.690477 0)scale(0.996264)" xlink:href="#CMMI12-58"/>
       <use transform="translate(72.787654 0)scale(0.996264)" xlink:href="#CMR17-53"/>
      </g>
     </g>
    </g>
    <g id="xtick_3">
     <g id="line2d_5">
      <path clip-path="url(#pe09344a3de)" d="M 189.72832 407.364872 
L 189.72832 35.067696 
" style="fill:none;stroke:#cccccc;stroke-linecap:round;"/>
     </g>
     <g id="line2d_6">
      <g>
       <use style="fill:#262626;stroke:#262626;stroke-width:0.8;" x="189.72832" xlink:href="#m6f06f49d0b" y="407.364872"/>
      </g>
     </g>
     <g id="text_3">
      <!-- $\mathdefault{5.0}$ -->
      <g style="fill:#262626;" transform="translate(181.003029 426.550748)scale(0.14 -0.14)">
       <use transform="scale(0.996264)" xlink:href="#CMR17-53"/>
       <use transform="translate(45.690477 0)scale(0.996264)" xlink:href="#CMMI12-58"/>
       <use transform="translate(72.787654 0)scale(0.996264)" xlink:href="#CMR17-48"/>
      </g>
     </g>
    </g>
    <g id="xtick_4">
     <g id="line2d_7">
      <path clip-path="url(#pe09344a3de)" d="M 249.415192 407.364872 
L 249.415192 35.067696 
" style="fill:none;stroke:#cccccc;stroke-linecap:round;"/>
     </g>
     <g id="line2d_8">
      <g>
       <use style="fill:#262626;stroke:#262626;stroke-width:0.8;" x="249.415192" xlink:href="#m6f06f49d0b" y="407.364872"/>
      </g>
     </g>
     <g id="text_4">
      <!-- $\mathdefault{7.5}$ -->
      <g style="fill:#262626;" transform="translate(240.689901 426.550748)scale(0.14 -0.14)">
       <defs>
        <path d="M 45.09375 61.796875 
L 45.09375 64 
L 21.59375 64 
C 9.90625 64 9.703125 65.09375 9.296875 67 
L 7.5 67 
L 4.59375 48.5 
L 6.40625 48.5 
C 6.703125 50.40625 7.40625 55.5 8.59375 57.390625 
C 9.203125 58.1875 16.59375 58.1875 18.296875 58.1875 
L 40.296875 58.1875 
L 29.203125 41.71875 
C 21.796875 30.640625 16.703125 15.671875 16.703125 2.59375 
C 16.703125 1.390625 16.703125 -2 20.296875 -2 
C 23.90625 -2 23.90625 1.390625 23.90625 2.6875 
L 23.90625 7.28125 
C 23.90625 23.65625 26.703125 34.4375 31.296875 41.3125 
z
" id="CMR17-55"/>
       </defs>
       <use transform="scale(0.996264)" xlink:href="#CMR17-55"/>
       <use transform="translate(45.690477 0)scale(0.996264)" xlink:href="#CMMI12-58"/>
       <use transform="translate(72.787654 0)scale(0.996264)" xlink:href="#CMR17-53"/>
      </g>
     </g>
    </g>
    <g id="xtick_5">
     <g id="line2d_9">
      <path clip-path="url(#pe09344a3de)" d="M 309.102065 407.364872 
L 309.102065 35.067696 
" style="fill:none;stroke:#cccccc;stroke-linecap:round;"/>
     </g>
     <g id="line2d_10">
      <g>
       <use style="fill:#262626;stroke:#262626;stroke-width:0.8;" x="309.102065" xlink:href="#m6f06f49d0b" y="407.364872"/>
      </g>
     </g>
     <g id="text_5">
      <!-- $\mathdefault{10.0}$ -->
      <g style="fill:#262626;" transform="translate(296.96253 426.550748)scale(0.14 -0.14)">
       <defs>
        <path d="M 26.59375 63.796875 
C 26.59375 65.890625 26.5 66 25.09375 66 
C 21.203125 61.359375 15.296875 59.890625 9.703125 59.6875 
C 9.40625 59.6875 8.90625 59.6875 8.796875 59.5 
C 8.703125 59.296875 8.703125 59.09375 8.703125 57 
C 11.796875 57 17 57.59375 21 59.984375 
L 21 7.296875 
C 21 3.796875 20.796875 2.59375 12.203125 2.59375 
L 9.203125 2.59375 
L 9.203125 0 
C 14 0.09375 19 0.1875 23.796875 0.1875 
C 28.59375 0.1875 33.59375 0.09375 38.40625 0 
L 38.40625 2.59375 
L 35.40625 2.59375 
C 26.796875 2.59375 26.59375 3.6875 26.59375 7.296875 
z
" id="CMR17-49"/>
       </defs>
       <use transform="scale(0.996264)" xlink:href="#CMR17-49"/>
       <use transform="translate(45.690477 0)scale(0.996264)" xlink:href="#CMR17-48"/>
       <use transform="translate(91.380954 0)scale(0.996264)" xlink:href="#CMMI12-58"/>
       <use transform="translate(118.478131 0)scale(0.996264)" xlink:href="#CMR17-48"/>
      </g>
     </g>
    </g>
    <g id="xtick_6">
     <g id="line2d_11">
      <path clip-path="url(#pe09344a3de)" d="M 368.788938 407.364872 
L 368.788938 35.067696 
" style="fill:none;stroke:#cccccc;stroke-linecap:round;"/>
     </g>
     <g id="line2d_12">
      <g>
       <use style="fill:#262626;stroke:#262626;stroke-width:0.8;" x="368.788938" xlink:href="#m6f06f49d0b" y="407.364872"/>
      </g>
     </g>
     <g id="text_6">
      <!-- $\mathdefault{12.5}$ -->
      <g style="fill:#262626;" transform="translate(356.649403 426.550748)scale(0.14 -0.14)">
       <use transform="scale(0.996264)" xlink:href="#CMR17-49"/>
       <use transform="translate(45.690477 0)scale(0.996264)" xlink:href="#CMR17-50"/>
       <use transform="translate(91.380954 0)scale(0.996264)" xlink:href="#CMMI12-58"/>
       <use transform="translate(118.478131 0)scale(0.996264)" xlink:href="#CMR17-53"/>
      </g>
     </g>
    </g>
    <g id="xtick_7">
     <g id="line2d_13">
      <path clip-path="url(#pe09344a3de)" d="M 428.475811 407.364872 
L 428.475811 35.067696 
" style="fill:none;stroke:#cccccc;stroke-linecap:round;"/>
     </g>
     <g id="line2d_14">
      <g>
       <use style="fill:#262626;stroke:#262626;stroke-width:0.8;" x="428.475811" xlink:href="#m6f06f49d0b" y="407.364872"/>
      </g>
     </g>
     <g id="text_7">
      <!-- $\mathdefault{15.0}$ -->
      <g style="fill:#262626;" transform="translate(416.336276 426.550748)scale(0.14 -0.14)">
       <use transform="scale(0.996264)" xlink:href="#CMR17-49"/>
       <use transform="translate(45.690477 0)scale(0.996264)" xlink:href="#CMR17-53"/>
       <use transform="translate(91.380954 0)scale(0.996264)" xlink:href="#CMMI12-58"/>
       <use transform="translate(118.478131 0)scale(0.996264)" xlink:href="#CMR17-48"/>
      </g>
     </g>
    </g>
    <g id="xtick_8">
     <g id="line2d_15">
      <path clip-path="url(#pe09344a3de)" d="M 488.162684 407.364872 
L 488.162684 35.067696 
" style="fill:none;stroke:#cccccc;stroke-linecap:round;"/>
     </g>
     <g id="line2d_16">
      <g>
       <use style="fill:#262626;stroke:#262626;stroke-width:0.8;" x="488.162684" xlink:href="#m6f06f49d0b" y="407.364872"/>
      </g>
     </g>
     <g id="text_8">
      <!-- $\mathdefault{17.5}$ -->
      <g style="fill:#262626;" transform="translate(476.023149 426.550748)scale(0.14 -0.14)">
       <use transform="scale(0.996264)" xlink:href="#CMR17-49"/>
       <use transform="translate(45.690477 0)scale(0.996264)" xlink:href="#CMR17-55"/>
       <use transform="translate(91.380954 0)scale(0.996264)" xlink:href="#CMMI12-58"/>
       <use transform="translate(118.478131 0)scale(0.996264)" xlink:href="#CMR17-53"/>
      </g>
     </g>
    </g>
    <g id="xtick_9">
     <g id="line2d_17">
      <path clip-path="url(#pe09344a3de)" d="M 547.849557 407.364872 
L 547.849557 35.067696 
" style="fill:none;stroke:#cccccc;stroke-linecap:round;"/>
     </g>
     <g id="line2d_18">
      <g>
       <use style="fill:#262626;stroke:#262626;stroke-width:0.8;" x="547.849557" xlink:href="#m6f06f49d0b" y="407.364872"/>
      </g>
     </g>
     <g id="text_9">
      <!-- $\mathdefault{20.0}$ -->
      <g style="fill:#262626;" transform="translate(535.710022 426.550748)scale(0.14 -0.14)">
       <use transform="scale(0.996264)" xlink:href="#CMR17-50"/>
       <use transform="translate(45.690477 0)scale(0.996264)" xlink:href="#CMR17-48"/>
       <use transform="translate(91.380954 0)scale(0.996264)" xlink:href="#CMMI12-58"/>
       <use transform="translate(118.478131 0)scale(0.996264)" xlink:href="#CMR17-48"/>
      </g>
     </g>
    </g>
    <g id="text_10">
     <!-- Viewing Angle, $\theta_v$ (deg.) -->
     <g style="fill:#262626;" transform="translate(233.671711 445.815694)scale(0.168 -0.168)">
      <defs>
       <path d="M 61.09375 69 
L 53.296875 69 
L 36 21.265625 
C 35.5 19.875 32.40625 10.734375 31.796875 7.5625 
L 31.703125 7.5625 
C 30.90625 11.328125 27.703125 20.171875 26 25.046875 
L 14.40625 57.34375 
L 10.09375 69 
L 1.296875 69 
L 26.796875 0 
L 35.59375 0 
z
" id="CMSS17-86"/>
       <path d="M 15.296875 66 
L 6.90625 66 
L 6.90625 57.59375 
L 15.296875 57.59375 
z
M 14.796875 43 
L 7.40625 43 
L 7.40625 0 
L 14.796875 0 
z
" id="CMSS17-105"/>
       <path d="M 39.09375 21.484375 
C 39.09375 24.796875 38.90625 31.265625 35.703125 36.671875 
C 32.203125 42.390625 26.5 44 22.203125 44 
C 11.796875 44 3 34.125 3 21.296875 
C 3 9.046875 12.09375 -1 23.59375 -1 
C 28.09375 -1 33.59375 0.296875 38.59375 3.890625 
C 38.59375 4.296875 38.40625 6.46875 38.296875 6.578125 
C 38.296875 6.765625 38 9.828125 38 10.234375 
C 33.203125 6.375 27.703125 5.09375 23.703125 5.09375 
C 17.296875 5.09375 10.40625 10.421875 10.09375 21.484375 
z
M 10.90625 27 
C 12.203125 32.59375 16.59375 37.890625 22.203125 37.890625 
C 23.703125 37.890625 30.703125 37.6875 32.5 27 
z
" id="CMSS17-101"/>
       <path d="M 62.703125 43 
L 55.09375 43 
L 49.796875 25 
C 48.703125 21.1875 45.59375 10.6875 45.203125 5.796875 
L 45.09375 5.796875 
C 44.90625 8.796875 43.203125 16 40.40625 25.5 
L 35.296875 43 
L 28.40625 43 
L 23.40625 25.890625 
C 20.90625 17.1875 19 9.796875 18.796875 5.796875 
L 18.703125 5.796875 
C 18.296875 11.6875 14.203125 25.5 13.59375 27.6875 
L 9.09375 43 
L 1.296875 43 
L 14.296875 0 
L 21.90625 0 
C 27.09375 17.1875 31.09375 30.5 31.40625 37.1875 
C 31.59375 33.890625 33.296875 26.796875 34.296875 23.296875 
L 40.90625 0 
L 49.703125 0 
z
" id="CMSS17-119"/>
       <path d="M 40.90625 29.34375 
C 40.90625 35.671875 39.40625 44 28.09375 44 
C 21.703125 44 17.5 40.6875 14.703125 37.28125 
L 14.703125 43.484375 
L 7.40625 43.484375 
L 7.40625 0 
L 15 0 
L 15 24.3125 
C 15 30.65625 17.40625 37.890625 24.203125 37.890625 
C 33 37.890625 33.296875 31.953125 33.296875 28.53125 
L 33.296875 0 
L 40.90625 0 
z
" id="CMSS17-110"/>
       <path d="M 44.5 44 
C 38.796875 43.890625 33.90625 42.796875 29.90625 40.890625 
C 26.59375 43.484375 23.203125 44 20.90625 44 
C 12.203125 44 5.59375 36.8125 5.59375 28.5 
C 5.59375 23.140625 8.59375 19.09375 8.796875 18.890625 
C 7 16.390625 6 13.6875 6 10.6875 
C 6 7.1875 7.40625 4.6875 8.5 3.296875 
C 3.296875 0.09375 2.59375 -4.8125 2.59375 -6.703125 
C 2.59375 -14 11.703125 -20 23.40625 -20 
C 35.203125 -20 44.296875 -14 44.296875 -6.609375 
C 44.296875 7.1875 29 7.296875 24.796875 7.296875 
L 16.703125 7.296875 
C 15.203125 7.296875 11.203125 7.296875 11.203125 12.390625 
C 11.203125 14.390625 12.09375 15.6875 12.203125 15.796875 
C 13.703125 14.6875 16.796875 13 20.90625 13 
C 29.203125 13 36.09375 19.984375 36.09375 28.5 
C 36.09375 33.25 33.90625 36.703125 33 37.890625 
L 33.296875 37.890625 
C 33.59375 37.890625 37.796875 38.1875 39.296875 38.1875 
C 42.5 38.1875 42.796875 38.09375 45.59375 37.796875 
z
M 20.90625 18.5 
C 17.5 18.5 12.703125 20.578125 12.703125 28.5 
C 12.703125 37.109375 18.203125 38.484375 20.796875 38.484375 
C 24.203125 38.484375 29 36.40625 29 28.5 
C 29 19.875 23.5 18.5 20.90625 18.5 
z
M 24.703125 0 
C 27.09375 0 37.203125 0 37.203125 -6.8125 
C 37.203125 -11.109375 31 -14.5 23.5 -14.5 
C 15.90625 -14.5 9.703125 -11.203125 9.703125 -6.703125 
C 9.703125 -6.203125 9.703125 0 16.59375 0 
z
" id="CMSS17-103"/>
       <path d="M 35.5 69 
L 26.90625 69 
L 2.59375 0 
L 10.203125 0 
L 17.203125 20 
L 44 20 
L 51.09375 0 
L 59.796875 0 
z
M 42.09375 25.59375 
L 19.09375 25.59375 
C 23.90625 39.53125 29.90625 56.84375 30.59375 61.3125 
L 30.703125 61.3125 
C 31.40625 57.234375 33.40625 51.265625 35.09375 46.1875 
z
" id="CMSS17-65"/>
       <path d="M 14.796875 69 
L 7.40625 69 
L 7.40625 0 
L 14.796875 0 
z
" id="CMSS17-108"/>
       <path d="M 17 0.09375 
L 17 8 
L 9 8 
L 9 0 
L 11.5 0 
L 8.90625 -12.109375 
L 12.90625 -12.109375 
z
" id="CMSS17-44"/>
       <path d="M 44.296875 50 
C 44.296875 60.140625 41.09375 70 32.90625 70 
C 18.90625 70 4 40.859375 4 18.984375 
C 4 14.40625 5 -1 15.5 -1 
C 29.09375 -1 44.296875 27.421875 44.296875 50 
z
M 14 36 
C 15.5 41.859375 17.59375 50.203125 21.59375 57.265625 
C 24.90625 63.21875 28.40625 67.984375 32.796875 67.984375 
C 36.09375 67.984375 38.296875 65.203125 38.296875 55.671875 
C 38.296875 52.09375 38 47.125 35.09375 36 
z
M 34.40625 33 
C 31.90625 23.25 29.796875 17 26.203125 10.734375 
C 23.296875 5.65625 19.796875 1 15.59375 1 
C 12.5 1 10 3.375 10 13.21875 
C 10 19.671875 11.59375 26.4375 13.203125 33 
z
" id="CMMI12-18"/>
       <path d="M 45.703125 37.3125 
C 45.703125 43.59375 42.5 44 41.703125 44 
C 39.296875 44 37.09375 41.59375 37.09375 39.59375 
C 37.09375 38.40625 37.796875 37.703125 38.203125 37.3125 
C 39.203125 36.40625 41.796875 33.71875 41.796875 28.53125 
C 41.796875 24.34375 35.796875 1 23.796875 1 
C 17.703125 1 16.5 6.078125 16.5 9.765625 
C 16.5 14.765625 18.796875 21.75 21.5 28.921875 
C 23.09375 33.015625 23.5 34.015625 23.5 36.015625 
C 23.5 40.203125 20.5 44 15.59375 44 
C 6.40625 44 2.703125 29.53125 2.703125 28.71875 
C 2.703125 28.328125 3.09375 27.828125 3.796875 27.828125 
C 4.703125 27.828125 4.796875 28.234375 5.203125 29.625 
C 7.59375 38.203125 11.5 41.984375 15.296875 41.984375 
C 16.203125 41.984375 17.90625 41.984375 17.90625 38.703125 
C 17.90625 36.109375 16.796875 33.21875 15.296875 29.421875 
C 10.5 16.65625 10.5 13.5625 10.5 11.171875 
C 10.5 8.96875 10.796875 4.890625 13.90625 2.09375 
C 17.5 -1 22.5 -1 23.40625 -1 
C 40 -1 45.703125 31.625 45.703125 37.3125 
z
" id="CMMI12-118"/>
       <path d="M 25.203125 75 
C 19.796875 69.484375 7.40625 56.671875 7.40625 25.046875 
C 7.40625 -6.6875 19.796875 -19.40625 25.203125 -25 
L 31.296875 -25 
C 19 -12.203125 15 5.71875 15 24.9375 
C 15 44.0625 18.796875 62.078125 31.296875 75 
z
" id="CMSS17-40"/>
       <path d="M 40.796875 69 
L 33.40625 69 
L 33.40625 38.984375 
C 30.296875 41.59375 25.203125 44 19.59375 44 
C 10.5 44 3.296875 34.046875 3.296875 21.484375 
C 3.296875 8.9375 10.40625 -1 19.296875 -1 
C 26.203125 -1 30.796875 2.6875 33.203125 4.796875 
L 33.203125 -0.203125 
L 40.796875 -0.203125 
z
M 33.203125 13.296875 
C 33.203125 11.875 33.203125 10.359375 30.09375 7.625 
C 28.09375 5.90625 25.703125 5.09375 23.40625 5.09375 
C 18 5.09375 10.90625 9.140625 10.90625 21.390625 
C 10.90625 34.140625 18.90625 37.890625 24.40625 37.890625 
C 28.09375 37.890625 31.09375 36.0625 33.203125 33.03125 
z
" id="CMSS17-100"/>
       <path d="M 17 8 
L 9 8 
L 9 0 
L 17 0 
z
" id="CMSS17-46"/>
       <path d="M 11.296875 -25 
C 16.703125 -19.5 29.09375 -6.6875 29.09375 24.9375 
C 29.09375 56.671875 16.703125 69.375 11.296875 75 
L 5.203125 75 
C 17.5 62.171875 21.5 44.265625 21.5 25.046875 
C 21.5 5.921875 17.703125 -12.09375 5.203125 -25 
z
" id="CMSS17-41"/>
      </defs>
      <use transform="scale(0.996264)" xlink:href="#CMSS17-86"/>
      <use transform="translate(62.217855 0)scale(0.996264)" xlink:href="#CMSS17-105"/>
      <use transform="translate(84.398578 0)scale(0.996264)" xlink:href="#CMSS17-101"/>
      <use transform="translate(126.0374 0)scale(0.996264)" xlink:href="#CMSS17-119"/>
      <use transform="translate(189.856945 0)scale(0.996264)" xlink:href="#CMSS17-105"/>
      <use transform="translate(212.037668 0)scale(0.996264)" xlink:href="#CMSS17-110"/>
      <use transform="translate(260.242611 0)scale(0.996264)" xlink:href="#CMSS17-103"/>
      <use transform="translate(338.315348 0)scale(0.996264)" xlink:href="#CMSS17-65"/>
      <use transform="translate(400.533203 0)scale(0.996264)" xlink:href="#CMSS17-110"/>
      <use transform="translate(448.738146 0)scale(0.996264)" xlink:href="#CMSS17-103"/>
      <use transform="translate(495.581769 0)scale(0.996264)" xlink:href="#CMSS17-108"/>
      <use transform="translate(517.762492 0)scale(0.996264)" xlink:href="#CMSS17-101"/>
      <use transform="translate(559.401314 0)scale(0.996264)" xlink:href="#CMSS17-44"/>
      <use transform="translate(616.654632 0)scale(0.996264)" xlink:href="#CMMI12-18"/>
      <use transform="translate(662.114422 -14.943915)scale(0.697382)" xlink:href="#CMMI12-118"/>
      <use transform="translate(729.356116 0)scale(0.996264)" xlink:href="#CMSS17-40"/>
      <use transform="translate(765.790031 0)scale(0.996264)" xlink:href="#CMSS17-100"/>
      <use transform="translate(813.994974 0)scale(0.996264)" xlink:href="#CMSS17-101"/>
      <use transform="translate(855.633796 0)scale(0.996264)" xlink:href="#CMSS17-103"/>
      <use transform="translate(902.477419 0)scale(0.996264)" xlink:href="#CMSS17-46"/>
      <use transform="translate(928.501624 0)scale(0.996264)" xlink:href="#CMSS17-41"/>
     </g>
    </g>
   </g>
   <g id="matplotlib.axis_2">
    <g id="ytick_1">
     <g id="line2d_19">
      <path clip-path="url(#pe09344a3de)" d="M 65.594034 390.826441 
L 570.24 390.826441 
" style="fill:none;stroke:#cccccc;stroke-linecap:round;"/>
     </g>
     <g id="line2d_20">
      <defs>
       <path d="M 0 0 
L -6 0 
" id="m272052768e" style="stroke:#262626;stroke-width:0.8;"/>
      </defs>
      <g>
       <use style="fill:#262626;stroke:#262626;stroke-width:0.8;" x="65.594034" xlink:href="#m272052768e" y="390.826441"/>
      </g>
     </g>
     <g id="text_11">
      <!-- $\mathdefault{0.0}$ -->
      <g style="fill:#262626;" transform="translate(38.643451 395.669379)scale(0.14 -0.14)">
       <use transform="scale(0.996264)" xlink:href="#CMR17-48"/>
       <use transform="translate(45.690477 0)scale(0.996264)" xlink:href="#CMMI12-58"/>
       <use transform="translate(72.787654 0)scale(0.996264)" xlink:href="#CMR17-48"/>
      </g>
     </g>
    </g>
    <g id="ytick_2">
     <g id="line2d_21">
      <path clip-path="url(#pe09344a3de)" d="M 65.594034 323.059212 
L 570.24 323.059212 
" style="fill:none;stroke:#cccccc;stroke-linecap:round;"/>
     </g>
     <g id="line2d_22">
      <g>
       <use style="fill:#262626;stroke:#262626;stroke-width:0.8;" x="65.594034" xlink:href="#m272052768e" y="323.059212"/>
      </g>
     </g>
     <g id="text_12">
      <!-- $\mathdefault{0.2}$ -->
      <g style="fill:#262626;" transform="translate(38.643451 327.90215)scale(0.14 -0.14)">
       <use transform="scale(0.996264)" xlink:href="#CMR17-48"/>
       <use transform="translate(45.690477 0)scale(0.996264)" xlink:href="#CMMI12-58"/>
       <use transform="translate(72.787654 0)scale(0.996264)" xlink:href="#CMR17-50"/>
      </g>
     </g>
    </g>
    <g id="ytick_3">
     <g id="line2d_23">
      <path clip-path="url(#pe09344a3de)" d="M 65.594034 255.291983 
L 570.24 255.291983 
" style="fill:none;stroke:#cccccc;stroke-linecap:round;"/>
     </g>
     <g id="line2d_24">
      <g>
       <use style="fill:#262626;stroke:#262626;stroke-width:0.8;" x="65.594034" xlink:href="#m272052768e" y="255.291983"/>
      </g>
     </g>
     <g id="text_13">
      <!-- $\mathdefault{0.4}$ -->
      <g style="fill:#262626;" transform="translate(38.643451 260.134921)scale(0.14 -0.14)">
       <defs>
        <path d="M 33.59375 64.796875 
C 33.59375 66.890625 33.5 67 31.703125 67 
L 2 19.59375 
L 2 17 
L 27.796875 17 
L 27.796875 7.1875 
C 27.796875 3.59375 27.59375 2.59375 20.59375 2.59375 
L 18.703125 2.59375 
L 18.703125 0 
C 21.90625 0.1875 27.296875 0.1875 30.703125 0.1875 
C 34.09375 0.1875 39.5 0.1875 42.703125 0 
L 42.703125 2.59375 
L 40.796875 2.59375 
C 33.796875 2.59375 33.59375 3.59375 33.59375 7.1875 
L 33.59375 17 
L 43.796875 17 
L 43.796875 19.59375 
L 33.59375 19.59375 
z
M 28.09375 58.171875 
L 28.09375 19.59375 
L 4 19.59375 
z
" id="CMR17-52"/>
       </defs>
       <use transform="scale(0.996264)" xlink:href="#CMR17-48"/>
       <use transform="translate(45.690477 0)scale(0.996264)" xlink:href="#CMMI12-58"/>
       <use transform="translate(72.787654 0)scale(0.996264)" xlink:href="#CMR17-52"/>
      </g>
     </g>
    </g>
    <g id="ytick_4">
     <g id="line2d_25">
      <path clip-path="url(#pe09344a3de)" d="M 65.594034 187.524753 
L 570.24 187.524753 
" style="fill:none;stroke:#cccccc;stroke-linecap:round;"/>
     </g>
     <g id="line2d_26">
      <g>
       <use style="fill:#262626;stroke:#262626;stroke-width:0.8;" x="65.594034" xlink:href="#m272052768e" y="187.524753"/>
      </g>
     </g>
     <g id="text_14">
      <!-- $\mathdefault{0.6}$ -->
      <g style="fill:#262626;" transform="translate(38.643451 192.367692)scale(0.14 -0.14)">
       <defs>
        <path d="M 10.59375 34.34375 
C 10.59375 58 21.796875 63.6875 28.296875 63.6875 
C 30.40625 63.6875 35.5 63.265625 37.5 59.09375 
C 35.90625 59.09375 32.90625 59.09375 32.90625 55.59375 
C 32.90625 52.890625 35.09375 52 36.5 52 
C 37.40625 52 40.09375 52.390625 40.09375 55.796875 
C 40.09375 62.296875 35.09375 66 28.203125 66 
C 16.296875 66 3.796875 53.296875 3.796875 31.421875 
C 3.796875 4.015625 15.09375 -2 23.09375 -2 
C 32.796875 -2 42 6.734375 42 20.234375 
C 42 32.828125 33.90625 42 23.703125 42 
C 17.59375 42 13.09375 37.96875 10.59375 30.921875 
z
M 23.09375 0.390625 
C 10.796875 0.390625 10.796875 18.9375 10.796875 22.65625 
C 10.796875 29.90625 14.203125 40.390625 23.5 40.390625 
C 25.203125 40.390625 30.09375 40.390625 33.40625 33.4375 
C 35.203125 29.515625 35.203125 25.375 35.203125 20.34375 
C 35.203125 14.90625 35.203125 10.875 33.09375 6.84375 
C 30.90625 2.703125 27.703125 0.390625 23.09375 0.390625 
z
" id="CMR17-54"/>
       </defs>
       <use transform="scale(0.996264)" xlink:href="#CMR17-48"/>
       <use transform="translate(45.690477 0)scale(0.996264)" xlink:href="#CMMI12-58"/>
       <use transform="translate(72.787654 0)scale(0.996264)" xlink:href="#CMR17-54"/>
      </g>
     </g>
    </g>
    <g id="ytick_5">
     <g id="line2d_27">
      <path clip-path="url(#pe09344a3de)" d="M 65.594034 119.757524 
L 570.24 119.757524 
" style="fill:none;stroke:#cccccc;stroke-linecap:round;"/>
     </g>
     <g id="line2d_28">
      <g>
       <use style="fill:#262626;stroke:#262626;stroke-width:0.8;" x="65.594034" xlink:href="#m272052768e" y="119.757524"/>
      </g>
     </g>
     <g id="text_15">
      <!-- $\mathdefault{0.8}$ -->
      <g style="fill:#262626;" transform="translate(38.643451 124.600462)scale(0.14 -0.14)">
       <defs>
        <path d="M 27.203125 35.765625 
C 33.5 38.96875 39.90625 43.796875 39.90625 51.53125 
C 39.90625 60.6875 31.09375 66 23 66 
C 13.90625 66 5.90625 59.375 5.90625 50.234375 
C 5.90625 47.71875 6.5 43.390625 10.40625 39.578125 
C 11.40625 38.578125 15.59375 35.5625 18.296875 33.65625 
C 13.796875 31.34375 3.296875 25.8125 3.296875 14.765625 
C 3.296875 4.40625 13.09375 -2 22.796875 -2 
C 33.5 -2 42.5 5.71875 42.5 15.96875 
C 42.5 25.109375 36.40625 29.328125 32.40625 32.046875 
z
M 14.09375 44.609375 
C 13.296875 45.109375 9.296875 48.21875 9.296875 52.9375 
C 9.296875 59.078125 15.59375 63.6875 22.796875 63.6875 
C 30.703125 63.6875 36.5 58.0625 36.5 51.53125 
C 36.5 42.1875 26.09375 36.859375 25.59375 36.859375 
C 25.5 36.859375 25.40625 36.859375 24.59375 37.46875 
z
M 32.5 24 
C 34 22.90625 38.796875 19.578125 38.796875 13.453125 
C 38.796875 6.015625 31.40625 0.390625 23 0.390625 
C 13.90625 0.390625 7 6.921875 7 14.859375 
C 7 22.796875 13.09375 29.4375 20 32.546875 
z
" id="CMR17-56"/>
       </defs>
       <use transform="scale(0.996264)" xlink:href="#CMR17-48"/>
       <use transform="translate(45.690477 0)scale(0.996264)" xlink:href="#CMMI12-58"/>
       <use transform="translate(72.787654 0)scale(0.996264)" xlink:href="#CMR17-56"/>
      </g>
     </g>
    </g>
    <g id="ytick_6">
     <g id="line2d_29">
      <path clip-path="url(#pe09344a3de)" d="M 65.594034 51.990295 
L 570.24 51.990295 
" style="fill:none;stroke:#cccccc;stroke-linecap:round;"/>
     </g>
     <g id="line2d_30">
      <g>
       <use style="fill:#262626;stroke:#262626;stroke-width:0.8;" x="65.594034" xlink:href="#m272052768e" y="51.990295"/>
      </g>
     </g>
     <g id="text_16">
      <!-- $\mathdefault{1.0}$ -->
      <g style="fill:#262626;" transform="translate(38.643451 56.833233)scale(0.14 -0.14)">
       <use transform="scale(0.996264)" xlink:href="#CMR17-49"/>
       <use transform="translate(45.690477 0)scale(0.996264)" xlink:href="#CMMI12-58"/>
       <use transform="translate(72.787654 0)scale(0.996264)" xlink:href="#CMR17-48"/>
      </g>
     </g>
    </g>
    <g id="text_17">
     <!-- $\tilde{\mathcal{F}}(\theta_v)$ -->
     <g style="fill:#262626;" transform="translate(30.459146 241.552894)rotate(-90)scale(0.168 -0.168)">
      <defs>
       <path d="M 37.5 65.59375 
C 34.09375 62.296875 32.203125 60.390625 29.09375 60.390625 
C 26.90625 60.390625 25.40625 61.5 23.296875 63 
C 21.296875 64.390625 19.703125 65.59375 17.5 65.59375 
C 13.90625 65.59375 11.40625 62.6875 7.203125 58.09375 
L 8.296875 57 
C 11.703125 60.296875 13.59375 62.1875 16.703125 62.1875 
C 18.90625 62.1875 20.40625 61.09375 22.5 59.59375 
C 24.5 58.1875 26.09375 57 28.296875 57 
C 31.90625 57 34.40625 59.890625 38.59375 64.5 
z
" id="CMR17-126"/>
       <path d="M 83 64.09375 
C 83 68.6875 75.296875 68 72.203125 68 
L 34.5 68 
C 29.5 68 20.59375 65.09375 19 59.6875 
C 19.203125 59.09375 19.40625 58.984375 20 58.984375 
C 22.203125 58.984375 25.203125 60.796875 26.59375 62.296875 
C 29.703125 62.296875 32.703125 62.484375 35.796875 62.484375 
L 42 62.484375 
C 42 62.484375 41.59375 60.6875 41.59375 60.59375 
C 37.703125 42.296875 31.796875 26.890625 27.40625 17.375 
C 26.796875 16.109375 21.40625 3.796875 20 2.59375 
C 15.59375 2.59375 12.296875 5 10.5 8.890625 
C 10.203125 9.5 10.203125 9.890625 9.5 9.890625 
C 7.203125 9.890625 1.703125 6.6875 1.703125 5 
C 1.703125 4.796875 1.796875 4.59375 1.90625 4.390625 
C 3.703125 -0.3125 8.203125 -3 13.09375 -3 
C 18.203125 -3 24.09375 0.6875 27.296875 4.390625 
C 30.59375 8.1875 37.203125 24.171875 39.796875 30 
L 59.09375 30 
C 59 29.890625 58.90625 29.796875 58.90625 29.6875 
C 58.90625 29.3125 59.5 29.015625 59.90625 29.015625 
C 62.09375 29.015625 67.796875 31.796875 67.796875 34.890625 
C 67.796875 35.59375 67.09375 35.5 65.90625 35.5 
L 41.90625 35.5 
C 44.5 44.484375 47.90625 53.296875 49.703125 62.484375 
L 62.90625 62.484375 
C 65.40625 62.484375 72.40625 62.984375 74.203125 60.796875 
C 74.40625 60.1875 74.09375 59.1875 74.40625 58.6875 
C 74.59375 58.484375 74.90625 58.390625 75.203125 58.390625 
C 77.59375 58.390625 83 61.390625 83 64.09375 
z
" id="CMSY10-70"/>
       <path d="M 30.59375 -24.40625 
C 30.59375 -24.3125 30.59375 -24.109375 30.296875 -23.8125 
C 25.703125 -19.109375 13.40625 -6.296875 13.40625 24.9375 
C 13.40625 56.171875 25.5 68.875 30.40625 73.890625 
C 30.40625 73.984375 30.59375 74.1875 30.59375 74.484375 
C 30.59375 74.796875 30.296875 75 29.90625 75 
C 28.796875 75 20.296875 67.578125 15.40625 56.5625 
C 10.40625 45.453125 9 34.65625 9 25.046875 
C 9 17.828125 9.703125 5.625 15.703125 -7.296875 
C 20.5 -17.703125 28.703125 -25 29.90625 -25 
C 30.40625 -25 30.59375 -24.8125 30.59375 -24.40625 
z
" id="CMR17-40"/>
       <path d="M 26.296875 24.9375 
C 26.296875 32.140625 25.59375 44.359375 19.59375 57.265625 
C 14.796875 67.6875 6.59375 75 5.40625 75 
C 5.09375 75 4.703125 74.890625 4.703125 74.390625 
C 4.703125 74.1875 4.796875 74.09375 4.90625 73.890625 
C 9.703125 68.875 21.90625 56.171875 21.90625 25.046875 
C 21.90625 -6.1875 9.796875 -18.90625 4.90625 -23.90625 
C 4.796875 -24.109375 4.703125 -24.203125 4.703125 -24.40625 
C 4.703125 -24.90625 5.09375 -25 5.40625 -25 
C 6.5 -25 15 -17.609375 19.90625 -6.59375 
C 24.90625 4.515625 26.296875 15.328125 26.296875 24.9375 
z
" id="CMR17-41"/>
      </defs>
      <use transform="translate(28.974597 25.189642)scale(0.996264)" xlink:href="#CMR17-126"/>
      <use transform="scale(0.996264)" xlink:href="#CMSY10-70"/>
      <use transform="translate(81.49978 0)scale(0.996264)" xlink:href="#CMR17-40"/>
      <use transform="translate(116.780548 0)scale(0.996264)" xlink:href="#CMMI12-18"/>
      <use transform="translate(162.240338 -14.943915)scale(0.697382)" xlink:href="#CMMI12-118"/>
      <use transform="translate(198.25292 0)scale(0.996264)" xlink:href="#CMR17-41"/>
     </g>
    </g>
   </g>
   <g id="line2d_31">
    <path clip-path="url(#pe09344a3de)" d="M 88.532487 390.442273 
L 88.532487 390.058105 
L 89.725943 390.058105 
L 89.725943 389.673937 
L 92.192148 389.673937 
L 92.192148 389.289769 
L 93.789447 389.289769 
L 93.789447 388.905601 
L 102.514761 388.905601 
L 102.514761 388.521433 
L 103.862546 388.521433 
L 103.862546 388.137265 
L 104.091682 388.137265 
L 104.091682 387.753097 
L 104.671998 387.753097 
L 104.671998 387.368929 
L 106.636182 387.368929 
L 106.636182 386.984761 
L 106.82187 386.984761 
L 106.82187 386.600593 
L 107.053454 386.600593 
L 107.053454 386.216425 
L 107.893639 386.216425 
L 107.893639 385.832257 
L 111.066441 385.832257 
L 111.066441 385.44809 
L 112.027544 385.44809 
L 112.027544 385.063922 
L 112.209948 385.063922 
L 112.209948 384.679754 
L 113.936282 384.679754 
L 113.936282 384.295586 
L 114.309059 384.295586 
L 114.309059 383.911418 
L 114.96347 383.911418 
L 114.96347 383.52725 
L 116.30693 383.52725 
L 116.30693 383.143082 
L 119.280406 383.143082 
L 119.280406 382.758914 
L 120.16437 382.758914 
L 120.16437 382.374746 
L 120.280561 382.374746 
L 120.280561 381.990578 
L 120.448748 381.990578 
L 120.448748 381.60641 
L 122.145589 381.60641 
L 122.145589 381.222242 
L 123.83013 381.222242 
L 123.83013 380.838074 
L 124.061176 380.838074 
L 124.061176 380.453906 
L 125.647049 380.453906 
L 125.647049 380.069738 
L 125.878728 380.069738 
L 125.878728 379.68557 
L 127.127752 379.68557 
L 127.127752 379.301402 
L 128.234397 379.301402 
L 128.234397 378.917234 
L 128.487116 378.917234 
L 128.582129 378.148898 
L 129.15173 378.148898 
L 129.15173 377.76473 
L 129.454403 377.76473 
L 129.454403 377.380562 
L 129.617022 377.380562 
L 129.617022 376.996394 
L 132.377856 376.996394 
L 132.377856 376.612226 
L 133.350047 376.612226 
L 133.350047 376.228058 
L 134.410741 376.228058 
L 134.410741 375.84389 
L 135.513304 375.84389 
L 135.513304 375.459722 
L 136.339194 375.459722 
L 136.339194 375.075554 
L 136.55825 375.075554 
L 136.55825 374.691386 
L 136.725146 374.691386 
L 136.725146 374.307218 
L 137.867231 374.307218 
L 137.867231 373.923051 
L 140.806348 373.923051 
L 140.806348 373.538883 
L 141.603451 373.538883 
L 141.630919 372.770547 
L 143.356028 372.770547 
L 143.398235 372.002211 
L 143.635486 372.002211 
L 143.635486 371.618043 
L 143.900254 371.618043 
L 143.937073 370.849707 
L 144.160678 370.849707 
L 144.160678 370.465539 
L 144.656397 370.465539 
L 144.656397 370.081371 
L 146.205046 370.081371 
L 146.205046 369.697203 
L 146.672255 369.697203 
L 146.672255 369.313035 
L 147.015125 369.313035 
L 147.015125 368.928867 
L 147.135353 368.928867 
L 147.135353 368.544699 
L 147.40452 368.544699 
L 147.40452 368.160531 
L 148.270664 368.160531 
L 148.270664 367.776363 
L 148.441236 367.776363 
L 148.441236 367.392195 
L 149.381481 367.392195 
L 149.381481 367.008027 
L 149.89553 367.008027 
L 149.89553 366.623859 
L 151.593008 366.623859 
L 151.593008 366.239691 
L 152.045451 366.239691 
L 152.08906 365.471355 
L 153.437974 365.471355 
L 153.437974 365.087187 
L 154.122489 365.087187 
L 154.122489 364.703019 
L 154.759379 364.703019 
L 154.759379 364.318851 
L 155.452829 364.318851 
L 155.452829 363.934683 
L 156.375815 363.934683 
L 156.375815 363.550515 
L 157.291891 363.550515 
L 157.291891 363.166347 
L 157.412834 363.166347 
L 157.412834 362.78218 
L 157.722698 362.78218 
L 157.814707 362.013844 
L 160.215501 362.013844 
L 160.215501 361.629676 
L 160.393737 361.629676 
L 160.393737 361.245508 
L 160.74965 361.245508 
L 160.74965 360.86134 
L 161.218926 360.86134 
L 161.218926 360.477172 
L 161.519584 360.477172 
L 161.519584 360.093004 
L 161.857489 360.093004 
L 161.857489 359.708836 
L 162.412753 359.708836 
L 162.412753 359.324668 
L 162.780847 359.324668 
L 162.780847 358.9405 
L 163.0892 358.9405 
L 163.0892 358.556332 
L 163.390232 358.556332 
L 163.390232 358.172164 
L 163.924149 358.172164 
L 163.924149 357.787996 
L 164.384791 357.787996 
L 164.384791 357.403828 
L 164.754187 357.403828 
L 164.754187 357.01966 
L 164.959284 357.01966 
L 164.959284 356.635492 
L 165.142068 356.635492 
L 165.189363 355.867156 
L 166.017763 355.867156 
L 166.017763 355.482988 
L 166.334218 355.482988 
L 166.335981 354.714652 
L 166.578671 354.714652 
L 166.645041 353.946316 
L 167.515979 353.946316 
L 167.515979 353.562148 
L 169.118836 353.562148 
L 169.118836 353.17798 
L 169.235016 353.17798 
L 169.235016 352.793812 
L 169.605091 352.793812 
L 169.605091 352.409644 
L 169.923467 352.409644 
L 170.018241 350.872973 
L 170.725681 350.872973 
L 170.725681 350.488805 
L 171.599299 350.488805 
L 171.599299 350.104637 
L 172.855934 350.104637 
L 172.855934 349.720469 
L 173.320358 349.720469 
L 173.320358 349.336301 
L 173.912883 349.336301 
L 173.912883 348.952133 
L 174.23315 348.952133 
L 174.23315 348.567965 
L 175.13466 348.567965 
L 175.13466 348.183797 
L 175.681204 348.183797 
L 175.681204 347.799629 
L 176.05581 347.799629 
L 176.05581 347.415461 
L 176.259857 347.415461 
L 176.353064 346.647125 
L 177.187557 346.647125 
L 177.187557 346.262957 
L 177.375895 346.262957 
L 177.375895 345.878789 
L 177.548362 345.878789 
L 177.548362 345.494621 
L 177.671747 345.494621 
L 177.758093 344.726285 
L 178.965994 344.726285 
L 178.965994 344.342117 
L 179.387944 344.342117 
L 179.387944 343.957949 
L 180.519534 343.957949 
L 180.519534 343.573781 
L 181.193512 343.573781 
L 181.193512 343.189613 
L 181.316538 343.189613 
L 181.417891 342.421277 
L 181.566523 342.421277 
L 181.566523 342.037109 
L 182.15524 342.037109 
L 182.165072 341.268773 
L 182.445811 341.268773 
L 182.445811 340.884605 
L 183.175894 340.884605 
L 183.175894 340.500437 
L 183.760364 340.500437 
L 183.760364 340.11627 
L 183.976995 340.11627 
L 183.976995 339.732102 
L 184.568221 339.732102 
L 184.568221 339.347934 
L 185.133638 339.347934 
L 185.133638 338.963766 
L 185.349779 338.963766 
L 185.349779 338.579598 
L 185.901467 338.579598 
L 185.91628 337.811262 
L 186.037539 337.811262 
L 186.037539 337.427094 
L 186.796912 337.427094 
L 186.837913 336.658758 
L 187.007814 336.658758 
L 187.007814 336.27459 
L 187.310029 336.27459 
L 187.399013 335.506254 
L 188.244176 335.506254 
L 188.244176 335.122086 
L 189.130423 335.122086 
L 189.130423 334.737918 
L 189.256267 334.737918 
L 189.256267 334.35375 
L 189.518331 334.35375 
L 189.518331 333.969582 
L 190.874615 333.969582 
L 190.889997 333.201246 
L 191.100082 333.201246 
L 191.115933 332.43291 
L 192.204054 332.43291 
L 192.242209 331.664574 
L 192.850669 331.664574 
L 192.850669 331.280406 
L 193.071108 331.280406 
L 193.071108 330.896238 
L 193.400849 330.896238 
L 193.400849 330.51207 
L 193.520525 330.51207 
L 193.520525 330.127902 
L 193.738318 330.127902 
L 193.738318 329.743734 
L 194.347746 329.743734 
L 194.347746 329.359566 
L 195.153757 329.359566 
L 195.153757 328.975399 
L 195.727752 328.975399 
L 195.727752 328.591231 
L 196.046063 328.591231 
L 196.046063 328.207063 
L 197.650521 328.207063 
L 197.711662 327.438727 
L 198.593488 327.438727 
L 198.594186 326.670391 
L 199.459894 326.670391 
L 199.459894 326.286223 
L 199.811612 326.286223 
L 199.811612 325.902055 
L 200.208752 325.902055 
L 200.208752 325.517887 
L 200.913612 325.517887 
L 200.913612 325.133719 
L 201.570482 325.133719 
L 201.570482 324.749551 
L 202.006876 324.749551 
L 202.006876 324.365383 
L 202.230494 324.365383 
L 202.230494 323.981215 
L 202.932275 323.981215 
L 202.937426 323.212879 
L 203.611849 323.212879 
L 203.611849 322.828711 
L 203.84573 322.828711 
L 203.901991 322.060375 
L 204.036782 322.060375 
L 204.036782 321.676207 
L 205.570677 321.676207 
L 205.570677 321.292039 
L 206.024087 321.292039 
L 206.024087 320.907871 
L 206.496336 320.907871 
L 206.496336 320.523703 
L 206.809201 320.523703 
L 206.809201 320.139535 
L 207.006379 320.139535 
L 207.006379 319.755367 
L 207.268663 319.755367 
L 207.268663 319.371199 
L 207.569113 319.371199 
L 207.569113 318.987031 
L 207.820053 318.987031 
L 207.890454 318.218695 
L 208.045813 318.218695 
L 208.109336 317.45036 
L 209.373406 317.45036 
L 209.373406 317.066192 
L 209.636031 317.066192 
L 209.722743 316.297856 
L 210.715339 316.297856 
L 210.715339 315.913688 
L 210.972705 315.913688 
L 210.972705 315.52952 
L 211.20402 315.52952 
L 211.223744 314.761184 
L 211.512872 314.761184 
L 211.512872 314.377016 
L 211.78365 314.377016 
L 211.840824 313.60868 
L 212.631763 313.60868 
L 212.653685 312.840344 
L 212.853611 312.840344 
L 212.853611 312.456176 
L 213.143394 312.456176 
L 213.143394 312.072008 
L 213.301861 312.072008 
L 213.301861 311.68784 
L 213.462421 311.68784 
L 213.462421 311.303672 
L 213.773152 311.303672 
L 213.773152 310.919504 
L 213.984603 310.919504 
L 213.984603 310.535336 
L 214.412549 310.535336 
L 214.412549 310.151168 
L 215.123907 310.151168 
L 215.123907 309.767 
L 215.522737 309.767 
L 215.549564 308.998664 
L 215.734421 308.998664 
L 215.734421 308.614496 
L 216.583626 308.614496 
L 216.583626 308.230328 
L 216.694989 308.230328 
L 216.694989 307.84616 
L 217.365399 307.84616 
L 217.365399 307.461992 
L 217.646948 307.461992 
L 217.750789 305.925321 
L 218.177143 305.925321 
L 218.177143 305.541153 
L 218.583503 305.541153 
L 218.650881 304.772817 
L 218.849145 304.772817 
L 218.849145 304.388649 
L 220.020484 304.388649 
L 220.020484 304.004481 
L 220.8512 304.004481 
L 220.8512 303.620313 
L 221.068429 303.620313 
L 221.068429 303.236145 
L 221.470321 303.236145 
L 221.470321 302.851977 
L 221.781112 302.851977 
L 221.781112 302.467809 
L 221.963357 302.467809 
L 221.963357 302.083641 
L 222.086083 302.083641 
L 222.086083 301.699473 
L 222.773483 301.699473 
L 222.773483 301.315305 
L 224.348954 301.315305 
L 224.348954 300.931137 
L 224.677961 300.931137 
L 224.677961 300.546969 
L 225.134008 300.546969 
L 225.178777 299.778633 
L 225.271626 299.778633 
L 225.271626 299.394465 
L 225.609415 299.394465 
L 225.609415 299.010297 
L 226.153484 299.010297 
L 226.251079 298.241961 
L 227.66593 298.241961 
L 227.727948 297.473625 
L 227.984353 297.473625 
L 227.984353 297.089457 
L 228.709258 297.089457 
L 228.812235 296.321121 
L 228.824889 296.321121 
L 228.84007 295.552785 
L 228.99431 295.552785 
L 228.99431 295.168618 
L 231.351146 295.168618 
L 231.351146 294.78445 
L 231.79692 294.78445 
L 231.79692 294.400282 
L 232.216994 294.400282 
L 232.216994 294.016114 
L 232.614415 294.016114 
L 232.614415 293.631946 
L 233.127072 293.631946 
L 233.127072 293.247778 
L 233.372396 293.247778 
L 233.372396 292.86361 
L 233.608019 292.86361 
L 233.608019 292.479442 
L 233.87666 292.479442 
L 233.87666 292.095274 
L 234.089647 292.095274 
L 234.186956 291.326938 
L 235.102372 291.326938 
L 235.102372 290.94277 
L 235.531813 290.94277 
L 235.531813 290.558602 
L 235.720157 290.558602 
L 235.720157 290.174434 
L 236.016968 290.174434 
L 236.016968 289.790266 
L 236.210602 289.790266 
L 236.298709 289.02193 
L 236.487254 289.02193 
L 236.487254 288.637762 
L 237.300358 288.637762 
L 237.393715 287.485258 
L 237.416084 287.485258 
L 237.416084 287.10109 
L 237.662801 287.10109 
L 237.662801 286.716922 
L 237.879993 286.716922 
L 237.879993 286.332754 
L 238.267467 286.332754 
L 238.377376 285.564418 
L 238.484615 285.564418 
L 238.484615 285.18025 
L 238.599598 285.18025 
L 238.702578 284.411914 
L 239.887971 284.411914 
L 239.887971 284.027746 
L 241.01594 284.027746 
L 241.01594 283.643579 
L 241.337027 283.643579 
L 241.431851 282.875243 
L 241.543143 282.875243 
L 241.543143 282.491075 
L 241.6972 282.491075 
L 241.6972 282.106907 
L 241.823667 282.106907 
L 241.823667 281.722739 
L 242.158342 281.722739 
L 242.158342 281.338571 
L 242.296391 281.338571 
L 242.296391 280.954403 
L 242.483719 280.954403 
L 242.581086 280.186067 
L 242.666583 280.186067 
L 242.666583 279.801899 
L 243.49959 279.801899 
L 243.49959 279.417731 
L 244.022165 279.417731 
L 244.022165 279.033563 
L 245.039827 279.033563 
L 245.039827 278.649395 
L 245.22187 278.649395 
L 245.22187 278.265227 
L 245.533884 278.265227 
L 245.533884 277.881059 
L 246.177103 277.881059 
L 246.177103 277.496891 
L 246.418511 277.496891 
L 246.503126 276.728555 
L 246.752638 276.728555 
L 246.752638 276.344387 
L 246.974401 276.344387 
L 246.974401 275.960219 
L 247.593414 275.960219 
L 247.593414 275.576051 
L 247.872882 275.576051 
L 247.873344 274.807715 
L 248.235019 274.807715 
L 248.235019 274.423547 
L 248.420845 274.423547 
L 248.420845 274.039379 
L 248.608907 274.039379 
L 248.608907 273.655211 
L 248.73753 273.655211 
L 248.783704 272.886875 
L 249.075857 272.886875 
L 249.075857 272.502708 
L 250.508915 272.502708 
L 250.508915 272.11854 
L 250.622895 272.11854 
L 250.622895 271.734372 
L 251.110911 271.734372 
L 251.110911 271.350204 
L 251.516115 271.350204 
L 251.516115 270.966036 
L 251.663087 270.966036 
L 251.758723 270.1977 
L 252.382214 270.1977 
L 252.44914 269.429364 
L 253.128873 269.429364 
L 253.156845 268.661028 
L 253.498375 268.661028 
L 253.498375 268.27686 
L 253.722515 268.27686 
L 253.722515 267.892692 
L 254.200167 267.892692 
L 254.200167 267.508524 
L 255.135773 267.508524 
L 255.135773 267.124356 
L 255.304545 267.124356 
L 255.304545 266.740188 
L 255.601754 266.740188 
L 255.601754 266.35602 
L 255.836036 266.35602 
L 255.836036 265.971852 
L 256.438246 265.971852 
L 256.438246 265.587684 
L 256.61687 265.587684 
L 256.61687 265.203516 
L 256.914072 265.203516 
L 256.914072 264.819348 
L 257.137146 264.819348 
L 257.137146 264.43518 
L 257.586117 264.43518 
L 257.627507 263.666844 
L 257.888401 263.666844 
L 257.888401 263.282676 
L 258.511285 263.282676 
L 258.511285 262.898508 
L 258.988136 262.898508 
L 258.988136 262.51434 
L 259.178571 262.51434 
L 259.178571 262.130172 
L 259.408651 262.130172 
L 259.408651 261.746004 
L 260.095105 261.746004 
L 260.205697 260.977669 
L 260.250431 260.977669 
L 260.250431 260.593501 
L 260.534857 260.593501 
L 260.534857 260.209333 
L 260.871002 260.209333 
L 260.871002 259.825165 
L 261.29152 259.825165 
L 261.29152 259.440997 
L 262.264906 259.440997 
L 262.33514 257.904325 
L 262.57879 257.904325 
L 262.57879 257.520157 
L 262.724537 257.520157 
L 262.724537 257.135989 
L 262.957728 257.135989 
L 262.957728 256.751821 
L 263.52289 256.751821 
L 263.593793 255.599317 
L 263.825296 255.599317 
L 263.850481 254.830981 
L 263.967185 254.830981 
L 263.967185 254.446813 
L 264.638546 254.446813 
L 264.638546 254.062645 
L 266.030607 254.062645 
L 266.030607 253.678477 
L 268.24174 253.678477 
L 268.24174 253.294309 
L 268.436354 253.294309 
L 268.436354 252.910141 
L 268.68031 252.910141 
L 268.68031 252.525973 
L 268.885215 252.525973 
L 268.885215 252.141805 
L 270.169868 252.141805 
L 270.169868 251.757637 
L 270.457785 251.757637 
L 270.457785 251.373469 
L 270.734003 251.373469 
L 270.734003 250.989301 
L 270.94167 250.989301 
L 270.94167 250.605133 
L 271.074963 250.605133 
L 271.074963 250.220965 
L 271.438552 250.220965 
L 271.504656 249.45263 
L 272.122553 249.45263 
L 272.122553 249.068462 
L 272.337765 249.068462 
L 272.337765 248.684294 
L 272.75503 248.684294 
L 272.814547 247.53179 
L 273.379278 247.53179 
L 273.379278 247.147622 
L 273.517495 247.147622 
L 273.517495 246.763454 
L 273.65735 246.763454 
L 273.728176 245.995118 
L 273.901507 245.995118 
L 273.997983 244.842614 
L 274.217998 244.842614 
L 274.24624 244.074278 
L 274.369209 244.074278 
L 274.369209 243.69011 
L 274.603273 243.69011 
L 274.606968 242.921774 
L 274.948913 242.921774 
L 274.948913 242.537606 
L 275.27474 242.537606 
L 275.27474 242.153438 
L 276.165361 242.153438 
L 276.262399 241.385102 
L 277.525931 241.385102 
L 277.525931 241.000934 
L 278.078571 241.000934 
L 278.18894 240.232598 
L 278.265386 240.232598 
L 278.265386 239.84843 
L 278.399562 239.84843 
L 278.399562 239.464262 
L 278.582779 239.464262 
L 278.690056 238.695927 
L 278.700873 238.695927 
L 278.789047 237.927591 
L 278.935634 237.927591 
L 278.969396 236.775087 
L 279.40467 236.775087 
L 279.40467 236.390919 
L 279.527816 236.390919 
L 279.527816 236.006751 
L 279.647138 236.006751 
L 279.744585 235.238415 
L 280.327522 235.238415 
L 280.327522 234.854247 
L 280.688859 234.854247 
L 280.688859 234.470079 
L 280.943694 234.470079 
L 280.943694 234.085911 
L 281.130463 234.085911 
L 281.130463 233.701743 
L 281.734351 233.701743 
L 281.734351 233.317575 
L 282.653077 233.317575 
L 282.653077 232.933407 
L 283.111998 232.933407 
L 283.111998 232.549239 
L 283.334848 232.549239 
L 283.334848 232.165071 
L 283.766676 232.165071 
L 283.86227 231.396735 
L 284.010781 231.396735 
L 284.010781 231.012567 
L 284.12355 231.012567 
L 284.216405 230.244231 
L 284.562512 230.244231 
L 284.562512 229.860063 
L 284.75951 229.860063 
L 284.75951 229.475895 
L 284.944127 229.475895 
L 284.944127 229.091727 
L 285.175829 229.091727 
L 285.176831 228.323391 
L 285.653879 228.323391 
L 285.745945 227.555055 
L 285.76667 227.555055 
L 285.76667 227.170888 
L 285.9904 227.170888 
L 285.9904 226.78672 
L 286.299829 226.78672 
L 286.299829 226.402552 
L 287.10173 226.402552 
L 287.10173 226.018384 
L 287.856233 226.018384 
L 287.856233 225.634216 
L 288.292357 225.634216 
L 288.292357 225.250048 
L 288.79836 225.250048 
L 288.79836 224.86588 
L 289.030459 224.86588 
L 289.030459 224.481712 
L 289.15645 224.481712 
L 289.15645 224.097544 
L 289.553742 224.097544 
L 289.609359 223.329208 
L 289.817205 223.329208 
L 289.817205 222.94504 
L 289.992939 222.94504 
L 290.063781 222.176704 
L 290.24124 222.176704 
L 290.24124 221.792536 
L 290.514175 221.792536 
L 290.61057 221.0242 
L 291.298166 221.0242 
L 291.403625 220.255864 
L 291.753388 220.255864 
L 291.753388 219.871696 
L 291.991633 219.871696 
L 292.081032 219.10336 
L 292.374541 219.10336 
L 292.374541 218.719192 
L 292.72053 218.719192 
L 292.72053 218.335024 
L 293.069319 218.335024 
L 293.145509 217.566688 
L 293.453329 217.566688 
L 293.453329 217.18252 
L 293.738792 217.18252 
L 293.809991 216.414184 
L 294.568637 216.414184 
L 294.568637 216.030017 
L 294.742011 216.030017 
L 294.742011 215.645849 
L 295.121966 215.645849 
L 295.121966 215.261681 
L 295.49999 215.261681 
L 295.49999 214.877513 
L 295.981924 214.877513 
L 295.981924 214.493345 
L 296.25024 214.493345 
L 296.25024 214.109177 
L 296.472618 214.109177 
L 296.472618 213.725009 
L 296.850491 213.725009 
L 296.850491 213.340841 
L 297.802476 213.340841 
L 297.802476 212.956673 
L 298.016044 212.956673 
L 298.016044 212.572505 
L 298.229432 212.572505 
L 298.229432 212.188337 
L 298.51961 212.188337 
L 298.566174 211.420001 
L 298.891338 211.420001 
L 298.891338 211.035833 
L 299.309192 211.035833 
L 299.309192 210.651665 
L 299.611431 210.651665 
L 299.611431 210.267497 
L 300.045219 210.267497 
L 300.045219 209.883329 
L 300.344508 209.883329 
L 300.383088 209.114993 
L 300.476145 209.114993 
L 300.476145 208.730825 
L 300.678417 208.730825 
L 300.7695 207.962489 
L 301.12887 207.962489 
L 301.222752 207.194153 
L 302.932592 207.194153 
L 302.932592 206.809985 
L 303.075488 206.809985 
L 303.130716 206.041649 
L 304.059649 206.041649 
L 304.059649 205.657481 
L 305.058028 205.657481 
L 305.058028 205.273313 
L 305.236616 205.273313 
L 305.236616 204.889145 
L 306.339345 204.889145 
L 306.339345 204.504978 
L 306.649094 204.504978 
L 306.649094 204.12081 
L 306.792701 204.12081 
L 306.792701 203.736642 
L 307.147008 203.736642 
L 307.183061 202.968306 
L 307.297478 202.968306 
L 307.297478 202.584138 
L 307.51103 202.584138 
L 307.51103 202.19997 
L 307.936886 202.19997 
L 307.936886 201.815802 
L 308.221029 201.815802 
L 308.221029 201.431634 
L 308.542249 201.431634 
L 308.542249 201.047466 
L 309.166232 201.047466 
L 309.166232 200.663298 
L 310.049375 200.663298 
L 310.049375 200.27913 
L 310.726216 200.27913 
L 310.761986 199.510794 
L 310.864227 199.510794 
L 310.864227 199.126626 
L 311.31086 199.126626 
L 311.31086 198.742458 
L 311.770394 198.742458 
L 311.770394 198.35829 
L 311.971991 198.35829 
L 311.980156 197.589954 
L 313.196665 197.589954 
L 313.298619 196.821618 
L 313.542975 196.821618 
L 313.542975 196.43745 
L 313.809668 196.43745 
L 313.856816 195.284946 
L 314.149696 195.284946 
L 314.149696 194.900778 
L 314.37191 194.900778 
L 314.37191 194.51661 
L 314.62667 194.51661 
L 314.62667 194.132442 
L 314.968481 194.132442 
L 314.968481 193.748274 
L 315.492407 193.748274 
L 315.492407 193.364107 
L 315.628228 193.364107 
L 315.628228 192.979939 
L 316.044939 192.979939 
L 316.044939 192.595771 
L 316.352661 192.595771 
L 316.352661 192.211603 
L 316.664475 192.211603 
L 316.664475 191.827435 
L 316.97759 191.827435 
L 317.029919 191.059099 
L 317.538517 191.059099 
L 317.609918 189.906595 
L 317.682202 189.906595 
L 317.682202 189.522427 
L 317.893088 189.522427 
L 317.893088 189.138259 
L 318.597443 189.138259 
L 318.597443 188.754091 
L 318.812018 188.754091 
L 318.812018 188.369923 
L 318.934815 188.369923 
L 319.029341 187.217419 
L 319.109166 187.217419 
L 319.109166 186.833251 
L 319.373815 186.833251 
L 319.376119 186.064915 
L 319.8281 186.064915 
L 319.8281 185.680747 
L 320.030363 185.680747 
L 320.079616 184.912411 
L 320.846103 184.912411 
L 320.846103 184.528243 
L 321.202883 184.528243 
L 321.202883 184.144075 
L 321.403852 184.144075 
L 321.429074 183.375739 
L 321.590667 183.375739 
L 321.590667 182.991571 
L 321.703589 182.991571 
L 321.703589 182.607403 
L 322.544279 182.607403 
L 322.63331 181.839068 
L 322.678862 181.839068 
L 322.678862 181.4549 
L 323.070042 181.4549 
L 323.132267 180.686564 
L 323.858628 180.686564 
L 323.858628 180.302396 
L 324.401903 180.302396 
L 324.401903 179.918228 
L 324.693832 179.918228 
L 324.693832 179.53406 
L 325.145574 179.53406 
L 325.145574 179.149892 
L 325.533463 179.149892 
L 325.533463 178.765724 
L 326.153508 178.765724 
L 326.252525 177.997388 
L 326.519142 177.997388 
L 326.519142 177.61322 
L 326.93672 177.61322 
L 326.93672 177.229052 
L 327.110196 177.229052 
L 327.139354 176.460716 
L 327.347574 176.460716 
L 327.366621 175.69238 
L 327.552127 175.69238 
L 327.552127 175.308212 
L 327.957991 175.308212 
L 327.957991 174.924044 
L 328.241753 174.924044 
L 328.351596 174.155708 
L 328.718397 174.155708 
L 328.814921 173.387372 
L 328.975101 173.387372 
L 329.042222 172.619036 
L 329.535229 172.619036 
L 329.535229 172.234868 
L 329.665188 172.234868 
L 329.744675 171.082364 
L 329.785912 171.082364 
L 329.785912 170.698197 
L 329.925732 170.698197 
L 329.925732 170.314029 
L 330.168707 170.314029 
L 330.168707 169.929861 
L 330.75972 169.929861 
L 330.75972 169.545693 
L 331.527346 169.545693 
L 331.616901 168.777357 
L 331.71316 168.777357 
L 331.79771 168.009021 
L 331.882379 168.009021 
L 331.975704 167.240685 
L 331.995132 167.240685 
L 331.995132 166.856517 
L 332.18052 166.856517 
L 332.18052 166.472349 
L 332.744165 166.472349 
L 332.744165 166.088181 
L 332.865193 166.088181 
L 332.865193 165.704013 
L 333.175291 165.704013 
L 333.175291 165.319845 
L 333.482425 165.319845 
L 333.503644 164.551509 
L 333.974293 164.551509 
L 333.974293 164.167341 
L 334.101009 164.167341 
L 334.101009 163.783173 
L 334.43434 163.783173 
L 334.43434 163.399005 
L 335.135768 163.399005 
L 335.160026 162.630669 
L 335.490553 162.630669 
L 335.5751 161.862333 
L 335.614728 161.862333 
L 335.614728 161.478165 
L 335.992908 161.478165 
L 336.067352 160.709829 
L 336.21963 160.709829 
L 336.242614 159.941493 
L 338.000423 159.941493 
L 338.000423 159.557326 
L 339.043778 159.557326 
L 339.043778 159.173158 
L 339.204784 159.173158 
L 339.3136 158.020654 
L 339.596522 158.020654 
L 339.686532 157.252318 
L 339.84839 157.252318 
L 339.848587 156.483982 
L 339.975596 156.483982 
L 340.035866 155.715646 
L 340.350308 155.715646 
L 340.35599 154.94731 
L 341.031717 154.94731 
L 341.048196 154.178974 
L 341.964672 154.178974 
L 341.964672 153.794806 
L 342.747835 153.794806 
L 342.747835 153.410638 
L 343.815929 153.410638 
L 343.887596 152.642302 
L 344.345588 152.642302 
L 344.345588 152.258134 
L 344.847991 152.258134 
L 344.847991 151.873966 
L 344.995658 151.873966 
L 344.995658 151.489798 
L 345.12307 151.489798 
L 345.223818 150.337294 
L 345.256437 150.337294 
L 345.256437 149.953126 
L 345.722092 149.953126 
L 345.722092 149.568958 
L 346.531694 149.568958 
L 346.531694 149.18479 
L 346.837333 149.18479 
L 346.837333 148.800622 
L 347.768268 148.800622 
L 347.819104 148.032287 
L 348.288068 148.032287 
L 348.350753 146.879783 
L 348.864325 146.879783 
L 348.864325 146.495615 
L 349.741554 146.495615 
L 349.741554 146.111447 
L 350.573801 146.111447 
L 350.63552 145.343111 
L 350.862791 145.343111 
L 350.862791 144.958943 
L 351.024787 144.958943 
L 351.025294 144.190607 
L 351.407926 144.190607 
L 351.504194 143.422271 
L 351.634513 143.422271 
L 351.701582 142.269767 
L 352.081915 142.269767 
L 352.081915 141.885599 
L 352.879372 141.885599 
L 352.879372 141.501431 
L 353.055391 141.501431 
L 353.055391 141.117263 
L 353.330721 141.117263 
L 353.420164 140.348927 
L 353.683637 140.348927 
L 353.776414 139.196423 
L 354.843728 139.196423 
L 354.843728 138.812255 
L 355.073509 138.812255 
L 355.153611 138.043919 
L 355.245184 138.043919 
L 355.245184 137.659751 
L 355.360844 137.659751 
L 355.360844 137.275583 
L 355.74962 137.275583 
L 355.815476 136.12308 
L 356.190103 136.12308 
L 356.286048 135.354744 
L 356.539231 135.354744 
L 356.539231 134.970576 
L 356.724042 134.970576 
L 356.724042 134.586408 
L 357.043565 134.586408 
L 357.043565 134.20224 
L 357.171444 134.20224 
L 357.171444 133.818072 
L 357.551852 133.818072 
L 357.551852 133.433904 
L 359.213772 133.433904 
L 359.213772 133.049736 
L 359.762771 133.049736 
L 359.762771 132.665568 
L 359.97513 132.665568 
L 359.97513 132.2814 
L 360.121849 132.2814 
L 360.121849 131.897232 
L 360.332822 131.897232 
L 360.332822 131.513064 
L 360.707271 131.513064 
L 360.724078 130.744728 
L 361.707629 130.744728 
L 361.707629 130.36056 
L 362.04622 130.36056 
L 362.120952 129.592224 
L 363.120691 129.592224 
L 363.120691 129.208056 
L 363.584938 129.208056 
L 363.584938 128.823888 
L 363.917186 128.823888 
L 363.917186 128.43972 
L 364.197657 128.43972 
L 364.197657 128.055552 
L 364.818134 128.055552 
L 364.818134 127.671384 
L 365.332968 127.671384 
L 365.332968 127.287216 
L 365.703516 127.287216 
L 365.810108 126.134712 
L 365.861898 126.134712 
L 365.861898 125.750545 
L 366.232472 125.750545 
L 366.250179 124.982209 
L 366.488969 124.982209 
L 366.488969 124.598041 
L 366.859818 124.598041 
L 366.921082 123.829705 
L 367.038017 123.829705 
L 367.038017 123.445537 
L 367.983477 123.445537 
L 367.983477 123.061369 
L 368.41315 123.061369 
L 368.473394 122.293033 
L 368.704051 122.293033 
L 368.795526 121.524697 
L 369.060193 121.524697 
L 369.116888 119.603857 
L 369.405927 119.603857 
L 369.405927 119.219689 
L 369.947158 119.219689 
L 369.947158 118.835521 
L 370.900623 118.835521 
L 370.900623 118.451353 
L 371.168774 118.451353 
L 371.168774 118.067185 
L 371.971008 118.067185 
L 371.971008 117.683017 
L 372.222977 117.683017 
L 372.301409 116.914681 
L 372.561117 116.914681 
L 372.561117 116.530513 
L 372.817071 116.530513 
L 372.817071 116.146345 
L 373.110969 116.146345 
L 373.110969 115.762177 
L 373.274705 115.762177 
L 373.274705 115.378009 
L 373.499349 115.378009 
L 373.499349 114.993841 
L 373.644504 114.993841 
L 373.644504 114.609673 
L 374.207044 114.609673 
L 374.207044 114.225506 
L 374.37475 114.225506 
L 374.37475 113.841338 
L 374.520477 113.841338 
L 374.520477 113.45717 
L 374.759638 113.45717 
L 374.759638 113.073002 
L 374.983796 113.073002 
L 374.983796 112.688834 
L 375.873022 112.688834 
L 375.873022 112.304666 
L 376.055347 112.304666 
L 376.092224 111.53633 
L 376.368259 111.53633 
L 376.368259 111.152162 
L 376.592575 111.152162 
L 376.592575 110.767994 
L 376.703748 110.767994 
L 376.703748 110.383826 
L 376.970249 110.383826 
L 376.970249 109.999658 
L 377.28968 109.999658 
L 377.28968 109.61549 
L 377.470838 109.61549 
L 377.538382 108.078818 
L 377.770661 108.078818 
L 377.848198 107.310482 
L 377.942394 107.310482 
L 377.942394 106.926314 
L 378.643628 106.926314 
L 378.69344 106.157978 
L 378.92284 106.157978 
L 378.92284 105.77381 
L 379.275416 105.77381 
L 379.275416 105.389642 
L 379.41257 105.389642 
L 379.41257 105.005474 
L 379.759968 105.005474 
L 379.759968 104.621306 
L 380.082066 104.621306 
L 380.082066 104.237138 
L 380.333678 104.237138 
L 380.338475 103.468802 
L 380.459988 103.468802 
L 380.459988 103.084635 
L 380.684141 103.084635 
L 380.684141 102.700467 
L 381.705151 102.700467 
L 381.705151 102.316299 
L 382.440462 102.316299 
L 382.440462 101.932131 
L 382.725892 101.932131 
L 382.725892 101.547963 
L 384.13863 101.547963 
L 384.13863 101.163795 
L 384.60139 101.163795 
L 384.621083 100.395459 
L 384.731534 100.395459 
L 384.731534 100.011291 
L 385.200598 100.011291 
L 385.306854 99.242955 
L 387.009754 99.242955 
L 387.009754 98.858787 
L 387.210383 98.858787 
L 387.210383 98.474619 
L 388.019818 98.474619 
L 388.019818 98.090451 
L 389.04478 98.090451 
L 389.04478 97.706283 
L 389.17254 97.706283 
L 389.17254 97.322115 
L 389.59269 97.322115 
L 389.59269 96.937947 
L 389.755691 96.937947 
L 389.755691 96.553779 
L 390.369393 96.553779 
L 390.369393 96.169611 
L 390.877018 96.169611 
L 390.877018 95.785443 
L 391.664428 95.785443 
L 391.664428 95.401275 
L 392.067854 95.401275 
L 392.067854 95.017107 
L 392.292172 95.017107 
L 392.292172 94.632939 
L 393.209755 94.632939 
L 393.209755 94.248771 
L 393.335579 94.248771 
L 393.335579 93.864603 
L 393.447625 93.864603 
L 393.447625 93.480435 
L 393.72154 93.480435 
L 393.767453 92.712099 
L 393.914063 92.712099 
L 393.914063 92.327931 
L 394.633912 92.327931 
L 394.646482 91.559596 
L 395.069043 91.559596 
L 395.069043 91.175428 
L 395.729046 91.175428 
L 395.729046 90.79126 
L 396.925834 90.79126 
L 396.925834 90.407092 
L 397.389354 90.407092 
L 397.45223 89.638756 
L 398.191324 89.638756 
L 398.191324 89.254588 
L 398.389692 89.254588 
L 398.389692 88.87042 
L 398.642209 88.87042 
L 398.642209 88.486252 
L 398.83816 88.486252 
L 398.941903 87.717916 
L 400.256385 87.717916 
L 400.256385 87.333748 
L 400.616806 87.333748 
L 400.616806 86.94958 
L 400.912614 86.94958 
L 400.912614 86.565412 
L 401.397274 86.565412 
L 401.454145 85.797076 
L 401.906173 85.797076 
L 401.906173 85.412908 
L 402.913176 85.412908 
L 402.913176 85.02874 
L 404.185658 85.02874 
L 404.185658 84.644572 
L 405.695995 84.644572 
L 405.695995 84.260404 
L 405.890021 84.260404 
L 405.890021 83.876236 
L 406.286979 83.876236 
L 406.286979 83.492068 
L 406.958519 83.492068 
L 406.958519 83.1079 
L 407.261474 83.1079 
L 407.309204 82.339564 
L 407.651712 82.339564 
L 407.651712 81.955396 
L 408.202893 81.955396 
L 408.202893 81.571228 
L 408.511145 81.571228 
L 408.511145 81.18706 
L 409.42594 81.18706 
L 409.42594 80.802892 
L 409.684872 80.802892 
L 409.684872 80.418725 
L 410.238195 80.418725 
L 410.238195 80.034557 
L 410.61489 80.034557 
L 410.61489 79.650389 
L 410.87154 79.650389 
L 410.87154 79.266221 
L 411.078242 79.266221 
L 411.078242 78.882053 
L 412.803011 78.882053 
L 412.803011 78.497885 
L 413.657343 78.497885 
L 413.657343 78.113717 
L 413.897205 78.113717 
L 413.897205 77.729549 
L 414.771285 77.729549 
L 414.771285 77.345381 
L 417.000461 77.345381 
L 417.000461 76.961213 
L 417.320887 76.961213 
L 417.320887 76.577045 
L 419.22302 76.577045 
L 419.22302 76.192877 
L 419.838345 76.192877 
L 419.838345 75.808709 
L 420.29989 75.808709 
L 420.29989 75.424541 
L 420.63293 75.424541 
L 420.63293 75.040373 
L 420.966718 75.040373 
L 420.966718 74.656205 
L 421.220871 74.656205 
L 421.220871 74.272037 
L 421.4308 74.272037 
L 421.4308 73.887869 
L 421.662437 73.887869 
L 421.662437 73.503701 
L 421.957647 73.503701 
L 421.957647 73.119533 
L 423.137946 73.119533 
L 423.137946 72.735365 
L 424.262829 72.735365 
L 424.262829 72.351197 
L 426.447484 72.351197 
L 426.447484 71.967029 
L 426.698154 71.967029 
L 426.698154 71.582861 
L 427.616427 71.582861 
L 427.616427 71.198693 
L 427.832919 71.198693 
L 427.832919 70.814525 
L 428.184577 70.814525 
L 428.184577 70.430357 
L 428.844233 70.430357 
L 428.844233 70.046189 
L 429.181218 70.046189 
L 429.181218 69.662021 
L 429.326665 69.662021 
L 429.329886 68.893686 
L 431.297295 68.893686 
L 431.297295 68.509518 
L 431.802231 68.509518 
L 431.802231 68.12535 
L 432.591295 68.12535 
L 432.665589 67.357014 
L 434.335068 67.357014 
L 434.335068 66.972846 
L 434.892837 66.972846 
L 434.892837 66.588678 
L 436.228211 66.588678 
L 436.228211 66.20451 
L 436.72258 66.20451 
L 436.72258 65.820342 
L 438.937016 65.820342 
L 438.937016 65.436174 
L 439.274072 65.436174 
L 439.274072 65.052006 
L 440.139769 65.052006 
L 440.139769 64.667838 
L 441.914877 64.667838 
L 441.914877 64.28367 
L 443.31219 64.28367 
L 443.31219 63.899502 
L 444.99471 63.899502 
L 444.99471 63.515334 
L 447.920371 63.515334 
L 447.920371 63.131166 
L 449.043187 63.131166 
L 449.043187 62.746998 
L 450.470785 62.746998 
L 450.470785 62.36283 
L 450.74377 62.36283 
L 450.74377 61.978662 
L 450.98389 61.978662 
L 451.035813 61.210326 
L 451.513393 61.210326 
L 451.581068 60.44199 
L 452.047191 60.44199 
L 452.047191 60.057822 
L 452.870077 60.057822 
L 452.870077 59.673654 
L 453.508787 59.673654 
L 453.508787 59.289486 
L 454.338903 59.289486 
L 454.338903 58.905318 
L 456.434972 58.905318 
L 456.434972 58.52115 
L 458.438549 58.52115 
L 458.438549 58.136982 
L 459.993396 58.136982 
L 459.993396 57.752815 
L 461.29068 57.752815 
L 461.29068 57.368647 
L 463.048372 57.368647 
L 463.048372 56.984479 
L 464.355213 56.984479 
L 464.355213 56.600311 
L 465.126067 56.600311 
L 465.126067 56.216143 
L 465.541079 56.216143 
L 465.541079 55.831975 
L 465.697297 55.831975 
L 465.697297 55.447807 
L 466.53672 55.447807 
L 466.53672 55.063639 
L 467.150573 55.063639 
L 467.150573 54.679471 
L 468.197375 54.679471 
L 468.197375 54.295303 
L 473.355423 54.295303 
L 473.355423 53.911135 
L 474.980463 53.911135 
L 474.980463 53.526967 
L 477.972653 53.526967 
L 477.972653 53.142799 
L 478.55948 53.142799 
L 478.55948 52.758631 
L 485.751822 52.758631 
L 485.751822 52.374463 
L 535.53825 52.374463 
L 535.53825 51.990295 
L 547.301547 51.990295 
L 547.301547 51.990295 
" style="fill:none;stroke:#008fd5;stroke-linecap:round;stroke-width:4;"/>
   </g>
   <g id="line2d_32">
    <defs>
     <path d="M 0 3 
C 0.795609 3 1.55874 2.683901 2.12132 2.12132 
C 2.683901 1.55874 3 0.795609 3 0 
C 3 -0.795609 2.683901 -1.55874 2.12132 -2.12132 
C 1.55874 -2.683901 0.795609 -3 0 -3 
C -0.795609 -3 -1.55874 -2.683901 -2.12132 -2.12132 
C -2.683901 -1.55874 -3 -0.795609 -3 0 
C -3 0.795609 -2.683901 1.55874 -2.12132 2.12132 
C -1.55874 2.683901 -0.795609 3 0 3 
z
" id="m691677a43d" style="stroke:#fc4f30;"/>
    </defs>
    <g clip-path="url(#pe09344a3de)">
     <use style="fill:#fc4f30;stroke:#fc4f30;" x="290.954368" xlink:href="#m691677a43d" y="221.408368"/>
    </g>
   </g>
   <g id="patch_3">
    <path d="M 65.594034 407.364872 
L 65.594034 35.067696 
" style="fill:none;stroke:#262626;stroke-linecap:square;stroke-linejoin:miter;stroke-width:1.25;"/>
   </g>
   <g id="patch_4">
    <path d="M 570.24 407.364872 
L 570.24 35.067696 
" style="fill:none;stroke:#262626;stroke-linecap:square;stroke-linejoin:miter;stroke-width:1.25;"/>
   </g>
   <g id="patch_5">
    <path d="M 65.594034 407.364872 
L 570.24 407.364872 
" style="fill:none;stroke:#262626;stroke-linecap:square;stroke-linejoin:miter;stroke-width:1.25;"/>
   </g>
   <g id="patch_6">
    <path d="M 65.594034 35.067696 
L 570.24 35.067696 
" style="fill:none;stroke:#262626;stroke-linecap:square;stroke-linejoin:miter;stroke-width:1.25;"/>
   </g>
   <g id="patch_7">
    <path d="M 150.646439 191.289883 
Q 168.439361 221.161578 288.397004 221.40521 
" style="fill:none;stroke:#000000;stroke-linecap:round;stroke-width:0.5;"/>
    <path d="M 282.403109 218.393031 
L 288.397004 221.40521 
L 282.390923 224.393018 
" style="fill:none;stroke:#000000;stroke-linecap:round;stroke-width:0.5;"/>
   </g>
   <g id="text_18">
    <!-- (9.24, 0.5) -->
    <g style="fill:#262626;" transform="translate(115.047889 183.788763)scale(0.15 -0.15)">
     <defs>
      <path d="M 6.796875 2.6875 
C 9.59375 0.296875 13.203125 -2 19.296875 -2 
C 31.40625 -2 43 11.53125 43 33.375 
C 43 62.296875 30.5 67 23.796875 67 
C 17.09375 67 12.796875 63.984375 9.09375 59.203125 
C 4.703125 53.71875 3.90625 48.828125 3.90625 43.140625 
C 3.90625 36.359375 5.09375 32.171875 7.90625 27.390625 
C 11.703125 21.1875 15.203125 19.890625 19.09375 19.890625 
C 25 19.890625 30.90625 22.796875 34.90625 27.78125 
C 34.203125 14.1875 28.09375 4.1875 19.296875 4.1875 
C 15.703125 4.1875 12.796875 5.3125 9.90625 8.0625 
z
M 34.59375 43.34375 
C 34.703125 42.640625 34.703125 41.34375 34.703125 40.953125 
C 34.703125 32.578125 29.90625 26 22.90625 26 
C 18.296875 26 15.90625 28.390625 14.09375 31.484375 
C 11.90625 35.359375 11.796875 39.15625 11.796875 43.140625 
C 11.796875 47.03125 11.796875 51.3125 14.59375 55.609375 
C 16.703125 58.703125 19.296875 60.890625 23.796875 60.890625 
C 33 60.890625 34.5 47.4375 34.59375 43.34375 
z
" id="CMSS17-57"/>
      <path d="M 25.796875 21.140625 
C 28.59375 24.03125 32.796875 27.515625 35.703125 31 
C 38.5 34.390625 42.203125 39.171875 42.203125 46.140625 
C 42.203125 57.109375 34.796875 67 22.203125 67 
C 12.296875 67 6.59375 60.796875 3.90625 51.125 
L 7.796875 45.75 
C 10 54.8125 13.09375 60.59375 20.90625 60.59375 
C 29.5 60.59375 34.296875 53.609375 34.296875 45.9375 
C 34.296875 36.78125 27.296875 29.703125 22 24.421875 
C 16.09375 18.546875 10.296875 12.578125 4.703125 6.390625 
L 4.703125 0 
L 42.203125 0 
L 42.203125 6.796875 
L 25.203125 6.796875 
C 24 6.796875 22.796875 6.6875 21.59375 6.6875 
L 11.59375 6.6875 
L 11.59375 6.796875 
z
" id="CMSS17-50"/>
      <path d="M 35.203125 17 
L 44.296875 17 
L 44.296875 23.09375 
L 35.203125 23.09375 
L 35.203125 66 
L 26.40625 66 
L 2.59375 23.09375 
L 2.59375 17 
L 27.296875 17 
L 27.296875 0 
L 35.203125 0 
z
M 10.296875 23.09375 
C 16.09375 33.421875 27.59375 54.28125 27.59375 61.359375 
L 27.59375 23.09375 
z
" id="CMSS17-52"/>
      <path d="M 43.09375 32.390625 
C 43.09375 38.109375 43 48.75 38.90625 56.984375 
C 34.796875 64.890625 28.203125 67 23.5 67 
C 16.703125 67 10.90625 62.984375 7.90625 56.578125 
C 4.703125 49.859375 3.796875 42.9375 3.796875 32.390625 
C 3.796875 25.171875 4.09375 16.34375 7.703125 8.609375 
C 11.796875 0.09375 18.703125 -2 23.40625 -2 
C 29.59375 -2 35.59375 1.296875 39 8.203125 
C 42.5 15.4375 43.09375 23.359375 43.09375 32.390625 
z
M 23.40625 4.09375 
C 15.796875 4.09375 13.5 12.828125 12.796875 15.734375 
C 11.59375 20.75 11.40625 25.5625 11.40625 33.5 
C 11.40625 39.71875 11.40625 46.75 13.296875 52.265625 
C 15.59375 58.6875 19.59375 60.890625 23.40625 60.890625 
C 30.796875 60.890625 33.203125 53.46875 34 50.859375 
C 35.5 45.546875 35.5 39.3125 35.5 33.5 
C 35.5 24.15625 35.5 4.09375 23.40625 4.09375 
z
" id="CMSS17-48"/>
      <path d="M 14.59375 59.59375 
L 39.09375 59.59375 
L 39.09375 66 
L 7.296875 66 
L 7.296875 28.59375 
L 14 28.59375 
C 15.796875 32.859375 19.5 36 24.296875 36 
C 28.796875 36 33.796875 31.9375 33.796875 20.296875 
C 33.796875 7.84375 26.703125 4.1875 21.5 4.1875 
C 15.09375 4.1875 9.203125 8.140625 6.59375 13.609375 
L 3.40625 7.9375 
C 8 0.796875 15.5 -2 21.5 -2 
C 33.09375 -2 42.203125 7.9375 42.203125 20.09375 
C 42.203125 32.546875 34.09375 42.09375 24.40625 42.09375 
C 20.90625 42.09375 17.5 40.890625 14.59375 38.5 
z
" id="CMSS17-53"/>
     </defs>
     <use transform="scale(0.996264)" xlink:href="#CMSS17-40"/>
     <use transform="translate(36.433914 0)scale(0.996264)" xlink:href="#CMSS17-57"/>
     <use transform="translate(83.277538 0)scale(0.996264)" xlink:href="#CMSS17-46"/>
     <use transform="translate(109.301743 0)scale(0.996264)" xlink:href="#CMSS17-50"/>
     <use transform="translate(156.145366 0)scale(0.996264)" xlink:href="#CMSS17-52"/>
     <use transform="translate(202.98899 0)scale(0.996264)" xlink:href="#CMSS17-44"/>
     <use transform="translate(260.242307 0)scale(0.996264)" xlink:href="#CMSS17-48"/>
     <use transform="translate(307.085931 0)scale(0.996264)" xlink:href="#CMSS17-46"/>
     <use transform="translate(333.110136 0)scale(0.996264)" xlink:href="#CMSS17-53"/>
     <use transform="translate(379.953759 0)scale(0.996264)" xlink:href="#CMSS17-41"/>
    </g>
   </g>
   <g id="text_19">
    <!-- ECDF of the viewing angle of 'visible' NSBH Mergers -->
    <g style="fill:#262626;" transform="translate(106.43115 29.067696)scale(0.2016 -0.2016)">
     <defs>
      <path d="M 30.59375 6.796875 
C 22.59375 6.796875 19 6.796875 17.203125 6.6875 
L 17.203125 32.890625 
L 48.203125 32.890625 
L 48.203125 39 
L 17.203125 39 
L 17.203125 62.390625 
L 30.09375 62.390625 
C 31.296875 62.390625 32.5 62.296875 33.703125 62.296875 
L 50.796875 62.296875 
L 50.796875 68.796875 
L 8.796875 68.796875 
L 8.796875 0 
L 52.09375 0 
L 52.09375 6.890625 
z
" id="CMSS17-69"/>
      <path d="M 54.703125 11.015625 
C 48 6.5 44.90625 5.1875 36.796875 5.1875 
C 22.796875 5.1875 14.59375 20.375 14.59375 34.234375 
C 14.59375 49.015625 23 63.59375 37.203125 63.59375 
C 43.59375 63.59375 47.796875 61.78125 52.90625 58.5625 
L 54.296875 66.484375 
C 49.5 68.890625 43.40625 70 37.296875 70 
C 18.09375 70 6.203125 52.234375 6.203125 34.234375 
C 6.203125 14.4375 20.296875 -1.203125 36.296875 -1.203125 
C 44.90625 -1.203125 47.90625 -0.5 55.296875 4.1875 
z
" id="CMSS17-67"/>
      <path d="M 8.90625 69 
L 8.90625 0 
L 33.5 0 
C 49.90625 0 62.5 15.328125 62.5 33.890625 
C 62.5 53.0625 49.90625 69 33.5 69 
z
M 17.09375 5.59375 
L 17.09375 63.390625 
L 31.296875 63.390625 
C 44.703125 63.390625 54.296875 51.171875 54.296875 33.890625 
C 54.296875 17.3125 44.796875 5.59375 31.296875 5.59375 
z
" id="CMSS17-68"/>
      <path d="M 45.59375 31 
L 45.59375 37.09375 
L 17.203125 37.09375 
L 17.203125 62.390625 
L 29.40625 62.390625 
C 30.59375 62.390625 31.796875 62.296875 33 62.296875 
L 49.5 62.296875 
L 49.5 68.796875 
L 8.796875 68.796875 
L 8.796875 0 
L 17.203125 0 
L 17.203125 31 
z
" id="CMSS17-70"/>
      <path d="M 44.203125 21.1875 
C 44.203125 33.984375 34.703125 44 23.5 44 
C 12 44 2.703125 33.6875 2.703125 21.1875 
C 2.703125 8.5 12.296875 -1 23.40625 -1 
C 34.796875 -1 44.203125 8.796875 44.203125 21.1875 
z
M 23.5 5.296875 
C 16.40625 5.296875 10.296875 11.09375 10.296875 21.984375 
C 10.296875 33.59375 17.40625 37.890625 23.40625 37.890625 
C 29.90625 37.890625 36.59375 33.1875 36.59375 21.984375 
C 36.59375 10.6875 30.09375 5.296875 23.5 5.296875 
z
" id="CMSS17-111"/>
      <path d="M 16.796875 37.1875 
L 26.90625 37.1875 
L 26.90625 43 
L 16.59375 43 
L 16.59375 55.671875 
C 16.59375 62.703125 22 63.890625 25.09375 63.890625 
C 26.09375 63.890625 28.90625 63.890625 32.5 62.609375 
L 32.5 69.1875 
C 30.203125 69.6875 27.40625 70 25.203125 70 
C 15.90625 70 9.40625 62.40625 9.40625 52.59375 
L 9.40625 43 
L 2.5 43 
L 2.5 37.1875 
L 9.40625 37.1875 
L 9.40625 0 
L 16.796875 0 
z
" id="CMSS17-102"/>
      <path d="M 16.703125 37.1875 
L 29.703125 37.1875 
L 29.703125 43 
L 16.703125 43 
L 16.703125 55 
L 9.59375 55 
L 9.59375 43 
L 1.703125 43 
L 1.703125 37.1875 
L 9.40625 37.1875 
L 9.40625 11.734375 
C 9.40625 6 10.703125 -1 17.296875 -1 
C 22.296875 -1 26.90625 0.390625 31.296875 2.6875 
L 29.703125 8.609375 
C 27.296875 6.5 24.40625 5.296875 21.296875 5.296875 
C 16.90625 5.296875 16.703125 10.921875 16.703125 13.4375 
z
" id="CMSS17-116"/>
      <path d="M 40.90625 29.34375 
C 40.90625 35.671875 39.40625 44 28.09375 44 
C 21.796875 44 17.703125 40.890625 14.796875 37.484375 
L 14.796875 69 
L 7.40625 69 
L 7.40625 0 
L 15 0 
L 15 24.3125 
C 15 30.65625 17.40625 37.890625 24.203125 37.890625 
C 33 37.890625 33.296875 31.953125 33.296875 28.53125 
L 33.296875 0 
L 40.90625 0 
z
" id="CMSS17-104"/>
      <path d="M 41.796875 43 
L 34 43 
L 27.296875 24.296875 
C 25.203125 18.1875 22.203125 9.796875 21.703125 5.5 
L 21.59375 5.5 
C 21.40625 7.296875 20.59375 9.890625 20.09375 11.6875 
C 19.5 13.890625 18.703125 16.5 18.09375 18.296875 
L 9.296875 43 
L 1.296875 43 
L 17.09375 0 
L 26 0 
z
" id="CMSS17-118"/>
      <path d="M 37.59375 27.953125 
C 37.59375 37.484375 30.90625 44 21.90625 44 
C 17.5 44 12.703125 43.1875 7.203125 39.984375 
L 7.796875 33.328125 
C 10.296875 35.15625 14.59375 38.09375 21.796875 38.09375 
C 26.90625 38.09375 30 34.140625 30 27.84375 
L 30 24 
C 14 23.5 4 18.890625 4 11.109375 
C 4 7.0625 6.5 -1 14.796875 -1 
C 16.296875 -1 24.40625 -0.8125 30.203125 3.5 
L 30.203125 -0.203125 
L 37.59375 -0.203125 
z
M 30 12.875 
C 30 11.109375 30 8.734375 27 6.96875 
C 24.40625 5.296875 21.09375 5.09375 19.703125 5.09375 
C 14.703125 5.09375 11.296875 7.859375 11.296875 11.296875 
C 11.296875 18.203125 26.90625 18.890625 30 19 
z
" id="CMSS17-97"/>
      <path d="M 17 61.09375 
L 17 69 
L 9 69 
L 9 60.984375 
L 11.5 60.984375 
L 8.90625 48.890625 
L 12.90625 48.890625 
z
" id="CMSS17-39"/>
      <path d="M 32.203125 40.984375 
C 26.296875 43.796875 21.703125 44 18.703125 44 
C 11.59375 44 3.09375 41.484375 3.09375 31.390625 
C 3.09375 21.296875 14.09375 19.09375 17.09375 18.484375 
C 21.703125 17.59375 26.796875 16.59375 26.796875 11.59375 
C 26.796875 5.296875 19.59375 5.296875 18.296875 5.296875 
C 14.296875 5.296875 8.796875 6.390625 3.796875 9.984375 
L 2.59375 3.296875 
C 8.296875 0 13.796875 -1 18.40625 -1 
C 30.703125 -1 33.796875 6.5 33.796875 12.1875 
C 33.796875 17.09375 31 20.390625 29.09375 21.890625 
C 25.796875 24.484375 24.59375 24.796875 16.40625 26.484375 
C 15 26.6875 10.09375 27.796875 10.09375 32.296875 
C 10.09375 37.984375 16.40625 37.984375 17.796875 37.984375 
C 24.296875 37.984375 28.296875 35.984375 31 34.484375 
z
" id="CMSS17-115"/>
      <path d="M 14.90625 69 
L 7.5 69 
L 7.5 -0.203125 
L 15.09375 -0.203125 
L 15.09375 4.296875 
C 18.90625 0.59375 23.5 -1 27.59375 -1 
C 37.203125 -1 45 8.734375 45 21.59375 
C 45 33.328125 39 44 30.09375 44 
C 23.796875 44 18.203125 41.390625 14.90625 38.6875 
z
M 15.09375 32.734375 
C 17.296875 35.5625 20.40625 37.890625 24.796875 37.890625 
C 30.703125 37.890625 37.40625 33.53125 37.40625 21.59375 
C 37.40625 8.84375 29.40625 5.09375 23.90625 5.09375 
C 21.90625 5.09375 19.796875 5.59375 17.796875 7.3125 
C 15.09375 9.75 15.09375 11.265625 15.09375 12.6875 
z
" id="CMSS17-98"/>
      <path d="M 22.90625 65.296875 
L 21.09375 69 
L 8.796875 69 
L 8.796875 0 
L 16.59375 0 
L 16.59375 61.328125 
L 16.703125 61.421875 
C 17.40625 59.640625 17.796875 58.734375 21.90625 49.890625 
L 43.296875 3.6875 
L 45.09375 0 
L 57.40625 0 
L 57.40625 69 
L 49.59375 69 
L 49.59375 7.65625 
L 49.5 7.5625 
C 48.796875 9.34375 48.40625 10.234375 44.296875 19.09375 
z
" id="CMSS17-78"/>
      <path d="M 43.703125 66.09375 
C 39.296875 68.6875 34.5 71 26.40625 71 
C 13.5 71 5.203125 61.46875 5.203125 51.703125 
C 5.203125 47.875 6.296875 43.546875 10.203125 39.125 
C 14.09375 34.6875 18.5 33.484375 24.09375 32.078125 
C 26.40625 31.46875 30.296875 30.359375 31 30.0625 
C 36.59375 27.84375 39.296875 22.71875 39.296875 17.875 
C 39.296875 11.53125 34.40625 4.796875 25.703125 4.796875 
C 22.703125 4.796875 13.90625 5.296875 5.59375 12.953125 
L 4.203125 5 
C 12.40625 -1 21.296875 -2 25.796875 -2 
C 38.09375 -2 46.90625 7.71875 46.90625 18.78125 
C 46.90625 22.8125 45.703125 27.953125 41.5 32.6875 
C 37.40625 37.203125 33.796875 38.21875 25.59375 40.4375 
C 20.90625 41.640625 17.90625 42.453125 15.40625 45.5625 
C 13.703125 47.78125 12.796875 49.890625 12.796875 52.609375 
C 12.796875 58.25 17.59375 64.390625 26.40625 64.390625 
C 30.796875 64.390625 36.5 63.484375 42.296875 58.046875 
z
" id="CMSS17-83"/>
      <path d="M 8.90625 69 
L 8.90625 0 
L 33.796875 0 
C 47.40625 0 57.296875 8.984375 57.296875 18.75 
C 57.296875 26.3125 50.796875 33.984375 39.09375 36.1875 
C 52.09375 39.984375 54.703125 47.484375 54.703125 51.734375 
C 54.703125 60.625 44.90625 69 31.203125 69 
z
M 17 39 
L 17 63.390625 
L 28.5 63.390625 
C 38.796875 63.390625 46.90625 58.15625 46.90625 51.640625 
C 46.90625 45.703125 40.5 39 27.59375 39 
z
M 17 5.59375 
L 17 32.890625 
L 30.296875 32.890625 
C 41.09375 32.890625 49.40625 26.21875 49.40625 18.84375 
C 49.40625 12.0625 42.09375 5.59375 31 5.59375 
z
" id="CMSS17-66"/>
      <path d="M 57.40625 69 
L 49 69 
L 49 39 
L 17.203125 39 
L 17.203125 69 
L 8.796875 69 
L 8.796875 0 
L 17.203125 0 
L 17.203125 32.890625 
L 49 32.890625 
L 49 0 
L 57.40625 0 
z
" id="CMSS17-72"/>
      <path d="M 49.90625 37.078125 
L 45.09375 23.0625 
C 44.296875 20.484375 41.59375 12.421875 41 9.25 
L 40.90625 9.25 
C 40.59375 11.234375 40 13.328125 38.40625 18.390625 
C 37.5 21.375 36.5 24.453125 35.5 27.234375 
L 20.703125 69 
L 9 69 
L 9 0 
L 16.796875 0 
L 16.796875 60.921875 
L 16.90625 60.921875 
C 16.90625 60.828125 17.796875 56.453125 23.90625 39.0625 
L 37.09375 1.59375 
L 44.5 1.59375 
L 56.40625 34.890625 
C 57.203125 37.171875 59.703125 44.421875 60.796875 47.90625 
C 61.796875 50.890625 64.296875 58.25 64.90625 61.125 
L 65 61.125 
L 65 0 
L 72.90625 0 
L 72.90625 69 
L 61.296875 69 
z
" id="CMSS17-77"/>
      <path d="M 14.90625 21.390625 
C 14.90625 30.84375 21.796875 37.171875 30.59375 37.375 
L 30.59375 44 
C 24.203125 43.890625 18.203125 40.6875 14.59375 35.46875 
L 14.59375 43.484375 
L 7.5 43.484375 
L 7.5 0 
L 14.90625 0 
z
" id="CMSS17-114"/>
     </defs>
     <use transform="scale(0.996264)" xlink:href="#CMSS17-69"/>
     <use transform="translate(55.892013 0)scale(0.996264)" xlink:href="#CMSS17-67"/>
     <use transform="translate(115.747785 0)scale(0.996264)" xlink:href="#CMSS17-68"/>
     <use transform="translate(183.290626 0)scale(0.996264)" xlink:href="#CMSS17-70"/>
     <use transform="translate(267.809299 0)scale(0.996264)" xlink:href="#CMSS17-111"/>
     <use transform="translate(314.652922 0)scale(0.996264)" xlink:href="#CMSS17-102"/>
     <use transform="translate(374.508694 0)scale(0.996264)" xlink:href="#CMSS17-116"/>
     <use transform="translate(408.34026 0)scale(0.996264)" xlink:href="#CMSS17-104"/>
     <use transform="translate(456.545203 0)scale(0.996264)" xlink:href="#CMSS17-101"/>
     <use transform="translate(529.413138 0)scale(0.996264)" xlink:href="#CMSS17-118"/>
     <use transform="translate(572.41328 0)scale(0.996264)" xlink:href="#CMSS17-105"/>
     <use transform="translate(594.594003 0)scale(0.996264)" xlink:href="#CMSS17-101"/>
     <use transform="translate(636.232825 0)scale(0.996264)" xlink:href="#CMSS17-119"/>
     <use transform="translate(700.05237 0)scale(0.996264)" xlink:href="#CMSS17-105"/>
     <use transform="translate(722.233093 0)scale(0.996264)" xlink:href="#CMSS17-110"/>
     <use transform="translate(770.438036 0)scale(0.996264)" xlink:href="#CMSS17-103"/>
     <use transform="translate(848.510773 0)scale(0.996264)" xlink:href="#CMSS17-97"/>
     <use transform="translate(893.432693 0)scale(0.996264)" xlink:href="#CMSS17-110"/>
     <use transform="translate(941.637636 0)scale(0.996264)" xlink:href="#CMSS17-103"/>
     <use transform="translate(988.48126 0)scale(0.996264)" xlink:href="#CMSS17-108"/>
     <use transform="translate(1010.661983 0)scale(0.996264)" xlink:href="#CMSS17-101"/>
     <use transform="translate(1083.529918 0)scale(0.996264)" xlink:href="#CMSS17-111"/>
     <use transform="translate(1130.373541 0)scale(0.996264)" xlink:href="#CMSS17-102"/>
     <use transform="translate(1190.229313 0)scale(0.996264)" xlink:href="#CMSS17-39"/>
     <use transform="translate(1216.253518 0)scale(0.996264)" xlink:href="#CMSS17-118"/>
     <use transform="translate(1259.253659 0)scale(0.996264)" xlink:href="#CMSS17-105"/>
     <use transform="translate(1281.434382 0)scale(0.996264)" xlink:href="#CMSS17-115"/>
     <use transform="translate(1317.347924 0)scale(0.996264)" xlink:href="#CMSS17-105"/>
     <use transform="translate(1339.528647 0)scale(0.996264)" xlink:href="#CMSS17-98"/>
     <use transform="translate(1387.733591 0)scale(0.996264)" xlink:href="#CMSS17-108"/>
     <use transform="translate(1409.914314 0)scale(0.996264)" xlink:href="#CMSS17-101"/>
     <use transform="translate(1451.553136 0)scale(0.996264)" xlink:href="#CMSS17-39"/>
     <use transform="translate(1508.806453 0)scale(0.996264)" xlink:href="#CMSS17-78"/>
     <use transform="translate(1574.867973 0)scale(0.996264)" xlink:href="#CMSS17-83"/>
     <use transform="translate(1626.916489 0)scale(0.996264)" xlink:href="#CMSS17-66"/>
     <use transform="translate(1689.254529 0)scale(0.996264)" xlink:href="#CMSS17-72"/>
     <use transform="translate(1786.545161 0)scale(0.996264)" xlink:href="#CMSS17-77"/>
     <use transform="translate(1868.221191 0)scale(0.996264)" xlink:href="#CMSS17-101"/>
     <use transform="translate(1909.860013 0)scale(0.996264)" xlink:href="#CMSS17-114"/>
     <use transform="translate(1941.769785 0)scale(0.996264)" xlink:href="#CMSS17-103"/>
     <use transform="translate(1988.613409 0)scale(0.996264)" xlink:href="#CMSS17-101"/>
     <use transform="translate(2030.252231 0)scale(0.996264)" xlink:href="#CMSS17-114"/>
     <use transform="translate(2062.162004 0)scale(0.996264)" xlink:href="#CMSS17-115"/>
    </g>
   </g>
  </g>
 </g>
 <defs>
  <clipPath id="pe09344a3de">
   <rect height="372.297176" width="504.645966" x="65.594034" y="35.067696"/>
  </clipPath>
 </defs>
</svg>
