<?xml version="1.0" encoding="utf-8" standalone="no"?>
<!DOCTYPE svg PUBLIC "-//W3C//DTD SVG 1.1//EN"
  "http://www.w3.org/Graphics/SVG/1.1/DTD/svg11.dtd">
<!-- Created with matplotlib (https://matplotlib.org/) -->
<svg height="465.12pt" version="1.1" viewBox="0 0 585.36 465.12" width="585.36pt" xmlns="http://www.w3.org/2000/svg" xmlns:xlink="http://www.w3.org/1999/xlink">
 <metadata>
  <rdf:RDF xmlns:cc="http://creativecommons.org/ns#" xmlns:dc="http://purl.org/dc/elements/1.1/" xmlns:rdf="http://www.w3.org/1999/02/22-rdf-syntax-ns#">
   <cc:Work>
    <dc:type rdf:resource="http://purl.org/dc/dcmitype/StillImage"/>
    <dc:date>2021-06-08T19:02:56.753637</dc:date>
    <dc:format>image/svg+xml</dc:format>
    <dc:creator>
     <cc:Agent>
      <dc:title>Matplotlib v3.3.2, https://matplotlib.org/</dc:title>
     </cc:Agent>
    </dc:creator>
   </cc:Work>
  </rdf:RDF>
 </metadata>
 <defs>
  <style type="text/css">*{stroke-linecap:butt;stroke-linejoin:round;}</style>
 </defs>
 <g id="figure_1">
  <g id="patch_1">
   <path d="M 0 465.12 
L 585.36 465.12 
L 585.36 0 
L 0 0 
z
" style="fill:#f0f0f0;"/>
  </g>
  <g id="axes_1">
   <g id="patch_2">
    <path d="M 69.636294 407.364872 
L 570.24 407.364872 
L 570.24 35.067696 
L 69.636294 35.067696 
z
" style="fill:#ffffff;"/>
   </g>
   <g id="matplotlib.axis_1">
    <g id="xtick_1">
     <g id="line2d_1">
      <path clip-path="url(#pfe8a04970e)" d="M 74.358702 407.364872 
L 74.358702 35.067696 
" style="fill:none;stroke:#cccccc;stroke-linecap:round;"/>
     </g>
     <g id="line2d_2">
      <defs>
       <path d="M 0 0 
L 0 6 
" id="mbb56ea28b9" style="stroke:#262626;stroke-width:0.8;"/>
      </defs>
      <g>
       <use style="fill:#262626;stroke:#262626;stroke-width:0.8;" x="74.358702" xlink:href="#mbb56ea28b9" y="407.364872"/>
      </g>
     </g>
     <g id="text_1">
      <!-- $\mathdefault{0.0}$ -->
      <g style="fill:#262626;" transform="translate(65.633411 426.550748)scale(0.14 -0.14)">
       <defs>
        <path d="M 42 31.84375 
C 42 37.96875 41.90625 48.421875 37.703125 56.453125 
C 34 63.484375 28.09375 66 22.90625 66 
C 18.09375 66 12 63.78125 8.203125 56.5625 
C 4.203125 49.015625 3.796875 39.671875 3.796875 31.84375 
C 3.796875 26.109375 3.90625 17.375 7 9.734375 
C 11.296875 -0.609375 19 -2 22.90625 -2 
C 27.5 -2 34.5 -0.109375 38.59375 9.4375 
C 41.59375 16.375 42 24.5 42 31.84375 
z
M 22.90625 -0.40625 
C 16.5 -0.40625 12.703125 5.125 11.296875 12.75 
C 10.203125 18.6875 10.203125 27.328125 10.203125 32.953125 
C 10.203125 40.6875 10.203125 47.109375 11.5 53.234375 
C 13.40625 61.78125 19 64.390625 22.90625 64.390625 
C 27 64.390625 32.296875 61.671875 34.203125 53.4375 
C 35.5 47.71875 35.59375 40.984375 35.59375 32.953125 
C 35.59375 26.421875 35.59375 18.375 34.40625 12.453125 
C 32.296875 1.5 26.40625 -0.40625 22.90625 -0.40625 
z
" id="CMR17-48"/>
        <path d="M 18.40625 4.796875 
C 18.40625 7.6875 16 9.6875 13.59375 9.6875 
C 10.703125 9.6875 8.703125 7.296875 8.703125 4.890625 
C 8.703125 2 11.09375 0 13.5 0 
C 16.40625 0 18.40625 2.390625 18.40625 4.796875 
z
" id="CMMI12-58"/>
       </defs>
       <use transform="scale(0.996264)" xlink:href="#CMR17-48"/>
       <use transform="translate(45.690477 0)scale(0.996264)" xlink:href="#CMMI12-58"/>
       <use transform="translate(72.787654 0)scale(0.996264)" xlink:href="#CMR17-48"/>
      </g>
     </g>
    </g>
    <g id="xtick_2">
     <g id="line2d_3">
      <path clip-path="url(#pfe8a04970e)" d="M 133.567477 407.364872 
L 133.567477 35.067696 
" style="fill:none;stroke:#cccccc;stroke-linecap:round;"/>
     </g>
     <g id="line2d_4">
      <g>
       <use style="fill:#262626;stroke:#262626;stroke-width:0.8;" x="133.567477" xlink:href="#mbb56ea28b9" y="407.364872"/>
      </g>
     </g>
     <g id="text_2">
      <!-- $\mathdefault{2.5}$ -->
      <g style="fill:#262626;" transform="translate(124.842186 426.550748)scale(0.14 -0.14)">
       <defs>
        <path d="M 41.703125 15.46875 
L 39.90625 15.46875 
C 38.90625 8.390625 38.09375 7.1875 37.703125 6.59375 
C 37.203125 5.796875 30 5.796875 28.59375 5.796875 
L 9.40625 5.796875 
C 13 9.6875 20 16.765625 28.5 24.9375 
C 34.59375 30.71875 41.703125 37.5 41.703125 47.390625 
C 41.703125 59.1875 32.296875 66 21.796875 66 
C 10.796875 66 4.09375 56.296875 4.09375 47.296875 
C 4.09375 43.390625 7 42.890625 8.203125 42.890625 
C 9.203125 42.890625 12.203125 43.484375 12.203125 46.984375 
C 12.203125 50.09375 9.59375 51 8.203125 51 
C 7.59375 51 7 50.890625 6.59375 50.6875 
C 8.5 59.1875 14.296875 63.390625 20.40625 63.390625 
C 29.09375 63.390625 34.796875 56.5 34.796875 47.390625 
C 34.796875 38.703125 29.703125 31.21875 24 24.734375 
L 4.09375 2.296875 
L 4.09375 0 
L 39.296875 0 
z
" id="CMR17-50"/>
        <path d="M 11.40625 58.59375 
C 12.40625 58.1875 16.5 56.890625 20.703125 56.890625 
C 30 56.890625 35.09375 61.890625 38 64.6875 
C 38 65.484375 38 66 37.40625 66 
C 37.296875 66 37.09375 66 36.296875 65.59375 
C 32.796875 64.09375 28.703125 63 23.703125 63 
C 20.703125 63 16.203125 63.359375 11.296875 65.484375 
C 10.203125 66 10 66 9.90625 66 
C 9.40625 66 9.296875 65.890625 9.296875 63.90625 
L 9.296875 34.859375 
C 9.296875 33.015625 9.296875 32.5 10.296875 32.5 
C 10.796875 32.5 11 32.703125 11.5 33.421875 
C 14.703125 38.046875 19.09375 40 24.09375 40 
C 27.59375 40 35.09375 37.734375 35.09375 20.203125 
C 35.09375 16.984375 35.09375 11.1875 32.09375 6.59375 
C 29.59375 2.484375 25.703125 0.390625 21.40625 0.390625 
C 14.796875 0.390625 8.09375 4.984375 6.296875 12.6875 
C 6.703125 12.59375 7.5 12.390625 7.90625 12.390625 
C 9.203125 12.390625 11.703125 13.09375 11.703125 16.1875 
C 11.703125 18.890625 9.796875 20 7.90625 20 
C 5.59375 20 4.09375 18.59375 4.09375 15.796875 
C 4.09375 7.09375 11 -2 21.59375 -2 
C 31.90625 -2 41.703125 6.890625 41.703125 19.796875 
C 41.703125 32.09375 33.90625 41.59375 24.203125 41.59375 
C 19.09375 41.59375 14.796875 39.6875 11.40625 36 
z
" id="CMR17-53"/>
       </defs>
       <use transform="scale(0.996264)" xlink:href="#CMR17-50"/>
       <use transform="translate(45.690477 0)scale(0.996264)" xlink:href="#CMMI12-58"/>
       <use transform="translate(72.787654 0)scale(0.996264)" xlink:href="#CMR17-53"/>
      </g>
     </g>
    </g>
    <g id="xtick_3">
     <g id="line2d_5">
      <path clip-path="url(#pfe8a04970e)" d="M 192.776253 407.364872 
L 192.776253 35.067696 
" style="fill:none;stroke:#cccccc;stroke-linecap:round;"/>
     </g>
     <g id="line2d_6">
      <g>
       <use style="fill:#262626;stroke:#262626;stroke-width:0.8;" x="192.776253" xlink:href="#mbb56ea28b9" y="407.364872"/>
      </g>
     </g>
     <g id="text_3">
      <!-- $\mathdefault{5.0}$ -->
      <g style="fill:#262626;" transform="translate(184.050962 426.550748)scale(0.14 -0.14)">
       <use transform="scale(0.996264)" xlink:href="#CMR17-53"/>
       <use transform="translate(45.690477 0)scale(0.996264)" xlink:href="#CMMI12-58"/>
       <use transform="translate(72.787654 0)scale(0.996264)" xlink:href="#CMR17-48"/>
      </g>
     </g>
    </g>
    <g id="xtick_4">
     <g id="line2d_7">
      <path clip-path="url(#pfe8a04970e)" d="M 251.985029 407.364872 
L 251.985029 35.067696 
" style="fill:none;stroke:#cccccc;stroke-linecap:round;"/>
     </g>
     <g id="line2d_8">
      <g>
       <use style="fill:#262626;stroke:#262626;stroke-width:0.8;" x="251.985029" xlink:href="#mbb56ea28b9" y="407.364872"/>
      </g>
     </g>
     <g id="text_4">
      <!-- $\mathdefault{7.5}$ -->
      <g style="fill:#262626;" transform="translate(243.259737 426.550748)scale(0.14 -0.14)">
       <defs>
        <path d="M 45.09375 61.796875 
L 45.09375 64 
L 21.59375 64 
C 9.90625 64 9.703125 65.09375 9.296875 67 
L 7.5 67 
L 4.59375 48.5 
L 6.40625 48.5 
C 6.703125 50.40625 7.40625 55.5 8.59375 57.390625 
C 9.203125 58.1875 16.59375 58.1875 18.296875 58.1875 
L 40.296875 58.1875 
L 29.203125 41.71875 
C 21.796875 30.640625 16.703125 15.671875 16.703125 2.59375 
C 16.703125 1.390625 16.703125 -2 20.296875 -2 
C 23.90625 -2 23.90625 1.390625 23.90625 2.6875 
L 23.90625 7.28125 
C 23.90625 23.65625 26.703125 34.4375 31.296875 41.3125 
z
" id="CMR17-55"/>
       </defs>
       <use transform="scale(0.996264)" xlink:href="#CMR17-55"/>
       <use transform="translate(45.690477 0)scale(0.996264)" xlink:href="#CMMI12-58"/>
       <use transform="translate(72.787654 0)scale(0.996264)" xlink:href="#CMR17-53"/>
      </g>
     </g>
    </g>
    <g id="xtick_5">
     <g id="line2d_9">
      <path clip-path="url(#pfe8a04970e)" d="M 311.193804 407.364872 
L 311.193804 35.067696 
" style="fill:none;stroke:#cccccc;stroke-linecap:round;"/>
     </g>
     <g id="line2d_10">
      <g>
       <use style="fill:#262626;stroke:#262626;stroke-width:0.8;" x="311.193804" xlink:href="#mbb56ea28b9" y="407.364872"/>
      </g>
     </g>
     <g id="text_5">
      <!-- $\mathdefault{10.0}$ -->
      <g style="fill:#262626;" transform="translate(299.054269 426.550748)scale(0.14 -0.14)">
       <defs>
        <path d="M 26.59375 63.796875 
C 26.59375 65.890625 26.5 66 25.09375 66 
C 21.203125 61.359375 15.296875 59.890625 9.703125 59.6875 
C 9.40625 59.6875 8.90625 59.6875 8.796875 59.5 
C 8.703125 59.296875 8.703125 59.09375 8.703125 57 
C 11.796875 57 17 57.59375 21 59.984375 
L 21 7.296875 
C 21 3.796875 20.796875 2.59375 12.203125 2.59375 
L 9.203125 2.59375 
L 9.203125 0 
C 14 0.09375 19 0.1875 23.796875 0.1875 
C 28.59375 0.1875 33.59375 0.09375 38.40625 0 
L 38.40625 2.59375 
L 35.40625 2.59375 
C 26.796875 2.59375 26.59375 3.6875 26.59375 7.296875 
z
" id="CMR17-49"/>
       </defs>
       <use transform="scale(0.996264)" xlink:href="#CMR17-49"/>
       <use transform="translate(45.690477 0)scale(0.996264)" xlink:href="#CMR17-48"/>
       <use transform="translate(91.380954 0)scale(0.996264)" xlink:href="#CMMI12-58"/>
       <use transform="translate(118.478131 0)scale(0.996264)" xlink:href="#CMR17-48"/>
      </g>
     </g>
    </g>
    <g id="xtick_6">
     <g id="line2d_11">
      <path clip-path="url(#pfe8a04970e)" d="M 370.40258 407.364872 
L 370.40258 35.067696 
" style="fill:none;stroke:#cccccc;stroke-linecap:round;"/>
     </g>
     <g id="line2d_12">
      <g>
       <use style="fill:#262626;stroke:#262626;stroke-width:0.8;" x="370.40258" xlink:href="#mbb56ea28b9" y="407.364872"/>
      </g>
     </g>
     <g id="text_6">
      <!-- $\mathdefault{12.5}$ -->
      <g style="fill:#262626;" transform="translate(358.263044 426.550748)scale(0.14 -0.14)">
       <use transform="scale(0.996264)" xlink:href="#CMR17-49"/>
       <use transform="translate(45.690477 0)scale(0.996264)" xlink:href="#CMR17-50"/>
       <use transform="translate(91.380954 0)scale(0.996264)" xlink:href="#CMMI12-58"/>
       <use transform="translate(118.478131 0)scale(0.996264)" xlink:href="#CMR17-53"/>
      </g>
     </g>
    </g>
    <g id="xtick_7">
     <g id="line2d_13">
      <path clip-path="url(#pfe8a04970e)" d="M 429.611355 407.364872 
L 429.611355 35.067696 
" style="fill:none;stroke:#cccccc;stroke-linecap:round;"/>
     </g>
     <g id="line2d_14">
      <g>
       <use style="fill:#262626;stroke:#262626;stroke-width:0.8;" x="429.611355" xlink:href="#mbb56ea28b9" y="407.364872"/>
      </g>
     </g>
     <g id="text_7">
      <!-- $\mathdefault{15.0}$ -->
      <g style="fill:#262626;" transform="translate(417.47182 426.550748)scale(0.14 -0.14)">
       <use transform="scale(0.996264)" xlink:href="#CMR17-49"/>
       <use transform="translate(45.690477 0)scale(0.996264)" xlink:href="#CMR17-53"/>
       <use transform="translate(91.380954 0)scale(0.996264)" xlink:href="#CMMI12-58"/>
       <use transform="translate(118.478131 0)scale(0.996264)" xlink:href="#CMR17-48"/>
      </g>
     </g>
    </g>
    <g id="xtick_8">
     <g id="line2d_15">
      <path clip-path="url(#pfe8a04970e)" d="M 488.820131 407.364872 
L 488.820131 35.067696 
" style="fill:none;stroke:#cccccc;stroke-linecap:round;"/>
     </g>
     <g id="line2d_16">
      <g>
       <use style="fill:#262626;stroke:#262626;stroke-width:0.8;" x="488.820131" xlink:href="#mbb56ea28b9" y="407.364872"/>
      </g>
     </g>
     <g id="text_8">
      <!-- $\mathdefault{17.5}$ -->
      <g style="fill:#262626;" transform="translate(476.680595 426.550748)scale(0.14 -0.14)">
       <use transform="scale(0.996264)" xlink:href="#CMR17-49"/>
       <use transform="translate(45.690477 0)scale(0.996264)" xlink:href="#CMR17-55"/>
       <use transform="translate(91.380954 0)scale(0.996264)" xlink:href="#CMMI12-58"/>
       <use transform="translate(118.478131 0)scale(0.996264)" xlink:href="#CMR17-53"/>
      </g>
     </g>
    </g>
    <g id="xtick_9">
     <g id="line2d_17">
      <path clip-path="url(#pfe8a04970e)" d="M 548.028906 407.364872 
L 548.028906 35.067696 
" style="fill:none;stroke:#cccccc;stroke-linecap:round;"/>
     </g>
     <g id="line2d_18">
      <g>
       <use style="fill:#262626;stroke:#262626;stroke-width:0.8;" x="548.028906" xlink:href="#mbb56ea28b9" y="407.364872"/>
      </g>
     </g>
     <g id="text_9">
      <!-- $\mathdefault{20.0}$ -->
      <g style="fill:#262626;" transform="translate(535.889371 426.550748)scale(0.14 -0.14)">
       <use transform="scale(0.996264)" xlink:href="#CMR17-50"/>
       <use transform="translate(45.690477 0)scale(0.996264)" xlink:href="#CMR17-48"/>
       <use transform="translate(91.380954 0)scale(0.996264)" xlink:href="#CMMI12-58"/>
       <use transform="translate(118.478131 0)scale(0.996264)" xlink:href="#CMR17-48"/>
      </g>
     </g>
    </g>
    <g id="text_10">
     <!-- Viewing Angle, $\theta_v$ (deg.) -->
     <g style="fill:#262626;" transform="translate(235.692841 445.815694)scale(0.168 -0.168)">
      <defs>
       <path d="M 61.09375 69 
L 53.296875 69 
L 36 21.265625 
C 35.5 19.875 32.40625 10.734375 31.796875 7.5625 
L 31.703125 7.5625 
C 30.90625 11.328125 27.703125 20.171875 26 25.046875 
L 14.40625 57.34375 
L 10.09375 69 
L 1.296875 69 
L 26.796875 0 
L 35.59375 0 
z
" id="CMSS17-86"/>
       <path d="M 15.296875 66 
L 6.90625 66 
L 6.90625 57.59375 
L 15.296875 57.59375 
z
M 14.796875 43 
L 7.40625 43 
L 7.40625 0 
L 14.796875 0 
z
" id="CMSS17-105"/>
       <path d="M 39.09375 21.484375 
C 39.09375 24.796875 38.90625 31.265625 35.703125 36.671875 
C 32.203125 42.390625 26.5 44 22.203125 44 
C 11.796875 44 3 34.125 3 21.296875 
C 3 9.046875 12.09375 -1 23.59375 -1 
C 28.09375 -1 33.59375 0.296875 38.59375 3.890625 
C 38.59375 4.296875 38.40625 6.46875 38.296875 6.578125 
C 38.296875 6.765625 38 9.828125 38 10.234375 
C 33.203125 6.375 27.703125 5.09375 23.703125 5.09375 
C 17.296875 5.09375 10.40625 10.421875 10.09375 21.484375 
z
M 10.90625 27 
C 12.203125 32.59375 16.59375 37.890625 22.203125 37.890625 
C 23.703125 37.890625 30.703125 37.6875 32.5 27 
z
" id="CMSS17-101"/>
       <path d="M 62.703125 43 
L 55.09375 43 
L 49.796875 25 
C 48.703125 21.1875 45.59375 10.6875 45.203125 5.796875 
L 45.09375 5.796875 
C 44.90625 8.796875 43.203125 16 40.40625 25.5 
L 35.296875 43 
L 28.40625 43 
L 23.40625 25.890625 
C 20.90625 17.1875 19 9.796875 18.796875 5.796875 
L 18.703125 5.796875 
C 18.296875 11.6875 14.203125 25.5 13.59375 27.6875 
L 9.09375 43 
L 1.296875 43 
L 14.296875 0 
L 21.90625 0 
C 27.09375 17.1875 31.09375 30.5 31.40625 37.1875 
C 31.59375 33.890625 33.296875 26.796875 34.296875 23.296875 
L 40.90625 0 
L 49.703125 0 
z
" id="CMSS17-119"/>
       <path d="M 40.90625 29.34375 
C 40.90625 35.671875 39.40625 44 28.09375 44 
C 21.703125 44 17.5 40.6875 14.703125 37.28125 
L 14.703125 43.484375 
L 7.40625 43.484375 
L 7.40625 0 
L 15 0 
L 15 24.3125 
C 15 30.65625 17.40625 37.890625 24.203125 37.890625 
C 33 37.890625 33.296875 31.953125 33.296875 28.53125 
L 33.296875 0 
L 40.90625 0 
z
" id="CMSS17-110"/>
       <path d="M 44.5 44 
C 38.796875 43.890625 33.90625 42.796875 29.90625 40.890625 
C 26.59375 43.484375 23.203125 44 20.90625 44 
C 12.203125 44 5.59375 36.8125 5.59375 28.5 
C 5.59375 23.140625 8.59375 19.09375 8.796875 18.890625 
C 7 16.390625 6 13.6875 6 10.6875 
C 6 7.1875 7.40625 4.6875 8.5 3.296875 
C 3.296875 0.09375 2.59375 -4.8125 2.59375 -6.703125 
C 2.59375 -14 11.703125 -20 23.40625 -20 
C 35.203125 -20 44.296875 -14 44.296875 -6.609375 
C 44.296875 7.1875 29 7.296875 24.796875 7.296875 
L 16.703125 7.296875 
C 15.203125 7.296875 11.203125 7.296875 11.203125 12.390625 
C 11.203125 14.390625 12.09375 15.6875 12.203125 15.796875 
C 13.703125 14.6875 16.796875 13 20.90625 13 
C 29.203125 13 36.09375 19.984375 36.09375 28.5 
C 36.09375 33.25 33.90625 36.703125 33 37.890625 
L 33.296875 37.890625 
C 33.59375 37.890625 37.796875 38.1875 39.296875 38.1875 
C 42.5 38.1875 42.796875 38.09375 45.59375 37.796875 
z
M 20.90625 18.5 
C 17.5 18.5 12.703125 20.578125 12.703125 28.5 
C 12.703125 37.109375 18.203125 38.484375 20.796875 38.484375 
C 24.203125 38.484375 29 36.40625 29 28.5 
C 29 19.875 23.5 18.5 20.90625 18.5 
z
M 24.703125 0 
C 27.09375 0 37.203125 0 37.203125 -6.8125 
C 37.203125 -11.109375 31 -14.5 23.5 -14.5 
C 15.90625 -14.5 9.703125 -11.203125 9.703125 -6.703125 
C 9.703125 -6.203125 9.703125 0 16.59375 0 
z
" id="CMSS17-103"/>
       <path d="M 35.5 69 
L 26.90625 69 
L 2.59375 0 
L 10.203125 0 
L 17.203125 20 
L 44 20 
L 51.09375 0 
L 59.796875 0 
z
M 42.09375 25.59375 
L 19.09375 25.59375 
C 23.90625 39.53125 29.90625 56.84375 30.59375 61.3125 
L 30.703125 61.3125 
C 31.40625 57.234375 33.40625 51.265625 35.09375 46.1875 
z
" id="CMSS17-65"/>
       <path d="M 14.796875 69 
L 7.40625 69 
L 7.40625 0 
L 14.796875 0 
z
" id="CMSS17-108"/>
       <path d="M 17 0.09375 
L 17 8 
L 9 8 
L 9 0 
L 11.5 0 
L 8.90625 -12.109375 
L 12.90625 -12.109375 
z
" id="CMSS17-44"/>
       <path d="M 44.296875 50 
C 44.296875 60.140625 41.09375 70 32.90625 70 
C 18.90625 70 4 40.859375 4 18.984375 
C 4 14.40625 5 -1 15.5 -1 
C 29.09375 -1 44.296875 27.421875 44.296875 50 
z
M 14 36 
C 15.5 41.859375 17.59375 50.203125 21.59375 57.265625 
C 24.90625 63.21875 28.40625 67.984375 32.796875 67.984375 
C 36.09375 67.984375 38.296875 65.203125 38.296875 55.671875 
C 38.296875 52.09375 38 47.125 35.09375 36 
z
M 34.40625 33 
C 31.90625 23.25 29.796875 17 26.203125 10.734375 
C 23.296875 5.65625 19.796875 1 15.59375 1 
C 12.5 1 10 3.375 10 13.21875 
C 10 19.671875 11.59375 26.4375 13.203125 33 
z
" id="CMMI12-18"/>
       <path d="M 45.703125 37.3125 
C 45.703125 43.59375 42.5 44 41.703125 44 
C 39.296875 44 37.09375 41.59375 37.09375 39.59375 
C 37.09375 38.40625 37.796875 37.703125 38.203125 37.3125 
C 39.203125 36.40625 41.796875 33.71875 41.796875 28.53125 
C 41.796875 24.34375 35.796875 1 23.796875 1 
C 17.703125 1 16.5 6.078125 16.5 9.765625 
C 16.5 14.765625 18.796875 21.75 21.5 28.921875 
C 23.09375 33.015625 23.5 34.015625 23.5 36.015625 
C 23.5 40.203125 20.5 44 15.59375 44 
C 6.40625 44 2.703125 29.53125 2.703125 28.71875 
C 2.703125 28.328125 3.09375 27.828125 3.796875 27.828125 
C 4.703125 27.828125 4.796875 28.234375 5.203125 29.625 
C 7.59375 38.203125 11.5 41.984375 15.296875 41.984375 
C 16.203125 41.984375 17.90625 41.984375 17.90625 38.703125 
C 17.90625 36.109375 16.796875 33.21875 15.296875 29.421875 
C 10.5 16.65625 10.5 13.5625 10.5 11.171875 
C 10.5 8.96875 10.796875 4.890625 13.90625 2.09375 
C 17.5 -1 22.5 -1 23.40625 -1 
C 40 -1 45.703125 31.625 45.703125 37.3125 
z
" id="CMMI12-118"/>
       <path d="M 25.203125 75 
C 19.796875 69.484375 7.40625 56.671875 7.40625 25.046875 
C 7.40625 -6.6875 19.796875 -19.40625 25.203125 -25 
L 31.296875 -25 
C 19 -12.203125 15 5.71875 15 24.9375 
C 15 44.0625 18.796875 62.078125 31.296875 75 
z
" id="CMSS17-40"/>
       <path d="M 40.796875 69 
L 33.40625 69 
L 33.40625 38.984375 
C 30.296875 41.59375 25.203125 44 19.59375 44 
C 10.5 44 3.296875 34.046875 3.296875 21.484375 
C 3.296875 8.9375 10.40625 -1 19.296875 -1 
C 26.203125 -1 30.796875 2.6875 33.203125 4.796875 
L 33.203125 -0.203125 
L 40.796875 -0.203125 
z
M 33.203125 13.296875 
C 33.203125 11.875 33.203125 10.359375 30.09375 7.625 
C 28.09375 5.90625 25.703125 5.09375 23.40625 5.09375 
C 18 5.09375 10.90625 9.140625 10.90625 21.390625 
C 10.90625 34.140625 18.90625 37.890625 24.40625 37.890625 
C 28.09375 37.890625 31.09375 36.0625 33.203125 33.03125 
z
" id="CMSS17-100"/>
       <path d="M 17 8 
L 9 8 
L 9 0 
L 17 0 
z
" id="CMSS17-46"/>
       <path d="M 11.296875 -25 
C 16.703125 -19.5 29.09375 -6.6875 29.09375 24.9375 
C 29.09375 56.671875 16.703125 69.375 11.296875 75 
L 5.203125 75 
C 17.5 62.171875 21.5 44.265625 21.5 25.046875 
C 21.5 5.921875 17.703125 -12.09375 5.203125 -25 
z
" id="CMSS17-41"/>
      </defs>
      <use transform="scale(0.996264)" xlink:href="#CMSS17-86"/>
      <use transform="translate(62.217855 0)scale(0.996264)" xlink:href="#CMSS17-105"/>
      <use transform="translate(84.398578 0)scale(0.996264)" xlink:href="#CMSS17-101"/>
      <use transform="translate(126.0374 0)scale(0.996264)" xlink:href="#CMSS17-119"/>
      <use transform="translate(189.856945 0)scale(0.996264)" xlink:href="#CMSS17-105"/>
      <use transform="translate(212.037668 0)scale(0.996264)" xlink:href="#CMSS17-110"/>
      <use transform="translate(260.242611 0)scale(0.996264)" xlink:href="#CMSS17-103"/>
      <use transform="translate(338.315348 0)scale(0.996264)" xlink:href="#CMSS17-65"/>
      <use transform="translate(400.533203 0)scale(0.996264)" xlink:href="#CMSS17-110"/>
      <use transform="translate(448.738146 0)scale(0.996264)" xlink:href="#CMSS17-103"/>
      <use transform="translate(495.581769 0)scale(0.996264)" xlink:href="#CMSS17-108"/>
      <use transform="translate(517.762492 0)scale(0.996264)" xlink:href="#CMSS17-101"/>
      <use transform="translate(559.401314 0)scale(0.996264)" xlink:href="#CMSS17-44"/>
      <use transform="translate(616.654632 0)scale(0.996264)" xlink:href="#CMMI12-18"/>
      <use transform="translate(662.114422 -14.943915)scale(0.697382)" xlink:href="#CMMI12-118"/>
      <use transform="translate(729.356116 0)scale(0.996264)" xlink:href="#CMSS17-40"/>
      <use transform="translate(765.790031 0)scale(0.996264)" xlink:href="#CMSS17-100"/>
      <use transform="translate(813.994974 0)scale(0.996264)" xlink:href="#CMSS17-101"/>
      <use transform="translate(855.633796 0)scale(0.996264)" xlink:href="#CMSS17-103"/>
      <use transform="translate(902.477419 0)scale(0.996264)" xlink:href="#CMSS17-46"/>
      <use transform="translate(928.501624 0)scale(0.996264)" xlink:href="#CMSS17-41"/>
     </g>
    </g>
   </g>
   <g id="matplotlib.axis_2">
    <g id="ytick_1">
     <g id="line2d_19">
      <path clip-path="url(#pfe8a04970e)" d="M 69.636294 407.364872 
L 570.24 407.364872 
" style="fill:none;stroke:#cccccc;stroke-linecap:round;"/>
     </g>
     <g id="line2d_20">
      <defs>
       <path d="M 0 0 
L -6 0 
" id="m0c51d81a75" style="stroke:#262626;stroke-width:0.8;"/>
      </defs>
      <g>
       <use style="fill:#262626;stroke:#262626;stroke-width:0.8;" x="69.636294" xlink:href="#m0c51d81a75" y="407.364872"/>
      </g>
     </g>
     <g id="text_11">
      <!-- $\mathdefault{0.00}$ -->
      <g style="fill:#262626;" transform="translate(35.857223 412.20781)scale(0.14 -0.14)">
       <use transform="scale(0.996264)" xlink:href="#CMR17-48"/>
       <use transform="translate(45.690477 0)scale(0.996264)" xlink:href="#CMMI12-58"/>
       <use transform="translate(72.787654 0)scale(0.996264)" xlink:href="#CMR17-48"/>
       <use transform="translate(118.478131 0)scale(0.996264)" xlink:href="#CMR17-48"/>
      </g>
     </g>
    </g>
    <g id="ytick_2">
     <g id="line2d_21">
      <path clip-path="url(#pfe8a04970e)" d="M 69.636294 353.948817 
L 570.24 353.948817 
" style="fill:none;stroke:#cccccc;stroke-linecap:round;"/>
     </g>
     <g id="line2d_22">
      <g>
       <use style="fill:#262626;stroke:#262626;stroke-width:0.8;" x="69.636294" xlink:href="#m0c51d81a75" y="353.948817"/>
      </g>
     </g>
     <g id="text_12">
      <!-- $\mathdefault{0.02}$ -->
      <g style="fill:#262626;" transform="translate(35.857223 358.791755)scale(0.14 -0.14)">
       <use transform="scale(0.996264)" xlink:href="#CMR17-48"/>
       <use transform="translate(45.690477 0)scale(0.996264)" xlink:href="#CMMI12-58"/>
       <use transform="translate(72.787654 0)scale(0.996264)" xlink:href="#CMR17-48"/>
       <use transform="translate(118.478131 0)scale(0.996264)" xlink:href="#CMR17-50"/>
      </g>
     </g>
    </g>
    <g id="ytick_3">
     <g id="line2d_23">
      <path clip-path="url(#pfe8a04970e)" d="M 69.636294 300.532762 
L 570.24 300.532762 
" style="fill:none;stroke:#cccccc;stroke-linecap:round;"/>
     </g>
     <g id="line2d_24">
      <g>
       <use style="fill:#262626;stroke:#262626;stroke-width:0.8;" x="69.636294" xlink:href="#m0c51d81a75" y="300.532762"/>
      </g>
     </g>
     <g id="text_13">
      <!-- $\mathdefault{0.04}$ -->
      <g style="fill:#262626;" transform="translate(35.857223 305.3757)scale(0.14 -0.14)">
       <defs>
        <path d="M 33.59375 64.796875 
C 33.59375 66.890625 33.5 67 31.703125 67 
L 2 19.59375 
L 2 17 
L 27.796875 17 
L 27.796875 7.1875 
C 27.796875 3.59375 27.59375 2.59375 20.59375 2.59375 
L 18.703125 2.59375 
L 18.703125 0 
C 21.90625 0.1875 27.296875 0.1875 30.703125 0.1875 
C 34.09375 0.1875 39.5 0.1875 42.703125 0 
L 42.703125 2.59375 
L 40.796875 2.59375 
C 33.796875 2.59375 33.59375 3.59375 33.59375 7.1875 
L 33.59375 17 
L 43.796875 17 
L 43.796875 19.59375 
L 33.59375 19.59375 
z
M 28.09375 58.171875 
L 28.09375 19.59375 
L 4 19.59375 
z
" id="CMR17-52"/>
       </defs>
       <use transform="scale(0.996264)" xlink:href="#CMR17-48"/>
       <use transform="translate(45.690477 0)scale(0.996264)" xlink:href="#CMMI12-58"/>
       <use transform="translate(72.787654 0)scale(0.996264)" xlink:href="#CMR17-48"/>
       <use transform="translate(118.478131 0)scale(0.996264)" xlink:href="#CMR17-52"/>
      </g>
     </g>
    </g>
    <g id="ytick_4">
     <g id="line2d_25">
      <path clip-path="url(#pfe8a04970e)" d="M 69.636294 247.116707 
L 570.24 247.116707 
" style="fill:none;stroke:#cccccc;stroke-linecap:round;"/>
     </g>
     <g id="line2d_26">
      <g>
       <use style="fill:#262626;stroke:#262626;stroke-width:0.8;" x="69.636294" xlink:href="#m0c51d81a75" y="247.116707"/>
      </g>
     </g>
     <g id="text_14">
      <!-- $\mathdefault{0.06}$ -->
      <g style="fill:#262626;" transform="translate(35.857223 251.959646)scale(0.14 -0.14)">
       <defs>
        <path d="M 10.59375 34.34375 
C 10.59375 58 21.796875 63.6875 28.296875 63.6875 
C 30.40625 63.6875 35.5 63.265625 37.5 59.09375 
C 35.90625 59.09375 32.90625 59.09375 32.90625 55.59375 
C 32.90625 52.890625 35.09375 52 36.5 52 
C 37.40625 52 40.09375 52.390625 40.09375 55.796875 
C 40.09375 62.296875 35.09375 66 28.203125 66 
C 16.296875 66 3.796875 53.296875 3.796875 31.421875 
C 3.796875 4.015625 15.09375 -2 23.09375 -2 
C 32.796875 -2 42 6.734375 42 20.234375 
C 42 32.828125 33.90625 42 23.703125 42 
C 17.59375 42 13.09375 37.96875 10.59375 30.921875 
z
M 23.09375 0.390625 
C 10.796875 0.390625 10.796875 18.9375 10.796875 22.65625 
C 10.796875 29.90625 14.203125 40.390625 23.5 40.390625 
C 25.203125 40.390625 30.09375 40.390625 33.40625 33.4375 
C 35.203125 29.515625 35.203125 25.375 35.203125 20.34375 
C 35.203125 14.90625 35.203125 10.875 33.09375 6.84375 
C 30.90625 2.703125 27.703125 0.390625 23.09375 0.390625 
z
" id="CMR17-54"/>
       </defs>
       <use transform="scale(0.996264)" xlink:href="#CMR17-48"/>
       <use transform="translate(45.690477 0)scale(0.996264)" xlink:href="#CMMI12-58"/>
       <use transform="translate(72.787654 0)scale(0.996264)" xlink:href="#CMR17-48"/>
       <use transform="translate(118.478131 0)scale(0.996264)" xlink:href="#CMR17-54"/>
      </g>
     </g>
    </g>
    <g id="ytick_5">
     <g id="line2d_27">
      <path clip-path="url(#pfe8a04970e)" d="M 69.636294 193.700652 
L 570.24 193.700652 
" style="fill:none;stroke:#cccccc;stroke-linecap:round;"/>
     </g>
     <g id="line2d_28">
      <g>
       <use style="fill:#262626;stroke:#262626;stroke-width:0.8;" x="69.636294" xlink:href="#m0c51d81a75" y="193.700652"/>
      </g>
     </g>
     <g id="text_15">
      <!-- $\mathdefault{0.08}$ -->
      <g style="fill:#262626;" transform="translate(35.857223 198.543591)scale(0.14 -0.14)">
       <defs>
        <path d="M 27.203125 35.765625 
C 33.5 38.96875 39.90625 43.796875 39.90625 51.53125 
C 39.90625 60.6875 31.09375 66 23 66 
C 13.90625 66 5.90625 59.375 5.90625 50.234375 
C 5.90625 47.71875 6.5 43.390625 10.40625 39.578125 
C 11.40625 38.578125 15.59375 35.5625 18.296875 33.65625 
C 13.796875 31.34375 3.296875 25.8125 3.296875 14.765625 
C 3.296875 4.40625 13.09375 -2 22.796875 -2 
C 33.5 -2 42.5 5.71875 42.5 15.96875 
C 42.5 25.109375 36.40625 29.328125 32.40625 32.046875 
z
M 14.09375 44.609375 
C 13.296875 45.109375 9.296875 48.21875 9.296875 52.9375 
C 9.296875 59.078125 15.59375 63.6875 22.796875 63.6875 
C 30.703125 63.6875 36.5 58.0625 36.5 51.53125 
C 36.5 42.1875 26.09375 36.859375 25.59375 36.859375 
C 25.5 36.859375 25.40625 36.859375 24.59375 37.46875 
z
M 32.5 24 
C 34 22.90625 38.796875 19.578125 38.796875 13.453125 
C 38.796875 6.015625 31.40625 0.390625 23 0.390625 
C 13.90625 0.390625 7 6.921875 7 14.859375 
C 7 22.796875 13.09375 29.4375 20 32.546875 
z
" id="CMR17-56"/>
       </defs>
       <use transform="scale(0.996264)" xlink:href="#CMR17-48"/>
       <use transform="translate(45.690477 0)scale(0.996264)" xlink:href="#CMMI12-58"/>
       <use transform="translate(72.787654 0)scale(0.996264)" xlink:href="#CMR17-48"/>
       <use transform="translate(118.478131 0)scale(0.996264)" xlink:href="#CMR17-56"/>
      </g>
     </g>
    </g>
    <g id="ytick_6">
     <g id="line2d_29">
      <path clip-path="url(#pfe8a04970e)" d="M 69.636294 140.284598 
L 570.24 140.284598 
" style="fill:none;stroke:#cccccc;stroke-linecap:round;"/>
     </g>
     <g id="line2d_30">
      <g>
       <use style="fill:#262626;stroke:#262626;stroke-width:0.8;" x="69.636294" xlink:href="#m0c51d81a75" y="140.284598"/>
      </g>
     </g>
     <g id="text_16">
      <!-- $\mathdefault{0.10}$ -->
      <g style="fill:#262626;" transform="translate(35.857223 145.127536)scale(0.14 -0.14)">
       <use transform="scale(0.996264)" xlink:href="#CMR17-48"/>
       <use transform="translate(45.690477 0)scale(0.996264)" xlink:href="#CMMI12-58"/>
       <use transform="translate(72.787654 0)scale(0.996264)" xlink:href="#CMR17-49"/>
       <use transform="translate(118.478131 0)scale(0.996264)" xlink:href="#CMR17-48"/>
      </g>
     </g>
    </g>
    <g id="ytick_7">
     <g id="line2d_31">
      <path clip-path="url(#pfe8a04970e)" d="M 69.636294 86.868543 
L 570.24 86.868543 
" style="fill:none;stroke:#cccccc;stroke-linecap:round;"/>
     </g>
     <g id="line2d_32">
      <g>
       <use style="fill:#262626;stroke:#262626;stroke-width:0.8;" x="69.636294" xlink:href="#m0c51d81a75" y="86.868543"/>
      </g>
     </g>
     <g id="text_17">
      <!-- $\mathdefault{0.12}$ -->
      <g style="fill:#262626;" transform="translate(35.857223 91.711481)scale(0.14 -0.14)">
       <use transform="scale(0.996264)" xlink:href="#CMR17-48"/>
       <use transform="translate(45.690477 0)scale(0.996264)" xlink:href="#CMMI12-58"/>
       <use transform="translate(72.787654 0)scale(0.996264)" xlink:href="#CMR17-49"/>
       <use transform="translate(118.478131 0)scale(0.996264)" xlink:href="#CMR17-50"/>
      </g>
     </g>
    </g>
    <g id="text_18">
     <!-- $P(\theta_v)$ -->
     <g style="fill:#262626;" transform="translate(27.672917 241.126682)rotate(-90)scale(0.168 -0.168)">
      <defs>
       <path d="M 29.59375 31.59375 
L 46.40625 31.59375 
C 60.203125 31.59375 74 41.765625 74 53.125 
C 74 60.90625 67.40625 68 54.796875 68 
L 23.90625 68 
C 22 68 21.09375 68 21.09375 66.09375 
C 21.09375 65.09375 22 65.09375 23.5 65.09375 
C 29.59375 65.09375 29.59375 64.296875 29.59375 63.203125 
C 29.59375 63 29.59375 62.40625 29.203125 60.90625 
L 15.703125 7.359375 
C 14.796875 3.890625 14.59375 2.890625 7.59375 2.890625 
C 5.703125 2.890625 4.703125 2.890625 4.703125 1.09375 
C 4.703125 0 5.59375 0 6.203125 0 
C 8.09375 0 10.09375 0.1875 12 0.1875 
L 23.703125 0.1875 
C 25.59375 0.1875 27.703125 0 29.59375 0 
C 30.40625 0 31.5 0 31.5 1.890625 
C 31.5 2.890625 30.59375 2.890625 29.09375 2.890625 
C 23.09375 2.890625 23 3.59375 23 4.578125 
C 23 5.078125 23.09375 5.765625 23.203125 6.265625 
z
M 36.796875 61.203125 
C 37.703125 64.890625 38.09375 65.09375 42 65.09375 
L 51.90625 65.09375 
C 59.40625 65.09375 65.59375 62.703125 65.59375 55.21875 
C 65.59375 52.640625 64.296875 44.15625 59.703125 39.578125 
C 58 37.78125 53.203125 34 44.09375 34 
L 30 34 
z
" id="CMMI12-80"/>
       <path d="M 30.59375 -24.40625 
C 30.59375 -24.3125 30.59375 -24.109375 30.296875 -23.8125 
C 25.703125 -19.109375 13.40625 -6.296875 13.40625 24.9375 
C 13.40625 56.171875 25.5 68.875 30.40625 73.890625 
C 30.40625 73.984375 30.59375 74.1875 30.59375 74.484375 
C 30.59375 74.796875 30.296875 75 29.90625 75 
C 28.796875 75 20.296875 67.578125 15.40625 56.5625 
C 10.40625 45.453125 9 34.65625 9 25.046875 
C 9 17.828125 9.703125 5.625 15.703125 -7.296875 
C 20.5 -17.703125 28.703125 -25 29.90625 -25 
C 30.40625 -25 30.59375 -24.8125 30.59375 -24.40625 
z
" id="CMR17-40"/>
       <path d="M 26.296875 24.9375 
C 26.296875 32.140625 25.59375 44.359375 19.59375 57.265625 
C 14.796875 67.6875 6.59375 75 5.40625 75 
C 5.09375 75 4.703125 74.890625 4.703125 74.390625 
C 4.703125 74.1875 4.796875 74.09375 4.90625 73.890625 
C 9.703125 68.875 21.90625 56.171875 21.90625 25.046875 
C 21.90625 -6.1875 9.796875 -18.90625 4.90625 -23.90625 
C 4.796875 -24.109375 4.703125 -24.203125 4.703125 -24.40625 
C 4.703125 -24.90625 5.09375 -25 5.40625 -25 
C 6.5 -25 15 -17.609375 19.90625 -6.59375 
C 24.90625 4.515625 26.296875 15.328125 26.296875 24.9375 
z
" id="CMR17-41"/>
      </defs>
      <use transform="scale(0.996264)" xlink:href="#CMMI12-80"/>
      <use transform="translate(76.425821 0)scale(0.996264)" xlink:href="#CMR17-40"/>
      <use transform="translate(111.706589 0)scale(0.996264)" xlink:href="#CMMI12-18"/>
      <use transform="translate(157.166379 -14.943915)scale(0.697382)" xlink:href="#CMMI12-118"/>
      <use transform="translate(193.17896 0)scale(0.996264)" xlink:href="#CMR17-41"/>
     </g>
    </g>
   </g>
   <g id="patch_3">
    <path clip-path="url(#pfe8a04970e)" d="M 92.391008 407.364872 
L 101.492893 407.364872 
L 101.492893 375.847651 
L 92.391008 375.847651 
z
" style="fill:#008fd5;"/>
   </g>
   <g id="patch_4">
    <path clip-path="url(#pfe8a04970e)" d="M 101.492893 407.364872 
L 110.594779 407.364872 
L 110.594779 360.08904 
L 101.492893 360.08904 
z
" style="fill:#008fd5;"/>
   </g>
   <g id="patch_5">
    <path clip-path="url(#pfe8a04970e)" d="M 110.594779 407.364872 
L 119.696664 407.364872 
L 119.696664 344.330429 
L 110.594779 344.330429 
z
" style="fill:#008fd5;"/>
   </g>
   <g id="patch_6">
    <path clip-path="url(#pfe8a04970e)" d="M 119.696664 407.364872 
L 128.79855 407.364872 
L 128.79855 344.330429 
L 119.696664 344.330429 
z
" style="fill:#008fd5;"/>
   </g>
   <g id="patch_7">
    <path clip-path="url(#pfe8a04970e)" d="M 128.79855 407.364872 
L 137.900436 407.364872 
L 137.900436 320.692514 
L 128.79855 320.692514 
z
" style="fill:#008fd5;"/>
   </g>
   <g id="patch_8">
    <path clip-path="url(#pfe8a04970e)" d="M 137.900436 407.364872 
L 147.002321 407.364872 
L 147.002321 320.692514 
L 137.900436 320.692514 
z
" style="fill:#008fd5;"/>
   </g>
   <g id="patch_9">
    <path clip-path="url(#pfe8a04970e)" d="M 147.002321 407.364872 
L 156.104207 407.364872 
L 156.104207 273.416682 
L 147.002321 273.416682 
z
" style="fill:#008fd5;"/>
   </g>
   <g id="patch_10">
    <path clip-path="url(#pfe8a04970e)" d="M 156.104207 407.364872 
L 165.206092 407.364872 
L 165.206092 289.175292 
L 156.104207 289.175292 
z
" style="fill:#008fd5;"/>
   </g>
   <g id="patch_11">
    <path clip-path="url(#pfe8a04970e)" d="M 165.206092 407.364872 
L 174.307978 407.364872 
L 174.307978 218.261545 
L 165.206092 218.261545 
z
" style="fill:#008fd5;"/>
   </g>
   <g id="patch_12">
    <path clip-path="url(#pfe8a04970e)" d="M 174.307978 407.364872 
L 183.409863 407.364872 
L 183.409863 273.416682 
L 174.307978 273.416682 
z
" style="fill:#008fd5;"/>
   </g>
   <g id="patch_13">
    <path clip-path="url(#pfe8a04970e)" d="M 183.409863 407.364872 
L 192.511749 407.364872 
L 192.511749 210.382239 
L 183.409863 210.382239 
z
" style="fill:#008fd5;"/>
   </g>
   <g id="patch_14">
    <path clip-path="url(#pfe8a04970e)" d="M 192.511749 407.364872 
L 201.613635 407.364872 
L 201.613635 249.778766 
L 192.511749 249.778766 
z
" style="fill:#008fd5;"/>
   </g>
   <g id="patch_15">
    <path clip-path="url(#pfe8a04970e)" d="M 201.613635 407.364872 
L 210.71552 407.364872 
L 210.71552 249.778766 
L 201.613635 249.778766 
z
" style="fill:#008fd5;"/>
   </g>
   <g id="patch_16">
    <path clip-path="url(#pfe8a04970e)" d="M 210.71552 407.364872 
L 219.817406 407.364872 
L 219.817406 178.865018 
L 210.71552 178.865018 
z
" style="fill:#008fd5;"/>
   </g>
   <g id="patch_17">
    <path clip-path="url(#pfe8a04970e)" d="M 219.817406 407.364872 
L 228.919291 407.364872 
L 228.919291 218.261545 
L 219.817406 218.261545 
z
" style="fill:#008fd5;"/>
   </g>
   <g id="patch_18">
    <path clip-path="url(#pfe8a04970e)" d="M 228.919291 407.364872 
L 238.021177 407.364872 
L 238.021177 249.778766 
L 228.919291 249.778766 
z
" style="fill:#008fd5;"/>
   </g>
   <g id="patch_19">
    <path clip-path="url(#pfe8a04970e)" d="M 238.021177 407.364872 
L 247.123062 407.364872 
L 247.123062 163.106407 
L 238.021177 163.106407 
z
" style="fill:#008fd5;"/>
   </g>
   <g id="patch_20">
    <path clip-path="url(#pfe8a04970e)" d="M 247.123062 407.364872 
L 256.224948 407.364872 
L 256.224948 186.744323 
L 247.123062 186.744323 
z
" style="fill:#008fd5;"/>
   </g>
   <g id="patch_21">
    <path clip-path="url(#pfe8a04970e)" d="M 256.224948 407.364872 
L 265.326834 407.364872 
L 265.326834 178.865018 
L 256.224948 178.865018 
z
" style="fill:#008fd5;"/>
   </g>
   <g id="patch_22">
    <path clip-path="url(#pfe8a04970e)" d="M 265.326834 407.364872 
L 274.428719 407.364872 
L 274.428719 249.778766 
L 265.326834 249.778766 
z
" style="fill:#008fd5;"/>
   </g>
   <g id="patch_23">
    <path clip-path="url(#pfe8a04970e)" d="M 274.428719 407.364872 
L 283.530605 407.364872 
L 283.530605 84.313354 
L 274.428719 84.313354 
z
" style="fill:#008fd5;"/>
   </g>
   <g id="patch_24">
    <path clip-path="url(#pfe8a04970e)" d="M 283.530605 407.364872 
L 292.63249 407.364872 
L 292.63249 163.106407 
L 283.530605 163.106407 
z
" style="fill:#008fd5;"/>
   </g>
   <g id="patch_25">
    <path clip-path="url(#pfe8a04970e)" d="M 292.63249 407.364872 
L 301.734376 407.364872 
L 301.734376 178.865018 
L 292.63249 178.865018 
z
" style="fill:#008fd5;"/>
   </g>
   <g id="patch_26">
    <path clip-path="url(#pfe8a04970e)" d="M 301.734376 407.364872 
L 310.836261 407.364872 
L 310.836261 210.382239 
L 301.734376 210.382239 
z
" style="fill:#008fd5;"/>
   </g>
   <g id="patch_27">
    <path clip-path="url(#pfe8a04970e)" d="M 310.836261 407.364872 
L 319.938147 407.364872 
L 319.938147 163.106407 
L 310.836261 163.106407 
z
" style="fill:#008fd5;"/>
   </g>
   <g id="patch_28">
    <path clip-path="url(#pfe8a04970e)" d="M 319.938147 407.364872 
L 329.040033 407.364872 
L 329.040033 163.106407 
L 319.938147 163.106407 
z
" style="fill:#008fd5;"/>
   </g>
   <g id="patch_29">
    <path clip-path="url(#pfe8a04970e)" d="M 329.040033 407.364872 
L 338.141918 407.364872 
L 338.141918 52.796133 
L 329.040033 52.796133 
z
" style="fill:#008fd5;"/>
   </g>
   <g id="patch_30">
    <path clip-path="url(#pfe8a04970e)" d="M 338.141918 407.364872 
L 347.243804 407.364872 
L 347.243804 202.502934 
L 338.141918 202.502934 
z
" style="fill:#008fd5;"/>
   </g>
   <g id="patch_31">
    <path clip-path="url(#pfe8a04970e)" d="M 347.243804 407.364872 
L 356.345689 407.364872 
L 356.345689 186.744323 
L 347.243804 186.744323 
z
" style="fill:#008fd5;"/>
   </g>
   <g id="patch_32">
    <path clip-path="url(#pfe8a04970e)" d="M 356.345689 407.364872 
L 365.447575 407.364872 
L 365.447575 194.623629 
L 356.345689 194.623629 
z
" style="fill:#008fd5;"/>
   </g>
   <g id="patch_33">
    <path clip-path="url(#pfe8a04970e)" d="M 365.447575 407.364872 
L 374.54946 407.364872 
L 374.54946 147.347797 
L 365.447575 147.347797 
z
" style="fill:#008fd5;"/>
   </g>
   <g id="patch_34">
    <path clip-path="url(#pfe8a04970e)" d="M 374.54946 407.364872 
L 383.651346 407.364872 
L 383.651346 123.709881 
L 374.54946 123.709881 
z
" style="fill:#008fd5;"/>
   </g>
   <g id="patch_35">
    <path clip-path="url(#pfe8a04970e)" d="M 383.651346 407.364872 
L 392.753231 407.364872 
L 392.753231 273.416682 
L 383.651346 273.416682 
z
" style="fill:#008fd5;"/>
   </g>
   <g id="patch_36">
    <path clip-path="url(#pfe8a04970e)" d="M 392.753231 407.364872 
L 401.855117 407.364872 
L 401.855117 234.020155 
L 392.753231 234.020155 
z
" style="fill:#008fd5;"/>
   </g>
   <g id="patch_37">
    <path clip-path="url(#pfe8a04970e)" d="M 401.855117 407.364872 
L 410.957003 407.364872 
L 410.957003 273.416682 
L 401.855117 273.416682 
z
" style="fill:#008fd5;"/>
   </g>
   <g id="patch_38">
    <path clip-path="url(#pfe8a04970e)" d="M 410.957003 407.364872 
L 420.058888 407.364872 
L 420.058888 320.692514 
L 410.957003 320.692514 
z
" style="fill:#008fd5;"/>
   </g>
   <g id="patch_39">
    <path clip-path="url(#pfe8a04970e)" d="M 420.058888 407.364872 
L 429.160774 407.364872 
L 429.160774 289.175292 
L 420.058888 289.175292 
z
" style="fill:#008fd5;"/>
   </g>
   <g id="patch_40">
    <path clip-path="url(#pfe8a04970e)" d="M 429.160774 407.364872 
L 438.262659 407.364872 
L 438.262659 304.933903 
L 429.160774 304.933903 
z
" style="fill:#008fd5;"/>
   </g>
   <g id="patch_41">
    <path clip-path="url(#pfe8a04970e)" d="M 438.262659 407.364872 
L 447.364545 407.364872 
L 447.364545 360.08904 
L 438.262659 360.08904 
z
" style="fill:#008fd5;"/>
   </g>
   <g id="patch_42">
    <path clip-path="url(#pfe8a04970e)" d="M 447.364545 407.364872 
L 456.46643 407.364872 
L 456.46643 312.813208 
L 447.364545 312.813208 
z
" style="fill:#008fd5;"/>
   </g>
   <g id="patch_43">
    <path clip-path="url(#pfe8a04970e)" d="M 456.46643 407.364872 
L 465.568316 407.364872 
L 465.568316 360.08904 
L 456.46643 360.08904 
z
" style="fill:#008fd5;"/>
   </g>
   <g id="patch_44">
    <path clip-path="url(#pfe8a04970e)" d="M 465.568316 407.364872 
L 474.670202 407.364872 
L 474.670202 352.209735 
L 465.568316 352.209735 
z
" style="fill:#008fd5;"/>
   </g>
   <g id="patch_45">
    <path clip-path="url(#pfe8a04970e)" d="M 474.670202 407.364872 
L 483.772087 407.364872 
L 483.772087 383.726956 
L 474.670202 383.726956 
z
" style="fill:#008fd5;"/>
   </g>
   <g id="patch_46">
    <path clip-path="url(#pfe8a04970e)" d="M 483.772087 407.364872 
L 492.873973 407.364872 
L 492.873973 399.485567 
L 483.772087 399.485567 
z
" style="fill:#008fd5;"/>
   </g>
   <g id="patch_47">
    <path clip-path="url(#pfe8a04970e)" d="M 492.873973 407.364872 
L 501.975858 407.364872 
L 501.975858 407.364872 
L 492.873973 407.364872 
z
" style="fill:#008fd5;"/>
   </g>
   <g id="patch_48">
    <path clip-path="url(#pfe8a04970e)" d="M 501.975858 407.364872 
L 511.077744 407.364872 
L 511.077744 407.364872 
L 501.975858 407.364872 
z
" style="fill:#008fd5;"/>
   </g>
   <g id="patch_49">
    <path clip-path="url(#pfe8a04970e)" d="M 511.077744 407.364872 
L 520.179629 407.364872 
L 520.179629 407.364872 
L 511.077744 407.364872 
z
" style="fill:#008fd5;"/>
   </g>
   <g id="patch_50">
    <path clip-path="url(#pfe8a04970e)" d="M 520.179629 407.364872 
L 529.281515 407.364872 
L 529.281515 407.364872 
L 520.179629 407.364872 
z
" style="fill:#008fd5;"/>
   </g>
   <g id="patch_51">
    <path clip-path="url(#pfe8a04970e)" d="M 529.281515 407.364872 
L 538.383401 407.364872 
L 538.383401 399.485567 
L 529.281515 399.485567 
z
" style="fill:#008fd5;"/>
   </g>
   <g id="patch_52">
    <path clip-path="url(#pfe8a04970e)" d="M 538.383401 407.364872 
L 547.485286 407.364872 
L 547.485286 399.485567 
L 538.383401 399.485567 
z
" style="fill:#008fd5;"/>
   </g>
   <g id="LineCollection_1">
    <path clip-path="url(#pfe8a04970e)" d="M 293.191471 407.364872 
L 293.191471 52.796133 
" style="fill:none;stroke:#fc4f30;stroke-dasharray:14.8,6.4;stroke-dashoffset:0;stroke-width:4;"/>
   </g>
   <g id="patch_53">
    <path d="M 69.636294 407.364872 
L 69.636294 35.067696 
" style="fill:none;stroke:#262626;stroke-linecap:square;stroke-linejoin:miter;stroke-width:1.25;"/>
   </g>
   <g id="patch_54">
    <path d="M 570.24 407.364872 
L 570.24 35.067696 
" style="fill:none;stroke:#262626;stroke-linecap:square;stroke-linejoin:miter;stroke-width:1.25;"/>
   </g>
   <g id="patch_55">
    <path d="M 69.636294 407.364872 
L 570.24 407.364872 
" style="fill:none;stroke:#262626;stroke-linecap:square;stroke-linejoin:miter;stroke-width:1.25;"/>
   </g>
   <g id="patch_56">
    <path d="M 69.636294 35.067696 
L 570.24 35.067696 
" style="fill:none;stroke:#262626;stroke-linecap:square;stroke-linejoin:miter;stroke-width:1.25;"/>
   </g>
   <g id="text_19">
    <!-- PDF of the viewing angle of 'visible' NSBH Mergers -->
    <g style="fill:#262626;" transform="translate(114.098306 29.067696)scale(0.2016 -0.2016)">
     <defs>
      <path d="M 32.90625 29 
C 44.90625 29 54.703125 38.234375 54.703125 49.046875 
C 54.703125 59.65625 45.296875 69 32.296875 69 
L 8.90625 69 
L 8.90625 0 
L 17.296875 0 
L 17.296875 29 
z
M 30.09375 63.390625 
C 41.703125 63.390625 46.796875 56.21875 46.796875 49.046875 
C 46.796875 42.359375 42.09375 34.796875 30.09375 34.796875 
L 17.09375 34.796875 
L 17.09375 63.390625 
z
" id="CMSS17-80"/>
      <path d="M 8.90625 69 
L 8.90625 0 
L 33.5 0 
C 49.90625 0 62.5 15.328125 62.5 33.890625 
C 62.5 53.0625 49.90625 69 33.5 69 
z
M 17.09375 5.59375 
L 17.09375 63.390625 
L 31.296875 63.390625 
C 44.703125 63.390625 54.296875 51.171875 54.296875 33.890625 
C 54.296875 17.3125 44.796875 5.59375 31.296875 5.59375 
z
" id="CMSS17-68"/>
      <path d="M 45.59375 31 
L 45.59375 37.09375 
L 17.203125 37.09375 
L 17.203125 62.390625 
L 29.40625 62.390625 
C 30.59375 62.390625 31.796875 62.296875 33 62.296875 
L 49.5 62.296875 
L 49.5 68.796875 
L 8.796875 68.796875 
L 8.796875 0 
L 17.203125 0 
L 17.203125 31 
z
" id="CMSS17-70"/>
      <path d="M 44.203125 21.1875 
C 44.203125 33.984375 34.703125 44 23.5 44 
C 12 44 2.703125 33.6875 2.703125 21.1875 
C 2.703125 8.5 12.296875 -1 23.40625 -1 
C 34.796875 -1 44.203125 8.796875 44.203125 21.1875 
z
M 23.5 5.296875 
C 16.40625 5.296875 10.296875 11.09375 10.296875 21.984375 
C 10.296875 33.59375 17.40625 37.890625 23.40625 37.890625 
C 29.90625 37.890625 36.59375 33.1875 36.59375 21.984375 
C 36.59375 10.6875 30.09375 5.296875 23.5 5.296875 
z
" id="CMSS17-111"/>
      <path d="M 16.796875 37.1875 
L 26.90625 37.1875 
L 26.90625 43 
L 16.59375 43 
L 16.59375 55.671875 
C 16.59375 62.703125 22 63.890625 25.09375 63.890625 
C 26.09375 63.890625 28.90625 63.890625 32.5 62.609375 
L 32.5 69.1875 
C 30.203125 69.6875 27.40625 70 25.203125 70 
C 15.90625 70 9.40625 62.40625 9.40625 52.59375 
L 9.40625 43 
L 2.5 43 
L 2.5 37.1875 
L 9.40625 37.1875 
L 9.40625 0 
L 16.796875 0 
z
" id="CMSS17-102"/>
      <path d="M 16.703125 37.1875 
L 29.703125 37.1875 
L 29.703125 43 
L 16.703125 43 
L 16.703125 55 
L 9.59375 55 
L 9.59375 43 
L 1.703125 43 
L 1.703125 37.1875 
L 9.40625 37.1875 
L 9.40625 11.734375 
C 9.40625 6 10.703125 -1 17.296875 -1 
C 22.296875 -1 26.90625 0.390625 31.296875 2.6875 
L 29.703125 8.609375 
C 27.296875 6.5 24.40625 5.296875 21.296875 5.296875 
C 16.90625 5.296875 16.703125 10.921875 16.703125 13.4375 
z
" id="CMSS17-116"/>
      <path d="M 40.90625 29.34375 
C 40.90625 35.671875 39.40625 44 28.09375 44 
C 21.796875 44 17.703125 40.890625 14.796875 37.484375 
L 14.796875 69 
L 7.40625 69 
L 7.40625 0 
L 15 0 
L 15 24.3125 
C 15 30.65625 17.40625 37.890625 24.203125 37.890625 
C 33 37.890625 33.296875 31.953125 33.296875 28.53125 
L 33.296875 0 
L 40.90625 0 
z
" id="CMSS17-104"/>
      <path d="M 41.796875 43 
L 34 43 
L 27.296875 24.296875 
C 25.203125 18.1875 22.203125 9.796875 21.703125 5.5 
L 21.59375 5.5 
C 21.40625 7.296875 20.59375 9.890625 20.09375 11.6875 
C 19.5 13.890625 18.703125 16.5 18.09375 18.296875 
L 9.296875 43 
L 1.296875 43 
L 17.09375 0 
L 26 0 
z
" id="CMSS17-118"/>
      <path d="M 37.59375 27.953125 
C 37.59375 37.484375 30.90625 44 21.90625 44 
C 17.5 44 12.703125 43.1875 7.203125 39.984375 
L 7.796875 33.328125 
C 10.296875 35.15625 14.59375 38.09375 21.796875 38.09375 
C 26.90625 38.09375 30 34.140625 30 27.84375 
L 30 24 
C 14 23.5 4 18.890625 4 11.109375 
C 4 7.0625 6.5 -1 14.796875 -1 
C 16.296875 -1 24.40625 -0.8125 30.203125 3.5 
L 30.203125 -0.203125 
L 37.59375 -0.203125 
z
M 30 12.875 
C 30 11.109375 30 8.734375 27 6.96875 
C 24.40625 5.296875 21.09375 5.09375 19.703125 5.09375 
C 14.703125 5.09375 11.296875 7.859375 11.296875 11.296875 
C 11.296875 18.203125 26.90625 18.890625 30 19 
z
" id="CMSS17-97"/>
      <path d="M 17 61.09375 
L 17 69 
L 9 69 
L 9 60.984375 
L 11.5 60.984375 
L 8.90625 48.890625 
L 12.90625 48.890625 
z
" id="CMSS17-39"/>
      <path d="M 32.203125 40.984375 
C 26.296875 43.796875 21.703125 44 18.703125 44 
C 11.59375 44 3.09375 41.484375 3.09375 31.390625 
C 3.09375 21.296875 14.09375 19.09375 17.09375 18.484375 
C 21.703125 17.59375 26.796875 16.59375 26.796875 11.59375 
C 26.796875 5.296875 19.59375 5.296875 18.296875 5.296875 
C 14.296875 5.296875 8.796875 6.390625 3.796875 9.984375 
L 2.59375 3.296875 
C 8.296875 0 13.796875 -1 18.40625 -1 
C 30.703125 -1 33.796875 6.5 33.796875 12.1875 
C 33.796875 17.09375 31 20.390625 29.09375 21.890625 
C 25.796875 24.484375 24.59375 24.796875 16.40625 26.484375 
C 15 26.6875 10.09375 27.796875 10.09375 32.296875 
C 10.09375 37.984375 16.40625 37.984375 17.796875 37.984375 
C 24.296875 37.984375 28.296875 35.984375 31 34.484375 
z
" id="CMSS17-115"/>
      <path d="M 14.90625 69 
L 7.5 69 
L 7.5 -0.203125 
L 15.09375 -0.203125 
L 15.09375 4.296875 
C 18.90625 0.59375 23.5 -1 27.59375 -1 
C 37.203125 -1 45 8.734375 45 21.59375 
C 45 33.328125 39 44 30.09375 44 
C 23.796875 44 18.203125 41.390625 14.90625 38.6875 
z
M 15.09375 32.734375 
C 17.296875 35.5625 20.40625 37.890625 24.796875 37.890625 
C 30.703125 37.890625 37.40625 33.53125 37.40625 21.59375 
C 37.40625 8.84375 29.40625 5.09375 23.90625 5.09375 
C 21.90625 5.09375 19.796875 5.59375 17.796875 7.3125 
C 15.09375 9.75 15.09375 11.265625 15.09375 12.6875 
z
" id="CMSS17-98"/>
      <path d="M 22.90625 65.296875 
L 21.09375 69 
L 8.796875 69 
L 8.796875 0 
L 16.59375 0 
L 16.59375 61.328125 
L 16.703125 61.421875 
C 17.40625 59.640625 17.796875 58.734375 21.90625 49.890625 
L 43.296875 3.6875 
L 45.09375 0 
L 57.40625 0 
L 57.40625 69 
L 49.59375 69 
L 49.59375 7.65625 
L 49.5 7.5625 
C 48.796875 9.34375 48.40625 10.234375 44.296875 19.09375 
z
" id="CMSS17-78"/>
      <path d="M 43.703125 66.09375 
C 39.296875 68.6875 34.5 71 26.40625 71 
C 13.5 71 5.203125 61.46875 5.203125 51.703125 
C 5.203125 47.875 6.296875 43.546875 10.203125 39.125 
C 14.09375 34.6875 18.5 33.484375 24.09375 32.078125 
C 26.40625 31.46875 30.296875 30.359375 31 30.0625 
C 36.59375 27.84375 39.296875 22.71875 39.296875 17.875 
C 39.296875 11.53125 34.40625 4.796875 25.703125 4.796875 
C 22.703125 4.796875 13.90625 5.296875 5.59375 12.953125 
L 4.203125 5 
C 12.40625 -1 21.296875 -2 25.796875 -2 
C 38.09375 -2 46.90625 7.71875 46.90625 18.78125 
C 46.90625 22.8125 45.703125 27.953125 41.5 32.6875 
C 37.40625 37.203125 33.796875 38.21875 25.59375 40.4375 
C 20.90625 41.640625 17.90625 42.453125 15.40625 45.5625 
C 13.703125 47.78125 12.796875 49.890625 12.796875 52.609375 
C 12.796875 58.25 17.59375 64.390625 26.40625 64.390625 
C 30.796875 64.390625 36.5 63.484375 42.296875 58.046875 
z
" id="CMSS17-83"/>
      <path d="M 8.90625 69 
L 8.90625 0 
L 33.796875 0 
C 47.40625 0 57.296875 8.984375 57.296875 18.75 
C 57.296875 26.3125 50.796875 33.984375 39.09375 36.1875 
C 52.09375 39.984375 54.703125 47.484375 54.703125 51.734375 
C 54.703125 60.625 44.90625 69 31.203125 69 
z
M 17 39 
L 17 63.390625 
L 28.5 63.390625 
C 38.796875 63.390625 46.90625 58.15625 46.90625 51.640625 
C 46.90625 45.703125 40.5 39 27.59375 39 
z
M 17 5.59375 
L 17 32.890625 
L 30.296875 32.890625 
C 41.09375 32.890625 49.40625 26.21875 49.40625 18.84375 
C 49.40625 12.0625 42.09375 5.59375 31 5.59375 
z
" id="CMSS17-66"/>
      <path d="M 57.40625 69 
L 49 69 
L 49 39 
L 17.203125 39 
L 17.203125 69 
L 8.796875 69 
L 8.796875 0 
L 17.203125 0 
L 17.203125 32.890625 
L 49 32.890625 
L 49 0 
L 57.40625 0 
z
" id="CMSS17-72"/>
      <path d="M 49.90625 37.078125 
L 45.09375 23.0625 
C 44.296875 20.484375 41.59375 12.421875 41 9.25 
L 40.90625 9.25 
C 40.59375 11.234375 40 13.328125 38.40625 18.390625 
C 37.5 21.375 36.5 24.453125 35.5 27.234375 
L 20.703125 69 
L 9 69 
L 9 0 
L 16.796875 0 
L 16.796875 60.921875 
L 16.90625 60.921875 
C 16.90625 60.828125 17.796875 56.453125 23.90625 39.0625 
L 37.09375 1.59375 
L 44.5 1.59375 
L 56.40625 34.890625 
C 57.203125 37.171875 59.703125 44.421875 60.796875 47.90625 
C 61.796875 50.890625 64.296875 58.25 64.90625 61.125 
L 65 61.125 
L 65 0 
L 72.90625 0 
L 72.90625 69 
L 61.296875 69 
z
" id="CMSS17-77"/>
      <path d="M 14.90625 21.390625 
C 14.90625 30.84375 21.796875 37.171875 30.59375 37.375 
L 30.59375 44 
C 24.203125 43.890625 18.203125 40.6875 14.59375 35.46875 
L 14.59375 43.484375 
L 7.5 43.484375 
L 7.5 0 
L 14.90625 0 
z
" id="CMSS17-114"/>
     </defs>
     <use transform="scale(0.996264)" xlink:href="#CMSS17-80"/>
     <use transform="translate(59.735586 0)scale(0.996264)" xlink:href="#CMSS17-68"/>
     <use transform="translate(127.278428 0)scale(0.996264)" xlink:href="#CMSS17-70"/>
     <use transform="translate(211.7971 0)scale(0.996264)" xlink:href="#CMSS17-111"/>
     <use transform="translate(258.640724 0)scale(0.996264)" xlink:href="#CMSS17-102"/>
     <use transform="translate(318.496495 0)scale(0.996264)" xlink:href="#CMSS17-116"/>
     <use transform="translate(352.328062 0)scale(0.996264)" xlink:href="#CMSS17-104"/>
     <use transform="translate(400.533005 0)scale(0.996264)" xlink:href="#CMSS17-101"/>
     <use transform="translate(473.40094 0)scale(0.996264)" xlink:href="#CMSS17-118"/>
     <use transform="translate(516.401081 0)scale(0.996264)" xlink:href="#CMSS17-105"/>
     <use transform="translate(538.581804 0)scale(0.996264)" xlink:href="#CMSS17-101"/>
     <use transform="translate(580.220627 0)scale(0.996264)" xlink:href="#CMSS17-119"/>
     <use transform="translate(644.040172 0)scale(0.996264)" xlink:href="#CMSS17-105"/>
     <use transform="translate(666.220895 0)scale(0.996264)" xlink:href="#CMSS17-110"/>
     <use transform="translate(714.425838 0)scale(0.996264)" xlink:href="#CMSS17-103"/>
     <use transform="translate(792.498574 0)scale(0.996264)" xlink:href="#CMSS17-97"/>
     <use transform="translate(837.420495 0)scale(0.996264)" xlink:href="#CMSS17-110"/>
     <use transform="translate(885.625438 0)scale(0.996264)" xlink:href="#CMSS17-103"/>
     <use transform="translate(932.469061 0)scale(0.996264)" xlink:href="#CMSS17-108"/>
     <use transform="translate(954.649784 0)scale(0.996264)" xlink:href="#CMSS17-101"/>
     <use transform="translate(1027.517719 0)scale(0.996264)" xlink:href="#CMSS17-111"/>
     <use transform="translate(1074.361343 0)scale(0.996264)" xlink:href="#CMSS17-102"/>
     <use transform="translate(1134.217114 0)scale(0.996264)" xlink:href="#CMSS17-39"/>
     <use transform="translate(1160.241319 0)scale(0.996264)" xlink:href="#CMSS17-118"/>
     <use transform="translate(1203.241461 0)scale(0.996264)" xlink:href="#CMSS17-105"/>
     <use transform="translate(1225.422184 0)scale(0.996264)" xlink:href="#CMSS17-115"/>
     <use transform="translate(1261.335726 0)scale(0.996264)" xlink:href="#CMSS17-105"/>
     <use transform="translate(1283.516449 0)scale(0.996264)" xlink:href="#CMSS17-98"/>
     <use transform="translate(1331.721392 0)scale(0.996264)" xlink:href="#CMSS17-108"/>
     <use transform="translate(1353.902115 0)scale(0.996264)" xlink:href="#CMSS17-101"/>
     <use transform="translate(1395.540937 0)scale(0.996264)" xlink:href="#CMSS17-39"/>
     <use transform="translate(1452.794255 0)scale(0.996264)" xlink:href="#CMSS17-78"/>
     <use transform="translate(1518.855774 0)scale(0.996264)" xlink:href="#CMSS17-83"/>
     <use transform="translate(1570.90429 0)scale(0.996264)" xlink:href="#CMSS17-66"/>
     <use transform="translate(1633.24233 0)scale(0.996264)" xlink:href="#CMSS17-72"/>
     <use transform="translate(1730.532962 0)scale(0.996264)" xlink:href="#CMSS17-77"/>
     <use transform="translate(1812.208992 0)scale(0.996264)" xlink:href="#CMSS17-101"/>
     <use transform="translate(1853.847814 0)scale(0.996264)" xlink:href="#CMSS17-114"/>
     <use transform="translate(1885.757587 0)scale(0.996264)" xlink:href="#CMSS17-103"/>
     <use transform="translate(1932.60121 0)scale(0.996264)" xlink:href="#CMSS17-101"/>
     <use transform="translate(1974.240032 0)scale(0.996264)" xlink:href="#CMSS17-114"/>
     <use transform="translate(2006.149805 0)scale(0.996264)" xlink:href="#CMSS17-115"/>
    </g>
   </g>
  </g>
 </g>
 <defs>
  <clipPath id="pfe8a04970e">
   <rect height="372.297176" width="500.603706" x="69.636294" y="35.067696"/>
  </clipPath>
 </defs>
</svg>
