<?xml version="1.0" encoding="utf-8" standalone="no"?>
<!DOCTYPE svg PUBLIC "-//W3C//DTD SVG 1.1//EN"
  "http://www.w3.org/Graphics/SVG/1.1/DTD/svg11.dtd">
<!-- Created with matplotlib (https://matplotlib.org/) -->
<svg height="465.12pt" version="1.1" viewBox="0 0 536.4 465.12" width="536.4pt" xmlns="http://www.w3.org/2000/svg" xmlns:xlink="http://www.w3.org/1999/xlink">
 <metadata>
  <rdf:RDF xmlns:cc="http://creativecommons.org/ns#" xmlns:dc="http://purl.org/dc/elements/1.1/" xmlns:rdf="http://www.w3.org/1999/02/22-rdf-syntax-ns#">
   <cc:Work>
    <dc:type rdf:resource="http://purl.org/dc/dcmitype/StillImage"/>
    <dc:date>2021-06-08T18:46:03.537557</dc:date>
    <dc:format>image/svg+xml</dc:format>
    <dc:creator>
     <cc:Agent>
      <dc:title>Matplotlib v3.3.2, https://matplotlib.org/</dc:title>
     </cc:Agent>
    </dc:creator>
   </cc:Work>
  </rdf:RDF>
 </metadata>
 <defs>
  <style type="text/css">*{stroke-linecap:butt;stroke-linejoin:round;}</style>
 </defs>
 <g id="figure_1">
  <g id="patch_1">
   <path d="M 0 465.12 
L 536.4 465.12 
L 536.4 0 
L 0 0 
z
" style="fill:#f0f0f0;"/>
  </g>
  <g id="axes_1">
   <g id="patch_2">
    <path d="M 65.594034 407.364872 
L 520.042931 407.364872 
L 520.042931 35.067696 
L 65.594034 35.067696 
z
" style="fill:#ffffff;"/>
   </g>
   <g id="matplotlib.axis_1">
    <g id="xtick_1">
     <g id="line2d_1">
      <path clip-path="url(#p47c92773ef)" d="M 79.923575 407.364872 
L 79.923575 35.067696 
" style="fill:none;stroke:#cccccc;stroke-linecap:round;"/>
     </g>
     <g id="line2d_2">
      <defs>
       <path d="M 0 0 
L 0 6 
" id="maf200c5950" style="stroke:#262626;stroke-width:0.8;"/>
      </defs>
      <g>
       <use style="fill:#262626;stroke:#262626;stroke-width:0.8;" x="79.923575" xlink:href="#maf200c5950" y="407.364872"/>
      </g>
     </g>
     <g id="text_1">
      <!-- $\mathdefault{0.0}$ -->
      <g style="fill:#262626;" transform="translate(71.198284 426.550748)scale(0.14 -0.14)">
       <defs>
        <path d="M 42 31.84375 
C 42 37.96875 41.90625 48.421875 37.703125 56.453125 
C 34 63.484375 28.09375 66 22.90625 66 
C 18.09375 66 12 63.78125 8.203125 56.5625 
C 4.203125 49.015625 3.796875 39.671875 3.796875 31.84375 
C 3.796875 26.109375 3.90625 17.375 7 9.734375 
C 11.296875 -0.609375 19 -2 22.90625 -2 
C 27.5 -2 34.5 -0.109375 38.59375 9.4375 
C 41.59375 16.375 42 24.5 42 31.84375 
z
M 22.90625 -0.40625 
C 16.5 -0.40625 12.703125 5.125 11.296875 12.75 
C 10.203125 18.6875 10.203125 27.328125 10.203125 32.953125 
C 10.203125 40.6875 10.203125 47.109375 11.5 53.234375 
C 13.40625 61.78125 19 64.390625 22.90625 64.390625 
C 27 64.390625 32.296875 61.671875 34.203125 53.4375 
C 35.5 47.71875 35.59375 40.984375 35.59375 32.953125 
C 35.59375 26.421875 35.59375 18.375 34.40625 12.453125 
C 32.296875 1.5 26.40625 -0.40625 22.90625 -0.40625 
z
" id="CMR17-48"/>
        <path d="M 18.40625 4.796875 
C 18.40625 7.6875 16 9.6875 13.59375 9.6875 
C 10.703125 9.6875 8.703125 7.296875 8.703125 4.890625 
C 8.703125 2 11.09375 0 13.5 0 
C 16.40625 0 18.40625 2.390625 18.40625 4.796875 
z
" id="CMMI12-58"/>
       </defs>
       <use transform="scale(0.996264)" xlink:href="#CMR17-48"/>
       <use transform="translate(45.690477 0)scale(0.996264)" xlink:href="#CMMI12-58"/>
       <use transform="translate(72.787654 0)scale(0.996264)" xlink:href="#CMR17-48"/>
      </g>
     </g>
    </g>
    <g id="xtick_2">
     <g id="line2d_3">
      <path clip-path="url(#p47c92773ef)" d="M 141.240274 407.364872 
L 141.240274 35.067696 
" style="fill:none;stroke:#cccccc;stroke-linecap:round;"/>
     </g>
     <g id="line2d_4">
      <g>
       <use style="fill:#262626;stroke:#262626;stroke-width:0.8;" x="141.240274" xlink:href="#maf200c5950" y="407.364872"/>
      </g>
     </g>
     <g id="text_2">
      <!-- $\mathdefault{2.5}$ -->
      <g style="fill:#262626;" transform="translate(132.514983 426.550748)scale(0.14 -0.14)">
       <defs>
        <path d="M 41.703125 15.46875 
L 39.90625 15.46875 
C 38.90625 8.390625 38.09375 7.1875 37.703125 6.59375 
C 37.203125 5.796875 30 5.796875 28.59375 5.796875 
L 9.40625 5.796875 
C 13 9.6875 20 16.765625 28.5 24.9375 
C 34.59375 30.71875 41.703125 37.5 41.703125 47.390625 
C 41.703125 59.1875 32.296875 66 21.796875 66 
C 10.796875 66 4.09375 56.296875 4.09375 47.296875 
C 4.09375 43.390625 7 42.890625 8.203125 42.890625 
C 9.203125 42.890625 12.203125 43.484375 12.203125 46.984375 
C 12.203125 50.09375 9.59375 51 8.203125 51 
C 7.59375 51 7 50.890625 6.59375 50.6875 
C 8.5 59.1875 14.296875 63.390625 20.40625 63.390625 
C 29.09375 63.390625 34.796875 56.5 34.796875 47.390625 
C 34.796875 38.703125 29.703125 31.21875 24 24.734375 
L 4.09375 2.296875 
L 4.09375 0 
L 39.296875 0 
z
" id="CMR17-50"/>
        <path d="M 11.40625 58.59375 
C 12.40625 58.1875 16.5 56.890625 20.703125 56.890625 
C 30 56.890625 35.09375 61.890625 38 64.6875 
C 38 65.484375 38 66 37.40625 66 
C 37.296875 66 37.09375 66 36.296875 65.59375 
C 32.796875 64.09375 28.703125 63 23.703125 63 
C 20.703125 63 16.203125 63.359375 11.296875 65.484375 
C 10.203125 66 10 66 9.90625 66 
C 9.40625 66 9.296875 65.890625 9.296875 63.90625 
L 9.296875 34.859375 
C 9.296875 33.015625 9.296875 32.5 10.296875 32.5 
C 10.796875 32.5 11 32.703125 11.5 33.421875 
C 14.703125 38.046875 19.09375 40 24.09375 40 
C 27.59375 40 35.09375 37.734375 35.09375 20.203125 
C 35.09375 16.984375 35.09375 11.1875 32.09375 6.59375 
C 29.59375 2.484375 25.703125 0.390625 21.40625 0.390625 
C 14.796875 0.390625 8.09375 4.984375 6.296875 12.6875 
C 6.703125 12.59375 7.5 12.390625 7.90625 12.390625 
C 9.203125 12.390625 11.703125 13.09375 11.703125 16.1875 
C 11.703125 18.890625 9.796875 20 7.90625 20 
C 5.59375 20 4.09375 18.59375 4.09375 15.796875 
C 4.09375 7.09375 11 -2 21.59375 -2 
C 31.90625 -2 41.703125 6.890625 41.703125 19.796875 
C 41.703125 32.09375 33.90625 41.59375 24.203125 41.59375 
C 19.09375 41.59375 14.796875 39.6875 11.40625 36 
z
" id="CMR17-53"/>
       </defs>
       <use transform="scale(0.996264)" xlink:href="#CMR17-50"/>
       <use transform="translate(45.690477 0)scale(0.996264)" xlink:href="#CMMI12-58"/>
       <use transform="translate(72.787654 0)scale(0.996264)" xlink:href="#CMR17-53"/>
      </g>
     </g>
    </g>
    <g id="xtick_3">
     <g id="line2d_5">
      <path clip-path="url(#p47c92773ef)" d="M 202.556972 407.364872 
L 202.556972 35.067696 
" style="fill:none;stroke:#cccccc;stroke-linecap:round;"/>
     </g>
     <g id="line2d_6">
      <g>
       <use style="fill:#262626;stroke:#262626;stroke-width:0.8;" x="202.556972" xlink:href="#maf200c5950" y="407.364872"/>
      </g>
     </g>
     <g id="text_3">
      <!-- $\mathdefault{5.0}$ -->
      <g style="fill:#262626;" transform="translate(193.831681 426.550748)scale(0.14 -0.14)">
       <use transform="scale(0.996264)" xlink:href="#CMR17-53"/>
       <use transform="translate(45.690477 0)scale(0.996264)" xlink:href="#CMMI12-58"/>
       <use transform="translate(72.787654 0)scale(0.996264)" xlink:href="#CMR17-48"/>
      </g>
     </g>
    </g>
    <g id="xtick_4">
     <g id="line2d_7">
      <path clip-path="url(#p47c92773ef)" d="M 263.873671 407.364872 
L 263.873671 35.067696 
" style="fill:none;stroke:#cccccc;stroke-linecap:round;"/>
     </g>
     <g id="line2d_8">
      <g>
       <use style="fill:#262626;stroke:#262626;stroke-width:0.8;" x="263.873671" xlink:href="#maf200c5950" y="407.364872"/>
      </g>
     </g>
     <g id="text_4">
      <!-- $\mathdefault{7.5}$ -->
      <g style="fill:#262626;" transform="translate(255.14838 426.550748)scale(0.14 -0.14)">
       <defs>
        <path d="M 45.09375 61.796875 
L 45.09375 64 
L 21.59375 64 
C 9.90625 64 9.703125 65.09375 9.296875 67 
L 7.5 67 
L 4.59375 48.5 
L 6.40625 48.5 
C 6.703125 50.40625 7.40625 55.5 8.59375 57.390625 
C 9.203125 58.1875 16.59375 58.1875 18.296875 58.1875 
L 40.296875 58.1875 
L 29.203125 41.71875 
C 21.796875 30.640625 16.703125 15.671875 16.703125 2.59375 
C 16.703125 1.390625 16.703125 -2 20.296875 -2 
C 23.90625 -2 23.90625 1.390625 23.90625 2.6875 
L 23.90625 7.28125 
C 23.90625 23.65625 26.703125 34.4375 31.296875 41.3125 
z
" id="CMR17-55"/>
       </defs>
       <use transform="scale(0.996264)" xlink:href="#CMR17-55"/>
       <use transform="translate(45.690477 0)scale(0.996264)" xlink:href="#CMMI12-58"/>
       <use transform="translate(72.787654 0)scale(0.996264)" xlink:href="#CMR17-53"/>
      </g>
     </g>
    </g>
    <g id="xtick_5">
     <g id="line2d_9">
      <path clip-path="url(#p47c92773ef)" d="M 325.190369 407.364872 
L 325.190369 35.067696 
" style="fill:none;stroke:#cccccc;stroke-linecap:round;"/>
     </g>
     <g id="line2d_10">
      <g>
       <use style="fill:#262626;stroke:#262626;stroke-width:0.8;" x="325.190369" xlink:href="#maf200c5950" y="407.364872"/>
      </g>
     </g>
     <g id="text_5">
      <!-- $\mathdefault{10.0}$ -->
      <g style="fill:#262626;" transform="translate(313.050834 426.550748)scale(0.14 -0.14)">
       <defs>
        <path d="M 26.59375 63.796875 
C 26.59375 65.890625 26.5 66 25.09375 66 
C 21.203125 61.359375 15.296875 59.890625 9.703125 59.6875 
C 9.40625 59.6875 8.90625 59.6875 8.796875 59.5 
C 8.703125 59.296875 8.703125 59.09375 8.703125 57 
C 11.796875 57 17 57.59375 21 59.984375 
L 21 7.296875 
C 21 3.796875 20.796875 2.59375 12.203125 2.59375 
L 9.203125 2.59375 
L 9.203125 0 
C 14 0.09375 19 0.1875 23.796875 0.1875 
C 28.59375 0.1875 33.59375 0.09375 38.40625 0 
L 38.40625 2.59375 
L 35.40625 2.59375 
C 26.796875 2.59375 26.59375 3.6875 26.59375 7.296875 
z
" id="CMR17-49"/>
       </defs>
       <use transform="scale(0.996264)" xlink:href="#CMR17-49"/>
       <use transform="translate(45.690477 0)scale(0.996264)" xlink:href="#CMR17-48"/>
       <use transform="translate(91.380954 0)scale(0.996264)" xlink:href="#CMMI12-58"/>
       <use transform="translate(118.478131 0)scale(0.996264)" xlink:href="#CMR17-48"/>
      </g>
     </g>
    </g>
    <g id="xtick_6">
     <g id="line2d_11">
      <path clip-path="url(#p47c92773ef)" d="M 386.507068 407.364872 
L 386.507068 35.067696 
" style="fill:none;stroke:#cccccc;stroke-linecap:round;"/>
     </g>
     <g id="line2d_12">
      <g>
       <use style="fill:#262626;stroke:#262626;stroke-width:0.8;" x="386.507068" xlink:href="#maf200c5950" y="407.364872"/>
      </g>
     </g>
     <g id="text_6">
      <!-- $\mathdefault{12.5}$ -->
      <g style="fill:#262626;" transform="translate(374.367532 426.550748)scale(0.14 -0.14)">
       <use transform="scale(0.996264)" xlink:href="#CMR17-49"/>
       <use transform="translate(45.690477 0)scale(0.996264)" xlink:href="#CMR17-50"/>
       <use transform="translate(91.380954 0)scale(0.996264)" xlink:href="#CMMI12-58"/>
       <use transform="translate(118.478131 0)scale(0.996264)" xlink:href="#CMR17-53"/>
      </g>
     </g>
    </g>
    <g id="xtick_7">
     <g id="line2d_13">
      <path clip-path="url(#p47c92773ef)" d="M 447.823766 407.364872 
L 447.823766 35.067696 
" style="fill:none;stroke:#cccccc;stroke-linecap:round;"/>
     </g>
     <g id="line2d_14">
      <g>
       <use style="fill:#262626;stroke:#262626;stroke-width:0.8;" x="447.823766" xlink:href="#maf200c5950" y="407.364872"/>
      </g>
     </g>
     <g id="text_7">
      <!-- $\mathdefault{15.0}$ -->
      <g style="fill:#262626;" transform="translate(435.684231 426.550748)scale(0.14 -0.14)">
       <use transform="scale(0.996264)" xlink:href="#CMR17-49"/>
       <use transform="translate(45.690477 0)scale(0.996264)" xlink:href="#CMR17-53"/>
       <use transform="translate(91.380954 0)scale(0.996264)" xlink:href="#CMMI12-58"/>
       <use transform="translate(118.478131 0)scale(0.996264)" xlink:href="#CMR17-48"/>
      </g>
     </g>
    </g>
    <g id="xtick_8">
     <g id="line2d_15">
      <path clip-path="url(#p47c92773ef)" d="M 509.140465 407.364872 
L 509.140465 35.067696 
" style="fill:none;stroke:#cccccc;stroke-linecap:round;"/>
     </g>
     <g id="line2d_16">
      <g>
       <use style="fill:#262626;stroke:#262626;stroke-width:0.8;" x="509.140465" xlink:href="#maf200c5950" y="407.364872"/>
      </g>
     </g>
     <g id="text_8">
      <!-- $\mathdefault{17.5}$ -->
      <g style="fill:#262626;" transform="translate(497.000929 426.550748)scale(0.14 -0.14)">
       <use transform="scale(0.996264)" xlink:href="#CMR17-49"/>
       <use transform="translate(45.690477 0)scale(0.996264)" xlink:href="#CMR17-55"/>
       <use transform="translate(91.380954 0)scale(0.996264)" xlink:href="#CMMI12-58"/>
       <use transform="translate(118.478131 0)scale(0.996264)" xlink:href="#CMR17-53"/>
      </g>
     </g>
    </g>
    <g id="text_9">
     <!-- Viewing Angle, $\theta_v$ (deg.) -->
     <g style="fill:#262626;" transform="translate(208.573176 445.815694)scale(0.168 -0.168)">
      <defs>
       <path d="M 61.09375 69 
L 53.296875 69 
L 36 21.265625 
C 35.5 19.875 32.40625 10.734375 31.796875 7.5625 
L 31.703125 7.5625 
C 30.90625 11.328125 27.703125 20.171875 26 25.046875 
L 14.40625 57.34375 
L 10.09375 69 
L 1.296875 69 
L 26.796875 0 
L 35.59375 0 
z
" id="CMSS17-86"/>
       <path d="M 15.296875 66 
L 6.90625 66 
L 6.90625 57.59375 
L 15.296875 57.59375 
z
M 14.796875 43 
L 7.40625 43 
L 7.40625 0 
L 14.796875 0 
z
" id="CMSS17-105"/>
       <path d="M 39.09375 21.484375 
C 39.09375 24.796875 38.90625 31.265625 35.703125 36.671875 
C 32.203125 42.390625 26.5 44 22.203125 44 
C 11.796875 44 3 34.125 3 21.296875 
C 3 9.046875 12.09375 -1 23.59375 -1 
C 28.09375 -1 33.59375 0.296875 38.59375 3.890625 
C 38.59375 4.296875 38.40625 6.46875 38.296875 6.578125 
C 38.296875 6.765625 38 9.828125 38 10.234375 
C 33.203125 6.375 27.703125 5.09375 23.703125 5.09375 
C 17.296875 5.09375 10.40625 10.421875 10.09375 21.484375 
z
M 10.90625 27 
C 12.203125 32.59375 16.59375 37.890625 22.203125 37.890625 
C 23.703125 37.890625 30.703125 37.6875 32.5 27 
z
" id="CMSS17-101"/>
       <path d="M 62.703125 43 
L 55.09375 43 
L 49.796875 25 
C 48.703125 21.1875 45.59375 10.6875 45.203125 5.796875 
L 45.09375 5.796875 
C 44.90625 8.796875 43.203125 16 40.40625 25.5 
L 35.296875 43 
L 28.40625 43 
L 23.40625 25.890625 
C 20.90625 17.1875 19 9.796875 18.796875 5.796875 
L 18.703125 5.796875 
C 18.296875 11.6875 14.203125 25.5 13.59375 27.6875 
L 9.09375 43 
L 1.296875 43 
L 14.296875 0 
L 21.90625 0 
C 27.09375 17.1875 31.09375 30.5 31.40625 37.1875 
C 31.59375 33.890625 33.296875 26.796875 34.296875 23.296875 
L 40.90625 0 
L 49.703125 0 
z
" id="CMSS17-119"/>
       <path d="M 40.90625 29.34375 
C 40.90625 35.671875 39.40625 44 28.09375 44 
C 21.703125 44 17.5 40.6875 14.703125 37.28125 
L 14.703125 43.484375 
L 7.40625 43.484375 
L 7.40625 0 
L 15 0 
L 15 24.3125 
C 15 30.65625 17.40625 37.890625 24.203125 37.890625 
C 33 37.890625 33.296875 31.953125 33.296875 28.53125 
L 33.296875 0 
L 40.90625 0 
z
" id="CMSS17-110"/>
       <path d="M 44.5 44 
C 38.796875 43.890625 33.90625 42.796875 29.90625 40.890625 
C 26.59375 43.484375 23.203125 44 20.90625 44 
C 12.203125 44 5.59375 36.8125 5.59375 28.5 
C 5.59375 23.140625 8.59375 19.09375 8.796875 18.890625 
C 7 16.390625 6 13.6875 6 10.6875 
C 6 7.1875 7.40625 4.6875 8.5 3.296875 
C 3.296875 0.09375 2.59375 -4.8125 2.59375 -6.703125 
C 2.59375 -14 11.703125 -20 23.40625 -20 
C 35.203125 -20 44.296875 -14 44.296875 -6.609375 
C 44.296875 7.1875 29 7.296875 24.796875 7.296875 
L 16.703125 7.296875 
C 15.203125 7.296875 11.203125 7.296875 11.203125 12.390625 
C 11.203125 14.390625 12.09375 15.6875 12.203125 15.796875 
C 13.703125 14.6875 16.796875 13 20.90625 13 
C 29.203125 13 36.09375 19.984375 36.09375 28.5 
C 36.09375 33.25 33.90625 36.703125 33 37.890625 
L 33.296875 37.890625 
C 33.59375 37.890625 37.796875 38.1875 39.296875 38.1875 
C 42.5 38.1875 42.796875 38.09375 45.59375 37.796875 
z
M 20.90625 18.5 
C 17.5 18.5 12.703125 20.578125 12.703125 28.5 
C 12.703125 37.109375 18.203125 38.484375 20.796875 38.484375 
C 24.203125 38.484375 29 36.40625 29 28.5 
C 29 19.875 23.5 18.5 20.90625 18.5 
z
M 24.703125 0 
C 27.09375 0 37.203125 0 37.203125 -6.8125 
C 37.203125 -11.109375 31 -14.5 23.5 -14.5 
C 15.90625 -14.5 9.703125 -11.203125 9.703125 -6.703125 
C 9.703125 -6.203125 9.703125 0 16.59375 0 
z
" id="CMSS17-103"/>
       <path d="M 35.5 69 
L 26.90625 69 
L 2.59375 0 
L 10.203125 0 
L 17.203125 20 
L 44 20 
L 51.09375 0 
L 59.796875 0 
z
M 42.09375 25.59375 
L 19.09375 25.59375 
C 23.90625 39.53125 29.90625 56.84375 30.59375 61.3125 
L 30.703125 61.3125 
C 31.40625 57.234375 33.40625 51.265625 35.09375 46.1875 
z
" id="CMSS17-65"/>
       <path d="M 14.796875 69 
L 7.40625 69 
L 7.40625 0 
L 14.796875 0 
z
" id="CMSS17-108"/>
       <path d="M 17 0.09375 
L 17 8 
L 9 8 
L 9 0 
L 11.5 0 
L 8.90625 -12.109375 
L 12.90625 -12.109375 
z
" id="CMSS17-44"/>
       <path d="M 44.296875 50 
C 44.296875 60.140625 41.09375 70 32.90625 70 
C 18.90625 70 4 40.859375 4 18.984375 
C 4 14.40625 5 -1 15.5 -1 
C 29.09375 -1 44.296875 27.421875 44.296875 50 
z
M 14 36 
C 15.5 41.859375 17.59375 50.203125 21.59375 57.265625 
C 24.90625 63.21875 28.40625 67.984375 32.796875 67.984375 
C 36.09375 67.984375 38.296875 65.203125 38.296875 55.671875 
C 38.296875 52.09375 38 47.125 35.09375 36 
z
M 34.40625 33 
C 31.90625 23.25 29.796875 17 26.203125 10.734375 
C 23.296875 5.65625 19.796875 1 15.59375 1 
C 12.5 1 10 3.375 10 13.21875 
C 10 19.671875 11.59375 26.4375 13.203125 33 
z
" id="CMMI12-18"/>
       <path d="M 45.703125 37.3125 
C 45.703125 43.59375 42.5 44 41.703125 44 
C 39.296875 44 37.09375 41.59375 37.09375 39.59375 
C 37.09375 38.40625 37.796875 37.703125 38.203125 37.3125 
C 39.203125 36.40625 41.796875 33.71875 41.796875 28.53125 
C 41.796875 24.34375 35.796875 1 23.796875 1 
C 17.703125 1 16.5 6.078125 16.5 9.765625 
C 16.5 14.765625 18.796875 21.75 21.5 28.921875 
C 23.09375 33.015625 23.5 34.015625 23.5 36.015625 
C 23.5 40.203125 20.5 44 15.59375 44 
C 6.40625 44 2.703125 29.53125 2.703125 28.71875 
C 2.703125 28.328125 3.09375 27.828125 3.796875 27.828125 
C 4.703125 27.828125 4.796875 28.234375 5.203125 29.625 
C 7.59375 38.203125 11.5 41.984375 15.296875 41.984375 
C 16.203125 41.984375 17.90625 41.984375 17.90625 38.703125 
C 17.90625 36.109375 16.796875 33.21875 15.296875 29.421875 
C 10.5 16.65625 10.5 13.5625 10.5 11.171875 
C 10.5 8.96875 10.796875 4.890625 13.90625 2.09375 
C 17.5 -1 22.5 -1 23.40625 -1 
C 40 -1 45.703125 31.625 45.703125 37.3125 
z
" id="CMMI12-118"/>
       <path d="M 25.203125 75 
C 19.796875 69.484375 7.40625 56.671875 7.40625 25.046875 
C 7.40625 -6.6875 19.796875 -19.40625 25.203125 -25 
L 31.296875 -25 
C 19 -12.203125 15 5.71875 15 24.9375 
C 15 44.0625 18.796875 62.078125 31.296875 75 
z
" id="CMSS17-40"/>
       <path d="M 40.796875 69 
L 33.40625 69 
L 33.40625 38.984375 
C 30.296875 41.59375 25.203125 44 19.59375 44 
C 10.5 44 3.296875 34.046875 3.296875 21.484375 
C 3.296875 8.9375 10.40625 -1 19.296875 -1 
C 26.203125 -1 30.796875 2.6875 33.203125 4.796875 
L 33.203125 -0.203125 
L 40.796875 -0.203125 
z
M 33.203125 13.296875 
C 33.203125 11.875 33.203125 10.359375 30.09375 7.625 
C 28.09375 5.90625 25.703125 5.09375 23.40625 5.09375 
C 18 5.09375 10.90625 9.140625 10.90625 21.390625 
C 10.90625 34.140625 18.90625 37.890625 24.40625 37.890625 
C 28.09375 37.890625 31.09375 36.0625 33.203125 33.03125 
z
" id="CMSS17-100"/>
       <path d="M 17 8 
L 9 8 
L 9 0 
L 17 0 
z
" id="CMSS17-46"/>
       <path d="M 11.296875 -25 
C 16.703125 -19.5 29.09375 -6.6875 29.09375 24.9375 
C 29.09375 56.671875 16.703125 69.375 11.296875 75 
L 5.203125 75 
C 17.5 62.171875 21.5 44.265625 21.5 25.046875 
C 21.5 5.921875 17.703125 -12.09375 5.203125 -25 
z
" id="CMSS17-41"/>
      </defs>
      <use transform="scale(0.996264)" xlink:href="#CMSS17-86"/>
      <use transform="translate(62.217855 0)scale(0.996264)" xlink:href="#CMSS17-105"/>
      <use transform="translate(84.398578 0)scale(0.996264)" xlink:href="#CMSS17-101"/>
      <use transform="translate(126.0374 0)scale(0.996264)" xlink:href="#CMSS17-119"/>
      <use transform="translate(189.856945 0)scale(0.996264)" xlink:href="#CMSS17-105"/>
      <use transform="translate(212.037668 0)scale(0.996264)" xlink:href="#CMSS17-110"/>
      <use transform="translate(260.242611 0)scale(0.996264)" xlink:href="#CMSS17-103"/>
      <use transform="translate(338.315348 0)scale(0.996264)" xlink:href="#CMSS17-65"/>
      <use transform="translate(400.533203 0)scale(0.996264)" xlink:href="#CMSS17-110"/>
      <use transform="translate(448.738146 0)scale(0.996264)" xlink:href="#CMSS17-103"/>
      <use transform="translate(495.581769 0)scale(0.996264)" xlink:href="#CMSS17-108"/>
      <use transform="translate(517.762492 0)scale(0.996264)" xlink:href="#CMSS17-101"/>
      <use transform="translate(559.401314 0)scale(0.996264)" xlink:href="#CMSS17-44"/>
      <use transform="translate(616.654632 0)scale(0.996264)" xlink:href="#CMMI12-18"/>
      <use transform="translate(662.114422 -14.943915)scale(0.697382)" xlink:href="#CMMI12-118"/>
      <use transform="translate(729.356116 0)scale(0.996264)" xlink:href="#CMSS17-40"/>
      <use transform="translate(765.790031 0)scale(0.996264)" xlink:href="#CMSS17-100"/>
      <use transform="translate(813.994974 0)scale(0.996264)" xlink:href="#CMSS17-101"/>
      <use transform="translate(855.633796 0)scale(0.996264)" xlink:href="#CMSS17-103"/>
      <use transform="translate(902.477419 0)scale(0.996264)" xlink:href="#CMSS17-46"/>
      <use transform="translate(928.501624 0)scale(0.996264)" xlink:href="#CMSS17-41"/>
     </g>
    </g>
   </g>
   <g id="matplotlib.axis_2">
    <g id="ytick_1">
     <g id="line2d_17">
      <path clip-path="url(#p47c92773ef)" d="M 65.594034 391.71945 
L 520.042931 391.71945 
" style="fill:none;stroke:#cccccc;stroke-linecap:round;"/>
     </g>
     <g id="line2d_18">
      <defs>
       <path d="M 0 0 
L -6 0 
" id="mdd7450193c" style="stroke:#262626;stroke-width:0.8;"/>
      </defs>
      <g>
       <use style="fill:#262626;stroke:#262626;stroke-width:0.8;" x="65.594034" xlink:href="#mdd7450193c" y="391.71945"/>
      </g>
     </g>
     <g id="text_10">
      <!-- $\mathdefault{0.0}$ -->
      <g style="fill:#262626;" transform="translate(38.643451 396.562389)scale(0.14 -0.14)">
       <use transform="scale(0.996264)" xlink:href="#CMR17-48"/>
       <use transform="translate(45.690477 0)scale(0.996264)" xlink:href="#CMMI12-58"/>
       <use transform="translate(72.787654 0)scale(0.996264)" xlink:href="#CMR17-48"/>
      </g>
     </g>
    </g>
    <g id="ytick_2">
     <g id="line2d_19">
      <path clip-path="url(#p47c92773ef)" d="M 65.594034 323.773619 
L 520.042931 323.773619 
" style="fill:none;stroke:#cccccc;stroke-linecap:round;"/>
     </g>
     <g id="line2d_20">
      <g>
       <use style="fill:#262626;stroke:#262626;stroke-width:0.8;" x="65.594034" xlink:href="#mdd7450193c" y="323.773619"/>
      </g>
     </g>
     <g id="text_11">
      <!-- $\mathdefault{0.2}$ -->
      <g style="fill:#262626;" transform="translate(38.643451 328.616558)scale(0.14 -0.14)">
       <use transform="scale(0.996264)" xlink:href="#CMR17-48"/>
       <use transform="translate(45.690477 0)scale(0.996264)" xlink:href="#CMMI12-58"/>
       <use transform="translate(72.787654 0)scale(0.996264)" xlink:href="#CMR17-50"/>
      </g>
     </g>
    </g>
    <g id="ytick_3">
     <g id="line2d_21">
      <path clip-path="url(#p47c92773ef)" d="M 65.594034 255.827788 
L 520.042931 255.827788 
" style="fill:none;stroke:#cccccc;stroke-linecap:round;"/>
     </g>
     <g id="line2d_22">
      <g>
       <use style="fill:#262626;stroke:#262626;stroke-width:0.8;" x="65.594034" xlink:href="#mdd7450193c" y="255.827788"/>
      </g>
     </g>
     <g id="text_12">
      <!-- $\mathdefault{0.4}$ -->
      <g style="fill:#262626;" transform="translate(38.643451 260.670726)scale(0.14 -0.14)">
       <defs>
        <path d="M 33.59375 64.796875 
C 33.59375 66.890625 33.5 67 31.703125 67 
L 2 19.59375 
L 2 17 
L 27.796875 17 
L 27.796875 7.1875 
C 27.796875 3.59375 27.59375 2.59375 20.59375 2.59375 
L 18.703125 2.59375 
L 18.703125 0 
C 21.90625 0.1875 27.296875 0.1875 30.703125 0.1875 
C 34.09375 0.1875 39.5 0.1875 42.703125 0 
L 42.703125 2.59375 
L 40.796875 2.59375 
C 33.796875 2.59375 33.59375 3.59375 33.59375 7.1875 
L 33.59375 17 
L 43.796875 17 
L 43.796875 19.59375 
L 33.59375 19.59375 
z
M 28.09375 58.171875 
L 28.09375 19.59375 
L 4 19.59375 
z
" id="CMR17-52"/>
       </defs>
       <use transform="scale(0.996264)" xlink:href="#CMR17-48"/>
       <use transform="translate(45.690477 0)scale(0.996264)" xlink:href="#CMMI12-58"/>
       <use transform="translate(72.787654 0)scale(0.996264)" xlink:href="#CMR17-52"/>
      </g>
     </g>
    </g>
    <g id="ytick_4">
     <g id="line2d_23">
      <path clip-path="url(#p47c92773ef)" d="M 65.594034 187.881957 
L 520.042931 187.881957 
" style="fill:none;stroke:#cccccc;stroke-linecap:round;"/>
     </g>
     <g id="line2d_24">
      <g>
       <use style="fill:#262626;stroke:#262626;stroke-width:0.8;" x="65.594034" xlink:href="#mdd7450193c" y="187.881957"/>
      </g>
     </g>
     <g id="text_13">
      <!-- $\mathdefault{0.6}$ -->
      <g style="fill:#262626;" transform="translate(38.643451 192.724895)scale(0.14 -0.14)">
       <defs>
        <path d="M 10.59375 34.34375 
C 10.59375 58 21.796875 63.6875 28.296875 63.6875 
C 30.40625 63.6875 35.5 63.265625 37.5 59.09375 
C 35.90625 59.09375 32.90625 59.09375 32.90625 55.59375 
C 32.90625 52.890625 35.09375 52 36.5 52 
C 37.40625 52 40.09375 52.390625 40.09375 55.796875 
C 40.09375 62.296875 35.09375 66 28.203125 66 
C 16.296875 66 3.796875 53.296875 3.796875 31.421875 
C 3.796875 4.015625 15.09375 -2 23.09375 -2 
C 32.796875 -2 42 6.734375 42 20.234375 
C 42 32.828125 33.90625 42 23.703125 42 
C 17.59375 42 13.09375 37.96875 10.59375 30.921875 
z
M 23.09375 0.390625 
C 10.796875 0.390625 10.796875 18.9375 10.796875 22.65625 
C 10.796875 29.90625 14.203125 40.390625 23.5 40.390625 
C 25.203125 40.390625 30.09375 40.390625 33.40625 33.4375 
C 35.203125 29.515625 35.203125 25.375 35.203125 20.34375 
C 35.203125 14.90625 35.203125 10.875 33.09375 6.84375 
C 30.90625 2.703125 27.703125 0.390625 23.09375 0.390625 
z
" id="CMR17-54"/>
       </defs>
       <use transform="scale(0.996264)" xlink:href="#CMR17-48"/>
       <use transform="translate(45.690477 0)scale(0.996264)" xlink:href="#CMMI12-58"/>
       <use transform="translate(72.787654 0)scale(0.996264)" xlink:href="#CMR17-54"/>
      </g>
     </g>
    </g>
    <g id="ytick_5">
     <g id="line2d_25">
      <path clip-path="url(#p47c92773ef)" d="M 65.594034 119.936126 
L 520.042931 119.936126 
" style="fill:none;stroke:#cccccc;stroke-linecap:round;"/>
     </g>
     <g id="line2d_26">
      <g>
       <use style="fill:#262626;stroke:#262626;stroke-width:0.8;" x="65.594034" xlink:href="#mdd7450193c" y="119.936126"/>
      </g>
     </g>
     <g id="text_14">
      <!-- $\mathdefault{0.8}$ -->
      <g style="fill:#262626;" transform="translate(38.643451 124.779064)scale(0.14 -0.14)">
       <defs>
        <path d="M 27.203125 35.765625 
C 33.5 38.96875 39.90625 43.796875 39.90625 51.53125 
C 39.90625 60.6875 31.09375 66 23 66 
C 13.90625 66 5.90625 59.375 5.90625 50.234375 
C 5.90625 47.71875 6.5 43.390625 10.40625 39.578125 
C 11.40625 38.578125 15.59375 35.5625 18.296875 33.65625 
C 13.796875 31.34375 3.296875 25.8125 3.296875 14.765625 
C 3.296875 4.40625 13.09375 -2 22.796875 -2 
C 33.5 -2 42.5 5.71875 42.5 15.96875 
C 42.5 25.109375 36.40625 29.328125 32.40625 32.046875 
z
M 14.09375 44.609375 
C 13.296875 45.109375 9.296875 48.21875 9.296875 52.9375 
C 9.296875 59.078125 15.59375 63.6875 22.796875 63.6875 
C 30.703125 63.6875 36.5 58.0625 36.5 51.53125 
C 36.5 42.1875 26.09375 36.859375 25.59375 36.859375 
C 25.5 36.859375 25.40625 36.859375 24.59375 37.46875 
z
M 32.5 24 
C 34 22.90625 38.796875 19.578125 38.796875 13.453125 
C 38.796875 6.015625 31.40625 0.390625 23 0.390625 
C 13.90625 0.390625 7 6.921875 7 14.859375 
C 7 22.796875 13.09375 29.4375 20 32.546875 
z
" id="CMR17-56"/>
       </defs>
       <use transform="scale(0.996264)" xlink:href="#CMR17-48"/>
       <use transform="translate(45.690477 0)scale(0.996264)" xlink:href="#CMMI12-58"/>
       <use transform="translate(72.787654 0)scale(0.996264)" xlink:href="#CMR17-56"/>
      </g>
     </g>
    </g>
    <g id="ytick_6">
     <g id="line2d_27">
      <path clip-path="url(#p47c92773ef)" d="M 65.594034 51.990295 
L 520.042931 51.990295 
" style="fill:none;stroke:#cccccc;stroke-linecap:round;"/>
     </g>
     <g id="line2d_28">
      <g>
       <use style="fill:#262626;stroke:#262626;stroke-width:0.8;" x="65.594034" xlink:href="#mdd7450193c" y="51.990295"/>
      </g>
     </g>
     <g id="text_15">
      <!-- $\mathdefault{1.0}$ -->
      <g style="fill:#262626;" transform="translate(38.643451 56.833233)scale(0.14 -0.14)">
       <use transform="scale(0.996264)" xlink:href="#CMR17-49"/>
       <use transform="translate(45.690477 0)scale(0.996264)" xlink:href="#CMMI12-58"/>
       <use transform="translate(72.787654 0)scale(0.996264)" xlink:href="#CMR17-48"/>
      </g>
     </g>
    </g>
    <g id="text_16">
     <!-- $\tilde{\mathcal{F}}(\theta_v)$ -->
     <g style="fill:#262626;" transform="translate(30.459146 241.552894)rotate(-90)scale(0.168 -0.168)">
      <defs>
       <path d="M 37.5 65.59375 
C 34.09375 62.296875 32.203125 60.390625 29.09375 60.390625 
C 26.90625 60.390625 25.40625 61.5 23.296875 63 
C 21.296875 64.390625 19.703125 65.59375 17.5 65.59375 
C 13.90625 65.59375 11.40625 62.6875 7.203125 58.09375 
L 8.296875 57 
C 11.703125 60.296875 13.59375 62.1875 16.703125 62.1875 
C 18.90625 62.1875 20.40625 61.09375 22.5 59.59375 
C 24.5 58.1875 26.09375 57 28.296875 57 
C 31.90625 57 34.40625 59.890625 38.59375 64.5 
z
" id="CMR17-126"/>
       <path d="M 83 64.09375 
C 83 68.6875 75.296875 68 72.203125 68 
L 34.5 68 
C 29.5 68 20.59375 65.09375 19 59.6875 
C 19.203125 59.09375 19.40625 58.984375 20 58.984375 
C 22.203125 58.984375 25.203125 60.796875 26.59375 62.296875 
C 29.703125 62.296875 32.703125 62.484375 35.796875 62.484375 
L 42 62.484375 
C 42 62.484375 41.59375 60.6875 41.59375 60.59375 
C 37.703125 42.296875 31.796875 26.890625 27.40625 17.375 
C 26.796875 16.109375 21.40625 3.796875 20 2.59375 
C 15.59375 2.59375 12.296875 5 10.5 8.890625 
C 10.203125 9.5 10.203125 9.890625 9.5 9.890625 
C 7.203125 9.890625 1.703125 6.6875 1.703125 5 
C 1.703125 4.796875 1.796875 4.59375 1.90625 4.390625 
C 3.703125 -0.3125 8.203125 -3 13.09375 -3 
C 18.203125 -3 24.09375 0.6875 27.296875 4.390625 
C 30.59375 8.1875 37.203125 24.171875 39.796875 30 
L 59.09375 30 
C 59 29.890625 58.90625 29.796875 58.90625 29.6875 
C 58.90625 29.3125 59.5 29.015625 59.90625 29.015625 
C 62.09375 29.015625 67.796875 31.796875 67.796875 34.890625 
C 67.796875 35.59375 67.09375 35.5 65.90625 35.5 
L 41.90625 35.5 
C 44.5 44.484375 47.90625 53.296875 49.703125 62.484375 
L 62.90625 62.484375 
C 65.40625 62.484375 72.40625 62.984375 74.203125 60.796875 
C 74.40625 60.1875 74.09375 59.1875 74.40625 58.6875 
C 74.59375 58.484375 74.90625 58.390625 75.203125 58.390625 
C 77.59375 58.390625 83 61.390625 83 64.09375 
z
" id="CMSY10-70"/>
       <path d="M 30.59375 -24.40625 
C 30.59375 -24.3125 30.59375 -24.109375 30.296875 -23.8125 
C 25.703125 -19.109375 13.40625 -6.296875 13.40625 24.9375 
C 13.40625 56.171875 25.5 68.875 30.40625 73.890625 
C 30.40625 73.984375 30.59375 74.1875 30.59375 74.484375 
C 30.59375 74.796875 30.296875 75 29.90625 75 
C 28.796875 75 20.296875 67.578125 15.40625 56.5625 
C 10.40625 45.453125 9 34.65625 9 25.046875 
C 9 17.828125 9.703125 5.625 15.703125 -7.296875 
C 20.5 -17.703125 28.703125 -25 29.90625 -25 
C 30.40625 -25 30.59375 -24.8125 30.59375 -24.40625 
z
" id="CMR17-40"/>
       <path d="M 26.296875 24.9375 
C 26.296875 32.140625 25.59375 44.359375 19.59375 57.265625 
C 14.796875 67.6875 6.59375 75 5.40625 75 
C 5.09375 75 4.703125 74.890625 4.703125 74.390625 
C 4.703125 74.1875 4.796875 74.09375 4.90625 73.890625 
C 9.703125 68.875 21.90625 56.171875 21.90625 25.046875 
C 21.90625 -6.1875 9.796875 -18.90625 4.90625 -23.90625 
C 4.796875 -24.109375 4.703125 -24.203125 4.703125 -24.40625 
C 4.703125 -24.90625 5.09375 -25 5.40625 -25 
C 6.5 -25 15 -17.609375 19.90625 -6.59375 
C 24.90625 4.515625 26.296875 15.328125 26.296875 24.9375 
z
" id="CMR17-41"/>
      </defs>
      <use transform="translate(28.974597 25.189642)scale(0.996264)" xlink:href="#CMR17-126"/>
      <use transform="scale(0.996264)" xlink:href="#CMSY10-70"/>
      <use transform="translate(81.49978 0)scale(0.996264)" xlink:href="#CMR17-40"/>
      <use transform="translate(116.780548 0)scale(0.996264)" xlink:href="#CMMI12-18"/>
      <use transform="translate(162.240338 -14.943915)scale(0.697382)" xlink:href="#CMMI12-118"/>
      <use transform="translate(198.25292 0)scale(0.996264)" xlink:href="#CMR17-41"/>
     </g>
    </g>
   </g>
   <g id="line2d_29">
    <path clip-path="url(#p47c92773ef)" d="M 86.250802 390.442273 
L 86.250802 389.165096 
L 108.722665 389.165096 
L 108.722665 387.887919 
L 112.8703 387.887919 
L 112.8703 386.610741 
L 113.344576 386.610741 
L 113.344576 385.333564 
L 117.308454 385.333564 
L 117.308454 384.056387 
L 122.957495 384.056387 
L 122.957495 382.779209 
L 123.679922 382.779209 
L 123.679922 381.502032 
L 126.909324 381.502032 
L 126.909324 380.224855 
L 128.652669 380.224855 
L 128.652669 378.947678 
L 129.221534 378.947678 
L 129.221534 377.6705 
L 129.894922 377.6705 
L 129.894922 376.393323 
L 131.197763 376.393323 
L 131.197763 375.116146 
L 133.313016 375.116146 
L 133.313016 373.838968 
L 137.209996 373.838968 
L 137.209996 372.561791 
L 139.656366 372.561791 
L 139.656366 371.284614 
L 144.6617 371.284614 
L 144.731826 368.730259 
L 144.805969 368.730259 
L 144.805969 367.453082 
L 145.110216 367.453082 
L 145.110216 366.175905 
L 146.269384 366.175905 
L 146.269384 364.898728 
L 154.429571 364.898728 
L 154.429571 363.62155 
L 156.265752 363.62155 
L 156.265752 362.344373 
L 158.482393 362.344373 
L 158.482393 361.067196 
L 159.248584 361.067196 
L 159.248584 359.790018 
L 164.310273 359.790018 
L 164.310273 358.512841 
L 168.653165 358.512841 
L 168.653165 357.235664 
L 171.930647 357.235664 
L 171.930647 355.958487 
L 172.196301 355.958487 
L 172.196301 354.681309 
L 172.364944 354.681309 
L 172.364944 353.404132 
L 173.194054 353.404132 
L 173.194054 352.126955 
L 173.793218 352.126955 
L 173.793218 350.849778 
L 179.316983 350.849778 
L 179.316983 349.5726 
L 181.743659 349.5726 
L 181.789044 347.018246 
L 182.711658 347.018246 
L 182.711658 345.741068 
L 183.399251 345.741068 
L 183.399251 344.463891 
L 187.834719 344.463891 
L 187.834719 343.186714 
L 190.412544 343.186714 
L 190.412544 341.909537 
L 193.891269 341.909537 
L 193.891269 340.632359 
L 194.385278 340.632359 
L 194.385278 339.355182 
L 195.407115 339.355182 
L 195.407115 338.078005 
L 195.695131 338.078005 
L 195.695131 336.800827 
L 196.224451 336.800827 
L 196.224451 335.52365 
L 199.633532 335.52365 
L 199.633532 334.246473 
L 199.81826 334.246473 
L 199.81826 332.969296 
L 201.783835 332.969296 
L 201.783835 331.692118 
L 203.437927 331.692118 
L 203.437927 330.414941 
L 204.224719 330.414941 
L 204.224719 329.137764 
L 205.360935 329.137764 
L 205.360935 327.860587 
L 205.730856 327.860587 
L 205.730856 326.583409 
L 207.549865 326.583409 
L 207.549865 325.306232 
L 208.068021 325.306232 
L 208.068021 324.029055 
L 208.362263 324.029055 
L 208.362263 322.751877 
L 210.800243 322.751877 
L 210.800243 321.4747 
L 211.70052 321.4747 
L 211.70052 320.197523 
L 212.273547 320.197523 
L 212.273547 318.920346 
L 212.916844 318.920346 
L 212.916844 317.643168 
L 214.310029 317.643168 
L 214.310029 316.365991 
L 215.911353 316.365991 
L 215.911353 315.088814 
L 216.52175 315.088814 
L 216.52175 313.811637 
L 217.608509 313.811637 
L 217.608509 312.534459 
L 217.818467 312.534459 
L 217.818467 311.257282 
L 218.734549 311.257282 
L 218.734549 309.980105 
L 218.866356 309.980105 
L 218.866356 308.702927 
L 219.221958 308.702927 
L 219.221958 307.42575 
L 219.852166 307.42575 
L 219.867085 304.871396 
L 222.123289 304.871396 
L 222.232786 301.039864 
L 222.848885 301.039864 
L 222.848885 299.762686 
L 223.104109 299.762686 
L 223.104109 298.485509 
L 223.834176 298.485509 
L 223.834176 297.208332 
L 224.385491 297.208332 
L 224.385491 295.931155 
L 224.918743 295.931155 
L 224.918743 294.653977 
L 229.23917 294.653977 
L 229.263561 292.099623 
L 229.497174 292.099623 
L 229.497174 290.822446 
L 230.533891 290.822446 
L 230.533891 289.545268 
L 231.254752 289.545268 
L 231.254752 288.268091 
L 232.042038 288.268091 
L 232.042038 286.990914 
L 232.827233 286.990914 
L 232.827233 285.713736 
L 233.566854 285.713736 
L 233.566854 284.436559 
L 234.129791 284.436559 
L 234.129791 283.159382 
L 235.123502 283.159382 
L 235.123502 281.882205 
L 235.536414 281.882205 
L 235.536414 280.605027 
L 240.003774 280.605027 
L 240.003774 279.32785 
L 240.645669 279.32785 
L 240.645669 278.050673 
L 240.960918 278.050673 
L 240.960918 276.773496 
L 242.152952 276.773496 
L 242.234425 272.941964 
L 243.602941 272.941964 
L 243.602941 271.664786 
L 243.858898 271.664786 
L 243.858898 270.387609 
L 244.678692 270.387609 
L 244.678692 269.110432 
L 245.210755 269.110432 
L 245.210755 267.833255 
L 247.693538 267.833255 
L 247.693538 266.556077 
L 249.062527 266.556077 
L 249.062527 265.2789 
L 250.666022 265.2789 
L 250.666022 264.001723 
L 251.025024 264.001723 
L 251.025024 262.724546 
L 252.657535 262.724546 
L 252.657535 261.447368 
L 253.287069 261.447368 
L 253.287069 260.170191 
L 255.119136 260.170191 
L 255.119136 258.893014 
L 255.924835 258.893014 
L 255.924835 257.615836 
L 256.577522 257.615836 
L 256.577522 256.338659 
L 257.615219 256.338659 
L 257.615219 255.061482 
L 258.238859 255.061482 
L 258.238859 253.784305 
L 258.658972 253.784305 
L 258.658972 252.507127 
L 258.856528 252.507127 
L 258.856528 251.22995 
L 259.329336 251.22995 
L 259.329336 249.952773 
L 260.045579 249.952773 
L 260.045579 248.675595 
L 261.376254 248.675595 
L 261.376254 247.398418 
L 261.746427 247.398418 
L 261.746427 246.121241 
L 263.055675 246.121241 
L 263.055675 244.844064 
L 264.487825 244.844064 
L 264.487825 243.566886 
L 267.421744 243.566886 
L 267.421744 242.289709 
L 268.00122 242.289709 
L 268.00122 241.012532 
L 268.673774 241.012532 
L 268.673774 239.735355 
L 269.335636 239.735355 
L 269.335636 238.458177 
L 270.010194 238.458177 
L 270.010194 237.181 
L 270.218578 237.181 
L 270.218578 235.903823 
L 270.522204 235.903823 
L 270.522204 234.626645 
L 271.670112 234.626645 
L 271.670112 233.349468 
L 272.150052 233.349468 
L 272.150052 232.072291 
L 273.034294 232.072291 
L 273.034294 230.795114 
L 274.127854 230.795114 
L 274.127854 229.517936 
L 275.390041 229.517936 
L 275.390041 228.240759 
L 275.713322 228.240759 
L 275.713322 226.963582 
L 276.499083 226.963582 
L 276.499083 225.686405 
L 280.500876 225.686405 
L 280.58731 223.13205 
L 281.034858 223.13205 
L 281.034858 221.854873 
L 281.754441 221.854873 
L 281.754441 220.577695 
L 283.855741 220.577695 
L 283.855741 219.300518 
L 283.990108 219.300518 
L 283.990108 218.023341 
L 284.531586 218.023341 
L 284.531586 216.746164 
L 286.166493 216.746164 
L 286.166493 215.468986 
L 288.53835 215.468986 
L 288.53835 214.191809 
L 288.728213 214.191809 
L 288.728213 212.914632 
L 289.570668 212.914632 
L 289.570668 211.637454 
L 289.937458 211.637454 
L 289.937458 210.360277 
L 291.869955 210.360277 
L 291.869955 209.0831 
L 292.063141 209.0831 
L 292.134196 206.528745 
L 292.275365 206.528745 
L 292.275365 205.251568 
L 294.840921 205.251568 
L 294.840921 203.974391 
L 294.962899 203.974391 
L 294.962899 202.697214 
L 296.400041 202.697214 
L 296.400041 201.420036 
L 296.915783 201.420036 
L 296.915783 200.142859 
L 297.538663 200.142859 
L 297.538663 198.865682 
L 298.417661 198.865682 
L 298.417661 197.588504 
L 299.660682 197.588504 
L 299.739372 193.756973 
L 300.582787 193.756973 
L 300.582787 192.479795 
L 301.568673 192.479795 
L 301.568673 191.202618 
L 302.136392 191.202618 
L 302.143538 188.648264 
L 302.436425 188.648264 
L 302.436425 187.371086 
L 303.392841 187.371086 
L 303.392841 186.093909 
L 304.561398 186.093909 
L 304.561398 184.816732 
L 305.077451 184.816732 
L 305.077451 183.539554 
L 305.78473 183.539554 
L 305.78473 182.262377 
L 306.017009 182.262377 
L 306.017009 180.9852 
L 306.470234 180.9852 
L 306.470234 179.708023 
L 306.635267 179.708023 
L 306.635267 178.430845 
L 306.908653 178.430845 
L 306.908653 177.153668 
L 309.421861 177.153668 
L 309.421861 175.876491 
L 311.265223 175.876491 
L 311.265223 174.599313 
L 312.128771 174.599313 
L 312.128771 173.322136 
L 312.700886 173.322136 
L 312.700886 172.044959 
L 314.29139 172.044959 
L 314.29139 170.767782 
L 317.727863 170.767782 
L 317.74385 168.213427 
L 317.939878 168.213427 
L 317.939878 166.93625 
L 319.003791 166.93625 
L 319.003791 165.659073 
L 319.699689 165.659073 
L 319.699689 164.381895 
L 320.052167 164.381895 
L 320.052167 163.104718 
L 320.428299 163.104718 
L 320.486365 160.550363 
L 321.318312 160.550363 
L 321.318312 159.273186 
L 323.437054 159.273186 
L 323.437054 157.996009 
L 324.149505 157.996009 
L 324.149505 156.718832 
L 325.998351 156.718832 
L 325.998351 155.441654 
L 326.311283 155.441654 
L 326.367541 152.8873 
L 327.984143 152.8873 
L 327.984143 151.610123 
L 328.109126 151.610123 
L 328.109126 150.332945 
L 328.850975 150.332945 
L 328.850975 149.055768 
L 329.54258 149.055768 
L 329.54258 147.778591 
L 330.359535 147.778591 
L 330.359535 146.501413 
L 330.720066 146.501413 
L 330.720066 145.224236 
L 330.93485 145.224236 
L 330.93485 143.947059 
L 333.286515 143.947059 
L 333.286515 142.669882 
L 334.194537 142.669882 
L 334.282342 140.115527 
L 334.554809 140.115527 
L 334.554809 138.83835 
L 335.178459 138.83835 
L 335.178459 137.561173 
L 336.623498 137.561173 
L 336.623498 136.283995 
L 337.156448 136.283995 
L 337.156448 135.006818 
L 338.290544 135.006818 
L 338.290544 133.729641 
L 338.489993 133.729641 
L 338.489993 132.452463 
L 339.984866 132.452463 
L 339.984866 131.175286 
L 342.221461 131.175286 
L 342.221461 129.898109 
L 343.02588 129.898109 
L 343.02588 128.620932 
L 344.201404 128.620932 
L 344.309984 126.066577 
L 346.283971 126.066577 
L 346.283971 124.7894 
L 349.029705 124.7894 
L 349.029705 123.512222 
L 349.96705 123.512222 
L 349.99433 120.957868 
L 350.915785 120.957868 
L 350.915785 119.680691 
L 352.776967 119.680691 
L 352.776967 118.403513 
L 354.149359 118.403513 
L 354.225028 115.849159 
L 355.500642 115.849159 
L 355.500642 114.571982 
L 355.72731 114.571982 
L 355.72731 113.294804 
L 356.565398 113.294804 
L 356.565398 112.017627 
L 356.896922 112.017627 
L 356.896922 110.74045 
L 361.159722 110.74045 
L 361.159722 109.463272 
L 362.672403 109.463272 
L 362.672403 108.186095 
L 363.065937 108.186095 
L 363.065937 106.908918 
L 363.443375 106.908918 
L 363.443375 105.631741 
L 363.711303 105.631741 
L 363.711303 104.354563 
L 365.159323 104.354563 
L 365.159323 103.077386 
L 366.341591 103.077386 
L 366.341591 101.800209 
L 372.799615 101.800209 
L 372.799615 100.523032 
L 373.407178 100.523032 
L 373.407178 99.245854 
L 376.546465 99.245854 
L 376.546465 97.968677 
L 378.100168 97.968677 
L 378.100168 96.6915 
L 378.941225 96.6915 
L 378.941225 95.414322 
L 384.055219 95.414322 
L 384.055219 94.137145 
L 384.590735 94.137145 
L 384.590735 92.859968 
L 386.790338 92.859968 
L 386.790338 91.582791 
L 387.25525 91.582791 
L 387.25525 90.305613 
L 388.680954 90.305613 
L 388.680954 89.028436 
L 389.871009 89.028436 
L 389.871009 87.751259 
L 390.119703 87.751259 
L 390.119703 86.474081 
L 392.84485 86.474081 
L 392.84485 85.196904 
L 393.879942 85.196904 
L 393.879942 83.919727 
L 396.005191 83.919727 
L 396.005191 82.64255 
L 405.989684 82.64255 
L 405.989684 81.365372 
L 406.124218 81.365372 
L 406.124218 80.088195 
L 407.530972 80.088195 
L 407.530972 78.811018 
L 409.078029 78.811018 
L 409.078029 77.533841 
L 412.486919 77.533841 
L 412.486919 76.256663 
L 413.358277 76.256663 
L 413.358277 74.979486 
L 417.768631 74.979486 
L 417.768631 73.702309 
L 424.64875 73.702309 
L 424.64875 72.425131 
L 424.908837 72.425131 
L 424.908837 71.147954 
L 425.559953 71.147954 
L 425.559953 69.870777 
L 428.843802 69.870777 
L 428.843802 68.5936 
L 430.3205 68.5936 
L 430.3205 67.316422 
L 430.568044 67.316422 
L 430.568044 66.039245 
L 440.508277 66.039245 
L 440.508277 64.762068 
L 440.836204 64.762068 
L 440.836204 63.484891 
L 442.295501 63.484891 
L 442.295501 62.207713 
L 448.149834 62.207713 
L 448.149834 60.930536 
L 448.485184 60.930536 
L 448.485184 59.653359 
L 449.440639 59.653359 
L 449.440639 58.376181 
L 458.085428 58.376181 
L 458.085428 57.099004 
L 461.094299 57.099004 
L 461.094299 55.821827 
L 472.895874 55.821827 
L 472.895874 54.54465 
L 473.512479 54.54465 
L 473.512479 53.267472 
L 473.752464 53.267472 
L 473.752464 51.990295 
L 499.386163 51.990295 
L 499.386163 51.990295 
" style="fill:none;stroke:#008fd5;stroke-linecap:round;stroke-width:4;"/>
   </g>
   <g id="line2d_30">
    <defs>
     <path d="M 0 3 
C 0.795609 3 1.55874 2.683901 2.12132 2.12132 
C 2.683901 1.55874 3 0.795609 3 0 
C 3 -0.795609 2.683901 -1.55874 2.12132 -2.12132 
C 1.55874 -2.683901 0.795609 -3 0 -3 
C -0.795609 -3 -1.55874 -2.683901 -2.12132 -2.12132 
C -2.683901 -1.55874 -3 -0.795609 -3 0 
C -3 0.795609 -2.683901 1.55874 -2.12132 2.12132 
C -1.55874 2.683901 -0.795609 3 0 3 
z
" id="mf0871aaddc" style="stroke:#fc4f30;"/>
    </defs>
    <g clip-path="url(#p47c92773ef)">
     <use style="fill:#fc4f30;stroke:#fc4f30;" x="282.805091" xlink:href="#mf0871aaddc" y="221.854873"/>
    </g>
   </g>
   <g id="patch_3">
    <path d="M 65.594034 407.364872 
L 65.594034 35.067696 
" style="fill:none;stroke:#262626;stroke-linecap:square;stroke-linejoin:miter;stroke-width:1.25;"/>
   </g>
   <g id="patch_4">
    <path d="M 520.042931 407.364872 
L 520.042931 35.067696 
" style="fill:none;stroke:#262626;stroke-linecap:square;stroke-linejoin:miter;stroke-width:1.25;"/>
   </g>
   <g id="patch_5">
    <path d="M 65.594034 407.364872 
L 520.042931 407.364872 
" style="fill:none;stroke:#262626;stroke-linecap:square;stroke-linejoin:miter;stroke-width:1.25;"/>
   </g>
   <g id="patch_6">
    <path d="M 65.594034 35.067696 
L 520.042931 35.067696 
" style="fill:none;stroke:#262626;stroke-linecap:square;stroke-linejoin:miter;stroke-width:1.25;"/>
   </g>
   <g id="patch_7">
    <path d="M 153.769326 191.67651 
Q 170.127798 221.585489 280.244754 221.85112 
" style="fill:none;stroke:#000000;stroke-linecap:round;stroke-width:0.5;"/>
    <path d="M 274.252008 218.836655 
L 280.244754 221.85112 
L 274.237534 224.836637 
" style="fill:none;stroke:#000000;stroke-linecap:round;stroke-width:0.5;"/>
   </g>
   <g id="text_17">
    <!-- (8.27, 0.5) -->
    <g style="fill:#262626;" transform="translate(118.415493 184.145967)scale(0.15 -0.15)">
     <defs>
      <path d="M 30.203125 35.09375 
C 37.796875 37.59375 41.703125 43.640625 41.703125 49.59375 
C 41.703125 58.96875 33.703125 67 23.5 67 
C 12.90625 67 5.203125 58.671875 5.203125 49.59375 
C 5.203125 43.734375 9 37.6875 16.703125 35.09375 
C 6.90625 31.296875 3.90625 23.6875 3.90625 18 
C 3.90625 7 12.796875 -2 23.40625 -2 
C 34.40625 -2 43 7.1875 43 18 
C 43 24.59375 39.09375 31.59375 30.203125 35.09375 
z
M 23.5 38.09375 
C 16.796875 38.09375 12.296875 42.625 12.296875 49.484375 
C 12.296875 56.453125 16.796875 60.890625 23.5 60.890625 
C 29.703125 60.890625 34.59375 56.859375 34.59375 49.484375 
C 34.59375 42.234375 29.796875 38.09375 23.5 38.09375 
z
M 23.5 4.1875 
C 17.796875 4.1875 11.703125 8.09375 11.703125 18.09375 
C 11.703125 28.390625 18.5 32 23.40625 32 
C 28.796875 32 35.203125 28.1875 35.203125 18.09375 
C 35.203125 7.6875 28.59375 4.1875 23.5 4.1875 
z
" id="CMSS17-56"/>
      <path d="M 25.796875 21.140625 
C 28.59375 24.03125 32.796875 27.515625 35.703125 31 
C 38.5 34.390625 42.203125 39.171875 42.203125 46.140625 
C 42.203125 57.109375 34.796875 67 22.203125 67 
C 12.296875 67 6.59375 60.796875 3.90625 51.125 
L 7.796875 45.75 
C 10 54.8125 13.09375 60.59375 20.90625 60.59375 
C 29.5 60.59375 34.296875 53.609375 34.296875 45.9375 
C 34.296875 36.78125 27.296875 29.703125 22 24.421875 
C 16.09375 18.546875 10.296875 12.578125 4.703125 6.390625 
L 4.703125 0 
L 42.203125 0 
L 42.203125 6.796875 
L 25.203125 6.796875 
C 24 6.796875 22.796875 6.6875 21.59375 6.6875 
L 11.59375 6.6875 
L 11.59375 6.796875 
z
" id="CMSS17-50"/>
      <path d="M 21.703125 59.1875 
C 22.90625 59.1875 24.09375 59.296875 25.296875 59.296875 
L 36.796875 59.296875 
C 22.5 42.421875 14.296875 21.09375 14.296875 -1 
L 22.296875 -1 
C 22.296875 20.390625 29.296875 42.109375 43 59.484375 
L 43 66 
L 3.90625 66 
L 3.90625 59.1875 
z
" id="CMSS17-55"/>
      <path d="M 43.09375 32.390625 
C 43.09375 38.109375 43 48.75 38.90625 56.984375 
C 34.796875 64.890625 28.203125 67 23.5 67 
C 16.703125 67 10.90625 62.984375 7.90625 56.578125 
C 4.703125 49.859375 3.796875 42.9375 3.796875 32.390625 
C 3.796875 25.171875 4.09375 16.34375 7.703125 8.609375 
C 11.796875 0.09375 18.703125 -2 23.40625 -2 
C 29.59375 -2 35.59375 1.296875 39 8.203125 
C 42.5 15.4375 43.09375 23.359375 43.09375 32.390625 
z
M 23.40625 4.09375 
C 15.796875 4.09375 13.5 12.828125 12.796875 15.734375 
C 11.59375 20.75 11.40625 25.5625 11.40625 33.5 
C 11.40625 39.71875 11.40625 46.75 13.296875 52.265625 
C 15.59375 58.6875 19.59375 60.890625 23.40625 60.890625 
C 30.796875 60.890625 33.203125 53.46875 34 50.859375 
C 35.5 45.546875 35.5 39.3125 35.5 33.5 
C 35.5 24.15625 35.5 4.09375 23.40625 4.09375 
z
" id="CMSS17-48"/>
      <path d="M 14.59375 59.59375 
L 39.09375 59.59375 
L 39.09375 66 
L 7.296875 66 
L 7.296875 28.59375 
L 14 28.59375 
C 15.796875 32.859375 19.5 36 24.296875 36 
C 28.796875 36 33.796875 31.9375 33.796875 20.296875 
C 33.796875 7.84375 26.703125 4.1875 21.5 4.1875 
C 15.09375 4.1875 9.203125 8.140625 6.59375 13.609375 
L 3.40625 7.9375 
C 8 0.796875 15.5 -2 21.5 -2 
C 33.09375 -2 42.203125 7.9375 42.203125 20.09375 
C 42.203125 32.546875 34.09375 42.09375 24.40625 42.09375 
C 20.90625 42.09375 17.5 40.890625 14.59375 38.5 
z
" id="CMSS17-53"/>
     </defs>
     <use transform="scale(0.996264)" xlink:href="#CMSS17-40"/>
     <use transform="translate(36.433914 0)scale(0.996264)" xlink:href="#CMSS17-56"/>
     <use transform="translate(83.277538 0)scale(0.996264)" xlink:href="#CMSS17-46"/>
     <use transform="translate(109.301743 0)scale(0.996264)" xlink:href="#CMSS17-50"/>
     <use transform="translate(156.145366 0)scale(0.996264)" xlink:href="#CMSS17-55"/>
     <use transform="translate(202.98899 0)scale(0.996264)" xlink:href="#CMSS17-44"/>
     <use transform="translate(260.242307 0)scale(0.996264)" xlink:href="#CMSS17-48"/>
     <use transform="translate(307.085931 0)scale(0.996264)" xlink:href="#CMSS17-46"/>
     <use transform="translate(333.110136 0)scale(0.996264)" xlink:href="#CMSS17-53"/>
     <use transform="translate(379.953759 0)scale(0.996264)" xlink:href="#CMSS17-41"/>
    </g>
   </g>
   <g id="text_18">
    <!-- ECDF of the viewing angle of 'visible' NSBH Mergers -->
    <g style="fill:#262626;" transform="translate(81.332616 29.067696)scale(0.2016 -0.2016)">
     <defs>
      <path d="M 30.59375 6.796875 
C 22.59375 6.796875 19 6.796875 17.203125 6.6875 
L 17.203125 32.890625 
L 48.203125 32.890625 
L 48.203125 39 
L 17.203125 39 
L 17.203125 62.390625 
L 30.09375 62.390625 
C 31.296875 62.390625 32.5 62.296875 33.703125 62.296875 
L 50.796875 62.296875 
L 50.796875 68.796875 
L 8.796875 68.796875 
L 8.796875 0 
L 52.09375 0 
L 52.09375 6.890625 
z
" id="CMSS17-69"/>
      <path d="M 54.703125 11.015625 
C 48 6.5 44.90625 5.1875 36.796875 5.1875 
C 22.796875 5.1875 14.59375 20.375 14.59375 34.234375 
C 14.59375 49.015625 23 63.59375 37.203125 63.59375 
C 43.59375 63.59375 47.796875 61.78125 52.90625 58.5625 
L 54.296875 66.484375 
C 49.5 68.890625 43.40625 70 37.296875 70 
C 18.09375 70 6.203125 52.234375 6.203125 34.234375 
C 6.203125 14.4375 20.296875 -1.203125 36.296875 -1.203125 
C 44.90625 -1.203125 47.90625 -0.5 55.296875 4.1875 
z
" id="CMSS17-67"/>
      <path d="M 8.90625 69 
L 8.90625 0 
L 33.5 0 
C 49.90625 0 62.5 15.328125 62.5 33.890625 
C 62.5 53.0625 49.90625 69 33.5 69 
z
M 17.09375 5.59375 
L 17.09375 63.390625 
L 31.296875 63.390625 
C 44.703125 63.390625 54.296875 51.171875 54.296875 33.890625 
C 54.296875 17.3125 44.796875 5.59375 31.296875 5.59375 
z
" id="CMSS17-68"/>
      <path d="M 45.59375 31 
L 45.59375 37.09375 
L 17.203125 37.09375 
L 17.203125 62.390625 
L 29.40625 62.390625 
C 30.59375 62.390625 31.796875 62.296875 33 62.296875 
L 49.5 62.296875 
L 49.5 68.796875 
L 8.796875 68.796875 
L 8.796875 0 
L 17.203125 0 
L 17.203125 31 
z
" id="CMSS17-70"/>
      <path d="M 44.203125 21.1875 
C 44.203125 33.984375 34.703125 44 23.5 44 
C 12 44 2.703125 33.6875 2.703125 21.1875 
C 2.703125 8.5 12.296875 -1 23.40625 -1 
C 34.796875 -1 44.203125 8.796875 44.203125 21.1875 
z
M 23.5 5.296875 
C 16.40625 5.296875 10.296875 11.09375 10.296875 21.984375 
C 10.296875 33.59375 17.40625 37.890625 23.40625 37.890625 
C 29.90625 37.890625 36.59375 33.1875 36.59375 21.984375 
C 36.59375 10.6875 30.09375 5.296875 23.5 5.296875 
z
" id="CMSS17-111"/>
      <path d="M 16.796875 37.1875 
L 26.90625 37.1875 
L 26.90625 43 
L 16.59375 43 
L 16.59375 55.671875 
C 16.59375 62.703125 22 63.890625 25.09375 63.890625 
C 26.09375 63.890625 28.90625 63.890625 32.5 62.609375 
L 32.5 69.1875 
C 30.203125 69.6875 27.40625 70 25.203125 70 
C 15.90625 70 9.40625 62.40625 9.40625 52.59375 
L 9.40625 43 
L 2.5 43 
L 2.5 37.1875 
L 9.40625 37.1875 
L 9.40625 0 
L 16.796875 0 
z
" id="CMSS17-102"/>
      <path d="M 16.703125 37.1875 
L 29.703125 37.1875 
L 29.703125 43 
L 16.703125 43 
L 16.703125 55 
L 9.59375 55 
L 9.59375 43 
L 1.703125 43 
L 1.703125 37.1875 
L 9.40625 37.1875 
L 9.40625 11.734375 
C 9.40625 6 10.703125 -1 17.296875 -1 
C 22.296875 -1 26.90625 0.390625 31.296875 2.6875 
L 29.703125 8.609375 
C 27.296875 6.5 24.40625 5.296875 21.296875 5.296875 
C 16.90625 5.296875 16.703125 10.921875 16.703125 13.4375 
z
" id="CMSS17-116"/>
      <path d="M 40.90625 29.34375 
C 40.90625 35.671875 39.40625 44 28.09375 44 
C 21.796875 44 17.703125 40.890625 14.796875 37.484375 
L 14.796875 69 
L 7.40625 69 
L 7.40625 0 
L 15 0 
L 15 24.3125 
C 15 30.65625 17.40625 37.890625 24.203125 37.890625 
C 33 37.890625 33.296875 31.953125 33.296875 28.53125 
L 33.296875 0 
L 40.90625 0 
z
" id="CMSS17-104"/>
      <path d="M 41.796875 43 
L 34 43 
L 27.296875 24.296875 
C 25.203125 18.1875 22.203125 9.796875 21.703125 5.5 
L 21.59375 5.5 
C 21.40625 7.296875 20.59375 9.890625 20.09375 11.6875 
C 19.5 13.890625 18.703125 16.5 18.09375 18.296875 
L 9.296875 43 
L 1.296875 43 
L 17.09375 0 
L 26 0 
z
" id="CMSS17-118"/>
      <path d="M 37.59375 27.953125 
C 37.59375 37.484375 30.90625 44 21.90625 44 
C 17.5 44 12.703125 43.1875 7.203125 39.984375 
L 7.796875 33.328125 
C 10.296875 35.15625 14.59375 38.09375 21.796875 38.09375 
C 26.90625 38.09375 30 34.140625 30 27.84375 
L 30 24 
C 14 23.5 4 18.890625 4 11.109375 
C 4 7.0625 6.5 -1 14.796875 -1 
C 16.296875 -1 24.40625 -0.8125 30.203125 3.5 
L 30.203125 -0.203125 
L 37.59375 -0.203125 
z
M 30 12.875 
C 30 11.109375 30 8.734375 27 6.96875 
C 24.40625 5.296875 21.09375 5.09375 19.703125 5.09375 
C 14.703125 5.09375 11.296875 7.859375 11.296875 11.296875 
C 11.296875 18.203125 26.90625 18.890625 30 19 
z
" id="CMSS17-97"/>
      <path d="M 17 61.09375 
L 17 69 
L 9 69 
L 9 60.984375 
L 11.5 60.984375 
L 8.90625 48.890625 
L 12.90625 48.890625 
z
" id="CMSS17-39"/>
      <path d="M 32.203125 40.984375 
C 26.296875 43.796875 21.703125 44 18.703125 44 
C 11.59375 44 3.09375 41.484375 3.09375 31.390625 
C 3.09375 21.296875 14.09375 19.09375 17.09375 18.484375 
C 21.703125 17.59375 26.796875 16.59375 26.796875 11.59375 
C 26.796875 5.296875 19.59375 5.296875 18.296875 5.296875 
C 14.296875 5.296875 8.796875 6.390625 3.796875 9.984375 
L 2.59375 3.296875 
C 8.296875 0 13.796875 -1 18.40625 -1 
C 30.703125 -1 33.796875 6.5 33.796875 12.1875 
C 33.796875 17.09375 31 20.390625 29.09375 21.890625 
C 25.796875 24.484375 24.59375 24.796875 16.40625 26.484375 
C 15 26.6875 10.09375 27.796875 10.09375 32.296875 
C 10.09375 37.984375 16.40625 37.984375 17.796875 37.984375 
C 24.296875 37.984375 28.296875 35.984375 31 34.484375 
z
" id="CMSS17-115"/>
      <path d="M 14.90625 69 
L 7.5 69 
L 7.5 -0.203125 
L 15.09375 -0.203125 
L 15.09375 4.296875 
C 18.90625 0.59375 23.5 -1 27.59375 -1 
C 37.203125 -1 45 8.734375 45 21.59375 
C 45 33.328125 39 44 30.09375 44 
C 23.796875 44 18.203125 41.390625 14.90625 38.6875 
z
M 15.09375 32.734375 
C 17.296875 35.5625 20.40625 37.890625 24.796875 37.890625 
C 30.703125 37.890625 37.40625 33.53125 37.40625 21.59375 
C 37.40625 8.84375 29.40625 5.09375 23.90625 5.09375 
C 21.90625 5.09375 19.796875 5.59375 17.796875 7.3125 
C 15.09375 9.75 15.09375 11.265625 15.09375 12.6875 
z
" id="CMSS17-98"/>
      <path d="M 22.90625 65.296875 
L 21.09375 69 
L 8.796875 69 
L 8.796875 0 
L 16.59375 0 
L 16.59375 61.328125 
L 16.703125 61.421875 
C 17.40625 59.640625 17.796875 58.734375 21.90625 49.890625 
L 43.296875 3.6875 
L 45.09375 0 
L 57.40625 0 
L 57.40625 69 
L 49.59375 69 
L 49.59375 7.65625 
L 49.5 7.5625 
C 48.796875 9.34375 48.40625 10.234375 44.296875 19.09375 
z
" id="CMSS17-78"/>
      <path d="M 43.703125 66.09375 
C 39.296875 68.6875 34.5 71 26.40625 71 
C 13.5 71 5.203125 61.46875 5.203125 51.703125 
C 5.203125 47.875 6.296875 43.546875 10.203125 39.125 
C 14.09375 34.6875 18.5 33.484375 24.09375 32.078125 
C 26.40625 31.46875 30.296875 30.359375 31 30.0625 
C 36.59375 27.84375 39.296875 22.71875 39.296875 17.875 
C 39.296875 11.53125 34.40625 4.796875 25.703125 4.796875 
C 22.703125 4.796875 13.90625 5.296875 5.59375 12.953125 
L 4.203125 5 
C 12.40625 -1 21.296875 -2 25.796875 -2 
C 38.09375 -2 46.90625 7.71875 46.90625 18.78125 
C 46.90625 22.8125 45.703125 27.953125 41.5 32.6875 
C 37.40625 37.203125 33.796875 38.21875 25.59375 40.4375 
C 20.90625 41.640625 17.90625 42.453125 15.40625 45.5625 
C 13.703125 47.78125 12.796875 49.890625 12.796875 52.609375 
C 12.796875 58.25 17.59375 64.390625 26.40625 64.390625 
C 30.796875 64.390625 36.5 63.484375 42.296875 58.046875 
z
" id="CMSS17-83"/>
      <path d="M 8.90625 69 
L 8.90625 0 
L 33.796875 0 
C 47.40625 0 57.296875 8.984375 57.296875 18.75 
C 57.296875 26.3125 50.796875 33.984375 39.09375 36.1875 
C 52.09375 39.984375 54.703125 47.484375 54.703125 51.734375 
C 54.703125 60.625 44.90625 69 31.203125 69 
z
M 17 39 
L 17 63.390625 
L 28.5 63.390625 
C 38.796875 63.390625 46.90625 58.15625 46.90625 51.640625 
C 46.90625 45.703125 40.5 39 27.59375 39 
z
M 17 5.59375 
L 17 32.890625 
L 30.296875 32.890625 
C 41.09375 32.890625 49.40625 26.21875 49.40625 18.84375 
C 49.40625 12.0625 42.09375 5.59375 31 5.59375 
z
" id="CMSS17-66"/>
      <path d="M 57.40625 69 
L 49 69 
L 49 39 
L 17.203125 39 
L 17.203125 69 
L 8.796875 69 
L 8.796875 0 
L 17.203125 0 
L 17.203125 32.890625 
L 49 32.890625 
L 49 0 
L 57.40625 0 
z
" id="CMSS17-72"/>
      <path d="M 49.90625 37.078125 
L 45.09375 23.0625 
C 44.296875 20.484375 41.59375 12.421875 41 9.25 
L 40.90625 9.25 
C 40.59375 11.234375 40 13.328125 38.40625 18.390625 
C 37.5 21.375 36.5 24.453125 35.5 27.234375 
L 20.703125 69 
L 9 69 
L 9 0 
L 16.796875 0 
L 16.796875 60.921875 
L 16.90625 60.921875 
C 16.90625 60.828125 17.796875 56.453125 23.90625 39.0625 
L 37.09375 1.59375 
L 44.5 1.59375 
L 56.40625 34.890625 
C 57.203125 37.171875 59.703125 44.421875 60.796875 47.90625 
C 61.796875 50.890625 64.296875 58.25 64.90625 61.125 
L 65 61.125 
L 65 0 
L 72.90625 0 
L 72.90625 69 
L 61.296875 69 
z
" id="CMSS17-77"/>
      <path d="M 14.90625 21.390625 
C 14.90625 30.84375 21.796875 37.171875 30.59375 37.375 
L 30.59375 44 
C 24.203125 43.890625 18.203125 40.6875 14.59375 35.46875 
L 14.59375 43.484375 
L 7.5 43.484375 
L 7.5 0 
L 14.90625 0 
z
" id="CMSS17-114"/>
     </defs>
     <use transform="scale(0.996264)" xlink:href="#CMSS17-69"/>
     <use transform="translate(55.892013 0)scale(0.996264)" xlink:href="#CMSS17-67"/>
     <use transform="translate(115.747785 0)scale(0.996264)" xlink:href="#CMSS17-68"/>
     <use transform="translate(183.290626 0)scale(0.996264)" xlink:href="#CMSS17-70"/>
     <use transform="translate(267.809299 0)scale(0.996264)" xlink:href="#CMSS17-111"/>
     <use transform="translate(314.652922 0)scale(0.996264)" xlink:href="#CMSS17-102"/>
     <use transform="translate(374.508694 0)scale(0.996264)" xlink:href="#CMSS17-116"/>
     <use transform="translate(408.34026 0)scale(0.996264)" xlink:href="#CMSS17-104"/>
     <use transform="translate(456.545203 0)scale(0.996264)" xlink:href="#CMSS17-101"/>
     <use transform="translate(529.413138 0)scale(0.996264)" xlink:href="#CMSS17-118"/>
     <use transform="translate(572.41328 0)scale(0.996264)" xlink:href="#CMSS17-105"/>
     <use transform="translate(594.594003 0)scale(0.996264)" xlink:href="#CMSS17-101"/>
     <use transform="translate(636.232825 0)scale(0.996264)" xlink:href="#CMSS17-119"/>
     <use transform="translate(700.05237 0)scale(0.996264)" xlink:href="#CMSS17-105"/>
     <use transform="translate(722.233093 0)scale(0.996264)" xlink:href="#CMSS17-110"/>
     <use transform="translate(770.438036 0)scale(0.996264)" xlink:href="#CMSS17-103"/>
     <use transform="translate(848.510773 0)scale(0.996264)" xlink:href="#CMSS17-97"/>
     <use transform="translate(893.432693 0)scale(0.996264)" xlink:href="#CMSS17-110"/>
     <use transform="translate(941.637636 0)scale(0.996264)" xlink:href="#CMSS17-103"/>
     <use transform="translate(988.48126 0)scale(0.996264)" xlink:href="#CMSS17-108"/>
     <use transform="translate(1010.661983 0)scale(0.996264)" xlink:href="#CMSS17-101"/>
     <use transform="translate(1083.529918 0)scale(0.996264)" xlink:href="#CMSS17-111"/>
     <use transform="translate(1130.373541 0)scale(0.996264)" xlink:href="#CMSS17-102"/>
     <use transform="translate(1190.229313 0)scale(0.996264)" xlink:href="#CMSS17-39"/>
     <use transform="translate(1216.253518 0)scale(0.996264)" xlink:href="#CMSS17-118"/>
     <use transform="translate(1259.253659 0)scale(0.996264)" xlink:href="#CMSS17-105"/>
     <use transform="translate(1281.434382 0)scale(0.996264)" xlink:href="#CMSS17-115"/>
     <use transform="translate(1317.347924 0)scale(0.996264)" xlink:href="#CMSS17-105"/>
     <use transform="translate(1339.528647 0)scale(0.996264)" xlink:href="#CMSS17-98"/>
     <use transform="translate(1387.733591 0)scale(0.996264)" xlink:href="#CMSS17-108"/>
     <use transform="translate(1409.914314 0)scale(0.996264)" xlink:href="#CMSS17-101"/>
     <use transform="translate(1451.553136 0)scale(0.996264)" xlink:href="#CMSS17-39"/>
     <use transform="translate(1508.806453 0)scale(0.996264)" xlink:href="#CMSS17-78"/>
     <use transform="translate(1574.867973 0)scale(0.996264)" xlink:href="#CMSS17-83"/>
     <use transform="translate(1626.916489 0)scale(0.996264)" xlink:href="#CMSS17-66"/>
     <use transform="translate(1689.254529 0)scale(0.996264)" xlink:href="#CMSS17-72"/>
     <use transform="translate(1786.545161 0)scale(0.996264)" xlink:href="#CMSS17-77"/>
     <use transform="translate(1868.221191 0)scale(0.996264)" xlink:href="#CMSS17-101"/>
     <use transform="translate(1909.860013 0)scale(0.996264)" xlink:href="#CMSS17-114"/>
     <use transform="translate(1941.769785 0)scale(0.996264)" xlink:href="#CMSS17-103"/>
     <use transform="translate(1988.613409 0)scale(0.996264)" xlink:href="#CMSS17-101"/>
     <use transform="translate(2030.252231 0)scale(0.996264)" xlink:href="#CMSS17-114"/>
     <use transform="translate(2062.162004 0)scale(0.996264)" xlink:href="#CMSS17-115"/>
    </g>
   </g>
  </g>
 </g>
 <defs>
  <clipPath id="p47c92773ef">
   <rect height="372.297176" width="454.448897" x="65.594034" y="35.067696"/>
  </clipPath>
 </defs>
</svg>
